<svg width="30" height="30" viewBox="0 0 30 30" fill="none" xmlns="http://www.w3.org/2000/svg">
<g clip-path="url(#clip0_5568_212112)">
<path d="M15 30C23.2843 30 30 23.2843 30 15C30 6.71573 23.2843 0 15 0C6.71573 0 0 6.71573 0 15C0 23.2843 6.71573 30 15 30Z" fill="#F0F0F0"/>
<path d="M25.4963 4.28578C22.7908 1.635 19.0866 0 14.9999 0C13.6955 0 9.87916 1.635 7.17383 4.28578H25.4963Z" fill="#6DA544"/>
<path d="M14.9998 12.857H29.8468C29.6303 11.3438 29.1883 9.90359 28.5555 8.57129H14.3477L14.9998 12.857Z" fill="#6DA544"/>
<path d="M1.44467 21.4286H28.5559C29.1888 20.0964 29.6308 18.656 29.8472 17.1428H0.15332C0.369824 18.6561 0.81168 20.0964 1.44467 21.4286V21.4286Z" fill="#6DA544"/>
<path d="M4.50391 25.7141C7.20936 28.3649 10.9135 29.9999 15.0003 29.9999C19.087 29.9999 22.7912 28.3649 25.4966 25.7141H4.50391Z" fill="#6DA544"/>
<path d="M15.0003 0C7.44367 0 1.19324 5.58814 0.15332 12.8572H15.0003V0Z" fill="#D80027"/>
<path d="M7.4998 11.5001L6.84766 10.1958V7.58707L8.47809 6.28271L10.1085 7.58707V9.54357L10.7607 8.89143V10.1958L9.45631 11.5001H7.4998Z" fill="#F0F0F0"/>
<path d="M3.99217 7.5L4.16484 8.03145H4.72359L4.27154 8.35998L4.44428 8.89137L3.99217 8.56289L3.54006 8.89137L3.71279 8.35998L3.26074 8.03145H3.81949L3.99217 7.5Z" fill="#F0F0F0"/>
<path d="M5.29686 6.1958L5.46953 6.72725H6.02834L5.57623 7.05578L5.74891 7.58717L5.29686 7.25875L4.8448 7.58717L5.01754 7.05578L4.56543 6.72725H5.12412L5.29686 6.1958Z" fill="#F0F0F0"/>
<path d="M6.60057 4.89136L6.77324 5.4228H7.33193L6.87994 5.75134L7.05256 6.28272L6.60057 5.95431L6.14846 6.28272L6.32113 5.75134L5.86914 5.4228H6.42783L6.60057 4.89136Z" fill="#F0F0F0"/>
<path d="M12.9638 7.5L12.7911 8.03145H12.2324L12.6844 8.35998L12.5117 8.89137L12.9638 8.56289L13.4159 8.89137L13.2432 8.35998L13.6952 8.03145H13.1365L12.9638 7.5Z" fill="#F0F0F0"/>
<path d="M11.6601 6.1958L11.4874 6.72725H10.9287L11.3807 7.05578L11.208 7.58717L11.6601 7.25875L12.1122 7.58717L11.9395 7.05578L12.3915 6.72725H11.8328L11.6601 6.1958Z" fill="#F0F0F0"/>
<path d="M10.3554 4.89136L10.1827 5.4228H9.62402L10.076 5.75134L9.90334 6.28272L10.3554 5.95431L10.8075 6.28272L10.6348 5.75134L11.0868 5.4228H10.5281L10.3554 4.89136Z" fill="#F0F0F0"/>
<path d="M8.4785 4.23926L8.30576 4.7707H7.74707L8.19906 5.09918L8.02639 5.63057L8.4785 5.30215L8.93055 5.63057L8.75787 5.09918L9.20986 4.7707H8.65117L8.4785 4.23926Z" fill="#F0F0F0"/>
</g>
<rect x="0.5" y="0.5" width="29" height="29" rx="14.5" stroke="#D7D7D7"/>
<defs>
<clipPath id="clip0_5568_212112">
<rect width="30" height="30" rx="15" fill="white"/>
</clipPath>
</defs>
</svg>
