<svg width="30" height="30" viewBox="0 0 30 30" fill="none" xmlns="http://www.w3.org/2000/svg">
<rect width="30" height="30" rx="2" fill="white"/>
<path fill-rule="evenodd" clip-rule="evenodd" d="M14.9932 8.13581C12.9938 5.7984 9.65975 5.16964 7.1547 7.31001C4.64964 9.45038 4.29697 13.029 6.2642 15.5604C7.75009 17.4724 11.9713 21.311 13.948 23.0749C14.3114 23.3991 14.4931 23.5613 14.7058 23.6251C14.8905 23.6805 15.0958 23.6805 15.2805 23.6251C15.4932 23.5613 15.6749 23.3991 16.0383 23.0749C18.015 21.311 22.2362 17.4724 23.7221 15.5604C25.6893 13.029 25.3797 9.42787 22.8316 7.31001C20.2835 5.19216 16.9925 5.7984 14.9932 8.13581Z" fill="#5F5C5C" stroke="#5F5C5C" stroke-linecap="round" stroke-linejoin="round"/>
<path d="M19.375 14.375H18.125L16.25 18.125L13.75 10.625L11.875 14.375H10.625" fill="#5F5C5C"/>
<path d="M19.375 14.375H18.125L16.25 18.125L13.75 10.625L11.875 14.375H10.625" stroke="white" stroke-width="2" stroke-linecap="round" stroke-linejoin="round"/>
</svg>
