<svg width="30" height="30" viewBox="0 0 30 30" fill="none" xmlns="http://www.w3.org/2000/svg">
<g clip-path="url(#clip0_5568_212129)">
<path d="M21.5216 1.4884C19.5496 0.534844 17.3372 0 14.9999 0C12.6626 0 10.4502 0.534844 8.47818 1.4884L7.17383 15L8.47818 28.5116C10.4502 29.4652 12.6626 30 14.9999 30C17.3372 30 19.5496 29.4652 21.5216 28.5116L22.826 15L21.5216 1.4884Z" fill="#D80027"/>
<path d="M8.47828 1.48901C3.4609 3.91521 0 9.05323 0 15.0001C0 20.9469 3.4609 26.085 8.47828 28.5112V1.48901Z" fill="black"/>
<path d="M21.5215 1.48901V28.5112C26.5389 26.085 29.9998 20.9469 29.9998 15.0001C29.9998 9.05323 26.5389 3.91521 21.5215 1.48901Z" fill="#496E2D"/>
<path d="M14.9996 9.78271C12.1181 9.78271 9.78223 12.1186 9.78223 15.0001C9.78223 17.8815 12.1181 20.2174 14.9996 20.2174C17.8811 20.2174 20.217 17.8815 20.217 15.0001C20.217 12.1186 17.8811 9.78271 14.9996 9.78271ZM14.9996 18.2609C13.1987 18.2609 11.7387 16.801 11.7387 15.0001C11.7387 13.1992 13.1987 11.7392 14.9996 11.7392C16.8005 11.7392 18.2604 13.1992 18.2604 15.0001C18.2604 16.801 16.8005 18.2609 14.9996 18.2609Z" fill="#FFDA44"/>
<path d="M14.9997 13.0435C14.2793 13.0435 13.6953 13.6274 13.6953 14.3478V16.3043H16.304V14.3478C16.304 13.6274 15.7201 13.0435 14.9997 13.0435V13.0435Z" fill="#FFDA44"/>
</g>
<rect x="0.5" y="0.5" width="29" height="29" rx="14.5" stroke="#D7D7D7"/>
<defs>
<clipPath id="clip0_5568_212129">
<rect width="30" height="30" rx="15" fill="white"/>
</clipPath>
</defs>
</svg>
