<svg width="30" height="30" viewBox="0 0 30 30" fill="none" xmlns="http://www.w3.org/2000/svg">
<g clip-path="url(#clip0_5568_212136)">
<path d="M29.4833 18.9131C29.8195 17.6654 30 16.354 30 15.0001C30 13.6461 29.8195 12.3347 29.4833 11.087L13.6956 0.0571289C10.7647 0.309668 8.0751 1.40479 5.86957 3.09938L0.516738 11.087C0.180469 12.3347 0 13.6461 0 15.0001C0 16.3461 0.178301 17.6503 0.51082 18.8914L5.86951 26.9007C8.07504 28.5953 10.7647 29.6905 13.6956 29.943L29.4833 18.9131Z" fill="#FFDA44"/>
<path d="M0.516602 18.9131C1.38449 22.1333 3.29729 24.9244 5.86943 26.9007V18.9131H0.516602Z" fill="#0052B4"/>
<path d="M13.6953 29.9429C14.1253 29.98 14.5601 30 14.9997 30C21.9301 30 27.7617 25.2996 29.4829 18.9131H13.6953V29.9429Z" fill="#0052B4"/>
<path d="M29.4829 11.0869C27.7617 4.70045 21.9301 0 14.9997 0C14.5601 0 14.1253 0.0200391 13.6953 0.0570703V11.0869H29.4829Z" fill="#0052B4"/>
<path d="M5.86943 3.09937C3.29729 5.07573 1.38449 7.86673 0.516602 11.087H5.86943V3.09937Z" fill="#0052B4"/>
<path d="M29.873 13.0434H11.7392H11.7391V0.356445C10.3529 0.663828 9.03873 1.16205 7.82607 1.82375V13.0433H0.126973C0.0434766 13.6838 0 14.3368 0 14.9999C0 15.663 0.0434766 16.316 0.126973 16.9564H7.82602H7.82607V28.176C9.03873 28.8376 10.3529 29.336 11.7391 29.6433V16.9566V16.9565H29.873C29.9564 16.316 30 15.663 30 14.9999C30 14.3368 29.9564 13.6838 29.873 13.0434V13.0434Z" fill="#D80027"/>
</g>
<rect x="0.5" y="0.5" width="29" height="29" rx="14.5" stroke="#D7D7D7"/>
<defs>
<clipPath id="clip0_5568_212136">
<rect width="30" height="30" rx="15" fill="white"/>
</clipPath>
</defs>
</svg>
