<svg width="30" height="30" viewBox="0 0 30 30" fill="none" xmlns="http://www.w3.org/2000/svg">
<g clip-path="url(#clip0_5568_212144)">
<path d="M15 30C23.2843 30 30 23.2843 30 15C30 6.71573 23.2843 0 15 0C6.71573 0 0 6.71573 0 15C0 23.2843 6.71573 30 15 30Z" fill="#D80027"/>
<path d="M23.478 11.1334H18.0448C18.3802 10.7822 18.5866 10.3067 18.5866 9.78268C18.5866 8.70215 17.7107 7.82617 16.6301 7.82617C15.9494 7.82617 15.3502 8.17399 14.9997 8.70139C14.6493 8.17399 14.05 7.82617 13.3693 7.82617C12.2887 7.82617 11.4128 8.70215 11.4128 9.78268C11.4128 10.3067 11.6192 10.7822 11.9546 11.1334H6.52148C6.52148 12.5741 7.77639 13.742 9.21703 13.742H9.13008C9.13008 15.1829 10.298 16.3508 11.7388 16.3508C11.7388 16.8174 11.8618 17.2549 12.0765 17.6337L9.91266 19.7976L11.5729 21.4577L13.9279 19.1027C14.0201 19.1365 14.1155 19.1637 14.2141 19.1821L12.791 22.3951L14.9997 24.7827L17.2084 22.395L15.7853 19.182C15.8839 19.1635 15.9793 19.1365 16.0716 19.1026L18.4266 21.4575L20.0868 19.7974L17.9228 17.6335C18.1376 17.2548 18.2606 16.8173 18.2606 16.3506C19.7013 16.3506 20.8693 15.1827 20.8693 13.7419H20.7824C22.223 13.742 23.478 12.5741 23.478 11.1334V11.1334Z" fill="black"/>
</g>
<rect x="0.5" y="0.5" width="29" height="29" rx="14.5" stroke="#D7D7D7"/>
<defs>
<clipPath id="clip0_5568_212144">
<rect width="30" height="30" rx="15" fill="white"/>
</clipPath>
</defs>
</svg>
