<svg width="30" height="30" viewBox="0 0 30 30" fill="none" xmlns="http://www.w3.org/2000/svg">
<g clip-path="url(#clip0_5568_212147)">
<path d="M15.0004 0C23.2847 0 30.0004 6.71578 30.0004 15C30.0004 23.2842 23.2847 30 15.0004 30C15.0004 29.3479 13.0439 15 13.0439 15L15.0004 0Z" fill="#F0F0F0"/>
<path d="M15 30C6.71578 30 0 23.2842 0 15C0 6.71578 6.71578 0 15 0" fill="#496E2D"/>
<path d="M18.2229 12.1228L16.9922 13.8188L14.999 13.1724L16.2317 14.8669L15.0011 16.5629L16.9936 15.9142L18.2263 17.6087L18.225 15.5133L20.2174 14.8646L18.2243 14.2183L18.2229 12.1228Z" fill="#D80027"/>
<path d="M16.2443 19.239C13.9031 19.239 12.0051 17.3411 12.0051 14.9999C12.0051 12.6587 13.9031 10.7608 16.2443 10.7608C16.9742 10.7608 17.6611 10.9453 18.2608 11.2703C17.32 10.3503 16.0335 9.78247 14.6138 9.78247C11.7323 9.78247 9.39648 12.1184 9.39648 14.9998C9.39648 17.8813 11.7324 20.2172 14.6138 20.2172C16.0336 20.2172 17.3201 19.6494 18.2608 18.7294C17.6611 19.0545 16.9742 19.239 16.2443 19.239Z" fill="#D80027"/>
</g>
<rect x="0.5" y="0.5" width="29" height="29" rx="14.5" stroke="#D7D7D7"/>
<defs>
<clipPath id="clip0_5568_212147">
<rect width="30" height="30" rx="15" fill="white"/>
</clipPath>
</defs>
</svg>
