<svg width="30" height="30" viewBox="0 0 30 30" fill="none" xmlns="http://www.w3.org/2000/svg">
<g clip-path="url(#clip0_5568_212153)">
<path d="M15 30C23.2843 30 30 23.2843 30 15C30 6.71573 23.2843 0 15 0C6.71573 0 0 6.71573 0 15C0 23.2843 6.71573 30 15 30Z" fill="#F0F0F0"/>
<path d="M22.2771 1.88156C20.1218 0.683437 17.6408 0 15 0C6.71637 0 0.00105469 6.71473 0 14.9982L10.4348 9.78264L22.2771 1.88156Z" fill="#0052B4"/>
<path d="M0 15.0017C0.00105469 23.2852 6.71637 30 15 30C17.6408 30 20.1218 29.3166 22.2771 28.1184L10.4348 20.2173L0 15.0017Z" fill="#0052B4"/>
<path d="M23.5271 2.65914C23.1243 2.38029 22.7068 2.12096 22.2766 1.88184L0 14.9983V15C0 15 0 15.0013 0 15.0018L22.2766 28.1182C22.7068 27.879 23.1243 27.6197 23.5272 27.3409L2.5677 15L23.5271 2.65914Z" fill="#D80027"/>
<path d="M26.0865 14.4404H24.2997C24.7643 13.8826 24.7357 13.0528 24.2123 12.5295C24.7667 11.9751 24.7667 11.0762 24.2123 10.5218L24.1789 10.5553C24.7332 10.0009 24.7667 9.06852 24.2123 8.51416L16.1816 16.5448C16.7361 17.0993 17.6192 17.0926 18.1735 16.5382L18.3281 16.397L22.1735 16.0474V17.7012H23.4779V15.9288L25.4344 15.751L26.0865 14.4404Z" fill="#A2001D"/>
<path d="M16.3048 18.2609L15 17.6088L16.3048 16.9565H24.783V18.2609H16.3048Z" fill="#FFDA44"/>
</g>
<rect x="0.5" y="0.5" width="29" height="29" rx="14.5" stroke="#D7D7D7"/>
<defs>
<clipPath id="clip0_5568_212153">
<rect width="30" height="30" rx="15" fill="white"/>
</clipPath>
</defs>
</svg>
