<svg width="30" height="30" viewBox="0 0 30 30" fill="none" xmlns="http://www.w3.org/2000/svg">
<g clip-path="url(#clip0_5568_212161)">
<path d="M8.47818 28.5116C10.4502 29.4652 12.6625 30 14.9999 30C17.3373 30 19.5496 29.4652 21.5216 28.5116L22.826 15L21.5216 1.4884C19.5496 0.534844 17.3373 0 14.9999 0C12.6625 0 10.4502 0.534844 8.47818 1.4884L7.17383 15L8.47818 28.5116Z" fill="#FFDA44"/>
<path d="M21.5215 28.5112C26.5389 26.085 29.9998 20.9469 29.9998 15.0001C29.9998 9.05323 26.5389 3.91515 21.5215 1.48901V28.5112Z" fill="#D80027"/>
<path d="M8.47828 28.5112V1.48901C3.46084 3.91515 0 9.05317 0 15.0001C0 20.947 3.46084 26.085 8.47828 28.5112Z" fill="#0052B4"/>
<path d="M15 20.2174C15 17.8237 15 15 15 15H18.9131V16.9565C18.9131 17.2964 18.2609 18.5419 16.6512 19.5652C16.0415 19.9529 15.4104 20.0776 15 20.2174Z" fill="#D80027"/>
<path d="M11.0869 11.0869H15V15H11.0869V11.0869Z" fill="#D80027"/>
<path d="M16.9561 9.78263C16.9561 9.06222 16.3721 8.47827 15.6517 8.47827C15.4138 8.47827 15.1915 8.54296 14.9996 8.65417C14.8076 8.54296 14.5853 8.47827 14.3474 8.47827C13.6271 8.47827 13.0431 9.06222 13.0431 9.78263H9.78223V16.3043C9.78223 18.7322 11.7103 20.1363 13.2223 20.8641C13.1092 21.0574 13.0431 21.2816 13.0431 21.5218C13.0431 22.2422 13.6271 22.8261 14.3474 22.8261C14.5853 22.8261 14.8076 22.7614 14.9996 22.6502C15.1916 22.7614 15.4138 22.8261 15.6517 22.8261C16.3721 22.8261 16.9561 22.2422 16.9561 21.5218C16.9561 21.2816 16.89 21.0574 16.7768 20.8641C18.2888 20.1363 20.217 18.7322 20.217 16.3043V9.78263H16.9561ZM18.2604 16.3043C18.2604 16.6442 18.2604 17.6784 16.6508 18.7018C16.041 19.0895 15.41 19.3408 14.9996 19.4806C14.5892 19.3408 13.9581 19.0895 13.3484 18.7018C11.7387 17.6784 11.7387 16.6442 11.7387 16.3043V11.7391H18.2604V16.3043Z" fill="#FF9811"/>
</g>
<rect x="0.5" y="0.5" width="29" height="29" rx="14.5" stroke="#D7D7D7"/>
<defs>
<clipPath id="clip0_5568_212161">
<rect width="30" height="30" rx="15" fill="white"/>
</clipPath>
</defs>
</svg>
