<svg width="30" height="30" viewBox="0 0 30 30" fill="none" xmlns="http://www.w3.org/2000/svg">
<g clip-path="url(#clip0_5568_212169)">
<path d="M0 15C0 6.71578 6.71578 0 15 0C23.2842 0 30 6.71578 30 15C29.3479 15 15 16.9565 15 16.9565L0 15Z" fill="#D80027"/>
<path d="M30 15C30 23.2842 23.2842 30 15 30C6.71578 30 0 23.2842 0 15" fill="black"/>
<path d="M12.9434 11.9304L14.215 12.8533L13.7304 14.3479L15.0011 13.4235L16.2728 14.3464L15.7863 12.8522L17.0569 11.928L15.4857 11.9289L14.9992 10.4348L14.5146 11.9294L12.9434 11.9304Z" fill="#FFDA44"/>
<path d="M18.75 8.50476C17.568 7.82232 16.2756 7.50023 15 7.50245V9.45855C15.9428 9.45685 16.898 9.69474 17.7717 10.1992C20.4189 11.7276 21.3291 15.1246 19.8007 17.7718C18.2724 20.4189 14.8754 21.3292 12.2282 19.8008C11.457 19.3556 10.8345 18.751 10.3755 18.0533L8.74219 19.1317C9.36311 20.0756 10.2066 20.8928 11.25 21.4951C14.8315 23.5629 19.4274 22.3314 21.4951 18.7499C23.5629 15.1684 22.3315 10.5725 18.75 8.50476V8.50476Z" fill="#FFDA44"/>
<path d="M10.6749 13.6956C10.1564 14.6435 10.5046 15.8325 11.4525 16.351L17.8069 19.8233C17.3748 20.6132 17.6043 21.5747 18.3942 22.0068L20.1107 22.9458C20.9006 23.3779 21.8915 23.0878 22.3236 22.2978L23.2626 20.5814L10.6749 13.6956Z" fill="#FFDA44"/>
</g>
<rect x="0.5" y="0.5" width="29" height="29" rx="14.5" stroke="#D7D7D7"/>
<defs>
<clipPath id="clip0_5568_212169">
<rect width="30" height="30" rx="15" fill="white"/>
</clipPath>
</defs>
</svg>
