<svg width="30" height="30" viewBox="0 0 30 30" fill="none" xmlns="http://www.w3.org/2000/svg">
<g clip-path="url(#clip0_5568_212176)">
<path d="M30 15C30 23.2842 23.2842 30 15 30C6.71578 30 0 23.2842 0 15C0 15.0036 15 0.00164063 15 0C23.2842 0 30 6.71578 30 15Z" fill="#0052B4"/>
<path d="M14.96 15.0001H15.0001C15.0001 14.9866 15.0001 14.9735 15.0001 14.96C14.9867 14.9734 14.9734 14.9867 14.96 15.0001Z" fill="#F0F0F0"/>
<path d="M15 7.82607C15 5.18672 15 3.45732 15 0H14.9975C6.71432 0.00140625 0 6.71654 0 15H7.82607V10.5931L12.233 15H14.9599C14.9733 14.9866 14.9866 14.9733 15.0001 14.9599C15.0001 13.9493 15.0001 13.0476 15.0001 12.2331L10.593 7.82607H15Z" fill="#F0F0F0"/>
<path d="M7.58832 1.95654C5.24229 3.29242 3.29188 5.24277 1.95605 7.58881V15H5.86912V5.86973V5.86961H14.9996C14.9996 4.63545 14.9996 3.45971 14.9996 1.95654H7.58832Z" fill="#D80027"/>
<path d="M14.9991 13.1554L9.66973 7.82617H7.8252V7.82629L14.999 15H14.9991C14.9991 15 14.9991 13.7281 14.9991 13.1554V13.1554Z" fill="#D80027"/>
<path d="M25.3671 17.1957C25.7984 16.6023 26.0865 15.8776 26.0865 15V8.47826C25.5414 8.88771 24.8641 9.13041 24.13 9.13041C23.0632 9.13041 22.1162 8.61812 21.5213 7.82617C20.9263 8.61812 19.9793 9.13041 18.9126 9.13041C18.1784 9.13041 17.501 8.88766 16.9561 8.47838V15C16.9561 15.8776 17.2442 16.6023 17.6755 17.1957H25.3671Z" fill="#F3F3F3"/>
<path d="M24.011 13.7899C24.2186 13.2833 24.3801 12.5428 24.3801 12.1743C24.3801 11.5822 23.6082 11.1023 23.6082 11.1023C23.6082 11.1023 22.8363 11.5822 22.8363 12.1743C22.8363 12.5429 22.9978 13.2833 23.2054 13.7899L22.7598 14.796C23.0217 14.9025 23.308 14.9617 23.6083 14.9617C23.9086 14.9617 24.1948 14.9025 24.4568 14.796L24.011 13.7899Z" fill="#FF9811"/>
<path d="M20.9942 10.5322C20.4518 10.6057 19.7298 10.8363 19.4107 11.0205C18.8979 11.3166 18.8682 12.225 18.8682 12.225C18.8682 12.225 19.6698 12.6534 20.1825 12.3574C20.5018 12.1732 21.0621 11.6632 21.3969 11.23L22.4912 11.1128C22.4525 10.8329 22.3604 10.5553 22.2104 10.2953C22.0602 10.0354 21.8659 9.81692 21.6427 9.64331L20.9942 10.5322Z" fill="#FF9811"/>
<path d="M19.6812 14.774C20.0159 15.2069 20.5765 15.7169 20.8957 15.9012C21.4084 16.1972 22.2101 15.7688 22.2101 15.7688C22.2101 15.7688 22.1802 14.8603 21.6675 14.5643C21.3483 14.38 20.6263 14.1497 20.0839 14.0763L19.4354 13.1873C19.2122 13.3608 19.0179 13.5794 18.8678 13.8391C18.7177 14.0992 18.6258 14.3767 18.5869 14.6568L19.6812 14.774Z" fill="#FF9811"/>
<path d="M17.5146 16.9568C18.7327 18.9112 21.5218 19.5654 21.5218 19.5654C21.5218 19.5654 24.3109 18.9112 25.529 16.9568H17.5146Z" fill="#338AF3"/>
</g>
<rect x="0.5" y="0.5" width="29" height="29" rx="14.5" stroke="#D7D7D7"/>
<defs>
<clipPath id="clip0_5568_212176">
<rect width="30" height="30" rx="15" fill="white"/>
</clipPath>
</defs>
</svg>
