<svg width="30" height="30" viewBox="0 0 30 30" fill="none" xmlns="http://www.w3.org/2000/svg">
<path d="M9.82143 13.0357H9.83214M14.6429 13.0357H14.6536M19.4643 13.0357H19.475M12.3929 22.3571L13.9571 24.4429C14.1898 24.753 14.3061 24.9081 14.4487 24.9636C14.5736 25.0121 14.7121 25.0121 14.837 24.9636C14.9796 24.9081 15.0959 24.753 15.3286 24.4429L16.8929 22.3571C17.2069 21.9384 17.364 21.729 17.5555 21.5691C17.8109 21.3559 18.1125 21.2052 18.4362 21.1288C18.6791 21.0714 18.9408 21.0714 19.4643 21.0714C20.962 21.0714 21.7108 21.0714 22.3015 20.8268C23.0891 20.5005 23.7148 19.8748 24.041 19.0872C24.2857 18.4965 24.2857 17.7477 24.2857 16.25V10.1429C24.2857 8.34269 24.2857 7.4426 23.9354 6.75503C23.6272 6.15022 23.1355 5.6585 22.5307 5.35034C21.8431 5 20.943 5 19.1429 5H10.1429C8.34269 5 7.4426 5 6.75503 5.35034C6.15022 5.6585 5.6585 6.15022 5.35034 6.75503C5 7.4426 5 8.34269 5 10.1429V16.25C5 17.7477 5 18.4965 5.24467 19.0872C5.5709 19.8748 6.19664 20.5005 6.98423 20.8268C7.57492 21.0714 8.32376 21.0714 9.82143 21.0714C10.3449 21.0714 10.6066 21.0714 10.8495 21.1288C11.1732 21.2052 11.4748 21.3559 11.7302 21.5691C11.9217 21.729 12.0788 21.9384 12.3929 22.3571ZM10.3571 13.0357C10.3571 13.3316 10.1173 13.5714 9.82143 13.5714C9.52556 13.5714 9.28571 13.3316 9.28571 13.0357C9.28571 12.7398 9.52556 12.5 9.82143 12.5C10.1173 12.5 10.3571 12.7398 10.3571 13.0357ZM15.1786 13.0357C15.1786 13.3316 14.9387 13.5714 14.6429 13.5714C14.347 13.5714 14.1071 13.3316 14.1071 13.0357C14.1071 12.7398 14.347 12.5 14.6429 12.5C14.9387 12.5 15.1786 12.7398 15.1786 13.0357ZM20 13.0357C20 13.3316 19.7602 13.5714 19.4643 13.5714C19.1684 13.5714 18.9286 13.3316 18.9286 13.0357C18.9286 12.7398 19.1684 12.5 19.4643 12.5C19.7602 12.5 20 12.7398 20 13.0357Z" stroke="#5F5C5C" stroke-width="1.5" stroke-linecap="round" stroke-linejoin="round"/>
</svg>
