<svg width="30" height="30" viewBox="0 0 30 30" fill="none" xmlns="http://www.w3.org/2000/svg">
<path d="M11.9643 10.3571L17.3214 15.7143M17.3214 10.3571L11.9643 15.7143M12.3929 22.3571L13.9571 24.4429C14.1898 24.753 14.3061 24.9081 14.4487 24.9636C14.5736 25.0121 14.7121 25.0121 14.837 24.9636C14.9796 24.9081 15.0959 24.753 15.3286 24.4429L16.8929 22.3571C17.2069 21.9384 17.364 21.729 17.5555 21.5691C17.8109 21.3559 18.1125 21.2052 18.4362 21.1288C18.6791 21.0714 18.9408 21.0714 19.4643 21.0714C20.962 21.0714 21.7108 21.0714 22.3015 20.8268C23.0891 20.5005 23.7148 19.8748 24.041 19.0872C24.2857 18.4965 24.2857 17.7477 24.2857 16.25V10.1429C24.2857 8.34269 24.2857 7.4426 23.9354 6.75503C23.6272 6.15022 23.1355 5.6585 22.5307 5.35034C21.8431 5 20.943 5 19.1429 5H10.1429C8.34269 5 7.4426 5 6.75503 5.35034C6.15022 5.6585 5.6585 6.15022 5.35034 6.75503C5 7.4426 5 8.34269 5 10.1429V16.25C5 17.7477 5 18.4965 5.24467 19.0872C5.5709 19.8748 6.19664 20.5005 6.98423 20.8268C7.57492 21.0714 8.32376 21.0714 9.82143 21.0714C10.3449 21.0714 10.6066 21.0714 10.8495 21.1288C11.1732 21.2052 11.4748 21.3559 11.7302 21.5691C11.9217 21.729 12.0788 21.9384 12.3929 22.3571Z" stroke="#5F5C5C" stroke-width="1.5" stroke-linecap="round" stroke-linejoin="round"/>
</svg>
