<svg width="30" height="30" viewBox="0 0 30 30" fill="none" xmlns="http://www.w3.org/2000/svg">
<path d="M5 10.1429C5 8.34269 5 7.4426 5.35034 6.75503C5.6585 6.15022 6.15022 5.6585 6.75503 5.35034C7.4426 5 8.34269 5 10.1429 5H19.1429C20.943 5 21.8431 5 22.5307 5.35034C23.1355 5.6585 23.6272 6.15022 23.9354 6.75503C24.2857 7.4426 24.2857 8.34269 24.2857 10.1429V16.25C24.2857 17.7477 24.2857 18.4965 24.041 19.0872C23.7148 19.8748 23.0891 20.5005 22.3015 20.8268C21.7108 21.0714 20.962 21.0714 19.4643 21.0714C18.9408 21.0714 18.6791 21.0714 18.4362 21.1288C18.1125 21.2052 17.8109 21.3559 17.5555 21.5691C17.364 21.729 17.2069 21.9384 16.8929 22.3571L15.3286 24.4429C15.0959 24.753 14.9796 24.9081 14.837 24.9636C14.7121 25.0121 14.5736 25.0121 14.4487 24.9636C14.3061 24.9081 14.1898 24.753 13.9571 24.4429L12.3929 22.3571C12.0788 21.9384 11.9217 21.729 11.7302 21.5691C11.4748 21.3559 11.1732 21.2052 10.8495 21.1288C10.6066 21.0714 10.3449 21.0714 9.82143 21.0714C8.32376 21.0714 7.57492 21.0714 6.98423 20.8268C6.19664 20.5005 5.5709 19.8748 5.24467 19.0872C5 18.4965 5 17.7477 5 16.25V10.1429Z" stroke="#5F5C5C" stroke-width="1.5" stroke-linecap="round" stroke-linejoin="round"/>
</svg>
