<svg width="30" height="30" viewBox="0 0 30 30" fill="none" xmlns="http://www.w3.org/2000/svg">
<g clip-path="url(#clip0_5568_212191)">
<path d="M0 15C0 16.0274 0.103594 17.0307 0.30041 18L15 18.913L29.6996 18C29.8965 17.0307 30 16.0274 30 15C30 13.9725 29.8964 12.9693 29.6996 12L15 11.0869L0.30041 12C0.103594 12.9693 0 13.9725 0 15H0Z" fill="#0052B4"/>
<path d="M29.7 18H0.300781C1.69057 24.8467 7.74359 30 15.0004 30C22.2571 30 28.3102 24.8467 29.7 18Z" fill="#F0F0F0"/>
<path d="M0.300781 12H29.7001C28.3102 5.15332 22.2573 0 15.0004 0C7.74348 0 1.69057 5.15332 0.300781 12V12Z" fill="black"/>
<path d="M21.522 12H8.47852L11.1434 10.7464L9.72428 8.16566L12.6179 8.71908L12.9847 5.7959L15.0002 7.94594L17.0159 5.7959L17.3824 8.71908L20.2762 8.16566L18.8572 10.7465L21.522 12Z" fill="#FFDA44"/>
<path d="M0 15C0 23.2843 6.71578 30 15 30L2.99977 5.99951C1.11633 8.50668 0 11.6229 0 15Z" fill="#A2001D"/>
<path d="M15 30C23.2842 30 30 23.2843 30 15C30 11.6229 28.8837 8.50668 27.0002 5.99951L15 30Z" fill="#A2001D"/>
</g>
<rect x="0.5" y="0.5" width="29" height="29" rx="14.5" stroke="#D7D7D7"/>
<defs>
<clipPath id="clip0_5568_212191">
<rect width="30" height="30" rx="15" fill="white"/>
</clipPath>
</defs>
</svg>
