<svg width="30" height="30" viewBox="0 0 30 30" fill="none" xmlns="http://www.w3.org/2000/svg">
<rect width="30" height="30" rx="2" fill="white"/>
<path d="M7.58065 15.125V14.625C7.58065 13.1753 8.79381 12 10.2903 12H12.0968V18.25H10.2903C8.79381 18.25 7.58065 17.0747 7.58065 15.625V15.125ZM7.58065 15.125H5M22.4194 15.125V15.625C22.4194 17.0747 21.2062 18.25 19.7097 18.25H17.9032V17M22.4194 15.125V14.625C22.4194 13.1753 21.2062 12 19.7097 12H17.9032V13.25M22.4194 15.125H25M17.9032 13.25H15.3226M17.9032 13.25V17M17.9032 17H15.3226" stroke="#5F5C5C" stroke-width="1.5" stroke-linecap="round" stroke-linejoin="round"/>
</svg>
