<svg width="30" height="30" viewBox="0 0 30 30" fill="none" xmlns="http://www.w3.org/2000/svg">
<rect width="30" height="30" rx="2" fill="white"/>
<path d="M5 9.99574C4.79499 9.99045 4.64612 9.97859 4.51227 9.95196C3.52055 9.7547 2.7453 8.97945 2.54804 7.98773C2.5 7.74623 2.5 7.45582 2.5 6.875C2.5 6.29418 2.5 6.00377 2.54804 5.76227C2.7453 4.77055 3.52055 3.9953 4.51227 3.79804C4.75377 3.75 5.04418 3.75 5.625 3.75H24.375C24.9558 3.75 25.2462 3.75 25.4877 3.79804C26.4795 3.9953 27.2547 4.77055 27.452 5.76227C27.5 6.00377 27.5 6.29418 27.5 6.875C27.5 7.45582 27.5 7.74623 27.452 7.98773C27.2547 8.97945 26.4795 9.7547 25.4877 9.95196C25.3539 9.97859 25.205 9.99045 25 9.99574M12.5 16.25H17.5M5 10H25V20.25C25 22.3502 25 23.4003 24.5913 24.2025C24.2317 24.9081 23.6581 25.4817 22.9525 25.8413C22.1503 26.25 21.1002 26.25 19 26.25H11C8.8998 26.25 7.8497 26.25 7.04754 25.8413C6.34193 25.4817 5.76825 24.9081 5.40873 24.2025C5 23.4003 5 22.3502 5 20.25V10Z" stroke="#5F5C5C" stroke-width="1.5" stroke-linecap="round" stroke-linejoin="round"/>
</svg>
