<svg width="30" height="30" viewBox="0 0 30 30" fill="none" xmlns="http://www.w3.org/2000/svg">
<rect width="30" height="30" rx="2" fill="white"/>
<path d="M7 11H23V19.2C23 20.8802 23 21.7202 22.673 22.362C22.3854 22.9265 21.9265 23.3854 21.362 23.673C20.7202 24 19.8802 24 18.2 24H11.8C10.1198 24 9.27976 24 8.63803 23.673C8.07354 23.3854 7.6146 22.9265 7.32698 22.362C7 21.7202 7 20.8802 7 19.2V11Z" fill="#5F5C5C"/>
<path d="M7.5 6H22.5C22.9647 6 23.197 6 23.3902 6.03843C24.1836 6.19624 24.8038 6.81644 24.9616 7.60982C25 7.80302 25 8.03534 25 8.5C25 8.96466 25 9.19698 24.9616 9.39018C24.8038 10.1836 24.1934 10.8422 23.4 11C23.2929 11.0213 23.164 10.9958 23 11H7C6.83599 10.9958 6.70708 11.0213 6.6 11C5.80662 10.8422 5.19624 10.1836 5.03843 9.39018C5 9.19698 5 8.96466 5 8.5C5 8.03534 5 7.80302 5.03843 7.60982C5.19624 6.81644 5.81644 6.19624 6.60982 6.03843C6.80302 6 7.03534 6 7.5 6Z" fill="#5F5C5C"/>
<path d="M7 11H23M7 11V19.2C7 20.8802 7 21.7202 7.32698 22.362C7.6146 22.9265 8.07354 23.3854 8.63803 23.673C9.27976 24 10.1198 24 11.8 24H18.2C19.8802 24 20.7202 24 21.362 23.673C21.9265 23.3854 22.3854 22.9265 22.673 22.362C23 21.7202 23 20.8802 23 19.2V11M7 11C6.83599 10.9958 6.70708 11.0213 6.6 11C5.80662 10.8422 5.19624 10.1836 5.03843 9.39018C5 9.19698 5 8.96466 5 8.5C5 8.03534 5 7.80302 5.03843 7.60982C5.19624 6.81644 5.81644 6.19624 6.60982 6.03843C6.80302 6 7.03534 6 7.5 6H22.5C22.9647 6 23.197 6 23.3902 6.03843C24.1836 6.19624 24.8038 6.81644 24.9616 7.60982C25 7.80302 25 8.03534 25 8.5C25 8.96466 25 9.19698 24.9616 9.39018C24.8038 10.1836 24.1934 10.8422 23.4 11C23.2929 11.0213 23.164 10.9958 23 11M13 16H17" stroke="white" stroke-linecap="round" stroke-linejoin="round"/>
</svg>
