<svg width="30" height="30" viewBox="0 0 30 30" fill="none" xmlns="http://www.w3.org/2000/svg">
<g clip-path="url(#clip0_5568_212199)">
<path d="M15 30C23.2843 30 30 23.2843 30 15C30 6.71573 23.2843 0 15 0C6.71573 0 0 6.71573 0 15C0 23.2843 6.71573 30 15 30Z" fill="#F0F0F0"/>
<path d="M14.9999 0C9.05297 0 3.91453 3.46084 1.48828 8.47828H28.5114C26.0852 3.46084 20.9467 0 14.9999 0V0Z" fill="#338AF3"/>
<path d="M14.9999 30C20.9467 30 26.0852 26.5392 28.5115 21.5217H1.48828C3.91453 26.5392 9.05297 30 14.9999 30Z" fill="#338AF3"/>
<path d="M19.4832 15L17.6513 15.8617L18.6268 17.6359L16.6375 17.2553L16.3855 19.2648L14.9999 17.7869L13.6143 19.2648L13.3623 17.2553L11.373 17.6358L12.3485 15.8617L10.5166 15L12.3485 14.1382L11.373 12.3641L13.3622 12.7446L13.6143 10.7351L14.9999 12.2131L16.3855 10.7351L16.6375 12.7446L18.6269 12.3641L17.6513 14.1383L19.4832 15Z" fill="#FFDA44"/>
</g>
<rect x="0.5" y="0.5" width="29" height="29" rx="14.5" stroke="#D7D7D7"/>
<defs>
<clipPath id="clip0_5568_212199">
<rect width="30" height="30" rx="15" fill="white"/>
</clipPath>
</defs>
</svg>
