<svg width="30" height="30" viewBox="0 0 30 30" fill="none" xmlns="http://www.w3.org/2000/svg">
<g clip-path="url(#clip0_5568_212209)">
<path d="M15 30C23.2843 30 30 23.2843 30 15C30 6.71573 23.2843 0 15 0C6.71573 0 0 6.71573 0 15C0 23.2843 6.71573 30 15 30Z" fill="#FFDA44"/>
<path d="M14.9997 30.0001C19.546 30.0001 23.6196 27.9772 26.3704 24.7827H3.62891C6.37971 27.9772 10.4533 30.0001 14.9997 30.0001Z" fill="#338AF3"/>
<path d="M30 15C30 6.71578 23.2842 0 15 0C6.71578 0 0 6.71578 0 15C0 16.3539 0.180469 17.6654 0.516738 18.9131H29.4833C29.8195 17.6654 30 16.3539 30 15Z" fill="#338AF3"/>
<path d="M1.19238 20.8696C1.48154 21.5491 1.81957 22.2025 2.20166 22.8261H27.7985C28.1805 22.2025 28.5186 21.549 28.8079 20.8696H1.19238Z" fill="#338AF3"/>
<path d="M6.87398 9.46072L3.94336 8.16732L6.87398 6.87393L8.16732 3.94336L9.46066 6.87393L12.3912 8.16732L9.46066 9.46072L8.16732 12.3913L6.87398 9.46072Z" fill="#F0F0F0"/>
<path d="M8.1673 5.55859L8.966 7.3685L10.776 8.16731L8.966 8.96605L8.1673 10.776L7.3685 8.96605L5.55859 8.16731L7.3685 7.3685L8.1673 5.55859Z" fill="#D80027"/>
</g>
<rect x="0.5" y="0.5" width="29" height="29" rx="14.5" stroke="#D7D7D7"/>
<defs>
<clipPath id="clip0_5568_212209">
<rect width="30" height="30" rx="15" fill="white"/>
</clipPath>
</defs>
</svg>
