<svg width="30" height="30" viewBox="0 0 30 30" fill="none" xmlns="http://www.w3.org/2000/svg">
<rect width="30" height="30" rx="2" fill="white"/>
<path d="M4.17666 20.943C4.64281 20.7055 5.02181 20.3265 5.25933 19.8603C5.52935 19.3304 5.52935 18.6366 5.52935 17.2492V15.8453H6.76806C7.90826 15.8453 8.83258 14.921 8.83258 13.7808C8.83258 12.6406 7.90826 11.7163 6.76806 11.7163H5.52935C5.52935 10.5619 5.52935 9.98476 5.34077 9.52948C5.08933 8.92244 4.60704 8.44015 4 8.18871M19.1548 8V9.23871C19.1548 10.5759 18.2305 11.3032 17.0903 11.3032C15.9501 11.3032 15.0258 10.5759 15.0258 9.23871V8H14.2C13.0457 8 12.4685 8 12.0132 8.18858C11.4062 8.44003 10.9239 8.92231 10.6725 9.52935C10.4839 9.98463 10.4839 10.5618 10.4839 11.7161H11.7226C12.8628 11.7161 13.7871 12.6404 13.7871 13.7806C13.7871 14.9208 12.8628 15.8452 11.7226 15.8452H10.4839V17.249C10.4839 18.6365 10.4839 19.3303 10.7539 19.8602C10.9914 20.3264 11.3704 20.7054 11.8366 20.9429C12.3665 21.2129 13.0603 21.2129 14.4477 21.2129H15.4387V19.7677C15.4387 18.7416 16.2706 17.9097 17.2968 17.9097C18.323 17.9097 19.1548 18.7416 19.1548 19.7677V21.2129H19.7329C21.1204 21.2129 21.8141 21.2129 22.3441 20.9429C22.8102 20.7054 23.1892 20.3264 23.4268 19.8602C23.6968 19.3303 23.6968 18.6365 23.6968 17.249V15.8452H24.9355C26.0757 15.8452 27 14.9208 27 13.7806C27 12.6404 26.0757 11.7161 24.9355 11.7161H23.6968C23.6968 10.5618 23.6968 9.98463 23.5082 9.52935C23.2567 8.92231 22.7745 8.44003 22.1674 8.18858C21.7121 8 21.135 8 19.9806 8H19.1548Z" stroke="#5F5C5C" stroke-width="1.5" stroke-linecap="round" stroke-linejoin="round"/>
</svg>
