<svg width="30" height="30" viewBox="0 0 30 30" fill="none" xmlns="http://www.w3.org/2000/svg">
<path fill-rule="evenodd" clip-rule="evenodd" d="M5 9V11.5C5 12.3284 5.67157 13 6.5 13C6.63261 13 6.75979 12.9473 6.85355 12.8536C6.94732 12.7598 7 12.6326 7 12.5V9H9V21C9 22.1046 9.89543 23 11 23H19C20.1046 23 21 22.1046 21 21V9H23V12.5C23 12.7761 23.2239 13 23.5 13C24.3284 13 25 12.3284 25 11.5V9C25 7.89543 24.1046 7 23 7H7C5.89543 7 5 7.89543 5 9ZM11 21V9H14V21H11ZM17 21H19V9H17V21Z" fill="#5F5C5C"/>
</svg>
