<svg width="30" height="30" viewBox="0 0 30 30" fill="none" xmlns="http://www.w3.org/2000/svg">
<rect width="30" height="30" rx="2" fill="white"/>
<path d="M20 9.99996V16.25C20 17.2445 20.3951 18.1983 21.0984 18.9016C21.8016 19.6049 22.7555 20 23.75 20C24.7446 20 25.6984 19.6049 26.4017 18.9016C27.1049 18.1983 27.5 17.2445 27.5 16.25V15C27.4998 12.1787 26.5453 9.44055 24.7916 7.23062C23.0379 5.02069 20.5882 3.46899 17.8408 2.82783C15.0934 2.18667 12.2099 2.49376 9.6592 3.69917C7.10846 4.90457 5.04051 6.9374 3.79158 9.46711C2.54266 11.9968 2.18622 14.8746 2.78022 17.6326C3.37422 20.3906 4.88373 22.8665 7.0633 24.6578C9.24287 26.4491 11.9643 27.4504 14.7851 27.4989C17.6059 27.5474 20.3601 26.6403 22.6 24.925M20 15C20 17.7614 17.7614 20 15 20C12.2386 20 10 17.7614 10 15C10 12.2385 12.2386 9.99996 15 9.99996C17.7614 9.99996 20 12.2385 20 15Z" stroke="#5F5C5C" stroke-width="1.5" stroke-linecap="round" stroke-linejoin="round"/>
</svg>
