<svg width="30" height="30" viewBox="0 0 30 30" fill="none" xmlns="http://www.w3.org/2000/svg">
<rect width="30" height="30" rx="2" fill="white"/>
<path d="M19 10.9994V15.9994C19 16.795 19.3161 17.5581 19.8787 18.1207C20.4413 18.6833 21.2044 18.9994 22 18.9994C22.7957 18.9994 23.5587 18.6833 24.1213 18.1207C24.6839 17.5581 25 16.795 25 15.9994V14.9994C24.9999 12.7424 24.2362 10.5519 22.8333 8.78391C21.4303 7.01596 19.4706 5.7746 17.2726 5.26168C15.0747 4.74875 12.7679 4.99442 10.7274 5.95875C8.68677 6.92307 7.03241 8.54933 6.03327 10.5731C5.03413 12.5969 4.74898 14.8991 5.22418 17.1055C5.69938 19.3119 6.90698 21.2926 8.65064 22.7256C10.3943 24.1587 12.5714 24.9597 14.8281 24.9985C17.0847 25.0373 19.2881 24.3116 21.08 22.9394M19 14.9994C19 17.2085 17.2091 18.9994 15 18.9994C12.7909 18.9994 11 17.2085 11 14.9994C11 12.7902 12.7909 10.9994 15 10.9994C17.2091 10.9994 19 12.7902 19 14.9994Z" stroke="#5F5C5C" stroke-width="2" stroke-linecap="round" stroke-linejoin="round"/>
</svg>
