<svg width="30" height="30" viewBox="0 0 30 30" fill="none" xmlns="http://www.w3.org/2000/svg">
<g clip-path="url(#clip0_5568_212217)">
<path d="M30 15C30 23.2842 23.2842 30 15 30C6.71578 30 0 23.2842 0 15C0 15.0035 15 0.00169922 15 0C23.2842 0 30 6.71578 30 15Z" fill="#0052B4"/>
<path d="M14.96 15.0001H15.0001C15.0001 14.9865 15.0001 14.9735 15.0001 14.96C14.9867 14.9734 14.9734 14.9867 14.96 15.0001Z" fill="#F0F0F0"/>
<path d="M15 7.82607C15 5.18672 15 3.45721 15 0H14.9975C6.71437 0.00134766 0 6.71648 0 14.9999H7.82607V10.593L12.233 14.9999H14.9599C14.9733 14.9866 14.9867 14.9732 15.0001 14.9598C15.0001 13.9492 15.0001 13.0475 15.0001 12.2331L10.593 7.82607H15Z" fill="#F0F0F0"/>
<path d="M7.58832 1.95654C5.24229 3.29242 3.29193 5.24277 1.95605 7.58881V15H5.86912V5.86967V5.86961H14.9996C14.9996 4.63545 14.9996 3.45971 14.9996 1.95654H7.58832Z" fill="#D80027"/>
<path d="M14.9991 13.1554L9.66979 7.8262H7.8252C7.8252 7.82614 7.8252 7.8262 7.8252 7.8262L14.999 15H14.9991C14.9991 15 14.9991 13.7282 14.9991 13.1554Z" fill="#D80027"/>
<path d="M9.04686 17.6086L9.8701 19.33L11.7291 18.9003L10.8966 20.6173L12.3916 21.8028L10.5302 22.2223L10.5354 24.1304L9.04686 22.9366L7.55834 24.1304L7.56356 22.2223L5.70215 21.8028L7.19717 20.6173L6.36455 18.9003L8.22367 19.33L9.04686 17.6086Z" fill="#F0F0F0"/>
<path d="M22.4585 20.8696L22.8701 21.7303L23.7996 21.5154L23.3833 22.3739L24.1308 22.9667L23.2001 23.1765L23.2027 24.1305L22.4585 23.5336L21.7142 24.1305L21.7168 23.1765L20.7861 22.9667L21.5336 22.3739L21.1174 21.5154L22.0468 21.7303L22.4585 20.8696Z" fill="#F0F0F0"/>
<path d="M18.6294 11.7393L19.041 12.6L19.9705 12.3851L19.5543 13.2435L20.3017 13.8363L19.3711 14.0461L19.3736 15.0001L18.6294 14.4032L17.8852 15.0001L17.8877 14.0461L16.957 13.8363L17.7045 13.2435L17.2883 12.3851L18.2178 12.6L18.6294 11.7393Z" fill="#F0F0F0"/>
<path d="M22.4585 6.52173L22.8701 7.38247L23.7996 7.16761L23.3834 8.02606L24.1308 8.6188L23.2001 8.82862L23.2027 9.78265L22.4585 9.18575L21.7142 9.78265L21.7168 8.82862L20.7861 8.6188L21.5336 8.02606L21.1174 7.16761L22.0468 7.38247L22.4585 6.52173Z" fill="#F0F0F0"/>
<path d="M25.8032 10.4348L26.2148 11.2956L27.1443 11.0806L26.7281 11.9391L27.4756 12.5319L26.5449 12.7417L26.5474 13.6957L25.8032 13.0988L25.059 13.6957L25.0615 12.7417L24.1309 12.5319L24.8783 11.9391L24.4621 11.0806L25.3916 11.2956L25.8032 10.4348Z" fill="#F0F0F0"/>
<path d="M23.4115 15L23.7353 15.9964H24.783L23.9354 16.6123L24.2592 17.6087L23.4115 16.9929L22.5639 17.6087L22.8877 16.6123L22.04 15.9964H23.0878L23.4115 15Z" fill="#F0F0F0"/>
</g>
<rect x="0.5" y="0.5" width="29" height="29" rx="14.5" stroke="#D7D7D7"/>
<defs>
<clipPath id="clip0_5568_212217">
<rect width="30" height="30" rx="15" fill="white"/>
</clipPath>
</defs>
</svg>
