<svg width="30" height="30" viewBox="0 0 30 30" fill="none" xmlns="http://www.w3.org/2000/svg">
<g clip-path="url(#clip0_5568_212238)">
<path d="M30 14.9999C30 13.1651 29.67 11.4075 29.067 9.78258L15 9.13037L0.932988 9.78252C0.330059 11.4075 0 13.1651 0 14.9999C0 16.8347 0.330059 18.5924 0.932988 20.2173L15 20.8695L29.067 20.2174C29.67 18.5924 30 16.8347 30 14.9999Z" fill="#D80027"/>
<path d="M14.9996 29.9999C21.4491 29.9999 26.9472 25.9293 29.0666 20.2173H0.932617C3.05201 25.9293 8.55016 29.9999 14.9996 29.9999Z" fill="#6DA544"/>
<path d="M0.932617 9.78264H29.0667C26.9472 4.07063 21.4491 0 14.9996 0C8.55016 0 3.05201 4.07063 0.932617 9.78264V9.78264Z" fill="#338AF3"/>
<path d="M15.3263 19.239C12.9851 19.239 11.0872 17.3411 11.0872 14.9999C11.0872 12.6587 12.9851 10.7608 15.3263 10.7608C16.0563 10.7608 16.7432 10.9453 17.3428 11.2703C16.402 10.3503 15.1155 9.78247 13.6959 9.78247C10.8144 9.78247 8.47852 12.1184 8.47852 14.9998C8.47852 17.8813 10.8144 20.2172 13.6959 20.2172C15.1156 20.2172 16.4021 19.6494 17.3428 18.7294C16.7432 19.0545 16.0563 19.239 15.3263 19.239Z" fill="#F0F0F0"/>
<path d="M18.5871 12.0652L19.1486 13.6443L20.6623 12.9247L19.9428 14.4384L21.5219 15L19.9428 15.5615L20.6623 17.0752L19.1486 16.3556L18.5871 17.9348L18.0257 16.3556L16.5119 17.0752L17.2316 15.5615L15.6523 15L17.2316 14.4384L16.5119 12.9247L18.0257 13.6443L18.5871 12.0652Z" fill="#F0F0F0"/>
</g>
<rect x="0.5" y="0.5" width="29" height="29" rx="14.5" stroke="#D7D7D7"/>
<defs>
<clipPath id="clip0_5568_212238">
<rect width="30" height="30" rx="15" fill="white"/>
</clipPath>
</defs>
</svg>
