<svg width="30" height="30" viewBox="0 0 30 30" fill="none" xmlns="http://www.w3.org/2000/svg">
<g clip-path="url(#clip0_5568_212245)">
<path d="M15 30C23.2843 30 30 23.2843 30 15C30 6.71573 23.2843 0 15 0C6.71573 0 0 6.71573 0 15C0 23.2843 6.71573 30 15 30Z" fill="#F0F0F0"/>
<path d="M0 14.9999C0 20.6855 3.16348 25.632 7.82607 28.176V1.82373C3.16348 4.36775 0 9.31424 0 14.9999Z" fill="#D80027"/>
<path d="M0 15.0001C0 21.9305 4.70045 27.7621 11.0869 29.4834V0.516846C4.70045 2.2381 0 8.0697 0 15.0001Z" fill="#0052B4"/>
<path d="M5.38086 5.21729V7.66293C5.38086 8.87857 6.36629 9.864 7.58193 9.864C8.79758 9.864 9.78301 8.87857 9.78301 7.66293V5.21729H5.38086Z" fill="#D80027"/>
<path d="M7.58129 8.55974C7.08682 8.55974 6.68457 8.15749 6.68457 7.66302V6.52173H8.47807V7.66302C8.47807 8.15749 8.07576 8.55974 7.58129 8.55974Z" fill="#F0F0F0"/>
<path d="M16.304 15.652H12.3909C12.3909 14.9317 11.8069 14.3477 11.0866 14.3477C10.3662 14.3477 9.78221 14.9317 9.78221 15.652H5.86914C5.86914 16.3724 6.49662 16.9564 7.21691 16.9564H7.1735C7.1735 17.6768 7.75738 18.2607 8.47785 18.2607C8.47785 18.9811 9.06174 19.5651 9.78221 19.5651H12.3909C13.1113 19.5651 13.6953 18.9811 13.6953 18.2607C14.4156 18.2607 14.9996 17.6768 14.9996 16.9564H14.9562C15.6765 16.9564 16.304 16.3724 16.304 15.652V15.652Z" fill="#FFDA44"/>
<path d="M16.8406 13.5648L16.4981 14.113L16.9135 14.608L16.2863 14.4519L15.9438 14.9999L15.8987 14.3551L15.2715 14.1987L15.871 13.9566L15.8258 13.3118L16.2413 13.807L16.8406 13.5648Z" fill="#FFDA44"/>
<path d="M14.8425 11.8882L14.7083 12.5205L15.268 12.8436L14.6251 12.9115L14.4908 13.5436L14.2278 12.9531L13.585 13.0206L14.0654 12.588L13.8025 11.9976L14.3622 12.3208L14.8425 11.8882Z" fill="#FFDA44"/>
<path d="M12.3912 10.9961L12.4811 11.6362L13.1176 11.7484L12.5367 12.0318L12.6267 12.6719L12.1777 12.2069L11.5967 12.4903L11.9002 11.9195L11.4512 11.4546L12.0878 11.5668L12.3912 10.9961Z" fill="#FFDA44"/>
<path d="M9.78309 10.9961L10.0866 11.5668L10.7231 11.4546L10.2741 11.9196L10.5776 12.4904L9.99666 12.2069L9.5476 12.6718L9.6376 12.0318L9.05664 11.7485L9.69314 11.6362L9.78309 10.9961Z" fill="#FFDA44"/>
<path d="M7.33158 11.8882L7.81193 12.3208L8.37162 11.9976L8.10889 12.5883L8.58906 13.0206L7.94635 12.9531L7.68332 13.5436L7.54914 12.9113L6.90625 12.8438L7.46594 12.5205L7.33158 11.8882Z" fill="#FFDA44"/>
<path d="M5.33357 13.5647L5.93305 13.8069L6.3483 13.3118L6.30342 13.9567L6.90266 14.1989L6.27541 14.3551L6.23018 14.9999L5.88793 14.4518L5.26074 14.6081L5.67623 14.113L5.33357 13.5647Z" fill="#FFDA44"/>
</g>
<rect x="0.5" y="0.5" width="29" height="29" rx="14.5" stroke="#D7D7D7"/>
<defs>
<clipPath id="clip0_5568_212245">
<rect width="30" height="30" rx="15" fill="white"/>
</clipPath>
</defs>
</svg>
