<svg width="30" height="30" viewBox="0 0 30 30" fill="none" xmlns="http://www.w3.org/2000/svg">
<g clip-path="url(#clip0_5568_212259)">
<path d="M15 30C23.2843 30 30 23.2843 30 15C30 6.71573 23.2843 0 15 0C6.71573 0 0 6.71573 0 15C0 23.2843 6.71573 30 15 30Z" fill="#FFDA44"/>
<path d="M9.1301 9.78264H29.0666C26.9473 4.07063 21.4491 0 14.9997 0C10.8574 0 7.10785 1.67924 4.39355 4.39389L9.1301 9.78264Z" fill="#338AF3"/>
<path d="M9.1301 20.2173H29.0666C26.9473 25.9293 21.4491 29.9999 14.9997 29.9999C10.8574 29.9999 7.10785 28.3207 4.39355 25.606L9.1301 20.2173Z" fill="#338AF3"/>
<path d="M4.39339 4.39331C-1.46446 10.2512 -1.46446 19.7487 4.39339 25.6066C6.81407 23.1859 9.14218 20.8578 15 15L4.39339 4.39331Z" fill="black"/>
</g>
<rect x="0.5" y="0.5" width="29" height="29" rx="14.5" stroke="#D7D7D7"/>
<defs>
<clipPath id="clip0_5568_212259">
<rect width="30" height="30" rx="15" fill="white"/>
</clipPath>
</defs>
</svg>
