<svg width="30" height="30" viewBox="0 0 30 30" fill="none" xmlns="http://www.w3.org/2000/svg">
<g clip-path="url(#clip0_5568_212265)">
<path d="M15 30C23.2843 30 30 23.2843 30 15C30 6.71573 23.2843 0 15 0C6.71573 0 0 6.71573 0 15C0 23.2843 6.71573 30 15 30Z" fill="#F0F0F0"/>
<path d="M14.9996 0C11.9893 0 9.1866 0.887402 6.83746 2.41395L10.6952 4.99963L5.86914 7.49959L10.6952 9.99955L5.86914 12.4995L10.6952 14.9992L5.86914 17.4991L10.6952 19.999L5.86914 22.4992L10.6952 24.9991L6.83699 27.5856C9.18625 29.1125 11.9891 30 14.9996 30C23.2838 30 29.9996 23.2842 29.9996 15C29.9996 6.71578 23.2838 0 14.9996 0V0Z" fill="#D80027"/>
</g>
<rect x="0.5" y="0.5" width="29" height="29" rx="14.5" stroke="#D7D7D7"/>
<defs>
<clipPath id="clip0_5568_212265">
<rect width="30" height="30" rx="15" fill="white"/>
</clipPath>
</defs>
</svg>
