<svg width="30" height="30" viewBox="0 0 30 30" fill="none" xmlns="http://www.w3.org/2000/svg">
<g clip-path="url(#clip0_5568_212268)">
<path d="M15 0C23.2842 0 29.9999 6.71577 29.9999 15C29.9999 23.2842 23.2842 29.9999 15 29.9999C6.71577 29.9999 0 23.2842 0 15" fill="#FFDA44"/>
<path d="M14.6738 6.66683H27.4733C26.6304 5.40783 25.602 4.284 24.4271 3.3335H14.6738V6.66683Z" fill="#D80027"/>
<path d="M14.6738 13.3335H29.9073C29.7794 12.1777 29.5204 11.0617 29.1452 10.0002H14.6738V13.3335Z" fill="#D80027"/>
<path d="M0.854842 20.0001H29.1453C29.5205 18.9387 29.7796 17.8226 29.9074 16.6667H0.0927734C0.220508 17.8226 0.479609 18.9388 0.854842 20.0001V20.0001Z" fill="#D80027"/>
<path d="M5.57236 26.6668H24.4269C25.6016 25.7164 26.6301 24.5924 27.473 23.3335H2.52637C3.36918 24.5924 4.39761 25.7163 5.57236 26.6668V26.6668Z" fill="#D80027"/>
<path d="M15 0C6.71577 0 -5.85933e-05 6.71577 3.83406e-10 15.0001C3.42339 15 6.71577 15.0001 15 15.0001L15 0Z" fill="#4A1F63"/>
<path d="M12.3912 7.82608V9.13043H11.7391V7.82608H10.4347V9.13043H9.78257V6.52173H7.17386V9.13043H6.52165V7.82608H5.21736V9.13043H4.56515V7.82608H3.26074V11.7391H13.6956V7.82608H12.3912Z" fill="#F0F0F0"/>
</g>
<rect x="0.5" y="0.5" width="29" height="29" rx="14.5" stroke="#D7D7D7"/>
<defs>
<clipPath id="clip0_5568_212268">
<rect width="30" height="30" rx="15" fill="white"/>
</clipPath>
</defs>
</svg>
