<svg width="30" height="30" viewBox="0 0 30 30" fill="none" xmlns="http://www.w3.org/2000/svg">
<path d="M8 12V20M12.5 12V20M17.5 12V20M22 12V20M6 21.6L6 22.4C6 22.9601 6 23.2401 6.10899 23.454C6.20487 23.6422 6.35785 23.7952 6.54601 23.891C6.75992 24 7.03995 24 7.6 24H22.4C22.9601 24 23.2401 24 23.454 23.891C23.6422 23.7952 23.7951 23.6422 23.891 23.454C24 23.2401 24 22.9601 24 22.4V21.6C24 21.04 24 20.7599 23.891 20.546C23.7951 20.3579 23.6422 20.2049 23.454 20.109C23.2401 20 22.9601 20 22.4 20H7.6C7.03995 20 6.75992 20 6.54601 20.109C6.35785 20.2049 6.20487 20.3579 6.10899 20.546C6 20.7599 6 21.04 6 21.6ZM14.6529 6.07715L7.25291 7.7216C6.80585 7.82094 6.58232 7.87062 6.41546 7.99082C6.26829 8.09685 6.15273 8.24092 6.08115 8.40759C6 8.59654 6 8.82553 6 9.28349L6 10.4C6 10.9601 6 11.2401 6.10899 11.454C6.20487 11.6422 6.35785 11.7952 6.54601 11.891C6.75992 12 7.03995 12 7.6 12H22.4C22.9601 12 23.2401 12 23.454 11.891C23.6422 11.7952 23.7951 11.6422 23.891 11.454C24 11.2401 24 10.9601 24 10.4V9.2835C24 8.82553 24 8.59655 23.9188 8.40759C23.8473 8.24092 23.7317 8.09685 23.5845 7.99082C23.4177 7.87062 23.1942 7.82094 22.7471 7.7216L15.3471 6.07715C15.2176 6.04837 15.1528 6.03398 15.0874 6.02824C15.0292 6.02314 14.9708 6.02314 14.9126 6.02824C14.8472 6.03398 14.7824 6.04837 14.6529 6.07715Z" stroke="#5F5C5C" stroke-width="1.5" stroke-linecap="round" stroke-linejoin="round"/>
</svg>
