<svg width="30" height="30" viewBox="0 0 30 30" fill="none" xmlns="http://www.w3.org/2000/svg">
<path d="M9 14V18M21 12V16M20 7C22.4487 7 23.7731 7.37476 24.4321 7.66544C24.5199 7.70415 24.5638 7.72351 24.6904 7.84437C24.7663 7.91682 24.9049 8.12939 24.9405 8.22809C25 8.39274 25 8.48274 25 8.66274V19.4111C25 20.3199 25 20.7743 24.8637 21.0079C24.7251 21.2454 24.5914 21.3559 24.3319 21.4472C24.0769 21.5369 23.562 21.438 22.5322 21.2401C21.8114 21.1017 20.9565 21 20 21C17 21 14 23 10 23C7.55129 23 6.22687 22.6252 5.56788 22.3346C5.48012 22.2958 5.43624 22.2765 5.3096 22.1556C5.23369 22.0832 5.09512 21.8706 5.05947 21.7719C5 21.6073 5 21.5173 5 21.3373L5 10.5889C5 9.68009 5 9.2257 5.13628 8.99214C5.2749 8.75456 5.40859 8.64412 5.66806 8.55281C5.92314 8.46305 6.43803 8.56198 7.46783 8.75985C8.18862 8.89834 9.04348 9 10 9C13 9 16 7 20 7ZM17.5 15C17.5 16.3807 16.3807 17.5 15 17.5C13.6193 17.5 12.5 16.3807 12.5 15C12.5 13.6193 13.6193 12.5 15 12.5C16.3807 12.5 17.5 13.6193 17.5 15Z" stroke="#5F5C5C" stroke-width="1.5" stroke-linecap="round" stroke-linejoin="round"/>
</svg>
