<svg width="30" height="30" viewBox="0 0 30 30" fill="none" xmlns="http://www.w3.org/2000/svg">
<g clip-path="url(#clip0_5568_212280)">
<path d="M21.5216 1.4884C19.5496 0.534844 17.3372 0 14.9999 0C12.6626 0 10.4502 0.534844 8.47818 1.4884L7.17383 15L8.47818 28.5116C10.4502 29.4652 12.6626 30 14.9999 30C17.3372 30 19.5496 29.4652 21.5216 28.5116L22.826 15L21.5216 1.4884Z" fill="#FFDA44"/>
<path d="M8.47828 1.48901C3.4609 3.91515 0 9.05317 0 15.0001C0 20.947 3.4609 26.085 8.47828 28.5112V1.48901Z" fill="#0052B4"/>
<path d="M21.5215 1.48901V28.5112C26.5389 26.085 29.9998 20.9469 29.9998 15.0001C29.9998 9.05323 26.5389 3.91515 21.5215 1.48901Z" fill="#0052B4"/>
<path d="M19.565 9.13053L20.44 9.56799L19.565 9.13053L18.6899 8.69307C18.6372 8.79859 17.4947 11.1232 17.3081 14.674H15.978V9.13053L14.9998 7.82617L14.0215 9.13053V14.674H12.6915C12.5048 11.1232 11.3623 8.79859 11.3095 8.69307L9.55957 9.56805C9.57164 9.59207 10.7607 12.0123 10.7607 15.6523V16.6306H14.0215V22.1741H15.978V16.6306H19.2389V15.6522C19.2389 13.7703 19.5645 12.2185 19.8377 11.2481C20.1356 10.1899 20.4381 9.57191 20.4411 9.56576L19.565 9.13053Z" fill="black"/>
</g>
<rect x="0.5" y="0.5" width="29" height="29" rx="14.5" stroke="#D7D7D7"/>
<defs>
<clipPath id="clip0_5568_212280">
<rect width="30" height="30" rx="15" fill="white"/>
</clipPath>
</defs>
</svg>
