<svg width="30" height="30" viewBox="0 0 30 30" fill="none" xmlns="http://www.w3.org/2000/svg">
<g clip-path="url(#clip0_5568_212286)">
<path d="M15 30C23.2843 30 30 23.2843 30 15C30 6.71573 23.2843 0 15 0C6.71573 0 0 6.71573 0 15C0 23.2843 6.71573 30 15 30Z" fill="#F0F0F0"/>
<path d="M0.126953 16.9565C0.475937 19.635 1.53191 22.091 3.10088 24.1322L11.0869 16.9565H0.126953Z" fill="#D80027"/>
<path d="M13.0438 29.873V18.9131L5.86816 26.8991C7.90939 28.4681 10.3653 29.5241 13.0438 29.873V29.873Z" fill="#D80027"/>
<path d="M13.0438 0.126953C10.3653 0.475937 7.90939 1.53191 5.86816 3.10088L13.0438 11.087V0.126953Z" fill="#D80027"/>
<path d="M0.126953 13.0435H11.0869L3.10082 5.86792C1.53186 7.90909 0.475879 10.365 0.126953 13.0435V13.0435Z" fill="#D80027"/>
<path d="M16.9561 0.126953V11.0869L24.1318 3.10088C22.0906 1.53203 19.6346 0.475879 16.9561 0.126953V0.126953Z" fill="#D80027"/>
<path d="M29.873 13.0434C29.5241 10.3649 28.4681 7.90891 26.8991 5.86768L18.9131 13.0434H29.873Z" fill="#D80027"/>
<path d="M18.9131 16.9565L26.8992 24.1322C28.4681 22.091 29.5241 19.635 29.8731 16.9565H18.9131Z" fill="#D80027"/>
<path d="M16.9561 29.873C19.6346 29.5241 22.0906 28.4681 24.1317 26.8991L16.9561 18.9131V29.873Z" fill="#D80027"/>
<path d="M26.9002 24.1332L17.7669 14.9999L17.7669 14.9999L26.9002 5.86652C26.5063 5.35465 26.0754 4.86223 25.6065 4.39324C25.1377 3.92438 24.6452 3.49342 24.1332 3.09961L14.9999 12.2329H14.9999L5.86658 3.09961C5.35471 3.49348 4.86223 3.92432 4.39324 4.39324C3.92438 4.86223 3.49342 5.35465 3.09961 5.86658L12.2329 14.9998L12.233 14.9999L3.09967 24.1332C3.49354 24.6451 3.92443 25.1375 4.3933 25.6065C4.86223 26.0754 5.35471 26.5063 5.86664 26.9002L14.9999 17.7669L24.1332 26.9002C24.6451 26.5063 25.1375 26.0754 25.6065 25.6065C26.0754 25.1375 26.5063 24.6451 26.9002 24.1332V24.1332Z" fill="#496E2D"/>
<path d="M16.9565 29.873V16.9567V16.9566H29.873C29.9565 16.3161 30 15.6631 30 15C30 14.337 29.9565 13.684 29.873 13.0436H16.9566L16.9566 13.0435V0.127031C16.3161 0.0436523 15.6632 0 15 0C14.3369 5.85938e-05 13.6839 0.0436523 13.0435 0.127031L13.0436 13.0434V13.0435H0.127031C0.0435937 13.6839 0 14.3369 0 15C5.85938e-05 15.6632 0.0435937 16.3161 0.127031 16.9565H13.0434L13.0435 29.873C13.684 29.9564 14.3368 30 15 30C15.6632 30 16.3161 29.9564 16.9565 29.873V29.873Z" fill="#F0F0F0"/>
</g>
<rect x="0.5" y="0.5" width="29" height="29" rx="14.5" stroke="#D7D7D7"/>
<defs>
<clipPath id="clip0_5568_212286">
<rect width="30" height="30" rx="15" fill="white"/>
</clipPath>
</defs>
</svg>
