<svg width="30" height="30" viewBox="0 0 30 30" fill="none" xmlns="http://www.w3.org/2000/svg">
<g clip-path="url(#clip0_5568_212299)">
<path d="M15 30C23.2843 30 30 23.2843 30 15C30 6.71573 23.2843 0 15 0C6.71573 0 0 6.71573 0 15C0 23.2843 6.71573 30 15 30Z" fill="#FCFCFC"/>
<path d="M6.19586 13.913L4.56543 10.955L6.19586 8.04346L7.82629 10.955L6.19586 13.913Z" fill="#A2001D"/>
<path d="M2.93512 13.913L1.30469 10.955L2.93512 8.04346L4.56555 10.955L2.93512 13.913Z" fill="#A2001D"/>
<path d="M6.19586 21.9565L4.56543 18.9985L6.19586 16.0869L7.82629 18.9985L6.19586 21.9565Z" fill="#A2001D"/>
<path d="M2.93512 21.9565L1.30469 18.9985L2.93512 16.0869L4.56555 18.9985L2.93512 21.9565Z" fill="#A2001D"/>
<path d="M7.82648 2.9117L7.36488 2.0874C6.53695 2.57795 5.76041 3.1459 5.04492 3.78129L6.19605 5.86963L7.82648 2.9117Z" fill="#A2001D"/>
<path d="M6.19555 24.1304L5.03223 26.2079C5.74707 26.8441 6.52309 27.4129 7.35066 27.9045L7.82603 27.042L6.19555 24.1304Z" fill="#A2001D"/>
<path d="M9.13086 18.9131V28.8074C10.9337 29.5748 12.9173 30 15.0004 30C21.4499 30 26.948 25.9294 29.0674 20.2174L9.13086 18.9131Z" fill="#6DA544"/>
<path d="M29.0674 20.2174C29.6704 18.5924 30.0004 16.8348 30.0004 15C30.0004 6.71578 23.2846 0 15.0004 0C12.9175 0 10.9337 0.42498 9.13086 1.19227V20.2174H29.0674V20.2174Z" fill="#A2001D"/>
</g>
<rect x="0.5" y="0.5" width="29" height="29" rx="14.5" stroke="#D7D7D7"/>
<defs>
<clipPath id="clip0_5568_212299">
<rect width="30" height="30" rx="15" fill="white"/>
</clipPath>
</defs>
</svg>
