<svg width="30" height="30" viewBox="0 0 30 30" fill="none" xmlns="http://www.w3.org/2000/svg">
<g clip-path="url(#clip0_5568_212310)">
<path d="M20.2176 0.932988C18.5926 0.330059 16.835 0 15.0002 0C13.1654 0 11.4079 0.330059 9.78287 0.932988L8.47852 15L9.78287 29.067C11.4079 29.67 13.1654 30 15.0002 30C16.835 30 18.5926 29.67 20.2176 29.067L21.522 15L20.2176 0.932988Z" fill="#FFDA44"/>
<path d="M30.0004 15.0001C30.0004 8.55064 25.9298 3.05244 20.2178 0.933105V29.0672C25.9298 26.9477 30.0004 21.4496 30.0004 15.0001V15.0001Z" fill="#D80027"/>
<path d="M0 15.0001C0 21.4496 4.07063 26.9477 9.78264 29.0671V0.933105C4.07063 3.05244 0 8.55064 0 15.0001V15.0001Z" fill="black"/>
</g>
<rect x="0.5" y="0.5" width="29" height="29" rx="14.5" stroke="#D7D7D7"/>
<defs>
<clipPath id="clip0_5568_212310">
<rect width="30" height="30" rx="15" fill="white"/>
</clipPath>
</defs>
</svg>
