<svg width="30" height="30" viewBox="0 0 30 30" fill="none" xmlns="http://www.w3.org/2000/svg">
<g clip-path="url(#clip0_5568_212314)">
<path d="M30 15C30 9.85193 27.4061 5.31016 23.4543 2.60875L15 1.95654L6.54568 2.60869C2.59395 5.31016 0 9.85199 0 15C0 20.1483 2.59395 24.6899 6.54568 27.3913L15 28.0435L23.4543 27.3914C27.4061 24.6899 30 20.1483 30 15Z" fill="#0052B4"/>
<path d="M23.4545 2.60871C21.0472 0.963047 18.1364 0 15.0002 0C11.8641 0 8.95322 0.963047 6.5459 2.60871H23.4545Z" fill="#A2001D"/>
<path d="M6.5459 27.3914C8.95316 29.037 11.8641 30.0001 15.0002 30.0001C18.1364 30.0001 21.0472 29.037 23.4545 27.3914H6.5459Z" fill="#A2001D"/>
<path d="M15.0001 22.174C18.9621 22.174 22.174 18.9621 22.174 15.0001C22.174 11.038 18.9621 7.82617 15.0001 7.82617C11.038 7.82617 7.82617 11.038 7.82617 15.0001C7.82617 18.9621 11.038 22.174 15.0001 22.174Z" fill="#F0F0F0"/>
<path d="M15.0004 20.8695C18.2421 20.8695 20.87 18.2416 20.87 14.9999C20.87 11.7583 18.2421 9.13037 15.0004 9.13037C11.7588 9.13037 9.13086 11.7583 9.13086 14.9999C9.13086 18.2416 11.7588 20.8695 15.0004 20.8695Z" fill="#6DA544"/>
<path d="M15 18.913C17.1611 18.913 18.913 17.1611 18.913 15C18.913 12.8389 17.1611 11.0869 15 11.0869C12.8389 11.0869 11.0869 12.8389 11.0869 15C11.0869 17.1611 12.8389 18.913 15 18.913Z" fill="#F0F0F0"/>
<path d="M15.0004 14.0217L12.8809 15V16.6304L15.0004 17.9348L17.12 16.6304V15L15.0004 14.0217Z" fill="#0052B4"/>
<path d="M12.8809 13.0435H17.12V15H12.8809V13.0435Z" fill="#FFDA44"/>
</g>
<rect x="0.5" y="0.5" width="29" height="29" rx="14.5" stroke="#D7D7D7"/>
<defs>
<clipPath id="clip0_5568_212314">
<rect width="30" height="30" rx="15" fill="white"/>
</clipPath>
</defs>
</svg>
