<svg width="30" height="30" viewBox="0 0 30 30" fill="none" xmlns="http://www.w3.org/2000/svg">
<g clip-path="url(#clip0_5568_212324)">
<path d="M9.78223 13.6956L11.0866 29.4832C12.3342 29.8194 13.6457 29.9999 14.9996 29.9999C23.2838 29.9999 29.9996 23.2841 29.9996 14.9999L9.78223 13.6956Z" fill="#D80027"/>
<path d="M9.78223 15L11.0865 0.516738C12.3342 0.180469 13.6457 0 14.9996 0C23.2838 0 29.9996 6.71578 29.9996 15H9.78223Z" fill="#FFDA44"/>
<path d="M0 15.0001C0 21.9305 4.70045 27.7621 11.0869 29.4834V0.516846C4.70045 2.2381 0 8.0697 0 15.0001Z" fill="#6DA544"/>
</g>
<rect x="0.5" y="0.5" width="29" height="29" rx="14.5" stroke="#D7D7D7"/>
<defs>
<clipPath id="clip0_5568_212324">
<rect width="30" height="30" rx="15" fill="white"/>
</clipPath>
</defs>
</svg>
