<svg width="30" height="30" viewBox="0 0 30 30" fill="none" xmlns="http://www.w3.org/2000/svg">
<g clip-path="url(#clip0_5568_212328)">
<path d="M30 15C30 23.2842 23.2842 30 15 30C6.71578 30 0 23.2842 0 15C0 15.0036 15 0.00164063 15 0C23.2842 0 30 6.71578 30 15Z" fill="#D80027"/>
<path d="M14.9996 7.17383V12.233L9.78223 7.17383H14.9996Z" fill="#0052B4"/>
<path d="M7.82598 14.9999H12.2329L7.82598 9.13037L7.17383 13.6956L7.82598 14.9999Z" fill="#0052B4"/>
<path d="M14.96 15.0001H15.0001C15.0001 14.9866 15.0001 14.9735 15.0001 14.96C14.9867 14.9734 14.9734 14.9867 14.96 15.0001Z" fill="#F0F0F0"/>
<path d="M15 7.82607C15 5.18672 15 3.45732 15 0H14.9975C6.71432 0.00140625 0 6.71654 0 15H7.82607V10.5931L12.233 15H14.9599C14.9733 14.9866 14.9866 14.9733 15.0001 14.9599C15.0001 13.9493 15.0001 13.0476 15.0001 12.2331L10.593 7.82607H15Z" fill="#F0F0F0"/>
<path d="M7.58832 1.95654C5.24229 3.29242 3.29188 5.24277 1.95605 7.58881V15.6522H5.86912V5.86973V5.86961H15.6517C15.6517 4.63545 15.6517 3.45971 15.6517 1.95654H7.58832Z" fill="#D80027"/>
<path d="M15.5954 13.7517L9.66973 7.82617H7.8252V7.82629L15.5953 15.5963H15.5954C15.5954 15.5964 15.5954 14.3245 15.5954 13.7517V13.7517Z" fill="#D80027"/>
<path d="M16.9561 7.82617V15C16.9561 18.4946 26.0865 18.4946 26.0865 15V7.82617H16.9561Z" fill="#F3F3F3"/>
<path d="M16.9561 15.0001V15C16.9561 18.4945 21.5213 19.5653 21.5213 19.5653C21.5213 19.5653 26.0865 18.4945 26.0865 15V15.0001H16.9561Z" fill="#6DA544"/>
<path d="M21.5219 12.1304L19.4023 13.0434V14.9999L21.5219 16.3043L23.6415 14.9999V13.0434L21.5219 12.1304Z" fill="#A2001D"/>
<path d="M19.4023 11.0869H23.6415V13.0434H19.4023V11.0869Z" fill="#338AF3"/>
</g>
<rect x="0.5" y="0.5" width="29" height="29" rx="14.5" stroke="#D7D7D7"/>
<defs>
<clipPath id="clip0_5568_212328">
<rect width="30" height="30" rx="15" fill="white"/>
</clipPath>
</defs>
</svg>
