<svg width="30" height="30" viewBox="0 0 30 30" fill="none" xmlns="http://www.w3.org/2000/svg">
<g clip-path="url(#clip0_5568_212344)">
<path d="M25.6066 25.6066C19.7488 31.4644 10.2513 31.4644 4.39339 25.6066C-1.46446 19.7487 -1.46446 10.2512 4.39339 4.39332C4.3955 4.39332 17.8733 0.410874 23.7313 6.26873C29.5892 12.1266 25.6107 25.6025 25.6066 25.6066Z" fill="#FFDA44"/>
<path d="M25.6068 25.6067C31.4646 19.7488 31.4646 10.2513 25.6068 4.39341C19.7489 -1.4645 10.2515 -1.46444 4.39355 4.39341L25.6068 25.6067Z" fill="#D80027"/>
<path d="M18.921 18.9223C18.3049 19.1642 17.5889 19.1386 16.9678 18.79C15.8703 18.1741 15.4785 16.7799 16.0946 15.6823L15.9076 15.5774C17.7868 15.1243 19.177 13.4186 19.1527 11.4058C19.1375 10.1544 18.5784 9.03485 17.7037 8.2688L16.3342 9.67188C16.852 10.0845 17.1877 10.7174 17.1963 11.4295C17.2115 12.6881 16.2001 13.7245 14.9415 13.7396L14.9442 13.9539C13.6121 12.5532 11.44 12.202 9.70904 13.2295C8.63291 13.8684 7.94303 14.9123 7.7168 16.0529L9.61664 16.5374C9.71514 15.8827 10.0954 15.2756 10.7077 14.912C11.79 14.2695 13.1932 14.6274 13.8357 15.7096L14.0201 15.6002C13.473 17.454 14.2549 19.5108 16.0103 20.4961C17.1017 21.1087 18.3507 21.1842 19.4515 20.8099L18.921 18.9223ZM14.9573 15.0437L14.9572 15.0438L14.9573 15.0437Z" fill="#FF9811"/>
<path d="M20.5536 10.159L19.4934 13.9425L16.3124 13.3551L14.2648 9.13428L8.73311 11.0972L8.29688 9.86793L6.84961 9.68963L7.9401 12.7628L11.7469 11.7892L12.8287 14.8378L10.1971 18.7214L14.663 22.5304L13.8165 23.5228L14.3857 24.8655L16.502 22.3844L13.7555 19.5744L15.8547 17.1133L20.5339 17.4504L21.5996 11.6784L22.8823 11.9153L23.7606 10.751L20.5536 10.159ZM14.9987 15.1021V15.1022V15.1021Z" fill="#FFEACF"/>
</g>
<rect x="0.5" y="0.5" width="29" height="29" rx="14.5" stroke="#D7D7D7"/>
<defs>
<clipPath id="clip0_5568_212344">
<rect width="30" height="30" rx="15" fill="white"/>
</clipPath>
</defs>
</svg>
