<svg width="30" height="30" viewBox="0 0 30 30" fill="none" xmlns="http://www.w3.org/2000/svg">
<g clip-path="url(#clip0_5568_212353)">
<path d="M15 30C23.2843 30 30 23.2843 30 15C30 6.71573 23.2843 0 15 0C6.71573 0 0 6.71573 0 15C0 23.2843 6.71573 30 15 30Z" fill="#F0F0F0"/>
<path d="M4.39295 4.39339C1.1782 7.60814 -0.271818 11.9191 0.0418343 16.123L16.1225 0.0423369C11.9186 -0.271374 7.60769 1.17865 4.39295 4.39339V4.39339Z" fill="#FFDA44"/>
<path d="M5.35645 26.4884C11.2499 31.4468 20.06 31.1535 25.607 25.6065C31.1541 20.0595 31.4474 11.2493 26.489 5.35596L5.35645 26.4884Z" fill="#0052B4"/>
<path d="M14.9461 14.3957L16.2387 13.6955L14.9461 12.9953C14.6443 11.0347 13.0952 9.48557 11.1346 9.18381L10.4343 7.89111L9.7341 9.18375C7.77355 9.48551 6.22445 11.0347 5.92258 12.9953L4.62988 13.6955L5.92252 14.3957C6.22434 16.3563 7.77344 17.9055 9.73404 18.2072L10.4343 19.4999L11.1345 18.2073C13.0952 17.9055 14.6443 16.3563 14.9461 14.3957V14.3957ZM10.4344 16.3042C8.99359 16.3042 7.82564 15.1363 7.82564 13.6955C7.82564 12.2547 8.99354 11.0868 10.4344 11.0868C11.8752 11.0868 13.0431 12.2547 13.0431 13.6955C13.0431 15.1363 11.8751 16.3042 10.4344 16.3042Z" fill="black"/>
<path d="M10.4346 11.7393L10.9994 12.7175H12.129L11.5642 13.6958L12.129 14.674H10.9994L10.4346 15.6523L9.8698 14.674H8.74023L9.30502 13.6958L8.74023 12.7175H9.8698L10.4346 11.7393Z" fill="#D80027"/>
</g>
<rect x="0.5" y="0.5" width="29" height="29" rx="14.5" stroke="#D7D7D7"/>
<defs>
<clipPath id="clip0_5568_212353">
<rect width="30" height="30" rx="15" fill="white"/>
</clipPath>
</defs>
</svg>
