<svg width="30" height="30" viewBox="0 0 30 30" fill="none" xmlns="http://www.w3.org/2000/svg">
<g clip-path="url(#clip0_5568_212359)">
<path d="M15 30C23.2843 30 30 23.2843 30 15C30 6.71573 23.2843 0 15 0C6.71573 0 0 6.71573 0 15C0 23.2843 6.71573 30 15 30Z" fill="#F0F0F0"/>
<path d="M15.0004 0C9.6818 0 5.01012 2.76814 2.34668 6.94213L22.688 27.8818C27.0675 25.2625 30.0004 20.474 30.0004 15C30.0004 6.71578 23.2846 0 15.0004 0Z" fill="#FFDA44"/>
<path d="M30 14.9999C30 11.108 28.5177 7.56263 26.0869 4.89673V25.1032C28.5177 22.4372 30 18.8918 30 14.9999Z" fill="#0052B4"/>
<path d="M18.7376 28.2347L20.3088 28.2337L20.7935 26.7391L21.28 28.2332L22.068 28.2327C22.5513 27.974 23.0187 27.6897 23.4684 27.3814L2.6185 6.53149C2.2749 7.03282 1.96154 7.5563 1.67977 8.09888L1.86504 8.66794L3.43623 8.66694L2.16568 9.59126L2.65213 11.0853L1.38041 10.1626L0.621914 10.7143C0.217559 12.0723 0 13.5107 0 15C0 23.2842 6.71578 30 15 30C16.7515 30 18.4326 29.6993 19.9951 29.1473L18.7376 28.2347ZM3.34564 14.3478L3.83022 12.8532L2.55861 11.9304L4.1298 11.9294L4.61443 10.4347L5.10088 11.9288L6.67207 11.9278L5.40146 12.8521L5.88791 14.3462L4.61619 13.4235L3.34564 14.3478ZM6.58148 17.6087L7.06605 16.1141L5.79445 15.1912L7.36564 15.1902L7.85027 13.6956L8.33672 15.1897L9.90791 15.1887L8.63736 16.113L9.12381 17.6071L7.85209 16.6843L6.58148 17.6087ZM9.81727 20.8696L10.3018 19.3749L9.03023 18.4521L10.6014 18.4511L11.0861 16.9564L11.5725 18.4505L13.1437 18.4495L11.8731 19.3738L12.3596 20.8679L11.0879 19.9451L9.81727 20.8696ZM14.3237 23.2061L13.053 24.1304L13.5376 22.6358L12.266 21.713L13.8372 21.712L14.3219 20.2173L14.8083 21.7114L16.3795 21.7104L15.109 22.6347L15.5954 24.1288L14.3237 23.2061ZM16.2889 27.3913L16.7735 25.8967L15.5019 24.9738L17.073 24.9728L17.5577 23.4782L18.0441 24.9722L19.6153 24.9712L18.3448 25.8956L18.8312 27.3896L17.5595 26.4668L16.2889 27.3913Z" fill="#0052B4"/>
</g>
<rect x="0.5" y="0.5" width="29" height="29" rx="14.5" stroke="#D7D7D7"/>
<defs>
<clipPath id="clip0_5568_212359">
<rect width="30" height="30" rx="15" fill="white"/>
</clipPath>
</defs>
</svg>
