<svg width="30" height="30" viewBox="0 0 30 30" fill="none" xmlns="http://www.w3.org/2000/svg">
<g clip-path="url(#clip0_5568_212365)">
<path d="M0.708281 10.4346C0.248789 11.8742 -5.85834e-05 13.4078 1.0345e-08 14.9998C-5.85834e-05 16.5918 0.248789 18.1254 0.70834 19.565L15 20.2173L29.2916 19.565C29.751 18.1254 29.9999 16.5917 29.9999 14.9999C29.9999 13.4079 29.7511 11.8742 29.2916 10.4346L14.9999 9.78247L0.708281 10.4346Z" fill="#F0F0F0"/>
<path d="M30 14.9999C30 14.11 29.9221 13.2384 29.7734 12.3911H0.226641C0.0779297 13.2384 0 14.1099 0 14.9998C0 15.8897 0.0779883 16.7613 0.226641 17.6085H29.7734C29.922 16.7612 30 15.8897 30 14.9999Z" fill="black"/>
<path d="M14.9997 29.9998C21.692 29.9998 27.3598 25.6168 29.2913 19.5649H0.708008C2.63955 25.6167 8.30738 29.9997 14.9997 29.9998V29.9998Z" fill="#338AF3"/>
<path d="M14.9997 2.3498e-09C8.30744 2.3498e-09 2.63967 4.38299 0.708008 10.4347L29.2912 10.4347C27.3598 4.38299 21.692 -0.000117185 14.9997 2.3498e-09V2.3498e-09Z" fill="#338AF3"/>
</g>
<rect x="0.5" y="0.5" width="29" height="29" rx="14.5" stroke="#D7D7D7"/>
<defs>
<clipPath id="clip0_5568_212365">
<rect width="30" height="30" rx="15" fill="white"/>
</clipPath>
</defs>
</svg>
