<svg width="30" height="30" viewBox="0 0 30 30" fill="none" xmlns="http://www.w3.org/2000/svg">
<g clip-path="url(#clip0_5568_212371)">
<path d="M15 30C23.2843 30 30 23.2843 30 15C30 6.71573 23.2843 0 15 0C6.71573 0 0 6.71573 0 15C0 23.2843 6.71573 30 15 30Z" fill="#6DA544"/>
<path d="M14.9997 5.86963L27.391 15.0001L14.9997 24.1305L2.6084 15.0001L14.9997 5.86963Z" fill="#FFDA44"/>
<path d="M14.9996 20.2174C17.8811 20.2174 20.217 17.8815 20.217 15.0001C20.217 12.1186 17.8811 9.78271 14.9996 9.78271C12.1181 9.78271 9.78223 12.1186 9.78223 15.0001C9.78223 17.8815 12.1181 20.2174 14.9996 20.2174Z" fill="#F0F0F0"/>
<path d="M12.3912 14.6741C11.4839 14.6741 10.6084 14.8121 9.78418 15.0681C9.82068 17.9181 12.1412 20.2176 14.9999 20.2176C16.7676 20.2176 18.3287 19.3377 19.2725 17.9929C17.6578 15.9716 15.1734 14.6741 12.3912 14.6741V14.6741Z" fill="#0052B4"/>
<path d="M20.1202 15.9997C20.183 15.676 20.2169 15.3421 20.2169 15.0001C20.2169 12.1186 17.881 9.78271 14.9996 9.78271C12.8495 9.78271 11.0038 11.0836 10.2051 12.9409C10.9111 12.7946 11.6421 12.7175 12.3909 12.7175C15.4212 12.7174 18.1626 13.9771 20.1202 15.9997V15.9997Z" fill="#0052B4"/>
</g>
<rect x="0.5" y="0.5" width="29" height="29" rx="14.5" stroke="#D7D7D7"/>
<defs>
<clipPath id="clip0_5568_212371">
<rect width="30" height="30" rx="15" fill="white"/>
</clipPath>
</defs>
</svg>
