<svg width="30" height="30" viewBox="0 0 30 30" fill="none" xmlns="http://www.w3.org/2000/svg">
<g clip-path="url(#clip0_5568_212436)">
<path d="M30 15C30 23.2842 23.2842 30 15 30C6.71578 30 0 23.2842 0 15C0 15.0036 15 0.00164063 15 0C23.2842 0 30 6.71578 30 15Z" fill="#0052B4"/>
<path d="M14.96 15.0001H15.0001C15.0001 14.9866 15.0001 14.9735 15.0001 14.96C14.9867 14.9734 14.9734 14.9867 14.96 15.0001Z" fill="#F0F0F0"/>
<path d="M15 7.82607C15 5.18672 15 3.45732 15 0H14.9975C6.71432 0.00140625 0 6.71654 0 15H7.82607V10.5931L12.233 15H14.9599C14.9733 14.9866 14.9866 14.9733 15.0001 14.9599C15.0001 13.9493 15.0001 13.0476 15.0001 12.2331L10.593 7.82607H15Z" fill="#F0F0F0"/>
<path d="M7.58832 1.95654C5.24229 3.29242 3.29188 5.24277 1.95605 7.58881V15H5.86912V5.86973V5.86961H14.9996C14.9996 4.63545 14.9996 3.45971 14.9996 1.95654H7.58832Z" fill="#D80027"/>
<path d="M21.5221 15L17.4678 19.0543C18.2276 20.5198 19.7574 21.5217 21.5221 21.5217C23.2867 21.5217 24.8165 20.5198 25.5763 19.0543L21.5221 15Z" fill="#FFDA44"/>
<path d="M15.0001 13.1554L9.6707 7.82617H7.82617V7.82629L15 15H15.0001C15.0001 15 15.0001 13.7281 15.0001 13.1554V13.1554Z" fill="#D80027"/>
<path d="M16.9561 7.82617V15V15.0001C16.9561 18.4946 21.5213 19.5653 21.5213 19.5653C21.5213 19.5653 26.0864 18.4946 26.0865 15.0001V15V7.82617H16.9561Z" fill="#6DA544"/>
<path d="M20.5439 11.0869H22.5004V16.3043H20.5439V11.0869Z" fill="#F0F0F0"/>
<path d="M21.5212 12.0652C22.0615 12.0652 22.4995 11.6272 22.4995 11.0869C22.4995 10.5466 22.0615 10.1086 21.5212 10.1086C20.981 10.1086 20.543 10.5466 20.543 11.0869C20.543 11.6272 20.981 12.0652 21.5212 12.0652Z" fill="#A2001D"/>
<path d="M18.2607 9.13037H19.5651V10.4347H18.2607V9.13037Z" fill="#FFDA44"/>
<path d="M18.2607 12.0652H19.5651V13.3695H18.2607V12.0652Z" fill="#FFDA44"/>
<path d="M18.2607 15H19.5651V16.3044H18.2607V15Z" fill="#FFDA44"/>
<path d="M23.4785 9.13037H24.7829V10.4347H23.4785V9.13037Z" fill="#FFDA44"/>
<path d="M23.4785 12.0652H24.7829V13.3695H23.4785V12.0652Z" fill="#FFDA44"/>
<path d="M23.4785 15H24.7829V16.3044H23.4785V15Z" fill="#FFDA44"/>
</g>
<rect x="0.5" y="0.5" width="29" height="29" rx="14.5" stroke="#D7D7D7"/>
<defs>
<clipPath id="clip0_5568_212436">
<rect width="30" height="30" rx="15" fill="white"/>
</clipPath>
</defs>
</svg>
