<svg width="30" height="30" viewBox="0 0 30 30" fill="none" xmlns="http://www.w3.org/2000/svg">
<g clip-path="url(#clip0_5568_212378)">
<path d="M0 15C0 6.71578 6.71578 0 15 0C23.2842 0 30 6.71578 30 15H0Z" fill="#F0F0F0"/>
<path d="M11.0866 14.1799L10.2666 15H11.0866V14.1799Z" fill="#0052B4"/>
<path d="M18.9131 14.1799V14.9999H19.733L18.9131 14.1799Z" fill="#0052B4"/>
<path d="M0.432773 11.4131C0.150645 12.5625 0 13.7636 0 15H4.73303L8.3199 11.4131H0.432773Z" fill="#0052B4"/>
<path d="M21.6797 11.4131L25.2666 15H29.9997C29.9997 13.7636 29.849 12.5625 29.5669 11.4131H21.6797Z" fill="#0052B4"/>
<path d="M20.7577 11.4131H18.9131L22.5 15H24.3446L20.7577 11.4131Z" fill="#D80027"/>
<path d="M11.087 13.2576V11.4131H11.0869L7.5 15H9.34465L11.087 13.2576Z" fill="#D80027"/>
<path d="M7.02691 2.29346C6.40863 2.68229 5.82076 3.11482 5.26758 3.58691H8.32031L7.02691 2.29346Z" fill="#0052B4"/>
<path d="M24.7333 3.58691C24.1801 3.11477 23.5923 2.68223 22.9741 2.29346L21.6807 3.58691H24.7333Z" fill="#0052B4"/>
<path d="M16.957 9.4565H28.9423C28.3752 8.03156 27.5958 6.71449 26.6435 5.54344H16.957H16.957V0.126973C16.3165 0.0435938 15.6636 0 15.0004 0C14.3372 0 13.6844 0.0435938 13.0439 0.126973V5.54338V5.54344H3.3574C2.40508 6.71449 1.62566 8.03156 1.05859 9.4565H13.0438H13.0439V15H16.957V9.45656V9.4565Z" fill="#D80027"/>
<path d="M11.0878 3.58705V3.58699L8.82652 1.32568C8.40846 1.51477 8.001 1.72307 7.60449 1.94824L9.2433 3.58705H11.0878Z" fill="#D80027"/>
<path d="M18.9131 3.58693L21.1745 1.32563C20.7443 1.13115 20.3033 0.956777 19.8527 0.802734L18.9131 1.7424V3.58693Z" fill="#D80027"/>
<path d="M30 15C30 23.2842 23.2842 30 15 30C6.71578 30 0 23.2842 0 15H30Z" fill="#F0F0F0"/>
<path d="M27.4998 16.9132C26.2498 16.9132 26.2498 15.7703 24.9998 15.7703C23.7498 15.7703 23.7498 16.9132 22.4999 16.9132C21.25 16.9132 21.2499 15.7703 20 15.7703C18.75 15.7703 18.75 16.9132 17.5 16.9132C16.2499 16.9132 16.2499 15.7703 14.9998 15.7703C13.7498 15.7703 13.7498 16.9132 12.4999 16.9132C11.2501 16.9132 11.2501 15.7703 10.0001 15.7703C8.75 15.7703 8.75 16.9132 7.4999 16.9132C6.2498 16.9132 6.2498 15.7703 4.99971 15.7703C3.7499 15.7703 3.7499 16.9132 2.49992 16.9132C1.25668 16.9132 1.24947 15.7829 0.0195312 15.7708C0.0541602 16.4569 0.136074 17.1305 0.259941 17.7892C1.25627 17.9357 1.34352 18.9132 2.49998 18.9132C3.74996 18.9132 3.74996 17.7704 4.99977 17.7704C6.24986 17.7704 6.24986 18.9132 7.49996 18.9132C8.75006 18.9132 8.75006 17.7704 10.0002 17.7704C11.2501 17.7704 11.2501 18.9132 12.4999 18.9132C13.7499 18.9132 13.7499 17.7704 14.9998 17.7704C16.2499 17.7704 16.2499 18.9132 17.5 18.9132C18.7501 18.9132 18.7501 17.7704 20.0001 17.7704C21.25 17.7704 21.25 18.9132 22.5 18.9132C23.7499 18.9132 23.7499 17.7704 24.9999 17.7704C26.25 17.7704 26.25 18.9132 27.4999 18.9132C28.6565 18.9132 28.7437 17.9357 29.7401 17.7893C29.864 17.1305 29.9458 16.457 29.9806 15.7708C28.7504 15.783 28.7431 16.9132 27.4998 16.9132V16.9132Z" fill="#0052B4"/>
<path d="M25.0002 19.6833C23.7502 19.6833 23.7502 20.8263 22.5003 20.8263C21.2504 20.8263 21.2503 19.6833 20.0004 19.6833C18.7504 19.6833 18.7504 20.8263 17.5004 20.8263C16.2503 20.8263 16.2503 19.6833 15.0002 19.6833C13.7502 19.6833 13.7502 20.8263 12.5003 20.8263C11.2505 20.8263 11.2505 19.6833 10.0005 19.6833C8.75039 19.6833 8.75039 20.8263 7.50029 20.8263C6.2502 20.8263 6.2502 19.6833 5.0001 19.6833C3.75029 19.6833 3.75029 20.8263 2.50031 20.8263C1.60717 20.8263 1.35205 20.2429 0.823242 19.9096C1.17527 20.9268 1.63324 21.8943 2.18479 22.7988C2.2807 22.8165 2.38512 22.8263 2.50031 22.8263C3.75029 22.8263 3.75029 21.6834 5.0001 21.6834C6.2502 21.6834 6.2502 22.8263 7.50029 22.8263C8.75039 22.8263 8.75039 21.6834 10.0005 21.6834C11.2505 21.6834 11.2505 22.8263 12.5003 22.8263C13.7503 22.8263 13.7503 21.6834 15.0002 21.6834C16.2503 21.6834 16.2503 22.8263 17.5004 22.8263C18.7505 22.8263 18.7505 21.6834 20.0004 21.6834C21.2504 21.6834 21.2504 22.8263 22.5003 22.8263C23.7502 22.8263 23.7503 21.6834 25.0002 21.6834C26.2503 21.6834 26.2503 22.8263 27.5002 22.8263C27.6155 22.8263 27.7199 22.8165 27.8159 22.7987C28.3674 21.8943 28.8254 20.9268 29.1775 19.9097C28.6487 20.2428 28.3935 20.8263 27.5002 20.8263C26.2503 20.8263 26.2503 19.6833 25.0002 19.6833Z" fill="#0052B4"/>
<path d="M29.9922 14.5286C29.9935 14.5702 29.9949 14.6119 29.9959 14.6537C29.9949 14.6119 29.9934 14.5702 29.9922 14.5286Z" fill="#F0F0F0"/>
<path d="M0.00390625 14.6537C0.00490234 14.6119 0.00630859 14.5703 0.00759766 14.5286C0.00636719 14.5703 0.00484375 14.612 0.00390625 14.6537V14.6537Z" fill="#F0F0F0"/>
<path d="M0 15C0 14.8843 0.00175781 14.769 0.00439453 14.6538C0.00169922 14.769 0 14.8843 0 15Z" fill="#F0F0F0"/>
<path d="M0 15C0 15.2732 0.00773438 15.5447 0.0223242 15.8143C1.24945 15.828 1.2576 16.9565 2.49996 16.9565C3.74994 16.9565 3.74994 15.8137 4.99975 15.8137C6.24984 15.8137 6.24984 16.9565 7.49994 16.9565C8.75004 16.9565 8.75004 15.8137 10.0001 15.8137C11.2501 15.8137 11.2501 16.9565 12.4999 16.9565C13.7499 16.9565 13.7499 15.8137 14.9998 15.8137C16.2499 15.8137 16.2499 16.9565 17.5 16.9565C18.7501 16.9565 18.7501 15.8137 20 15.8137C21.25 15.8137 21.25 16.9565 22.4999 16.9565C23.7499 16.9565 23.7499 15.8137 24.9998 15.8137C26.2499 15.8137 26.2499 16.9565 27.4999 16.9565C28.7423 16.9565 28.7505 15.828 29.9779 15.8143C29.9923 15.5446 30 15.2732 30 15H0Z" fill="#F0F0F0"/>
<path d="M29.9961 14.6538C29.9987 14.7689 30.0005 14.8842 30.0005 15C30.0005 14.8843 29.9988 14.769 29.9961 14.6538Z" fill="#F0F0F0"/>
<path d="M25.0001 23.5962C23.7501 23.5962 23.7501 24.7391 22.5002 24.7391C21.2503 24.7391 21.2502 23.5962 20.0003 23.5962C18.7503 23.5962 18.7503 24.7391 17.5003 24.7391C16.2502 24.7391 16.2502 23.5962 15.0001 23.5962C13.7501 23.5962 13.7501 24.7391 12.5002 24.7391C11.2504 24.7391 11.2504 23.5962 10.0004 23.5962C8.75027 23.5962 8.75027 24.7391 7.50018 24.7391C6.25008 24.7391 6.25008 23.5962 4.99998 23.5962C4.13666 23.5962 3.86953 24.1413 3.375 24.4787C4.68686 26.0857 6.32572 27.4148 8.1893 28.3665L15.0003 28.0234L21.8112 28.3664C23.6747 27.4147 25.3136 26.0857 26.6255 24.4787C26.1307 24.1415 25.8636 23.5962 25.0001 23.5962V23.5962Z" fill="#0052B4"/>
<path d="M23.3192 23.9539L18.7562 24.8266L18.1781 20.2173L14.9999 23.6073L11.8217 20.2173L11.2434 24.8266L6.68066 23.9538L8.9183 28.0233L8.18752 28.367C10.2317 29.411 12.547 29.9999 14.9999 29.9999C17.4528 29.9999 19.768 29.411 21.8122 28.3671L21.0817 28.0234L23.3192 23.9539Z" fill="#FFDA44"/>
</g>
<rect x="0.5" y="0.5" width="29" height="29" rx="14.5" stroke="#D7D7D7"/>
<defs>
<clipPath id="clip0_5568_212378">
<rect width="30" height="30" rx="15" fill="white"/>
</clipPath>
</defs>
</svg>
