<svg width="30" height="30" viewBox="0 0 30 30" fill="none" xmlns="http://www.w3.org/2000/svg">
<g clip-path="url(#clip0_5568_212407)">
<path d="M15 30C23.2843 30 30 23.2843 30 15C30 6.71573 23.2843 0 15 0C6.71573 0 0 6.71573 0 15C0 23.2843 6.71573 30 15 30Z" fill="#F0F0F0"/>
<path d="M27.4998 16.795C26.2498 16.795 26.2498 15.6521 24.9998 15.6521C23.7498 15.6521 23.7498 16.795 22.4999 16.795C21.25 16.795 21.2499 15.6521 20 15.6521C18.75 15.6521 18.75 16.795 17.5 16.795C16.2499 16.795 16.2499 15.6521 14.9998 15.6521C13.7498 15.6521 13.7498 16.795 12.4999 16.795C11.2501 16.795 11.2501 15.6521 10.0001 15.6521C8.75 15.6521 8.75 16.795 7.4999 16.795C6.2498 16.795 6.2498 15.6521 4.99971 15.6521C3.7499 15.6521 3.7499 16.795 2.49992 16.795C1.25668 16.795 1.24947 15.6647 0.0195312 15.6526C0.0541602 16.3387 0.136074 17.0124 0.259941 17.6711C1.25627 17.8174 1.34352 18.795 2.50004 18.795C3.75002 18.795 3.75002 17.6521 4.99982 17.6521C6.24992 17.6521 6.24992 18.795 7.50002 18.795C8.75012 18.795 8.75012 17.6521 10.0002 17.6521C11.2502 17.6521 11.2502 18.795 12.5 18.795C13.75 18.795 13.75 17.6521 14.9999 17.6521C16.25 17.6521 16.25 18.795 17.5001 18.795C18.7502 18.795 18.7502 17.6521 20.0001 17.6521C21.2501 17.6521 21.2501 18.795 22.5 18.795C23.75 18.795 23.75 17.6521 24.9999 17.6521C26.25 17.6521 26.25 18.795 27.4999 18.795C28.6565 18.795 28.7438 17.8175 29.7402 17.6711C29.8641 17.0123 29.9459 16.3388 29.9807 15.6526C28.7504 15.6648 28.7431 16.795 27.4998 16.795V16.795Z" fill="#0052B4"/>
<path d="M25.0001 19.5652C23.7501 19.5652 23.7501 20.7081 22.5002 20.7081C21.2503 20.7081 21.2502 19.5652 20.0003 19.5652C18.7503 19.5652 18.7503 20.7081 17.5003 20.7081C16.2502 20.7081 16.2502 19.5652 15.0001 19.5652C13.7501 19.5652 13.7501 20.7081 12.5002 20.7081C11.2504 20.7081 11.2504 19.5652 10.0004 19.5652C8.75029 19.5652 8.75029 20.7081 7.5002 20.7081C6.2501 20.7081 6.2501 19.5652 5 19.5652C3.7502 19.5652 3.7502 20.7081 2.50021 20.7081C1.57941 20.7081 1.33631 20.0883 0.772461 19.7618C1.11395 20.7825 1.56248 21.7539 2.10418 22.6635C2.22148 22.6918 2.35191 22.7081 2.50016 22.7081C3.75014 22.7081 3.75014 21.5653 4.99994 21.5653C6.25004 21.5653 6.25004 22.7081 7.50014 22.7081C8.75023 22.7081 8.75024 21.5653 10.0003 21.5653C11.2503 21.5653 11.2503 22.7081 12.5001 22.7081C13.7501 22.7081 13.7501 21.5653 15 21.5653C16.2501 21.5653 16.2501 22.7081 17.5002 22.7081C18.7503 22.7081 18.7503 21.5653 20.0002 21.5653C21.2502 21.5653 21.2502 22.7081 22.5001 22.7081C23.7501 22.7081 23.7501 21.5653 25 21.5653C26.2501 21.5653 26.2501 22.7081 27.5001 22.7081C27.6484 22.7081 27.779 22.6918 27.8963 22.6634C28.4381 21.7539 28.8866 20.7825 29.228 19.7619C28.6641 20.0884 28.421 20.7082 27.5001 20.7082C26.2502 20.7081 26.2502 19.5652 25.0001 19.5652V19.5652Z" fill="#0052B4"/>
<path d="M29.6509 11.774C28.7372 11.9637 28.6207 12.8822 27.4997 12.8822C26.2497 12.8822 26.2497 11.7393 24.9997 11.7393C23.7497 11.7393 23.7497 12.8822 22.4998 12.8822C21.2499 12.8822 21.2498 11.7393 19.9999 11.7393C18.7499 11.7393 18.7499 12.8822 17.4999 12.8822C16.2498 12.8822 16.2498 11.7393 14.9997 11.7393C14.3243 11.7393 14.0137 12.0729 13.6738 12.3797V14.3797C14.0137 14.0729 14.3242 13.7394 14.9997 13.7394C16.2498 13.7394 16.2498 14.8822 17.4999 14.8822C18.75 14.8822 18.75 13.7394 19.9999 13.7394C21.2499 13.7394 21.2499 14.8822 22.4998 14.8822C23.7497 14.8822 23.7498 13.7394 24.9997 13.7394C26.2498 13.7394 26.2498 14.8822 27.4997 14.8822C28.6563 14.8822 28.7436 13.9047 29.7399 13.7583C29.8038 13.7583 29.8752 13.7577 29.9482 13.7568C29.8929 13.0822 29.7927 12.4204 29.6509 11.774V11.774Z" fill="#0052B4"/>
<path d="M28.5552 8.57084C28.2961 8.7884 27.9967 8.9691 27.4997 8.9691C26.2497 8.9691 26.2497 7.82617 24.9997 7.82617C23.7497 7.82617 23.7497 8.9691 22.4998 8.9691C21.2499 8.9691 21.2498 7.82617 19.9999 7.82617C18.7499 7.82617 18.7499 8.9691 17.4999 8.9691C16.2498 8.9691 16.2498 7.82617 14.9997 7.82617C14.3243 7.82617 14.0137 8.1598 13.6738 8.4666V10.4666C14.0137 10.1598 14.3242 9.82627 14.9997 9.82627C16.2498 9.82627 16.2498 10.9691 17.4999 10.9691C18.7499 10.9691 18.7499 9.82627 19.9998 9.82627C21.2498 9.82627 21.2498 10.9691 22.4997 10.9691C23.7497 10.9691 23.7497 9.82627 24.9996 9.82627C26.2497 9.82627 26.2497 10.9691 27.4997 10.9691C28.3866 10.9691 28.6449 10.3946 29.1664 10.0605C28.9887 9.55088 28.7846 9.05371 28.5552 8.57084V8.57084Z" fill="#0052B4"/>
<path d="M25.1065 3.91613C25.0718 3.91426 25.0365 3.91309 24.9998 3.91309C23.7498 3.91309 23.7498 5.05602 22.4999 5.05602C21.2499 5.05602 21.2499 3.91309 20 3.91309C18.75 3.91309 18.75 5.05602 17.4999 5.05602C16.2498 5.05602 16.2498 3.91309 14.9997 3.91309C14.3243 3.91309 14.0137 4.24672 13.6738 4.55352V6.5535C14.0137 6.24676 14.3242 5.91318 14.9997 5.91318C16.2498 5.91318 16.2498 7.056 17.4999 7.056C18.75 7.056 18.75 5.91318 19.9999 5.91318C21.2499 5.91318 21.2499 7.056 22.4998 7.056C23.7497 7.056 23.7498 5.91318 24.9997 5.91318C26.2498 5.91318 26.2498 7.056 27.4997 7.056C27.5767 7.056 27.6486 7.05143 27.7167 7.04328C26.9907 5.88523 26.1115 4.83307 25.1065 3.91613V3.91613Z" fill="#0052B4"/>
<path d="M18.8343 0.495234C18.4912 0.803906 18.1811 1.14293 17.5003 1.14293C16.2502 1.14293 16.2502 0.000117188 15.0002 0H14.9999C14.3535 5.85938e-05 14.0414 0.305742 13.7178 0.600996V2.60104C14.0414 2.30578 14.3536 2.00004 15.0002 2.00004C16.2503 2.00004 16.2503 3.14285 17.5004 3.14285C18.7504 3.14285 18.7504 2.00004 20.0004 2.00004C21.2504 2.00004 21.2504 3.14285 22.5003 3.14285C23.0247 3.14285 23.329 2.94152 23.598 2.70797C22.1721 1.70865 20.5644 0.95127 18.8343 0.495234V0.495234Z" fill="#0052B4"/>
<path d="M17.5001 28.5341C16.25 28.5341 16.25 27.3912 14.9999 27.3912C13.7499 27.3912 13.7499 28.5341 12.5 28.5341C11.2502 28.5341 11.2502 27.3912 10.0002 27.3912C9.04275 27.3912 8.81816 28.0611 8.2041 28.3751C9.89746 29.2372 11.7764 29.7868 13.7651 29.9489C14.0726 29.6679 14.385 29.3912 14.9999 29.3912C15.615 29.3912 15.9274 29.6679 16.235 29.949C18.2238 29.7869 20.1028 29.2373 21.7962 28.3751C21.182 28.0613 20.9575 27.3911 20.0001 27.3911C18.7502 27.3912 18.7502 28.5341 17.5001 28.5341V28.5341Z" fill="#0052B4"/>
<path d="M22.4998 24.6212C21.2499 24.6212 21.2499 23.4783 19.9999 23.4783C18.75 23.4783 18.75 24.6212 17.4999 24.6212C16.2498 24.6212 16.2498 23.4783 14.9997 23.4783C13.7497 23.4783 13.7497 24.6212 12.4998 24.6212C11.25 24.6212 11.25 23.4783 10 23.4783C8.74994 23.4783 8.74994 24.6212 7.49984 24.6212C6.24975 24.6212 6.24975 23.4783 4.99965 23.4783C4.10076 23.4783 3.84834 24.0695 3.3125 24.4014C3.64836 24.8185 4.00543 25.2177 4.3833 25.5963C4.55258 25.524 4.75121 25.4783 4.99959 25.4783C6.24969 25.4783 6.24969 26.6211 7.49979 26.6211C8.74988 26.6211 8.74988 25.4783 9.99998 25.4783C11.25 25.4783 11.25 26.6211 12.4998 26.6211C13.7497 26.6211 13.7497 25.4783 14.9997 25.4783C16.2498 25.4783 16.2498 26.6211 17.4999 26.6211C18.75 26.6211 18.75 25.4783 19.9999 25.4783C21.2498 25.4783 21.2499 26.6211 22.4998 26.6211C23.7497 26.6211 23.7498 25.4783 24.9997 25.4783C25.2484 25.4783 25.447 25.524 25.6164 25.5964C25.9943 25.2178 26.3514 24.8185 26.6872 24.4015C26.1513 24.0696 25.8989 23.4783 24.9997 23.4783C23.7498 23.4783 23.7498 24.6212 22.4998 24.6212V24.6212Z" fill="#0052B4"/>
<path d="M14.96 15.0001H15.0001C15.0001 14.9866 15.0001 14.9735 15.0001 14.96C14.9867 14.9734 14.9734 14.9867 14.96 15.0001Z" fill="#F0F0F0"/>
<path d="M14.9996 7.82598V12.233L9.78223 7.17383L14.9996 7.82598Z" fill="#0052B4"/>
<path d="M7.82603 14.9999H12.2329L7.82598 9.13037L7.17383 13.6956L7.82603 14.9999Z" fill="#0052B4"/>
<path d="M15 7.82607C15 5.18672 15 3.45732 15 0H14.9975C6.71437 0.00140625 0 6.71654 0 15H7.82613V10.5931L12.233 15H14.9599C14.9733 14.9866 14.9866 14.9733 15.0001 14.9599C15.0001 13.9493 15.0001 13.0476 15.0001 12.2331L10.593 7.82607H15Z" fill="#F0F0F0"/>
<path d="M7.58832 1.95654C5.24229 3.29242 3.29193 5.24277 1.95605 7.58881V15H5.86912V5.86973V5.86961H14.9996C14.9996 4.63545 14.9996 3.45971 14.9996 1.95654H7.58832Z" fill="#D80027"/>
<path d="M14.9991 13.1554L9.66973 7.82617H7.8252V7.82629L14.999 15H14.9991C14.9991 15 14.9991 13.7281 14.9991 13.1554V13.1554Z" fill="#D80027"/>
<path d="M19.5654 7.82617H25.435L22.5002 10.761L19.5654 7.82617Z" fill="#6DA544"/>
<path d="M21.8477 10.1086H23.152V13.6956H21.8477V10.1086Z" fill="#A2001D"/>
<path d="M21.8477 19.5652H23.152V23.1521H21.8477V19.5652Z" fill="#A2001D"/>
<path d="M26.413 17.6087C26.413 16.5281 25.537 15.6522 24.4565 15.6522C23.9553 15.6522 23.4984 15.8408 23.1521 16.1507V15H23.8043V13.6956H23.1521V13.0435H21.8478V13.6956H21.1956V15H21.8478V16.1507C21.5015 15.8408 21.0446 15.6522 20.5434 15.6522C19.4629 15.6522 18.5869 16.5281 18.5869 17.6087C18.5869 18.188 18.8389 18.7083 19.2391 19.0666V20.2174H25.7608V19.0666C26.161 18.7083 26.413 18.188 26.413 17.6087V17.6087Z" fill="#FFDA44"/>
<path d="M24.4568 16.9565C24.251 16.9565 24.107 17.0469 24.0223 17.1226L23.1524 17.9014H21.8481L20.9782 17.1226C20.8935 17.0469 20.7495 16.9565 20.5438 16.9565C20.1842 16.9565 19.8916 17.2491 19.8916 17.6087C19.8916 17.862 20.0282 18.022 20.1096 18.095L20.5438 18.4838V18.913H24.4569V18.4838L24.8911 18.095C24.9725 18.0221 25.1091 17.862 25.1091 17.6087C25.109 17.2491 24.8164 16.9565 24.4568 16.9565V16.9565Z" fill="#D80027"/>
</g>
<rect x="0.5" y="0.5" width="29" height="29" rx="14.5" stroke="#D7D7D7"/>
<defs>
<clipPath id="clip0_5568_212407">
<rect width="30" height="30" rx="15" fill="white"/>
</clipPath>
</defs>
</svg>
