<svg width="30" height="30" viewBox="0 0 30 30" fill="none" xmlns="http://www.w3.org/2000/svg">
<g clip-path="url(#clip0_5568_212458)">
<path d="M14.9998 29.9978C23.2828 29.9978 29.9976 23.2831 29.9976 15C29.9976 6.71694 23.2828 0.00219727 14.9998 0.00219727C6.7167 0.00219727 0.00195312 6.71694 0.00195312 15C0.00195312 23.2831 6.7167 29.9978 14.9998 29.9978Z" fill="#F0F0F0"/>
<path d="M2.01175 7.50098C1.3348 8.67335 0.835456 9.89904 0.50293 11.1475L25.585 25.6288C26.5 24.7165 27.3118 23.6711 27.9886 22.4988L2.01175 7.50098Z" fill="black"/>
<path d="M22.4988 2.01151C16.4977 -1.45316 9.09836 -0.298427 4.41504 4.37113L29.4971 18.8522C31.1995 12.4618 28.4998 5.47623 22.4988 2.01151V2.01151Z" fill="#FFDA44"/>
<path d="M7.50135 27.9886C13.5023 31.4532 20.9019 30.2985 25.5851 25.629L0.502943 11.1477C-1.1993 17.5384 1.50029 24.5239 7.50135 27.9886Z" fill="#FFDA44"/>
<path d="M19.2394 13.3698C19.2394 15.7106 17.3417 17.6083 15.0008 17.6083C12.66 17.6083 10.7623 15.7106 10.7623 13.3698C10.7623 12.6399 10.9468 11.9531 11.2718 11.3535C10.352 12.2941 9.78418 13.5804 9.78418 14.9999C9.78418 17.881 12.1197 20.2166 15.0008 20.2166C17.882 20.2166 20.2175 17.8811 20.2175 14.9999C20.2175 13.5804 19.6497 12.2941 18.7299 11.3535C19.0548 11.9532 19.2394 12.6399 19.2394 13.3698V13.3698Z" fill="#D80027"/>
<path d="M14.0225 8.47925H15.9787V18.2605H14.0225V8.47925Z" fill="#D80027"/>
<path d="M18.261 10.4355H11.7402C11.7402 10.8857 12.1324 11.2507 12.5825 11.2507H12.5554C12.5554 11.7008 12.9203 12.0658 13.3705 12.0658C13.3705 12.516 13.7355 12.8809 14.1856 12.8809H15.8158C16.2659 12.8809 16.6309 12.516 16.6309 12.0658C17.0811 12.0658 17.446 11.7008 17.446 11.2507H17.4189C17.8689 11.2506 18.261 10.8858 18.261 10.4355Z" fill="#D80027"/>
<path d="M10.4355 18.9126H19.5646V20.8689H10.4355V18.9126Z" fill="#D80027"/>
<path d="M16.957 19.5645H20.8695V21.5207H16.957V19.5645Z" fill="#D80027"/>
<path d="M9.13184 19.5647H13.0443V21.521H9.13184V19.5647Z" fill="#D80027"/>
</g>
<rect x="0.5" y="0.5" width="29" height="29" rx="14.5" stroke="#D7D7D7"/>
<defs>
<clipPath id="clip0_5568_212458">
<rect width="30" height="30" rx="15" fill="white"/>
</clipPath>
</defs>
</svg>
