<svg width="30" height="30" viewBox="0 0 30 30" fill="none" xmlns="http://www.w3.org/2000/svg">
<rect width="30" height="30" rx="2" fill="white"/>
<path fill-rule="evenodd" clip-rule="evenodd" d="M13.4444 17.2222H16.5556C17.1778 17.2222 17.489 17.2222 17.7267 17.3433C17.9357 17.4499 18.1057 17.6198 18.2122 17.8289C18.3333 18.0666 18.3333 18.3777 18.3333 19V25H22.7778V8.55556C22.7778 7.31099 22.7778 6.68871 22.5356 6.21335C22.3225 5.79522 21.9826 5.45526 21.5644 5.24221C21.0891 5 20.4668 5 19.2222 5H10.7778C9.53322 5 8.91094 5 8.43558 5.24221C8.01744 5.45526 7.67748 5.79522 7.46443 6.21335C7.22222 6.68871 7.22222 7.31099 7.22222 8.55556V25H11.6667V19C11.6667 18.3777 11.6667 18.0666 11.7878 17.8289C11.8943 17.6198 12.0643 17.4499 12.2733 17.3433C12.511 17.2222 12.8222 17.2222 13.4444 17.2222ZM12.2222 11.1111C12.529 11.1111 12.7778 10.8624 12.7778 10.5556C12.7778 10.2487 12.529 10 12.2222 10C11.9154 10 11.6667 10.2487 11.6667 10.5556C11.6667 10.8624 11.9154 11.1111 12.2222 11.1111ZM17.7778 11.1111C18.0846 11.1111 18.3333 10.8624 18.3333 10.5556C18.3333 10.2487 18.0846 10 17.7778 10C17.471 10 17.2222 10.2487 17.2222 10.5556C17.2222 10.8624 17.471 11.1111 17.7778 11.1111Z" fill="#5F5C5C"/>
<path d="M18.3333 25V19C18.3333 18.3777 18.3333 18.0666 18.2122 17.8289C18.1057 17.6198 17.9357 17.4499 17.7267 17.3433C17.489 17.2222 17.1778 17.2222 16.5556 17.2222H13.4444C12.8222 17.2222 12.511 17.2222 12.2733 17.3433C12.0643 17.4499 11.8943 17.6198 11.7878 17.8289C11.6667 18.0666 11.6667 18.3777 11.6667 19V25M18.3333 25H22.7778V8.55556C22.7778 7.31099 22.7778 6.68871 22.5356 6.21335C22.3225 5.79522 21.9826 5.45526 21.5644 5.24221C21.0891 5 20.4668 5 19.2222 5H10.7778C9.53322 5 8.91094 5 8.43558 5.24221C8.01744 5.45526 7.67748 5.79522 7.46443 6.21335C7.22222 6.68871 7.22222 7.31099 7.22222 8.55556V25H11.6667M18.3333 25H11.6667M25 25H5M12.2222 10.5556H12.2333M17.7778 10.5556H17.7889M12.7778 10.5556C12.7778 10.8624 12.529 11.1111 12.2222 11.1111C11.9154 11.1111 11.6667 10.8624 11.6667 10.5556C11.6667 10.2487 11.9154 10 12.2222 10C12.529 10 12.7778 10.2487 12.7778 10.5556ZM18.3333 10.5556C18.3333 10.8624 18.0846 11.1111 17.7778 11.1111C17.471 11.1111 17.2222 10.8624 17.2222 10.5556C17.2222 10.2487 17.471 10 17.7778 10C18.0846 10 18.3333 10.2487 18.3333 10.5556Z" stroke="white" stroke-linecap="round" stroke-linejoin="round"/>
<path d="M22.7778 25H18.3333H11.6667H7.22222M25 25H5" stroke="#5F5C5C" stroke-linecap="round" stroke-linejoin="round"/>
</svg>
