<svg width="30" height="30" viewBox="0 0 30 30" fill="none" xmlns="http://www.w3.org/2000/svg">
<rect width="30" height="30" rx="2" fill="white"/>
<path d="M7.6 14H10.5V9.2C10.5 8.0799 10.5 7.51984 10.718 7.09202C10.9097 6.71569 11.2157 6.40973 11.592 6.21799C12.0198 6 12.5799 6 13.7 6H16.3C17.4201 6 17.9802 6 18.408 6.21799C18.7843 6.40973 19.0903 6.71569 19.282 7.09202C19.5 7.51984 19.5 8.0799 19.5 9.2V14H22.4C22.9601 14 23.2401 14 23.454 14.109C23.6422 14.2049 23.7951 14.3578 23.891 14.546C24 14.7599 24 15.0399 24 15.6V24H19.5H10.5H6V15.6C6 15.0399 6 14.7599 6.10899 14.546C6.20487 14.3578 6.35785 14.2049 6.54601 14.109C6.75992 14 7.03995 14 7.6 14Z" fill="#5F5C5C"/>
<path d="M10.5 14H7.6C7.03995 14 6.75992 14 6.54601 14.109C6.35785 14.2049 6.20487 14.3578 6.10899 14.546C6 14.7599 6 15.0399 6 15.6V24M19.5 14H22.4C22.9601 14 23.2401 14 23.454 14.109C23.6422 14.2049 23.7951 14.3578 23.891 14.546C24 14.7599 24 15.0399 24 15.6V24M19.5 24V9.2C19.5 8.0799 19.5 7.51984 19.282 7.09202C19.0903 6.71569 18.7843 6.40973 18.408 6.21799C17.9802 6 17.4201 6 16.3 6H13.7C12.5799 6 12.0198 6 11.592 6.21799C11.2157 6.40973 10.9097 6.71569 10.718 7.09202C10.5 7.51984 10.5 8.0799 10.5 9.2V24M25 24H5" stroke="#5F5C5C" stroke-linecap="round" stroke-linejoin="round"/>
<path d="M13.75 8.75H16.25M13.75 13.75H16.25M13.75 18.75H16.25" stroke="white" stroke-width="2" stroke-linecap="round" stroke-linejoin="round"/>
</svg>
