<svg width="30" height="30" viewBox="0 0 30 30" fill="none" xmlns="http://www.w3.org/2000/svg">
<rect width="30" height="30" rx="2" fill="white"/>
<path d="M8.66667 13.8889H14V8.55556C14 7.31099 14 6.68871 14.2422 6.21335C14.4553 5.79522 14.7952 5.45526 15.2134 5.24221C15.6887 5 16.311 5 17.5556 5H21.5556C22.8001 5 23.4224 5 23.8978 5.24221C24.3159 5.45526 24.6558 5.79522 24.8689 6.21335C25.1111 6.68871 25.1111 7.31099 25.1111 8.55556V25H14H5.11111V17.4444C5.11111 16.1999 5.11111 15.5776 5.35332 15.1022C5.56637 14.6841 5.90633 14.3441 6.32447 14.1311C6.79982 13.8889 7.42211 13.8889 8.66667 13.8889Z" fill="#5F5C5C"/>
<path d="M14 13.8889H8.66667C7.42211 13.8889 6.79982 13.8889 6.32447 14.1311C5.90633 14.3441 5.56637 14.6841 5.35332 15.1022C5.11111 15.5776 5.11111 16.1999 5.11111 17.4444V25M25.1111 25V8.55556C25.1111 7.31099 25.1111 6.68871 24.8689 6.21335C24.6559 5.79522 24.3159 5.45526 23.8978 5.24221C23.4224 5 22.8001 5 21.5556 5H17.5556C16.311 5 15.6887 5 15.2134 5.24221C14.7952 5.45526 14.4553 5.79522 14.2422 6.21335C14 6.68871 14 7.31099 14 8.55556V25M26.2222 25H4" stroke="#5F5C5C" stroke-linecap="round" stroke-linejoin="round"/>
<path d="M18.125 8.75H21.875M18.125 13.75H21.875M18.125 18.75H21.875" stroke="white" stroke-width="2" stroke-linecap="round" stroke-linejoin="round"/>
</svg>
