<svg width="30" height="30" viewBox="0 0 30 30" fill="none" xmlns="http://www.w3.org/2000/svg">
<rect width="30" height="30" rx="2" fill="white"/>
<path d="M20.4444 5H9.77778C8.53322 5 7.91094 5 7.43558 5.24221C7.01744 5.45526 6.67748 5.79522 6.46443 6.21335C6.22222 6.68871 6.22222 7.31099 6.22222 8.55556V25H24V8.55556C24 7.31099 24 6.68871 23.7578 6.21335C23.5447 5.79522 23.2048 5.45526 22.7866 5.24221C22.3113 5 21.689 5 20.4444 5Z" fill="#5F5C5C"/>
<path d="M24 25V8.55556C24 7.31099 24 6.68871 23.7578 6.21335C23.5447 5.79522 23.2048 5.45526 22.7866 5.24221C22.3113 5 21.689 5 20.4444 5H9.77778C8.53322 5 7.91094 5 7.43558 5.24221C7.01744 5.45526 6.67748 5.79522 6.46443 6.21335C6.22222 6.68871 6.22222 7.31099 6.22222 8.55556V25M26.2222 25H4" stroke="#5F5C5C" stroke-linecap="round" stroke-linejoin="round"/>
<path d="M9.375 8.75H12.8125M9.375 13.75H12.8125M9.375 18.75H12.8125M17.1875 8.75H20.625M17.1875 13.75H20.625M17.1875 18.75H20.625" stroke="white" stroke-width="2" stroke-linecap="round" stroke-linejoin="round"/>
</svg>
