<svg width="30" height="30" viewBox="0 0 30 30" fill="none" xmlns="http://www.w3.org/2000/svg">
<rect width="30" height="30" rx="2" fill="white"/>
<path fill-rule="evenodd" clip-rule="evenodd" d="M5.24221 6.21335C5 6.68871 5 7.31099 5 8.55556V21.4444C5 22.689 5 23.3113 5.24221 23.7866C5.45526 24.2048 5.79522 24.5447 6.21335 24.7578C6.68871 25 7.31099 25 8.55556 25H10.0667C10.6267 25 10.9067 25 11.1207 24.891C11.3088 24.7951 11.4618 24.6422 11.5577 24.454C11.6667 24.2401 11.6667 23.9601 11.6667 23.4V19C11.6667 18.3777 11.6667 18.0666 11.7878 17.8289C11.8943 17.6198 12.0643 17.4499 12.2733 17.3433C12.511 17.2222 12.8222 17.2222 13.4444 17.2222H16.5556C17.1778 17.2222 17.489 17.2222 17.7267 17.3433C17.9357 17.4499 18.1057 17.6198 18.2122 17.8289C18.3333 18.0666 18.3333 18.3777 18.3333 19V23.4C18.3333 23.9601 18.3333 24.2401 18.4423 24.454C18.5382 24.6422 18.6912 24.7951 18.8793 24.891C19.0933 25 19.3733 25 19.9333 25H21.4444C22.689 25 23.3113 25 23.7866 24.7578C24.2048 24.5447 24.5447 24.2048 24.7578 23.7866C25 23.3113 25 22.689 25 21.4444V8.55556C25 7.31099 25 6.68871 24.7578 6.21335C24.5447 5.79522 24.2048 5.45526 23.7866 5.24221C23.3113 5 22.689 5 21.4444 5H8.55556C7.31099 5 6.68871 5 6.21335 5.24221C5.79522 5.45526 5.45526 5.79522 5.24221 6.21335Z" fill="#5F5C5C"/>
<path d="M5 9.44444C5 11.2854 6.49238 12.7778 8.33333 12.7778C10.1743 12.7778 11.6667 11.2854 11.6667 9.44444C11.6667 11.2854 13.1591 12.7778 15 12.7778C16.8409 12.7778 18.3333 11.2854 18.3333 9.44444C18.3333 11.2854 19.8257 12.7778 21.6667 12.7778C23.5076 12.7778 25 11.2854 25 9.44444M8.55556 25H21.4444M8.55556 25C7.31099 25 6.68871 25 6.21335 24.7578C5.79522 24.5447 5.45526 24.2048 5.24221 23.7866C5 23.3113 5 22.689 5 21.4444V8.55556C5 7.31099 5 6.68871 5.24221 6.21335C5.45526 5.79522 5.79522 5.45526 6.21335 5.24221C6.68871 5 7.31099 5 8.55556 5H21.4444C22.689 5 23.3113 5 23.7866 5.24221C24.2048 5.45526 24.5447 5.79522 24.7578 6.21335C25 6.68871 25 7.31099 25 8.55556V21.4444C25 22.689 25 23.3113 24.7578 23.7866C24.5447 24.2048 24.2048 24.5447 23.7866 24.7578C23.3113 25 22.689 25 21.4444 25M8.55556 25H10.0667C10.6267 25 10.9067 25 11.1207 24.891C11.3088 24.7951 11.4618 24.6422 11.5577 24.454C11.6667 24.2401 11.6667 23.9601 11.6667 23.4V19C11.6667 18.3777 11.6667 18.0666 11.7878 17.8289C11.8943 17.6198 12.0643 17.4499 12.2733 17.3433C12.511 17.2222 12.8222 17.2222 13.4444 17.2222H16.5556C17.1778 17.2222 17.489 17.2222 17.7267 17.3433C17.9357 17.4499 18.1057 17.6198 18.2122 17.8289C18.3333 18.0666 18.3333 18.3777 18.3333 19V23.4C18.3333 23.9601 18.3333 24.2401 18.4423 24.454C18.5382 24.6422 18.6912 24.7951 18.8793 24.891C19.0933 25 19.3733 25 19.9333 25H21.4444" stroke="#5F5C5C" stroke-linecap="round" stroke-linejoin="round"/>
<path d="M3 9C3 11.2091 4.79086 13 7 13C9.20914 13 11 11.2091 11 9C11 11.2091 12.7909 13 15 13C17.2091 13 19 11.2091 19 9C19 11.2091 20.7909 13 23 13C25.2091 13 27 11.2091 27 9" stroke="white" stroke-width="2" stroke-linecap="round" stroke-linejoin="round"/>
</svg>
