<svg width="30" height="30" viewBox="0 0 30 30" fill="none" xmlns="http://www.w3.org/2000/svg">
<rect width="30" height="30" rx="2" fill="white"/>
<path d="M18.75 26.25V19.5C18.75 18.7999 18.75 18.4499 18.6138 18.1825C18.4939 17.9473 18.3027 17.7561 18.0675 17.6362C17.8001 17.5 17.4501 17.5 16.75 17.5H13.25C12.5499 17.5 12.1999 17.5 11.9325 17.6362C11.6973 17.7561 11.5061 17.9473 11.3862 18.1825C11.25 18.4499 11.25 18.7999 11.25 19.5V26.25M3.75 8.75C3.75 10.8211 5.42893 12.5 7.5 12.5C9.57107 12.5 11.25 10.8211 11.25 8.75C11.25 10.8211 12.9289 12.5 15 12.5C17.0711 12.5 18.75 10.8211 18.75 8.75C18.75 10.8211 20.4289 12.5 22.5 12.5C24.5711 12.5 26.25 10.8211 26.25 8.75M7.75 26.25H22.25C23.6501 26.25 24.3502 26.25 24.885 25.9775C25.3554 25.7378 25.7378 25.3554 25.9775 24.885C26.25 24.3502 26.25 23.6501 26.25 22.25V7.75C26.25 6.34987 26.25 5.6498 25.9775 5.11502C25.7378 4.64462 25.3554 4.26217 24.885 4.02248C24.3502 3.75 23.6501 3.75 22.25 3.75H7.75C6.34987 3.75 5.6498 3.75 5.11502 4.02248C4.64462 4.26217 4.26217 4.64462 4.02248 5.11502C3.75 5.6498 3.75 6.34987 3.75 7.75V22.25C3.75 23.6501 3.75 24.3502 4.02248 24.885C4.26217 25.3554 4.64462 25.7378 5.11502 25.9775C5.6498 26.25 6.34987 26.25 7.75 26.25Z" stroke="#5F5C5C" stroke-width="1.5" stroke-linecap="round" stroke-linejoin="round"/>
</svg>
