<svg width="30" height="30" viewBox="0 0 30 30" fill="none" xmlns="http://www.w3.org/2000/svg">
<rect width="30" height="30" rx="2" fill="white"/>
<path d="M18 5H11.7778C10.5332 5 9.91094 5 9.43558 5.24221C9.01744 5.45526 8.67748 5.79522 8.46443 6.21335C8.22222 6.68871 8.22222 7.31099 8.22222 8.55556V25H21.5556V8.55556C21.5556 7.31099 21.5556 6.68871 21.3133 6.21335C21.1003 5.79522 20.7603 5.45526 20.3422 5.24221C19.8668 5 19.2446 5 18 5Z" fill="#5F5C5C"/>
<path d="M21.5556 25V8.55556C21.5556 7.31099 21.5556 6.68871 21.3133 6.21335C21.1003 5.79522 20.7603 5.45526 20.3422 5.24221C19.8668 5 19.2446 5 18 5H11.7778C10.5332 5 9.91094 5 9.43558 5.24221C9.01744 5.45526 8.67748 5.79522 8.46443 6.21335C8.22222 6.68871 8.22222 7.31099 8.22222 8.55556V25M23.7778 25H6" stroke="#5F5C5C" stroke-linecap="round" stroke-linejoin="round"/>
<path d="M11.875 8.75H18.125M11.875 13.75H18.125M11.875 18.75H18.125" stroke="white" stroke-width="2" stroke-linecap="round" stroke-linejoin="round"/>
</svg>
