<svg width="30" height="30" viewBox="0 0 30 30" fill="none" xmlns="http://www.w3.org/2000/svg">
<rect width="30" height="30" rx="2" fill="white"/>
<path d="M14.0702 5.18548C14.2328 5.08381 14.3142 5.03297 14.4014 5.01315C14.4785 4.99562 14.5586 4.99562 14.6358 5.01315C14.723 5.03297 14.8043 5.08381 14.967 5.18548L22.9795 10.1933H6.05762L14.0702 5.18548Z" fill="#5F5C5C"/>
<path d="M5 25H24.0372M8.17286 21.8271V13.3662M12.4033 21.8271V13.3662M16.6338 21.8271V13.3662M20.8643 21.8271V13.3662M22.9795 10.1933L14.967 5.18548C14.8043 5.08381 14.723 5.03297 14.6358 5.01315C14.5586 4.99562 14.4785 4.99562 14.4014 5.01315C14.3142 5.03297 14.2328 5.08381 14.0702 5.18548L6.05762 10.1933H22.9795Z" stroke="#5F5C5C" stroke-width="2" stroke-linecap="round" stroke-linejoin="round"/>
</svg>
