<svg width="30" height="30" viewBox="0 0 30 30" fill="none" xmlns="http://www.w3.org/2000/svg">
<rect width="30" height="30" rx="2" fill="white"/>
<path d="M16.2222 13.8889H21.5556C22.8001 13.8889 23.4224 13.8889 23.8978 14.1311C24.3159 14.3441 24.6558 14.6841 24.8689 15.1022C25.1111 15.5776 25.1111 16.1999 25.1111 17.4444V25H16.2222H5.11111V8.55556C5.11111 7.31099 5.11111 6.68871 5.35332 6.21335C5.56637 5.79522 5.90633 5.45526 6.32447 5.24221C6.79982 5 7.42211 5 8.66667 5H12.6667C13.9112 5 14.5335 5 15.0089 5.24221C15.427 5.45526 15.767 5.79522 15.98 6.21335C16.2222 6.68871 16.2222 7.31099 16.2222 8.55556V13.8889Z" fill="#5F5C5C"/>
<path d="M16.2222 13.8889H21.5556C22.8001 13.8889 23.4224 13.8889 23.8978 14.1311C24.3159 14.3441 24.6559 14.6841 24.8689 15.1022C25.1111 15.5776 25.1111 16.1999 25.1111 17.4444V25M16.2222 25V8.55556C16.2222 7.31099 16.2222 6.68871 15.98 6.21335C15.767 5.79522 15.427 5.45526 15.0089 5.24221C14.5335 5 13.9112 5 12.6667 5H8.66667C7.42211 5 6.79982 5 6.32447 5.24221C5.90633 5.45526 5.56637 5.79522 5.35332 6.21335C5.11111 6.68871 5.11111 7.31099 5.11111 8.55556V25M26.2222 25H4" stroke="#5F5C5C" stroke-linecap="round" stroke-linejoin="round"/>
<path d="M8.125 8.75H11.875M8.125 13.75H11.875M8.125 18.75H11.875" stroke="white" stroke-width="2" stroke-linecap="round" stroke-linejoin="round"/>
</svg>
