<svg width="30" height="30" viewBox="0 0 30 30" fill="none" xmlns="http://www.w3.org/2000/svg">
<rect width="30" height="30" rx="2" fill="white"/>
<path d="M18.75 26.25V19.5C18.75 18.7999 18.75 18.4499 18.6138 18.1825C18.4939 17.9473 18.3027 17.7561 18.0675 17.6362C17.8001 17.5 17.4501 17.5 16.75 17.5H13.25C12.5499 17.5 12.1999 17.5 11.9325 17.6362C11.6973 17.7561 11.5061 17.9473 11.3862 18.1825C11.25 18.4499 11.25 18.7999 11.25 19.5V26.25M23.75 26.25V7.75C23.75 6.34987 23.75 5.6498 23.4775 5.11502C23.2378 4.64462 22.8554 4.26217 22.385 4.02248C21.8502 3.75 21.1501 3.75 19.75 3.75H10.25C8.84987 3.75 8.1498 3.75 7.61502 4.02248C7.14462 4.26217 6.76217 4.64462 6.52248 5.11502C6.25 5.6498 6.25 6.34987 6.25 7.75V26.25M26.25 26.25H3.75M11.875 10H11.8875M18.125 10H18.1375M12.5 10C12.5 10.3452 12.2202 10.625 11.875 10.625C11.5298 10.625 11.25 10.3452 11.25 10C11.25 9.65482 11.5298 9.375 11.875 9.375C12.2202 9.375 12.5 9.65482 12.5 10ZM18.75 10C18.75 10.3452 18.4702 10.625 18.125 10.625C17.7798 10.625 17.5 10.3452 17.5 10C17.5 9.65482 17.7798 9.375 18.125 9.375C18.4702 9.375 18.75 9.65482 18.75 10Z" stroke="#5F5C5C" stroke-width="1.5" stroke-linecap="round" stroke-linejoin="round"/>
</svg>
