<svg width="30" height="30" viewBox="0 0 30 30" fill="none" xmlns="http://www.w3.org/2000/svg">
<rect width="30" height="30" rx="2" fill="white"/>
<path d="M16.25 13.75H22.25C23.6501 13.75 24.3502 13.75 24.885 14.0225C25.3554 14.2622 25.7378 14.6446 25.9775 15.115C26.25 15.6498 26.25 16.3499 26.25 17.75V26.25M16.25 26.25V7.75C16.25 6.34987 16.25 5.6498 15.9775 5.11502C15.7378 4.64462 15.3554 4.26217 14.885 4.02248C14.3502 3.75 13.6501 3.75 12.25 3.75H7.75C6.34987 3.75 5.6498 3.75 5.11502 4.02248C4.64462 4.26217 4.26217 4.64462 4.02248 5.11502C3.75 5.6498 3.75 6.34987 3.75 7.75V26.25M27.5 26.25H2.5M8.125 8.75H11.875M8.125 13.75H11.875M8.125 18.75H11.875" stroke="#5F5C5C" stroke-width="1.5" stroke-linecap="round" stroke-linejoin="round"/>
</svg>
