<svg width="30" height="30" viewBox="0 0 30 30" fill="none" xmlns="http://www.w3.org/2000/svg">
<rect width="30" height="30" rx="2" fill="white"/>
<path d="M9.375 13.75H5.75C5.04993 13.75 4.6999 13.75 4.43251 13.8862C4.19731 14.0061 4.00608 14.1973 3.88624 14.4325C3.75 14.6999 3.75 15.0499 3.75 15.75V26.25M20.625 13.75H24.25C24.9501 13.75 25.3001 13.75 25.5675 13.8862C25.8027 14.0061 25.9939 14.1973 26.1138 14.4325C26.25 14.6999 26.25 15.0499 26.25 15.75V26.25M20.625 26.25V7.75C20.625 6.34987 20.625 5.6498 20.3525 5.11502C20.1128 4.64462 19.7304 4.26217 19.26 4.02248C18.7252 3.75 18.0251 3.75 16.625 3.75H13.375C11.9749 3.75 11.2748 3.75 10.74 4.02248C10.2696 4.26217 9.88717 4.64462 9.64748 5.11502C9.375 5.6498 9.375 6.34987 9.375 7.75V26.25M27.5 26.25H2.5M13.75 8.75H16.25M13.75 13.75H16.25M13.75 18.75H16.25" stroke="#5F5C5C" stroke-width="1.5" stroke-linecap="round" stroke-linejoin="round"/>
</svg>
