<svg width="30" height="30" viewBox="0 0 30 30" fill="none" xmlns="http://www.w3.org/2000/svg">
<g clip-path="url(#clip0_5568_212475)">
<path d="M0 15C0 6.71578 6.71578 0 15 0C23.2842 0 30 6.71578 30 15C29.3479 15 15 16.9565 15 16.9565L0 15Z" fill="#D80027"/>
<path d="M30 15C30 23.2842 23.2842 30 15 30C6.71578 30 0 23.2842 0 15" fill="#6DA544"/>
<path d="M15.0004 9.78271L16.1334 13.2701H19.8006L16.8339 15.4255L17.967 18.9131L15.0004 16.7578L12.0337 18.9131L13.167 15.4255L10.2002 13.2701H13.8672L15.0004 9.78271Z" fill="#FFDA44"/>
</g>
<rect x="0.5" y="0.5" width="29" height="29" rx="14.5" stroke="#D7D7D7"/>
<defs>
<clipPath id="clip0_5568_212475">
<rect width="30" height="30" rx="15" fill="white"/>
</clipPath>
</defs>
</svg>
