<svg width="30" height="30" viewBox="0 0 30 30" fill="none" xmlns="http://www.w3.org/2000/svg">
<g clip-path="url(#clip0_5568_212479)">
<path d="M15 30C23.2843 30 30 23.2843 30 15C30 6.71573 23.2843 0 15 0C6.71573 0 0 6.71573 0 15C0 23.2843 6.71573 30 15 30Z" fill="#F0F0F0"/>
<path d="M24.1329 3.09978C18.7627 -1.0326 11.2364 -1.0326 5.86621 3.09972L14.9996 12.2331L24.1329 3.09978Z" fill="#D80027"/>
<path d="M14.9995 17.7672L5.86621 26.9004C11.2364 31.0328 18.7627 31.0328 24.1329 26.9004L14.9996 17.7671L14.9995 17.7672Z" fill="#D80027"/>
<path d="M12.2326 15.0001L3.09929 5.8667C-1.0331 11.2369 -1.0331 18.7632 3.09929 24.1334L12.2326 15.0001Z" fill="#6DA544"/>
<path d="M17.7666 15.0001L26.8998 24.1334C31.0322 18.7632 31.0322 11.2369 26.8998 5.8667L17.7666 15.0001Z" fill="#6DA544"/>
<path d="M15.0002 21.5217C18.6021 21.5217 21.522 18.6018 21.522 15C21.522 11.3981 18.6021 8.47827 15.0002 8.47827C11.3984 8.47827 8.47852 11.3981 8.47852 15C8.47852 18.6018 11.3984 21.5217 15.0002 21.5217Z" fill="#F0F0F0"/>
<path d="M15 10.4348L15.5648 11.4131H16.6944L16.1296 12.3913L16.6944 13.3696H15.5648L15 14.3479L14.4352 13.3696H13.3057L13.8704 12.3913L13.3057 11.4131H14.4352L15 10.4348Z" fill="#D80027"/>
<path d="M12.129 15L12.6938 15.9783H13.8233L13.2586 16.9565L13.8233 17.9348H12.6938L12.129 18.9131L11.5641 17.9348H10.4346L10.9994 16.9565L10.4346 15.9783H11.5641L12.129 15Z" fill="#D80027"/>
<path d="M17.8702 15L18.435 15.9783H19.5646L18.9998 16.9565L19.5646 17.9348H18.435L17.8702 18.9131L17.3054 17.9348H16.1758L16.7406 16.9565L16.1758 15.9783H17.3054L17.8702 15Z" fill="#D80027"/>
</g>
<rect x="0.5" y="0.5" width="29" height="29" rx="14.5" stroke="#D7D7D7"/>
<defs>
<clipPath id="clip0_5568_212479">
<rect width="30" height="30" rx="15" fill="white"/>
</clipPath>
</defs>
</svg>
