<svg width="30" height="30" viewBox="0 0 30 30" fill="none" xmlns="http://www.w3.org/2000/svg">
<rect width="30" height="30" rx="2" fill="white"/>
<path d="M20.3135 4.25H8.98067C7.49499 4.25 6.25 5.42855 6.25 6.92402V23.076C6.25 24.5715 7.49499 25.75 8.98067 25.75H20.3135C21.7991 25.75 23.0441 24.5715 23.0441 23.076V6.92402C23.0441 5.42855 21.7991 4.25 20.3135 4.25Z" stroke="#5F5C5C" stroke-width="1.5"/>
<path d="M10.3178 7.73816C9.98467 7.73816 9.7146 8.0005 9.7146 8.3241V9.48105C9.7146 9.80464 9.98467 10.067 10.3178 10.067H18.9761C19.3092 10.067 19.5793 9.80464 19.5793 9.48105V8.3241C19.5793 8.0005 19.3092 7.73816 18.9761 7.73816H10.3178Z" fill="#5F5C5C"/>
<path d="M11.1422 22.0671C11.4753 22.0671 11.7454 21.8047 11.7454 21.4811V20.926C11.7454 20.6024 11.4753 20.34 11.1422 20.34H10.3178C9.98471 20.34 9.71464 20.6024 9.71464 20.926V21.4811C9.71464 21.8047 9.98471 22.0671 10.3178 22.0671H11.1422Z" fill="#5F5C5C"/>
<path d="M11.1422 18.5995C11.4753 18.5995 11.7454 18.3371 11.7454 18.0135V17.4584C11.7454 17.1348 11.4753 16.8725 11.1422 16.8725H10.3178C9.98471 16.8725 9.71464 17.1348 9.71464 17.4584V18.0135C9.71464 18.3371 9.98471 18.5995 10.3178 18.5995H11.1422Z" fill="#5F5C5C"/>
<path d="M15.1086 22.0671C15.4417 22.0671 15.7117 21.8047 15.7117 21.4811V20.926C15.7117 20.6024 15.4417 20.34 15.1086 20.34H14.2842C13.951 20.34 13.681 20.6024 13.681 20.926V21.4811C13.681 21.8047 13.951 22.0671 14.2842 22.0671H15.1086Z" fill="#5F5C5C"/>
<path d="M15.1086 18.5995C15.4417 18.5995 15.7117 18.3371 15.7117 18.0135V17.4584C15.7117 17.1348 15.4417 16.8725 15.1086 16.8725H14.2842C13.951 16.8725 13.681 17.1348 13.681 17.4584V18.0135C13.681 18.3371 13.951 18.5995 14.2842 18.5995H15.1086Z" fill="#5F5C5C"/>
<path d="M15.1086 15.1319C15.4417 15.1319 15.7117 14.8696 15.7117 14.5459V13.9908C15.7117 13.6672 15.4417 13.4048 15.1086 13.4048H10.3178C9.98467 13.4048 9.7146 13.6672 9.7146 13.9908V14.5459C9.7146 14.8695 9.98467 15.1319 10.3178 15.1319H15.1086Z" fill="#5F5C5C"/>
<path d="M19.0749 22.0671C19.408 22.0671 19.6781 21.8047 19.6781 21.4811V20.926C19.6781 20.6024 19.408 20.34 19.0749 20.34H18.2506C17.9174 20.34 17.6474 20.6024 17.6474 20.926V21.4811C17.6474 21.8047 17.9174 22.0671 18.2506 22.0671H19.0749Z" fill="#5F5C5C"/>
<path d="M19.0749 18.5995C19.408 18.5995 19.6781 18.3371 19.6781 18.0135V17.4584C19.6781 17.1348 19.408 16.8725 19.0749 16.8725H18.2506C17.9174 16.8725 17.6474 17.1348 17.6474 17.4584V18.0135C17.6474 18.3371 17.9174 18.5995 18.2506 18.5995H19.0749Z" fill="#5F5C5C"/>
<path d="M19.0749 15.1319C19.408 15.1319 19.6781 14.8696 19.6781 14.5459V13.9908C19.6781 13.6672 19.408 13.4048 19.0749 13.4048H18.2506C17.9174 13.4048 17.6474 13.6672 17.6474 13.9908V14.5459C17.6474 14.8695 17.9174 15.1319 18.2506 15.1319H19.0749Z" fill="#5F5C5C"/>
<path d="M10.3178 7.73816C9.98467 7.73816 9.7146 8.0005 9.7146 8.3241V9.48105C9.7146 9.80464 9.98467 10.067 10.3178 10.067H18.9761C19.3092 10.067 19.5793 9.80464 19.5793 9.48105V8.3241C19.5793 8.0005 19.3092 7.73816 18.9761 7.73816H10.3178Z" stroke="#5F5C5C" stroke-width="1.5"/>
<path d="M11.1422 22.0671C11.4753 22.0671 11.7454 21.8047 11.7454 21.4811V20.926C11.7454 20.6024 11.4753 20.34 11.1422 20.34H10.3178C9.98471 20.34 9.71464 20.6024 9.71464 20.926V21.4811C9.71464 21.8047 9.98471 22.0671 10.3178 22.0671H11.1422Z" stroke="#5F5C5C" stroke-width="1.5"/>
<path d="M11.1422 18.5995C11.4753 18.5995 11.7454 18.3371 11.7454 18.0135V17.4584C11.7454 17.1348 11.4753 16.8725 11.1422 16.8725H10.3178C9.98471 16.8725 9.71464 17.1348 9.71464 17.4584V18.0135C9.71464 18.3371 9.98471 18.5995 10.3178 18.5995H11.1422Z" stroke="#5F5C5C" stroke-width="1.5"/>
<path d="M15.1086 22.0671C15.4417 22.0671 15.7117 21.8047 15.7117 21.4811V20.926C15.7117 20.6024 15.4417 20.34 15.1086 20.34H14.2842C13.951 20.34 13.681 20.6024 13.681 20.926V21.4811C13.681 21.8047 13.951 22.0671 14.2842 22.0671H15.1086Z" stroke="#5F5C5C" stroke-width="1.5"/>
<path d="M15.1086 18.5995C15.4417 18.5995 15.7117 18.3371 15.7117 18.0135V17.4584C15.7117 17.1348 15.4417 16.8725 15.1086 16.8725H14.2842C13.951 16.8725 13.681 17.1348 13.681 17.4584V18.0135C13.681 18.3371 13.951 18.5995 14.2842 18.5995H15.1086Z" stroke="#5F5C5C" stroke-width="1.5"/>
<path d="M15.1086 15.1319C15.4417 15.1319 15.7117 14.8696 15.7117 14.5459V13.9908C15.7117 13.6672 15.4417 13.4048 15.1086 13.4048H10.3178C9.98467 13.4048 9.7146 13.6672 9.7146 13.9908V14.5459C9.7146 14.8695 9.98467 15.1319 10.3178 15.1319H15.1086Z" stroke="#5F5C5C" stroke-width="1.5"/>
<path d="M19.0749 22.0671C19.408 22.0671 19.6781 21.8047 19.6781 21.4811V20.926C19.6781 20.6024 19.408 20.34 19.0749 20.34H18.2506C17.9174 20.34 17.6474 20.6024 17.6474 20.926V21.4811C17.6474 21.8047 17.9174 22.0671 18.2506 22.0671H19.0749Z" stroke="#5F5C5C" stroke-width="1.5"/>
<path d="M19.0749 18.5995C19.408 18.5995 19.6781 18.3371 19.6781 18.0135V17.4584C19.6781 17.1348 19.408 16.8725 19.0749 16.8725H18.2506C17.9174 16.8725 17.6474 17.1348 17.6474 17.4584V18.0135C17.6474 18.3371 17.9174 18.5995 18.2506 18.5995H19.0749Z" stroke="#5F5C5C" stroke-width="1.5"/>
<path d="M19.0749 15.1319C19.408 15.1319 19.6781 14.8696 19.6781 14.5459V13.9908C19.6781 13.6672 19.408 13.4048 19.0749 13.4048H18.2506C17.9174 13.4048 17.6474 13.6672 17.6474 13.9908V14.5459C17.6474 14.8695 17.9174 15.1319 18.2506 15.1319H19.0749Z" stroke="#5F5C5C" stroke-width="1.5"/>
</svg>
