<svg width="30" height="30" viewBox="0 0 30 30" fill="none" xmlns="http://www.w3.org/2000/svg">
<g clip-path="url(#clip0_5568_212492)">
<path d="M0 15C0 17.5986 0.661113 20.0428 1.82385 22.1739L15 23.4783L28.1762 22.1739C29.3389 20.0428 30 17.5986 30 15C30 12.4014 29.3389 9.9572 28.1762 7.82608L15 6.52173L1.82385 7.82608C0.661113 9.9572 0 12.4014 0 15H0Z" fill="#D80027"/>
<path d="M1.82422 7.82607H28.1765C25.6324 3.16342 20.686 0 15.0004 0C9.31473 0 4.3683 3.16342 1.82422 7.82607V7.82607Z" fill="#0052B4"/>
<path d="M15.0004 29.9999C20.686 29.9999 25.6324 26.8365 28.1765 22.1738H1.82422C4.3683 26.8365 9.31473 29.9999 15.0004 29.9999Z" fill="#0052B4"/>
<path d="M20.2176 17.9348V15.9783H18.9133V13.3696L17.6089 12.0653L16.3046 13.3696V10.7609L15.0002 9.45654L13.6959 10.7609V13.3696L12.3915 12.0653L11.0872 13.3696V15.9783H9.78287V17.9348H8.47852V19.8913H21.522V17.9348H20.2176Z" fill="#F0F0F0"/>
</g>
<rect x="0.5" y="0.5" width="29" height="29" rx="14.5" stroke="#D7D7D7"/>
<defs>
<clipPath id="clip0_5568_212492">
<rect width="30" height="30" rx="15" fill="white"/>
</clipPath>
</defs>
</svg>
