<svg width="30" height="30" viewBox="0 0 30 30" fill="none" xmlns="http://www.w3.org/2000/svg">
<g clip-path="url(#clip0_5568_212498)">
<path d="M21.5216 1.4884C19.5496 0.534844 17.3372 0 14.9999 0C12.6626 0 10.4502 0.534844 8.47818 1.4884L7.17383 15L8.47818 28.5116C10.4502 29.4652 12.6626 30 14.9999 30C17.3372 30 19.5496 29.4652 21.5216 28.5116L22.826 15L21.5216 1.4884Z" fill="#D80027"/>
<path d="M14.9995 9.78271L16.2944 13.7682H20.4855L17.095 16.2317L18.39 20.2174L14.9995 17.7541L11.6089 20.2174L12.9041 16.2317L9.51367 13.7682H13.7045L14.9995 9.78271Z" fill="#FFDA44"/>
<path d="M8.47828 1.48901C3.4609 3.91515 0 9.05317 0 15.0001C0 20.947 3.4609 26.085 8.47828 28.5112V1.48901Z" fill="#496E2D"/>
<path d="M21.5215 1.48901V28.5112C26.5389 26.085 29.9998 20.9469 29.9998 15.0001C29.9998 9.05323 26.5389 3.91515 21.5215 1.48901Z" fill="#FFDA44"/>
</g>
<rect x="0.5" y="0.5" width="29" height="29" rx="14.5" stroke="#D7D7D7"/>
<defs>
<clipPath id="clip0_5568_212498">
<rect width="30" height="30" rx="15" fill="white"/>
</clipPath>
</defs>
</svg>
