<svg width="30" height="30" viewBox="0 0 30 30" fill="none" xmlns="http://www.w3.org/2000/svg">
<g clip-path="url(#clip0_5568_212509)">
<path d="M15.0004 0C13.1656 0 11.408 0.330059 9.78307 0.932988L9.13086 15L9.78301 29.067C11.408 29.67 13.1656 30 15.0004 30C16.8352 30 18.5929 29.67 20.2178 29.067L20.87 15L20.2179 0.932988C18.5929 0.330059 16.8352 0 15.0004 0V0Z" fill="#338AF3"/>
<path d="M30.0004 15.0001C30.0004 8.55064 25.9298 3.0525 20.2178 0.933105V29.0672C25.9298 26.9477 30.0004 21.4496 30.0004 15.0001V15.0001Z" fill="#FFDA44"/>
<path d="M9.78264 29.0671V0.933105C4.07063 3.0525 0 8.55064 0 15.0001C0 21.4496 4.07063 26.9477 9.78264 29.0671Z" fill="#F0F0F0"/>
</g>
<rect x="0.5" y="0.5" width="29" height="29" rx="14.5" stroke="#D7D7D7"/>
<defs>
<clipPath id="clip0_5568_212509">
<rect width="30" height="30" rx="15" fill="white"/>
</clipPath>
</defs>
</svg>
