<svg width="30" height="30" viewBox="0 0 30 30" fill="none" xmlns="http://www.w3.org/2000/svg">
<g clip-path="url(#clip0_5568_212503)">
<path d="M15 30C23.2843 30 30 23.2843 30 15C30 6.71573 23.2843 0 15 0C6.71573 0 0 6.71573 0 15C0 23.2843 6.71573 30 15 30Z" fill="#F0F0F0"/>
<path d="M29.9998 14.9999C29.9998 9.05297 26.5389 3.91453 21.5215 1.48828V28.5114C26.5389 26.0852 29.9998 20.9468 29.9998 14.9999V14.9999Z" fill="#D80027"/>
<path d="M0 14.9999C0 20.9468 3.46084 26.0852 8.47828 28.5115V1.48828C3.46084 3.91453 0 9.05297 0 14.9999Z" fill="#D80027"/>
<path d="M17.6083 16.9563L20.217 15.6519L18.9127 14.9998V13.6954L16.3039 14.9998L17.6083 12.3911H16.3039L14.9996 10.4346L13.6952 12.3911H12.3909L13.6952 14.9998L11.0865 13.6954V14.9998L9.78223 15.6519L12.3909 16.9563L11.7387 18.2606H14.3474V20.2171H15.6517V18.2606H18.2604L17.6083 16.9563Z" fill="#D80027"/>
</g>
<rect x="0.5" y="0.5" width="29" height="29" rx="14.5" stroke="#D7D7D7"/>
<defs>
<clipPath id="clip0_5568_212503">
<rect width="30" height="30" rx="15" fill="white"/>
</clipPath>
</defs>
</svg>
