<svg width="30" height="30" viewBox="0 0 30 30" fill="none" xmlns="http://www.w3.org/2000/svg">
<g clip-path="url(#clip0_5568_212513)">
<path d="M15 30C23.2843 30 30 23.2843 30 15C30 6.71573 23.2843 0 15 0C6.71573 0 0 6.71573 0 15C0 23.2843 6.71573 30 15 30Z" fill="#F0F0F0"/>
<path d="M14.9997 30.0001C19.546 30.0001 23.6196 27.9772 26.3704 24.7827H3.62891C6.37971 27.9772 10.4533 30.0001 14.9997 30.0001Z" fill="#0052B4"/>
<path d="M30 15C30 6.71578 23.2842 0 15 0C6.71578 0 0 6.71578 0 15C0 16.3539 0.180469 17.6654 0.516738 18.9131H29.4833C29.8195 17.6654 30 16.3539 30 15Z" fill="#0052B4"/>
<path d="M1.19238 20.8696C1.48154 21.5491 1.81957 22.2025 2.20178 22.8261H27.7986C28.1807 22.2025 28.5187 21.549 28.808 20.8696H1.19238Z" fill="#D80027"/>
<path d="M10.7219 15.9783L10.9647 16.7256H11.7505L11.1148 17.1875L11.3577 17.9348L10.7219 17.4729L10.0862 17.9348L10.329 17.1875L9.69336 16.7256H10.4792L10.7219 15.9783Z" fill="#FFDA44"/>
<path d="M10.7219 25.7607L10.9647 26.5081H11.7505L11.1148 26.9699L11.3577 27.7172L10.7219 27.2554L10.0862 27.7172L10.329 26.9699L9.69336 26.5081H10.4792L10.7219 25.7607Z" fill="#FFDA44"/>
<path d="M6.1682 22.4524L6.41102 23.1996H7.19682L6.56113 23.6615L6.80395 24.4089L6.1682 23.947L5.53246 24.4089L5.77539 23.6615L5.13965 23.1996H5.92539L6.1682 22.4524Z" fill="#FFDA44"/>
<path d="M7.90752 16.9565L8.15033 17.7039H8.93607L8.30045 18.1657L8.54326 18.9131L7.90752 18.4512L7.27178 18.9131L7.51471 18.1657L6.87891 17.7039H7.66471L7.90752 16.9565Z" fill="#FFDA44"/>
<path d="M5.13965 20.034L5.92527 20.0341L6.16814 19.2866L6.41102 20.034L7.19682 20.034L6.56107 20.4959L6.80395 21.2432L6.16814 20.7813L5.53246 21.2431L5.77527 20.4958L5.13965 20.034Z" fill="#FFDA44"/>
<path d="M7.27189 26.5963L7.51471 25.8491L6.87891 25.3873H7.66471L7.90758 24.6399L8.15045 25.3872H8.93619L8.30045 25.849L8.54326 26.5965L7.90752 26.1345L7.27189 26.5963Z" fill="#FFDA44"/>
<path d="M15.2737 22.4524L15.0309 23.1996H14.2451L14.8807 23.6615L14.6379 24.4089L15.2737 23.947L15.9094 24.4089L15.6665 23.6615L16.3023 23.1996H15.5165L15.2737 22.4524Z" fill="#FFDA44"/>
<path d="M13.5344 16.9565L13.2917 17.7039H12.5059L13.1415 18.1657L12.8987 18.9131L13.5344 18.4512L14.1702 18.9131L13.9273 18.1657L14.563 17.7039H13.7772L13.5344 16.9565Z" fill="#FFDA44"/>
<path d="M16.3023 20.034L15.5166 20.0341L15.2737 19.2866L15.0309 20.034L14.2451 20.034L14.8808 20.4959L14.6379 21.2432L15.2737 20.7813L15.9094 21.2431L15.6666 20.4958L16.3023 20.034Z" fill="#FFDA44"/>
<path d="M14.1702 26.5963L13.9274 25.8491L14.5631 25.3873H13.7773L13.5345 24.6399L13.2917 25.3872H12.5059L13.1416 25.849L12.8988 26.5965L13.5345 26.1345L14.1702 26.5963Z" fill="#FFDA44"/>
</g>
<rect x="0.5" y="0.5" width="29" height="29" rx="14.5" stroke="#D7D7D7"/>
<defs>
<clipPath id="clip0_5568_212513">
<rect width="30" height="30" rx="15" fill="white"/>
</clipPath>
</defs>
</svg>
