<svg width="30" height="30" viewBox="0 0 30 30" fill="none" xmlns="http://www.w3.org/2000/svg">
<g clip-path="url(#clip0_5568_212549)">
<path d="M15 30C23.2843 30 30 23.2843 30 15C30 6.71573 23.2843 0 15 0C6.71573 0 0 6.71573 0 15C0 23.2843 6.71573 30 15 30Z" fill="#F0F0F0"/>
<path d="M28.177 7.82603C26.2387 4.27354 22.9057 1.59177 18.9139 0.515869L18.2617 7.82603H28.177Z" fill="#0052B4"/>
<path d="M1.82422 7.82603H11.7395L11.0873 0.515869C7.09549 1.59177 3.76256 4.2736 1.82422 7.82603V7.82603Z" fill="#0052B4"/>
<path d="M18.2607 15V22.1739H28.176C29.3388 20.0428 29.9999 17.5986 29.9999 15H18.2607Z" fill="#6DA544"/>
<path d="M11.7391 15H0C0 17.5986 0.661113 20.0428 1.82385 22.1739H11.7391V15H11.7391Z" fill="#6DA544"/>
<path d="M1.82422 22.1738C3.76256 25.7263 7.09549 28.4081 11.0873 29.484L11.7395 23.0909L1.82422 22.1738Z" fill="#FFDA44"/>
<path d="M18.9139 29.484C22.9057 28.4081 26.2387 25.7263 28.177 22.1738L18.2617 23.0908L18.9139 29.484Z" fill="#FFDA44"/>
<path d="M18.2617 23.0908L28.177 22.1738H18.2617V23.0908Z" fill="#FFDA44"/>
<path d="M11.7395 22.1738H1.82422L11.7395 23.0908V22.1738Z" fill="#FFDA44"/>
<path d="M15 0C13.6461 0 12.3346 0.180469 11.0869 0.516738V29.4833C12.3346 29.8195 13.6461 30 15 30C16.3539 30 17.6654 29.8195 18.913 29.4833V0.516738C17.6654 0.180469 16.3539 0 15 0V0Z" fill="#D80027"/>
<path d="M8.06871 3.26074L8.47336 4.50627H9.78311L8.72361 5.27607L9.12832 6.5216L8.06871 5.75186L7.00916 6.5216L7.41398 5.27607L6.35449 4.50627H7.66412L8.06871 3.26074Z" fill="#FFDA44"/>
</g>
<rect x="0.5" y="0.5" width="29" height="29" rx="14.5" stroke="#D7D7D7"/>
<defs>
<clipPath id="clip0_5568_212549">
<rect width="30" height="30" rx="15" fill="white"/>
</clipPath>
</defs>
</svg>
