<svg width="30" height="30" viewBox="0 0 30 30" fill="none" xmlns="http://www.w3.org/2000/svg">
<g clip-path="url(#clip0_5568_212564)">
<path d="M15 30C23.2843 30 30 23.2843 30 15C30 6.71573 23.2843 0 15 0C6.71573 0 0 6.71573 0 15C0 23.2843 6.71573 30 15 30Z" fill="#F0F0F0"/>
<path d="M15.0002 0C10.858 0 7.10803 1.67895 4.39355 4.39336L15.0002 15V0Z" fill="black"/>
<path d="M0 15C0 19.1422 1.67895 22.8922 4.39336 25.6066L15 15H0Z" fill="black"/>
<path d="M15 30C19.1422 30 22.8922 28.3211 25.6066 25.6066L15 15V30Z" fill="black"/>
<path d="M30 15C30 10.8578 28.3211 7.10778 25.6066 4.39331L15 15H30Z" fill="black"/>
<path d="M9.78223 10.4347L14.9996 11.087L20.217 10.4347V7.30428L18.13 8.34777L14.9996 5.21729L11.8692 8.34777L9.78223 7.30428V10.4347Z" fill="#FFDA44"/>
<path d="M14.9996 22.826C12.1227 22.826 9.78223 20.4855 9.78223 17.6086V12.3915L11.7387 10.4348H18.2604L20.217 12.3915V17.6086C20.217 20.4855 17.8765 22.826 14.9996 22.826Z" fill="#D80027"/>
<path d="M15.0001 20.8695C13.2021 20.8695 11.7393 19.4067 11.7393 17.6087V12.3914H18.261V17.6086C18.261 19.4067 16.7982 20.8695 15.0001 20.8695V20.8695Z" fill="#F0F0F0"/>
<path d="M9.78223 10.4348H11.7387V12.3913H9.78223V10.4348Z" fill="#FFDA44"/>
<path d="M18.2607 10.4348H20.2172V12.3913H18.2607V10.4348Z" fill="#FFDA44"/>
<path d="M18.2607 14.6738H20.2172V16.6303H18.2607V14.6738Z" fill="#FFDA44"/>
<path d="M9.78223 14.6741H11.7387V16.6306H9.78223V14.6741Z" fill="#FFDA44"/>
<path d="M14.9998 20.8696C14.659 20.8696 14.3304 20.8169 14.0215 20.7195V22.7328C14.3386 22.7933 14.6653 22.8262 14.9998 22.8262C15.3342 22.8262 15.6609 22.7933 15.978 22.7328V20.7195C15.6691 20.8168 15.3405 20.8696 14.9998 20.8696Z" fill="#FFDA44"/>
<path d="M11.7821 18.1382L10.2207 19.6996C10.4914 20.3159 10.8777 20.8702 11.3524 21.3348L12.7352 19.952C12.2417 19.4752 11.8979 18.8448 11.7821 18.1382Z" fill="#FFDA44"/>
<path d="M19.7781 19.6996L18.2167 18.1382C18.1008 18.8447 17.7571 19.4751 17.2637 19.9521L18.6465 21.3349C19.1211 20.8702 19.5074 20.3159 19.7781 19.6996Z" fill="#FFDA44"/>
<path d="M14.3486 13.4783V14.5652C14.3486 14.9253 14.6406 15.2173 15.0008 15.2173C15.361 15.2173 15.6529 14.9253 15.6529 14.5652V13.4783H14.3486Z" fill="#0052B4"/>
<path d="M14.3486 17.8262V18.9131C14.3486 19.2732 14.6406 19.5652 15.0008 19.5652C15.361 19.5652 15.6529 19.2732 15.6529 18.9131V17.8262H14.3486Z" fill="#0052B4"/>
<path d="M16.3047 15.6521V16.7391C16.3047 17.0992 16.5967 17.3913 16.9568 17.3913C17.317 17.3913 17.609 17.0992 17.609 16.7391V15.6521H16.3047Z" fill="#0052B4"/>
<path d="M14.3486 15.6521V16.7391C14.3486 17.0992 14.6406 17.3913 15.0008 17.3913C15.361 17.3913 15.6529 17.0992 15.6529 16.7391V15.6521H14.3486Z" fill="#0052B4"/>
<path d="M12.3916 15.6521V16.7391C12.3916 17.0992 12.6836 17.3913 13.0438 17.3913C13.4039 17.3913 13.6959 17.0992 13.6959 16.7391V15.6521H12.3916Z" fill="#0052B4"/>
</g>
<rect x="0.5" y="0.5" width="29" height="29" rx="14.5" stroke="#D7D7D7"/>
<defs>
<clipPath id="clip0_5568_212564">
<rect width="30" height="30" rx="15" fill="white"/>
</clipPath>
</defs>
</svg>
