<svg width="30" height="30" viewBox="0 0 30 30" fill="none" xmlns="http://www.w3.org/2000/svg">
<rect width="30" height="30" rx="2" fill="white"/>
<path d="M13.1218 23.8475C12.8607 23.6464 12.5296 23.5575 12.2019 23.6009L10.6976 23.7998C10.201 23.8653 9.721 23.5886 9.5299 23.1253L8.92884 21.672C8.81663 21.3998 8.60109 21.1843 8.32889 21.0721L6.87568 20.471C6.41238 20.2787 6.13574 19.7999 6.20129 19.3032L6.40683 17.741C6.44571 17.4499 6.36683 17.1555 6.18796 16.9222L5.22915 15.6733C4.92362 15.2767 4.92362 14.7233 5.22915 14.3256L6.18796 13.0767C6.36572 12.8445 6.4446 12.5501 6.40683 12.259L6.20129 10.6968C6.13574 10.2001 6.41238 9.72126 6.87568 9.52904L8.32889 8.92906C8.59998 8.81573 8.81552 8.60018 8.92884 8.32907L9.52879 6.87578C9.721 6.41246 10.1998 6.1358 10.6965 6.20136L12.2586 6.4069C12.5496 6.44468 12.8441 6.36579 13.0774 6.18802L14.3262 5.22916C14.7228 4.92361 15.2761 4.92361 15.6738 5.22916L16.9226 6.18802C17.1548 6.36579 17.4492 6.44468 17.7403 6.40468L19.3024 6.19913C19.799 6.13358 20.279 6.41024 20.4701 6.87356L21.0712 8.32685C21.1834 8.59907 21.3989 8.81462 21.6711 8.92684L23.1243 9.52793C23.5876 9.72015 23.8643 10.199 23.7987 10.6957L23.5932 12.2579C23.5543 12.549 23.6332 12.8434 23.812 13.0767L24.7709 14.3256C25.0764 14.7222 25.0764 15.2755 24.7709 15.6733L23.8476 16.8766C23.6465 17.1377 23.5576 17.4688 23.601 17.7966L23.7987 19.3021C23.8643 19.7988 23.5876 20.2787 23.1243 20.4698L21.6711 21.0709C21.3989 21.1832 21.1834 21.3987 21.0712 21.6709L20.4701 23.1242C20.2779 23.5875 19.799 23.8642 19.3024 23.7986L17.7403 23.5931C17.4492 23.5542 17.1548 23.6331 16.9215 23.812L15.6727 24.7708C15.2761 25.0764 14.7228 25.0764 14.3251 24.7708L13.1218 23.8475Z" fill="#5F5C5C" stroke="#5F5C5C" stroke-linecap="round" stroke-linejoin="round"/>
<path d="M11.25 15L13.75 17.5L19.375 11.875" stroke="white" stroke-width="2" stroke-linecap="round" stroke-linejoin="round"/>
</svg>
