<svg width="30" height="30" viewBox="0 0 30 30" fill="none" xmlns="http://www.w3.org/2000/svg">
<rect width="30" height="30" rx="2" fill="white"/>
<path d="M25 14.0857C25.0178 14.4446 25 15.0057 25 15.0057C24.9988 17.1621 24.3005 19.2604 23.0093 20.9875C21.7182 22.7147 19.9033 23.9782 17.8354 24.5896C15.7674 25.201 13.5573 25.1276 11.5345 24.3803C9.51168 23.633 7.78465 22.2518 6.61096 20.4428C5.43727 18.6338 4.87979 16.4938 5.02168 14.342C5.16356 12.1903 5.99721 10.1421 7.39828 8.5028C8.79935 6.86354 10.6928 5.72111 12.7962 5.24587C14.8996 4.77063 17.1003 4.98806 19.07 5.86572" fill="#5F5C5C"/>
<path d="M25 14.0857C25.0178 14.4446 25 15.0057 25 15.0057C24.9988 17.1621 24.3005 19.2604 23.0093 20.9875C21.7182 22.7147 19.9033 23.9782 17.8354 24.5896C15.7674 25.201 13.5573 25.1276 11.5345 24.3803C9.51168 23.633 7.78465 22.2518 6.61096 20.4428C5.43727 18.6338 4.87979 16.4938 5.02168 14.342C5.16356 12.1903 5.99721 10.1421 7.39828 8.5028C8.79935 6.86354 10.6928 5.72111 12.7962 5.24587C14.8996 4.77063 17.1003 4.98806 19.07 5.86572C20.1138 6.33081 21.6616 7.50106 22.9153 9.08681C24.0274 10.4935 24.9081 12.2273 25 14.0857Z" fill="#5F5C5C"/>
<path d="M25 14.0857C25.0178 14.4446 25 15.0057 25 15.0057C24.9988 17.1621 24.3005 19.2604 23.0093 20.9875C21.7182 22.7147 19.9033 23.9782 17.8354 24.5896C15.7674 25.201 13.5573 25.1276 11.5345 24.3803C9.51168 23.633 7.78465 22.2518 6.61096 20.4428C5.43727 18.6338 4.87979 16.4938 5.02168 14.342C5.16356 12.1903 5.99721 10.1421 7.39828 8.5028C8.79935 6.86354 10.6928 5.72111 12.7962 5.24587C14.8996 4.77063 17.1003 4.98806 19.07 5.86572C20.1138 6.33081 21.6616 7.50106 22.9153 9.08681C24.0274 10.4935 24.9081 12.2273 25 14.0857Z" stroke="#5F5C5C" stroke-linecap="round" stroke-linejoin="round"/>
<path d="M25 7L22.9153 9.08681L15 17.01L12 14.01" stroke="white" stroke-width="2" stroke-linecap="round" stroke-linejoin="round"/>
</svg>
