<svg width="30" height="30" viewBox="0 0 30 30" fill="none" xmlns="http://www.w3.org/2000/svg">
<rect width="30" height="30" rx="2" fill="white"/>
<path d="M11.25 15L13.75 17.5L19.375 11.875M9.16721 4.77337C10.172 4.69319 11.1259 4.29807 11.8931 3.64427C13.6834 2.11858 16.3166 2.11858 18.1069 3.64427C18.8741 4.29807 19.828 4.69319 20.8328 4.77337C23.1776 4.96048 25.0395 6.82243 25.2266 9.16721C25.3068 10.172 25.7019 11.1259 26.3557 11.8931C27.8814 13.6834 27.8814 16.3166 26.3557 18.1069C25.7019 18.8741 25.3068 19.828 25.2266 20.8328C25.0395 23.1776 23.1776 25.0395 20.8328 25.2266C19.828 25.3068 18.8741 25.7019 18.1069 26.3557C16.3166 27.8814 13.6834 27.8814 11.8931 26.3557C11.1259 25.7019 10.172 25.3068 9.16721 25.2266C6.82243 25.0395 4.96048 23.1776 4.77337 20.8328C4.69319 19.828 4.29807 18.8741 3.64427 18.1069C2.11858 16.3166 2.11858 13.6834 3.64427 11.8931C4.29807 11.1259 4.69319 10.172 4.77337 9.16721C4.96048 6.82243 6.82243 4.96048 9.16721 4.77337Z" stroke="#5F5C5C" stroke-width="1.5" stroke-linecap="round" stroke-linejoin="round"/>
</svg>
