<svg width="30" height="30" viewBox="0 0 30 30" fill="none" xmlns="http://www.w3.org/2000/svg">
<rect width="30" height="30" rx="2" fill="white"/>
<path d="M12.5145 5.91542C11.9007 6.43846 11.1376 6.75455 10.3338 6.8187C8.45794 6.96839 6.96839 8.45794 6.8187 10.3338C6.75455 11.1376 6.43846 11.9007 5.91542 12.5145C4.69486 13.9467 4.69486 16.0533 5.91542 17.4855C6.43846 18.0993 6.75455 18.8624 6.8187 19.6662C6.96839 21.5421 8.45794 23.0316 10.3338 23.1813C11.1376 23.2455 11.9007 23.5615 12.5145 24.0846C13.9467 25.3051 16.0533 25.3051 17.4855 24.0846C18.0993 23.5615 18.8624 23.2455 19.6662 23.1813C21.5421 23.0316 23.0316 21.5421 23.1813 19.6662C23.2455 18.8624 23.5615 18.0993 24.0846 17.4855C25.3051 16.0533 25.3051 13.9467 24.0846 12.5145C23.5615 11.9007 23.2455 11.1376 23.1813 10.3338C23.0316 8.45794 21.5421 6.96839 19.6662 6.8187C18.8624 6.75455 18.0993 6.43846 17.4855 5.91542C16.0533 4.69486 13.9467 4.69486 12.5145 5.91542Z" fill="#5F5C5C" stroke="#5F5C5C" stroke-linecap="round" stroke-linejoin="round"/>
<path d="M11.25 15L13.75 17.5L19.375 11.875" stroke="white" stroke-width="2" stroke-linecap="round" stroke-linejoin="round"/>
</svg>
