<svg width="30" height="30" viewBox="0 0 30 30" fill="none" xmlns="http://www.w3.org/2000/svg">
<rect width="30" height="30" rx="2" fill="white"/>
<path d="M11.25 15L13.75 17.5L19.375 11.875M11.5024 25.7511C11.9121 25.6969 12.3259 25.808 12.6523 26.0594L14.1563 27.2136C14.6535 27.5955 15.3451 27.5955 15.8409 27.2136L17.4019 26.015C17.6935 25.7914 18.0616 25.6928 18.4254 25.7414L20.378 25.9983C20.9988 26.0802 21.5974 25.7344 21.8376 25.1553L22.589 23.3387C22.7292 22.9984 22.9986 22.729 23.3389 22.5887L25.1554 21.8373C25.7345 21.5984 26.0803 20.9984 25.9984 20.3776L25.7512 18.4957C25.697 18.086 25.8081 17.6721 26.0595 17.3458L27.2136 15.8416C27.5955 15.3444 27.5955 14.6528 27.2136 14.157L26.0151 12.5959C25.7915 12.3042 25.6929 11.9362 25.7415 11.5723L25.9984 9.61959C26.0803 8.99878 25.7345 8.40018 25.1554 8.15991L23.3389 7.40854C22.9986 7.26827 22.7292 6.99883 22.589 6.65856L21.8376 4.84195C21.5988 4.2628 20.9988 3.91697 20.378 3.99892L18.4254 4.25585C18.0616 4.30585 17.6935 4.20724 17.4033 3.98503L15.8423 2.78645C15.3451 2.40452 14.6535 2.40452 14.1577 2.78645L12.5967 3.98503C12.3051 4.20724 11.9371 4.30585 11.5732 4.25863L9.62059 4.00169C8.99981 3.91975 8.40124 4.26558 8.16099 4.84473L7.41105 6.66134C7.26939 7.00022 6.99997 7.26966 6.66111 7.41132L4.8446 8.1613C4.26548 8.40157 3.91967 9.00017 4.00161 9.62098L4.25853 11.5737C4.30575 11.9376 4.20715 12.3056 3.98495 12.5959L2.78643 14.157C2.40452 14.6542 2.40452 15.3458 2.78643 15.8416L3.98495 17.4027C4.20854 17.6944 4.30714 18.0624 4.25853 18.4263L4.00161 20.379C3.91967 20.9998 4.26548 21.5984 4.8446 21.8387L6.66111 22.5901C7.00136 22.7303 7.27078 22.9998 7.41105 23.34L8.16238 25.1567C8.40124 25.7358 9.00119 26.0816 9.62198 25.9997L11.5024 25.7511Z" stroke="#5F5C5C" stroke-width="1.5" stroke-linecap="round" stroke-linejoin="round"/>
</svg>
