<svg width="30" height="30" viewBox="0 0 30 30" fill="none" xmlns="http://www.w3.org/2000/svg">
<rect width="30" height="30" rx="2" fill="white"/>
<path d="M20 10V6.5C20 5.09987 20 4.3998 19.7275 3.86502C19.4878 3.39462 19.1054 3.01217 18.635 2.77248C18.1002 2.5 17.4001 2.5 16 2.5H6.5C5.09987 2.5 4.3998 2.5 3.86502 2.77248C3.39462 3.01217 3.01217 3.39462 2.77248 3.86502C2.5 4.3998 2.5 5.09987 2.5 6.5V16C2.5 17.4001 2.5 18.1002 2.77248 18.635C3.01217 19.1054 3.39462 19.4878 3.86502 19.7275C4.3998 20 5.09987 20 6.5 20H10M15 18.75L17.5 21.25L23.125 15.625M14 27.5H23.5C24.9001 27.5 25.6002 27.5 26.135 27.2275C26.6054 26.9878 26.9878 26.6054 27.2275 26.135C27.5 25.6002 27.5 24.9001 27.5 23.5V14C27.5 12.5999 27.5 11.8998 27.2275 11.365C26.9878 10.8946 26.6054 10.5122 26.135 10.2725C25.6002 10 24.9001 10 23.5 10H14C12.5999 10 11.8998 10 11.365 10.2725C10.8946 10.5122 10.5122 10.8946 10.2725 11.365C10 11.8998 10 12.5999 10 14V23.5C10 24.9001 10 25.6002 10.2725 26.135C10.5122 26.6054 10.8946 26.9878 11.365 27.2275C11.8998 27.5 12.5999 27.5 14 27.5Z" stroke="#5F5C5C" stroke-width="1.5" stroke-linecap="round" stroke-linejoin="round"/>
</svg>
