<svg width="30" height="30" viewBox="0 0 30 30" fill="none" xmlns="http://www.w3.org/2000/svg">
<rect width="30" height="30" rx="2" fill="white"/>
<path d="M9 18L11 20L15.5 15.5M11 11V8.2C11 7.0799 11 6.51984 11.218 6.09202C11.4097 5.71569 11.7157 5.40973 12.092 5.21799C12.5198 5 13.0799 5 14.2 5H21.8C22.9201 5 23.4802 5 23.908 5.21799C24.2843 5.40973 24.5903 5.71569 24.782 6.09202C25 6.51984 25 7.0799 25 8.2V15.8C25 16.9201 25 17.4802 24.782 17.908C24.5903 18.2843 24.2843 18.5903 23.908 18.782C23.4802 19 22.9201 19 21.8 19H19M8.2 25H15.8C16.9201 25 17.4802 25 17.908 24.782C18.2843 24.5903 18.5903 24.2843 18.782 23.908C19 23.4802 19 22.9201 19 21.8V14.2C19 13.0799 19 12.5198 18.782 12.092C18.5903 11.7157 18.2843 11.4097 17.908 11.218C17.4802 11 16.9201 11 15.8 11H8.2C7.0799 11 6.51984 11 6.09202 11.218C5.71569 11.4097 5.40973 11.7157 5.21799 12.092C5 12.5198 5 13.0799 5 14.2V21.8C5 22.9201 5 23.4802 5.21799 23.908C5.40973 24.2843 5.71569 24.5903 6.09202 24.782C6.51984 25 7.07989 25 8.2 25Z" stroke="#5F5C5C" stroke-width="1.5" stroke-linecap="round" stroke-linejoin="round"/>
</svg>
