<svg width="30" height="30" viewBox="0 0 30 30" fill="none" xmlns="http://www.w3.org/2000/svg">
<g clip-path="url(#clip0_5568_212591)">
<path d="M15 30C23.2843 30 30 23.2843 30 15C30 6.71573 23.2843 0 15 0C6.71573 0 0 6.71573 0 15C0 23.2843 6.71573 30 15 30Z" fill="#F0F0F0"/>
<path d="M30 15C30 23.2842 23.2842 30 15 30C6.71578 30 0 23.2842 0 15C0 6.71577 15 15 15 15C15 15 26.3532 15 30 15Z" fill="#D80027"/>
<path d="M0 15C0 6.71578 6.71578 0 15 0V15C15 15 5.21736 15 0 15Z" fill="#0052B4"/>
<path d="M8.92891 5.21729L9.90022 8.20662H13.0434L10.5005 10.0541L11.4718 13.0434L8.92891 11.1959L6.38605 13.0434L7.3573 10.0541L4.81445 8.20662H7.9576L8.92891 5.21729Z" fill="#F0F0F0"/>
</g>
<rect x="0.5" y="0.5" width="29" height="29" rx="14.5" stroke="#D7D7D7"/>
<defs>
<clipPath id="clip0_5568_212591">
<rect width="30" height="30" rx="15" fill="white"/>
</clipPath>
</defs>
</svg>
