<svg width="30" height="30" viewBox="0 0 30 30" fill="none" xmlns="http://www.w3.org/2000/svg">
<g clip-path="url(#clip0_5568_212604)">
<path d="M15 30C23.2843 30 30 23.2843 30 15C30 6.71573 23.2843 0 15 0C6.71573 0 0 6.71573 0 15C0 23.2843 6.71573 30 15 30Z" fill="#6DA544"/>
<path d="M23.0268 21.5217L23.4384 22.3824L24.368 22.1676L23.9517 23.0261L24.6992 23.6188L23.7685 23.8286L23.7711 24.7826L23.0268 24.1858L22.2826 24.7826L22.2851 23.8286L21.3545 23.6188L22.102 23.0261L21.6857 22.1676L22.6152 22.3824L23.0268 21.5217Z" fill="#FFDA44"/>
<path d="M19.1977 12.3911L19.6094 13.2518L20.5389 13.0369L20.1226 13.8954L20.8701 14.4882L19.9395 14.6979L19.942 15.652L19.1977 15.0551L18.4535 15.652L18.456 14.6979L17.5254 14.4882L18.2729 13.8954L17.8566 13.0369L18.7862 13.2518L19.1977 12.3911Z" fill="#FFDA44"/>
<path d="M23.0268 7.17383L23.4384 8.03451L24.3679 7.81959L23.9517 8.67811L24.6991 9.2709L23.7684 9.48061L23.771 10.4347L23.0268 9.83779L22.2825 10.4347L22.2851 9.48061L21.3545 9.2709L22.1019 8.67811L21.6857 7.81959L22.6151 8.03451L23.0268 7.17383Z" fill="#FFDA44"/>
<path d="M26.3715 11.0869L26.7832 11.9476L27.7128 11.7327L27.2964 12.5913L28.0439 13.184L27.1133 13.3938L27.1159 14.3478L26.3715 13.7509L25.6273 14.3478L25.6298 13.3938L24.6992 13.184L25.4467 12.5913L25.0304 11.7327L25.9599 11.9476L26.3715 11.0869Z" fill="#FFDA44"/>
<path d="M23.9798 15.6521L24.3037 16.6486H25.3514L24.5037 17.2644L24.8276 18.2608L23.9798 17.645L23.1323 18.2608L23.456 17.2644L22.6084 16.6486H23.6561L23.9798 15.6521Z" fill="#FFDA44"/>
<path d="M16.6311 19.239C14.2898 19.239 12.3919 17.3411 12.3919 14.9999C12.3919 12.6587 14.2898 10.7608 16.6311 10.7608C17.361 10.7608 18.0479 10.9454 18.6476 11.2703C17.7068 10.3502 16.4204 9.78247 15.0005 9.78247C12.1191 9.78247 9.7832 12.1184 9.7832 14.9998C9.7832 17.8813 12.1191 20.2172 15.0005 20.2172C16.4204 20.2172 17.7068 19.6494 18.6475 18.7294C18.0479 19.0544 17.361 19.239 16.6311 19.239V19.239Z" fill="#FFDA44"/>
<path d="M9.43273 5.86954C8.98156 5.09001 8.13928 4.56519 7.17389 4.56519C6.2085 4.56519 5.36621 5.09001 4.91504 5.86954H9.43273Z" fill="#FFDA44"/>
<path d="M9.4416 5.88452L7.17408 8.15204L4.90656 5.88452C4.68982 6.26485 4.56543 6.70472 4.56543 7.17382C4.56543 8.61458 5.73338 9.78253 7.17414 9.78253C8.6149 9.78253 9.78285 8.61464 9.78285 7.17382C9.78279 6.70472 9.65834 6.26485 9.4416 5.88452V5.88452Z" fill="#FFDA44"/>
<path d="M6.52148 7.5V9.70043C6.7299 9.75404 6.94846 9.78258 7.17363 9.78258C7.39881 9.78258 7.61736 9.75398 7.82578 9.70043V7.5H6.52148Z" fill="#A2001D"/>
</g>
<rect x="0.5" y="0.5" width="29" height="29" rx="14.5" stroke="#D7D7D7"/>
<defs>
<clipPath id="clip0_5568_212604">
<rect width="30" height="30" rx="15" fill="white"/>
</clipPath>
</defs>
</svg>
