<svg width="30" height="30" viewBox="0 0 30 30" fill="none" xmlns="http://www.w3.org/2000/svg">
<path d="M16.5295 11.3519C15.9571 11.7599 15.2566 12 14.5 12C12.567 12 11 10.433 11 8.5C11 6.567 12.567 5 14.5 5C15.753 5 16.8522 5.65842 17.4705 6.64814M9 23.0872H11.6103C11.9506 23.0872 12.2889 23.1277 12.6188 23.2086L15.3769 23.8789C15.9753 24.0247 16.5988 24.0388 17.2035 23.9214L20.253 23.3281C21.0585 23.1712 21.7996 22.7854 22.3803 22.2205L24.5379 20.1217C25.154 19.5234 25.154 18.5524 24.5379 17.9531C23.9832 17.4134 23.1047 17.3527 22.4771 17.8103L19.9626 19.6449C19.6025 19.9081 19.1643 20.0498 18.7137 20.0498H16.2855L17.8311 20.0498C18.7022 20.0498 19.4079 19.3633 19.4079 18.5159V18.2091C19.4079 17.5055 18.9156 16.892 18.2141 16.7219L15.8286 16.1417C15.4404 16.0476 15.0428 16 14.6431 16C13.6783 16 11.9319 16.7988 11.9319 16.7988L9 18.0249M23 9.5C23 11.433 21.433 13 19.5 13C17.567 13 16 11.433 16 9.5C16 7.567 17.567 6 19.5 6C21.433 6 23 7.567 23 9.5ZM5 17.6L5 23.4C5 23.9601 5 24.2401 5.10899 24.454C5.20487 24.6422 5.35785 24.7951 5.54601 24.891C5.75992 25 6.03995 25 6.6 25H7.4C7.96005 25 8.24008 25 8.45399 24.891C8.64215 24.7951 8.79513 24.6422 8.89101 24.454C9 24.2401 9 23.9601 9 23.4V17.6C9 17.0399 9 16.7599 8.89101 16.546C8.79513 16.3578 8.64215 16.2049 8.45399 16.109C8.24008 16 7.96005 16 7.4 16L6.6 16C6.03995 16 5.75992 16 5.54601 16.109C5.35785 16.2049 5.20487 16.3578 5.10899 16.546C5 16.7599 5 17.0399 5 17.6Z" stroke="#5F5C5C" stroke-width="1.5" stroke-linecap="round" stroke-linejoin="round"/>
</svg>
