<svg width="30" height="30" viewBox="0 0 30 30" fill="none" xmlns="http://www.w3.org/2000/svg">
<path d="M16 8C16 9.10457 13.5376 10 10.5 10C7.46243 10 5 9.10457 5 8M16 8C16 6.89543 13.5376 6 10.5 6C7.46243 6 5 6.89543 5 8M16 8V9.5M5 8V20C5 21.1046 7.46243 22 10.5 22M10.5 14C10.3315 14 10.1647 13.9972 10 13.9918C7.19675 13.9 5 13.0433 5 12M10.5 18C7.46243 18 5 17.1046 5 16M25 14.5C25 15.6046 22.5376 16.5 19.5 16.5C16.4624 16.5 14 15.6046 14 14.5M25 14.5C25 13.3954 22.5376 12.5 19.5 12.5C16.4624 12.5 14 13.3954 14 14.5M25 14.5V22C25 23.1046 22.5376 24 19.5 24C16.4624 24 14 23.1046 14 22V14.5M25 18.25C25 19.3546 22.5376 20.25 19.5 20.25C16.4624 20.25 14 19.3546 14 18.25" stroke="#5F5C5C" stroke-width="1.5" stroke-linecap="round" stroke-linejoin="round"/>
</svg>
