<svg width="30" height="30" viewBox="0 0 30 30" fill="none" xmlns="http://www.w3.org/2000/svg">
<path d="M23 8C23 9.65685 19.4183 11 15 11C10.5817 11 7 9.65685 7 8M23 8C23 6.34315 19.4183 5 15 5C10.5817 5 7 6.34315 7 8M23 8V22C23 23.6569 19.4183 25 15 25C10.5817 25 7 23.6569 7 22V8M23 12.6666C23 14.3235 19.4183 15.6666 15 15.6666C10.5817 15.6666 7 14.3235 7 12.6666M23 17.33C23 18.9869 19.4183 20.33 15 20.33C10.5817 20.33 7 18.9869 7 17.33" stroke="#5F5C5C" stroke-width="1.5" stroke-linecap="round" stroke-linejoin="round"/>
</svg>
