<svg width="30" height="30" viewBox="0 0 30 30" fill="none" xmlns="http://www.w3.org/2000/svg">
<path d="M15 20C15 22.7614 17.2386 25 20 25C22.7614 25 25 22.7614 25 20C25 17.2386 22.7614 15 20 15C17.2386 15 15 17.2386 15 20ZM15 20C15 18.8742 15.3721 17.8353 16 16.9995V8M15 20C15 20.8254 15.2 21.604 15.5541 22.2901C14.7117 23.0018 12.7658 23.5 10.5 23.5C7.46243 23.5 5 22.6046 5 21.5V8M16 8C16 9.10457 13.5376 10 10.5 10C7.46243 10 5 9.10457 5 8M16 8C16 6.89543 13.5376 6 10.5 6C7.46243 6 5 6.89543 5 8M5 17C5 18.1046 7.46243 19 10.5 19C12.689 19 14.5793 18.535 15.4646 17.8618M16 12.5C16 13.6046 13.5376 14.5 10.5 14.5C7.46243 14.5 5 13.6046 5 12.5" stroke="#5F5C5C" stroke-width="1.5" stroke-linecap="round" stroke-linejoin="round"/>
</svg>
