<svg width="30" height="30" viewBox="0 0 30 30" fill="none" xmlns="http://www.w3.org/2000/svg">
<path d="M9 9L11 7M11 7L9 5M11 7H9C6.79086 7 5 8.79086 5 11M21 21L19 23M19 23L21 25M19 23H21C23.2091 23 25 21.2091 25 19M13.189 9.5C13.8551 6.91216 16.2042 5 19 5C22.3137 5 25 7.68629 25 11C25 13.7957 23.0879 16.1449 20.5001 16.811M17 19C17 22.3137 14.3137 25 11 25C7.68629 25 5 22.3137 5 19C5 15.6863 7.68629 13 11 13C14.3137 13 17 15.6863 17 19Z" stroke="#5F5C5C" stroke-width="1.5" stroke-linecap="round" stroke-linejoin="round"/>
</svg>
