<svg width="30" height="30" viewBox="0 0 30 30" fill="none" xmlns="http://www.w3.org/2000/svg">
<path d="M16 8C16 9.10457 13.5376 10 10.5 10C7.46243 10 5 9.10457 5 8M16 8C16 6.89543 13.5376 6 10.5 6C7.46243 6 5 6.89543 5 8M16 8V12.4571C14.7785 12.824 14 13.3789 14 14M5 8V20C5 21.1046 7.46243 22 10.5 22C11.8296 22 13.0491 21.8284 14 21.5429V14M5 12C5 13.1046 7.46243 14 10.5 14C11.8296 14 13.0491 13.8284 14 13.5429M5 16C5 17.1046 7.46243 18 10.5 18C11.8296 18 13.0491 17.8284 14 17.5429M25 14C25 15.1046 22.5376 16 19.5 16C16.4624 16 14 15.1046 14 14M25 14C25 12.8954 22.5376 12 19.5 12C16.4624 12 14 12.8954 14 14M25 14V22C25 23.1046 22.5376 24 19.5 24C16.4624 24 14 23.1046 14 22V14M25 18C25 19.1046 22.5376 20 19.5 20C16.4624 20 14 19.1046 14 18" stroke="#5F5C5C" stroke-width="1.5" stroke-linecap="round" stroke-linejoin="round"/>
</svg>
