<svg width="30" height="30" viewBox="0 0 30 30" fill="none" xmlns="http://www.w3.org/2000/svg">
<g clip-path="url(#clip0_5568_212616)">
<path d="M0 15C0 6.71578 6.71578 0 15 0C23.2842 0 30 6.71578 30 15L15 16.3044L0 15Z" fill="#FFDA44"/>
<path d="M2.00684 22.5C4.60049 26.9834 9.4476 30 14.9996 30C20.5517 30 25.3988 26.9834 27.9925 22.5L14.9996 21.5217L2.00684 22.5Z" fill="#D80027"/>
<path d="M27.9928 22.5C29.2691 20.2937 30 17.7323 30 15H0C0 17.7323 0.730898 20.2937 2.00719 22.5H27.9928Z" fill="#0052B4"/>
</g>
<rect x="0.5" y="0.5" width="29" height="29" rx="14.5" stroke="#D7D7D7"/>
<defs>
<clipPath id="clip0_5568_212616">
<rect width="30" height="30" rx="15" fill="white"/>
</clipPath>
</defs>
</svg>
