<svg width="30" height="30" viewBox="0 0 30 30" fill="none" xmlns="http://www.w3.org/2000/svg">
<g clip-path="url(#clip0_5568_212620)">
<path d="M15 30C23.2843 30 30 23.2843 30 15C30 6.71573 23.2843 0 15 0C6.71573 0 0 6.71573 0 15C0 23.2843 6.71573 30 15 30Z" fill="#F0F0F0"/>
<path d="M29.9997 14.9565H13.7394C10.511 18.1849 8.55879 20.6773 6.56543 22.6707L15.0437 23.4348L28.2 22.1304C29.3481 20.0096 30.0002 17.581 30.0002 15C30.0002 14.9854 29.9997 14.9711 29.9997 14.9565V14.9565Z" fill="#D80027"/>
<path d="M6.56541 7.78266H28.1521C25.601 3.14391 20.668 0 15.0002 0C10.869 0 7.12861 1.67057 4.41602 4.3725L6.56541 7.78266Z" fill="#FFDA44"/>
<path d="M7.21732 22.1304C5.86885 23.4788 5.34771 24.6087 4.37207 25.5842C7.08818 28.3116 10.8467 29.9999 14.9999 29.9999C20.7032 29.9999 25.6628 26.8168 28.1997 22.1304H7.21732Z" fill="#0052B4"/>
<path d="M4.39339 4.34985C-1.46446 10.2077 -1.46446 19.7052 4.39339 25.5631C6.81407 23.1424 9.14218 20.8143 15 14.9565L4.39339 4.34985Z" fill="#6DA544"/>
<path d="M3.95656 14.9566C3.95656 12.7711 5.49248 10.9454 7.5435 10.4975C7.22826 10.4287 6.90119 10.3914 6.56521 10.3914C4.04387 10.3914 2 12.4352 2 14.9566C2 17.4779 4.04387 19.5218 6.56521 19.5218C6.90113 19.5218 7.2282 19.4845 7.5435 19.4156C5.49248 18.9677 3.95656 17.142 3.95656 14.9566V14.9566Z" fill="#F0F0F0"/>
<path d="M7.49346 11.0435L7.73633 11.7908H8.52207L7.88633 12.2527L8.1292 13L7.49346 12.5381L6.85771 13L7.10059 12.2527L6.46484 11.7908H7.25059L7.49346 11.0435Z" fill="#F0F0F0"/>
<path d="M7.49346 13L7.73633 13.7474H8.52207L7.88633 14.2092L8.1292 14.9566L7.49346 14.4947L6.85771 14.9566L7.10059 14.2092L6.46484 13.7474H7.25059L7.49346 13Z" fill="#F0F0F0"/>
<path d="M7.49346 14.9565L7.73633 15.7038H8.52207L7.88633 16.1657L8.1292 16.913L7.49346 16.4512L6.85771 16.913L7.10059 16.1657L6.46484 15.7038H7.25059L7.49346 14.9565Z" fill="#F0F0F0"/>
<path d="M7.49346 16.9131L7.73633 17.6604H8.52207L7.88633 18.1223L8.1292 18.8696L7.49346 18.4078L6.85771 18.8696L7.10059 18.1223L6.46484 17.6604H7.25059L7.49346 16.9131Z" fill="#F0F0F0"/>
</g>
<rect x="0.5" y="0.5" width="29" height="29" rx="14.5" stroke="#D7D7D7"/>
<defs>
<clipPath id="clip0_5568_212620">
<rect width="30" height="30" rx="15" fill="white"/>
</clipPath>
</defs>
</svg>
