<svg width="30" height="30" viewBox="0 0 30 30" fill="none" xmlns="http://www.w3.org/2000/svg">
<g clip-path="url(#clip0_5568_212632)">
<path d="M30 15C30 23.2842 23.2842 30 15 30C6.71578 30 0 23.2842 0 15C0 15.0036 15 0.00164063 15 0C23.2842 0 30 6.71578 30 15Z" fill="#0052B4"/>
<path d="M14.96 15.0001H15.0001C15.0001 14.9866 15.0001 14.9735 15.0001 14.96C14.9867 14.9734 14.9734 14.9867 14.96 15.0001Z" fill="#F0F0F0"/>
<path d="M15 7.82607C15 5.18672 15 3.45732 15 0H14.9975C6.71432 0.00140625 0 6.71654 0 15H7.82607V10.5931L12.233 15H14.9599C14.9733 14.9866 14.9866 14.9733 15.0001 14.9599C15.0001 13.9493 15.0001 13.0476 15.0001 12.2331L10.593 7.82607H15Z" fill="#F0F0F0"/>
<path d="M7.58832 1.95654C5.24229 3.29242 3.29188 5.24277 1.95605 7.58881V15H5.86912V5.86973V5.86961H14.9996C14.9996 4.63545 14.9996 3.45971 14.9996 1.95654H7.58832Z" fill="#D80027"/>
<path d="M14.9991 13.1554L9.66973 7.82617H7.8252V7.82629L14.999 15H14.9991C14.9991 15 14.9991 13.7281 14.9991 13.1554V13.1554Z" fill="#D80027"/>
<path d="M20.2174 15L20.4951 15.8541H21.393L20.6666 16.3819L20.9441 17.236L20.2174 16.7081L19.4909 17.236L19.7684 16.3819L19.042 15.8541H19.9399L20.2174 15Z" fill="#F0F0F0"/>
<path d="M16.5281 16.5281L17.3282 16.9358L17.9633 16.3008L17.8228 17.1878L18.6229 17.5955L17.7359 17.7359L17.5955 18.623L17.1877 17.8228L16.3008 17.9633L16.9359 17.3283L16.5281 16.5281Z" fill="#F0F0F0"/>
<path d="M15 20.2174L15.8541 19.9399L15.8542 19.042L16.3819 19.7684L17.236 19.4908L16.7081 20.2174L17.236 20.944L16.3819 20.6665L15.8542 21.3929V20.495L15 20.2174Z" fill="#F0F0F0"/>
<path d="M16.5281 23.9066L16.9358 23.1064L16.3008 22.4715L17.1878 22.6119L17.5955 21.8118L17.7359 22.6988L18.6229 22.8392L17.8228 23.2469L17.9633 24.134L17.3282 23.4988L16.5281 23.9066Z" fill="#F0F0F0"/>
<path d="M20.2175 25.4347L19.94 24.5806H19.042L19.7685 24.0528L19.491 23.1987L20.2175 23.7265L20.9441 23.1987L20.6666 24.0528L21.3931 24.5806H20.4951L20.2175 25.4347Z" fill="#F0F0F0"/>
<path d="M23.9063 23.9066L23.1062 23.499L22.4712 24.134L22.6117 23.2469L21.8115 22.8393L22.6985 22.6988L22.839 21.8118L23.2467 22.6119L24.1337 22.4715L23.4986 23.1065L23.9063 23.9066Z" fill="#F0F0F0"/>
<path d="M25.4352 20.2174L24.5811 20.495V21.3929L24.0533 20.6664L23.1992 20.944L23.7271 20.2174L23.1992 19.4908L24.0533 19.7684L24.5811 19.042V19.9399L25.4352 20.2174Z" fill="#F0F0F0"/>
<path d="M23.9063 16.5281L23.4987 17.3282L24.1337 17.9632L23.2467 17.8227L22.839 18.6229L22.6985 17.7358L21.8115 17.5954L22.6117 17.1877L22.4712 16.3008L23.1062 16.9357L23.9063 16.5281Z" fill="#F0F0F0"/>
</g>
<rect x="0.5" y="0.5" width="29" height="29" rx="14.5" stroke="#D7D7D7"/>
<defs>
<clipPath id="clip0_5568_212632">
<rect width="30" height="30" rx="15" fill="white"/>
</clipPath>
</defs>
</svg>
