<svg width="30" height="30" viewBox="0 0 30 30" fill="none" xmlns="http://www.w3.org/2000/svg">
<rect width="30" height="30" rx="2" fill="white"/>
<path d="M10 10V6.5C10 5.09987 10 4.3998 10.2725 3.86502C10.5122 3.39462 10.8946 3.01217 11.365 2.77248C11.8998 2.5 12.5999 2.5 14 2.5H23.5C24.9001 2.5 25.6002 2.5 26.135 2.77248C26.6054 3.01217 26.9878 3.39462 27.2275 3.86502C27.5 4.3998 27.5 5.09987 27.5 6.5V16C27.5 17.4001 27.5 18.1002 27.2275 18.635C26.9878 19.1054 26.6054 19.4878 26.135 19.7275C25.6002 20 24.9001 20 23.5 20H20M6.5 27.5H16C17.4001 27.5 18.1002 27.5 18.635 27.2275C19.1054 26.9878 19.4878 26.6054 19.7275 26.135C20 25.6002 20 24.9001 20 23.5V14C20 12.5999 20 11.8998 19.7275 11.365C19.4878 10.8946 19.1054 10.5122 18.635 10.2725C18.1002 10 17.4001 10 16 10H6.5C5.09987 10 4.3998 10 3.86502 10.2725C3.39462 10.5122 3.01217 10.8946 2.77248 11.365C2.5 11.8998 2.5 12.5999 2.5 14V23.5C2.5 24.9001 2.5 25.6002 2.77248 26.135C3.01217 26.6054 3.39462 26.9878 3.86502 27.2275C4.3998 27.5 5.09987 27.5 6.5 27.5Z" stroke="#5F5C5C" stroke-width="1.5" stroke-linecap="round" stroke-linejoin="round"/>
</svg>
