<svg width="30" height="30" viewBox="0 0 30 30" fill="none" xmlns="http://www.w3.org/2000/svg">
<rect width="30" height="30" rx="2" fill="white"/>
<path d="M6.25 18.75C5.08515 18.75 4.50272 18.75 4.04329 18.5597C3.43072 18.306 2.94404 17.8193 2.6903 17.2067C2.5 16.7473 2.5 16.1649 2.5 15V6.5C2.5 5.09987 2.5 4.3998 2.77248 3.86502C3.01217 3.39462 3.39462 3.01217 3.86502 2.77248C4.3998 2.5 5.09987 2.5 6.5 2.5H15C16.1649 2.5 16.7473 2.5 17.2067 2.6903C17.8193 2.94404 18.306 3.43072 18.5597 4.04329C18.75 4.50272 18.75 5.08515 18.75 6.25M15.25 27.5H23.5C24.9001 27.5 25.6002 27.5 26.135 27.2275C26.6054 26.9878 26.9878 26.6054 27.2275 26.135C27.5 25.6002 27.5 24.9001 27.5 23.5V15.25C27.5 13.8499 27.5 13.1498 27.2275 12.615C26.9878 12.1446 26.6054 11.7622 26.135 11.5225C25.6002 11.25 24.9001 11.25 23.5 11.25H15.25C13.8499 11.25 13.1498 11.25 12.615 11.5225C12.1446 11.7622 11.7622 12.1446 11.5225 12.615C11.25 13.1498 11.25 13.8499 11.25 15.25V23.5C11.25 24.9001 11.25 25.6002 11.5225 26.135C11.7622 26.6054 12.1446 26.9878 12.615 27.2275C13.1498 27.5 13.8499 27.5 15.25 27.5Z" stroke="#5F5C5C" stroke-width="1.5" stroke-linecap="round" stroke-linejoin="round"/>
</svg>
