<svg width="30" height="30" viewBox="0 0 30 30" fill="none" xmlns="http://www.w3.org/2000/svg">
<rect width="30" height="30" rx="2" fill="white"/>
<path d="M9.375 3.75H18.25C21.0503 3.75 22.4504 3.75 23.52 4.29497C24.4608 4.77433 25.2257 5.53924 25.705 6.48005C26.25 7.54961 26.25 8.94974 26.25 11.75V20.625M7.75 26.25H17.875C19.2751 26.25 19.9752 26.25 20.51 25.9775C20.9804 25.7378 21.3628 25.3554 21.6025 24.885C21.875 24.3502 21.875 23.6501 21.875 22.25V12.125C21.875 10.7249 21.875 10.0248 21.6025 9.49002C21.3628 9.01962 20.9804 8.63717 20.51 8.39748C19.9752 8.125 19.2751 8.125 17.875 8.125H7.75C6.34987 8.125 5.6498 8.125 5.11502 8.39748C4.64462 8.63717 4.26217 9.01962 4.02248 9.49002C3.75 10.0248 3.75 10.7249 3.75 12.125V22.25C3.75 23.6501 3.75 24.3502 4.02248 24.885C4.26217 25.3554 4.64462 25.7378 5.11502 25.9775C5.6498 26.25 6.34987 26.25 7.75 26.25Z" stroke="#5F5C5C" stroke-width="1.5" stroke-linecap="round" stroke-linejoin="round"/>
</svg>
