<svg width="30" height="30" viewBox="0 0 30 30" fill="none" xmlns="http://www.w3.org/2000/svg">
<rect width="30" height="30" rx="2" fill="white"/>
<path d="M5 12.4444C5 11.1999 5 10.5776 5.24221 10.1022C5.45526 9.68411 5.79522 9.34415 6.21335 9.1311C6.68871 8.88889 7.31099 8.88889 8.55556 8.88889H17.5556C18.8001 8.88889 19.4224 8.88889 19.8978 9.1311C20.3159 9.34415 20.6559 9.68411 20.8689 10.1022C21.1111 10.5776 21.1111 11.1999 21.1111 12.4444V21.4444C21.1111 22.689 21.1111 23.3113 20.8689 23.7866C20.6559 24.2048 20.3159 24.5447 19.8978 24.7578C19.4224 25 18.8001 25 17.5556 25H8.55556C7.31099 25 6.68871 25 6.21335 24.7578C5.79522 24.5447 5.45526 24.2048 5.24221 23.7866C5 23.3113 5 22.689 5 21.4444V12.4444Z" fill="#5F5C5C"/>
<path d="M10 5H17.8889C20.378 5 21.6226 5 22.5733 5.48442C23.4096 5.91052 24.0895 6.59043 24.5156 7.42671C25 8.37743 25 9.62199 25 12.1111V20M8.55556 25H17.5556C18.8001 25 19.4224 25 19.8978 24.7578C20.3159 24.5447 20.6559 24.2048 20.8689 23.7866C21.1111 23.3113 21.1111 22.689 21.1111 21.4444V12.4444C21.1111 11.1999 21.1111 10.5776 20.8689 10.1022C20.6559 9.68411 20.3159 9.34415 19.8978 9.1311C19.4224 8.88889 18.8001 8.88889 17.5556 8.88889H8.55556C7.31099 8.88889 6.68871 8.88889 6.21335 9.1311C5.79522 9.34415 5.45526 9.68411 5.24221 10.1022C5 10.5776 5 11.1999 5 12.4444V21.4444C5 22.689 5 23.3113 5.24221 23.7866C5.45526 24.2048 5.79522 24.5447 6.21335 24.7578C6.68871 25 7.31099 25 8.55556 25Z" stroke="#5F5C5C" stroke-width="2" stroke-linecap="round" stroke-linejoin="round"/>
</svg>
