<svg width="30" height="30" viewBox="0 0 30 30" fill="none" xmlns="http://www.w3.org/2000/svg">
<rect width="30" height="30" rx="2" fill="white"/>
<path d="M5 14.2C5 13.0799 5 12.5198 5.21799 12.092C5.40973 11.7157 5.71569 11.4097 6.09202 11.218C6.51984 11 7.0799 11 8.2 11H15.8C16.9201 11 17.4802 11 17.908 11.218C18.2843 11.4097 18.5903 11.7157 18.782 12.092C19 12.5198 19 13.0799 19 14.2V21.8C19 22.9201 19 23.4802 18.782 23.908C18.5903 24.2843 18.2843 24.5903 17.908 24.782C17.4802 25 16.9201 25 15.8 25H8.2C7.0799 25 6.51984 25 6.09202 24.782C5.71569 24.5903 5.40973 24.2843 5.21799 23.908C5 23.4802 5 22.9201 5 21.8V14.2Z" fill="#5F5C5C"/>
<path d="M13.5 5.0028C12.8249 5.01194 12.4197 5.05103 12.092 5.21799C11.7157 5.40973 11.4097 5.71569 11.218 6.09202C11.051 6.4197 11.0119 6.82495 11.0028 7.5M22.5 5.0028C23.1751 5.01194 23.5803 5.05103 23.908 5.21799C24.2843 5.40973 24.5903 5.71569 24.782 6.09202C24.949 6.4197 24.9881 6.82494 24.9972 7.49999M24.9972 16.5C24.9881 17.175 24.949 17.5803 24.782 17.908C24.5903 18.2843 24.2843 18.5903 23.908 18.782C23.5803 18.949 23.1751 18.9881 22.5 18.9972M25 11V13M17.0001 5H19M8.2 25H15.8C16.9201 25 17.4802 25 17.908 24.782C18.2843 24.5903 18.5903 24.2843 18.782 23.908C19 23.4802 19 22.9201 19 21.8V14.2C19 13.0799 19 12.5198 18.782 12.092C18.5903 11.7157 18.2843 11.4097 17.908 11.218C17.4802 11 16.9201 11 15.8 11H8.2C7.0799 11 6.51984 11 6.09202 11.218C5.71569 11.4097 5.40973 11.7157 5.21799 12.092C5 12.5198 5 13.0799 5 14.2V21.8C5 22.9201 5 23.4802 5.21799 23.908C5.40973 24.2843 5.71569 24.5903 6.09202 24.782C6.51984 25 7.07989 25 8.2 25Z" stroke="#5F5C5C" stroke-width="2" stroke-linecap="round" stroke-linejoin="round"/>
</svg>
