<svg width="30" height="30" viewBox="0 0 30 30" fill="none" xmlns="http://www.w3.org/2000/svg">
<rect width="30" height="30" rx="2" fill="white"/>
<path d="M5 8.2C5 7.0799 5 6.51984 5.21799 6.09202C5.40973 5.71569 5.71569 5.40973 6.09202 5.21799C6.51984 5 7.0799 5 8.2 5H15.8C16.9201 5 17.4802 5 17.908 5.21799C18.2843 5.40973 18.5903 5.71569 18.782 6.09202C19 6.51984 19 7.0799 19 8.2V15.8C19 16.9201 19 17.4802 18.782 17.908C18.5903 18.2843 18.2843 18.5903 17.908 18.782C17.4802 19 16.9201 19 15.8 19H8.2C7.0799 19 6.51984 19 6.09202 18.782C5.71569 18.5903 5.40973 18.2843 5.21799 17.908C5 17.4802 5 16.9201 5 15.8V8.2Z" fill="#5F5C5C"/>
<path d="M14.2 25H21.8C22.9201 25 23.4802 25 23.908 24.782C24.2843 24.5903 24.5903 24.2843 24.782 23.908C25 23.4802 25 22.9201 25 21.8V14.2C25 13.0799 25 12.5198 24.782 12.092C24.5903 11.7157 24.2843 11.4097 23.908 11.218C23.4802 11 22.9201 11 21.8 11H19V15.8C19 16.9201 19 17.4802 18.782 17.908C18.5903 18.2843 18.2843 18.5903 17.908 18.782C17.4802 19 16.9201 19 15.8 19H11V21.8C11 22.9201 11 23.4802 11.218 23.908C11.4097 24.2843 11.7157 24.5903 12.092 24.782C12.5198 25 13.0799 25 14.2 25Z" fill="#5F5C5C"/>
<path d="M19 15.8V8.2C19 7.0799 19 6.51984 18.782 6.09202C18.5903 5.71569 18.2843 5.40973 17.908 5.21799C17.4802 5 16.9201 5 15.8 5H8.2C7.0799 5 6.51984 5 6.09202 5.21799C5.71569 5.40973 5.40973 5.71569 5.21799 6.09202C5 6.51984 5 7.07989 5 8.2V15.8C5 16.9201 5 17.4802 5.21799 17.908C5.40973 18.2843 5.71569 18.5903 6.09202 18.782C6.51984 19 7.07989 19 8.2 19H15.8M19 15.8C19 16.9201 19 17.4802 18.782 17.908C18.5903 18.2843 18.2843 18.5903 17.908 18.782C17.4802 19 16.9201 19 15.8 19M19 15.8V11H21.8C22.9201 11 23.4802 11 23.908 11.218C24.2843 11.4097 24.5903 11.7157 24.782 12.092C25 12.5198 25 13.0799 25 14.2V21.8C25 22.9201 25 23.4802 24.782 23.908C24.5903 24.2843 24.2843 24.5903 23.908 24.782C23.4802 25 22.9201 25 21.8 25H14.2C13.0799 25 12.5198 25 12.092 24.782C11.7157 24.5903 11.4097 24.2843 11.218 23.908C11 23.4802 11 22.9201 11 21.8V19H15.8" stroke="white" stroke-width="2" stroke-linecap="round" stroke-linejoin="round"/>
</svg>
