<svg width="30" height="30" viewBox="0 0 30 30" fill="none" xmlns="http://www.w3.org/2000/svg">
<rect width="30" height="30" rx="2" fill="white"/>
<path d="M25 13.9888V21.4045C25 22.663 25 23.2923 24.7551 23.773C24.5396 24.1959 24.1959 24.5396 23.773 24.7551C23.2923 25 22.663 25 21.4045 25H13.9888C12.7302 25 12.1009 25 11.6202 24.7551C11.1974 24.5396 10.8536 24.1959 10.6382 23.773C10.3933 23.2923 10.3933 22.663 10.3933 21.4045V19.6067H8.59551C7.33696 19.6067 6.70769 19.6067 6.22699 19.3618C5.80415 19.1464 5.46038 18.8026 5.24493 18.3798C5 17.8991 5 17.2698 5 16.0112V8.59551C5 7.33696 5 6.70769 5.24493 6.22699C5.46038 5.80415 5.80415 5.46038 6.22699 5.24493C6.70769 5 7.33696 5 8.59551 5H16.0112C17.2698 5 17.8991 5 18.3798 5.24493C18.8026 5.46038 19.1464 5.80415 19.3618 6.22699C19.6067 6.70769 19.6067 7.33696 19.6067 8.59551V10.3933H21.4045C22.663 10.3933 23.2923 10.3933 23.773 10.6382C24.1959 10.8536 24.5396 11.1974 24.7551 11.6202C25 12.1009 25 12.7302 25 13.9888Z" fill="#5F5C5C"/>
<path d="M10.3933 19.6067H8.59551C7.33696 19.6067 6.70769 19.6067 6.22699 19.3618C5.80415 19.1464 5.46038 18.8026 5.24493 18.3798C5 17.8991 5 17.2698 5 16.0112V8.59551C5 7.33696 5 6.70769 5.24493 6.22699C5.46038 5.80415 5.80415 5.46038 6.22699 5.24493C6.70769 5 7.33696 5 8.59551 5H16.0112C17.2698 5 17.8991 5 18.3798 5.24493C18.8026 5.46038 19.1464 5.80415 19.3618 6.22699C19.6067 6.70769 19.6067 7.33696 19.6067 8.59551V10.3933M10.3933 19.6067V21.4045C10.3933 22.663 10.3933 23.2923 10.6382 23.773C10.8536 24.1958 11.1974 24.5396 11.6202 24.7551C12.1009 25 12.7302 25 13.9888 25H21.4045C22.663 25 23.2923 25 23.773 24.7551C24.1958 24.5396 24.5396 24.1958 24.7551 23.773C25 23.2923 25 22.663 25 21.4045V13.9888C25 12.7302 25 12.1009 24.7551 11.6202C24.5396 11.1974 24.1958 10.8536 23.773 10.6382C23.2923 10.3933 22.663 10.3933 21.4045 10.3933H19.6067M10.3933 19.6067V13.9888C10.3933 12.7302 10.3933 12.1009 10.6382 11.6202C10.8536 11.1974 11.1974 10.8536 11.6202 10.6382C12.1009 10.3933 12.7302 10.3933 13.9888 10.3933H19.6067" stroke="white" stroke-width="2" stroke-linecap="round" stroke-linejoin="round"/>
</svg>
