<svg width="30" height="30" viewBox="0 0 30 30" fill="none" xmlns="http://www.w3.org/2000/svg">
<rect width="30" height="30" rx="2" fill="white"/>
<path d="M13.125 2.50349C12.2812 2.51493 11.7746 2.56378 11.365 2.77248C10.8946 3.01217 10.5122 3.39462 10.2725 3.86502C10.0638 4.27462 10.0149 4.78119 10.0035 5.625M24.375 2.50349C25.2188 2.51493 25.7254 2.56378 26.135 2.77248C26.6054 3.01217 26.9878 3.39462 27.2275 3.86502C27.4362 4.27462 27.4851 4.78118 27.4965 5.62499M27.4965 16.875C27.4851 17.7188 27.4362 18.2254 27.2275 18.635C26.9878 19.1054 26.6054 19.4878 26.135 19.7275C25.7254 19.9362 25.2188 19.9851 24.375 19.9965M27.5 9.99999V12.5M17.5001 2.5H19.9999M6.5 27.5H16C17.4001 27.5 18.1002 27.5 18.635 27.2275C19.1054 26.9878 19.4878 26.6054 19.7275 26.135C20 25.6002 20 24.9001 20 23.5V14C20 12.5999 20 11.8998 19.7275 11.365C19.4878 10.8946 19.1054 10.5122 18.635 10.2725C18.1002 10 17.4001 10 16 10H6.5C5.09987 10 4.3998 10 3.86502 10.2725C3.39462 10.5122 3.01217 10.8946 2.77248 11.365C2.5 11.8998 2.5 12.5999 2.5 14V23.5C2.5 24.9001 2.5 25.6002 2.77248 26.135C3.01217 26.6054 3.39462 26.9878 3.86502 27.2275C4.3998 27.5 5.09987 27.5 6.5 27.5Z" stroke="#5F5C5C" stroke-width="1.5" stroke-linecap="round" stroke-linejoin="round"/>
</svg>
