<svg width="30" height="30" viewBox="0 0 30 30" fill="none" xmlns="http://www.w3.org/2000/svg">
<g clip-path="url(#clip0_5568_212650)">
<path d="M15 30C23.2843 30 30 23.2843 30 15C30 6.71573 23.2843 0 15 0C6.71573 0 0 6.71573 0 15C0 23.2843 6.71573 30 15 30Z" fill="#FCFCFC"/>
<path d="M20.2225 12.7052C20.2225 9.53268 17.6507 6.96094 14.4782 6.96094C12.1372 6.96094 10.1246 8.36191 9.2298 10.3707L8.52135 12.9392L9.1735 13.5913L7.86914 16.2001L9.1735 16.8522L8.52135 17.5044V18.1565L9.1735 18.8087V20.113L9.82564 20.7652L11.7821 20.113C11.7821 20.113 11.7821 20.7652 12.4343 21.4174C13.0864 22.0695 13.7387 23.3739 13.7387 23.3739C13.7387 23.3739 15.6952 24.0261 16.9996 22.0696C18.3039 20.1131 19.6083 19.4609 19.6083 19.4609L18.3511 16.9464C19.5008 15.8962 20.2225 14.3852 20.2225 12.7052V12.7052Z" fill="black"/>
<path d="M20.6905 14.9016C23.3406 14.4546 23.7821 9.26514 23.7821 9.26514H20.1299C22.0212 13.8304 20.0416 14.1374 20.0416 14.1374C19.7735 13.9379 10.1759 9.39129 9.8717 9.27568C9.7984 9.37377 9.52857 9.63141 9.20057 10.4336C8.8725 11.2357 8.79199 11.9573 8.79199 11.9573C8.94562 12.0575 19.1382 15.6165 19.4076 15.6462C19.9423 15.9957 20.6002 17.0411 20.2325 20.1406L23.7478 19.1499C23.7479 19.1499 22.5548 15.9763 20.6905 14.9016V14.9016Z" fill="#ACABB1"/>
</g>
<rect x="0.5" y="0.5" width="29" height="29" rx="14.5" stroke="#D7D7D7"/>
<defs>
<clipPath id="clip0_5568_212650">
<rect width="30" height="30" rx="15" fill="white"/>
</clipPath>
</defs>
</svg>
