<svg width="30" height="30" viewBox="0 0 30 30" fill="none" xmlns="http://www.w3.org/2000/svg">
<rect width="30" height="30" rx="2" fill="white"/>
<path d="M12 13.5L14 15.5L18.5 11M23 24V10.8C23 9.11984 23 8.27976 22.673 7.63803C22.3854 7.07354 21.9265 6.6146 21.362 6.32698C20.7202 6 19.8802 6 18.2 6H11.8C10.1198 6 9.27976 6 8.63803 6.32698C8.07354 6.6146 7.6146 7.07354 7.32698 7.63803C7 8.27976 7 9.11984 7 10.8V24L9.75 22L12.25 24L15 22L17.75 24L20.25 22L23 24Z" stroke="#5F5C5C" stroke-width="1.5" stroke-linecap="round" stroke-linejoin="round"/>
</svg>
