<svg width="30" height="30" viewBox="0 0 30 30" fill="none" xmlns="http://www.w3.org/2000/svg">
<g clip-path="url(#clip0_5568_212654)">
<path d="M15 30C23.2843 30 30 23.2843 30 15C30 6.71573 23.2843 0 15 0C6.71573 0 0 6.71573 0 15C0 23.2843 6.71573 30 15 30Z" fill="#F0F0F0"/>
<path d="M29.067 9.78271H0.932988C0.330059 11.4077 0 13.1653 0 15.0001C0 16.8349 0.330059 18.5925 0.932988 20.2174H29.0671C29.67 18.5925 30 16.8349 30 15.0001C30 13.1653 29.67 11.4077 29.067 9.78271Z" fill="#D80027"/>
<path d="M14.9997 0C10.4533 0 6.37971 2.02289 3.62891 5.21736H26.3704C23.6196 2.02289 19.546 0 14.9997 0V0Z" fill="#0052B4"/>
<path d="M26.3704 24.7827H3.62891C6.37971 27.9772 10.4533 30.0001 14.9997 30.0001C19.546 30.0001 23.6196 27.9772 26.3704 24.7827Z" fill="#0052B4"/>
</g>
<rect x="0.5" y="0.5" width="29" height="29" rx="14.5" stroke="#D7D7D7"/>
<defs>
<clipPath id="clip0_5568_212654">
<rect width="30" height="30" rx="15" fill="white"/>
</clipPath>
</defs>
</svg>
