<svg width="30" height="30" viewBox="0 0 30 30" fill="none" xmlns="http://www.w3.org/2000/svg">
<path d="M19 21L22 18M22 18L25 21M22 18V24M25 13H5M25 15V11.2C25 10.0799 25 9.51984 24.782 9.09202C24.5903 8.7157 24.2843 8.40974 23.908 8.21799C23.4802 8 22.9201 8 21.8 8H8.2C7.0799 8 6.51984 8 6.09202 8.21799C5.7157 8.40973 5.40973 8.71569 5.21799 9.09202C5 9.51984 5 10.0799 5 11.2V18.8C5 19.9201 5 20.4802 5.21799 20.908C5.40973 21.2843 5.71569 21.5903 6.09202 21.782C6.51984 22 7.0799 22 8.2 22H15" stroke="#5F5C5C" stroke-width="1.5" stroke-linecap="round" stroke-linejoin="round"/>
</svg>
