<svg width="30" height="30" viewBox="0 0 30 30" fill="none" xmlns="http://www.w3.org/2000/svg">
<path d="M5 13H25V11.2C25 10.0799 25 9.51984 24.782 9.09202C24.5903 8.7157 24.2843 8.40974 23.908 8.21799C23.4802 8 22.9201 8 21.8 8H8.2C7.0799 8 6.51984 8 6.09202 8.21799C5.7157 8.40973 5.40973 8.71569 5.21799 9.09202C5 9.51984 5 10.0799 5 11.2V18.8C5 19.9201 5 20.4802 5.21799 20.908C5.40973 21.2843 5.71569 21.5903 6.09202 21.782C6.51984 22 7.0799 22 8.2 22H14M17.5 24L19.525 23.595C19.7015 23.5597 19.7898 23.542 19.8721 23.5097C19.9452 23.4811 20.0147 23.4439 20.079 23.399C20.1516 23.3484 20.2152 23.2848 20.3426 23.1574L24.5 19C25.0523 18.4477 25.0523 17.5523 24.5 17C23.9477 16.4477 23.0523 16.4477 22.5 17L18.3426 21.1574C18.2152 21.2848 18.1516 21.3484 18.101 21.421C18.0561 21.4853 18.0189 21.5548 17.9903 21.6279C17.958 21.7102 17.9403 21.7985 17.905 21.975L17.5 24Z" stroke="#5F5C5C" stroke-width="1.5" stroke-linecap="round" stroke-linejoin="round"/>
</svg>
