<svg width="30" height="30" viewBox="0 0 30 30" fill="none" xmlns="http://www.w3.org/2000/svg">
<path d="M25 13H5M14 22L21.8 22C22.9201 22 23.4802 22 23.908 21.782C24.2843 21.5903 24.5903 21.2843 24.782 20.908C25 20.4802 25 19.9201 25 18.8V11.2C25 10.0799 25 9.51984 24.782 9.09202C24.5903 8.7157 24.2843 8.40974 23.908 8.21799C23.4802 8 22.9201 8 21.8 8H20M14 22L16 24M14 22L16 20M10 22H8.2C7.07989 22 6.51984 22 6.09202 21.782C5.71569 21.5903 5.40973 21.2843 5.21799 20.908C5 20.4802 5 19.9201 5 18.8V11.2C5 10.0799 5 9.51984 5.21799 9.09202C5.40973 8.71569 5.7157 8.40973 6.09202 8.21799C6.51984 8 7.0799 8 8.2 8H16M16 8L14 10M16 8L14 6" stroke="#5F5C5C" stroke-width="1.5" stroke-linecap="round" stroke-linejoin="round"/>
</svg>
