<svg width="30" height="30" viewBox="0 0 30 30" fill="none" xmlns="http://www.w3.org/2000/svg">
<path d="M23.25 20.5V18.75C23.25 17.7835 22.4665 17 21.5 17C20.5335 17 19.75 17.7835 19.75 18.75V20.5M25 13H5M25 14V11.2C25 10.0799 25 9.51984 24.782 9.09202C24.5903 8.7157 24.2843 8.40974 23.908 8.21799C23.4802 8 22.9201 8 21.8 8H8.2C7.0799 8 6.51984 8 6.09202 8.21799C5.7157 8.40973 5.40973 8.71569 5.21799 9.09202C5 9.51984 5 10.0799 5 11.2V18.8C5 19.9201 5 20.4802 5.21799 20.908C5.40973 21.2843 5.71569 21.5903 6.09202 21.782C6.51984 22 7.0799 22 8.2 22H14M19.6 24.5H23.4C23.9601 24.5 24.2401 24.5 24.454 24.391C24.6422 24.2951 24.7951 24.1422 24.891 23.954C25 23.7401 25 23.4601 25 22.9V22.1C25 21.5399 25 21.2599 24.891 21.046C24.7951 20.8578 24.6422 20.7049 24.454 20.609C24.2401 20.5 23.9601 20.5 23.4 20.5H19.6C19.0399 20.5 18.7599 20.5 18.546 20.609C18.3578 20.7049 18.2049 20.8578 18.109 21.046C18 21.2599 18 21.5399 18 22.1V22.9C18 23.4601 18 23.7401 18.109 23.954C18.2049 24.1422 18.3578 24.2951 18.546 24.391C18.7599 24.5 19.0399 24.5 19.6 24.5Z" stroke="#5F5C5C" stroke-width="1.5" stroke-linecap="round" stroke-linejoin="round"/>
</svg>
