<svg width="30" height="30" viewBox="0 0 30 30" fill="none" xmlns="http://www.w3.org/2000/svg">
<path d="M12 20L15 23M15 23L18 20M15 23V16M25 12H5M8.5 21H8.2C7.0799 21 6.51984 21 6.09202 20.782C5.71569 20.5903 5.40973 20.2843 5.21799 19.908C5 19.4802 5 18.9201 5 17.8V10.2C5 9.0799 5 8.51984 5.21799 8.09202C5.40973 7.71569 5.7157 7.40973 6.09202 7.21799C6.51984 7 7.0799 7 8.2 7H21.8C22.9201 7 23.4802 7 23.908 7.21799C24.2843 7.40974 24.5903 7.7157 24.782 8.09202C25 8.51984 25 9.0799 25 10.2V17.8C25 18.9201 25 19.4802 24.782 19.908C24.5903 20.2843 24.2843 20.5903 23.908 20.782C23.4802 21 22.9201 21 21.8 21H21.5" stroke="#5F5C5C" stroke-width="1.5" stroke-linecap="round" stroke-linejoin="round"/>
</svg>
