<svg width="30" height="30" viewBox="0 0 30 30" fill="none" xmlns="http://www.w3.org/2000/svg">
<g clip-path="url(#clip0_5568_212660)">
<path d="M30 14.9999C30 13.1651 29.6699 11.4075 29.067 9.78258L15 9.13037L0.932988 9.78252C0.330059 11.4075 0 13.1651 0 14.9999C0 16.8347 0.330059 18.5924 0.932988 20.2173L15 20.8695L29.067 20.2174C29.6699 18.5924 30 16.8347 30 14.9999Z" fill="#F0F0F0"/>
<path d="M14.9996 29.9999C21.4491 29.9999 26.9472 25.9293 29.0666 20.2173H0.932617C3.05201 25.9293 8.55016 29.9999 14.9996 29.9999Z" fill="#0052B4"/>
<path d="M0.932617 9.78264H29.0667C26.9472 4.07063 21.4491 0 14.9996 0C8.55016 0 3.05201 4.07063 0.932617 9.78264V9.78264Z" fill="#D80027"/>
<path d="M18.9124 10.4349H16.3037L16.7385 7.17398L18.4776 5.86963L20.2167 7.17398V9.7827L18.9124 10.4349Z" fill="#338AF3"/>
<path d="M11.0865 10.4349H13.6952L13.2604 7.17398L11.5213 5.86963L9.78223 7.17398V9.7827L11.0865 10.4349Z" fill="#338AF3"/>
<path d="M16.7391 10.4349H13.2607V7.17398L14.9999 5.86963L16.7391 7.17398V10.4349Z" fill="#0052B4"/>
<path d="M9.78223 9.78271V16.9566C9.78223 18.6648 10.6073 20.1839 11.88 21.1362L12.7931 20.9077L13.9453 22.0668C14.286 22.137 14.6385 22.174 14.9996 22.174C15.3588 22.174 15.7096 22.1375 16.0485 22.068L17.3638 20.9729L18.1192 21.1341C19.3913 20.1818 20.217 18.6643 20.217 16.9566V9.78271H9.78223Z" fill="#F0F0F0"/>
<path d="M9.78223 9.78271H11.8692V11.8696H9.78223V9.78271Z" fill="#D80027"/>
<path d="M13.9561 9.78271H16.043V11.8696H13.9561V9.78271Z" fill="#D80027"/>
<path d="M18.1299 9.78271H20.2168V11.8696H18.1299V9.78271Z" fill="#D80027"/>
<path d="M11.8691 11.8696H13.9561V13.9566H11.8691V11.8696Z" fill="#D80027"/>
<path d="M16.043 11.8696H18.1299V13.9566H16.043V11.8696Z" fill="#D80027"/>
<path d="M9.78223 13.9561H11.8692V16.043H9.78223V13.9561Z" fill="#D80027"/>
<path d="M11.8691 16.043H13.9561V18.1299H11.8691V16.043Z" fill="#D80027"/>
<path d="M13.9561 13.9561H16.043V16.043H13.9561V13.9561Z" fill="#D80027"/>
<path d="M18.1299 13.9561H20.2168V16.043H18.1299V13.9561Z" fill="#D80027"/>
<path d="M16.043 16.043H18.1299V18.1299H16.043V16.043Z" fill="#D80027"/>
<path d="M13.9561 18.1299H16.043V20.2168H13.9561V18.1299Z" fill="#D80027"/>
<path d="M11.8693 18.1301H9.91699C10.0961 18.9059 10.4481 19.6158 10.9308 20.2171H11.8693V18.1301Z" fill="#D80027"/>
<path d="M18.1299 20.2171H19.0683C19.5511 19.6158 19.903 18.9058 20.0821 18.1301H18.1299V20.2171Z" fill="#D80027"/>
<path d="M11.8691 20.217V21.1276C12.4761 21.5844 13.1854 21.9119 13.9561 22.069V20.217H11.8691Z" fill="#D80027"/>
<path d="M16.043 20.217V22.069C16.8137 21.912 17.5229 21.5844 18.1299 21.1276V20.217H16.043Z" fill="#D80027"/>
</g>
<rect x="0.5" y="0.5" width="29" height="29" rx="14.5" stroke="#D7D7D7"/>
<defs>
<clipPath id="clip0_5568_212660">
<rect width="30" height="30" rx="15" fill="white"/>
</clipPath>
</defs>
</svg>
