<svg width="30" height="30" viewBox="0 0 30 30" fill="none" xmlns="http://www.w3.org/2000/svg">
<path d="M20.8778 23.0902C19.1693 24.3315 17.1117 25 14.9999 25C12.8881 25 10.8305 24.3315 9.12206 23.0902M19.3836 6.01206C21.2817 6.93781 22.838 8.44068 23.8294 10.3053C24.8208 12.1699 25.1965 14.3005 24.9026 16.3917M5.09733 16.3916C4.80343 14.3004 5.17911 12.1698 6.17053 10.3052C7.16196 8.44059 8.71823 6.93771 10.6163 6.01196M14.4342 9.56569L9.5656 14.4343C9.36759 14.6323 9.26859 14.7313 9.23149 14.8455C9.19886 14.9459 9.19886 15.0541 9.23149 15.1545C9.26859 15.2687 9.36759 15.3677 9.5656 15.5657L14.4342 20.4343C14.6322 20.6323 14.7312 20.7313 14.8454 20.7684C14.9458 20.8011 15.054 20.8011 15.1544 20.7684C15.2686 20.7313 15.3676 20.6323 15.5656 20.4343L20.4342 15.5657C20.6322 15.3677 20.7312 15.2687 20.7683 15.1545C20.801 15.0541 20.801 14.9459 20.7683 14.8455C20.7312 14.7313 20.6322 14.6323 20.4342 14.4343L15.5656 9.56569C15.3676 9.36768 15.2686 9.26867 15.1544 9.23158C15.054 9.19895 14.9458 9.19895 14.8454 9.23158C14.7312 9.26867 14.6322 9.36768 14.4342 9.56569Z" stroke="#5F5C5C" stroke-width="1.5" stroke-linecap="round" stroke-linejoin="round"/>
</svg>
