<svg width="30" height="30" viewBox="0 0 30 30" fill="none" xmlns="http://www.w3.org/2000/svg">
<path d="M5 5L7 7M25 5L23 7M25 25L23 23M5 25L7 23M5 19H6.5M11 5V6.5M25 11H23.5M19 25V23.5M21 19H24.5M19 5V9M5 11H9M11 25V21M14.4343 10.5657L10.5657 14.4343C10.3677 14.6323 10.2687 14.7313 10.2316 14.8455C10.1989 14.9459 10.1989 15.0541 10.2316 15.1545C10.2687 15.2687 10.3677 15.3677 10.5657 15.5657L14.4343 19.4343C14.6323 19.6323 14.7313 19.7313 14.8455 19.7684C14.9459 19.8011 15.0541 19.8011 15.1545 19.7684C15.2687 19.7313 15.3677 19.6323 15.5657 19.4343L19.4343 15.5657C19.6323 15.3677 19.7313 15.2687 19.7684 15.1545C19.8011 15.0541 19.8011 14.9459 19.7684 14.8455C19.7313 14.7313 19.6323 14.6323 19.4343 14.4343L15.5657 10.5657C15.3677 10.3677 15.2687 10.2687 15.1545 10.2316C15.0541 10.1989 14.9459 10.1989 14.8455 10.2316C14.7313 10.2687 14.6323 10.3677 14.4343 10.5657Z" stroke="#5F5C5C" stroke-width="1.5" stroke-linecap="round" stroke-linejoin="round"/>
</svg>
