<svg width="30" height="30" viewBox="0 0 30 30" fill="none" xmlns="http://www.w3.org/2000/svg">
<path d="M20.8778 23.0902C19.1693 24.3315 17.1117 25 14.9999 25C12.8881 25 10.8305 24.3315 9.12206 23.0902M19.3836 6.01206C21.2817 6.93781 22.838 8.44068 23.8294 10.3053C24.8208 12.1699 25.1965 14.3005 24.9026 16.3917M5.09733 16.3916C4.80343 14.3004 5.17911 12.1698 6.17053 10.3052C7.16196 8.44059 8.71823 6.93771 10.6163 6.01196M20.4999 15C20.4999 18.0376 18.0375 20.5 14.9999 20.5C11.9623 20.5 9.49991 18.0376 9.49991 15C9.49991 11.9624 11.9623 9.5 14.9999 9.5C18.0375 9.5 20.4999 11.9624 20.4999 15Z" stroke="#5F5C5C" stroke-width="1.5" stroke-linecap="round" stroke-linejoin="round"/>
</svg>
