<svg width="30" height="30" viewBox="0 0 30 30" fill="none" xmlns="http://www.w3.org/2000/svg">
<g clip-path="url(#clip0_5568_212685)">
<path d="M14.9999 29.9999C23.2842 29.9999 29.9999 23.2842 29.9999 14.9999C29.9999 6.7157 23.2842 0 14.9999 0C6.7157 0 0 6.7157 0 14.9999C0 23.2842 6.7157 29.9999 14.9999 29.9999Z" fill="#F0F0F0"/>
<path d="M14.9997 0C10.0923 0 5.73564 2.35682 2.99902 6H27.0003C24.2637 2.35676 19.907 0 14.9997 0V0Z" fill="#0052B4"/>
<path d="M14.9997 29.9998C19.907 29.9998 24.2637 27.6429 27.0003 23.9998H2.99902C5.73559 27.643 10.0923 29.9998 14.9997 29.9998Z" fill="#0052B4"/>
<path d="M0 15C0 16.0274 0.103594 17.0307 0.30041 18H29.6996C29.8965 17.0307 30 16.0274 30 15C30 13.9726 29.8964 12.9693 29.6996 12H0.30041C0.103594 12.9693 0 13.9726 0 15V15Z" fill="#0052B4"/>
<path d="M4.39334 4.39355C-1.46445 10.2513 -1.46445 19.7489 4.39334 25.6068C6.81403 23.1861 9.14208 20.858 14.9999 15.0002L4.39334 4.39355Z" fill="#D80027"/>
<path d="M6.07143 11.0869L7.04256 14.0761H10.1859L7.64309 15.9237L8.61422 18.9129L6.07143 17.0654L3.52852 18.9129L4.49988 15.9237L1.95703 14.0761H5.10012L6.07143 11.0869Z" fill="#F0F0F0"/>
</g>
<rect x="0.5" y="0.5" width="29" height="29" rx="14.5" stroke="#D7D7D7"/>
<defs>
<clipPath id="clip0_5568_212685">
<rect width="30" height="30" rx="15" fill="white"/>
</clipPath>
</defs>
</svg>
