<svg width="30" height="30" viewBox="0 0 30 30" fill="none" xmlns="http://www.w3.org/2000/svg">
<path d="M23.5 10.2777L15 15M15 15L6.49997 10.2777M15 15L15 24.5M24 19.0585V10.9414C24 10.5988 24 10.4275 23.9495 10.2747C23.9049 10.1395 23.8318 10.0154 23.7354 9.91073C23.6263 9.79239 23.4766 9.70919 23.177 9.54279L15.777 5.43168C15.4934 5.27412 15.3516 5.19534 15.2015 5.16445C15.0685 5.13712 14.9315 5.13712 14.7986 5.16445C14.6484 5.19534 14.5066 5.27412 14.223 5.43168L6.82297 9.54279C6.52345 9.70919 6.37369 9.79239 6.26463 9.91073C6.16816 10.0154 6.09515 10.1395 6.05048 10.2747C6 10.4275 6 10.5988 6 10.9414V19.0585C6 19.4012 6 19.5725 6.05048 19.7253C6.09515 19.8605 6.16816 19.9846 6.26463 20.0893C6.37369 20.2076 6.52345 20.2908 6.82297 20.4572L14.223 24.5683C14.5066 24.7259 14.6484 24.8046 14.7986 24.8355C14.9315 24.8629 15.0685 24.8629 15.2015 24.8355C15.3516 24.8046 15.4934 24.7259 15.777 24.5683L23.177 20.4572C23.4766 20.2908 23.6263 20.2076 23.7354 20.0893C23.8318 19.9846 23.9049 19.8605 23.9495 19.7253C24 19.5725 24 19.4012 24 19.0585Z" stroke="#5F5C5C" stroke-width="1.5" stroke-linecap="round" stroke-linejoin="round"/>
</svg>
