<svg width="30" height="30" viewBox="0 0 30 30" fill="none" xmlns="http://www.w3.org/2000/svg">
<path d="M6.5 11H19M19 11V23.5M19 11L23.5 6.5M24 18.3373V6.8C24 6.51997 24 6.37996 23.9455 6.273C23.8976 6.17892 23.8211 6.10243 23.727 6.0545C23.62 6 23.48 6 23.2 6H11.6627C11.4182 6 11.2959 6 11.1808 6.02763C11.0787 6.05213 10.9812 6.09253 10.8917 6.14736C10.7908 6.2092 10.7043 6.29568 10.5314 6.46863L6.46863 10.5314C6.29568 10.7043 6.2092 10.7908 6.14736 10.8917C6.09253 10.9812 6.05213 11.0787 6.02763 11.1808C6 11.2959 6 11.4182 6 11.6627V23.2C6 23.48 6 23.62 6.0545 23.727C6.10243 23.8211 6.17892 23.8976 6.273 23.9455C6.37996 24 6.51997 24 6.8 24H18.3373C18.5818 24 18.7041 24 18.8192 23.9724C18.9213 23.9479 19.0188 23.9075 19.1083 23.8526C19.2092 23.7908 19.2957 23.7043 19.4686 23.5314L23.5314 19.4686C23.7043 19.2957 23.7908 19.2092 23.8526 19.1083C23.9075 19.0188 23.9479 18.9213 23.9724 18.8192C24 18.7041 24 18.5818 24 18.3373Z" stroke="#5F5C5C" stroke-width="1.5" stroke-linecap="round" stroke-linejoin="round"/>
</svg>
