<svg width="30" height="30" viewBox="0 0 30 30" fill="none" xmlns="http://www.w3.org/2000/svg">
<path d="M12.75 23.75L14.223 24.5683C14.5066 24.7259 14.6484 24.8047 14.7986 24.8355C14.9315 24.8629 15.0685 24.8629 15.2015 24.8355C15.3516 24.8047 15.4934 24.7259 15.777 24.5683L17.25 23.75M8.25 21.25L6.82297 20.4572C6.52346 20.2908 6.37368 20.2076 6.26463 20.0893C6.16816 19.9846 6.09515 19.8605 6.05048 19.7253C6 19.5725 6 19.4012 6 19.0586V17.5M6 12.5V10.9414C6 10.5988 6 10.4275 6.05048 10.2747C6.09515 10.1395 6.16816 10.0154 6.26463 9.91074C6.37368 9.7924 6.52345 9.7092 6.82297 9.5428L8.25 8.75M12.75 6.25L14.223 5.43168C14.5066 5.27412 14.6484 5.19535 14.7986 5.16446C14.9315 5.13713 15.0685 5.13713 15.2015 5.16446C15.3516 5.19535 15.4934 5.27412 15.777 5.43168L17.25 6.25M21.75 8.75L23.177 9.54279C23.4766 9.7092 23.6263 9.7924 23.7354 9.91073C23.8318 10.0154 23.9049 10.1395 23.9495 10.2747C24 10.4275 24 10.5988 24 10.9414V12.5M24 17.5V19.0586C24 19.4012 24 19.5725 23.9495 19.7253C23.9049 19.8605 23.8318 19.9846 23.7354 20.0893C23.6263 20.2076 23.4766 20.2908 23.177 20.4572L21.75 21.25M12.75 13.75L15 15M15 15L17.25 13.75M15 15V17.5M6 10L8.25 11.25M21.75 11.25L24 10M15 22.5V25" stroke="#5F5C5C" stroke-width="1.5" stroke-linecap="round" stroke-linejoin="round"/>
</svg>
