<svg width="30" height="30" viewBox="0 0 30 30" fill="none" xmlns="http://www.w3.org/2000/svg">
<g clip-path="url(#clip0_5568_212694)">
<path d="M15 30C23.2843 30 30 23.2843 30 15C30 6.71573 23.2843 0 15 0C6.71573 0 0 6.71573 0 15C0 23.2843 6.71573 30 15 30Z" fill="#FFDA44"/>
<path d="M14.9997 29.9999C19.9216 29.9999 24.2897 27.6294 27.0249 23.9678H2.97461C5.70977 27.6294 10.0779 29.9999 14.9997 29.9999Z" fill="#0052B4"/>
<path d="M30 15C30 6.71578 23.2842 0 15 0C6.71578 0 0 6.71578 0 15C0 16.7738 0.30873 18.4753 0.873984 20.0548H29.126C29.6913 18.4753 30 16.7738 30 15V15Z" fill="#0052B4"/>
<path d="M10.2675 9.61987L11.0768 12.1108H13.6962L11.5772 13.6505L12.3865 16.1416L10.2675 14.602L8.14844 16.1416L8.95791 13.6505L6.83887 12.1108H9.45812L10.2675 9.61987Z" fill="#F0F0F0"/>
<path d="M5.76902 7.01123L6.25465 8.50584H7.82631L6.55488 9.42963L7.04051 10.9243L5.76902 10.0005L4.4976 10.9243L4.98328 9.42963L3.71191 8.50584H5.28352L5.76902 7.01123Z" fill="#F0F0F0"/>
</g>
<rect x="0.5" y="0.5" width="29" height="29" rx="14.5" stroke="#D7D7D7"/>
<defs>
<clipPath id="clip0_5568_212694">
<rect width="30" height="30" rx="15" fill="white"/>
</clipPath>
</defs>
</svg>
