<svg width="30" height="30" viewBox="0 0 30 30" fill="none" xmlns="http://www.w3.org/2000/svg">
<path d="M11.5 17.6667C11.5 18.9553 12.5447 20 13.8333 20H16C17.3807 20 18.5 18.8807 18.5 17.5C18.5 16.1193 17.3807 15 16 15H14C12.6193 15 11.5 13.8807 11.5 12.5C11.5 11.1193 12.6193 10 14 10H16.1667C17.4553 10 18.5 11.0447 18.5 12.3333M15 8.5V10M15 20V21.5M25 15C25 20.5228 20.5228 25 15 25C9.47715 25 5 20.5228 5 15C5 9.47715 9.47715 5 15 5C20.5228 5 25 9.47715 25 15Z" stroke="#5F5C5C" stroke-width="1.5" stroke-linecap="round" stroke-linejoin="round"/>
</svg>
