<svg width="30" height="30" viewBox="0 0 30 30" fill="none" xmlns="http://www.w3.org/2000/svg">
<path d="M12.5 10.5H16.75C17.9926 10.5 19 11.5074 19 12.75C19 13.9926 17.9926 15 16.75 15H12.5H17.25C18.4926 15 19.5 16.0074 19.5 17.25C19.5 18.4926 18.4926 19.5 17.25 19.5H12.5M12.5 10.5H11M12.5 10.5V19.5M12.5 19.5H11M13 9V10.5M13 19.5V21M16 9V10.5M16 19.5V21M25 15C25 20.5228 20.5228 25 15 25C9.47715 25 5 20.5228 5 15C5 9.47715 9.47715 5 15 5C20.5228 5 25 9.47715 25 15Z" stroke="#5F5C5C" stroke-width="1.5" stroke-linecap="round" stroke-linejoin="round"/>
</svg>
