<svg width="30" height="30" viewBox="0 0 30 30" fill="none" xmlns="http://www.w3.org/2000/svg">
<g clip-path="url(#clip0_5568_212702)">
<path d="M15 30C23.2843 30 30 23.2843 30 15C30 6.71573 23.2843 0 15 0C6.71573 0 0 6.71573 0 15C0 23.2843 6.71573 30 15 30Z" fill="#FCFCFC"/>
<path d="M23.4779 13.0435C23.0214 13.0435 22.4562 13.0435 21.5214 13.0435C21.5214 16.6453 18.6015 19.5652 14.9997 19.5652C11.3978 19.5652 8.47799 16.6453 8.47799 13.0435C7.84752 13.0435 7.15184 13.0435 6.52148 13.0435C6.52148 16.9232 9.1275 20.1944 12.6847 21.2018C12.2947 21.9426 12.3541 22.8754 12.9113 23.5706C13.643 22.9841 14.4005 22.377 15.0432 21.8621C15.6858 22.3771 16.4435 22.9842 17.1751 23.5706C17.7377 22.8685 17.7931 21.9239 17.3902 21.1794C20.9084 20.1473 23.4779 16.8956 23.4779 13.0435V13.0435Z" fill="#6DA544"/>
<path d="M9.78223 12.3914C9.78223 12.3914 9.78223 15.6522 13.0431 15.6522L13.6952 16.3044H14.9996C14.9996 16.3044 15.6517 14.3479 16.9561 14.3479C16.9561 14.3479 16.9561 13.0435 18.2604 13.0435C19.5648 13.0435 20.217 13.0435 20.217 13.0435C20.217 13.0435 19.5648 10.4348 22.8257 8.47832L21.5213 7.82617C21.5213 7.82617 16.9561 11.087 13.6952 10.4349V11.7392H12.3909L11.7387 11.0871L9.78223 12.3914Z" fill="#FFDA44"/>
</g>
<rect x="0.5" y="0.5" width="29" height="29" rx="14.5" stroke="#D7D7D7"/>
<defs>
<clipPath id="clip0_5568_212702">
<rect width="30" height="30" rx="15" fill="white"/>
</clipPath>
</defs>
</svg>
