<svg width="30" height="30" viewBox="0 0 30 30" fill="none" xmlns="http://www.w3.org/2000/svg">
<g clip-path="url(#clip0_5568_212706)">
<path d="M15 30C23.2843 30 30 23.2843 30 15C30 6.71573 23.2843 0 15 0C6.71573 0 0 6.71573 0 15C0 23.2843 6.71573 30 15 30Z" fill="#F0F0F0"/>
<path d="M13.6958 15C13.6958 15 4.40234 25.6087 4.39355 25.6066C7.10797 28.3211 10.858 30 15.0002 30C23.2844 30 30.0002 23.2842 30.0002 15H13.6958Z" fill="#D80027"/>
<path d="M4.39339 4.39331C-1.46446 10.2512 -1.46446 19.7487 4.39339 25.6066C6.81407 23.1859 9.14218 20.8578 15 15L4.39339 4.39331Z" fill="#0052B4"/>
</g>
<rect x="0.5" y="0.5" width="29" height="29" rx="14.5" stroke="#D7D7D7"/>
<defs>
<clipPath id="clip0_5568_212706">
<rect width="30" height="30" rx="15" fill="white"/>
</clipPath>
</defs>
</svg>
