<svg width="30" height="30" viewBox="0 0 30 30" fill="none" xmlns="http://www.w3.org/2000/svg">
<path d="M5 16.4286H13.5714M5 16.4286V12.4286M5 16.4286V20.4286M13.5714 7.85714V25M13.5714 7.85714H9.57143C7.97128 7.85714 7.1712 7.85714 6.56003 8.16855C6.02242 8.44248 5.58533 8.87956 5.31141 9.41717C5 10.0283 5 10.8284 5 12.4286M13.5714 7.85714L13.5714 16.4286M13.5714 25L13.5714 16.4286M13.5714 25H9.57143M13.5714 25H17.5714M17.5714 25H9.57143M17.5714 25C19.1716 25 19.9717 25 20.5828 24.6886C21.1204 24.4147 21.5575 23.9776 21.8314 23.44C22.1429 22.8288 22.1429 22.0287 22.1429 20.4286V16.4286H13.5714M9.57143 25C7.97128 25 7.1712 25 6.56003 24.6886C6.02242 24.4147 5.58533 23.9776 5.31141 23.44C5 22.8288 5 22.0287 5 20.4286M5 20.4286V12.4286M16.4286 13.5714H25V9.57143C25 7.97128 25 7.1712 24.6886 6.56003C24.4147 6.02242 23.9776 5.58533 23.44 5.31141C22.8288 5 22.0287 5 20.4286 5H16.4286V13.5714Z" stroke="#5F5C5C" stroke-width="1.5" stroke-linecap="round" stroke-linejoin="round"/>
</svg>
