<svg width="30" height="30" viewBox="0 0 30 30" fill="none" xmlns="http://www.w3.org/2000/svg">
<path d="M17.3636 11.8182C17.2651 11.3585 17.0599 10.8544 16.7673 10.3636M8.27272 14.2424C8.22036 12.8809 8.49676 11.4967 9.07655 10.3636M8.27272 14.2424H5M8.27272 14.2424C8.33175 15.7772 8.73232 17.1355 9.47469 18.2424M12.8788 20.7879C11.3777 20.2644 10.2431 19.3881 9.47469 18.2424M15.9091 12.303C15.9091 12.303 14.4545 11.697 12.8788 11.697C10.6964 11.697 8.34121 12.7879 8.34121 12.7879M9.12121 6L11.2068 8.18182M11.2068 8.18182C11.7049 7.94837 12.2631 7.81818 12.8788 7.81818C13.4363 7.81818 13.9654 7.95315 14.4524 8.18182M11.2068 8.18182C10.2865 8.61317 9.57112 9.39707 9.07655 10.3636M16.3939 6L14.4524 8.18182M14.4524 8.18182C15.432 8.64187 16.241 9.48118 16.7673 10.3636M19.9091 7.93939L18.5758 10.3636H16.7673M5.60606 7.93939L6.93939 10.3636H9.07655M5.84848 21.0303L7.30303 18.2424H9.47469M25 24.5455L21.4039 20.7879M21.4039 20.7879C20.6963 21.5463 19.6909 22.0177 18.5758 22C16.467 21.9665 14.8182 20.2302 14.8182 18.1212C14.8182 16.0122 16.467 14.2759 18.5758 14.2424C20.7177 14.2084 22.4545 15.979 22.4545 18.1212C22.4545 19.1481 22.0554 20.0896 21.4039 20.7879Z" stroke="#5F5C5C" stroke-width="1.5" stroke-linecap="round" stroke-linejoin="round"/>
</svg>
