<svg width="30" height="30" viewBox="0 0 30 30" fill="none" xmlns="http://www.w3.org/2000/svg">
<path d="M12.8788 11.697C14.4545 11.697 14.4545 11.697 15.9091 12.303C16.5 12 17.3636 11.8182 17.3636 11.8182C17.2651 11.3585 17.0599 10.8544 16.7673 10.3636C16.241 9.48118 15.432 8.64187 14.4524 8.18182C13.9654 7.95315 13.4363 7.81818 12.8788 7.81818C12.2631 7.81818 11.7049 7.94837 11.2068 8.18182C10.2865 8.61317 9.57112 9.39706 9.07655 10.3636C8.70376 11.0922 8.4564 11.9245 8.34121 12.7879C8.34121 12.7879 10.6964 11.697 12.8788 11.697Z" fill="#D9D9D9"/>
<path d="M15.9091 12.303C14.4545 11.697 14.4545 11.697 12.8788 11.697C10.6964 11.697 8.34121 12.7879 8.34121 12.7879C8.27724 13.2673 8.25403 13.7563 8.27272 14.2424C8.33175 15.7772 8.73232 17.1355 9.47469 18.2424C10.2431 19.3881 11.3777 20.2644 12.8788 20.7879C12.8788 20.7879 11.9483 18.707 12.5 16.5C13 14.5 14.5 13 15.9091 12.303Z" fill="#D9D9D9"/>
<path d="M8.27272 14.2424C8.22036 12.8809 8.49676 11.4967 9.07655 10.3636M8.27272 14.2424H5M8.27272 14.2424C8.33175 15.7772 8.73232 17.1355 9.47469 18.2424M8.27272 14.2424C8.25403 13.7563 8.27724 13.2673 8.34121 12.7879M15.9091 12.303C14.4545 11.697 14.4545 11.697 12.8788 11.697C10.6964 11.697 8.34121 12.7879 8.34121 12.7879M15.9091 12.303C16.5 12 17.3636 11.8182 17.3636 11.8182C17.2651 11.3585 17.0599 10.8544 16.7673 10.3636M15.9091 12.303C14.5 13 13 14.5 12.5 16.5C11.9483 18.707 12.8788 20.7879 12.8788 20.7879C11.3777 20.2644 10.2431 19.3881 9.47469 18.2424M8.34121 12.7879C8.4564 11.9245 8.70376 11.0922 9.07655 10.3636M9.12121 6L11.2068 8.18182M11.2068 8.18182C11.7049 7.94837 12.2631 7.81818 12.8788 7.81818C13.4363 7.81818 13.9654 7.95315 14.4524 8.18182M11.2068 8.18182C10.2865 8.61317 9.57112 9.39706 9.07655 10.3636M16.3939 6L14.4524 8.18182M14.4524 8.18182C15.432 8.64187 16.241 9.48118 16.7673 10.3636M19.9091 7.93939L18.5758 10.3636H16.7673M5.60606 7.93939L6.93939 10.3636H9.07655M5.84848 21.0303L7.30303 18.2424H9.47469" stroke="#5F5C5C" stroke-width="1.5" stroke-linecap="round" stroke-linejoin="round"/>
<path d="M25.0001 24.5455L23.202 22.6667L22.7525 22.197M18.5758 14.2424C16.4671 14.2759 14.8182 16.0122 14.8182 18.1212C14.8182 20.2302 16.4671 21.9665 18.5758 22C19.691 22.0177 20.6963 21.5463 21.404 20.7879C22.0555 20.0896 22.4546 19.1481 22.4546 18.1212C22.4546 15.979 20.7177 14.2084 18.5758 14.2424Z" stroke="#5F5C5C" stroke-width="1.5" stroke-linecap="round" stroke-linejoin="round"/>
</svg>
