<svg width="30" height="30" viewBox="0 0 30 30" fill="none" xmlns="http://www.w3.org/2000/svg">
<g clip-path="url(#clip0_5568_212710)">
<path d="M28.3347 8.12191C27.6416 6.779 26.7331 5.51854 25.6074 4.39283C24.4817 3.26707 23.2211 2.35857 21.8783 1.66553L11.311 11.3104L1.66602 21.8777C2.35912 23.2206 3.26762 24.4812 4.39332 25.6069C5.51902 26.7326 6.77955 27.6411 8.1224 28.3342L18.6897 18.6892L28.3347 8.12191Z" fill="#FFDA44"/>
<path d="M4.39344 25.607C5.02268 26.2362 5.6941 26.7974 6.39834 27.2916L27.2919 6.39785C26.7979 5.69361 26.2367 5.02219 25.6075 4.39295C24.9782 3.76371 24.3068 3.20256 23.6026 2.7085L2.70898 23.6021C3.20299 24.3062 3.76414 24.9778 4.39344 25.607V25.607Z" fill="#D80027"/>
<path d="M4.39301 4.39289C-0.339427 9.12533 -1.24792 16.2326 1.66571 21.8778L21.878 1.66564C16.2327 -1.24793 9.1254 -0.339321 4.39301 4.39289V4.39289Z" fill="#338AF3"/>
<path d="M25.607 25.607C30.3394 20.8746 31.2478 13.7673 28.3343 8.12207L8.12207 28.3343C13.7673 31.2479 20.8746 30.3394 25.607 25.607V25.607Z" fill="#338AF3"/>
<path d="M7.99336 4.5647L8.80277 7.05593H11.4221L9.30305 8.59554L10.1125 11.0867L7.99336 9.54704L5.87414 11.0867L6.68367 8.59554L4.56445 7.05593H7.18383L7.99336 4.5647Z" fill="#FFDA44"/>
</g>
<rect x="0.5" y="0.5" width="29" height="29" rx="14.5" stroke="#D7D7D7"/>
<defs>
<clipPath id="clip0_5568_212710">
<rect width="30" height="30" rx="15" fill="white"/>
</clipPath>
</defs>
</svg>
