<svg width="30" height="30" viewBox="0 0 30 30" fill="none" xmlns="http://www.w3.org/2000/svg">
<g clip-path="url(#clip0_5568_212717)">
<path d="M15 30C23.2843 30 30 23.2843 30 15C30 6.71573 23.2843 0 15 0C6.71573 0 0 6.71573 0 15C0 23.2843 6.71573 30 15 30Z" fill="#F0F0F0"/>
<path d="M11.7393 13.0435H29.8731C28.9144 5.68371 22.6212 0 15.0001 0C13.8801 0 12.7893 0.123809 11.7393 0.356543V13.0435H11.7393Z" fill="#D80027"/>
<path d="M7.82605 13.0433V1.82373C3.70732 4.07104 0.75877 8.19316 0.126953 13.0434H7.82605V13.0433Z" fill="#D80027"/>
<path d="M7.826 16.9565H0.126953C0.75877 21.8068 3.70732 25.9289 7.82605 28.1761L7.826 16.9565Z" fill="#D80027"/>
<path d="M11.7393 16.9566V29.6435C12.7893 29.8762 13.8801 30 15.0001 30C22.6212 30 28.9144 24.3163 29.8731 16.9565H11.7393V16.9566Z" fill="#D80027"/>
</g>
<rect x="0.5" y="0.5" width="29" height="29" rx="14.5" stroke="#D7D7D7"/>
<defs>
<clipPath id="clip0_5568_212717">
<rect width="30" height="30" rx="15" fill="white"/>
</clipPath>
</defs>
</svg>
