<svg width="30" height="30" viewBox="0 0 30 30" fill="none" xmlns="http://www.w3.org/2000/svg">
<path d="M25 15C25 20.5228 20.5228 25 15 25C9.47715 25 5 20.5228 5 15C5 9.47715 9.47715 5 15 5C20.5228 5 25 9.47715 25 15Z" stroke="#5F5C5C" stroke-width="1.5"/>
<path d="M14 11C14 12.1046 13.1046 13 12 13C10.8954 13 10 12.1046 10 11C10 9.89543 10.8954 9 12 9C13.1046 9 14 9.89543 14 11Z" stroke="#5F5C5C" stroke-width="1.5"/>
<path d="M19 19.5C19 20.8807 17.8807 22 16.5 22C15.1193 22 14 20.8807 14 19.5C14 18.1193 15.1193 17 16.5 17C17.8807 17 19 18.1193 19 19.5Z" stroke="#5F5C5C" stroke-width="1.5"/>
<path d="M11 17.5C11 18.3284 10.3284 19 9.5 19C8.67157 19 8 18.3284 8 17.5C8 16.6716 8.67157 16 9.5 16C10.3284 16 11 16.6716 11 17.5Z" stroke="#5F5C5C" stroke-width="1.5"/>
<path d="M23 14.5C23 15.3284 22.3284 16 21.5 16C20.6716 16 20 15.3284 20 14.5C20 13.6716 20.6716 13 21.5 13C22.3284 13 23 13.6716 23 14.5Z" stroke="#5F5C5C" stroke-width="1.5"/>
<path d="M19 10C19 10.5523 18.5523 11 18 11C17.4477 11 17 10.5523 17 10C17 9.44772 17.4477 9 18 9C18.5523 9 19 9.44772 19 10Z" stroke="#5F5C5C" stroke-width="1.5"/>
</svg>
