<svg width="30" height="30" viewBox="0 0 30 30" fill="none" xmlns="http://www.w3.org/2000/svg">
<path d="M5.49954 12H24.4995M12.9995 6L10.9995 12L14.9995 23.5L18.9995 12L16.9995 6M15.6141 23.2625L24.5727 12.5121C24.7246 12.33 24.8005 12.2389 24.8295 12.1372C24.8551 12.0475 24.8551 11.9525 24.8295 11.8628C24.8005 11.7611 24.7246 11.67 24.5727 11.4879L20.2394 6.28785C20.1512 6.18204 20.1072 6.12914 20.0531 6.09111C20.0052 6.05741 19.9518 6.03238 19.8953 6.01717C19.8314 6 19.7626 6 19.6248 6H10.3742C10.2365 6 10.1676 6 10.1038 6.01717C10.0473 6.03238 9.99385 6.05741 9.94596 6.09111C9.89192 6.12914 9.84783 6.18204 9.75966 6.28785L5.42633 11.4879C5.2745 11.67 5.19858 11.7611 5.16957 11.8628C5.144 11.9525 5.144 12.0475 5.16957 12.1372C5.19858 12.2389 5.2745 12.33 5.42633 12.5121L14.385 23.2625C14.596 23.5158 14.7015 23.6424 14.8279 23.6886C14.9387 23.7291 15.0603 23.7291 15.1712 23.6886C15.2975 23.6424 15.4031 23.5158 15.6141 23.2625Z" stroke="#5F5C5C" stroke-width="1.5" stroke-linecap="round" stroke-linejoin="round"/>
</svg>
