<svg width="30" height="30" viewBox="0 0 30 30" fill="none" xmlns="http://www.w3.org/2000/svg">
<path d="M18.25 11.75H18.255M11.75 18.25H11.755M10.8 24H19.2C20.8802 24 21.7202 24 22.362 23.673C22.9265 23.3854 23.3854 22.9265 23.673 22.362C24 21.7202 24 20.8802 24 19.2V10.8C24 9.11984 24 8.27976 23.673 7.63803C23.3854 7.07354 22.9265 6.6146 22.362 6.32698C21.7202 6 20.8802 6 19.2 6H10.8C9.11984 6 8.27976 6 7.63803 6.32698C7.07354 6.6146 6.6146 7.07354 6.32698 7.63803C6 8.27976 6 9.11984 6 10.8V19.2C6 20.8802 6 21.7202 6.32698 22.362C6.6146 22.9265 7.07354 23.3854 7.63803 23.673C8.27976 24 9.11984 24 10.8 24ZM18.5 11.75C18.5 11.8881 18.3881 12 18.25 12C18.1119 12 18 11.8881 18 11.75C18 11.6119 18.1119 11.5 18.25 11.5C18.3881 11.5 18.5 11.6119 18.5 11.75ZM12 18.25C12 18.3881 11.8881 18.5 11.75 18.5C11.6119 18.5 11.5 18.3881 11.5 18.25C11.5 18.1119 11.6119 18 11.75 18C11.8881 18 12 18.1119 12 18.25Z" stroke="#5F5C5C" stroke-width="1.5" stroke-linecap="round" stroke-linejoin="round"/>
</svg>
