<svg width="30" height="30" viewBox="0 0 30 30" fill="none" xmlns="http://www.w3.org/2000/svg">
<path d="M19.25 10.75H19.255M19.25 14.75H19.255M19.25 19.25H19.255M10.75 10.75H10.755M10.75 14.75H10.755M10.75 19.25H10.755M10.8 24H19.2C20.8802 24 21.7202 24 22.362 23.673C22.9265 23.3854 23.3854 22.9265 23.673 22.362C24 21.7202 24 20.8802 24 19.2V10.8C24 9.11984 24 8.27976 23.673 7.63803C23.3854 7.07354 22.9265 6.6146 22.362 6.32698C21.7202 6 20.8802 6 19.2 6H10.8C9.11984 6 8.27976 6 7.63803 6.32698C7.07354 6.6146 6.6146 7.07354 6.32698 7.63803C6 8.27976 6 9.11984 6 10.8V19.2C6 20.8802 6 21.7202 6.32698 22.362C6.6146 22.9265 7.07354 23.3854 7.63803 23.673C8.27976 24 9.11984 24 10.8 24ZM19.5 10.75C19.5 10.8881 19.3881 11 19.25 11C19.1119 11 19 10.8881 19 10.75C19 10.6119 19.1119 10.5 19.25 10.5C19.3881 10.5 19.5 10.6119 19.5 10.75ZM19.5 14.75C19.5 14.8881 19.3881 15 19.25 15C19.1119 15 19 14.8881 19 14.75C19 14.6119 19.1119 14.5 19.25 14.5C19.3881 14.5 19.5 14.6119 19.5 14.75ZM19.5 19.25C19.5 19.3881 19.3881 19.5 19.25 19.5C19.1119 19.5 19 19.3881 19 19.25C19 19.1119 19.1119 19 19.25 19C19.3881 19 19.5 19.1119 19.5 19.25ZM11 10.75C11 10.8881 10.8881 11 10.75 11C10.6119 11 10.5 10.8881 10.5 10.75C10.5 10.6119 10.6119 10.5 10.75 10.5C10.8881 10.5 11 10.6119 11 10.75ZM11 14.75C11 14.8881 10.8881 15 10.75 15C10.6119 15 10.5 14.8881 10.5 14.75C10.5 14.6119 10.6119 14.5 10.75 14.5C10.8881 14.5 11 14.6119 11 14.75ZM11 19.25C11 19.3881 10.8881 19.5 10.75 19.5C10.6119 19.5 10.5 19.3881 10.5 19.25C10.5 19.1119 10.6119 19 10.75 19C10.8881 19 11 19.1119 11 19.25Z" stroke="#5F5C5C" stroke-width="1.5" stroke-linecap="round" stroke-linejoin="round"/>
</svg>
