<svg width="30" height="30" viewBox="0 0 30 30" fill="none" xmlns="http://www.w3.org/2000/svg">
<rect width="30" height="30" rx="2" fill="white"/>
<path d="M15 10C16.3807 10 17.5 8.88071 17.5 7.5C17.5 6.11929 16.3807 5 15 5C13.6193 5 12.5 6.11929 12.5 7.5C12.5 8.88071 13.6193 10 15 10Z" fill="#5F5C5C"/>
<path d="M15 25C16.3807 25 17.5 23.8807 17.5 22.5C17.5 21.1193 16.3807 20 15 20C13.6193 20 12.5 21.1193 12.5 22.5C12.5 23.8807 13.6193 25 15 25Z" fill="#5F5C5C"/>
<path d="M5 15H25M17.5 7.5C17.5 8.88071 16.3807 10 15 10C13.6193 10 12.5 8.88071 12.5 7.5C12.5 6.11929 13.6193 5 15 5C16.3807 5 17.5 6.11929 17.5 7.5ZM17.5 22.5C17.5 23.8807 16.3807 25 15 25C13.6193 25 12.5 23.8807 12.5 22.5C12.5 21.1193 13.6193 20 15 20C16.3807 20 17.5 21.1193 17.5 22.5Z" stroke="#5F5C5C" stroke-width="1.5" stroke-linecap="round" stroke-linejoin="round"/>
</svg>
