<svg width="30" height="30" viewBox="0 0 30 30" fill="none" xmlns="http://www.w3.org/2000/svg">
<rect width="30" height="30" rx="2" fill="white"/>
<path d="M5 15H25M16.25 7.5C16.25 8.19036 15.6904 8.75 15 8.75C14.3096 8.75 13.75 8.19036 13.75 7.5C13.75 6.80964 14.3096 6.25 15 6.25C15.6904 6.25 16.25 6.80964 16.25 7.5ZM16.25 22.5C16.25 23.1904 15.6904 23.75 15 23.75C14.3096 23.75 13.75 23.1904 13.75 22.5C13.75 21.8096 14.3096 21.25 15 21.25C15.6904 21.25 16.25 21.8096 16.25 22.5Z" stroke="#5F5C5C" stroke-width="1.5" stroke-linecap="round" stroke-linejoin="round"/>
</svg>
