<svg width="30" height="30" viewBox="0 0 30 30" fill="none" xmlns="http://www.w3.org/2000/svg">
<rect width="30" height="30" rx="2" fill="white"/>
<path d="M15 10H15.0125M15 20H15.0125M8.75 15H21.25M15.625 10C15.625 10.3452 15.3452 10.625 15 10.625C14.6548 10.625 14.375 10.3452 14.375 10C14.375 9.65482 14.6548 9.375 15 9.375C15.3452 9.375 15.625 9.65482 15.625 10ZM15.625 20C15.625 20.3452 15.3452 20.625 15 20.625C14.6548 20.625 14.375 20.3452 14.375 20C14.375 19.6548 14.6548 19.375 15 19.375C15.3452 19.375 15.625 19.6548 15.625 20ZM27.5 15C27.5 21.9036 21.9036 27.5 15 27.5C8.09644 27.5 2.5 21.9036 2.5 15C2.5 8.09644 8.09644 2.5 15 2.5C21.9036 2.5 27.5 8.09644 27.5 15Z" stroke="#5F5C5C" stroke-width="1.5" stroke-linecap="round" stroke-linejoin="round"/>
</svg>
