<svg width="30" height="30" viewBox="0 0 30 30" fill="none" xmlns="http://www.w3.org/2000/svg">
<g clip-path="url(#clip0_5568_212724)">
<path d="M13.6958 16.3044C13.6958 16.3044 4.40234 4.39131 4.39355 4.39342C7.10797 1.67895 10.858 0 15.0002 0C23.2844 0 30.0002 6.71578 30.0002 15L13.6958 16.3044Z" fill="#338AF3"/>
<path d="M13.6958 15C13.6958 15 4.40234 25.6087 4.39355 25.6066C7.10797 28.3211 10.858 30 15.0002 30C23.2844 30 30.0002 23.2842 30.0002 15H13.6958Z" fill="#6DA544"/>
<path d="M4.39339 4.39331C-1.46446 10.2512 -1.46446 19.7487 4.39339 25.6066C6.81407 23.1859 9.14218 20.8578 15 15L4.39339 4.39331Z" fill="#F0F0F0"/>
<path d="M6.07045 11.0869L7.04164 14.0761H10.185L7.64211 15.9237L8.61324 18.913L6.07045 17.0655L3.52754 18.913L4.49891 15.9237L1.95605 14.0761H5.09914L6.07045 11.0869Z" fill="#D80027"/>
</g>
<rect x="0.5" y="0.5" width="29" height="29" rx="14.5" stroke="#D7D7D7"/>
<defs>
<clipPath id="clip0_5568_212724">
<rect width="30" height="30" rx="15" fill="white"/>
</clipPath>
</defs>
</svg>
