<svg width="30" height="30" viewBox="0 0 30 30" fill="none" xmlns="http://www.w3.org/2000/svg">
<g clip-path="url(#clip0_5568_212729)">
<path d="M15 30C23.2843 30 30 23.2843 30 15C30 6.71573 23.2843 0 15 0C6.71573 0 0 6.71573 0 15C0 23.2843 6.71573 30 15 30Z" fill="#F0F0F0"/>
<path d="M17.9346 29.7122C23.8644 28.5358 28.5356 23.8646 29.7119 17.9348H17.9346V29.7122Z" fill="#496E2D"/>
<path d="M0.288086 17.9348C1.46436 23.8646 6.13557 28.5358 12.0654 29.7122V17.9348H0.288086Z" fill="#496E2D"/>
<path d="M29.7119 12.0652C28.5356 6.13538 23.8644 1.46417 17.9346 0.287842V12.0652H29.7119Z" fill="#496E2D"/>
<path d="M12.0654 0.287842C6.13557 1.46417 1.46436 6.13538 0.288086 12.0652H12.0654V0.287842Z" fill="#496E2D"/>
<path d="M14.0219 17.9348H12.0654V29.7122C12.7039 29.8388 13.3571 29.9246 14.0219 29.9674V17.9348Z" fill="#FFDA44"/>
<path d="M14.0219 12.0653V0.0327148C13.3571 0.0754883 12.7039 0.161328 12.0654 0.287949V12.0653H14.0219Z" fill="#FFDA44"/>
<path d="M15.978 0.0326367C15.6545 0.0117187 15.3285 0 14.9998 0C14.671 0 14.345 0.0117187 14.0215 0.0326367V12.0653H15.978V0.0326367H15.978Z" fill="black"/>
<path d="M14.0215 29.9674C14.345 29.9883 14.671 30 14.9998 30C15.3285 30 15.6545 29.9883 15.978 29.9674V17.9348H14.0215V29.9674H14.0215Z" fill="black"/>
<path d="M12.0648 14.0217V12.0652H0.287461C0.160781 12.7037 0.075 13.3568 0.0322266 14.0217H12.0648Z" fill="#FFDA44"/>
<path d="M17.9346 14.0217H29.9672C29.9244 13.3568 29.8386 12.7037 29.712 12.0652H17.9346V14.0217H17.9346Z" fill="#FFDA44"/>
<path d="M17.9346 15.9783H29.9672C29.9881 15.6548 29.9998 15.3288 29.9998 15C29.9998 14.6712 29.9881 14.3452 29.9671 14.0217H17.9346V15.9783Z" fill="black"/>
<path d="M0.0326367 14.0217C0.0117773 14.3452 0 14.6712 0 15C0 15.3288 0.0117773 15.6548 0.0326367 15.9783H12.0653V14.0218H0.0326367V14.0217Z" fill="black"/>
<path d="M15.0001 22.174C18.9621 22.174 22.174 18.9621 22.174 15.0001C22.174 11.038 18.9621 7.82617 15.0001 7.82617C11.038 7.82617 7.82617 11.038 7.82617 15.0001C7.82617 18.9621 11.038 22.174 15.0001 22.174Z" fill="#D80027"/>
<path d="M16.6344 15.8003C16.1008 14.7331 15.4072 13.6515 15.4072 13.6515C15.4072 13.6515 15.4244 13.159 15.4244 12.8656C15.4244 12.4235 15.0661 12.0652 14.624 12.0652C14.2053 12.0652 13.8621 12.3869 13.8272 12.7966C13.4979 12.8181 13.2373 13.0912 13.2373 13.4259C13.2373 13.6692 13.3752 13.8801 13.577 13.9855C13.6773 13.7509 13.8737 13.5678 14.1166 13.4843C14.1562 13.5167 14.1988 13.5456 14.2442 13.5702L14.3467 13.6193C14.3467 13.6193 13.9665 14.691 13.9665 15.2667C13.9665 16.8853 15.0337 17.3845 15.0337 17.3845V17.4012L14.5001 17.9348H15.5673V16.8675L16.1009 17.4011C16.1056 17.3911 17.1116 16.7549 16.6344 15.8003V15.8003Z" fill="#496E2D"/>
<path d="M15.0002 9.13037L15.243 9.87768H16.0288L15.3931 10.3396L15.636 11.0869L15.0002 10.625L14.3645 11.0869L14.6074 10.3396L13.9717 9.87768H14.7574L15.0002 9.13037Z" fill="#496E2D"/>
<path d="M11.5502 10.2513L12.1858 10.7132L12.8215 10.2512L12.5787 10.9986L13.2145 11.4604L12.4287 11.4605L12.1858 12.2078L11.943 11.4605L11.1572 11.4604L11.7929 10.9985L11.5502 10.2513Z" fill="#496E2D"/>
<path d="M9.41797 13.1863H10.2037L10.4465 12.439L10.6893 13.1863L11.4751 13.1862L10.8395 13.6482L11.0823 14.3955L10.4465 13.9336L9.81084 14.3954L10.0536 13.6481L9.41797 13.1863Z" fill="#496E2D"/>
<path d="M9.41797 16.8136L10.0536 16.3519L9.81078 15.6045L10.4465 16.0664L11.0823 15.6045L10.8395 16.3518L11.4752 16.8137L10.6893 16.8138L10.4465 17.561L10.2037 16.8136H9.41797Z" fill="#496E2D"/>
<path d="M11.5502 19.7484L11.793 19.0013L11.1572 18.5394H11.943L12.1859 17.792L12.4287 18.5393H13.2145L12.5788 19.0013L12.8216 19.7485L12.1858 19.2866L11.5502 19.7484Z" fill="#496E2D"/>
<path d="M15.0002 20.8696L14.7574 20.1224H13.9717L14.6074 19.6604L14.3645 18.9131L15.0002 19.3749L15.6359 18.9131L15.3931 19.6604L16.0288 20.1223L15.243 20.1224L15.0002 20.8696Z" fill="#496E2D"/>
<path d="M18.4504 19.7484L17.8148 19.2866L17.1791 19.7486L17.4219 19.0013L16.7861 18.5394L17.5719 18.5393L17.8147 17.792L18.0576 18.5394H18.8434L18.2077 19.0013L18.4504 19.7484Z" fill="#496E2D"/>
<path d="M20.5826 16.8138H19.7969L19.5541 17.5612L19.3112 16.8139H18.5254L19.1611 16.352L18.9183 15.6047L19.5541 16.0666L20.1897 15.6047L19.947 16.352L20.5826 16.8138Z" fill="#496E2D"/>
<path d="M20.5826 13.1862L19.947 13.648L20.1897 14.3954L19.5541 13.9335L18.9183 14.3955L19.1611 13.6481L18.5254 13.1863L19.3112 13.1862L19.554 12.439L19.7969 13.1862H20.5826Z" fill="#496E2D"/>
<path d="M18.4504 10.2515L18.2077 10.9987L18.8434 11.4606H18.0576L17.8148 12.208L17.5719 11.4607L16.7861 11.4607L17.4219 10.9987L17.1791 10.2515L17.8148 10.7133L18.4504 10.2515Z" fill="#496E2D"/>
</g>
<rect x="0.5" y="0.5" width="29" height="29" rx="14.5" stroke="#D7D7D7"/>
<defs>
<clipPath id="clip0_5568_212729">
<rect width="30" height="30" rx="15" fill="white"/>
</clipPath>
</defs>
</svg>
