<svg width="30" height="30" viewBox="0 0 30 30" fill="none" xmlns="http://www.w3.org/2000/svg">
<g clip-path="url(#clip0_5568_212759)">
<path d="M15 30C23.2843 30 30 23.2843 30 15C30 6.71573 23.2843 0 15 0C6.71573 0 0 6.71573 0 15C0 23.2843 6.71573 30 15 30Z" fill="#F0F0F0"/>
<path d="M0.516602 18.9131C1.90164 24.0519 5.94795 28.0983 11.0869 29.4833V18.9131H0.516602Z" fill="#D80027"/>
<path d="M11.0868 0.516846C5.94795 1.90183 1.90158 5.94819 0.516602 11.087H11.0869V0.516846H11.0868Z" fill="#0052B4"/>
<path d="M29.4833 11.087C28.0983 5.94819 24.0519 1.90183 18.9131 0.516846V11.0871H29.4833V11.087Z" fill="#D80027"/>
<path d="M18.9131 29.4833C24.0519 28.0983 28.0983 24.052 29.4833 18.9131H18.9131V29.4833Z" fill="#0052B4"/>
<path d="M18.913 15C18.913 17.1612 17.1612 18.913 15 18.913C12.8389 18.913 11.0869 17.1612 11.0869 15C11.0869 12.8388 15 11.0869 15 11.0869C15 11.0869 18.913 12.8388 18.913 15Z" fill="#496E2D"/>
<path d="M11.0869 15C11.0869 12.8388 12.8389 11.0869 15 11.0869C17.1612 11.0869 18.913 12.8388 18.913 15" fill="#0052B4"/>
<path d="M12.7988 13.0435V15.4891C12.7988 16.7047 13.7843 17.6902 14.9999 17.6902C16.2155 17.6902 17.201 16.7047 17.201 15.4891V13.0435H12.7988Z" fill="#D80027"/>
</g>
<rect x="0.5" y="0.5" width="29" height="29" rx="14.5" stroke="#D7D7D7"/>
<defs>
<clipPath id="clip0_5568_212759">
<rect width="30" height="30" rx="15" fill="white"/>
</clipPath>
</defs>
</svg>
