<svg width="30" height="30" viewBox="0 0 30 30" fill="none" xmlns="http://www.w3.org/2000/svg">
<g clip-path="url(#clip0_5568_212768)">
<path d="M15 30C23.2843 30 30 23.2843 30 15C30 6.71573 23.2843 0 15 0C6.71573 0 0 6.71573 0 15C0 23.2843 6.71573 30 15 30Z" fill="#FFDA44"/>
<path d="M15.0001 0C11.3276 0 7.96398 1.32053 5.35645 3.51176L21.5218 15L5.35645 26.4882C7.96398 28.6795 11.3276 30 15.0001 30C23.2843 30 30.0001 23.2842 30.0001 15C30.0001 6.71578 23.2843 0 15.0001 0Z" fill="#D80027"/>
<path d="M4.39339 4.39331C-1.46446 10.2512 -1.46446 19.7487 4.39339 25.6066C6.81407 23.1859 9.14218 20.8578 15 15L4.39339 4.39331Z" fill="black"/>
<path d="M4.15873 11.5637L6.44154 13.7242L9.20178 12.2204L7.85266 15.0593L10.1355 17.2198L7.01869 16.8139L5.66939 19.6527L5.09242 16.5629L1.97559 16.1569L4.7357 14.6533L4.15873 11.5637Z" fill="#F0F0F0"/>
</g>
<rect x="0.5" y="0.5" width="29" height="29" rx="14.5" stroke="#D7D7D7"/>
<defs>
<clipPath id="clip0_5568_212768">
<rect width="30" height="30" rx="15" fill="white"/>
</clipPath>
</defs>
</svg>
