<svg width="30" height="30" viewBox="0 0 30 30" fill="none" xmlns="http://www.w3.org/2000/svg">
<path d="M9.50014 21H20.3294C21.2793 21 21.7543 21 22.1414 20.8284C22.4827 20.6771 22.7748 20.4333 22.9847 20.1246C23.2228 19.7744 23.3078 19.3071 23.4777 18.3724L24.8285 11.4431C24.8874 11.1192 24.9169 10.9572 24.8714 10.8307C24.8315 10.7198 24.7536 10.6265 24.6516 10.5674C24.5353 10.5 24.3707 10.5 24.0414 10.5H22M8.00014 10.5H9.34187H10.6836M5 6H6.3164C6.55909 6 6.68044 6 6.77858 6.04433C6.86507 6.0834 6.93867 6.14628 6.99075 6.22563C7.04984 6.31565 7.06876 6.43551 7.10662 6.67523L9.89338 24.3248C9.93124 24.5645 9.95016 24.6843 10.0093 24.7744C10.0613 24.8537 10.1349 24.9166 10.2214 24.9557C10.3196 25 10.4409 25 10.6836 25H22" stroke="#5F5C5C" stroke-width="1.5" stroke-linecap="round" stroke-linejoin="round"/>
<path d="M21 13.5C21 15.9853 18.9853 18 16.5 18M21 13.5C21 11.0147 18.9853 9 16.5 9M21 13.5H12M16.5 18C14.0147 18 12 15.9853 12 13.5M16.5 18C17.6256 16.7677 18.2658 15.1686 18.3006 13.5C18.2658 11.8314 17.6256 10.2323 16.5 9M16.5 18C15.3744 16.7677 14.7353 15.1686 14.7006 13.5C14.7353 11.8314 15.3744 10.2323 16.5 9M12 13.5C12 11.0147 14.0147 9 16.5 9" stroke="#5F5C5C" stroke-width="1.5" stroke-linecap="round" stroke-linejoin="round"/>
</svg>
