<svg width="30" height="30" viewBox="0 0 30 30" fill="none" xmlns="http://www.w3.org/2000/svg">
<path d="M25 15C25 20.5228 20.5228 25 15 25M25 15C25 9.47715 20.5228 5 15 5M25 15H5M15 25C9.47715 25 5 20.5228 5 15M15 25C17.5013 22.2616 18.9241 18.708 19.0013 15C18.9241 11.292 17.5013 7.73835 15 5M15 25C12.4987 22.2616 11.0785 18.708 11.0013 15C11.0785 11.292 12.4987 7.73835 15 5M5 15C5 9.47715 9.47715 5 15 5" stroke="#5F5C5C" stroke-width="1.5" stroke-linecap="round" stroke-linejoin="round"/>
</svg>
