<svg width="30" height="30" viewBox="0 0 30 30" fill="none" xmlns="http://www.w3.org/2000/svg">
<g clip-path="url(#clip0_5568_212773)">
<path d="M0 15C0 6.71578 6.71578 0 15 0C23.2842 0 30 6.71578 30 15L15 16.3044L0 15Z" fill="#FFDA44"/>
<path d="M2.00684 22.5C4.60049 26.9834 9.4476 30 14.9996 30C20.5517 30 25.3988 26.9834 27.9925 22.5L14.9996 21.5217L2.00684 22.5Z" fill="#D80027"/>
<path d="M27.9928 22.5C29.2691 20.2937 30 17.7323 30 15H0C0 17.7323 0.730898 20.2937 2.00719 22.5H27.9928Z" fill="#0052B4"/>
<path d="M14.9996 20.2174C17.8811 20.2174 20.217 17.8815 20.217 15.0001C20.217 12.1186 17.8811 9.78271 14.9996 9.78271C12.1181 9.78271 9.78223 12.1186 9.78223 15.0001C9.78223 17.8815 12.1181 20.2174 14.9996 20.2174Z" fill="#FFDA44"/>
<path d="M15.0001 18.2609C13.2021 18.2609 11.7393 16.7981 11.7393 15.0001V13.0436C11.7393 11.2455 13.2021 9.78271 15.0001 9.78271C16.7981 9.78271 18.261 11.2456 18.261 13.0436V15.0001C18.261 16.7981 16.7982 18.2609 15.0001 18.2609Z" fill="#338AF3"/>
<path d="M20.2171 7.17398H16.304C16.304 6.45363 15.72 5.86963 14.9996 5.86963C14.2793 5.86963 13.6953 6.45363 13.6953 7.17398H9.78223C9.78223 7.89439 10.4097 8.47834 11.13 8.47834H11.0866C11.0866 9.19875 11.6705 9.7827 12.3909 9.7827C12.3909 10.5031 12.9749 11.0871 13.6953 11.0871H16.304C17.0244 11.0871 17.6084 10.5031 17.6084 9.7827C18.3288 9.7827 18.9127 9.19875 18.9127 8.47834H18.8693C19.5896 8.47834 20.2171 7.89434 20.2171 7.17398V7.17398Z" fill="black"/>
</g>
<rect x="0.5" y="0.5" width="29" height="29" rx="14.5" stroke="#D7D7D7"/>
<defs>
<clipPath id="clip0_5568_212773">
<rect width="30" height="30" rx="15" fill="white"/>
</clipPath>
</defs>
</svg>
