<svg width="30" height="30" viewBox="0 0 30 30" fill="none" xmlns="http://www.w3.org/2000/svg">
<rect width="30" height="30" rx="2" fill="white"/>
<path d="M5.87604 21.1157C5.92198 20.7022 5.94496 20.4955 6.00751 20.3022C6.06301 20.1308 6.14143 19.9676 6.24064 19.8172C6.35246 19.6476 6.49955 19.5005 6.79373 19.2063L20 6.00006C21.1046 4.89549 22.8955 4.89549 24 6.00006C25.1046 7.10463 25.1046 8.89549 24 10.0001L10.7937 23.2063C10.4995 23.5005 10.3525 23.6476 10.1829 23.7594C10.0324 23.8586 9.86929 23.937 9.69785 23.9925C9.5046 24.0551 9.29786 24.0781 8.88437 24.124L5.5 24.5001L5.87604 21.1157Z" fill="#5F5C5C" stroke="#5F5C5C" stroke-linecap="round" stroke-linejoin="round"/>
</svg>
