<svg width="30" height="30" viewBox="0 0 30 30" fill="none" xmlns="http://www.w3.org/2000/svg">
<rect width="30" height="30" rx="2" fill="white"/>
<path d="M24 21L22.9999 22.094C22.4695 22.6741 21.7501 23 21.0001 23C20.2501 23 19.5308 22.6741 19.0004 22.094C18.4692 21.5151 17.75 21.1901 17.0002 21.1901C16.2504 21.1901 15.5311 21.5151 15 22.094M6 23H7.67454C8.16372 23 8.40832 23 8.63849 22.9447C8.84256 22.8957 9.03765 22.8149 9.2166 22.7053C9.41843 22.5816 9.59138 22.4086 9.93729 22.0627L22.5 9.49998C23.3285 8.67156 23.3285 7.32841 22.5 6.49998C21.6716 5.67156 20.3285 5.67156 19.5 6.49998L6.93726 19.0627C6.59136 19.4086 6.4184 19.5816 6.29472 19.7834C6.18506 19.9624 6.10425 20.1574 6.05526 20.3615C6 20.5917 6 20.8363 6 21.3255V23Z" stroke="#5F5C5C" stroke-width="1.5" stroke-linecap="round" stroke-linejoin="round"/>
</svg>
