<svg width="30" height="30" viewBox="0 0 30 30" fill="none" xmlns="http://www.w3.org/2000/svg">
<rect width="30" height="30" rx="2" fill="white"/>
<path d="M21 13.0001L17 9.00006M5.5 24.5001L8.88437 24.124C9.29786 24.0781 9.5046 24.0551 9.69785 23.9925C9.86929 23.937 10.0324 23.8586 10.1829 23.7594C10.3525 23.6476 10.4995 23.5005 10.7937 23.2063L24 10.0001C25.1046 8.89549 25.1046 7.10463 24 6.00006C22.8955 4.89549 21.1046 4.89549 20 6.00006L6.79373 19.2063C6.49955 19.5005 6.35246 19.6476 6.24064 19.8172C6.14143 19.9676 6.06301 20.1308 6.00751 20.3022C5.94496 20.4955 5.92198 20.7022 5.87604 21.1157L5.5 24.5001Z" stroke="#5F5C5C" stroke-width="1.5" stroke-linecap="round" stroke-linejoin="round"/>
</svg>
