<svg width="30" height="30" viewBox="0 0 30 30" fill="none" xmlns="http://www.w3.org/2000/svg">
<rect width="30" height="30" rx="2" fill="white"/>
<path d="M11 17.3255C11 16.8363 11 16.5917 11.0553 16.3615C11.1043 16.1574 11.1851 15.9624 11.2947 15.7834C11.4184 15.5816 11.5914 15.4086 11.9373 15.0627L21.5 5.49998C22.3285 4.67155 23.6716 4.67156 24.5 5.49998C25.3285 6.32841 25.3285 7.67156 24.5 8.49998L14.9373 18.0627C14.5914 18.4086 14.4184 18.5816 14.2166 18.7053C14.0377 18.8149 13.8426 18.8957 13.6385 18.9447C13.4083 19 13.1637 19 12.6745 19H11V17.3255Z" fill="#5F5C5C" stroke="#5F5C5C" stroke-linecap="round" stroke-linejoin="round"/>
<path d="M14 7H9.8C8.11984 7 7.27976 7 6.63803 7.32698C6.07354 7.6146 5.6146 8.07354 5.32698 8.63803C5 9.27976 5 10.1198 5 11.8V20.2C5 21.8802 5 22.7202 5.32698 23.362C5.6146 23.9265 6.07354 24.3854 6.63803 24.673C7.27976 25 8.11984 25 9.8 25H18.2C19.8802 25 20.7202 25 21.362 24.673C21.9265 24.3854 22.3854 23.9265 22.673 23.362C23 22.7202 23 21.8802 23 20.2V16" stroke="#5F5C5C" stroke-width="2" stroke-linecap="round" stroke-linejoin="round"/>
</svg>
