<svg width="30" height="30" viewBox="0 0 30 30" fill="none" xmlns="http://www.w3.org/2000/svg">
<g clip-path="url(#clip0_5568_212780)">
<path d="M15 30C23.2843 30 30 23.2843 30 15C30 6.71573 23.2843 0 15 0C6.71573 0 0 6.71573 0 15C0 23.2843 6.71573 30 15 30Z" fill="#F0F0F0"/>
<path d="M14.9996 0C8.55016 0 3.05201 4.07063 0.932617 9.78264H29.0667C26.9472 4.07063 21.4491 0 14.9996 0V0Z" fill="#D80027"/>
<path d="M14.9996 29.9999C21.4491 29.9999 26.9472 25.9293 29.0666 20.2173H0.932617C3.05201 25.9293 8.55016 29.9999 14.9996 29.9999Z" fill="black"/>
<path d="M20.2171 13.3695H16.304C16.304 12.6492 15.72 12.0652 14.9996 12.0652C14.2793 12.0652 13.6953 12.6492 13.6953 13.3695H9.78223C9.78223 14.09 10.4097 14.6739 11.1301 14.6739H11.0866C11.0866 15.3943 11.6705 15.9783 12.3909 15.9783C12.3909 16.6987 12.9749 17.2826 13.6953 17.2826H16.304C17.0244 17.2826 17.6084 16.6987 17.6084 15.9783C18.3288 15.9783 18.9127 15.3943 18.9127 14.6739H18.8693C19.5896 14.6739 20.2171 14.09 20.2171 13.3695V13.3695Z" fill="#FF9811"/>
</g>
<rect x="0.5" y="0.5" width="29" height="29" rx="14.5" stroke="#D7D7D7"/>
<defs>
<clipPath id="clip0_5568_212780">
<rect width="30" height="30" rx="15" fill="white"/>
</clipPath>
</defs>
</svg>
