<svg width="30" height="30" viewBox="0 0 30 30" fill="none" xmlns="http://www.w3.org/2000/svg">
<g clip-path="url(#clip0_5568_212785)">
<path d="M15 30C23.2843 30 30 23.2843 30 15C30 6.71573 23.2843 0 15 0C6.71573 0 0 6.71573 0 15C0 23.2843 6.71573 30 15 30Z" fill="#F0F0F0"/>
<path d="M14.9999 0C9.05297 0 3.91453 3.46084 1.48828 8.47828H28.5114C26.0852 3.46084 20.9467 0 14.9999 0V0Z" fill="#0052B4"/>
<path d="M14.9999 30C20.9467 30 26.0852 26.5392 28.5115 21.5217H1.48828C3.91453 26.5392 9.05297 30 14.9999 30Z" fill="#0052B4"/>
<path d="M11.9873 15.6522L14.9996 10.4348L18.0119 15.6522H11.9873Z" fill="#FFDA44"/>
<path d="M18.913 17.3748L15 19.3313L11.0869 17.3748V14.7661H18.913V17.3748Z" fill="#6DA544"/>
<path d="M18.6888 10.6587L17.3053 12.0421C17.8954 12.6322 18.2605 13.4475 18.2605 14.3479C18.2605 16.1489 16.8005 17.6088 14.9996 17.6088C13.1987 17.6088 11.7387 16.1488 11.7387 14.3479C11.7387 13.4475 12.1038 12.6322 12.6939 12.0421L11.3104 10.6587C10.3662 11.6028 9.78223 12.9071 9.78223 14.3479C9.78223 17.2295 12.1181 19.5653 14.9996 19.5653C17.8811 19.5653 20.217 17.2294 20.217 14.3479C20.2169 12.9071 19.633 11.6028 18.6888 10.6587V10.6587Z" fill="#FFDA44"/>
</g>
<rect x="0.5" y="0.5" width="29" height="29" rx="14.5" stroke="#D7D7D7"/>
<defs>
<clipPath id="clip0_5568_212785">
<rect width="30" height="30" rx="15" fill="white"/>
</clipPath>
</defs>
</svg>
