<svg width="30" height="30" viewBox="0 0 30 30" fill="none" xmlns="http://www.w3.org/2000/svg">
<path d="M15 11.3756H12.5421C12.1586 11.3756 11.8089 11.1563 11.6419 10.8111L9.52469 6.43556C9.20336 5.7715 9.68713 5 10.4248 5H19.5751C20.3128 5 20.7966 5.7715 20.4753 6.43556L18.358 10.8111C18.191 11.1563 17.8413 11.3756 17.4579 11.3756H15ZM15 11.3756L14.8983 21.4834C13.2075 21.4895 10.5821 21.6477 9.31988 21.929C8.05764 22.2103 7.24303 22.5959 7.02526 23.0151C6.80749 23.4344 7.20114 23.8592 8.13411 24.2118C9.06708 24.5644 10.4769 24.8211 12.1053 24.935C13.7338 25.0489 17.4718 25.0123 19.0011 24.8319C20.5304 24.6515 21.7485 24.3394 22.4324 23.9527C23.1162 23.5661 23.22 23.1308 22.7248 22.7266C22.2295 22.3224 21.1683 21.9763 19.7356 21.7517M17.0104 19.2115L19.0954 17.1266M12.9895 19.2115L10.9046 17.1266" stroke="#5F5C5C" stroke-width="1.5" stroke-linecap="round"/>
</svg>
