<svg width="30" height="30" viewBox="0 0 30 30" fill="none" xmlns="http://www.w3.org/2000/svg">
<g clip-path="url(#clip0_5568_212796)">
<path d="M15 30C23.2843 30 30 23.2843 30 15C30 6.71573 23.2843 0 15 0C6.71573 0 0 6.71573 0 15C0 23.2843 6.71573 30 15 30Z" fill="#F0F0F0"/>
<path d="M9.1301 9.78264H29.0666C26.9473 4.07063 21.4491 0 14.9997 0C10.8574 0 7.10785 1.67924 4.39355 4.39389L9.1301 9.78264Z" fill="#6DA544"/>
<path d="M9.1301 20.2173H29.0666C26.9473 25.9293 21.4491 29.9999 14.9997 29.9999C10.8574 29.9999 7.10785 28.3207 4.39355 25.606L9.1301 20.2173Z" fill="#D80027"/>
<path d="M4.39339 4.39331C-1.46446 10.2512 -1.46446 19.7487 4.39339 25.6066C6.81407 23.1859 9.14218 20.8578 15 15L4.39339 4.39331Z" fill="#0052B4"/>
<path d="M17.6084 12.3914V15.6522C17.6084 17.6491 20.2171 18.261 20.2171 18.261C20.2171 18.261 22.8258 17.6491 22.8258 15.6522V12.3914H17.6084Z" fill="#DEDDE0"/>
<path d="M19.5654 15.0652H20.8698V16.9565H19.5654V15.0652Z" fill="#786145"/>
<path d="M21.5216 14.3478C21.5216 13.6274 20.9377 13.0435 20.2172 13.0435C19.4968 13.0435 18.9129 13.6274 18.9129 14.3478C18.5527 14.3478 18.2607 14.6398 18.2607 15C18.2607 15.3601 18.5527 15.6521 18.9129 15.6521H21.5216C21.8818 15.6521 22.1737 15.3601 22.1737 15C22.1737 14.6398 21.8818 14.3478 21.5216 14.3478V14.3478Z" fill="#6DA544"/>
</g>
<rect x="0.5" y="0.5" width="29" height="29" rx="14.5" stroke="#D7D7D7"/>
<defs>
<clipPath id="clip0_5568_212796">
<rect width="30" height="30" rx="15" fill="white"/>
</clipPath>
</defs>
</svg>
