<svg width="30" height="30" viewBox="0 0 30 30" fill="none" xmlns="http://www.w3.org/2000/svg">
<g clip-path="url(#clip0_5568_212804)">
<path d="M13.6958 13.6956C13.6958 13.6956 4.40234 25.6087 4.39355 25.6065C7.10797 28.321 10.858 29.9999 15.0002 29.9999C23.2844 29.9999 30.0002 23.2841 30.0002 14.9999L13.6958 13.6956Z" fill="#338AF3"/>
<path d="M13.6958 15C13.6958 15 4.40234 4.39131 4.39355 4.39342C7.10797 1.67895 10.858 0 15.0002 0C23.2844 0 30.0002 6.71578 30.0002 15H13.6958Z" fill="#6DA544"/>
<path d="M4.39339 4.39331C-1.46446 10.2512 -1.46446 19.7487 4.39339 25.6066C4.39298 25.609 30 15 30 15L4.39339 4.39331Z" fill="#D80027"/>
<path d="M7.82576 8.80444C4.94887 8.80444 2.6084 11.145 2.6084 14.0218V15.9783C2.6084 18.8552 4.94893 21.1957 7.82576 21.1957C10.7026 21.1957 13.0431 18.8551 13.0431 15.9783V14.0218C13.0432 11.145 10.7027 8.80444 7.82576 8.80444ZM11.0866 15.9784C11.0866 17.4357 10.1256 18.6726 8.80398 19.0891V16.9567L10.1882 15.5724L8.80475 14.189L8.80398 13.6966V13.0436H6.84754V15.0001L5.46426 16.3833L6.84754 17.7665V19.0892C5.52596 18.6726 4.5649 17.4358 4.5649 15.9784V14.0219C4.5649 12.2239 6.02775 10.7611 7.82576 10.7611C9.62377 10.7611 11.0866 12.2239 11.0866 14.0219V15.9784Z" fill="#FFDA44"/>
</g>
<rect x="0.5" y="0.5" width="29" height="29" rx="14.5" stroke="#D7D7D7"/>
<defs>
<clipPath id="clip0_5568_212804">
<rect width="30" height="30" rx="15" fill="white"/>
</clipPath>
</defs>
</svg>
