<svg width="30" height="30" viewBox="0 0 30 30" fill="none" xmlns="http://www.w3.org/2000/svg">
<g clip-path="url(#clip0_5568_212809)">
<path d="M0 14.9999C0 16.8347 0.330059 18.5923 0.932988 20.2173L15 20.8695L29.067 20.2174C29.67 18.5923 30 16.8347 30 14.9999C30 13.1651 29.67 11.4076 29.067 9.78258L15 9.13037L0.932988 9.78252C0.330059 11.4076 0 13.1651 0 14.9999H0Z" fill="black"/>
<path d="M14.9996 0C8.55016 0 3.05201 4.07063 0.932617 9.78264H29.0667C26.9472 4.07063 21.4491 0 14.9996 0V0Z" fill="#0052B4"/>
<path d="M29.0666 20.2173H0.932617C3.05201 25.9292 8.55016 29.9999 14.9996 29.9999C21.4491 29.9999 26.9472 25.9292 29.0666 20.2173Z" fill="#F0F0F0"/>
</g>
<rect x="0.5" y="0.5" width="29" height="29" rx="14.5" stroke="#D7D7D7"/>
<defs>
<clipPath id="clip0_5568_212809">
<rect width="30" height="30" rx="15" fill="white"/>
</clipPath>
</defs>
</svg>
