<svg width="30" height="30" viewBox="0 0 30 30" fill="none" xmlns="http://www.w3.org/2000/svg">
<g clip-path="url(#clip0_5568_212813)">
<path d="M0 15C0 16.8349 0.330059 18.5925 0.933047 20.2175L15 21.5217L29.067 20.2175C29.67 18.5925 30 16.8349 30 15C30 13.1903 29.6794 11.4555 29.0921 9.84931L15 8.47827L0.907852 9.84936C0.320566 11.4555 0 13.1903 0 15H0Z" fill="#FFDA44"/>
<path d="M14.9996 29.9999C21.4491 29.9999 26.9472 25.9293 29.0666 20.2173H0.932617C3.05201 25.9293 8.55016 29.9999 14.9996 29.9999Z" fill="#D80027"/>
<path d="M14.9996 0C8.55016 0 3.05201 4.07063 0.932617 9.78264H29.0667C26.9472 4.07063 21.4491 0 14.9996 0V0Z" fill="#6DA544"/>
<path d="M15.0001 22.174C18.9621 22.174 22.174 18.9621 22.174 15.0001C22.174 11.038 18.9621 7.82617 15.0001 7.82617C11.038 7.82617 7.82617 11.038 7.82617 15.0001C7.82617 18.9621 11.038 22.174 15.0001 22.174Z" fill="#0052B4"/>
<path d="M14.9983 9.44482L16.2933 13.4305H20.4908L17.0936 15.8938L18.3989 19.8913L14.9983 17.4163L11.6029 19.8868L12.9028 15.8938L9.50879 13.4305H13.7032L14.9983 9.44482Z" fill="#FFDA44"/>
<path d="M20.163 15.992L16.0546 14.657L18.5937 11.1625L17.5385 10.3958L14.9993 13.8905L12.4604 10.3958L11.4051 11.1625L13.9441 14.6573L9.83594 15.992L10.2389 17.2326L14.3473 15.8978V20.2174H15.6516V15.8977L19.7598 17.2326L20.163 15.992Z" fill="#FFDA44"/>
</g>
<rect x="0.5" y="0.5" width="29" height="29" rx="14.5" stroke="#D7D7D7"/>
<defs>
<clipPath id="clip0_5568_212813">
<rect width="30" height="30" rx="15" fill="white"/>
</clipPath>
</defs>
</svg>
