<svg width="30" height="30" viewBox="0 0 30 30" fill="none" xmlns="http://www.w3.org/2000/svg">
<g clip-path="url(#clip0_5568_212821)">
<path d="M15 30C23.2843 30 30 23.2843 30 15C30 6.71573 23.2843 0 15 0C6.71573 0 0 6.71573 0 15C0 23.2843 6.71573 30 15 30Z" fill="#0052B4"/>
<path d="M14.9996 5.86963L15.4853 7.3643H17.0568L15.7854 8.28803L16.271 9.7827L14.9996 8.85891L13.7281 9.7827L14.2138 8.28803L12.9424 7.3643H14.5139L14.9996 5.86963Z" fill="#FFDA44"/>
<path d="M8.54318 8.54373L9.94357 9.25717L11.0548 8.146L10.8089 9.69814L12.2092 10.4116L10.657 10.6575L10.4112 12.2098L9.69766 10.8094L8.14551 11.0554L9.25674 9.94412L8.54318 8.54373Z" fill="#FFDA44"/>
<path d="M5.86914 15.0001L7.36381 14.5144V12.9429L8.28748 14.2144L9.78221 13.7287L8.85836 15.0001L9.78221 16.2715L8.28748 15.7859L7.36381 17.0573V15.4858L5.86914 15.0001Z" fill="#FFDA44"/>
<path d="M8.54318 21.4563L9.25668 20.0559L8.14551 18.9446L9.69772 19.1906L10.4111 17.7903L10.657 19.3425L12.2092 19.5884L10.809 20.3018L11.0548 21.854L9.94357 20.7428L8.54318 21.4563Z" fill="#FFDA44"/>
<path d="M14.9996 24.1305L14.5139 22.6358H12.9424L14.2139 21.7121L13.7281 20.2175L14.9996 21.1412L16.271 20.2175L15.7854 21.7121L17.0568 22.6358H15.4852L14.9996 24.1305Z" fill="#FFDA44"/>
<path d="M21.456 21.4563L20.0556 20.7428L18.9443 21.8541L19.1903 20.3018L17.79 19.5884L19.3422 19.3425L19.588 17.7903L20.3015 19.1906L21.8536 18.9446L20.7424 20.056L21.456 21.4563Z" fill="#FFDA44"/>
<path d="M24.1297 15.0001L22.6351 15.4858V17.0573L21.7113 15.7858L20.2168 16.2715L21.1405 15.0001L20.2168 13.7287L21.7114 14.2144L22.6351 12.9429V14.5145L24.1297 15.0001Z" fill="#FFDA44"/>
<path d="M21.456 8.54392L20.7425 9.94431L21.8537 11.0555L20.3014 10.8096L19.588 12.2099L19.3422 10.6577L17.79 10.4118L19.1903 9.69833L18.9443 8.14624L20.0557 9.25741L21.456 8.54392Z" fill="#FFDA44"/>
</g>
<rect x="0.5" y="0.5" width="29" height="29" rx="14.5" stroke="#D7D7D7"/>
<defs>
<clipPath id="clip0_5568_212821">
<rect width="30" height="30" rx="15" fill="white"/>
</clipPath>
</defs>
</svg>
