<svg width="30" height="30" viewBox="0 0 30 30" fill="none" xmlns="http://www.w3.org/2000/svg">
<rect width="30" height="30" rx="2" fill="white"/>
<path d="M5.42012 15.7132C5.28394 15.4975 5.21584 15.3897 5.17772 15.2234C5.14909 15.0985 5.14909 14.9015 5.17772 14.7766C5.21584 14.6103 5.28394 14.5025 5.42012 14.2868C6.54553 12.5048 9.8954 8 15.0004 8C20.1054 8 23.4553 12.5048 24.5807 14.2868C24.7169 14.5025 24.785 14.6103 24.8231 14.7766C24.8517 14.9015 24.8517 15.0985 24.8231 15.2234C24.785 15.3897 24.7169 15.4975 24.5807 15.7132C23.4553 17.4952 20.1054 22 15.0004 22C9.8954 22 6.54553 17.4952 5.42012 15.7132Z" fill="white"/>
<path d="M15.0004 18C16.6573 18 18.0004 16.6569 18.0004 15C18.0004 13.3431 16.6573 12 15.0004 12C13.3435 12 12.0004 13.3431 12.0004 15C12.0004 16.6569 13.3435 18 15.0004 18Z" fill="white"/>
<path d="M5.42012 15.7132C5.28394 15.4975 5.21584 15.3897 5.17772 15.2234C5.14909 15.0985 5.14909 14.9015 5.17772 14.7766C5.21584 14.6103 5.28394 14.5025 5.42012 14.2868C6.54553 12.5048 9.8954 8 15.0004 8C20.1054 8 23.4553 12.5048 24.5807 14.2868C24.7169 14.5025 24.785 14.6103 24.8231 14.7766C24.8517 14.9015 24.8517 15.0985 24.8231 15.2234C24.785 15.3897 24.7169 15.4975 24.5807 15.7132C23.4553 17.4952 20.1054 22 15.0004 22C9.8954 22 6.54553 17.4952 5.42012 15.7132Z" stroke="#5F5C5C" stroke-width="1.5" stroke-linecap="round" stroke-linejoin="round"/>
<path d="M15.0004 18C16.6573 18 18.0004 16.6569 18.0004 15C18.0004 13.3431 16.6573 12 15.0004 12C13.3435 12 12.0004 13.3431 12.0004 15C12.0004 16.6569 13.3435 18 15.0004 18Z" stroke="#5F5C5C" stroke-width="1.5" stroke-linecap="round" stroke-linejoin="round"/>
</svg>
