<svg width="30" height="30" viewBox="0 0 30 30" fill="none" xmlns="http://www.w3.org/2000/svg">
<rect width="30" height="30" rx="2" fill="white"/>
<path d="M13.7429 8.09232C14.1494 8.03223 14.5686 8 15.0004 8C20.1054 8 23.4553 12.5048 24.5807 14.2868C24.7169 14.5025 24.785 14.6103 24.8231 14.7767C24.8518 14.9016 24.8517 15.0987 24.8231 15.2236C24.7849 15.3899 24.7164 15.4985 24.5792 15.7156C24.2793 16.1901 23.8222 16.8571 23.2165 17.5805M9.72432 9.71504C7.56225 11.1817 6.09445 13.2194 5.42111 14.2853C5.28428 14.5019 5.21587 14.6102 5.17774 14.7765C5.1491 14.9014 5.14909 15.0984 5.17771 15.2234C5.21583 15.3897 5.28393 15.4975 5.42013 15.7132C6.54554 17.4952 9.89541 22 15.0004 22C17.0588 22 18.8319 21.2676 20.2888 20.2766M6.00042 6L24.0004 24M12.8791 12.8787C12.3362 13.4216 12.0004 14.1716 12.0004 15C12.0004 16.6569 13.3436 18 15.0004 18C15.8288 18 16.5788 17.6642 17.1217 17.1213" stroke="#5F5C5C" stroke-width="1.5" stroke-linecap="round" stroke-linejoin="round"/>
</svg>
