<svg width="30" height="30" viewBox="0 0 30 30" fill="none" xmlns="http://www.w3.org/2000/svg">
<g clip-path="url(#clip0_5568_212832)">
<path d="M30 15C30 23.2842 23.2842 30 15 30C6.71578 30 0 23.2842 0 15C0 15.0036 15 0.00164063 15 0C23.2842 0 30 6.71578 30 15Z" fill="#0052B4"/>
<path d="M14.96 15.0001H15.0001C15.0001 14.9866 15.0001 14.9735 15.0001 14.96C14.9867 14.9734 14.9734 14.9867 14.96 15.0001Z" fill="#F0F0F0"/>
<path d="M15 7.82607C15 5.18672 15 3.45732 15 0H14.9975C6.71437 0.00140625 0 6.71654 0 15H7.82607V10.5931L12.233 15H14.9599L15.0001 14.9599C15.0001 13.9493 15.0001 13.0476 15.0001 12.2331L10.593 7.82607H15Z" fill="#F0F0F0"/>
<path d="M7.58832 1.95654C5.24229 3.29242 3.29193 5.24277 1.95605 7.58881V15H5.86912V5.86973V5.86961H14.9996C14.9996 4.63545 14.9996 3.45971 14.9996 1.95654H7.58832Z" fill="#D80027"/>
<path d="M14.9991 13.1554L9.66979 7.82617H7.8252V7.82629L14.9989 15H14.9991C14.9991 15 14.9991 13.7281 14.9991 13.1554Z" fill="#D80027"/>
<path d="M24.13 17.6086V18.2608H18.9126V17.6086H16.9561V20.2173H18.2604V20.8695H24.7822V20.2173H26.0865V17.6086H24.13Z" fill="#FFDA44"/>
<path d="M16.9561 7.82617V15.0001C16.9561 18.4946 21.5213 19.5653 21.5213 19.5653C21.5213 19.5653 26.0865 18.4946 26.0865 15.0001V7.82617H16.9561Z" fill="#338AF3"/>
<path d="M21.522 13.177C20.3807 13.177 20.3807 14.2205 19.2395 14.2205C18.0983 14.2205 18.0983 13.177 16.957 13.177V15.0031C18.0983 15.0031 18.0983 16.0466 19.2395 16.0466C20.3807 16.0466 20.3807 15.0031 21.522 15.0031C22.6633 15.0031 22.6633 16.0466 23.8047 16.0466C24.9461 16.0466 24.9461 15.0031 26.0875 15.0031V13.177C24.9461 13.177 24.9461 14.2205 23.8047 14.2205C22.6633 14.2205 22.6633 13.177 21.522 13.177V13.177Z" fill="#F3F3F3"/>
<path d="M21.522 9.52173C20.3807 9.52173 20.3807 10.5652 19.2395 10.5652C18.0983 10.5652 18.0983 9.52173 16.957 9.52173V11.3478C18.0983 11.3478 18.0983 12.3913 19.2395 12.3913C20.3807 12.3913 20.3807 11.3478 21.522 11.3478C22.6633 11.3478 22.6633 12.3913 23.8047 12.3913C24.9461 12.3913 24.9461 11.3478 26.0875 11.3478V9.52173C24.9461 9.52173 24.9461 10.5652 23.8047 10.5652C22.6633 10.5652 22.6633 9.52173 21.522 9.52173Z" fill="#F3F3F3"/>
</g>
<rect x="0.5" y="0.5" width="29" height="29" rx="14.5" stroke="#D7D7D7"/>
<defs>
<clipPath id="clip0_5568_212832">
<rect width="30" height="30" rx="15" fill="white"/>
</clipPath>
</defs>
</svg>
