<svg width="30" height="31" viewBox="0 0 30 31" fill="none" xmlns="http://www.w3.org/2000/svg">
<g clip-path="url(#clip0_5568_212846)">
<path d="M15 30.0576C23.2843 30.0576 30 23.3419 30 15.0576C30 6.77335 23.2843 0.0576172 15 0.0576172C6.71573 0.0576172 0 6.77335 0 15.0576C0 23.3419 6.71573 30.0576 15 30.0576Z" fill="#F0F0F0"/>
<path d="M29.3476 15.0577L29.8725 13.1012C29.7854 12.4343 29.6546 11.7811 29.4831 11.1447H13.6954V0.114746C13.0298 0.172051 12.3767 0.273359 11.7389 0.414805L9.13018 2.01418L7.82582 1.88252C7.13939 2.25705 6.48543 2.68361 5.86932 3.15699V11.1446H0.516484C0.34498 11.7811 0.214199 12.4343 0.127012 13.1011L0.651895 15.0577L0.126953 17.0142C0.214141 17.681 0.344922 18.3342 0.516426 18.9707H5.86926V26.9583C6.48537 27.4317 7.13939 27.8582 7.82576 28.2328L9.78227 28.1011L11.7388 29.7005C12.3767 29.8419 13.0297 29.9432 13.6953 30.0005V18.9707H29.4829C29.6544 18.3343 29.7852 17.6811 29.8724 17.0142L29.3476 15.0577Z" fill="#0052B4"/>
<path d="M29.873 13.101H11.7392H11.7391V0.414062C10.3529 0.721445 9.03873 1.21967 7.82607 1.88137V13.101H0.126973C0.0435938 13.7414 0 14.3944 0 15.0575C0 15.7206 0.0435938 16.3736 0.126973 17.014H7.82602H7.82607V28.2336C9.03873 28.8953 10.3529 29.3936 11.7391 29.7009V17.0142V17.0141H29.873C29.9564 16.3736 30 15.7206 30 15.0575C30 14.3944 29.9564 13.7414 29.873 13.101V13.101Z" fill="#D80027"/>
</g>
<rect x="0.5" y="0.557617" width="29" height="29" rx="14.5" stroke="#D7D7D7"/>
<defs>
<clipPath id="clip0_5568_212846">
<rect y="0.0576172" width="30" height="30" rx="15" fill="white"/>
</clipPath>
</defs>
</svg>
