<svg width="30" height="31" viewBox="0 0 30 31" fill="none" xmlns="http://www.w3.org/2000/svg">
<g clip-path="url(#clip0_5568_212850)">
<path d="M30 15.0576C30 23.3418 23.2842 30.0576 15 30.0576C6.71578 30.0576 0 23.3418 0 15.0576C0 15.0612 15 0.0592578 15 0.0576172C23.2842 0.0576172 30 6.7734 30 15.0576Z" fill="#338AF3"/>
<path d="M14.9996 7.23145V12.2906L9.78223 7.23145H14.9996Z" fill="#0052B4"/>
<path d="M7.82598 15.0576H12.2329L7.82598 9.18799L7.17383 13.7532L7.82598 15.0576Z" fill="#0052B4"/>
<path d="M14.96 15.0577H15.0001C15.0001 15.0442 15.0001 15.0311 15.0001 15.0176C14.9867 15.031 14.9734 15.0444 14.96 15.0577Z" fill="#F0F0F0"/>
<path d="M15 7.88369C15 5.24434 15 3.51494 15 0.0576172H14.9975C6.71437 0.0590234 0 6.77416 0 15.0576H7.82607V10.6507L12.233 15.0576H14.96C14.9733 15.0443 14.9867 15.0309 15.0001 15.0175C15.0001 14.0069 15.0001 13.1052 15.0001 12.2907L10.593 7.88369H15Z" fill="#F0F0F0"/>
<path d="M7.58832 2.01416C5.24229 3.35004 3.29193 5.30039 1.95605 7.64643V15.0577H5.86912V5.92734V5.92723H14.9996C14.9996 4.69307 14.9996 3.51732 14.9996 2.01416H7.58832Z" fill="#D80027"/>
<path d="M14.9991 13.2131L9.66979 7.88379H7.8252V7.88391L14.9989 15.0577H14.9991C14.9991 15.0577 14.9991 13.7858 14.9991 13.2131Z" fill="#D80027"/>
<path d="M16.9561 9.84024V15.0575C16.9561 18.5521 21.5213 19.6228 21.5213 19.6228C21.5213 19.6228 26.0865 18.5521 26.0865 15.0575V9.84024L21.5213 8.53589L16.9561 9.84024Z" fill="#F3F3F3"/>
<path d="M26.0865 9.84029V7.88379H16.9561V9.84029H20.869V13.7534H16.9561V15.0577V15.0578L20.869 15.0578V19.4229C21.2626 19.5621 21.5213 19.6229 21.5213 19.6229C21.5213 19.6229 21.7798 19.5622 22.1734 19.4229V15.0578H26.0865V15.0577V13.7534H22.1734V9.84023H26.0865V9.84029Z" fill="#D80027"/>
</g>
<rect x="0.5" y="0.557617" width="29" height="29" rx="14.5" stroke="#D7D7D7"/>
<defs>
<clipPath id="clip0_5568_212850">
<rect y="0.0576172" width="30" height="30" rx="15" fill="white"/>
</clipPath>
</defs>
</svg>
