<svg width="30" height="30" viewBox="0 0 30 30" fill="none" xmlns="http://www.w3.org/2000/svg">
<rect width="30" height="30" rx="2" fill="white"/>
<path d="M5 7.6C5 7.03995 5 6.75992 5.10899 6.54601C5.20487 6.35785 5.35785 6.20487 5.54601 6.10899C5.75992 6 6.03995 6 6.6 6H23.4C23.9601 6 24.2401 6 24.454 6.10899C24.6422 6.20487 24.7951 6.35785 24.891 6.54601C25 6.75992 25 7.03995 25 7.6V8.26939C25 8.53819 25 8.67259 24.9672 8.79756C24.938 8.90831 24.8901 9.01323 24.8255 9.10776C24.7526 9.21443 24.651 9.30245 24.4479 9.4785L18.0521 15.0215C17.849 15.1975 17.7474 15.2856 17.6745 15.3922C17.6099 15.4868 17.562 15.5917 17.5328 15.7024C17.5 15.8274 17.5 15.9618 17.5 16.2306V21.4584C17.5 21.6539 17.5 21.7517 17.4685 21.8363C17.4406 21.911 17.3953 21.9779 17.3363 22.0315C17.2695 22.0922 17.1787 22.1285 16.9971 22.2012L13.5971 23.5612C13.2296 23.7082 13.0458 23.7817 12.8983 23.751C12.7693 23.7242 12.6561 23.6476 12.5833 23.5377C12.5 23.4122 12.5 23.2142 12.5 22.8184V16.2306C12.5 15.9618 12.5 15.8274 12.4672 15.7024C12.438 15.5917 12.3901 15.4868 12.3255 15.3922C12.2526 15.2856 12.151 15.1975 11.9479 15.0215L5.55211 9.4785C5.34898 9.30245 5.24742 9.21443 5.17449 9.10776C5.10986 9.01323 5.06195 8.90831 5.03285 8.79756C5 8.67259 5 8.53819 5 8.26939V7.6Z" stroke="#5F5C5C" stroke-width="1.5" stroke-linecap="round" stroke-linejoin="round"/>
</svg>
