<svg width="30" height="30" viewBox="0 0 30 30" fill="none" xmlns="http://www.w3.org/2000/svg">
<rect width="30" height="30" rx="2" fill="white"/>
<path d="M6.38589 8.66687C5.62955 7.82155 5.25138 7.39889 5.23712 7.03968C5.22473 6.72764 5.35882 6.42772 5.59963 6.22889C5.87684 6 6.44399 6 7.57828 6H22.4212C23.5555 6 24.1227 6 24.3999 6.22889C24.6407 6.42772 24.7748 6.72764 24.7624 7.03968C24.7481 7.39889 24.3699 7.82155 23.6136 8.66687L17.9074 15.0444C17.7566 15.2129 17.6812 15.2972 17.6275 15.3931C17.5798 15.4781 17.5448 15.5697 17.5236 15.6648C17.4997 15.7721 17.4997 15.8852 17.4997 16.1113V21.4584C17.4997 21.6539 17.4997 21.7517 17.4682 21.8363C17.4403 21.911 17.395 21.9779 17.336 22.0315C17.2692 22.0922 17.1784 22.1285 16.9969 22.2012L13.5969 23.5612C13.2293 23.7082 13.0455 23.7817 12.898 23.751C12.769 23.7242 12.6558 23.6476 12.583 23.5377C12.4997 23.4122 12.4997 23.2142 12.4997 22.8184V16.1113C12.4997 15.8852 12.4997 15.7721 12.4759 15.6648C12.4547 15.5697 12.4197 15.4781 12.372 15.3931C12.3183 15.2972 12.2429 15.2129 12.0921 15.0444L6.38589 8.66687Z" fill="#5F5C5C" stroke="#5F5C5C" stroke-linecap="round" stroke-linejoin="round"/>
</svg>
