<svg width="30" height="31" viewBox="0 0 30 31" fill="none" xmlns="http://www.w3.org/2000/svg">
<g clip-path="url(#clip0_5568_212864)">
<path d="M15 30.0576C23.2843 30.0576 30 23.3419 30 15.0576C30 6.77335 23.2843 0.0576172 15 0.0576172C6.71573 0.0576172 0 6.77335 0 15.0576C0 23.3419 6.71573 30.0576 15 30.0576Z" fill="#F0F0F0"/>
<path d="M29.873 13.101H11.7392H11.7391V0.414062C10.3529 0.721445 9.03873 1.21967 7.82607 1.88137V13.1009V13.101H0.126973C0.0434766 13.7414 0 14.3944 0 15.0575C0 15.7206 0.0434766 16.3736 0.126973 17.014H7.82602H7.82607V28.2336C9.03873 28.8953 10.3529 29.3936 11.7391 29.7009V17.0142V17.0141H29.873C29.9564 16.3736 30 15.7206 30 15.0575C30 14.3944 29.9564 13.7414 29.873 13.101V13.101Z" fill="#0052B4"/>
</g>
<rect x="0.5" y="0.557617" width="29" height="29" rx="14.5" stroke="#D7D7D7"/>
<defs>
<clipPath id="clip0_5568_212864">
<rect y="0.0576172" width="30" height="30" rx="15" fill="white"/>
</clipPath>
</defs>
</svg>
