<svg width="30" height="30" viewBox="0 0 30 30" fill="none" xmlns="http://www.w3.org/2000/svg">
<path d="M23.9576 7.69999L17.3523 22.41C17.1901 22.7717 16.83 23.0031 16.4344 23H13.0719C12.611 23.0171 12.1984 22.7152 12.0742 22.27L8.77156 10.36C8.54085 9.52148 7.95838 8.8246 7.17513 8.44999C6.52457 8.15098 5.85843 7.88726 5.1796 7.65999C5.07507 7.62616 5.00313 7.53003 5 7.41999V7.24999C5 7.11192 5.11168 6.99999 5.24944 6.99999H10.9068C11.9045 6.99999 12.6728 7.26999 12.9023 8.32999L14.4888 15.84L14.9278 18.14L19.2082 7.61999C19.3626 7.24319 19.7297 6.99795 20.1361 6.99999H23.4587C23.6342 6.98496 23.8047 7.06386 23.9071 7.20755C24.0095 7.35125 24.0287 7.53842 23.9576 7.69999Z" stroke="#5F5C5C" stroke-width="1.5"/>
</svg>
