<svg width="30" height="31" viewBox="0 0 30 31" fill="none" xmlns="http://www.w3.org/2000/svg">
<g clip-path="url(#clip0_5568_212871)">
<path d="M15 30.0576C23.2843 30.0576 30 23.3419 30 15.0576C30 6.77335 23.2843 0.0576172 15 0.0576172C6.71573 0.0576172 0 6.77335 0 15.0576C0 23.3419 6.71573 30.0576 15 30.0576Z" fill="#F0F0F0"/>
<path d="M1.82422 7.88369H28.1765C25.6324 3.22104 20.686 0.0576172 15.0004 0.0576172C9.31473 0.0576172 4.3683 3.22104 1.82422 7.88369V7.88369Z" fill="#D80027"/>
<path d="M15.0004 30.0575C20.686 30.0575 25.6324 26.8941 28.1765 22.2314H1.82422C4.3683 26.8941 9.31473 30.0575 15.0004 30.0575Z" fill="#D80027"/>
<path d="M20.217 15.0577C20.217 17.9392 17.8811 19.6229 14.9996 19.6229C12.1181 19.6229 9.78223 17.9392 9.78223 15.0577C9.78223 12.1762 12.1181 9.84033 14.9996 9.84033C17.8811 9.84033 20.217 12.1762 20.217 15.0577Z" fill="#FFDA44"/>
<path d="M20.217 15.0576C20.217 17.9391 17.8811 20.275 14.9996 20.275C12.1181 20.275 9.78223 17.9391 9.78223 15.0576" fill="#0052B4"/>
<path d="M11.7393 13.7534H13.0436V16.3621H11.7393V13.7534Z" fill="#D80027"/>
<path d="M16.957 13.7534H18.2614V16.3621H16.957V13.7534Z" fill="#D80027"/>
<path d="M14.3477 11.7969H15.652V16.3621H14.3477V11.7969Z" fill="#D80027"/>
</g>
<rect x="0.5" y="0.557617" width="29" height="29" rx="14.5" stroke="#D7D7D7"/>
<defs>
<clipPath id="clip0_5568_212871">
<rect y="0.0576172" width="30" height="30" rx="15" fill="white"/>
</clipPath>
</defs>
</svg>
