<svg width="30" height="31" viewBox="0 0 30 31" fill="none" xmlns="http://www.w3.org/2000/svg">
<g clip-path="url(#clip0_5568_212886)">
<path d="M30 15.0576C30 13.2228 29.67 11.4651 29.067 9.8402L15 9.18799L0.932988 9.84014C0.330059 11.4651 0 13.2228 0 15.0576C0 16.8924 0.330059 18.65 0.932988 20.2749L15 20.9271L29.067 20.275C29.67 18.65 30 16.8924 30 15.0576Z" fill="#F0F0F0"/>
<path d="M14.9996 30.0575C21.4491 30.0575 26.9472 25.9869 29.0666 20.2749H0.932617C3.05201 25.9869 8.55016 30.0575 14.9996 30.0575Z" fill="#0052B4"/>
<path d="M0.932617 9.84025H29.0667C26.9472 4.12824 21.4491 0.0576172 14.9996 0.0576172C8.55016 0.0576172 3.05201 4.12824 0.932617 9.84025V9.84025Z" fill="#6DA544"/>
</g>
<rect x="0.5" y="0.557617" width="29" height="29" rx="14.5" stroke="#D7D7D7"/>
<defs>
<clipPath id="clip0_5568_212886">
<rect y="0.0576172" width="30" height="30" rx="15" fill="white"/>
</clipPath>
</defs>
</svg>
