<svg width="30" height="31" viewBox="0 0 30 31" fill="none" xmlns="http://www.w3.org/2000/svg">
<g clip-path="url(#clip0_5568_212890)">
<path d="M15 30.0469C23.2843 30.0469 30 23.3311 30 15.0469C30 6.7626 23.2843 0.046875 15 0.046875C6.71573 0.046875 0 6.7626 0 15.0469C0 23.3311 6.71573 30.0469 15 30.0469Z" fill="#F0F0F0"/>
<path d="M15.0001 0.046875C8.79885 0.046875 3.47689 3.81012 1.19238 9.17731H28.8079C26.5234 3.81012 21.2014 0.046875 15.0001 0.046875Z" fill="#A2001D"/>
<path d="M15.0001 30.0469C21.2014 30.0469 26.5234 26.2837 28.8079 20.9165H1.19238C3.47689 26.2837 8.79885 30.0469 15.0001 30.0469Z" fill="#496E2D"/>
<path d="M29.4833 11.1338H0.516738C0.180469 12.3814 0 13.6929 0 15.0469C0 16.4008 0.180469 17.7123 0.516738 18.9599H29.4833C29.8195 17.7123 30 16.4008 30 15.0469C30 13.6929 29.8195 12.3814 29.4833 11.1338V11.1338Z" fill="#0052B4"/>
</g>
<rect x="0.5" y="0.546875" width="29" height="29" rx="14.5" stroke="#D7D7D7"/>
<defs>
<clipPath id="clip0_5568_212890">
<rect y="0.046875" width="30" height="30" rx="15" fill="white"/>
</clipPath>
</defs>
</svg>
