<svg width="30" height="30" viewBox="0 0 30 30" fill="none" xmlns="http://www.w3.org/2000/svg">
<rect width="30" height="30" rx="2" fill="white"/>
<path d="M11.7382 10.4936L12.836 10.3538C12.9266 10.0749 13.0377 9.80585 13.1687 9.55029L12.4897 8.67661C12.2149 8.32222 12.247 7.82281 12.564 7.5152L13.4851 6.59474C13.7898 6.2807 14.2892 6.24912 14.6425 6.52339L15.5162 7.20234C15.7717 7.07135 16.0408 6.96023 16.3203 6.86959L16.4601 5.77018C16.5127 5.33158 16.8864 5 17.3291 5H18.6391C19.0818 5 19.4555 5.33158 19.5082 5.77193L19.6479 6.86959C19.9275 6.96023 20.1965 7.07193 20.4521 7.20234L21.3252 6.52339C21.6796 6.24912 22.179 6.2807 22.4861 6.59766L23.4072 7.51871C23.7212 7.82281 23.7534 8.32222 23.4785 8.67602L22.7995 9.55029C22.9299 9.80585 23.0416 10.0749 23.1323 10.3538L24.2317 10.4936C24.6704 10.5462 25.002 10.9199 25.0014 11.3626V12.6725C25.0014 13.1152 24.6698 13.4889 24.2294 13.5415L23.1323 13.6813C23.0422 13.9602 22.9305 14.2292 22.7995 14.4848L23.4785 15.3585C23.7534 15.7129 23.7212 16.2117 23.4042 16.5193L22.4831 17.4404C22.179 17.7544 21.6796 17.7866 21.3258 17.5117L20.4515 16.8327C20.1959 16.9632 19.9269 17.0749 19.6479 17.1655L19.5082 18.2649C19.4555 18.7035 19.0818 19.0351 18.6391 19.0351M17.9852 14.8246C19.5355 14.8246 20.7922 13.5678 20.7922 12.0175C20.7922 10.4673 19.5355 9.21053 17.9852 9.21053C16.4349 9.21053 15.1782 10.4673 15.1782 12.0175M18.2655 16.4585L17.166 16.3187C17.0754 16.0398 16.9637 15.7708 16.8332 15.5152L17.5122 14.6409C17.7871 14.2871 17.7549 13.7877 17.4409 13.4836L16.5198 12.5626C16.2127 12.2456 15.7133 12.214 15.3589 12.4883L14.4858 13.1673C14.2302 13.0368 13.9612 12.9251 13.6816 12.8345L13.5419 11.7368C13.4892 11.2965 13.1155 10.9649 12.6728 10.9649H11.3628C10.9201 10.9649 10.5464 11.2965 10.4938 11.7351L10.354 12.8345C10.0745 12.9251 9.80546 13.0363 9.5499 13.1673L8.67618 12.4883C8.32295 12.214 7.82351 12.2456 7.51882 12.5596L6.59773 13.4801C6.28076 13.7877 6.24859 14.2871 6.52345 14.6415L7.20243 15.5152C7.07143 15.7708 6.96032 16.0398 6.86967 16.3187L5.77196 16.4585C5.33159 16.5111 5 16.8848 5 17.3275V18.6374C5 19.0801 5.33159 19.4538 5.77021 19.5064L6.86967 19.6462C6.96032 19.9251 7.07202 20.1942 7.20243 20.4497L6.52345 21.324C6.24859 21.6778 6.28075 22.1772 6.5948 22.4813L7.51589 23.4023C7.82351 23.7187 8.32236 23.7503 8.67676 23.476L9.55048 22.7971C9.80605 22.9281 10.0751 23.0398 10.354 23.1298L10.4938 24.2269C10.5464 24.6684 10.9201 25 11.3628 25H12.6728C13.1155 25 13.4892 24.6684 13.5419 24.2298L13.6816 23.1304C13.9606 23.0398 14.2296 22.9281 14.4852 22.7977L15.3595 23.4766C15.7133 23.7515 16.2127 23.7193 16.5169 23.4053L17.4379 22.4842C17.7549 22.1766 17.7871 21.6778 17.5122 21.3234L16.8332 20.4497C16.9642 20.1942 17.0759 19.9251 17.166 19.6462L18.2631 19.5064C18.7035 19.4538 19.0351 19.0801 19.0351 18.6374V17.3275C19.0357 16.8848 18.7041 16.5111 18.2655 16.4585ZM14.8259 17.9825C14.8259 19.5327 13.5692 20.7895 12.0189 20.7895C10.4686 20.7895 9.2119 19.5327 9.2119 17.9825C9.2119 16.4322 10.4686 15.1754 12.0189 15.1754C13.5692 15.1754 14.8259 16.4322 14.8259 17.9825Z" stroke="#5F5C5C" stroke-width="1.5" stroke-linecap="round" stroke-linejoin="round"/>
</svg>
