<svg width="30" height="31" viewBox="0 0 30 31" fill="none" xmlns="http://www.w3.org/2000/svg">
<g clip-path="url(#clip0_5568_212895)">
<path d="M15 30.0576C23.2843 30.0576 30 23.3419 30 15.0576C30 6.77335 23.2843 0.0576172 15 0.0576172C6.71573 0.0576172 0 6.77335 0 15.0576C0 23.3419 6.71573 30.0576 15 30.0576Z" fill="#F0F0F0"/>
<path d="M29.873 13.1011H16.9566H16.9566V0.18459C16.3161 0.101211 15.6631 0.0576172 15 0.0576172C14.3369 0.0576172 13.6839 0.101211 13.0435 0.18459V13.101V13.1011H0.126973C0.0435938 13.7415 0 14.3945 0 15.0576C0 15.7208 0.0435938 16.3737 0.126973 17.0141H13.0434H13.0434V29.9306C13.6839 30.014 14.3369 30.0576 15 30.0576C15.6631 30.0576 16.3161 30.0141 16.9565 29.9306V17.0142V17.0142H29.873C29.9564 16.3737 30 15.7208 30 15.0576C30 14.3945 29.9564 13.7415 29.873 13.1011V13.1011Z" fill="#D80027"/>
<path d="M9.13084 7.23146V5.2749H7.17434V7.23146H5.21777V9.18797H7.17434V11.1445H9.13084V9.18797H11.0873V7.23146H9.13084Z" fill="#D80027"/>
<path d="M22.8261 7.23146V5.2749H20.8696V7.23146H18.9131V9.18797H20.8696V11.1445H22.8261V9.18797H24.7827V7.23146H22.8261Z" fill="#D80027"/>
<path d="M9.13084 20.9272V18.9707H7.17434V20.9272H5.21777V22.8837H7.17434V24.8403H9.13084V22.8837H11.0873V20.9272H9.13084Z" fill="#D80027"/>
<path d="M22.8261 20.9272V18.9707H20.8696V20.9272H18.9131V22.8837H20.8696V24.8403H22.8261V22.8837H24.7827V20.9272H22.8261Z" fill="#D80027"/>
</g>
<rect x="0.5" y="0.557617" width="29" height="29" rx="14.5" stroke="#D7D7D7"/>
<defs>
<clipPath id="clip0_5568_212895">
<rect y="0.0576172" width="30" height="30" rx="15" fill="white"/>
</clipPath>
</defs>
</svg>
