<svg width="30" height="31" viewBox="0 0 30 31" fill="none" xmlns="http://www.w3.org/2000/svg">
<g clip-path="url(#clip0_5568_212903)">
<path d="M0.932617 20.276C3.05201 25.9879 8.55016 30.0586 14.9996 30.0586C21.4491 30.0586 26.9472 25.9879 29.0666 20.276L14.9996 18.9717L0.932617 20.276Z" fill="#FFDA44"/>
<path d="M14.9996 0.0585938C8.55016 0.0585938 3.05201 4.12922 0.932617 9.84123L14.9996 11.1455L29.0666 9.84117C26.9472 4.12922 21.4491 0.0585938 14.9996 0.0585938Z" fill="black"/>
<path d="M0.932988 9.84131C0.330059 11.4663 0 13.2239 0 15.0587C0 16.8935 0.330059 18.6511 0.932988 20.276H29.0671C29.67 18.6511 30 16.8935 30 15.0587C30 13.2239 29.67 11.4663 29.067 9.84131H0.932988Z" fill="#D80027"/>
</g>
<rect x="0.5" y="0.558594" width="29" height="29" rx="14.5" stroke="#D7D7D7"/>
<defs>
<clipPath id="clip0_5568_212903">
<rect y="0.0585938" width="30" height="30" rx="15" fill="white"/>
</clipPath>
</defs>
</svg>
