<svg width="30" height="31" viewBox="0 0 30 31" fill="none" xmlns="http://www.w3.org/2000/svg">
<g clip-path="url(#clip0_5568_212907)">
<path d="M0 15.0576C0 16.8924 0.330059 18.6499 0.932988 20.2749L15 20.9271L29.067 20.275C29.67 18.6499 30 16.8924 30 15.0576C30 13.2228 29.67 11.4652 29.067 9.8402L15 9.18799L0.932988 9.84014C0.330059 11.4652 0 13.2228 0 15.0576H0Z" fill="#FFDA44"/>
<path d="M14.9996 0.0576172C8.55016 0.0576172 3.05201 4.12824 0.932617 9.84025H29.0667C26.9472 4.12824 21.4491 0.0576172 14.9996 0.0576172V0.0576172Z" fill="#D80027"/>
<path d="M29.0666 20.2749H0.932617C3.05201 25.9869 8.55016 30.0575 14.9996 30.0575C21.4491 30.0575 26.9472 25.9869 29.0666 20.2749Z" fill="#496E2D"/>
<path d="M14.9995 9.84033L16.2944 13.8259H20.4855L17.0951 16.2893L18.39 20.2751L14.9995 17.8118L11.6089 20.2751L12.9041 16.2893L9.51367 13.8259H13.7045L14.9995 9.84033Z" fill="black"/>
</g>
<rect x="0.5" y="0.557617" width="29" height="29" rx="14.5" stroke="#D7D7D7"/>
<defs>
<clipPath id="clip0_5568_212907">
<rect y="0.0576172" width="30" height="30" rx="15" fill="white"/>
</clipPath>
</defs>
</svg>
