<svg width="30" height="31" viewBox="0 0 30 31" fill="none" xmlns="http://www.w3.org/2000/svg">
<g clip-path="url(#clip0_5568_212912)">
<path d="M15 30.0576C23.2843 30.0576 30 23.3419 30 15.0576C30 6.77335 23.2843 0.0576172 15 0.0576172C6.71573 0.0576172 0 6.77335 0 15.0576C0 23.3419 6.71573 30.0576 15 30.0576Z" fill="#F9F9F9"/>
<path d="M14.9997 30.0578C21.4491 30.0578 26.9473 25.9872 29.0666 20.2751H0.932617C3.05207 25.9872 8.55016 30.0578 14.9997 30.0578Z" fill="#D80027"/>
<path d="M20.8697 12.449V10.4925H21.5218V9.18813H20.2175V9.84033H18.9132V9.18813H17.6088V10.4925H18.261V12.449H16.9566V7.88389H17.6088V6.57959H16.3045V7.23162H15.6522V6.57959H14.3479V7.23162H13.6957V6.57959H12.3914V7.88389H13.0436V12.449H11.7392V10.4925H12.3914V9.18813H11.087V9.84033H9.78273V9.18813H8.47838V10.4925H9.13053V12.449H7.82617V17.6664H22.174V12.449H20.8697Z" fill="#D80027"/>
<path d="M15.0003 17.0142C13.9197 17.0142 13.0437 17.8901 13.0437 18.9707C13.0437 19.8224 13.5883 20.5468 14.3481 20.8154V23.5359H12.3916V26.1446H15.6525V20.8155C16.4122 20.5469 16.9568 19.8225 16.9568 18.9707C16.9568 17.8902 16.0808 17.0142 15.0003 17.0142V17.0142ZM15.0003 19.6229C14.6401 19.6229 14.3481 19.3308 14.3481 18.9707C14.3481 18.6105 14.6401 18.3186 15.0003 18.3186C15.3604 18.3186 15.6524 18.6105 15.6524 18.9707C15.6524 19.3308 15.3604 19.6229 15.0003 19.6229Z" fill="#FFDA44"/>
</g>
<rect x="0.5" y="0.557617" width="29" height="29" rx="14.5" stroke="#D7D7D7"/>
<defs>
<clipPath id="clip0_5568_212912">
<rect y="0.0576172" width="30" height="30" rx="15" fill="white"/>
</clipPath>
</defs>
</svg>
