<svg width="30" height="30" viewBox="0 0 30 30" fill="none" xmlns="http://www.w3.org/2000/svg">
<path d="M15 9V25M15 9H11.4643C10.9433 9 10.4437 8.78929 10.0753 8.41421C9.70695 8.03914 9.5 7.53043 9.5 7C9.5 6.46957 9.70695 5.96086 10.0753 5.58579C10.4437 5.21071 10.9433 5 11.4643 5C14.2143 5 15 9 15 9ZM15 9H18.5357C19.0567 9 19.5563 8.78929 19.9247 8.41421C20.293 8.03914 20.5 7.53043 20.5 7C20.5 6.46957 20.293 5.96086 19.9247 5.58579C19.5563 5.21071 19.0567 5 18.5357 5C15.7857 5 15 9 15 9ZM23 14V21.8C23 22.9201 23 23.4802 22.782 23.908C22.5903 24.2843 22.2843 24.5903 21.908 24.782C21.4802 25 20.9201 25 19.8 25L10.2 25C9.07989 25 8.51984 25 8.09202 24.782C7.71569 24.5903 7.40973 24.2843 7.21799 23.908C7 23.4802 7 22.9201 7 21.8V14M5 10.6L5 12.4C5 12.9601 5 13.2401 5.10899 13.454C5.20487 13.6422 5.35785 13.7951 5.54601 13.891C5.75992 14 6.03995 14 6.6 14L23.4 14C23.9601 14 24.2401 14 24.454 13.891C24.6422 13.7951 24.7951 13.6422 24.891 13.454C25 13.2401 25 12.9601 25 12.4V10.6C25 10.0399 25 9.75992 24.891 9.54601C24.7951 9.35785 24.6422 9.20487 24.454 9.10899C24.2401 9 23.9601 9 23.4 9L6.6 9C6.03995 9 5.75992 9 5.54601 9.10899C5.35785 9.20487 5.20487 9.35785 5.10899 9.54601C5 9.75992 5 10.0399 5 10.6Z" stroke="#5F5C5C" stroke-width="1.5" stroke-linecap="round" stroke-linejoin="round"/>
</svg>
