<svg width="30" height="30" viewBox="0 0 30 30" fill="none" xmlns="http://www.w3.org/2000/svg">
<path d="M15 10H10.5C9.83696 10 9.20107 9.73661 8.73223 9.26777C8.26339 8.79893 8 8.16304 8 7.5C8 6.83696 8.26339 6.20107 8.73223 5.73223C9.20107 5.26339 9.83696 5 10.5 5C14 5 15 10 15 10ZM15 10H19.5C20.163 10 20.7989 9.73661 21.2678 9.26777C21.7366 8.79893 22 8.16304 22 7.5C22 6.83696 21.7366 6.20107 21.2678 5.73223C20.7989 5.26339 20.163 5 19.5 5C16 5 15 10 15 10ZM15 10L15 25M5 17H25M5 13.2L5 21.8C5 22.9201 5 23.4802 5.21799 23.908C5.40973 24.2843 5.71569 24.5903 6.09202 24.782C6.51984 25 7.07989 25 8.2 25L21.8 25C22.9201 25 23.4802 25 23.908 24.782C24.2843 24.5903 24.5903 24.2843 24.782 23.908C25 23.4802 25 22.9201 25 21.8V13.2C25 12.0799 25 11.5198 24.782 11.092C24.5903 10.7157 24.2843 10.4097 23.908 10.218C23.4802 10 22.9201 10 21.8 10L8.2 10C7.0799 10 6.51984 10 6.09202 10.218C5.7157 10.4097 5.40973 10.7157 5.21799 11.092C5 11.5198 5 12.0799 5 13.2Z" stroke="#5F5C5C" stroke-width="1.5" stroke-linecap="round" stroke-linejoin="round"/>
</svg>
