<svg width="30" height="31" viewBox="0 0 30 31" fill="none" xmlns="http://www.w3.org/2000/svg">
<g clip-path="url(#clip0_5568_212918)">
<path d="M15 30.0576C23.2843 30.0576 30 23.3419 30 15.0576C30 6.77335 23.2843 0.0576172 15 0.0576172C6.71573 0.0576172 0 6.77335 0 15.0576C0 23.3419 6.71573 30.0576 15 30.0576Z" fill="#F0F0F0"/>
<path d="M15 11.1445H29.4833C29.1071 9.74916 28.5355 8.43426 27.7984 7.23145H15V11.1445Z" fill="#338AF3"/>
<path d="M5.66225 26.7969H24.3368C25.7058 25.7065 26.8797 24.3822 27.7979 22.8838H2.20117C3.11939 24.3821 4.29338 25.7065 5.66225 26.7969V26.7969Z" fill="#338AF3"/>
<path d="M5.21693 3.68677C4.03768 4.70226 3.0182 5.8981 2.20117 7.23145H5.21693V3.68677Z" fill="#338AF3"/>
<path d="M15 15.0576C15 13.5297 15 12.251 15 11.1445H9.13043V15.0576H5.21736V11.1445H0.516738C0.180469 12.3922 0 13.7037 0 15.0576C0 16.4115 0.180469 17.723 0.516738 18.9707H29.4833C29.8195 17.723 30 16.4115 30 15.0576H15Z" fill="#338AF3"/>
<path d="M15.0004 0.0576172C12.9175 0.0576172 10.9338 0.482598 9.13086 1.24988V7.23154H15.0004C15.0004 5.8656 15.0004 4.70387 15.0004 3.31848H24.3378C21.7754 1.27777 18.5306 0.0576172 15.0004 0.0576172V0.0576172Z" fill="#338AF3"/>
</g>
<rect x="0.5" y="0.557617" width="29" height="29" rx="14.5" stroke="#D7D7D7"/>
<defs>
<clipPath id="clip0_5568_212918">
<rect y="0.0576172" width="30" height="30" rx="15" fill="white"/>
</clipPath>
</defs>
</svg>
