<svg width="30" height="31" viewBox="0 0 30 31" fill="none" xmlns="http://www.w3.org/2000/svg">
<g clip-path="url(#clip0_5568_212926)">
<path d="M0 15.0576C0 6.7734 6.71578 0.0576172 15 0.0576172C23.2842 0.0576172 30 6.7734 30 15.0576C29.3479 15.0576 15 17.0141 15 17.0141L0 15.0576Z" fill="#F0F0F0"/>
<path d="M30 15.0576C30 23.3418 23.2842 30.0576 15 30.0576C6.71578 30.0576 0 23.3418 0 15.0576" fill="#D80027"/>
<path d="M10.4347 22.2316C14.3967 22.2316 17.6086 19.0198 17.6086 15.0577C17.6086 11.0957 14.3967 7.88379 10.4347 7.88379C6.47262 7.88379 3.26074 11.0957 3.26074 15.0577C3.26074 19.0198 6.47262 22.2316 10.4347 22.2316Z" fill="#F0F0F0"/>
<path d="M3.26074 15.0577C3.26074 11.0958 6.47262 7.88379 10.4347 7.88379C14.3968 7.88379 17.6086 11.0957 17.6086 15.0577" fill="#D80027"/>
</g>
<rect x="0.5" y="0.557617" width="29" height="29" rx="14.5" stroke="#D7D7D7"/>
<defs>
<clipPath id="clip0_5568_212926">
<rect y="0.0576172" width="30" height="30" rx="15" fill="white"/>
</clipPath>
</defs>
</svg>
