<svg width="30" height="31" viewBox="0 0 30 31" fill="none" xmlns="http://www.w3.org/2000/svg">
<g clip-path="url(#clip0_5568_212931)">
<path d="M15 30.0576C23.2843 30.0576 30 23.3419 30 15.0576C30 6.77335 23.2843 0.0576172 15 0.0576172C6.71573 0.0576172 0 6.77335 0 15.0576C0 23.3419 6.71573 30.0576 15 30.0576Z" fill="#FFDA44"/>
<path d="M6.5459 2.66633C8.95322 1.02066 11.864 0.0576172 15.0002 0.0576172C18.1364 0.0576172 21.0472 1.02066 23.4545 2.66633L15.0002 3.31848L6.5459 2.66633Z" fill="#A2001D"/>
<path d="M14.9996 15.0576L14.0423 14.1003L13.7881 14.5557L14.9996 15.0576Z" fill="#0052B4"/>
<path d="M4.39339 4.45093C-1.46446 10.3088 -1.46446 19.8063 4.39339 25.6642C6.81407 23.2435 9.14218 20.9154 15 15.0576L4.39339 4.45093Z" fill="#496E2D"/>
<path d="M25.6066 4.45093C31.4645 10.3088 31.4645 19.8063 25.6066 25.6642C23.186 23.2435 20.8579 20.9154 15 15.0576L25.6066 4.45093Z" fill="#496E2D"/>
<path d="M14.9996 20.2751C17.8811 20.2751 20.217 17.9392 20.217 15.0577C20.217 12.1762 17.8811 9.84033 14.9996 9.84033C12.1181 9.84033 9.78223 12.1762 9.78223 15.0577C9.78223 17.9392 12.1181 20.2751 14.9996 20.2751Z" fill="#A2001D"/>
<path d="M15.0003 9.84033L16.1698 13.4397H19.9548L16.8928 15.6647L18.0623 19.2642L15.0003 17.0396L11.9382 19.2642L13.1079 15.6647L10.0459 13.4397H13.8307L15.0003 9.84033Z" fill="#FFDA44"/>
<path d="M15.0054 0.0576172H14.9954C10.8555 0.0589648 7.10783 1.73727 4.39453 4.45027H25.6062C22.8929 1.73727 19.1452 0.0589648 15.0054 0.0576172Z" fill="#A2001D"/>
<path d="M4.39453 25.665C7.10895 28.379 10.8586 30.0576 15.0003 30.0576C19.142 30.0576 22.8916 28.379 25.6061 25.665H4.39453Z" fill="#A2001D"/>
<path d="M14.9993 1.68799L15.2422 2.43529H16.0279L15.3922 2.89719L15.6351 3.64449L14.9993 3.18266L14.3636 3.64449L14.6065 2.89719L13.9707 2.43529H14.7564L14.9993 1.68799Z" fill="#FFDA44"/>
<path d="M11.3626 1.68799L11.6055 2.43529H12.3912L11.7555 2.89719L11.9984 3.64449L11.3626 3.18266L10.727 3.64449L10.9698 2.89719L10.334 2.43529H11.1197L11.3626 1.68799Z" fill="#FFDA44"/>
<path d="M18.637 1.68799L18.8799 2.43529H19.6656L19.0299 2.89719L19.2728 3.64449L18.637 3.18266L18.0013 3.64449L18.2442 2.89719L17.6084 2.43529H18.3941L18.637 1.68799Z" fill="#FFDA44"/>
<path d="M14.9993 26.4707L15.2422 27.218H16.0279L15.3922 27.6799L15.6351 28.4272L14.9993 27.9653L14.3636 28.4272L14.6065 27.6799L13.9707 27.218H14.7564L14.9993 26.4707Z" fill="#FFDA44"/>
<path d="M11.3626 26.4707L11.6055 27.218H12.3912L11.7555 27.6799L11.9984 28.4272L11.3626 27.9653L10.727 28.4272L10.9698 27.6799L10.334 27.218H11.1197L11.3626 26.4707Z" fill="#FFDA44"/>
<path d="M18.637 26.4707L18.8799 27.218H19.6656L19.0299 27.6799L19.2728 28.4272L18.637 27.9653L18.0013 28.4272L18.2442 27.6799L17.6084 27.218H18.3941L18.637 26.4707Z" fill="#FFDA44"/>
<path d="M4.57006 14.8098C4.95532 15.4185 4.77426 16.2242 4.16553 16.6096C3.55686 16.9949 2.75108 16.8138 2.36576 16.2051C1.66821 15.103 2.07268 13.3032 2.07268 13.3032C2.07268 13.3032 3.87244 13.7077 4.57006 14.8098V14.8098Z" fill="#FFDA44"/>
<path d="M3.81719 16.7108C4.17736 16.7108 4.46934 16.4188 4.46934 16.0586C4.46934 15.6985 4.17736 15.4065 3.81719 15.4065C3.45702 15.4065 3.16504 15.6985 3.16504 16.0586C3.16504 16.4188 3.45702 16.7108 3.81719 16.7108Z" fill="#A2001D"/>
</g>
<rect x="0.5" y="0.557617" width="29" height="29" rx="14.5" stroke="#D7D7D7"/>
<defs>
<clipPath id="clip0_5568_212931">
<rect y="0.0576172" width="30" height="30" rx="15" fill="white"/>
</clipPath>
</defs>
</svg>
