<svg width="30" height="30" viewBox="0 0 30 30" fill="none" xmlns="http://www.w3.org/2000/svg">
<rect width="30" height="30" rx="2" fill="white"/>
<path d="M17.6829 17.6829L11.4553 23.1779C10.2765 24.218 8.50684 24.2148 7.33184 23.1703V23.1703C6.04523 22.0267 5.93249 20.0554 7.08033 18.7725L13.2927 11.8293L9.87805 8.41463L8.90244 9.39024L12.3171 12.8049M5.97561 11.3415L11.3415 5.97561M19.6341 5C16.1319 5 13.2927 7.83917 13.2927 11.3415C13.2927 14.8438 16.1319 17.6829 19.6341 17.6829C20.7543 17.6829 21.8067 17.3925 22.72 16.8828M25 11.3415C25 14.3049 22.5976 16.7073 19.6341 16.7073C16.6707 16.7073 14.2683 14.3049 14.2683 11.3415C14.2683 8.37798 16.6707 5.97561 19.6341 5.97561C22.5976 5.97561 25 8.37798 25 11.3415ZM20.122 11.3415C20.122 11.6109 19.9036 11.8293 19.6341 11.8293C19.3647 11.8293 19.1463 11.6109 19.1463 11.3415C19.1463 11.0721 19.3647 10.8537 19.6341 10.8537C19.9036 10.8537 20.122 11.0721 20.122 11.3415Z" stroke="#5F5C5C" stroke-width="1.5" stroke-linecap="round" stroke-linejoin="round"/>
</svg>
