<svg width="30" height="31" viewBox="0 0 30 31" fill="none" xmlns="http://www.w3.org/2000/svg">
<g clip-path="url(#clip0_5568_212954)">
<path d="M6.5459 27.4489C8.95316 29.0945 11.8641 30.0576 15.0002 30.0576C18.1363 30.0576 21.0472 29.0945 23.4545 27.4489L15.0002 26.1445L6.5459 27.4489Z" fill="#D80027"/>
<path d="M23.4545 2.66633C21.0472 1.02072 18.1363 0.0576172 15.0002 0.0576172C11.8641 0.0576172 8.95316 1.02072 6.5459 2.66633L15.0002 3.97068L23.4545 2.66633Z" fill="#D80027"/>
<path d="M30 15.0575C30 10.0941 27.0284 5.1095 23.4543 2.66626H6.54568C2.59395 5.36767 0 9.9095 0 15.0575C0 20.2058 2.59395 24.7474 6.54568 27.4488H23.4543C27.4061 24.7474 30 20.2058 30 15.0575Z" fill="#0052B4"/>
<path d="M14.1516 24.5261C13.9466 24.3503 9.13086 20.1639 9.13086 15.0575C9.13086 9.95113 13.9466 5.76467 14.1516 5.58895L15.0004 4.86133L15.8493 5.58889C16.0542 5.76467 20.87 9.95107 20.87 15.0575C20.87 20.164 16.0543 24.3504 15.8493 24.5261L15.0004 25.2537L14.1516 24.5261Z" fill="#D80027"/>
<path d="M19.565 15.0576C19.565 10.4924 14.9998 6.57935 14.9998 6.57935C14.9998 6.57935 10.4346 10.4925 10.4346 15.0576C10.4346 16.4542 10.8621 17.7895 11.4552 18.9707H18.5444C19.1374 17.7895 19.565 16.4542 19.565 15.0576Z" fill="#338AF3"/>
<path d="M19.565 15.0576C19.565 16.4542 19.1374 17.7895 18.5444 18.9707L14.9998 19.6228L11.4552 18.9707C10.8621 17.7896 10.4346 16.4542 10.4346 15.0576H19.565Z" fill="#0052B4"/>
<path d="M14.9996 23.5359C14.9996 23.5359 17.1986 21.6505 18.5442 18.9707H11.4551C12.8007 21.6505 14.9996 23.5359 14.9996 23.5359Z" fill="#FFDA44"/>
<path d="M12.0654 12.449H17.935L15.0002 15.3838L12.0654 12.449Z" fill="#6DA544"/>
<path d="M14.0215 14.4055H15.978V20.2751H14.0215V14.4055Z" fill="#A2001D"/>
</g>
<rect x="0.5" y="0.557617" width="29" height="29" rx="14.5" stroke="#D7D7D7"/>
<defs>
<clipPath id="clip0_5568_212954">
<rect y="0.0576172" width="30" height="30" rx="15" fill="white"/>
</clipPath>
</defs>
</svg>
