<svg width="30" height="31" viewBox="0 0 30 31" fill="none" xmlns="http://www.w3.org/2000/svg">
<g clip-path="url(#clip0_5568_212965)">
<path d="M15 30.0576C23.2843 30.0576 30 23.3419 30 15.0576C30 6.77335 23.2843 0.0576172 15 0.0576172C6.71573 0.0576172 0 6.77335 0 15.0576C0 23.3419 6.71573 30.0576 15 30.0576Z" fill="#F0F0F0"/>
<path d="M29.9998 15.0575C29.9998 9.11059 26.5389 3.97215 21.5215 1.5459V28.569C26.5389 26.1429 29.9998 21.0044 29.9998 15.0575V15.0575Z" fill="#338AF3"/>
<path d="M0 15.0575C0 21.0044 3.46084 26.1429 8.47828 28.5691V1.5459C3.46084 3.97215 0 9.11059 0 15.0575Z" fill="#338AF3"/>
<path d="M18.9197 17.5941L16.3835 15.0578L18.7977 12.6434L18.6883 11.3683L17.9971 10.677L14.9999 13.6742L12.0028 10.677L11.3116 11.3683L11.2022 12.6434L13.6164 15.0578L11.0801 17.5941L12.4636 18.9775L14.9999 16.4412L17.5363 18.9775L18.9197 17.5941Z" fill="#ACABB1"/>
<path d="M18.6888 11.3684L17.3054 12.7519C17.8955 13.342 18.2605 14.1572 18.2605 15.0576C18.2605 16.8586 16.8005 18.3185 14.9996 18.3185C13.1988 18.3185 11.7387 16.8586 11.7387 15.0576C11.7387 14.1572 12.1038 13.342 12.6939 12.7519L11.3104 11.3684C10.3662 12.3125 9.78223 13.6168 9.78223 15.0576C9.78223 17.9392 12.1181 20.275 14.9996 20.275C17.8811 20.275 20.217 17.9391 20.217 15.0576C20.217 13.6169 19.633 12.3125 18.6888 11.3684V11.3684Z" fill="#6DA544"/>
</g>
<rect x="0.5" y="0.557617" width="29" height="29" rx="14.5" stroke="#D7D7D7"/>
<defs>
<clipPath id="clip0_5568_212965">
<rect y="0.0576172" width="30" height="30" rx="15" fill="white"/>
</clipPath>
</defs>
</svg>
