<svg width="30" height="31" viewBox="0 0 30 31" fill="none" xmlns="http://www.w3.org/2000/svg">
<g clip-path="url(#clip0_5568_212972)">
<path d="M15 30.0469C23.2843 30.0469 30 23.3311 30 15.0469C30 6.7626 23.2843 0.046875 15 0.046875C6.71573 0.046875 0 6.7626 0 15.0469C0 23.3311 6.71573 30.0469 15 30.0469Z" fill="#F0F0F0"/>
<path d="M29.873 13.0904H16.9566H16.9566V0.173848C16.3161 0.0904688 15.6631 0.046875 15 0.046875C14.3369 0.046875 13.6839 0.0904688 13.0435 0.173848V13.0904H0.126973C0.0435938 13.7308 0 14.3838 0 15.0469C0 15.71 0.0435938 16.3629 0.126973 17.0034H13.0434H13.0434V29.9199C13.6839 30.0033 14.3369 30.0469 15 30.0469C15.6631 30.0469 16.3161 30.0033 16.9565 29.9199V17.0036V17.0034H29.873C29.9564 16.3629 30 15.71 30 15.0469C30 14.3838 29.9564 13.7308 29.873 13.0904V13.0904Z" fill="#D80027"/>
<path d="M19.2387 15.6991L20.217 16.3513V13.7426L19.2387 14.3948H15.6517V10.8078L16.3039 9.82959H13.6952L14.3474 10.8078V14.3948H10.7604L9.78223 13.7426V16.3513L10.7604 15.6991H14.3474V19.2861L13.6952 20.2643H16.3039L15.6517 19.2861V15.6991H19.2387Z" fill="#FFDA44"/>
</g>
<rect x="0.5" y="0.546875" width="29" height="29" rx="14.5" stroke="#D7D7D7"/>
<defs>
<clipPath id="clip0_5568_212972">
<rect y="0.046875" width="30" height="30" rx="15" fill="white"/>
</clipPath>
</defs>
</svg>
