<svg width="30" height="31" viewBox="0 0 30 31" fill="none" xmlns="http://www.w3.org/2000/svg">
<g clip-path="url(#clip0_5568_212976)">
<path d="M14.9996 0.0576172C13.6457 0.0576172 12.3342 0.238086 11.0865 0.574355L9.78223 15.0576L11.0866 29.5409C12.3342 29.8771 13.6457 30.0576 14.9996 30.0576C23.2838 30.0576 29.9996 23.3418 29.9996 15.0576C29.9996 6.7734 23.2838 0.0576172 14.9996 0.0576172Z" fill="#FFDA44"/>
<path d="M9.78223 15.0576L11.0866 29.5409C12.3342 29.8771 13.6457 30.0576 14.9996 30.0576C23.2838 30.0576 29.9996 23.3418 29.9996 15.0576H9.78223Z" fill="#6DA544"/>
<path d="M0 15.0577C0 20.7434 3.16348 25.6899 7.82607 28.2339V1.88159C3.16348 4.42562 0 9.3721 0 15.0577Z" fill="#D80027"/>
<path d="M0 15.0577C0 21.9881 4.70045 27.8197 11.0869 29.541V0.574463C4.70045 2.29571 0 8.12731 0 15.0577Z" fill="#D80027"/>
<path d="M5.66811 11.1445L6.6393 14.1338H9.78262L7.23977 15.9813L8.2109 18.9707L5.66811 17.1231L3.1252 18.9707L4.09656 15.9813L1.55371 14.1338H4.69686L5.66811 11.1445Z" fill="black"/>
</g>
<rect x="0.5" y="0.557617" width="29" height="29" rx="14.5" stroke="#D7D7D7"/>
<defs>
<clipPath id="clip0_5568_212976">
<rect y="0.0576172" width="30" height="30" rx="15" fill="white"/>
</clipPath>
</defs>
</svg>
