<svg width="30" height="31" viewBox="0 0 30 31" fill="none" xmlns="http://www.w3.org/2000/svg">
<g clip-path="url(#clip0_5568_212983)">
<path d="M20.2179 0.991641C18.5928 0.388652 16.8352 0.0585938 15.0003 0.0585938C13.1656 0.0585938 11.408 0.388652 9.78307 0.991523L9.13086 15.0586L9.78301 29.1257C11.408 29.7286 13.1656 30.0586 15.0003 30.0586C16.8352 30.0586 18.5928 29.7286 20.2179 29.1255L20.87 15.0586L20.2179 0.991641Z" fill="#FFDA44"/>
<path d="M0 15.0585C0 21.5079 4.07063 27.0061 9.78264 29.1255V0.991455C4.07063 3.11091 0 8.60899 0 15.0585Z" fill="#D80027"/>
<path d="M30.0004 15.0585C30.0004 8.60899 25.9298 3.11091 20.2178 0.991455V29.1255C25.9298 27.0061 30.0004 21.5079 30.0004 15.0585Z" fill="#6DA544"/>
</g>
<rect x="0.5" y="0.558594" width="29" height="29" rx="14.5" stroke="#D7D7D7"/>
<defs>
<clipPath id="clip0_5568_212983">
<rect y="0.0585938" width="30" height="30" rx="15" fill="white"/>
</clipPath>
</defs>
</svg>
