<svg width="30" height="31" viewBox="0 0 30 31" fill="none" xmlns="http://www.w3.org/2000/svg">
<g clip-path="url(#clip0_5568_212987)">
<path d="M15 30.0576C23.2843 30.0576 30 23.3419 30 15.0576C30 6.77335 23.2843 0.0576172 15 0.0576172C6.71573 0.0576172 0 6.77335 0 15.0576C0 23.3419 6.71573 30.0576 15 30.0576Z" fill="#F0F0F0"/>
<path d="M14.9997 0.0576172C12.3477 0.0576172 9.85695 0.746797 7.69531 1.95441V28.1608C9.85701 29.3684 12.3477 30.0576 14.9997 30.0576C23.2839 30.0576 29.9997 23.3418 29.9997 15.0576C29.9997 6.7734 23.2839 0.0576172 14.9997 0.0576172Z" fill="#6DA544"/>
<path d="M7.74021 1.92969C6.79656 2.45264 5.91543 3.0742 5.11041 3.78084C5.1918 3.70947 5.274 3.63893 5.35686 3.56932L16.845 15.0576L5.3568 26.5458C5.27389 26.4762 5.19174 26.4056 5.11035 26.3343C5.91537 27.0409 6.79656 27.6624 7.74016 28.1854L30.0005 15.0576L7.74021 1.92969Z" fill="#F0F0F0"/>
<path d="M6.47271 2.7168C6.01527 3.03355 5.57594 3.37439 5.15729 3.73867L14.9999 15.0577L5.15723 26.3767C5.57588 26.741 6.01522 27.0819 6.47266 27.3986L27.4322 15.0577L6.47271 2.7168Z" fill="#FFDA44"/>
<path d="M5.35654 3.56934C5.02309 3.84953 4.70129 4.14326 4.39355 4.45094L13.6958 15.0576L4.39355 25.6642C4.70129 25.972 5.02303 26.2657 5.35654 26.5458L16.8448 15.0576L5.35654 3.56934Z" fill="black"/>
<path d="M4.39339 4.45093C-1.46446 10.3088 -1.46446 19.8063 4.39339 25.6642C6.81407 23.2435 9.14218 20.9154 15 15.0576L4.39339 4.45093Z" fill="#D80027"/>
</g>
<rect x="0.5" y="0.557617" width="29" height="29" rx="14.5" stroke="#D7D7D7"/>
<defs>
<clipPath id="clip0_5568_212987">
<rect y="0.0576172" width="30" height="30" rx="15" fill="white"/>
</clipPath>
</defs>
</svg>
