<svg width="30" height="31" viewBox="0 0 30 31" fill="none" xmlns="http://www.w3.org/2000/svg">
<g clip-path="url(#clip0_5568_212994)">
<path d="M30 15.0576C30 23.3418 23.2842 30.0576 15 30.0576C6.71578 30.0576 0 23.3418 0 15.0576C0 6.7734 15 0.0576172 15 0.0576172C15 0.0576172 30 6.7734 30 15.0576Z" fill="#A2001D"/>
<path d="M0 15.0576C0 6.7734 6.71578 0.0576172 15 0.0576172C23.2842 0.0576172 30 6.7734 30 15.0576" fill="#0052B4"/>
<path d="M20.217 18.9707L14.9996 18.3185L9.78223 18.9707V11.1445H20.217V18.9707Z" fill="#F0F0F0"/>
<path d="M15.0003 18.3185C16.4411 18.3185 17.609 17.1505 17.609 15.7098C17.609 14.269 16.4411 13.1011 15.0003 13.1011C13.5596 13.1011 12.3916 14.269 12.3916 15.7098C12.3916 17.1505 13.5596 18.3185 15.0003 18.3185Z" fill="#0052B4"/>
<path d="M14.9997 17.014C15.72 17.014 16.304 16.43 16.304 15.7096C16.304 14.9893 15.72 14.4053 14.9997 14.4053C14.2793 14.4053 13.6953 14.9893 13.6953 15.7096C13.6953 16.43 14.2793 17.014 14.9997 17.014Z" fill="#A2001D"/>
<path d="M13.0439 12.449H16.957L15.0004 14.4055L13.0439 12.449Z" fill="#6DA544"/>
<path d="M14.3477 13.7532H15.652V17.6662H14.3477V13.7532Z" fill="#FFDA44"/>
<path d="M17.0865 17.2749H12.9125L9.78223 18.9706H20.217L17.0865 17.2749Z" fill="#6DA544"/>
</g>
<rect x="0.5" y="0.557617" width="29" height="29" rx="14.5" stroke="#D7D7D7"/>
<defs>
<clipPath id="clip0_5568_212994">
<rect y="0.0576172" width="30" height="30" rx="15" fill="white"/>
</clipPath>
</defs>
</svg>
