<svg width="30" height="31" viewBox="0 0 30 31" fill="none" xmlns="http://www.w3.org/2000/svg">
<g clip-path="url(#clip0_5568_213003)">
<path d="M15 30.0576C23.2843 30.0576 30 23.3419 30 15.0576C30 6.77335 23.2843 0.0576172 15 0.0576172C6.71573 0.0576172 0 6.77335 0 15.0576C0 23.3419 6.71573 30.0576 15 30.0576Z" fill="#F0F0F0"/>
<path d="M15.0004 30.0576C18.8041 30.0576 22.2765 28.6411 24.9206 26.3076H5.08008C7.72424 28.6411 11.1966 30.0576 15.0004 30.0576Z" fill="#D80027"/>
<path d="M0.472656 18.8075C0.815137 20.138 1.3358 21.3968 2.00729 22.5575H27.9929C28.6643 21.3968 29.185 20.138 29.5275 18.8075L15.0001 17.6663L0.472656 18.8075Z" fill="#0052B4"/>
<path d="M29.528 11.3076C29.1855 9.97719 28.6648 8.71836 27.9933 7.55762L15.0005 7.23154C15.0005 4.61164 15.0005 2.13564 15.0005 0.0576172C13.8863 0.0576172 12.8003 0.179199 11.7553 0.409648C11.7352 0.414102 1.95703 8.12703 1.95703 15.0576C2.20705 15.1011 15.0005 16.362 15.0005 16.362C15.0005 16.362 15.0005 13.5049 15.0005 11.3076H29.528Z" fill="#0052B4"/>
<path d="M15 9.41633V1.91633H10.2495L11.7552 0.410645C5.57408 1.77389 0.824766 6.94912 0.0978516 13.3457C0.0339844 13.9076 0 14.4786 0 15.0576H7.59785V12.068L10.6171 15.0576H15.9834L10.2495 9.41633H15Z" fill="#F0F0F0"/>
<path d="M15.0069 15.0576L9.36557 9.41633H7.59785V9.41639L13.2391 15.0576H5.7065V7.55762H27.9928C27.1761 6.14592 26.1356 4.88006 24.9203 3.80762H5.7065V3.28467C4.19314 4.48098 2.91627 5.9627 1.9565 7.64867V15.0576H0C0 16.3525 0.164062 17.6091 0.472559 18.8076H29.5274C29.8359 17.609 30 16.3525 30 15.0576H15.0069Z" fill="#D80027"/>
</g>
<rect x="0.5" y="0.557617" width="29" height="29" rx="14.5" stroke="#D7D7D7"/>
<defs>
<clipPath id="clip0_5568_213003">
<rect y="0.0576172" width="30" height="30" rx="15" fill="white"/>
</clipPath>
</defs>
</svg>
