<svg width="30" height="30" viewBox="0 0 30 30" fill="none" xmlns="http://www.w3.org/2000/svg">
<rect width="30" height="30" rx="2" fill="white"/>
<path fill-rule="evenodd" clip-rule="evenodd" d="M6.32698 7.63803C6 8.27976 6 9.11984 6 10.8V19.2C6 20.8802 6 21.7202 6.32698 22.362C6.6146 22.9265 7.07354 23.3854 7.63803 23.673C8.27976 24 9.11984 24 10.8 24H19.2C20.8802 24 21.7202 24 22.362 23.673C22.9265 23.3854 23.3854 22.9265 23.673 22.362C24 21.7202 24 20.8802 24 19.2V10.8C24 9.11984 24 8.27976 23.673 7.63803C23.3854 7.07354 22.9265 6.6146 22.362 6.32698C21.7202 6 20.8802 6 19.2 6H10.8C9.11984 6 8.27976 6 7.63803 6.32698C7.07354 6.6146 6.6146 7.07354 6.32698 7.63803ZM11.0773 11.655C12.3299 10.5848 13.9969 10.8992 14.9966 12.0679C15.9963 10.8992 17.6417 10.5961 18.9158 11.655C20.1899 12.7139 20.3447 14.5145 19.3611 15.7802C18.731 16.5909 17.1176 18.0942 16.0389 19.0704C15.6805 19.3947 15.5012 19.5569 15.2866 19.622C15.102 19.6779 14.8911 19.6779 14.7066 19.622C14.4919 19.5569 14.3127 19.3947 13.9542 19.0704C12.8756 18.0942 11.2621 16.5909 10.6321 15.7802C9.64848 14.5145 9.82482 12.7252 11.0773 11.655Z" fill="#5F5C5C" stroke="#5F5C5C" stroke-linecap="round" stroke-linejoin="round"/>
</svg>
