<svg width="30" height="30" viewBox="0 0 30 30" fill="none" xmlns="http://www.w3.org/2000/svg">
<rect width="30" height="30" rx="2" fill="white"/>
<path d="M6 10.8C6 9.11984 6 8.27976 6.32698 7.63803C6.6146 7.07354 7.07354 6.6146 7.63803 6.32698C8.27976 6 9.11984 6 10.8 6H19.2C20.8802 6 21.7202 6 22.362 6.32698C22.9265 6.6146 23.3854 7.07354 23.673 7.63803C24 8.27976 24 9.11984 24 10.8V19.2C24 20.8802 24 21.7202 23.673 22.362C23.3854 22.9265 22.9265 23.3854 22.362 23.673C21.7202 24 20.8802 24 19.2 24H10.8C9.11984 24 8.27976 24 7.63803 23.673C7.07354 23.3854 6.6146 22.9265 6.32698 22.362C6 21.7202 6 20.8802 6 19.2V10.8Z" stroke="#5F5C5C" stroke-width="1.5" stroke-linecap="round" stroke-linejoin="round"/>
<path fill-rule="evenodd" clip-rule="evenodd" d="M14.9966 12.0679C13.9969 10.8992 12.3299 10.5848 11.0773 11.655C9.82482 12.7252 9.64848 14.5145 10.6321 15.7802C11.2621 16.5909 12.8756 18.0942 13.9542 19.0704C14.3127 19.3947 14.4919 19.5569 14.7066 19.622C14.8911 19.6779 15.102 19.6779 15.2866 19.622C15.5012 19.5569 15.6805 19.3947 16.0389 19.0704C17.1176 18.0942 18.731 16.5909 19.3611 15.7802C20.3447 14.5145 20.1899 12.7139 18.9158 11.655C17.6417 10.5961 15.9963 10.8992 14.9966 12.0679Z" stroke="#5F5C5C" stroke-width="1.5" stroke-linecap="round" stroke-linejoin="round"/>
</svg>
