<svg width="30" height="30" viewBox="0 0 30 30" fill="none" xmlns="http://www.w3.org/2000/svg">
<rect width="30" height="30" rx="2" fill="white"/>
<path d="M15 25C20.5228 25 25 20.5228 25 15C25 9.47715 20.5228 5 15 5C9.47715 5 5 9.47715 5 15C5 20.5228 9.47715 25 15 25Z" stroke="#5F5C5C" stroke-width="1.5" stroke-linecap="round" stroke-linejoin="round"/>
<path fill-rule="evenodd" clip-rule="evenodd" d="M14.9966 12.0679C13.9969 10.8992 12.3299 10.5848 11.0773 11.655C9.82482 12.7252 9.64848 14.5145 10.6321 15.7802C11.2621 16.5909 12.8756 18.0942 13.9542 19.0704C14.3127 19.3947 14.4919 19.5569 14.7066 19.622C14.8911 19.6779 15.102 19.6779 15.2866 19.622C15.5012 19.5569 15.6805 19.3947 16.0389 19.0704C17.1176 18.0942 18.731 16.5909 19.3611 15.7802C20.3447 14.5145 20.1899 12.7139 18.9158 11.655C17.6417 10.5961 15.9963 10.8992 14.9966 12.0679Z" stroke="#5F5C5C" stroke-width="1.5" stroke-linecap="round" stroke-linejoin="round"/>
</svg>
