<svg width="30" height="30" viewBox="0 0 30 30" fill="none" xmlns="http://www.w3.org/2000/svg">
<rect width="30" height="30" rx="2" fill="white"/>
<path fill-rule="evenodd" clip-rule="evenodd" d="M14.9932 8.13581C12.9938 5.7984 9.65975 5.16964 7.15469 7.31001C4.64964 9.45038 4.29697 13.029 6.2642 15.5604C7.89982 17.6651 12.8498 22.1041 14.4721 23.5408C14.6536 23.7016 14.7444 23.7819 14.8502 23.8135C14.9426 23.8411 15.0437 23.8411 15.1361 23.8135C15.2419 23.7819 15.3327 23.7016 15.5142 23.5408C17.1365 22.1041 22.0865 17.6651 23.7221 15.5604C25.6893 13.029 25.3797 9.42787 22.8316 7.31001C20.2835 5.19216 16.9925 5.7984 14.9932 8.13581Z" stroke="#5F5C5C" stroke-width="1.5" stroke-linecap="round" stroke-linejoin="round"/>
</svg>
