<svg width="30" height="30" viewBox="0 0 30 30" fill="none" xmlns="http://www.w3.org/2000/svg">
<rect width="30" height="30" rx="2" fill="white"/>
<path fill-rule="evenodd" clip-rule="evenodd" d="M19.2972 14.7499C18.8751 12.482 16.9454 10.8233 14.5156 11.2742C12.0859 11.725 10.5149 13.9171 10.8433 16.299C11.1072 18.2127 12.5639 22.7027 13.1264 24.394C13.2032 24.6248 13.2415 24.7402 13.3175 24.8206C13.3837 24.8907 13.4717 24.9416 13.5655 24.9638C13.6732 24.9894 13.7923 24.9649 14.0306 24.916C15.7765 24.5575 20.3933 23.574 22.1826 22.8457C24.4096 21.9392 25.5589 19.4841 24.6981 17.153C23.8372 14.8219 21.4723 13.9815 19.2972 14.7499Z" fill="#5F5C5C"/>
<path d="M11.6587 7.52093C9.75657 6.2157 7.21918 6.40739 5.81989 8.44424C4.42059 10.4811 4.85975 13.142 6.77629 14.594C7.6461 15.253 9.36636 16.2242 10.986 17.0884C10.9237 16.7945 10.875 16.5283 10.8433 16.299C10.5149 13.9171 12.0859 11.725 14.5156 11.2742C16.2218 10.9576 17.6814 11.6812 18.5455 12.9254C18.9195 12.261 19.2313 11.6615 19.4236 11.2052C20.3573 8.98947 19.434 6.44077 17.1769 5.40112C14.9199 4.36148 12.6534 5.4395 11.6587 7.52093Z" fill="#5F5C5C"/>
<path d="M14.5156 11.2742C16.9454 10.8233 18.8751 12.482 19.2972 14.7499C21.4723 13.9815 23.8372 14.8219 24.6981 17.153C25.5589 19.4841 24.4096 21.9392 22.1826 22.8457C20.3933 23.574 15.7765 24.5575 14.0306 24.916C13.7923 24.9649 13.6732 24.9894 13.5655 24.9638C13.4717 24.9416 13.3837 24.8907 13.3175 24.8206C13.2415 24.7402 13.2032 24.6248 13.1264 24.394C12.5639 22.7027 11.1072 18.2127 10.8433 16.299M14.5156 11.2742C12.0859 11.725 10.5149 13.9171 10.8433 16.299M14.5156 11.2742C16.2218 10.9576 17.6814 11.6812 18.5455 12.9254C18.9195 12.261 19.2313 11.6615 19.4236 11.2052C20.3573 8.98947 19.434 6.44077 17.1769 5.40112C14.9199 4.36148 12.6534 5.4395 11.6587 7.52093C9.75657 6.2157 7.21918 6.40739 5.81989 8.44424C4.42059 10.4811 4.85975 13.142 6.77629 14.594C7.6461 15.253 9.36636 16.2242 10.986 17.0884C10.9237 16.7945 10.875 16.5283 10.8433 16.299" stroke="white" stroke-linecap="round" stroke-linejoin="round"/>
</svg>
