<svg width="30" height="30" viewBox="0 0 30 30" fill="none" xmlns="http://www.w3.org/2000/svg">
<rect width="30" height="30" rx="2" fill="white"/>
<path d="M9 23.087H11.6103C11.9506 23.087 12.2889 23.1275 12.6188 23.2085L15.3769 23.8788C15.9753 24.0246 16.5988 24.0387 17.2035 23.9213L20.253 23.328C21.0585 23.1711 21.7996 22.7853 22.3803 22.2204L24.5379 20.1216C25.154 19.5233 25.154 18.5523 24.5379 17.953C23.9832 17.4133 23.1047 17.3526 22.4771 17.8102L19.9626 19.6447C19.6025 19.908 19.1643 20.0497 18.7137 20.0497H16.2855L17.8311 20.0497C18.7022 20.0497 19.4079 19.3632 19.4079 18.5158V18.209C19.4079 17.5054 18.9156 16.8919 18.2141 16.7218L15.8286 16.1416C15.4404 16.0475 15.0428 15.9999 14.6431 15.9999C13.6783 15.9999 11.9319 16.7987 11.9319 16.7987L9 18.0248M5 17.5999L5 23.3999C5 23.9599 5 24.24 5.10899 24.4539C5.20487 24.642 5.35785 24.795 5.54601 24.8909C5.75992 24.9999 6.03995 24.9999 6.6 24.9999H7.4C7.96005 24.9999 8.24008 24.9999 8.45399 24.8909C8.64215 24.795 8.79513 24.642 8.89101 24.4539C9 24.24 9 23.9599 9 23.3999V17.5999C9 17.0398 9 16.7598 8.89101 16.5459C8.79513 16.3577 8.64215 16.2048 8.45399 16.1089C8.24008 15.9999 7.96005 15.9999 7.4 15.9999H6.6C6.03995 15.9999 5.75992 15.9999 5.54601 16.1089C5.35785 16.2048 5.20487 16.3577 5.10899 16.5459C5 16.7598 5 17.0398 5 17.5999ZM20.1914 6.59215C19.5946 5.34329 18.2186 4.68168 16.8804 5.32027C15.5423 5.95886 14.9722 7.47328 15.5325 8.80272C15.8787 9.62435 16.8707 11.2199 17.5781 12.3189C17.8394 12.725 17.9701 12.928 18.161 13.0468C18.3247 13.1487 18.5297 13.2036 18.7224 13.1972C18.9471 13.1898 19.1618 13.0793 19.5911 12.8583C20.7532 12.2602 22.4101 11.3744 23.1208 10.836C24.2707 9.96481 24.5556 8.36347 23.6947 7.14614C22.8337 5.9288 21.3327 5.80902 20.1914 6.59215Z" stroke="#5F5C5C" stroke-width="1.5" stroke-linecap="round" stroke-linejoin="round"/>
</svg>
