<svg width="30" height="30" viewBox="0 0 30 30" fill="none" xmlns="http://www.w3.org/2000/svg">
<rect width="30" height="30" rx="2" fill="white"/>
<path d="M12.09 12C12.3251 11.3317 12.7892 10.7681 13.4 10.4091C14.0108 10.0502 14.7289 9.91894 15.4272 10.0387C16.1255 10.1585 16.7588 10.5215 17.2151 11.0635C17.6713 11.6055 17.9211 12.2915 17.92 13C17.92 15 14.92 16 14.92 16" fill="#5F5C5C"/>
<path d="M6 10.8C6 9.11984 6 8.27976 6.32698 7.63803C6.6146 7.07354 7.07354 6.6146 7.63803 6.32698C8.27976 6 9.11984 6 10.8 6H19.2C20.8802 6 21.7202 6 22.362 6.32698C22.9265 6.6146 23.3854 7.07354 23.673 7.63803C24 8.27976 24 9.11984 24 10.8V19.2C24 20.8802 24 21.7202 23.673 22.362C23.3854 22.9265 22.9265 23.3854 22.362 23.673C21.7202 24 20.8802 24 19.2 24H10.8C9.11984 24 8.27976 24 7.63803 23.673C7.07354 23.3854 6.6146 22.9265 6.32698 22.362C6 21.7202 6 20.8802 6 19.2V10.8Z" fill="#5F5C5C"/>
<path d="M12.09 12C12.3251 11.3317 12.7892 10.7681 13.4 10.4091C14.0108 10.0502 14.7289 9.91894 15.4272 10.0387C16.1255 10.1585 16.7588 10.5215 17.2151 11.0635C17.6713 11.6055 17.9211 12.2915 17.92 13C17.92 15 14.92 16 14.92 16M15 20H15.01M10.8 24H19.2C20.8802 24 21.7202 24 22.362 23.673C22.9265 23.3854 23.3854 22.9265 23.673 22.362C24 21.7202 24 20.8802 24 19.2V10.8C24 9.11984 24 8.27976 23.673 7.63803C23.3854 7.07354 22.9265 6.6146 22.362 6.32698C21.7202 6 20.8802 6 19.2 6H10.8C9.11984 6 8.27976 6 7.63803 6.32698C7.07354 6.6146 6.6146 7.07354 6.32698 7.63803C6 8.27976 6 9.11984 6 10.8V19.2C6 20.8802 6 21.7202 6.32698 22.362C6.6146 22.9265 7.07354 23.3854 7.63803 23.673C8.27976 24 9.11984 24 10.8 24Z" stroke="#5F5C5C" stroke-linecap="round" stroke-linejoin="round"/>
<path d="M12.0901 12C12.3252 11.3316 12.7892 10.7681 13.4 10.4091C14.0108 10.0501 14.729 9.9189 15.4273 10.0387C16.1255 10.1584 16.7589 10.5215 17.2152 11.0635C17.6714 11.6055 17.9211 12.2915 17.9201 13C17.9201 15 14.9201 16 14.9201 16M15.0001 20H15.0101" stroke="white" stroke-width="2" stroke-linecap="round" stroke-linejoin="round"/>
</svg>
