<svg width="30" height="30" viewBox="0 0 30 30" fill="none" xmlns="http://www.w3.org/2000/svg">
<rect width="30" height="30" rx="2" fill="white"/>
<path d="M12.09 12C12.3251 11.3317 12.7892 10.7681 13.4 10.4091C14.0108 10.0502 14.7289 9.91894 15.4272 10.0387C16.1255 10.1585 16.7588 10.5215 17.2151 11.0635C17.6713 11.6055 17.9211 12.2915 17.92 13C17.92 15 14.92 16 14.92 16M15 20H15.01M25 15C25 20.5228 20.5228 25 15 25C9.47715 25 5 20.5228 5 15C5 9.47715 9.47715 5 15 5C20.5228 5 25 9.47715 25 15Z" stroke="#5F5C5C" stroke-width="1.5" stroke-linecap="round" stroke-linejoin="round"/>
</svg>
