<svg width="30" height="30" viewBox="0 0 30 30" fill="none" xmlns="http://www.w3.org/2000/svg">
<rect width="30" height="30" rx="2" fill="white"/>
<path d="M14.223 5.43177C14.5066 5.27421 14.6484 5.19543 14.7985 5.16454C14.9315 5.13721 15.0685 5.13721 15.2015 5.16454C15.3516 5.19543 15.4934 5.27421 15.777 5.43177L23.177 9.54288C23.4766 9.70928 23.6263 9.79248 23.7354 9.91082C23.8318 10.0155 23.9049 10.1396 23.9495 10.2748C24 10.4276 24 10.5989 24 10.9415V19.0586C24 19.4013 24 19.5726 23.9495 19.7254C23.9049 19.8606 23.8318 19.9847 23.7354 20.0893C23.6263 20.2077 23.4766 20.2909 23.177 20.4573L15.777 24.5684C15.4934 24.726 15.3516 24.8047 15.2015 24.8356C15.0685 24.863 14.9315 24.863 14.7985 24.8356C14.6484 24.8047 14.5066 24.726 14.223 24.5684L6.82297 20.4573C6.52345 20.2909 6.37369 20.2077 6.26463 20.0893C6.16816 19.9847 6.09515 19.8606 6.05048 19.7254C6 19.5726 6 19.4013 6 19.0586V10.9415C6 10.5989 6 10.4276 6.05048 10.2748C6.09515 10.1396 6.16816 10.0155 6.26463 9.91082C6.37369 9.79248 6.52345 9.70928 6.82297 9.54288L14.223 5.43177Z" stroke="#5F5C5C" stroke-width="1.5" stroke-linecap="round" stroke-linejoin="round"/>
<path fill-rule="evenodd" clip-rule="evenodd" d="M14.9966 12.068C13.9969 10.8993 12.3299 10.5849 11.0773 11.6551C9.82482 12.7253 9.64848 14.5146 10.6321 15.7803C11.2621 16.591 12.8756 18.0943 13.9542 19.0704C14.3127 19.3948 14.4919 19.557 14.7066 19.6221C14.8911 19.678 15.102 19.678 15.2866 19.6221C15.5012 19.557 15.6805 19.3948 16.0389 19.0704C17.1176 18.0943 18.731 16.591 19.3611 15.7803C20.3447 14.5146 20.1899 12.714 18.9158 11.6551C17.6417 10.5962 15.9963 10.8993 14.9966 12.068Z" stroke="#5F5C5C" stroke-width="1.5" stroke-linecap="round" stroke-linejoin="round"/>
</svg>
