<svg width="30" height="30" viewBox="0 0 30 30" fill="none" xmlns="http://www.w3.org/2000/svg">
<path d="M14.223 5.43168C14.5066 5.27412 14.6484 5.19535 14.7985 5.16446C14.9315 5.13713 15.0685 5.13713 15.2015 5.16446C15.3516 5.19535 15.4934 5.27412 15.777 5.43168L23.177 9.54279C23.4766 9.7092 23.6263 9.7924 23.7354 9.91073C23.8318 10.0154 23.9049 10.1395 23.9495 10.2747C24 10.4275 24 10.5988 24 10.9414V19.0586C24 19.4012 24 19.5725 23.9495 19.7253C23.9049 19.8605 23.8318 19.9846 23.7354 20.0893C23.6263 20.2076 23.4766 20.2908 23.177 20.4572L15.777 24.5683C15.4934 24.7259 15.3516 24.8047 15.2015 24.8355C15.0685 24.8629 14.9315 24.8629 14.7985 24.8355C14.6484 24.8047 14.5066 24.7259 14.223 24.5683L6.82297 20.4572C6.52345 20.2908 6.37369 20.2076 6.26463 20.0893C6.16816 19.9846 6.09515 19.8605 6.05048 19.7253C6 19.5725 6 19.4012 6 19.0586V10.9414C6 10.5988 6 10.4275 6.05048 10.2747C6.09515 10.1395 6.16816 10.0154 6.26463 9.91073C6.37369 9.7924 6.52345 9.7092 6.82297 9.54279L14.223 5.43168Z" stroke="#5F5C5C" stroke-width="1.5" stroke-linecap="round" stroke-linejoin="round"/>
</svg>
