<svg width="30" height="30" viewBox="0 0 30 30" fill="none" xmlns="http://www.w3.org/2000/svg">
<path d="M24.5679 14.223C24.7255 14.5066 24.8042 14.6484 24.8351 14.7985C24.8625 14.9315 24.8625 15.0685 24.8351 15.2015C24.8042 15.3516 24.7255 15.4934 24.5679 15.777L20.4568 23.177C20.2904 23.4766 20.2072 23.6263 20.0889 23.7354C19.9842 23.8318 19.8601 23.9049 19.7249 23.9495C19.5721 24 19.4008 24 19.0582 24H10.941C10.5984 24 10.4271 24 10.2743 23.9495C10.1391 23.9049 10.015 23.8318 9.91033 23.7354C9.79199 23.6263 9.70879 23.4766 9.54239 23.177L5.43128 15.777C5.27372 15.4934 5.19494 15.3516 5.16406 15.2015C5.13672 15.0685 5.13672 14.9315 5.16406 14.7985C5.19494 14.6484 5.27372 14.5066 5.43128 14.223L9.54239 6.82297C9.70879 6.52345 9.79199 6.37369 9.91033 6.26463C10.015 6.16816 10.1391 6.09515 10.2743 6.05048C10.4271 6 10.5984 6 10.941 6L19.0582 6C19.4008 6 19.5721 6 19.7249 6.05049C19.8601 6.09515 19.9842 6.16816 20.0889 6.26463C20.2072 6.37369 20.2904 6.52345 20.4568 6.82297L24.5679 14.223Z" stroke="#5F5C5C" stroke-width="1.5" stroke-linecap="round" stroke-linejoin="round"/>
</svg>
