<svg width="30" height="30" viewBox="0 0 30 30" fill="none" xmlns="http://www.w3.org/2000/svg">
<rect width="30" height="30" rx="2" fill="white"/>
<path d="M15 11C9.47715 11 5 12.7909 5 15C5 16 6.33789 17 6.33789 17C8.06694 15.8044 11.2987 15 15.0001 15C18.7015 15 21.9332 15.8044 23.6622 17C23.6988 16.9725 25 15.986 25 15C25 12.7909 20.5228 11 15 11Z" fill="#D9D9D9"/>
<path d="M25 15C25 12.7909 20.5228 11 15 11C9.47715 11 5 12.7909 5 15M25 15C25 16 23.6622 17 23.6622 17M25 15C25 17.2091 20.5228 19 15 19C9.47715 19 5 17.2091 5 15M25 15C25 15.986 23.6988 16.9725 23.6622 17M5 15C5 16 6.33789 17 6.33789 17C8.06694 15.8044 11.2987 15 15.0001 15C18.7015 15 21.9332 15.8044 23.6622 17" stroke="#5F5C5C" stroke-width="1.5" stroke-linejoin="round"/>
</svg>
