<svg width="30" height="30" viewBox="0 0 30 30" fill="none" xmlns="http://www.w3.org/2000/svg">
<rect width="30" height="30" rx="2" fill="white"/>
<path d="M12 24V16.6C12 16.0399 12 15.7599 12.109 15.546C12.2049 15.3578 12.3578 15.2049 12.546 15.109C12.7599 15 13.0399 15 13.6 15H16.4C16.9601 15 17.2401 15 17.454 15.109C17.6422 15.2049 17.7951 15.3578 17.891 15.546C18 15.7599 18 16.0399 18 16.6V24M14.0177 5.764L7.23539 11.0391C6.78202 11.3917 6.55534 11.5681 6.39203 11.7889C6.24737 11.9844 6.1396 12.2048 6.07403 12.4391C6 12.7035 6 12.9907 6 13.5651V20.8C6 21.9201 6 22.4801 6.21799 22.908C6.40973 23.2843 6.71569 23.5903 7.09202 23.782C7.51984 24 8.07989 24 9.2 24H20.8C21.9201 24 22.4802 24 22.908 23.782C23.2843 23.5903 23.5903 23.2843 23.782 22.908C24 22.4801 24 21.9201 24 20.8V13.5651C24 12.9907 24 12.7035 23.926 12.4391C23.8604 12.2048 23.7526 11.9844 23.608 11.7889C23.4447 11.5681 23.218 11.3917 22.7646 11.0391L15.9823 5.764C15.631 5.49075 15.4553 5.35412 15.2613 5.3016C15.0902 5.25526 14.9098 5.25526 14.7387 5.3016C14.5447 5.35412 14.369 5.49075 14.0177 5.764Z" stroke="#5F5C5C" stroke-width="1.5" stroke-linecap="round" stroke-linejoin="round"/>
</svg>
