<svg width="30" height="30" viewBox="0 0 30 30" fill="none" xmlns="http://www.w3.org/2000/svg">
<rect width="30" height="30" rx="2" fill="white"/>
<path d="M6 13.5651C6 12.9907 6 12.7035 6.07403 12.4391C6.1396 12.2048 6.24737 11.9844 6.39203 11.7889C6.55534 11.5681 6.78202 11.3917 7.23539 11.0391L14.0177 5.764C14.369 5.49075 14.5447 5.35412 14.7387 5.3016C14.9098 5.25526 15.0902 5.25526 15.2613 5.3016C15.4553 5.35412 15.631 5.49075 15.9823 5.764L22.7646 11.0391C23.218 11.3917 23.4447 11.5681 23.608 11.7889C23.7526 11.9844 23.8604 12.2048 23.926 12.4391C24 12.7035 24 12.9907 24 13.5651V20.8C24 21.9201 24 22.4801 23.782 22.908C23.5903 23.2843 23.2843 23.5903 22.908 23.782C22.4802 24 21.9201 24 20.8 24H9.2C8.0799 24 7.51984 24 7.09202 23.782C6.71569 23.5903 6.40973 23.2843 6.21799 22.908C6 22.4801 6 21.9201 6 20.8V13.5651Z" fill="#5F5C5C" stroke="#5F5C5C" stroke-linecap="round" stroke-linejoin="round"/>
<path d="M11 20H19" stroke="white" stroke-width="2" stroke-linecap="round" stroke-linejoin="round"/>
</svg>
