<svg width="30" height="30" viewBox="0 0 30 30" fill="none" xmlns="http://www.w3.org/2000/svg">
<rect width="30" height="30" rx="2" fill="white"/>
<path d="M12 24V16.6C12 16.0399 12 15.7599 12.109 15.546C12.2049 15.3578 12.3579 15.2049 12.546 15.109C12.7599 15 13.04 15 13.6 15H16.4C16.9601 15 17.2401 15 17.454 15.109C17.6422 15.2049 17.7951 15.3578 17.891 15.546C18 15.7599 18 16.0399 18 16.6V24M5 12.5L14.04 5.72C14.3843 5.46181 14.5564 5.33271 14.7454 5.28294C14.9123 5.23902 15.0877 5.23902 15.2546 5.28295C15.4436 5.33271 15.6157 5.46181 15.96 5.72L25 12.5M7 11V20.8C7 21.9201 7 22.4802 7.21799 22.908C7.40974 23.2843 7.7157 23.5903 8.09202 23.782C8.51985 24 9.0799 24 10.2 24H19.8C20.9201 24 21.4802 24 21.908 23.782C22.2843 23.5903 22.5903 23.2843 22.782 22.908C23 22.4802 23 21.9201 23 20.8V11L16.92 6.44C16.2315 5.92361 15.8872 5.66542 15.5091 5.56589C15.1754 5.47804 14.8246 5.47804 14.4909 5.56589C14.1128 5.66542 13.7685 5.92361 13.08 6.44L7 11Z" stroke="#5F5C5C" stroke-width="1.5" stroke-linecap="round" stroke-linejoin="round"/>
</svg>
