<svg width="30" height="31" viewBox="0 0 30 31" fill="none" xmlns="http://www.w3.org/2000/svg">
<g clip-path="url(#clip0_5568_213011)">
<path d="M15 30.0576C23.2843 30.0576 30 23.3419 30 15.0576C30 6.77335 23.2843 0.0576172 15 0.0576172C6.71573 0.0576172 0 6.77335 0 15.0576C0 23.3419 6.71573 30.0576 15 30.0576Z" fill="#F0F0F0"/>
<path d="M14.9999 30.0576C20.9467 30.0576 26.0852 26.5968 28.5115 21.5793H1.48828C3.91453 26.5968 9.05297 30.0576 14.9999 30.0576Z" fill="#338AF3"/>
<path d="M14.9999 0.0576172C9.05297 0.0576172 3.91453 3.51846 1.48828 8.5359H28.5114C26.0852 3.51846 20.9467 0.0576172 14.9999 0.0576172V0.0576172Z" fill="#338AF3"/>
<path d="M9.23105 9.84033L9.71668 11.335H11.2882L10.0169 12.2587L10.5025 13.7533L9.23105 12.8296L7.95957 13.7533L8.44525 12.2587L7.17383 11.335H8.74537L9.23105 9.84033Z" fill="#338AF3"/>
<path d="M9.23105 16.3621L9.71668 17.8568H11.2882L10.0169 18.7805L10.5025 20.2751L9.23105 19.3513L7.95957 20.2751L8.44525 18.7805L7.17383 17.8568H8.74537L9.23105 16.3621Z" fill="#338AF3"/>
<path d="M20.7691 9.84033L21.2548 11.335H22.8264L21.5549 12.2587L22.0406 13.7533L20.7691 12.8296L19.4977 13.7533L19.9833 12.2587L18.7119 11.335H20.2835L20.7691 9.84033Z" fill="#338AF3"/>
<path d="M20.7691 16.3621L21.2548 17.8568H22.8264L21.5549 18.7805L22.0406 20.2751L20.7691 19.3513L19.4977 20.2751L19.9833 18.7805L18.7119 17.8568H20.2835L20.7691 16.3621Z" fill="#338AF3"/>
<path d="M14.9996 13.1011L15.4853 14.5958H17.0568L15.7854 15.5195L16.2711 17.0141L14.9996 16.0904L13.7281 17.0141L14.2138 15.5195L12.9424 14.5958H14.5139L14.9996 13.1011Z" fill="#338AF3"/>
</g>
<rect x="0.5" y="0.557617" width="29" height="29" rx="14.5" stroke="#D7D7D7"/>
<defs>
<clipPath id="clip0_5568_213011">
<rect y="0.0576172" width="30" height="30" rx="15" fill="white"/>
</clipPath>
</defs>
</svg>
