<svg width="30" height="31" viewBox="0 0 30 31" fill="none" xmlns="http://www.w3.org/2000/svg">
<g clip-path="url(#clip0_5568_213021)">
<path d="M15 30.0576C23.2843 30.0576 30 23.3419 30 15.0576C30 6.77335 23.2843 0.0576172 15 0.0576172C6.71573 0.0576172 0 6.77335 0 15.0576C0 23.3419 6.71573 30.0576 15 30.0576Z" fill="#D80027"/>
<path d="M16.5489 11.4053C16.208 12.8232 15.6023 12.5528 15.3051 13.7894C13.5541 13.3684 12.4758 11.6077 12.8968 9.85659C13.3176 8.10563 15.0785 7.02727 16.8295 7.44827C16.235 9.92133 16.8539 10.1372 16.5489 11.4053Z" fill="#F0F0F0"/>
<path d="M12.0049 12.4561C13.2481 13.2184 12.8038 13.711 13.8879 14.3759C12.9464 15.9111 10.9387 16.3925 9.40338 15.451C7.86817 14.5096 7.3867 12.5018 8.32818 10.9666C10.4965 12.2962 10.8929 11.7743 12.0049 12.4561V12.4561Z" fill="#F0F0F0"/>
<path d="M11.6005 17.1021C12.7098 16.1553 13.0408 16.7301 14.0081 15.9045C15.1773 17.2743 15.0147 19.3326 13.645 20.5018C12.2752 21.671 10.2169 21.5082 9.04785 20.1386C10.9823 18.4872 10.6084 17.9488 11.6005 17.1021Z" fill="#F0F0F0"/>
<path d="M15.8941 18.9226C15.3363 17.5752 15.9853 17.4378 15.499 16.2628C17.163 15.5742 19.0704 16.3649 19.7591 18.0289C20.4477 19.6929 19.657 21.6001 17.993 22.2889C17.0205 19.9387 16.393 20.1279 15.8941 18.9226Z" fill="#F0F0F0"/>
<path d="M18.952 15.402C17.4981 15.516 17.5679 14.8563 16.3002 14.9558C16.1594 13.1605 17.5008 11.5907 19.2962 11.4498C21.0915 11.3092 22.6612 12.6506 22.802 14.446C20.2662 14.6448 20.2522 15.3001 18.952 15.402Z" fill="#F0F0F0"/>
</g>
<rect x="0.5" y="0.557617" width="29" height="29" rx="14.5" stroke="#D7D7D7"/>
<defs>
<clipPath id="clip0_5568_213021">
<rect y="0.0576172" width="30" height="30" rx="15" fill="white"/>
</clipPath>
</defs>
</svg>
