<svg width="30" height="31" viewBox="0 0 30 31" fill="none" xmlns="http://www.w3.org/2000/svg">
<g clip-path="url(#clip0_5568_213033)">
<path d="M15 30.0576C23.2843 30.0576 30 23.3419 30 15.0576C30 6.77335 23.2843 0.0576172 15 0.0576172C6.71573 0.0576172 0 6.77335 0 15.0576C0 23.3419 6.71573 30.0576 15 30.0576Z" fill="#F0F0F0"/>
<path d="M0.516602 18.9707C1.38449 22.191 3.29729 24.982 5.86943 26.9583V18.9707H0.516602Z" fill="#0052B4"/>
<path d="M13.6953 30.0006C14.1253 30.0376 14.5601 30.0576 14.9997 30.0576C21.9301 30.0576 27.7617 25.3572 29.4829 18.9707H13.6953V30.0006Z" fill="#0052B4"/>
<path d="M29.4829 11.1446C27.7617 4.75807 21.9301 0.0576172 14.9997 0.0576172C14.5601 0.0576172 14.1253 0.0776562 13.6953 0.114687V11.1446H29.4829Z" fill="#0052B4"/>
<path d="M5.86943 3.15698C3.29729 5.13335 1.38449 7.92435 0.516602 11.1446H5.86943V3.15698Z" fill="#0052B4"/>
<path d="M29.873 13.1011H11.7392H11.7391V0.414185C10.3529 0.721567 9.03873 1.21979 7.82607 1.88149V13.1011H0.126973C0.0434766 13.7416 0 14.3945 0 15.0576C0 15.7207 0.0434766 16.3737 0.126973 17.0141H7.82602H7.82607V28.2337C9.03873 28.8954 10.3529 29.3937 11.7391 29.701V17.0143V17.0142H29.873C29.9564 16.3737 30 15.7207 30 15.0576C30 14.3945 29.9564 13.7416 29.873 13.1011V13.1011Z" fill="#D80027"/>
</g>
<rect x="0.5" y="0.557617" width="29" height="29" rx="14.5" stroke="#D7D7D7"/>
<defs>
<clipPath id="clip0_5568_213033">
<rect y="0.0576172" width="30" height="30" rx="15" fill="white"/>
</clipPath>
</defs>
</svg>
