<svg width="30" height="30" viewBox="0 0 30 30" fill="none" xmlns="http://www.w3.org/2000/svg">
<path d="M5 15H8.88197C9.56717 15 10.1936 15.3871 10.5 16C10.8064 16.6129 11.4328 17 12.118 17H17.882C18.5672 17 19.1936 16.6129 19.5 16C19.8064 15.3871 20.4328 15 21.118 15H25M5 15V11.8C5 10.1198 5 9.27976 5.32698 8.63803C5.6146 8.07354 6.07354 7.6146 6.63803 7.32698C7.27976 7 8.11984 7 9.8 7H20.2C21.8802 7 22.7202 7 23.362 7.32698C23.9265 7.6146 24.3854 8.07354 24.673 8.63803C25 9.27976 25 10.1198 25 11.8V15M5 15V18.2C5 19.8802 5 20.7202 5.32698 21.362C5.6146 21.9265 6.07354 22.3854 6.63803 22.673C7.27976 23 8.11984 23 9.8 23H20.2C21.8802 23 22.7202 23 23.362 22.673C23.9265 22.3854 24.3854 21.9265 24.673 21.362C25 20.7202 25 19.8802 25 18.2V15" stroke="#5F5C5C" stroke-width="1.5" stroke-linecap="round" stroke-linejoin="round"/>
</svg>
