<svg width="30" height="30" viewBox="0 0 30 30" fill="none" xmlns="http://www.w3.org/2000/svg">
<path d="M5.5 15H8.88197C9.56717 15 10.1936 15.3871 10.5 16C10.8064 16.6129 11.4328 17 12.118 17H17.882C18.5672 17 19.1936 16.6129 19.5 16C19.8064 15.3871 20.4328 15 21.118 15H24.5M11.9666 7H18.0334C19.1103 7 19.6487 7 20.1241 7.16396C20.5445 7.30896 20.9274 7.5456 21.2451 7.85675C21.6043 8.2086 21.8451 8.6902 22.3267 9.65337L24.4932 13.9865C24.6822 14.3645 24.7767 14.5535 24.8434 14.7515C24.9026 14.9275 24.9453 15.1085 24.971 15.2923C25 15.4992 25 15.7105 25 16.1331V18.2C25 19.8802 25 20.7202 24.673 21.362C24.3854 21.9265 23.9265 22.3854 23.362 22.673C22.7202 23 21.8802 23 20.2 23H9.8C8.11984 23 7.27976 23 6.63803 22.673C6.07354 22.3854 5.6146 21.9265 5.32698 21.362C5 20.7202 5 19.8802 5 18.2V16.1331C5 15.7105 5 15.4992 5.02897 15.2923C5.05471 15.1085 5.09744 14.9275 5.15662 14.7515C5.22326 14.5535 5.31776 14.3645 5.50675 13.9865L7.67331 9.65337C8.1549 8.69019 8.3957 8.2086 8.75495 7.85675C9.07263 7.5456 9.45551 7.30896 9.87589 7.16396C10.3513 7 10.8897 7 11.9666 7Z" stroke="#5F5C5C" stroke-width="1.5" stroke-linecap="round" stroke-linejoin="round"/>
</svg>
