<svg width="30" height="31" viewBox="0 0 30 31" fill="none" xmlns="http://www.w3.org/2000/svg">
<g clip-path="url(#clip0_5568_213041)">
<path d="M15 30.0469C23.2843 30.0469 30 23.3311 30 15.0469C30 6.7626 23.2843 0.046875 15 0.046875C6.71573 0.046875 0 6.7626 0 15.0469C0 23.3311 6.71573 30.0469 15 30.0469Z" fill="#F0F0F0"/>
<path d="M14.9999 0.046875C9.05297 0.046875 3.91453 3.50771 1.48828 8.52516H28.5114C26.0852 3.50771 20.9467 0.046875 14.9999 0.046875V0.046875Z" fill="#FF9811"/>
<path d="M14.9999 30.0469C20.9467 30.0469 26.0852 26.586 28.5115 21.5686H1.48828C3.91453 26.586 9.05297 30.0469 14.9999 30.0469Z" fill="#6DA544"/>
<path d="M14.9996 20.2643C17.8811 20.2643 20.217 17.9284 20.217 15.047C20.217 12.1655 17.8811 9.82959 14.9996 9.82959C12.1181 9.82959 9.78223 12.1655 9.78223 15.047C9.78223 17.9284 12.1181 20.2643 14.9996 20.2643Z" fill="#0052B4"/>
<path d="M15.0001 18.3077C16.801 18.3077 18.261 16.8478 18.261 15.0469C18.261 13.2459 16.801 11.786 15.0001 11.786C13.1992 11.786 11.7393 13.2459 11.7393 15.0469C11.7393 16.8478 13.1992 18.3077 15.0001 18.3077Z" fill="#F0F0F0"/>
<path d="M15.0004 11.0229L16.0064 13.3045L18.4851 13.0349L17.0123 15.0468L18.4851 17.0588L16.0064 16.7892L15.0004 19.0707L13.9944 16.7892L11.5156 17.0587L12.9884 15.0468L11.5156 13.0349L13.9944 13.3045L15.0004 11.0229Z" fill="#0052B4"/>
</g>
<rect x="0.5" y="0.546875" width="29" height="29" rx="14.5" stroke="#D7D7D7"/>
<defs>
<clipPath id="clip0_5568_213041">
<rect y="0.046875" width="30" height="30" rx="15" fill="white"/>
</clipPath>
</defs>
</svg>
