<svg width="30" height="31" viewBox="0 0 30 31" fill="none" xmlns="http://www.w3.org/2000/svg">
<g clip-path="url(#clip0_5568_213051)">
<path d="M15 30.0586C23.2843 30.0586 30 23.3429 30 15.0586C30 6.77432 23.2843 0.0585938 15 0.0585938C6.71573 0.0585938 0 6.77432 0 15.0586C0 23.3429 6.71573 30.0586 15 30.0586Z" fill="#F0F0F0"/>
<path d="M19.8717 11.1456H17.9092C17.9254 11.3612 17.9346 11.5789 17.9346 11.7977C17.9346 13.2487 17.5719 14.6552 16.9396 15.6563C16.7445 15.9651 16.4168 16.4011 15.978 16.6953V11.1455H14.0215V16.6953C13.5828 16.4011 13.255 15.9651 13.0599 15.6563C12.4276 14.6552 12.065 13.2487 12.065 11.7977C12.065 11.5789 12.0742 11.3612 12.0904 11.1456H10.1279C10.1153 11.3602 10.1084 11.5776 10.1084 11.7977C10.1084 15.8205 12.2569 18.9716 14.9997 18.9716C17.7425 18.9716 19.891 15.8205 19.891 11.7977C19.8911 11.5776 19.8842 11.3602 19.8717 11.1456V11.1456Z" fill="#D80027"/>
<path d="M6.19553 7.23252H8.15203V8.53687H10.1085V7.23252H12.065V8.53687H14.0215V7.23252H15.978V8.53687H17.9345V7.23252H19.8911V8.53687H21.8476V7.23252H23.8041V8.53687H28.5113C26.0852 3.51943 20.9467 0.0585938 14.9999 0.0585938C9.05303 0.0585938 3.91453 3.51943 1.48828 8.53687H6.19553V7.23252Z" fill="#6DA544"/>
<path d="M23.8042 21.5803V22.8847H21.8477V21.5803H19.8912V22.8847H17.9347V21.5803H15.9782V22.8847H14.0217V21.5803H12.0652V22.8847H10.1087V21.5803H8.15203V22.8847H6.19553V21.5803H1.48828C3.91453 26.5978 9.05297 30.0586 14.9999 30.0586C20.9468 30.0586 26.0852 26.5978 28.5115 21.5803H23.8042Z" fill="#D80027"/>
</g>
<rect x="0.5" y="0.558594" width="29" height="29" rx="14.5" stroke="#D7D7D7"/>
<defs>
<clipPath id="clip0_5568_213051">
<rect y="0.0585938" width="30" height="30" rx="15" fill="white"/>
</clipPath>
</defs>
</svg>
