<svg width="30" height="31" viewBox="0 0 30 31" fill="none" xmlns="http://www.w3.org/2000/svg">
<g clip-path="url(#clip0_5568_213056)">
<path d="M15 30.0576C23.2843 30.0576 30 23.3419 30 15.0576C30 6.77335 23.2843 0.0576172 15 0.0576172C6.71573 0.0576172 0 6.77335 0 15.0576C0 23.3419 6.71573 30.0576 15 30.0576Z" fill="#F0F0F0"/>
<path d="M14.9996 0.0576172C8.55016 0.0576172 3.05201 4.12824 0.932617 9.84025H29.0667C26.9472 4.12824 21.4491 0.0576172 14.9996 0.0576172V0.0576172Z" fill="#A2001D"/>
<path d="M14.9996 30.0575C21.4491 30.0575 26.9472 25.9869 29.0666 20.2749H0.932617C3.05201 25.9869 8.55016 30.0575 14.9996 30.0575Z" fill="black"/>
<path d="M11.4135 14.0793C11.4053 14.0793 11.3972 14.0798 11.389 14.08V14.0793H8.52164C8.66701 13.5176 9.17666 13.101 9.78305 13.101V11.1445C7.98498 11.1445 6.52219 12.6074 6.52219 14.4054V16.0032V16.0359H11.389H11.4135C11.5933 16.0359 11.7396 16.1822 11.7396 16.362V17.0141H5.21777V18.9706H13.6961V16.3619C13.6961 15.1033 12.6721 14.0793 11.4135 14.0793V14.0793Z" fill="#496E2D"/>
<path d="M16.3051 17.0141V11.1445H14.3486V18.9707H17.6095V17.0141H16.3051Z" fill="#496E2D"/>
<path d="M22.8269 17.0142V11.1445H20.8704V17.0142H20.2182V15.0577H18.2617V18.9707H24.1313V17.0142H22.8269Z" fill="#496E2D"/>
</g>
<rect x="0.5" y="0.557617" width="29" height="29" rx="14.5" stroke="#D7D7D7"/>
<defs>
<clipPath id="clip0_5568_213056">
<rect y="0.0576172" width="30" height="30" rx="15" fill="white"/>
</clipPath>
</defs>
</svg>
