<svg width="30" height="31" viewBox="0 0 30 31" fill="none" xmlns="http://www.w3.org/2000/svg">
<g clip-path="url(#clip0_5568_213064)">
<path d="M15 30.0576C23.2843 30.0576 30 23.3419 30 15.0576C30 6.77335 23.2843 0.0576172 15 0.0576172C6.71573 0.0576172 0 6.77335 0 15.0576C0 23.3419 6.71573 30.0576 15 30.0576Z" fill="#F0F0F0"/>
<path d="M30.0004 15.0577C30.0004 8.60826 25.9298 3.11006 20.2178 0.990723V29.1248C25.9298 27.0053 30.0004 21.5072 30.0004 15.0577V15.0577Z" fill="#FF9811"/>
<path d="M0 15.0577C0 21.5072 4.07063 27.0053 9.78264 29.1247V0.990723C4.07063 3.11006 0 8.60826 0 15.0577V15.0577Z" fill="#6DA544"/>
</g>
<rect x="0.5" y="0.557617" width="29" height="29" rx="14.5" stroke="#D7D7D7"/>
<defs>
<clipPath id="clip0_5568_213064">
<rect y="0.0576172" width="30" height="30" rx="15" fill="white"/>
</clipPath>
</defs>
</svg>
