<svg width="30" height="31" viewBox="0 0 30 31" fill="none" xmlns="http://www.w3.org/2000/svg">
<g clip-path="url(#clip0_5568_213068)">
<path d="M15 30.0576C23.2843 30.0576 30 23.3419 30 15.0576C30 6.77335 23.2843 0.0576172 15 0.0576172C6.71573 0.0576172 0 6.77335 0 15.0576C0 23.3419 6.71573 30.0576 15 30.0576Z" fill="#D80027"/>
<path d="M20.5536 10.1131L19.4934 13.8966L16.3124 13.3092L14.2648 9.08838L8.73311 11.0513L8.29687 9.82203L6.84961 9.64373L7.9401 12.7169L11.7469 11.7434L12.8287 14.792L10.1971 18.6757L14.663 22.4846L13.8165 23.477L14.3857 24.8196L16.502 22.3385L13.7555 19.5286L15.8547 17.0674L20.5339 17.4046L21.5996 11.6325L22.8823 11.8694L23.7606 10.7052L20.5536 10.1131Z" fill="#F0F0F0"/>
</g>
<rect x="0.5" y="0.557617" width="29" height="29" rx="14.5" stroke="#D7D7D7"/>
<defs>
<clipPath id="clip0_5568_213068">
<rect y="0.0576172" width="30" height="30" rx="15" fill="white"/>
</clipPath>
</defs>
</svg>
