<svg width="30" height="31" viewBox="0 0 30 31" fill="none" xmlns="http://www.w3.org/2000/svg">
<g clip-path="url(#clip0_5568_213071)">
<path d="M15 30.0576C23.2843 30.0576 30 23.3419 30 15.0576C30 6.77335 23.2843 0.0576172 15 0.0576172C6.71573 0.0576172 0 6.77335 0 15.0576C0 23.3419 6.71573 30.0576 15 30.0576Z" fill="#F0F0F0"/>
<path d="M20.6476 11.7967H16.8822L14.9996 8.53589L13.117 11.7967H9.35156L11.2344 15.0576L9.35156 18.3185H13.117L14.9996 21.5793L16.8822 18.3185H20.6476L18.7648 15.0576L20.6476 11.7967ZM17.3126 15.0576L16.1562 17.0608H13.8432L12.6866 15.0576L13.8431 13.0544H16.1561L17.3126 15.0576ZM14.9996 11.0511L15.43 11.7967H14.5693L14.9996 11.0511ZM11.53 13.0544H12.3909L11.9604 13.8L11.53 13.0544ZM11.53 17.0608L11.9605 16.3153L12.3909 17.0608H11.53ZM14.9996 19.064L14.5692 18.3185H15.43L14.9996 19.064ZM18.4692 17.0608H17.6083L18.0388 16.3153L18.4692 17.0608ZM17.6083 13.0544H18.4692L18.0387 13.8L17.6083 13.0544Z" fill="#0052B4"/>
<path d="M24.3369 3.31836H5.66225C4.29332 4.40867 3.11934 5.73301 2.20117 7.23143H27.798C26.8797 5.73307 25.7058 4.40867 24.3369 3.31836V3.31836Z" fill="#0052B4"/>
<path d="M5.66225 26.7966H24.3368C25.7058 25.7063 26.8797 24.382 27.7979 22.8835H2.20117C3.11939 24.3819 4.29338 25.7063 5.66225 26.7966V26.7966Z" fill="#0052B4"/>
</g>
<rect x="0.5" y="0.557617" width="29" height="29" rx="14.5" stroke="#D7D7D7"/>
<defs>
<clipPath id="clip0_5568_213071">
<rect y="0.0576172" width="30" height="30" rx="15" fill="white"/>
</clipPath>
</defs>
</svg>
