<svg width="30" height="31" viewBox="0 0 30 31" fill="none" xmlns="http://www.w3.org/2000/svg">
<g clip-path="url(#clip0_5568_213081)">
<path d="M15.0004 30.0576C16.8352 30.0576 18.5929 29.7276 20.2178 29.1246L20.87 15.0576L20.2179 0.990605C18.5929 0.387676 16.8352 0.0576172 15.0004 0.0576172C13.1656 0.0576172 11.408 0.387676 9.78307 0.990605L9.13086 15.0576L9.78301 29.1246C11.408 29.7276 13.1656 30.0576 15.0004 30.0576Z" fill="#F0F0F0"/>
<path d="M0 15.0576C0 21.5071 4.07063 27.0052 9.78264 29.1246V0.990601C4.07063 3.11 0 8.60814 0 15.0576Z" fill="#FF9811"/>
<path d="M20.2178 0.990601V29.1247C25.9298 27.0052 30.0004 21.5071 30.0004 15.0576C30.0004 8.60814 25.9298 3.11 20.2178 0.990601V0.990601Z" fill="#6DA544"/>
</g>
<rect x="0.5" y="0.557617" width="29" height="29" rx="14.5" stroke="#D7D7D7"/>
<defs>
<clipPath id="clip0_5568_213081">
<rect y="0.0576172" width="30" height="30" rx="15" fill="white"/>
</clipPath>
</defs>
</svg>
