<svg width="30" height="31" viewBox="0 0 30 31" fill="none" xmlns="http://www.w3.org/2000/svg">
<g clip-path="url(#clip0_5568_213085)">
<path d="M15 30.0576C23.2843 30.0576 30 23.3419 30 15.0576C30 6.77335 23.2843 0.0576172 15 0.0576172C6.71573 0.0576172 0 6.77335 0 15.0576C0 23.3419 6.71573 30.0576 15 30.0576Z" fill="#FFDA44"/>
<path d="M24.1326 3.1584C21.6033 1.2142 18.4372 0.0576172 15.0004 0.0576172C11.5637 0.0576172 8.39748 1.21426 5.86816 3.1584L15.0004 12.2906L24.1326 3.1584Z" fill="#6DA544"/>
<path d="M3.10072 5.92542C1.15664 8.45473 0 11.6208 0 15.0576C0 18.4944 1.15664 21.6605 3.10078 24.1899L12.233 15.0576L3.10072 5.92542Z" fill="black"/>
<path d="M5.86816 26.9569C8.39754 28.9011 11.5637 30.0577 15.0004 30.0577C18.4372 30.0577 21.6033 28.901 24.1327 26.9569L15.0004 17.8247L5.86816 26.9569Z" fill="#6DA544"/>
<path d="M26.8988 24.1898C28.843 21.6605 29.9996 18.4944 29.9996 15.0576C29.9996 11.6208 28.843 8.45473 26.8988 5.92542L17.7666 15.0576L26.8988 24.1898Z" fill="black"/>
</g>
<rect x="0.5" y="0.557617" width="29" height="29" rx="14.5" stroke="#D7D7D7"/>
<defs>
<clipPath id="clip0_5568_213085">
<rect y="0.0576172" width="30" height="30" rx="15" fill="white"/>
</clipPath>
</defs>
</svg>
