<svg width="30" height="31" viewBox="0 0 30 31" fill="none" xmlns="http://www.w3.org/2000/svg">
<g clip-path="url(#clip0_5568_213094)">
<path d="M15 30.0576C23.2843 30.0576 30 23.3419 30 15.0576C30 6.77335 23.2843 0.0576172 15 0.0576172C6.71573 0.0576172 0 6.77335 0 15.0576C0 23.3419 6.71573 30.0576 15 30.0576Z" fill="#F0F0F0"/>
<path d="M26.9002 24.1909L17.7669 15.0577H17.7668L26.9002 5.92426C26.5062 5.41239 26.0753 4.91991 25.6065 4.45098C25.1376 3.98211 24.6452 3.55116 24.1332 3.15735L14.9999 12.2906L14.9999 12.2907L5.86658 3.15735C5.35477 3.55122 4.86223 3.98206 4.3933 4.45098C3.92438 4.91991 3.49348 5.41239 3.09967 5.92426L12.233 15.0575L12.233 15.0576L3.09961 24.191C3.49354 24.7029 3.92443 25.1953 4.39324 25.6643C4.86217 26.1331 5.35459 26.5641 5.86652 26.9579L14.9999 17.8246L14.9999 17.8245L24.1332 26.9578C24.6451 26.564 25.1376 26.1331 25.6065 25.6642C26.0754 25.1953 26.5063 24.7028 26.9002 24.1909V24.1909Z" fill="#D80027"/>
<path d="M12.3916 4.62292L15.0003 5.27507L17.609 4.62292V2.40556L16.5655 2.92728L15.0003 1.36206L13.4351 2.92728L12.3916 2.40556V4.62292Z" fill="#FFDA44"/>
<path d="M12.3916 4.6228V6.25335C12.3916 8.25022 15.0003 8.86206 15.0003 8.86206C15.0003 8.86206 17.609 8.25017 17.609 6.25335V4.6228H12.3916Z" fill="#D80027"/>
</g>
<rect x="0.5" y="0.557617" width="29" height="29" rx="14.5" stroke="#D7D7D7"/>
<defs>
<clipPath id="clip0_5568_213094">
<rect y="0.0576172" width="30" height="30" rx="15" fill="white"/>
</clipPath>
</defs>
</svg>
