<svg width="30" height="31" viewBox="0 0 30 31" fill="none" xmlns="http://www.w3.org/2000/svg">
<g clip-path="url(#clip0_5568_213099)">
<path d="M15 30.0586C23.2843 30.0586 30 23.3429 30 15.0586C30 6.77432 23.2843 0.0585938 15 0.0585938C6.71573 0.0585938 0 6.77432 0 15.0586C0 23.3429 6.71573 30.0586 15 30.0586Z" fill="#F0F0F0"/>
<path d="M9.1301 9.84123H29.0666C26.9473 4.12922 21.4491 0.0585938 14.9997 0.0585938C10.8574 0.0585938 7.10785 1.73783 4.39355 4.45248L9.1301 9.84123Z" fill="black"/>
<path d="M9.1301 20.2759H29.0666C26.9473 25.9879 21.4491 30.0585 14.9997 30.0585C10.8574 30.0585 7.10785 28.3793 4.39355 25.6646L9.1301 20.2759Z" fill="#6DA544"/>
<path d="M4.39339 4.4519C-1.46446 10.3098 -1.46446 19.8073 4.39339 25.6652C6.81407 23.2445 9.14218 20.9164 15 15.0585L4.39339 4.4519Z" fill="#D80027"/>
<path d="M5.95311 11.7977L6.77629 13.5192L8.63541 13.0895L7.80279 14.8063L9.29781 15.9919L7.43646 16.4114L7.44162 18.3194L5.95311 17.1257L4.46453 18.3194L4.46975 16.4114L2.6084 15.9919L4.10336 14.8063L3.27086 13.0895L5.12986 13.5192L5.95311 11.7977Z" fill="#F0F0F0"/>
</g>
<rect x="0.5" y="0.558594" width="29" height="29" rx="14.5" stroke="#D7D7D7"/>
<defs>
<clipPath id="clip0_5568_213099">
<rect y="0.0585938" width="30" height="30" rx="15" fill="white"/>
</clipPath>
</defs>
</svg>
