<svg width="30" height="31" viewBox="0 0 30 31" fill="none" xmlns="http://www.w3.org/2000/svg">
<g clip-path="url(#clip0_5568_213105)">
<path d="M15 30.0576C23.2843 30.0576 30 23.3419 30 15.0576C30 6.77335 23.2843 0.0576172 15 0.0576172C6.71573 0.0576172 0 6.77335 0 15.0576C0 23.3419 6.71573 30.0576 15 30.0576Z" fill="#338AF3"/>
<path d="M23.478 15.2207H6.52148C6.52148 16.3913 7.54107 17.3403 8.7116 17.3403H8.64105C8.64105 18.5109 9.58998 19.4598 10.7606 19.4598C10.7606 20.6305 11.7096 21.5794 12.8802 21.5794H17.1193C18.29 21.5794 19.2389 20.6305 19.2389 19.4598C20.4096 19.4598 21.3585 18.5109 21.3585 17.3403H21.2879C22.4583 17.3403 23.478 16.3913 23.478 15.2207V15.2207Z" fill="#FFDA44"/>
<path d="M20.87 12.449C20.87 15.6906 18.2421 18.3185 15.0004 18.3185C11.7587 18.3185 9.13086 15.6906 9.13086 12.449" fill="#338AF3"/>
<path d="M19.4832 12.4489L17.6513 13.3107L18.6268 15.0849L16.6375 14.7043L16.3855 16.7139L14.9999 15.2358L13.6143 16.7139L13.3623 14.7043L11.373 15.0848L12.3485 13.3106L10.5166 12.4489L12.3485 11.5873L11.373 9.81311L13.3622 10.1936L13.6143 8.18408L14.9999 9.66211L16.3855 8.18408L16.6375 10.1936L18.6269 9.81311L17.6513 11.5873L19.4832 12.4489Z" fill="#FFDA44"/>
</g>
<rect x="0.5" y="0.557617" width="29" height="29" rx="14.5" stroke="#D7D7D7"/>
<defs>
<clipPath id="clip0_5568_213105">
<rect y="0.0576172" width="30" height="30" rx="15" fill="white"/>
</clipPath>
</defs>
</svg>
