<svg width="30" height="31" viewBox="0 0 30 31" fill="none" xmlns="http://www.w3.org/2000/svg">
<g clip-path="url(#clip0_5568_213110)">
<path d="M15 30.0576C23.2843 30.0576 30 23.3419 30 15.0576C30 6.77335 23.2843 0.0576172 15 0.0576172C6.71573 0.0576172 0 6.77335 0 15.0576C0 23.3419 6.71573 30.0576 15 30.0576Z" fill="#F0F0F0"/>
<path d="M14.9999 0.0576172C9.05297 0.0576172 3.91453 3.51846 1.48828 8.5359H28.5114C26.0852 3.51846 20.9467 0.0576172 14.9999 0.0576172V0.0576172Z" fill="black"/>
<path d="M14.9999 30.0576C9.05297 30.0576 3.91453 26.5968 1.48828 21.5793H28.5114C26.0852 26.5968 20.9467 30.0576 14.9999 30.0576V30.0576Z" fill="#496E2D"/>
<path d="M29.2917 10.4924H0.70834C0.248848 11.932 0 13.4657 0 15.0576C0 16.6496 0.248848 18.1833 0.70834 19.6229H29.2916C29.7512 18.1833 30 16.6496 30 15.0576C30 13.4657 29.7512 11.932 29.2917 10.4924Z" fill="#A2001D"/>
<path d="M19.6707 6.98934L17.8943 6.16943L14.9999 12.7232L12.1055 6.16943L10.3291 6.98934L13.9225 15.0576L10.3291 23.1259L12.1055 23.9458L14.9999 17.3921L17.8943 23.9458L19.6707 23.1259L16.0773 15.0576L19.6707 6.98934Z" fill="#F0F0F0"/>
<path d="M16.206 7.76206C15.5183 7.01106 14.9995 6.57935 14.9995 6.57935C14.9995 6.57935 14.4806 7.01101 13.793 7.76206V22.3531C14.4806 23.1042 14.9995 23.5359 14.9995 23.5359C14.9995 23.5359 15.5183 23.1042 16.206 22.3531V7.76206Z" fill="#F0F0F0"/>
<path d="M11.7393 10.5602V19.5551C12.4659 20.8427 13.3553 21.8981 14.0219 22.5978V7.51758C13.3553 8.21725 12.4659 9.27269 11.7393 10.5602V10.5602Z" fill="#A2001D"/>
<path d="M18.2612 10.5602C17.5344 9.27264 16.6451 8.21725 15.9785 7.51758V22.5978C16.645 21.8981 17.5344 20.8427 18.2612 19.5551V10.5602Z" fill="#A2001D"/>
<path d="M18.2607 10.5601V19.5549C18.9964 18.2513 19.5651 16.7097 19.5651 15.0575C19.5651 13.4054 18.9964 11.8638 18.2607 10.5601Z" fill="black"/>
<path d="M11.7389 10.5601V19.5549C11.0033 18.2513 10.4346 16.7097 10.4346 15.0575C10.4346 13.4054 11.0033 11.8638 11.7389 10.5601Z" fill="black"/>
</g>
<rect x="0.5" y="0.557617" width="29" height="29" rx="14.5" stroke="#D7D7D7"/>
<defs>
<clipPath id="clip0_5568_213110">
<rect y="0.0576172" width="30" height="30" rx="15" fill="white"/>
</clipPath>
</defs>
</svg>
