<svg width="30" height="31" viewBox="0 0 30 31" fill="none" xmlns="http://www.w3.org/2000/svg">
<g clip-path="url(#clip0_5568_213123)">
<path d="M0 15.0576C0 6.7734 6.71578 0.0576172 15 0.0576172C23.2842 0.0576172 30 6.7734 30 15.0576" fill="#D80027"/>
<path d="M20.217 14.0076L18.085 15.0103L19.2203 17.0751L16.9054 16.6322L16.612 18.9708L14.9996 17.2508L13.3871 18.9708L13.0938 16.6322L10.7788 17.075L11.9141 15.0103L9.78223 14.0076L11.9141 13.0047L10.7788 10.9402L13.0938 11.3829L13.3871 9.04443L14.9996 10.7643L16.6121 9.04443L16.9054 11.3829L19.2204 10.9402L18.0852 13.0049L20.217 14.0076Z" fill="#FFDA44"/>
<path d="M18.913 4.94898H15.9783C15.9783 4.40881 15.5402 3.9707 15 3.9707C14.4597 3.9707 14.0217 4.40875 14.0217 4.94898H11.0869C11.0869 5.48922 11.5575 5.92727 12.0978 5.92727H12.0651C12.0651 6.4675 12.5031 6.90555 13.0434 6.90555C13.0434 7.44578 13.4813 7.88383 14.0217 7.88383H15.9782C16.5184 7.88383 16.9565 7.44584 16.9565 6.90555C17.4967 6.90555 17.9348 6.46756 17.9348 5.92727H17.9021C18.4424 5.92727 18.913 5.48928 18.913 4.94898V4.94898Z" fill="#FFDA44"/>
<path d="M30 15.0576C30 23.3418 23.2842 30.0576 15 30.0576C6.71578 30.0576 0 23.3418 0 15.0576H30Z" fill="#F0F0F0"/>
<path d="M15.0003 30.0576C19.6891 30.0576 23.8747 27.9058 26.6254 24.5364C26.1306 24.1991 25.8635 23.6538 25.0001 23.6538C23.7501 23.6538 23.7501 24.7967 22.5002 24.7967C21.2503 24.7967 21.2502 23.6538 20.0003 23.6538C18.7503 23.6538 18.7503 24.7967 17.5003 24.7967C16.2502 24.7967 16.2502 23.6538 15.0001 23.6538C13.7501 23.6538 13.7501 24.7967 12.5002 24.7967C11.2504 24.7967 11.2504 23.6538 10.0004 23.6538C8.75027 23.6538 8.75027 24.7967 7.50018 24.7967C6.25008 24.7967 6.25008 23.6538 4.99998 23.6538C4.13666 23.6538 3.86953 24.199 3.375 24.5363C6.12563 27.9058 10.3114 30.0576 15.0003 30.0576V30.0576Z" fill="#0052B4"/>
<path d="M27.4998 16.9708C26.2498 16.9708 26.2498 15.8279 24.9998 15.8279C23.7498 15.8279 23.7498 16.9708 22.4999 16.9708C21.25 16.9708 21.2499 15.8279 20 15.8279C18.75 15.8279 18.75 16.9708 17.5 16.9708C16.2499 16.9708 16.2499 15.8279 14.9998 15.8279C13.7498 15.8279 13.7498 16.9708 12.4999 16.9708C11.2501 16.9708 11.2501 15.8279 10.0001 15.8279C8.75 15.8279 8.75 16.9708 7.4999 16.9708C6.2498 16.9708 6.2498 15.8279 4.99971 15.8279C3.7499 15.8279 3.7499 16.9708 2.49992 16.9708C1.25668 16.9708 1.24947 15.8405 0.0195312 15.8284C0.0541602 16.5145 0.136074 17.1881 0.259941 17.8468C1.25627 17.9933 1.34352 18.9708 2.49998 18.9708C3.74996 18.9708 3.74996 17.828 4.99977 17.828C6.24986 17.828 6.24986 18.9708 7.49996 18.9708C8.75006 18.9708 8.75006 17.828 10.0002 17.828C11.2501 17.828 11.2501 18.9708 12.4999 18.9708C13.7499 18.9708 13.7499 17.828 14.9998 17.828C16.2499 17.828 16.2499 18.9708 17.5 18.9708C18.7501 18.9708 18.7501 17.828 20.0001 17.828C21.25 17.828 21.25 18.9708 22.5 18.9708C23.7499 18.9708 23.7499 17.828 24.9999 17.828C26.25 17.828 26.25 18.9708 27.4999 18.9708C28.6565 18.9708 28.7437 17.9933 29.7401 17.8469C29.864 17.1881 29.9458 16.5146 29.9806 15.8285C28.7504 15.8406 28.7431 16.9708 27.4998 16.9708V16.9708Z" fill="#0052B4"/>
<path d="M25.0002 19.741C23.7502 19.741 23.7502 20.8839 22.5003 20.8839C21.2504 20.8839 21.2503 19.741 20.0004 19.741C18.7504 19.741 18.7504 20.8839 17.5004 20.8839C16.2503 20.8839 16.2503 19.741 15.0002 19.741C13.7502 19.741 13.7502 20.8839 12.5003 20.8839C11.2505 20.8839 11.2505 19.741 10.0005 19.741C8.75039 19.741 8.75039 20.8839 7.50029 20.8839C6.2502 20.8839 6.2502 19.741 5.0001 19.741C3.75029 19.741 3.75029 20.8839 2.50031 20.8839C1.60717 20.8839 1.35205 20.3005 0.823242 19.9673C1.17527 20.9844 1.63324 21.9519 2.18479 22.8564C2.2807 22.8741 2.38512 22.8839 2.50031 22.8839C3.75029 22.8839 3.75029 21.7411 5.0001 21.7411C6.2502 21.7411 6.2502 22.8839 7.50029 22.8839C8.75039 22.8839 8.75039 21.7411 10.0005 21.7411C11.2505 21.7411 11.2505 22.8839 12.5003 22.8839C13.7503 22.8839 13.7503 21.7411 15.0002 21.7411C16.2503 21.7411 16.2503 22.8839 17.5004 22.8839C18.7505 22.8839 18.7505 21.7411 20.0004 21.7411C21.2504 21.7411 21.2504 22.8839 22.5003 22.8839C23.7502 22.8839 23.7503 21.7411 25.0002 21.7411C26.2503 21.7411 26.2503 22.8839 27.5002 22.8839C27.6155 22.8839 27.7199 22.8741 27.8159 22.8563C28.3674 21.9519 28.8253 20.9844 29.1775 19.9673C28.6487 20.3004 28.3935 20.8839 27.5002 20.8839C26.2503 20.8839 26.2503 19.741 25.0002 19.741Z" fill="#0052B4"/>
<path d="M29.9535 13.8726C28.7505 13.901 28.734 15.0143 27.4998 15.0143C26.2498 15.0143 26.2498 13.8713 24.9998 13.8713C23.7498 13.8713 23.7498 15.0143 22.4999 15.0143C21.25 15.0143 21.2499 13.8713 20 13.8713C18.75 13.8713 18.75 15.0143 17.5 15.0143C16.2499 15.0143 16.2499 13.8713 14.9998 13.8713C13.7498 13.8713 13.7498 15.0143 12.4999 15.0143C11.2501 15.0143 11.2501 13.8713 10.0001 13.8713C8.74998 13.8713 8.74998 15.0143 7.49988 15.0143C6.24979 15.0143 6.24979 13.8713 4.99969 13.8713C3.74988 13.8713 3.74988 15.0143 2.4999 15.0143C1.26598 15.0143 1.24928 13.9012 0.0464648 13.8726C0.0159375 14.2637 0 14.6588 0 15.0577C0 15.3309 0.00773438 15.6024 0.0223242 15.872C1.24945 15.8857 1.2576 17.0142 2.49996 17.0142C3.74994 17.0142 3.74994 15.8714 4.99975 15.8714C6.24984 15.8714 6.24984 17.0142 7.49994 17.0142C8.75004 17.0142 8.75004 15.8714 10.0001 15.8714C11.2501 15.8714 11.2501 17.0142 12.4999 17.0142C13.7499 17.0142 13.7499 15.8714 14.9998 15.8714C16.2499 15.8714 16.2499 17.0142 17.5 17.0142C18.7501 17.0142 18.7501 15.8714 20 15.8714C21.25 15.8714 21.25 17.0142 22.4999 17.0142C23.7499 17.0142 23.7499 15.8714 24.9998 15.8714C26.2499 15.8714 26.2499 17.0142 27.4999 17.0142C28.7423 17.0142 28.7505 15.8857 29.9779 15.872C29.9923 15.6023 30 15.3309 30 15.0577C30 14.6588 29.9841 14.2637 29.9535 13.8726V13.8726Z" fill="#F0F0F0"/>
</g>
<rect x="0.5" y="0.557617" width="29" height="29" rx="14.5" stroke="#D7D7D7"/>
<defs>
<clipPath id="clip0_5568_213123">
<rect y="0.0576172" width="30" height="30" rx="15" fill="white"/>
</clipPath>
</defs>
</svg>
