<svg width="30" height="31" viewBox="0 0 30 31" fill="none" xmlns="http://www.w3.org/2000/svg">
<g clip-path="url(#clip0_5568_213134)">
<path d="M15 30.0576C23.2843 30.0576 30 23.3419 30 15.0576C30 6.77335 23.2843 0.0576172 15 0.0576172C6.71573 0.0576172 0 6.77335 0 15.0576C0 23.3419 6.71573 30.0576 15 30.0576Z" fill="#0052B4"/>
<path d="M6.58922 9.18823L6.91301 10.1848H7.96066L7.11311 10.8006L7.43684 11.7969L6.58922 11.1812L5.74154 11.7969L6.06539 10.8006L5.21777 10.1848H6.26537L6.58922 9.18823Z" fill="#F0F0F0"/>
<path d="M9.8499 8.20996L10.1737 9.20647H11.2213L10.3738 9.82223L10.6975 10.8186L9.8499 10.2029L9.00228 10.8186L9.32607 9.82223L8.47852 9.20647H9.52617L9.8499 8.20996Z" fill="#F0F0F0"/>
<path d="M13.1106 7.23169L13.4344 8.22819H14.4821L13.6345 8.84401L13.9583 9.8404L13.1106 9.22458L12.263 9.8404L12.5868 8.84401L11.7393 8.22819H12.7869L13.1106 7.23169Z" fill="#F0F0F0"/>
<path d="M23.4115 9.18823L23.0877 10.1848H22.04L22.8877 10.8006L22.5639 11.7969L23.4115 11.1812L24.2592 11.7969L23.9353 10.8006L24.7829 10.1848H23.7353L23.4115 9.18823Z" fill="#F0F0F0"/>
<path d="M20.1507 8.20996L19.827 9.20647H18.7793L19.6269 9.82223L19.3031 10.8186L20.1507 10.2029L20.9984 10.8186L20.6746 9.82223L21.5221 9.20647H20.4745L20.1507 8.20996Z" fill="#F0F0F0"/>
<path d="M16.89 7.23169L16.5662 8.22819H15.5186L16.3661 8.84401L16.0424 9.8404L16.89 9.22458L17.7376 9.8404L17.4138 8.84401L18.2614 8.22819H17.2137L16.89 7.23169Z" fill="#F0F0F0"/>
<path d="M17.6085 15.7098L14.9998 12.449L13.6954 13.1011V14.4055L11.7389 15.7098H10.4346V17.3949C12.3464 18.1691 13.6954 20.0423 13.6954 22.2316H14.9998V20.9273L16.3041 19.6229L17.6085 20.9273L18.9129 19.6229V18.3185L20.2172 16.362L17.6085 15.7098Z" fill="#FFDA44"/>
</g>
<rect x="0.5" y="0.557617" width="29" height="29" rx="14.5" stroke="#D7D7D7"/>
<defs>
<clipPath id="clip0_5568_213134">
<rect y="0.0576172" width="30" height="30" rx="15" fill="white"/>
</clipPath>
</defs>
</svg>
