<svg width="30" height="31" viewBox="0 0 30 31" fill="none" xmlns="http://www.w3.org/2000/svg">
<g clip-path="url(#clip0_5568_213149)">
<path d="M15 30.0576C23.2843 30.0576 30 23.3419 30 15.0576C30 6.77335 23.2843 0.0576172 15 0.0576172C6.71573 0.0576172 0 6.77335 0 15.0576C0 23.3419 6.71573 30.0576 15 30.0576Z" fill="#D80027"/>
<path d="M22.3356 15.0576L19.3382 16.4675L20.9344 19.3707L17.6793 18.7479L17.2671 22.0359L14.9998 19.6177L12.7327 22.0359L12.3202 18.7479L9.06545 19.3705L10.6615 16.4674L7.66406 15.0576L10.6615 13.6478L9.06545 10.7446L12.3201 11.3675L12.7328 8.07935L14.9998 10.4976L17.2672 8.07935L17.6793 11.3675L20.9345 10.7446L19.3383 13.648L22.3356 15.0576Z" fill="#FFDA44"/>
<path d="M14.9998 19.6229C17.5211 19.6229 19.565 17.5789 19.565 15.0576C19.565 12.5363 17.5211 10.4924 14.9998 10.4924C12.4785 10.4924 10.4346 12.5363 10.4346 15.0576C10.4346 17.5789 12.4785 19.6229 14.9998 19.6229Z" fill="#D80027"/>
<path d="M12.7173 15.0576C12.6073 15.0576 12.4988 15.0632 12.3916 15.0739C12.3955 15.7062 12.6243 16.2849 13.0021 16.7345C13.2037 16.1921 13.5046 15.6975 13.8841 15.2742C13.5216 15.1348 13.1284 15.0576 12.7173 15.0576Z" fill="#FFDA44"/>
<path d="M14.1221 17.5146C14.3963 17.6126 14.6915 17.6663 14.9995 17.6663C15.3075 17.6663 15.6027 17.6126 15.877 17.5146C15.7275 16.9279 15.4189 16.4042 14.9995 15.9927C14.5802 16.4042 14.2715 16.9279 14.1221 17.5146Z" fill="#FFDA44"/>
<path d="M17.2594 13.7536C16.8083 12.974 15.9659 12.4489 15.0003 12.4489C14.0347 12.4489 13.1923 12.9739 12.7412 13.7536C13.5635 13.7578 14.3346 13.9814 15.0003 14.3674C15.666 13.9814 16.437 13.7578 17.2594 13.7536Z" fill="#FFDA44"/>
<path d="M16.1152 15.2742C16.4947 15.6975 16.7957 16.1921 16.9972 16.7345C17.3751 16.2849 17.6038 15.7062 17.6077 15.0739C17.5005 15.0632 17.3919 15.0576 17.282 15.0576C16.871 15.0576 16.4778 15.1348 16.1152 15.2742V15.2742Z" fill="#FFDA44"/>
</g>
<rect x="0.5" y="0.557617" width="29" height="29" rx="14.5" stroke="#D7D7D7"/>
<defs>
<clipPath id="clip0_5568_213149">
<rect y="0.0576172" width="30" height="30" rx="15" fill="white"/>
</clipPath>
</defs>
</svg>
