<svg width="30" height="31" viewBox="0 0 30 31" fill="none" xmlns="http://www.w3.org/2000/svg">
<g clip-path="url(#clip0_5568_213158)">
<path d="M28.5115 8.5359C26.0852 3.51846 20.9468 0.0576172 14.9999 0.0576172C9.05297 0.0576172 3.91453 3.51846 1.48828 8.5359L14.9999 9.84025L28.5115 8.5359Z" fill="#D80027"/>
<path d="M1.48828 21.5794C3.91453 26.5968 9.05297 30.0577 14.9999 30.0577C20.9468 30.0577 26.0852 26.5968 28.5115 21.5794L14.9999 20.275L1.48828 21.5794Z" fill="#D80027"/>
<path d="M28.5116 8.53589H1.4884C0.534844 10.5079 0 12.7202 0 15.0576C0 17.395 0.534844 19.6074 1.4884 21.5793H28.5115C29.4652 19.6074 30 17.395 30 15.0576C30 12.7202 29.4652 10.5079 28.5116 8.53589V8.53589Z" fill="#0052B4"/>
<path d="M14.9996 20.2751C17.8811 20.2751 20.217 17.9392 20.217 15.0577C20.217 12.1762 17.8811 9.84033 14.9996 9.84033C12.1181 9.84033 9.78223 12.1762 9.78223 15.0577C9.78223 17.9392 12.1181 20.2751 14.9996 20.2751Z" fill="#F0F0F0"/>
</g>
<rect x="0.5" y="0.557617" width="29" height="29" rx="14.5" stroke="#D7D7D7"/>
<defs>
<clipPath id="clip0_5568_213158">
<rect y="0.0576172" width="30" height="30" rx="15" fill="white"/>
</clipPath>
</defs>
</svg>
