<svg width="30" height="31" viewBox="0 0 30 31" fill="none" xmlns="http://www.w3.org/2000/svg">
<g clip-path="url(#clip0_5568_213164)">
<path d="M15 30.0469C23.2843 30.0469 30 23.3311 30 15.0469C30 6.7626 23.2843 0.046875 15 0.046875C6.71573 0.046875 0 6.7626 0 15.0469C0 23.3311 6.71573 30.0469 15 30.0469Z" fill="#F0F0F0"/>
<path d="M14.9999 0.046875C8.06945 0.046875 2.23785 4.74732 0.516602 11.1338H29.4832C27.7619 4.74732 21.9303 0.046875 14.9999 0.046875Z" fill="#A2001D"/>
<path d="M14.9999 30.0469C21.9303 30.0469 27.7619 25.3464 29.4831 18.96H0.516602C2.23785 25.3464 8.06945 30.0469 14.9999 30.0469Z" fill="#A2001D"/>
</g>
<rect x="0.5" y="0.546875" width="29" height="29" rx="14.5" stroke="#D7D7D7"/>
<defs>
<clipPath id="clip0_5568_213164">
<rect y="0.046875" width="30" height="30" rx="15" fill="white"/>
</clipPath>
</defs>
</svg>
