<svg width="30" height="31" viewBox="0 0 30 31" fill="none" xmlns="http://www.w3.org/2000/svg">
<g clip-path="url(#clip0_5568_213169)">
<path d="M15 30.0576C23.2843 30.0576 30 23.3419 30 15.0576C30 6.77335 23.2843 0.0576172 15 0.0576172C6.71573 0.0576172 0 6.77335 0 15.0576C0 23.3419 6.71573 30.0576 15 30.0576Z" fill="#F0F0F0"/>
<path d="M14.9999 0.0576172C9.05297 0.0576172 3.91453 3.51846 1.48828 8.5359H28.5114C26.0852 3.51846 20.9467 0.0576172 14.9999 0.0576172V0.0576172Z" fill="#D80027"/>
<path d="M14.9999 30.0576C20.9467 30.0576 26.0852 26.5968 28.5115 21.5793H1.48828C3.91453 26.5968 9.05297 30.0576 14.9999 30.0576Z" fill="#D80027"/>
<path d="M18.913 17.6664L15 10.4924L11.0869 17.6664H14.0217V19.6229H15.9783V17.6664H18.913Z" fill="#6DA544"/>
</g>
<rect x="0.5" y="0.557617" width="29" height="29" rx="14.5" stroke="#D7D7D7"/>
<defs>
<clipPath id="clip0_5568_213169">
<rect y="0.0576172" width="30" height="30" rx="15" fill="white"/>
</clipPath>
</defs>
</svg>
