<svg width="30" height="31" viewBox="0 0 30 31" fill="none" xmlns="http://www.w3.org/2000/svg">
<g clip-path="url(#clip0_5568_213175)">
<path d="M0 15.0586C0 17.3959 0.534785 19.6083 1.4884 21.5803L15 22.2325L28.5116 21.5803C29.4652 19.6083 30 17.3959 30 15.0586C30 12.7213 29.4652 10.5089 28.5116 8.53685L15 7.88464L1.4884 8.53679C0.534785 10.5089 0 12.7213 0 15.0586H0Z" fill="#F0F0F0"/>
<path d="M14.9999 30.0586C20.9467 30.0586 26.0852 26.5978 28.5115 21.5803H1.48828C3.91453 26.5978 9.05297 30.0586 14.9999 30.0586Z" fill="#6DA544"/>
<path d="M14.9999 0.0585938C9.05297 0.0585938 3.91453 3.51943 1.48828 8.53687H28.5114C26.0852 3.51943 20.9467 0.0585938 14.9999 0.0585938V0.0585938Z" fill="#0052B4"/>
<path d="M15.9778 14.7324V11.1455H14.0213V14.7324L11.6582 17.0956C12.3454 18.2206 13.5848 18.9716 14.9996 18.9716C16.4144 18.9716 17.6536 18.2206 18.3409 17.0956L15.9778 14.7324Z" fill="black"/>
</g>
<rect x="0.5" y="0.558594" width="29" height="29" rx="14.5" stroke="#D7D7D7"/>
<defs>
<clipPath id="clip0_5568_213175">
<rect y="0.0585938" width="30" height="30" rx="15" fill="white"/>
</clipPath>
</defs>
</svg>
