<svg width="30" height="31" viewBox="0 0 30 31" fill="none" xmlns="http://www.w3.org/2000/svg">
<g clip-path="url(#clip0_5568_213180)">
<path d="M15 30.0576C23.2843 30.0576 30 23.3419 30 15.0576C30 6.77335 23.2843 0.0576172 15 0.0576172C6.71573 0.0576172 0 6.77335 0 15.0576C0 23.3419 6.71573 30.0576 15 30.0576Z" fill="#F0F0F0"/>
<path d="M3.42871 5.51228H26.5714C25.7166 4.47722 24.7252 3.55935 23.6255 2.78503H6.37463C5.27488 3.55923 4.28354 4.47716 3.42871 5.51228V5.51228Z" fill="#F0F0F0"/>
<path d="M0 15.0576C0 15.5173 0.0218555 15.9719 0.0623438 16.4212H29.9377C29.9781 15.9719 30 15.5173 30 15.0576C30 14.5978 29.9781 14.1432 29.9377 13.694H0.0623438C0.0218555 14.1432 0 14.5978 0 15.0576H0Z" fill="#F0F0F0"/>
<path d="M1.63531 21.8757H28.3639C28.8056 21.0117 29.1658 20.0994 29.4348 19.1486H0.564453C0.83334 20.0994 1.19369 21.0118 1.63531 21.8757V21.8757Z" fill="#F0F0F0"/>
<path d="M6.37463 27.3304H23.6254C24.7251 26.5561 25.7165 25.6382 26.5713 24.6031H3.42871C4.28354 25.6381 5.27488 26.5561 6.37463 27.3304V27.3304Z" fill="#F0F0F0"/>
<path d="M0.564453 10.9667H29.4349C29.1659 10.0159 28.8056 9.10347 28.364 8.2395H1.63537C1.19375 9.10347 0.833398 10.0159 0.564453 10.9667V10.9667Z" fill="#F0F0F0"/>
<path d="M7.17383 2.78486H23.6253C21.1855 1.06701 18.2107 0.0576172 14.9999 0.0576172C13.0434 0.0576172 9.61367 1.06701 7.17383 2.78486Z" fill="#D80027"/>
<path d="M14.3477 8.23945H28.3641C27.8653 7.26369 27.2628 6.34969 26.5711 5.51221H14.3477V8.23945Z" fill="#D80027"/>
<path d="M14.3477 13.694H29.9375C29.8531 12.7576 29.6835 11.8456 29.435 10.9668H14.3477V13.694Z" fill="#D80027"/>
<path d="M0.565 19.1486H29.4353C29.6839 18.2698 29.8534 17.3578 29.9378 16.4214H0.0625C0.146875 17.3578 0.316445 18.2698 0.565 19.1486V19.1486Z" fill="#D80027"/>
<path d="M3.42871 24.603H26.5714C27.2631 23.7654 27.8655 22.8514 28.3643 21.8757H1.63574C2.13455 22.8515 2.73701 23.7655 3.42871 24.603V24.603Z" fill="#D80027"/>
<path d="M15.0004 30.0576C18.2112 30.0576 21.186 29.0482 23.6258 27.3303H6.375C8.81484 29.0482 11.7896 30.0576 15.0004 30.0576Z" fill="#D80027"/>
<path d="M0.564941 10.9667C0.316387 11.8456 0.146875 12.7575 0.0625 13.694H15.0002V0.0576172C8.13414 0.0576172 2.34572 4.67082 0.564941 10.9667V10.9667Z" fill="#0052B4"/>
<path d="M8.92885 3.9707L9.90004 6.95986H13.0434L10.5005 8.80744L11.4716 11.7968L8.92885 9.94932L6.38594 11.7968L7.3573 8.80744L4.81445 6.95986H7.9576L8.92885 3.9707Z" fill="#F0F0F0"/>
</g>
<rect x="0.5" y="0.557617" width="29" height="29" rx="14.5" stroke="#D7D7D7"/>
<defs>
<clipPath id="clip0_5568_213180">
<rect y="0.0576172" width="30" height="30" rx="15" fill="white"/>
</clipPath>
</defs>
</svg>
