<svg width="30" height="31" viewBox="0 0 30 31" fill="none" xmlns="http://www.w3.org/2000/svg">
<g clip-path="url(#clip0_5568_213197)">
<path d="M1.4884 8.53592C0.534844 10.508 0 12.7203 0 15.0576C0 17.395 0.534844 19.6073 1.4884 21.5794L15 22.8837L28.5116 21.5794C29.4652 19.6073 30 17.395 30 15.0576C30 12.7203 29.4652 10.508 28.5116 8.53592L15 7.23157L1.4884 8.53592Z" fill="black"/>
<path d="M1.48926 21.5793C3.91539 26.5968 9.05342 30.0576 15.0003 30.0576C20.9472 30.0576 26.0853 26.5968 28.5114 21.5793H1.48926Z" fill="#496E2D"/>
<path d="M1.48926 8.5359H28.5114C26.0853 3.51846 20.9472 0.0576172 15.0003 0.0576172C9.05342 0.0576172 3.91539 3.51846 1.48926 8.5359Z" fill="#D80027"/>
<path d="M18.4917 12.3146L19.7224 14.0106L21.7155 13.3643L20.4829 15.0588L21.7134 16.7548L19.721 16.106L18.4883 17.8005L18.4896 15.7052L16.4971 15.0564L18.4903 14.4101L18.4917 12.3146Z" fill="#F0F0F0"/>
<path d="M15.1329 19.2968C12.7918 19.2968 10.8938 17.3988 10.8938 15.0576C10.8938 12.7165 12.7918 10.8185 15.1329 10.8185C15.8629 10.8185 16.5498 11.0031 17.1495 11.328C16.2087 10.408 14.9222 9.84021 13.5025 9.84021C10.621 9.84021 8.28516 12.1761 8.28516 15.0576C8.28516 17.939 10.6211 20.2749 13.5025 20.2749C14.9222 20.2749 16.2087 19.7071 17.1495 18.7871C16.5497 19.1122 15.863 19.2968 15.1329 19.2968Z" fill="#F0F0F0"/>
</g>
<rect x="0.5" y="0.557617" width="29" height="29" rx="14.5" stroke="#D7D7D7"/>
<defs>
<clipPath id="clip0_5568_213197">
<rect y="0.0576172" width="30" height="30" rx="15" fill="white"/>
</clipPath>
</defs>
</svg>
