<svg width="30" height="31" viewBox="0 0 30 31" fill="none" xmlns="http://www.w3.org/2000/svg">
<g clip-path="url(#clip0_5568_213204)">
<path d="M30 15.0468C30 23.3311 23.2842 30.0468 15 30.0468C6.71578 30.0468 0 23.3311 0 15.0468C0.652148 15.0468 15 13.0903 15 13.0903L30 15.0468Z" fill="#D80027"/>
<path d="M0 15.0469C0 6.76266 6.71578 0.046875 15 0.046875C23.2842 0.046875 30 6.76266 30 15.0469" fill="#0052B4"/>
<path d="M11.0868 10.4817C11.0868 9.40119 10.2108 8.52521 9.13031 8.52521C8.62904 8.52521 8.17219 8.71389 7.82596 9.02379V7.87301H8.47811V6.56865H7.82596V5.9165H6.5216V6.56865H5.86945V7.87301H6.5216V9.02379C6.17537 8.71389 5.71852 8.52521 5.21725 8.52521C4.13672 8.52521 3.26074 9.40119 3.26074 10.4817C3.26074 11.061 3.51275 11.5813 3.91289 11.9396V13.0904H10.4346V11.9396C10.8349 11.5813 11.0868 11.061 11.0868 10.4817V10.4817Z" fill="#FFDA44"/>
</g>
<rect x="0.5" y="0.546875" width="29" height="29" rx="14.5" stroke="#D7D7D7"/>
<defs>
<clipPath id="clip0_5568_213204">
<rect y="0.046875" width="30" height="30" rx="15" fill="white"/>
</clipPath>
</defs>
</svg>
