<svg width="30" height="30" viewBox="0 0 30 30" fill="none" xmlns="http://www.w3.org/2000/svg">
<rect width="30" height="30" rx="2" fill="white"/>
<path fill-rule="evenodd" clip-rule="evenodd" d="M25 15C25 20.5228 20.5228 25 15 25C9.47715 25 5 20.5228 5 15C5 9.47715 9.47715 5 15 5C20.5228 5 25 9.47715 25 15ZM20 15C20 16.3807 19.4404 17.6307 18.5355 18.5355C17.6307 19.4404 16.3807 20 15 20C13.6193 20 12.3693 19.4404 11.4645 18.5355C10.5596 17.6307 10 16.3807 10 15C10 13.6193 10.5596 12.3693 11.4645 11.4645C12.3693 10.5596 13.6193 10 15 10C16.3807 10 17.6307 10.5596 18.5355 11.4645C19.4404 12.3693 20 13.6193 20 15Z" fill="#5F5C5C"/>
<path d="M11.4645 11.4645L7.92893 7.92896M11.4645 11.4645C10.5596 12.3693 10 13.6193 10 15M11.4645 11.4645C12.3693 10.5596 13.6193 10 15 10M7.92893 22.0711L11.4645 18.5355M11.4645 18.5355C12.3693 19.4404 13.6193 20 15 20M11.4645 18.5355C10.5596 17.6307 10 16.3807 10 15M18.5355 18.5355L22.0711 22.071M18.5355 18.5355C19.4404 17.6307 20 16.3807 20 15M18.5355 18.5355C17.6307 19.4404 16.3807 20 15 20M22.0711 7.92891L18.5355 11.4645M18.5355 11.4645C17.6307 10.5596 16.3807 10 15 10M18.5355 11.4645C19.4404 12.3693 20 13.6193 20 15M20 15C20 17.7614 17.7614 20 15 20M20 15C20 12.2386 17.7614 10 15 10M15 20C12.2386 20 10 17.7614 10 15M10 15C10 12.2386 12.2386 10 15 10M25 15C25 20.5228 20.5228 25 15 25C9.47715 25 5 20.5228 5 15C5 9.47715 9.47715 5 15 5C20.5228 5 25 9.47715 25 15Z" stroke="white" stroke-linecap="round" stroke-linejoin="round"/>
</svg>
