<svg width="30" height="30" viewBox="0 0 30 30" fill="none" xmlns="http://www.w3.org/2000/svg">
<rect width="30" height="30" rx="2" fill="white"/>
<path fill-rule="evenodd" clip-rule="evenodd" d="M25 15C25 20.5228 20.5228 25 15 25C9.47715 25 5 20.5228 5 15C5 9.47715 9.47715 5 15 5C20.5228 5 25 9.47715 25 15ZM15 19C17.2091 19 19 17.2091 19 15C19 12.7909 17.2091 11 15 11C12.7909 11 11 12.7909 11 15C11 17.2091 12.7909 19 15 19Z" fill="#5F5C5C"/>
<path d="M12.1363 12.1363L7.92893 7.92896M7.92893 22.0711L12.168 17.8321M17.8611 17.8638L22.0684 22.0711M22.0684 7.92896L17.8287 12.1686M25 15C25 20.5228 20.5228 25 15 25C9.47715 25 5 20.5228 5 15C5 9.47715 9.47715 5 15 5C20.5228 5 25 9.47715 25 15ZM19 15C19 17.2091 17.2091 19 15 19C12.7909 19 11 17.2091 11 15C11 12.7909 12.7909 11 15 11C17.2091 11 19 12.7909 19 15Z" stroke="white" stroke-linecap="round" stroke-linejoin="round"/>
</svg>
