<svg width="30" height="30" viewBox="0 0 30 30" fill="none" xmlns="http://www.w3.org/2000/svg">
<rect width="30" height="30" rx="2" fill="white"/>
<path d="M24 12L24 6M24 6H18M24 6L16 14M13 8H10.8C9.11984 8 8.27976 8 7.63803 8.32698C7.07354 8.6146 6.6146 9.07354 6.32698 9.63803C6 10.2798 6 11.1198 6 12.8V19.2C6 20.8802 6 21.7202 6.32698 22.362C6.6146 22.9265 7.07354 23.3854 7.63803 23.673C8.27976 24 9.11984 24 10.8 24H17.2C18.8802 24 19.7202 24 20.362 23.673C20.9265 23.3854 21.3854 22.9265 21.673 22.362C22 21.7202 22 20.8802 22 19.2V17" stroke="#5F5C5C" stroke-width="1.5" stroke-linecap="round" stroke-linejoin="round"/>
</svg>
