<svg width="30" height="30" viewBox="0 0 30 30" fill="none" xmlns="http://www.w3.org/2000/svg">
<rect width="30" height="30" rx="2" fill="white"/>
<path d="M11.5 18.5L18.5 11.5M12 7V5M18 23V25M7 12H5M23 18H25M7.91421 7.91421L6.5 6.5M22.0858 22.0857L23.5 23.4999M15 20.6568L12.8787 22.7781C11.3166 24.3402 8.78396 24.3402 7.22186 22.7781C5.65976 21.216 5.65976 18.6833 7.22186 17.1212L9.34318 14.9999M20.6569 14.9999L22.7782 12.8786C24.3403 11.3165 24.3403 8.78383 22.7782 7.22174C21.2161 5.65964 18.6835 5.65964 17.1214 7.22174L15 9.34306" stroke="#5F5C5C" stroke-width="1.5" stroke-linecap="round" stroke-linejoin="round"/>
</svg>
