<svg width="30" height="30" viewBox="0 0 30 30" fill="none" xmlns="http://www.w3.org/2000/svg">
<rect width="30" height="30" rx="2" fill="white"/>
<path d="M13 16C13.4294 16.5741 13.9773 17.0491 14.6065 17.3929C15.2357 17.7367 15.9315 17.9411 16.6466 17.9923C17.3617 18.0435 18.0795 17.9403 18.7513 17.6897C19.4231 17.4392 20.0331 17.047 20.54 16.54L23.54 13.54C24.4507 12.597 24.9547 11.3339 24.9433 10.023C24.9319 8.71198 24.4061 7.45791 23.479 6.53087C22.552 5.60383 21.2979 5.07799 19.987 5.0666C18.676 5.0552 17.413 5.55918 16.47 6.46997L14.75 8.17997M17 14C16.5705 13.4258 16.0226 12.9508 15.3934 12.607C14.7642 12.2633 14.0684 12.0588 13.3533 12.0076C12.6382 11.9564 11.9204 12.0596 11.2486 12.3102C10.5769 12.5608 9.96684 12.9529 9.45996 13.46L6.45996 16.46C5.54917 17.403 5.04519 18.666 5.05659 19.977C5.06798 21.288 5.59382 22.542 6.52086 23.4691C7.4479 24.3961 8.70197 24.9219 10.0129 24.9333C11.3239 24.9447 12.5869 24.4408 13.53 23.53L15.24 21.82" stroke="#5F5C5C" stroke-width="2" stroke-linecap="round" stroke-linejoin="round"/>
</svg>
