<svg width="30" height="30" viewBox="0 0 30 30" fill="none" xmlns="http://www.w3.org/2000/svg">
<rect width="30" height="30" rx="2" fill="white"/>
<path d="M12 7V5M18 23V25M7 12H5M23 18H25M7.91421 7.91421L6.5 6.5M22.0858 22.0858L23.5 23.5M15 20.6569L12.8787 22.7782C11.3166 24.3403 8.78392 24.3403 7.22183 22.7782C5.65973 21.2161 5.65973 18.6834 7.22183 17.1213L9.34315 15M20.6569 15L22.7782 12.8787C24.3403 11.3166 24.3403 8.78392 22.7782 7.22183C21.2161 5.65973 18.6834 5.65973 17.1213 7.22183L15 9.34315" stroke="#5F5C5C" stroke-width="1.5" stroke-linecap="round" stroke-linejoin="round"/>
</svg>
