<svg width="30" height="30" viewBox="0 0 30 30" fill="none" xmlns="http://www.w3.org/2000/svg">
<rect width="30" height="30" rx="2" fill="white"/>
<path d="M19.2 24H10.8C9.11984 24 8.27976 24 7.63803 23.673C7.07354 23.3854 6.6146 22.9265 6.32698 22.362C6 21.7202 6 20.8802 6 19.2V10.8C6 9.11984 6 8.27976 6.32698 7.63803C6.6146 7.07354 7.07354 6.6146 7.63803 6.32698C8.27976 6 9.11984 6 10.8 6H11.0118C11.7455 6 12.1124 6 12.4577 6.08289C12.7638 6.15638 13.0564 6.27759 13.3249 6.44208C13.6276 6.6276 13.887 6.88703 14.4059 7.40589L16.5 9.5L13 13C11.8954 14.1046 11.8954 15.8954 13 17C14.1046 18.1046 15.8954 18.1046 17 17L20.5 13.5L22.5941 15.5941C23.113 16.113 23.3724 16.3724 23.5579 16.6751C23.7224 16.9436 23.8436 17.2362 23.9171 17.5423C24 17.8876 24 18.2545 24 18.9882V19.2C24 20.8802 24 21.7202 23.673 22.362C23.3854 22.9265 22.9265 23.3854 22.362 23.673C21.7202 24 20.8802 24 19.2 24Z" fill="#5F5C5C" stroke="#5F5C5C" stroke-linecap="round" stroke-linejoin="round"/>
<path d="M24 12L24 6M24 6H18M24 6L18.5 11.5L15 15" stroke="#5F5C5C" stroke-width="2" stroke-linecap="round" stroke-linejoin="round"/>
</svg>
