<svg width="30" height="30" viewBox="0 0 30 30" fill="none" xmlns="http://www.w3.org/2000/svg">
<rect width="30" height="30" rx="2" fill="white"/>
<path d="M6.34025 19.9997C5.0881 17.8298 5.72473 15.0644 7.79795 13.6601L7.80018 13.6578C9.46564 12.5323 11.6578 12.5701 13.2843 13.7523L16.7164 16.2477C18.3418 17.4299 20.5339 17.4676 22.2005 16.3421L22.2027 16.3399C24.2771 14.9356 24.9148 12.1679 23.6604 10.0003M20.002 23.6593C17.8321 24.9114 15.0667 24.2748 13.6623 22.2016L13.6601 22.1994C12.5346 20.5339 12.5723 18.3418 13.7545 16.7152L16.2499 13.2832C17.4321 11.6577 17.4699 9.46559 16.3444 7.79901L16.3399 7.79679C14.9356 5.72468 12.1679 5.08582 10.0003 6.3402M22.0705 7.92901C25.9758 11.8344 25.9758 18.1651 22.0705 22.0705C18.1651 25.9758 11.8344 25.9758 7.92901 22.0705C4.02366 18.1651 4.02366 11.8344 7.92901 7.92901C11.8344 4.02366 18.1651 4.02366 22.0705 7.92901Z" stroke="#5F5C5C" stroke-width="2" stroke-linecap="round" stroke-linejoin="round"/>
</svg>
