<svg width="30" height="30" viewBox="0 0 30 30" fill="none" xmlns="http://www.w3.org/2000/svg">
<rect width="30" height="30" rx="2" fill="white"/>
<path d="M9 20C9 20.93 9 21.395 9.10222 21.7765C9.37962 22.8117 10.1883 23.6204 11.2235 23.8978C11.605 24 12.07 24 13 24H19.2C20.8802 24 21.7202 24 22.362 23.673C22.9265 23.3854 23.3854 22.9265 23.673 22.362C24 21.7202 24 20.8802 24 19.2V10.8C24 9.11984 24 8.27976 23.673 7.63803C23.3854 7.07354 22.9265 6.6146 22.362 6.32698C21.7202 6 20.8802 6 19.2 6H13C12.07 6 11.605 6 11.2235 6.10222C10.1883 6.37962 9.37962 7.18827 9.10222 8.22354C9 8.60504 9 9.07003 9 10M15 11L19 15M19 15L15 19M19 15H6" stroke="#5F5C5C" stroke-width="1.5" stroke-linecap="round" stroke-linejoin="round"/>
</svg>
