<svg width="30" height="30" viewBox="0 0 30 30" fill="none" xmlns="http://www.w3.org/2000/svg">
<rect width="30" height="30" rx="2" fill="white"/>
<path d="M24 19.2V10.8V10.8C24 9.11984 24 8.27976 23.673 7.63803C23.3854 7.07354 22.9265 6.6146 22.362 6.32698C21.7202 6 20.8802 6 19.2 6C18.5496 6 18.2243 6 17.9533 6.05024C16.7321 6.27658 15.7766 7.23206 15.5502 8.45329C15.5 8.72434 15.5 9.04956 15.5 9.7V20.3C15.5 20.9504 15.5 21.2757 15.5502 21.5467C15.7766 22.7679 16.7321 23.7234 17.9533 23.9498C18.2243 24 18.5496 24 19.2 24C20.8802 24 21.7202 24 22.362 23.673C22.9265 23.3854 23.3854 22.9265 23.673 22.362C24 21.7202 24 20.8802 24 19.2Z" fill="#5F5C5C"/>
<path d="M13 10L18 15M18 15L13 20M18 15L6 15" stroke="white" stroke-width="4" stroke-linecap="round" stroke-linejoin="round"/>
<path d="M13 10L18 15M18 15L13 20M18 15L6 15" stroke="#5F5C5C" stroke-width="2" stroke-linecap="round" stroke-linejoin="round"/>
</svg>
