<svg width="30" height="30" viewBox="0 0 30 30" fill="none" xmlns="http://www.w3.org/2000/svg">
<rect width="30" height="30" rx="2" fill="white"/>
<path d="M24 19.5176V10.4826C24 8.58952 24 7.643 23.6168 6.95947C23.2803 6.35936 22.7478 5.89313 22.1084 5.63892C21.3803 5.34938 20.4421 5.47448 18.5656 5.72467L11.9737 6.60359C11.6255 6.65002 11.4514 6.67324 11.3021 6.70895C10.0626 7.00544 9.14575 8.05266 9.01567 9.32043C9 9.47313 9 9.64878 9 10.0001V20.0001C9 20.3514 9 20.527 9.01567 20.6797C9.14575 21.9475 10.0626 22.9947 11.3021 23.2912C11.4513 23.3269 11.6254 23.3501 11.9733 23.3965L11.9737 23.3966L18.5656 24.2755C20.442 24.5257 21.3803 24.6508 22.1084 24.3612C22.7478 24.107 23.2803 23.6408 23.6168 23.0407C24 22.3572 24 21.4106 24 19.5176Z" fill="#5F5C5C" stroke="#5F5C5C" stroke-linecap="round" stroke-linejoin="round"/>
<path d="M15 11L19 15M19 15L15 19M19 15H6" stroke="white" stroke-width="4" stroke-linecap="round" stroke-linejoin="round"/>
<path d="M15 11L19 15M19 15L15 19M19 15H6" stroke="#5F5C5C" stroke-width="2" stroke-linecap="round" stroke-linejoin="round"/>
</svg>
