<svg width="30" height="30" viewBox="0 0 30 30" fill="none" xmlns="http://www.w3.org/2000/svg">
<rect width="30" height="30" rx="2" fill="white"/>
<path d="M6 18.9724V11.0278C6 9.48383 6 8.71186 6.26118 8.12758C6.60942 7.34854 7.27293 6.75467 8.08566 6.49459C8.69521 6.29953 9.46246 6.38478 10.9969 6.55528L12.0183 6.66877C12.3121 6.70141 12.459 6.71773 12.585 6.74279C13.8949 7.00322 14.8748 8.0981 14.989 9.42867C15 9.5567 15 9.70449 15 10.0001V20.0001C15 20.2956 15 20.4434 14.989 20.5715C14.8748 21.902 13.8949 22.9969 12.585 23.2573C12.459 23.2824 12.312 23.2987 12.0184 23.3314L10.9969 23.4448L10.9969 23.4449C9.46245 23.6153 8.6952 23.7006 8.08566 23.5055C7.27293 23.2455 6.60942 22.6516 6.26118 21.8725C6 21.2883 6 20.5163 6 18.9724Z" fill="#5F5C5C" stroke="#5F5C5C" stroke-linecap="round" stroke-linejoin="round"/>
<path d="M19 20L24 15M24 15L19 10M24 15H12" stroke="white" stroke-width="4" stroke-linecap="round" stroke-linejoin="round"/>
<path d="M19 20L24 15M24 15L19 10M24 15H12" stroke="#5F5C5C" stroke-width="2" stroke-linecap="round" stroke-linejoin="round"/>
</svg>
