<svg width="30" height="31" viewBox="0 0 30 31" fill="none" xmlns="http://www.w3.org/2000/svg">
<g clip-path="url(#clip0_5568_213212)">
<path d="M15 30.0586C23.2843 30.0586 30 23.3429 30 15.0586C30 6.77432 23.2843 0.0585938 15 0.0585938C6.71573 0.0585938 0 6.77432 0 15.0586C0 23.3429 6.71573 30.0586 15 30.0586Z" fill="#F0F0F0"/>
<path d="M14.9996 0.0585938C8.55016 0.0585938 3.05201 4.12922 0.932617 9.84123H29.0667C26.9472 4.12922 21.4491 0.0585938 14.9996 0.0585938V0.0585938Z" fill="#D80027"/>
<path d="M14.9996 30.0586C21.4491 30.0586 26.9472 25.988 29.0666 20.276H0.932617C3.05201 25.988 8.55016 30.0586 14.9996 30.0586Z" fill="#338AF3"/>
</g>
<rect x="0.5" y="0.558594" width="29" height="29" rx="14.5" stroke="#D7D7D7"/>
<defs>
<clipPath id="clip0_5568_213212">
<rect y="0.0585938" width="30" height="30" rx="15" fill="white"/>
</clipPath>
</defs>
</svg>
