<svg width="30" height="30" viewBox="0 0 30 30" fill="none" xmlns="http://www.w3.org/2000/svg">
<g clip-path="url(#clip0_5568_213216)">
<path d="M15 30C23.2843 30 30 23.2843 30 15C30 6.71573 23.2843 0 15 0C6.71573 0 0 6.71573 0 15C0 23.2843 6.71573 30 15 30Z" fill="#496E2D"/>
<path d="M17.609 14.3746C17.2408 14.3746 16.8912 14.448 16.5666 14.5648C16.7445 14.1685 16.8637 13.7275 16.8637 13.2566C16.8637 11.3932 15.0004 9.99573 15.0004 9.99573C15.0004 9.99573 13.137 11.3932 13.137 13.2566C13.137 13.7274 13.2563 14.1685 13.4341 14.5648C13.1094 14.4481 12.7599 14.3746 12.3917 14.3746C10.5284 14.3746 9.13086 16.2379 9.13086 16.2379C9.13086 16.2379 10.5284 18.1013 12.3917 18.1013C13.4842 18.1013 14.416 17.461 15.0004 16.9309C15.5849 17.4609 16.5167 18.1013 17.6091 18.1013C19.4725 18.1013 20.87 16.2379 20.87 16.2379C20.87 16.2379 19.4724 14.3746 17.609 14.3746V14.3746Z" fill="#F0F0F0"/>
<path d="M15.0005 5.86963L15.3854 7.05416H16.631L15.6235 7.78635L16.0081 8.97088L15.0005 8.23869L13.993 8.97088L14.3776 7.78635L13.3701 7.05416H14.6156L15.0005 5.86963Z" fill="#FFDA44"/>
<path d="M10.2641 7.94141L11.0046 8.60809L11.8675 8.10992L11.4623 9.02018L12.2028 9.68697L11.2118 9.58279L10.8066 10.493L10.5993 9.51846L9.6084 9.41428L10.4712 8.916L10.2641 7.94141Z" fill="#FFDA44"/>
<path d="M6.79688 11.4087L7.77152 11.6158L8.26975 10.7529L8.37393 11.7438L9.34846 11.9511L8.43826 12.3564L8.54244 13.3472L7.87559 12.6069L6.96539 13.0121L7.46361 12.1492L6.79688 11.4087Z" fill="#FFDA44"/>
<path d="M19.7364 7.94141L18.996 8.60809L18.1331 8.10992L18.5382 9.02018L17.7979 9.68697L18.7888 9.58279L19.194 10.493L19.4013 9.51846L20.3922 9.41428L19.5294 8.916L19.7364 7.94141Z" fill="#FFDA44"/>
<path d="M23.2039 11.4087L22.2293 11.6158L21.7311 10.7529L21.6269 11.7438L20.6523 11.9511L21.5625 12.3564L21.4584 13.3472L22.1252 12.6069L23.0354 13.0121L22.5372 12.1492L23.2039 11.4087Z" fill="#FFDA44"/>
<path d="M15.0003 23.3188C16.4804 23.3188 17.8447 22.8249 18.9392 21.994H11.0615C12.1559 22.8249 13.5202 23.3188 15.0003 23.3188Z" fill="#F0F0F0"/>
<path d="M9.02148 19.4056C9.2285 19.8794 9.491 20.3232 9.79932 20.7304H20.2008C20.5091 20.3232 20.7716 19.8794 20.9786 19.4056H9.02148Z" fill="#F0F0F0"/>
</g>
<rect x="0.5" y="0.5" width="29" height="29" rx="14.5" stroke="#D7D7D7"/>
<defs>
<clipPath id="clip0_5568_213216">
<rect width="30" height="30" rx="15" fill="white"/>
</clipPath>
</defs>
</svg>
