<svg width="30" height="30" viewBox="0 0 30 30" fill="none" xmlns="http://www.w3.org/2000/svg">
<path d="M7.51858 22.403C6.20947 21.1468 5.23202 19.5475 4.73065 17.7498C4.48491 16.8687 4.35355 15.9399 4.35355 14.9804M21.7612 7.5577C23.2595 8.99549 24.3233 10.8825 24.7362 13.0022C24.8609 13.6424 24.9262 14.3037 24.9262 14.9804M11.3428 20.1642L11.5617 21.2868C11.6267 21.621 11.7895 21.9308 12.0304 22.1787C12.2713 22.4267 12.5799 22.6021 12.9187 22.6837C13.2576 22.7655 13.6122 22.7499 13.9396 22.6389C14.267 22.5279 14.5531 22.3263 14.7631 22.0584L15.4694 21.1588C15.7206 20.8397 16.0697 20.6074 16.467 20.4949C16.8666 20.3824 17.2942 20.3965 17.6885 20.5352L18.7922 20.9251C19.1208 21.0409 19.4755 21.0618 19.8135 20.9851C20.1514 20.9084 20.458 20.7376 20.696 20.4932C20.9343 20.249 21.0938 19.9417 21.1552 19.6087C21.2167 19.2756 21.1774 18.9311 21.0422 18.6169L20.5877 17.5605C20.4264 17.1819 20.392 16.7648 20.4895 16.3693C20.5846 15.9743 20.8061 15.6206 21.122 15.3587L22.0079 14.6254C22.2714 14.4073 22.4634 14.1185 22.5604 13.794C22.6574 13.4695 22.6554 13.1233 22.5546 12.7974C22.454 12.4714 22.2589 12.1796 21.993 11.9574C21.7271 11.7352 21.4018 11.5922 21.0565 11.5456L19.8964 11.3899C19.4822 11.3337 19.0952 11.1515 18.7907 10.8693C18.4878 10.5868 18.2832 10.2194 18.2061 9.8195L17.9837 8.69604C17.9187 8.36191 17.7559 8.05209 17.515 7.80413C17.2742 7.55618 16.9656 7.38075 16.6267 7.29913C16.2878 7.2174 15.9332 7.23298 15.6058 7.34398C15.2784 7.45497 14.9924 7.65661 14.7823 7.92445L14.076 8.82406C13.8252 9.14492 13.4757 9.37882 13.0774 9.49226C12.6778 9.60476 12.2502 9.59066 11.8559 9.45198L10.7487 9.06123C10.4201 8.94539 10.0653 8.92453 9.72741 9.0012C9.38947 9.07786 9.08289 9.24875 8.84483 9.49315C8.6066 9.73732 8.44709 10.0446 8.38565 10.3776C8.32421 10.7107 8.36348 11.0552 8.4987 11.3695L8.95321 12.4258C9.11523 12.8029 9.15119 13.2187 9.05593 13.6136C8.96082 14.0085 8.73937 14.3623 8.42338 14.6241L7.53752 15.3575C7.27399 15.5756 7.08207 15.8644 6.98503 16.1889C6.888 16.5134 6.89002 16.8596 6.99086 17.1855C7.09164 17.5114 7.28677 17.803 7.55263 18.0252C7.81849 18.2474 8.1437 18.3905 8.48892 18.4373L9.64906 18.593C10.0632 18.6492 10.4503 18.8314 10.7548 19.1136C11.0591 19.3958 11.265 19.7636 11.3428 20.1642ZM17.146 15.5634C16.8388 16.8379 15.5266 17.6149 14.2151 17.2988C12.9036 16.9827 12.0895 15.6933 12.3966 14.4188C12.7038 13.1443 14.016 12.3673 15.3275 12.6834C16.639 12.9995 17.4531 14.2889 17.146 15.5634Z" stroke="#5F5C5C" stroke-width="1.5" stroke-linecap="round" stroke-linejoin="round"/>
</svg>
