<svg width="30" height="30" viewBox="0 0 30 30" fill="none" xmlns="http://www.w3.org/2000/svg">
<g clip-path="url(#clip0_5568_213228)">
<path d="M15 30C23.2843 30 30 23.2843 30 15C30 6.71573 23.2843 0 15 0C6.71573 0 0 6.71573 0 15C0 23.2843 6.71573 30 15 30Z" fill="#F0F0F0"/>
<path d="M9.78223 15V29.067C11.4071 29.67 13.1648 30 14.9996 30C23.2838 30 29.9996 23.2842 29.9996 15C29.9996 6.71577 9.78223 15 9.78223 15Z" fill="#6DA544"/>
<path d="M14.9996 0C13.1648 0 11.4071 0.330059 9.78223 0.932988V15H29.9996C29.9996 6.71578 23.2838 0 14.9996 0Z" fill="#D80027"/>
</g>
<rect x="0.5" y="0.5" width="29" height="29" rx="14.5" stroke="#D7D7D7"/>
<defs>
<clipPath id="clip0_5568_213228">
<rect width="30" height="30" rx="15" fill="white"/>
</clipPath>
</defs>
</svg>
