<svg width="30" height="30" viewBox="0 0 30 30" fill="none" xmlns="http://www.w3.org/2000/svg">
<g clip-path="url(#clip0_5568_213232)">
<path d="M21.5216 1.4884C19.5496 0.534844 17.3373 0 14.9999 0C12.6625 0 10.4502 0.534844 8.47818 1.4884L7.17383 15L8.47818 28.5116C10.4502 29.4652 12.6625 30 14.9999 30C17.3373 30 19.5496 29.4652 21.5216 28.5116L22.826 15L21.5216 1.4884Z" fill="#FFDA44"/>
<path d="M8.47828 1.48889C3.46084 3.91508 0 9.05311 0 15C0 20.9468 3.46084 26.0848 8.47828 28.511V1.48889Z" fill="#0052B4"/>
<path d="M21.5215 1.48889V28.511C26.5389 26.0848 29.9998 20.9468 29.9998 15C29.9998 9.05311 26.5389 3.91508 21.5215 1.48889Z" fill="#0052B4"/>
<path d="M19.2387 16.3043L20.217 17.6087V12.3912L19.2387 13.6956H16.3039V10.7608L17.6083 9.78259H12.3909L13.6952 10.7608V13.6956H10.7604L9.78223 12.3912V17.6087L10.7604 16.3043H13.6952V19.2391L12.3909 20.2173H17.6083L16.3039 19.2391V16.3043H19.2387Z" fill="#D80027"/>
<path d="M18.913 14.3478H15.6521V11.0869H14.3478V14.3478H11.0869V15.6521H14.3478V18.913H15.6521V15.6521H18.913V14.3478Z" fill="#F0F0F0"/>
</g>
<rect x="0.5" y="0.5" width="29" height="29" rx="14.5" stroke="#D7D7D7"/>
<defs>
<clipPath id="clip0_5568_213232">
<rect width="30" height="30" rx="15" fill="white"/>
</clipPath>
</defs>
</svg>
