<svg width="30" height="30" viewBox="0 0 30 30" fill="none" xmlns="http://www.w3.org/2000/svg">
<path d="M24.5 21L17.8571 15M12.1429 15L5.50003 21M5 10L13.1649 15.7154C13.8261 16.1783 14.1567 16.4097 14.5163 16.4993C14.8339 16.5785 15.1661 16.5785 15.4837 16.4993C15.8433 16.4097 16.1739 16.1783 16.8351 15.7154L25 10M9.8 23H20.2C21.8802 23 22.7202 23 23.362 22.673C23.9265 22.3854 24.3854 21.9265 24.673 21.362C25 20.7202 25 19.8802 25 18.2V11.8C25 10.1198 25 9.27976 24.673 8.63803C24.3854 8.07354 23.9265 7.6146 23.362 7.32698C22.7202 7 21.8802 7 20.2 7H9.8C8.11984 7 7.27976 7 6.63803 7.32698C6.07354 7.6146 5.6146 8.07354 5.32698 8.63803C5 9.27976 5 10.1198 5 11.8V18.2C5 19.8802 5 20.7202 5.32698 21.362C5.6146 21.9265 6.07354 22.3854 6.63803 22.673C7.27976 23 8.11984 23 9.8 23Z" stroke="#5F5C5C" stroke-width="1.5" stroke-linecap="round" stroke-linejoin="round"/>
</svg>
