<svg width="30" height="30" viewBox="0 0 30 30" fill="none" xmlns="http://www.w3.org/2000/svg">
<path d="M17.2879 5.78286L25.1646 10.9027C25.443 11.0836 25.5821 11.1741 25.683 11.2947C25.7722 11.4016 25.8393 11.5251 25.8802 11.6581C25.9264 11.8084 25.9264 11.9744 25.9264 12.3064V19.9777C25.9264 21.7357 25.9264 22.6146 25.5843 23.2861C25.2833 23.8767 24.8031 24.3569 24.2125 24.6579C23.541 25 22.662 25 20.9041 25H10.0223C8.26435 25 7.38536 25 6.7139 24.6579C6.12327 24.3569 5.64307 23.8767 5.34213 23.2861C5 22.6146 5 21.7356 5 19.9777V12.3064C5 11.9744 5 11.8084 5.04622 11.6581C5.08713 11.5251 5.15417 11.4016 5.24342 11.2947C5.34425 11.1741 5.48341 11.0836 5.76174 10.9027L13.6384 5.78286M17.2879 5.78286C16.6275 5.35355 16.2972 5.13889 15.9414 5.05537C15.6269 4.98154 15.2995 4.98154 14.985 5.05537C14.6292 5.13889 14.2989 5.35355 13.6384 5.78286M17.2879 5.78286L23.7669 9.9942C24.4866 10.462 24.8465 10.6959 24.9711 10.9925C25.08 11.2518 25.08 11.5439 24.9711 11.8032C24.8465 12.0998 24.4866 12.3337 23.7669 12.8015L17.2879 17.0128C16.6275 17.4422 16.2972 17.6568 15.9414 17.7403C15.6269 17.8142 15.2995 17.8142 14.985 17.7403C14.6292 17.6568 14.2989 17.4422 13.6384 17.0128L7.15946 12.8015C6.43975 12.3337 6.07989 12.0998 5.95526 11.8032C5.84634 11.5439 5.84634 11.2518 5.95526 10.9925C6.07989 10.6959 6.43975 10.462 7.15946 9.9942L13.6384 5.78286M25.4032 22.9074L18.4527 16.6294M12.4737 16.6294L5.52316 22.9074" stroke="#5F5C5C" stroke-width="1.5" stroke-linecap="round" stroke-linejoin="round"/>
</svg>
