<svg width="30" height="30" viewBox="0 0 30 30" fill="none" xmlns="http://www.w3.org/2000/svg">
<g clip-path="url(#clip0_5568_213239)">
<path d="M0 14.9999C0 16.8347 0.330059 18.5923 0.932988 20.2173L15 20.8695L29.067 20.2174C29.67 18.5923 30 16.8347 30 14.9999C30 13.1651 29.67 11.4076 29.067 9.78258L15 9.13037L0.932988 9.78252C0.330059 11.4076 0 13.1651 0 14.9999H0Z" fill="#D80027"/>
<path d="M14.9996 0C8.55016 0 3.05201 4.07063 0.932617 9.78264H29.0667C26.9472 4.07063 21.4491 0 14.9996 0V0Z" fill="black"/>
<path d="M29.0666 20.2174H0.932617C3.05201 25.9294 8.55016 30 14.9996 30C21.4491 30 26.9472 25.9294 29.0666 20.2174Z" fill="#496E2D"/>
<path d="M19.4832 7.17398L17.6513 6.3123L18.6269 4.53814L16.6376 4.91871L16.3855 2.90906L14.9999 4.38709L13.6143 2.90906L13.3622 4.91871L11.373 4.53814L12.3485 6.3123L10.5166 7.17398H19.4832Z" fill="#D80027"/>
</g>
<rect x="0.5" y="0.5" width="29" height="29" rx="14.5" stroke="#D7D7D7"/>
<defs>
<clipPath id="clip0_5568_213239">
<rect width="30" height="30" rx="15" fill="white"/>
</clipPath>
</defs>
</svg>
