<svg width="30" height="30" viewBox="0 0 30 30" fill="none" xmlns="http://www.w3.org/2000/svg">
<g clip-path="url(#clip0_5568_213244)">
<path d="M15 30C23.2843 30 30 23.2843 30 15C30 6.71573 23.2843 0 15 0C6.71573 0 0 6.71573 0 15C0 23.2843 6.71573 30 15 30Z" fill="#F0F0F0"/>
<path d="M14.3477 15H29.9998C29.9998 13.6461 29.8193 12.3346 29.4831 11.0869H14.3477V15Z" fill="#D80027"/>
<path d="M14.3477 7.17393H27.7982C26.88 5.67557 25.7061 4.35118 24.3371 3.26086H14.3477V7.17393Z" fill="#D80027"/>
<path d="M14.9994 30C18.5296 30 21.7744 28.7798 24.3368 26.7391H5.66211C8.22447 28.7798 11.4692 30 14.9994 30V30Z" fill="#D80027"/>
<path d="M2.20146 22.826H27.7983C28.5354 21.6232 29.1071 20.3083 29.4831 18.913H0.516602C0.892598 20.3083 1.4643 21.6232 2.20146 22.826V22.826Z" fill="#D80027"/>
<path d="M15 15C15 6.71578 15 5.73914 15 0C6.71578 0 0 6.71578 0 15H15Z" fill="#0052B4"/>
<path d="M9.97428 12.8397C7.92572 12.8397 6.26506 11.179 6.26506 9.13046C6.26506 7.08197 7.92578 5.42125 9.97428 5.42125C10.613 5.42125 11.214 5.58279 11.7387 5.86708C10.9156 5.06218 9.78988 4.56531 8.54764 4.56531C6.02641 4.56531 3.98242 6.60923 3.98242 9.13052C3.98242 11.6518 6.02641 13.6957 8.54764 13.6957C9.78988 13.6957 10.9156 13.1989 11.7387 12.394C11.214 12.6781 10.6131 12.8397 9.97428 12.8397V12.8397Z" fill="#FFDA44"/>
<path d="M11.0196 6.52173L11.6781 7.8988L13.1653 7.55521L12.4993 8.92858L13.6954 9.87704L12.2062 10.2127L12.2104 11.7392L11.0196 10.7842L9.82875 11.7392L9.83285 10.2127L8.34375 9.87704L9.53977 8.92858L8.87373 7.55521L10.361 7.8988L11.0196 6.52173Z" fill="#FFDA44"/>
</g>
<rect x="0.5" y="0.5" width="29" height="29" rx="14.5" stroke="#D7D7D7"/>
<defs>
<clipPath id="clip0_5568_213244">
<rect width="30" height="30" rx="15" fill="white"/>
</clipPath>
</defs>
</svg>
