<svg width="30" height="31" viewBox="0 0 30 31" fill="none" xmlns="http://www.w3.org/2000/svg">
<g clip-path="url(#clip0_5568_213255)">
<path d="M15 30.0576C23.2843 30.0576 30 23.3419 30 15.0576C30 6.77335 23.2843 0.0576172 15 0.0576172C6.71573 0.0576172 0 6.77335 0 15.0576C0 23.3419 6.71573 30.0576 15 30.0576Z" fill="#D80027"/>
<path d="M5.21777 7.88367H24.783V22.2315H5.21777V7.88367Z" fill="#6DA544"/>
<path d="M17.4152 19.2968C15.074 19.2968 13.176 17.3988 13.176 15.0576C13.176 12.7165 15.074 10.8185 17.4152 10.8185C18.1451 10.8185 18.832 11.0031 19.4317 11.328C18.491 10.408 17.2045 9.84021 15.7847 9.84021C12.9033 9.84021 10.5674 12.1761 10.5674 15.0576C10.5674 17.939 12.9033 20.2749 15.7847 20.2749C17.2045 20.2749 18.491 19.7071 19.4317 18.7871C18.832 19.1122 18.1451 19.2968 17.4152 19.2968Z" fill="#F0F0F0"/>
</g>
<rect x="0.5" y="0.557617" width="29" height="29" rx="14.5" stroke="#D7D7D7"/>
<defs>
<clipPath id="clip0_5568_213255">
<rect y="0.0576172" width="30" height="30" rx="15" fill="white"/>
</clipPath>
</defs>
</svg>
