<svg width="30" height="31" viewBox="0 0 30 31" fill="none" xmlns="http://www.w3.org/2000/svg">
<g clip-path="url(#clip0_5568_213259)">
<path d="M20.2176 0.990605C18.5926 0.387676 16.835 0.0576172 15.0002 0.0576172C13.1654 0.0576172 11.4079 0.387676 9.78287 0.990605L8.47852 15.0576L9.78287 29.1246C11.4079 29.7276 13.1654 30.0576 15.0002 30.0576C16.835 30.0576 18.5926 29.7276 20.2176 29.1246L21.522 15.0576L20.2176 0.990605Z" fill="#FFDA44"/>
<path d="M30.0004 15.0577C30.0004 8.60826 25.9298 3.11006 20.2178 0.990723V29.1248C25.9298 27.0053 30.0004 21.5072 30.0004 15.0577V15.0577Z" fill="#D80027"/>
<path d="M0 15.0577C0 21.5072 4.07063 27.0053 9.78264 29.1247V0.990723C4.07063 3.11006 0 8.60826 0 15.0577V15.0577Z" fill="#6DA544"/>
</g>
<rect x="0.5" y="0.557617" width="29" height="29" rx="14.5" stroke="#D7D7D7"/>
<defs>
<clipPath id="clip0_5568_213259">
<rect y="0.0576172" width="30" height="30" rx="15" fill="white"/>
</clipPath>
</defs>
</svg>
