<svg width="30" height="31" viewBox="0 0 30 31" fill="none" xmlns="http://www.w3.org/2000/svg">
<g clip-path="url(#clip0_5568_213263)">
<path d="M15 30.0469C23.2843 30.0469 30 23.3311 30 15.0469C30 6.7626 23.2843 0.046875 15 0.046875C6.71573 0.046875 0 6.7626 0 15.0469C0 23.3311 6.71573 30.0469 15 30.0469Z" fill="#F0F0F0"/>
<path d="M15 0.046875C23.2842 0.046875 30 6.76266 30 15.0469C30 23.3311 23.2842 30.0469 15 30.0469" fill="#D80027"/>
<path d="M10.4346 5.91647V3.95996H8.47805V5.91647H6.52148V7.87297H8.47805V9.82953H10.4346V7.87297H12.3911V5.91647H10.4346Z" fill="#ACABB1"/>
</g>
<rect x="0.5" y="0.546875" width="29" height="29" rx="14.5" stroke="#D7D7D7"/>
<defs>
<clipPath id="clip0_5568_213263">
<rect y="0.046875" width="30" height="30" rx="15" fill="white"/>
</clipPath>
</defs>
</svg>
