<svg width="30" height="30" viewBox="0 0 30 30" fill="none" xmlns="http://www.w3.org/2000/svg">
<rect width="30" height="30" rx="2" fill="white"/>
<path d="M14 14H17.5M24 24V17.2C24 16.0799 24 15.5198 23.782 15.092C23.5903 14.7157 23.2843 14.4097 22.908 14.218C22.6705 14.097 22.3922 14.0431 22 14.0192M14 24V9.2C14 8.0799 14 7.51984 13.782 7.09202C13.5903 6.71569 13.2843 6.40973 12.908 6.21799C12.4802 6 11.9201 6 10.8 6H9.2C8.0799 6 7.51984 6 7.09202 6.21799C6.71569 6.40973 6.40973 6.71569 6.21799 7.09202C6 7.51984 6 8.0799 6 9.2V24M25 24H5M9.5 10H10.5M9.5 14H10.5M9.5 18H10.5M18.4 14H20.8C21.2983 14 21.6857 14 22 14.0192M18.4 14V10L17.5 10.5V14M18.4 14H17.5M22 14.0192V10L21.2111 10.5005V14.0005" stroke="#5F5C5C" stroke-width="1.5" stroke-linecap="round" stroke-linejoin="round"/>
</svg>
