<svg width="30" height="31" viewBox="0 0 30 31" fill="none" xmlns="http://www.w3.org/2000/svg">
<g clip-path="url(#clip0_5568_213267)">
<path d="M15 30.0576C23.2842 30.0576 30 23.3418 30 15.0576C30 12.5403 29.3789 10.1682 28.2831 8.08496L14.9824 15.0752L21.9727 1.77453C19.8894 0.678711 17.5174 0.0576172 15 0.0576172C6.71578 0.0576172 0 6.7734 0 15.0576C0 19.1998 1.67895 22.9498 4.39336 25.6643C7.10783 28.3787 10.8578 30.0576 15 30.0576Z" fill="#0052B4"/>
<path d="M28.2674 8.10137C27.5808 6.79449 26.6881 5.56748 25.5893 4.46861C24.4903 3.36975 23.2635 2.47707 21.9565 1.79053L4.37598 25.6818L28.2674 8.10137Z" fill="#F0F0F0"/>
<path d="M4.37598 25.6817L28.2674 8.10126C27.5808 6.79439 26.6881 5.56737 25.5893 4.46851L4.37598 25.6817Z" fill="#FF9811"/>
<path d="M13.0262 8.85379L11.1943 9.71547L12.1698 11.4897L10.1806 11.1091L9.9285 13.1187L8.54287 11.6406L7.15725 13.1187L6.90529 11.1091L4.91603 11.4896L5.89145 9.71541L4.05957 8.85379L5.8915 7.99205L4.91603 6.21795L6.90518 6.5984L7.1573 4.58887L8.54287 6.06689L9.9285 4.58887L10.1806 6.5984L12.1699 6.21795L11.1944 7.99211L13.0262 8.85379Z" fill="#F0F0F0"/>
</g>
<rect x="0.5" y="0.557617" width="29" height="29" rx="14.5" stroke="#D7D7D7"/>
<defs>
<clipPath id="clip0_5568_213267">
<rect y="0.0576172" width="30" height="30" rx="15" fill="white"/>
</clipPath>
</defs>
</svg>
