<svg width="30" height="31" viewBox="0 0 30 31" fill="none" xmlns="http://www.w3.org/2000/svg">
<g clip-path="url(#clip0_5568_213272)">
<path d="M15 30.0586C23.2843 30.0586 30 23.3429 30 15.0586C30 6.77432 23.2843 0.0585938 15 0.0585938C6.71573 0.0585938 0 6.77432 0 15.0586C0 23.3429 6.71573 30.0586 15 30.0586Z" fill="#F0F0F0"/>
<path d="M29.872 13.1021C29.4582 9.93883 28.0373 6.88223 25.6071 4.45206C23.1769 2.02188 20.1203 0.600923 16.957 0.187134L16.9571 13.1021H29.872Z" fill="#0052B4"/>
<path d="M13.0438 0.187134C9.88061 0.600923 6.82395 2.02182 4.39377 4.452C1.96365 6.88223 0.542695 9.93889 0.128906 13.1022L13.0439 13.1021L13.0438 0.187134Z" fill="#0052B4"/>
<path d="M0.128906 17.0153C0.542695 20.1785 1.96365 23.2352 4.39377 25.6653C6.82395 28.0955 9.88055 29.5164 13.0439 29.9303L13.0438 17.0154L0.128906 17.0153Z" fill="#0052B4"/>
<path d="M16.957 29.9301C20.1203 29.5164 23.1769 28.0955 25.6071 25.6653C28.0372 23.2351 29.4581 20.1785 29.8719 17.0153H16.957V29.9301Z" fill="#0052B4"/>
<path d="M20.1203 9.57649C20.1203 9.37704 20.2825 9.21491 20.482 9.21491H21.2568C22.4817 9.21491 23.4782 8.21847 23.4782 6.99368C23.4782 5.7689 22.4817 4.77239 21.2568 4.77239H20.521C20.2808 4.59198 19.9586 4.48071 19.6032 4.48071C18.8618 4.48071 18.2608 4.96147 18.2608 5.55456C18.2608 6.1419 18.8503 6.61839 19.5818 6.62765L19.5814 6.63192H21.2568C21.4563 6.63192 21.6185 6.79411 21.6185 6.99356C21.6185 7.19302 21.4563 7.35515 21.2568 7.35515H20.482C19.2571 7.35515 18.2607 8.35159 18.2607 9.57638C18.2607 10.8012 19.2571 11.7977 20.482 11.7977H23.4781V9.93802H20.482C20.2825 9.93808 20.1203 9.77595 20.1203 9.57649V9.57649Z" fill="#F0F0F0"/>
<path d="M8.38102 9.57649C8.38102 9.37704 8.54314 9.21491 8.74266 9.21491H9.5175C10.7423 9.21491 11.7388 8.21847 11.7388 6.99368C11.7388 5.7689 10.7424 4.77239 9.5175 4.77239H8.78168C8.5415 4.59198 8.2193 4.48071 7.86387 4.48071C7.12248 4.48071 6.52148 4.96147 6.52148 5.55456C6.52148 6.1419 7.111 6.61839 7.84248 6.62765L7.84213 6.63192H9.51756C9.71707 6.63192 9.8792 6.79411 9.8792 6.99356C9.8792 7.19302 9.71707 7.35515 9.51756 7.35515H8.74271C7.51787 7.35515 6.52148 8.35159 6.52148 9.57638C6.52148 10.8012 7.51781 11.7977 8.74271 11.7977H11.7388V9.93802H8.74266C8.54314 9.93808 8.38102 9.77595 8.38102 9.57649V9.57649Z" fill="#F0F0F0"/>
<path d="M20.1204 23.4152C20.1204 23.2158 20.2825 23.0537 20.482 23.0537H21.2569C22.4817 23.0537 23.4782 22.0572 23.4782 20.8324C23.4782 19.6076 22.4818 18.6111 21.2569 18.6111H20.5211C20.2809 18.4307 19.9587 18.3195 19.6032 18.3195C18.8618 18.3195 18.2608 18.8003 18.2608 19.3933C18.2608 19.9806 18.8503 20.4571 19.5818 20.4664L19.5814 20.4707H21.2568C21.4563 20.4707 21.6185 20.6329 21.6185 20.8323C21.6185 21.0318 21.4563 21.1939 21.2568 21.1939H20.482C19.2571 21.1939 18.2607 22.1903 18.2607 23.4151C18.2607 24.6399 19.2571 25.6364 20.482 25.6364H23.4782V23.7768H20.482C20.2825 23.7769 20.1204 23.6146 20.1204 23.4152V23.4152Z" fill="#F0F0F0"/>
<path d="M8.38107 23.4152C8.38107 23.2158 8.5432 23.0537 8.74272 23.0537H9.51756C10.7424 23.0537 11.7389 22.0572 11.7389 20.8324C11.7389 19.6076 10.7425 18.6111 9.51756 18.6111H8.78174C8.54156 18.4307 8.21936 18.3195 7.86393 18.3195C7.12248 18.3195 6.52148 18.8003 6.52148 19.3933C6.52148 19.9806 7.111 20.4571 7.84248 20.4664L7.84213 20.4707H9.51756C9.71707 20.4707 9.8792 20.6329 9.8792 20.8323C9.8792 21.0318 9.71707 21.1939 9.51756 21.1939H8.74272C7.51787 21.1939 6.52148 22.1903 6.52148 23.4151C6.52148 24.6399 7.51781 25.6364 8.74272 25.6364H11.7388V23.7768H8.74272C8.5432 23.7769 8.38107 23.6146 8.38107 23.4152Z" fill="#F0F0F0"/>
</g>
<rect x="0.5" y="0.558594" width="29" height="29" rx="14.5" stroke="#D7D7D7"/>
<defs>
<clipPath id="clip0_5568_213272">
<rect y="0.0585938" width="30" height="30" rx="15" fill="white"/>
</clipPath>
</defs>
</svg>
