<svg width="30" height="30" viewBox="0 0 30 30" fill="none" xmlns="http://www.w3.org/2000/svg">
<path fill-rule="evenodd" clip-rule="evenodd" d="M15 10.105C16.271 8.808 18.04 8 20 8C23.866 8 27 11.134 27 15C27 18.866 23.866 22 20 22C18.04 22 16.271 21.192 15 19.895C13.729 21.192 11.96 22 10 22C6.134 22 3 18.866 3 15C3 11.134 6.134 8 10 8C11.96 8 13.729 8.808 15 10.105ZM16.21 18.223C17.128 19.301 18.477 20 20 20C22.757 20 25 17.757 25 15C25 12.243 22.757 10 20 10C18.477 10 17.128 10.699 16.21 11.776C16.712 12.742 17 13.837 17 15C17 16.163 16.712 17.258 16.21 18.223Z" fill="#5F5C5C"/>
</svg>
