<svg width="30" height="30" viewBox="0 0 30 30" fill="none" xmlns="http://www.w3.org/2000/svg">
<g clip-path="url(#clip0_5568_213289)">
<path d="M1.82422 7.82607L15.0004 9.13043L28.1765 7.82607C25.6324 3.16342 20.686 0 15.0004 0C9.31473 0 4.3683 3.16342 1.82422 7.82607V7.82607Z" fill="#D80027"/>
<path d="M1.82385 22.174L15 23.4783L28.1762 22.174C29.3389 20.0428 30 17.5987 30 15L15 13.6957L0 15C0 17.5987 0.661113 20.0428 1.82385 22.174Z" fill="#FFDA44"/>
<path d="M1.82385 7.82605C0.661113 9.95716 0 12.4013 0 15H30C30 12.4013 29.3389 9.95716 28.1762 7.82605H15H1.82385Z" fill="#0052B4"/>
<path d="M15.0004 30C20.686 30 25.6324 26.8366 28.1765 22.174H1.82422C4.3683 26.8366 9.31473 30 15.0004 30Z" fill="#6DA544"/>
</g>
<rect x="0.5" y="0.5" width="29" height="29" rx="14.5" stroke="#D7D7D7"/>
<defs>
<clipPath id="clip0_5568_213289">
<rect width="30" height="30" rx="15" fill="white"/>
</clipPath>
</defs>
</svg>
