<svg width="30" height="30" viewBox="0 0 30 30" fill="none" xmlns="http://www.w3.org/2000/svg">
<g clip-path="url(#clip0_5568_213284)">
<path d="M15 30C23.2843 30 30 23.2843 30 15C30 6.71573 23.2843 0 15 0C6.71573 0 0 6.71573 0 15C0 23.2843 6.71573 30 15 30Z" fill="#496E2D"/>
<path d="M14.9996 17.3292C12.502 17.3292 10.4154 15.5738 9.90352 13.2298C9.82488 13.5901 9.78223 13.9638 9.78223 14.3478C9.78223 17.2294 12.1181 19.5652 14.9996 19.5652C17.8811 19.5652 20.217 17.2293 20.217 14.3478C20.217 13.9638 20.1743 13.5901 20.0957 13.2297C19.5837 15.5739 17.4972 17.3292 14.9996 17.3292Z" fill="#FFDA44"/>
<path d="M14.9996 10.4348L15.4852 11.9295H17.0568L15.7854 12.8532L16.271 14.3479L14.9996 13.4241L13.7281 14.3479L14.2138 12.8532L12.9424 11.9295H14.5139L14.9996 10.4348Z" fill="#FFDA44"/>
</g>
<rect x="0.5" y="0.5" width="29" height="29" rx="14.5" stroke="#D7D7D7"/>
<defs>
<clipPath id="clip0_5568_213284">
<rect width="30" height="30" rx="15" fill="white"/>
</clipPath>
</defs>
</svg>
