<svg width="30" height="30" viewBox="0 0 30 30" fill="none" xmlns="http://www.w3.org/2000/svg">
<rect width="30" height="30" rx="2" fill="white"/>
<path fill-rule="evenodd" clip-rule="evenodd" d="M25 15C25 20.5228 20.5228 25 15 25C9.47715 25 5 20.5228 5 15C5 9.47715 9.47715 5 15 5C20.5228 5 25 9.47715 25 15ZM16.5603 9.5545C16.4534 9.5 16.3134 9.5 16.0333 9.5H13.9667C13.6866 9.5 13.5466 9.5 13.4397 9.5545C13.3456 9.60243 13.2691 9.67892 13.2212 9.773C13.1667 9.87996 13.1667 10.02 13.1667 10.3V12.3667C13.1667 12.6467 13.1667 12.7867 13.1122 12.8937C13.0642 12.9877 12.9877 13.0642 12.8937 13.1122C12.7867 13.1667 12.6467 13.1667 12.3667 13.1667H10.3C10.02 13.1667 9.87996 13.1667 9.773 13.2212C9.67892 13.2691 9.60243 13.3456 9.5545 13.4397C9.5 13.5466 9.5 13.6866 9.5 13.9667V16.0333C9.5 16.3134 9.5 16.4534 9.5545 16.5603C9.60243 16.6544 9.67892 16.7309 9.773 16.7788C9.87996 16.8333 10.02 16.8333 10.3 16.8333H12.3667C12.6467 16.8333 12.7867 16.8333 12.8937 16.8878C12.9877 16.9358 13.0642 17.0123 13.1122 17.1063C13.1667 17.2133 13.1667 17.3533 13.1667 17.6333V19.7C13.1667 19.98 13.1667 20.12 13.2212 20.227C13.2691 20.3211 13.3456 20.3976 13.4397 20.4455C13.5466 20.5 13.6866 20.5 13.9667 20.5H16.0333C16.3134 20.5 16.4534 20.5 16.5603 20.4455C16.6544 20.3976 16.7309 20.3211 16.7788 20.227C16.8333 20.12 16.8333 19.98 16.8333 19.7V17.6333C16.8333 17.3533 16.8333 17.2133 16.8878 17.1063C16.9358 17.0123 17.0123 16.9358 17.1063 16.8878C17.2133 16.8333 17.3533 16.8333 17.6333 16.8333H19.7C19.98 16.8333 20.12 16.8333 20.227 16.7788C20.3211 16.7309 20.3976 16.6544 20.4455 16.5603C20.5 16.4534 20.5 16.3134 20.5 16.0333V13.9667C20.5 13.6866 20.5 13.5466 20.4455 13.4397C20.3976 13.3456 20.3211 13.2691 20.227 13.2212C20.12 13.1667 19.98 13.1667 19.7 13.1667H17.6333C17.3533 13.1667 17.2133 13.1667 17.1063 13.1122C17.0123 13.0642 16.9358 12.9877 16.8878 12.8937C16.8333 12.7867 16.8333 12.6467 16.8333 12.3667V10.3C16.8333 10.02 16.8333 9.87996 16.7788 9.773C16.7309 9.67892 16.6544 9.60243 16.5603 9.5545Z" fill="#5F5C5C" stroke="#5F5C5C" stroke-linecap="round" stroke-linejoin="round"/>
</svg>
