<svg width="30" height="30" viewBox="0 0 30 30" fill="none" xmlns="http://www.w3.org/2000/svg">
<rect width="30" height="30" rx="2" fill="white"/>
<path d="M18 7.6C18 7.03995 18 6.75992 17.891 6.54601C17.7951 6.35785 17.6422 6.20487 17.454 6.10899C17.2401 6 16.9601 6 16.4 6H13.6C13.0399 6 12.7599 6 12.546 6.10899C12.3578 6.20487 12.2049 6.35785 12.109 6.54601C12 6.75992 12 7.03995 12 7.6V10.4C12 10.9601 12 11.2401 11.891 11.454C11.7951 11.6422 11.6422 11.7951 11.454 11.891C11.2401 12 10.9601 12 10.4 12H7.6C7.03995 12 6.75992 12 6.54601 12.109C6.35785 12.2049 6.20487 12.3578 6.10899 12.546C6 12.7599 6 13.0399 6 13.6V16.4C6 16.9601 6 17.2401 6.10899 17.454C6.20487 17.6422 6.35785 17.7951 6.54601 17.891C6.75992 18 7.03995 18 7.6 18H10.4C10.9601 18 11.2401 18 11.454 18.109C11.6422 18.2049 11.7951 18.3578 11.891 18.546C12 18.7599 12 19.0399 12 19.6V22.4C12 22.9601 12 23.2401 12.109 23.454C12.2049 23.6422 12.3578 23.7951 12.546 23.891C12.7599 24 13.0399 24 13.6 24H16.4C16.9601 24 17.2401 24 17.454 23.891C17.6422 23.7951 17.7951 23.6422 17.891 23.454C18 23.2401 18 22.9601 18 22.4V19.6C18 19.0399 18 18.7599 18.109 18.546C18.2049 18.3578 18.3578 18.2049 18.546 18.109C18.7599 18 19.0399 18 19.6 18H22.4C22.9601 18 23.2401 18 23.454 17.891C23.6422 17.7951 23.7951 17.6422 23.891 17.454C24 17.2401 24 16.9601 24 16.4V13.6C24 13.0399 24 12.7599 23.891 12.546C23.7951 12.3578 23.6422 12.2049 23.454 12.109C23.2401 12 22.9601 12 22.4 12L19.6 12C19.0399 12 18.7599 12 18.546 11.891C18.3578 11.7951 18.2049 11.6422 18.109 11.454C18 11.2401 18 10.9601 18 10.4V7.6Z" fill="#5F5C5C" stroke="#5F5C5C" stroke-linecap="round" stroke-linejoin="round"/>
</svg>
