<svg width="30" height="30" viewBox="0 0 30 30" fill="none" xmlns="http://www.w3.org/2000/svg">
<g clip-path="url(#clip0_5568_213294)">
<path d="M15 30C23.2843 30 30 23.2843 30 15C30 6.71573 23.2843 0 15 0C6.71573 0 0 6.71573 0 15C0 23.2843 6.71573 30 15 30Z" fill="#338AF3"/>
<path d="M7.17383 16.3043H22.826V18.2608H7.17383V16.3043Z" fill="#818085"/>
<path d="M9.78223 10.4348L14.9996 11.0871L20.217 10.4348V7.3044L18.13 8.3479L14.9996 5.21741L11.8692 8.3479L9.78223 7.3044V10.4348Z" fill="#FFDA44"/>
<path d="M8.47805 20.2175H6.52148V16.6305L7.17369 15.6522L6.52148 14.6739V12.3914H8.47805V20.2175Z" fill="#F0F0F0"/>
<path d="M23.478 20.2175H21.5215V12.3914H23.478V14.6739L22.8258 15.6686L23.478 16.6306V20.2175Z" fill="#F0F0F0"/>
<path d="M6.52148 14.674H23.478V16.6305H6.52148V14.674Z" fill="#ACABB1"/>
<path d="M14.9996 22.826C12.1227 22.826 9.78223 20.4855 9.78223 17.6087V10.4348H20.217V17.6087C20.217 20.4855 17.8765 22.826 14.9996 22.826Z" fill="#F0F0F0"/>
<path d="M15.0001 20.8695C13.2021 20.8695 11.7393 19.4067 11.7393 17.6087V12.3914H18.261V17.6087C18.261 19.4067 16.7982 20.8695 15.0001 20.8695V20.8695Z" fill="#0052B4"/>
<path d="M9.78223 10.4348H11.7387V12.3913H9.78223V10.4348Z" fill="#D80027"/>
<path d="M18.2607 10.4348H20.2172V12.3913H18.2607V10.4348Z" fill="#D80027"/>
<path d="M18.2607 14.674H20.2172V16.6305H18.2607V14.674Z" fill="#D80027"/>
<path d="M9.78223 14.674H11.7387V16.6305H9.78223V14.674Z" fill="#D80027"/>
<path d="M14.0215 10.4348H15.978V12.3913H14.0215V10.4348Z" fill="#D80027"/>
<path d="M14.9998 20.8696C14.659 20.8696 14.3304 20.8169 14.0215 20.7195V22.7328C14.3386 22.7933 14.6653 22.8262 14.9998 22.8262C15.3342 22.8262 15.6609 22.7933 15.978 22.7328V20.7195C15.6691 20.8168 15.3405 20.8696 14.9998 20.8696Z" fill="#D80027"/>
<path d="M11.7821 18.1381L10.2207 19.6995C10.4914 20.3158 10.8777 20.8701 11.3524 21.3347L12.7352 19.9519C12.2417 19.4751 11.8979 18.8446 11.7821 18.1381Z" fill="#D80027"/>
<path d="M19.7781 19.6996L18.2167 18.1382C18.1008 18.8447 17.7571 19.4751 17.2637 19.9521L18.6465 21.3349C19.1211 20.8702 19.5074 20.3159 19.7781 19.6996Z" fill="#D80027"/>
</g>
<rect x="0.5" y="0.5" width="29" height="29" rx="14.5" stroke="#D7D7D7"/>
<defs>
<clipPath id="clip0_5568_213294">
<rect width="30" height="30" rx="15" fill="white"/>
</clipPath>
</defs>
</svg>
