<svg width="30" height="30" viewBox="0 0 30 30" fill="none" xmlns="http://www.w3.org/2000/svg">
<path d="M10 15H10.0111M15 15H15.0111M20 15H20.0111M15 25C20.5228 25 25 20.5228 25 15C25 9.47715 20.5228 5 15 5C9.47715 5 5 9.47715 5 15C5 16.3302 5.25971 17.5997 5.73118 18.7606C5.82142 18.9828 5.86653 19.0938 5.88666 19.1836C5.90635 19.2715 5.91355 19.3365 5.91356 19.4265C5.91357 19.5186 5.89687 19.6188 5.86345 19.8193L5.20459 23.7725C5.13559 24.1865 5.10109 24.3935 5.16529 24.5431C5.22148 24.6741 5.32587 24.7785 5.45687 24.8347C5.60655 24.8989 5.81354 24.8644 6.22751 24.7954L10.1807 24.1365C10.3812 24.1031 10.4815 24.0864 10.5735 24.0864C10.6635 24.0864 10.7285 24.0937 10.8164 24.1133C10.9062 24.1335 11.0172 24.1786 11.2394 24.2688C12.4003 24.7403 13.6698 25 15 25ZM10.5556 15C10.5556 15.3068 10.3068 15.5556 10 15.5556C9.69318 15.5556 9.44444 15.3068 9.44444 15C9.44444 14.6932 9.69318 14.4444 10 14.4444C10.3068 14.4444 10.5556 14.6932 10.5556 15ZM15.5556 15C15.5556 15.3068 15.3068 15.5556 15 15.5556C14.6932 15.5556 14.4444 15.3068 14.4444 15C14.4444 14.6932 14.6932 14.4444 15 14.4444C15.3068 14.4444 15.5556 14.6932 15.5556 15ZM20.5556 15C20.5556 15.3068 20.3068 15.5556 20 15.5556C19.6932 15.5556 19.4444 15.3068 19.4444 15C19.4444 14.6932 19.6932 14.4444 20 14.4444C20.3068 14.4444 20.5556 14.6932 20.5556 15Z" stroke="#5F5C5C" stroke-width="1.5" stroke-linecap="round" stroke-linejoin="round"/>
</svg>
