<svg width="30" height="30" viewBox="0 0 30 30" fill="none" xmlns="http://www.w3.org/2000/svg">
<path d="M25 15C25 20.5228 20.5228 25 15 25C13.6698 25 12.4003 24.7403 11.2394 24.2688C11.0172 24.1786 10.9062 24.1335 10.8164 24.1133C10.7285 24.0937 10.6635 24.0864 10.5735 24.0864C10.4815 24.0864 10.3812 24.1031 10.1807 24.1365L6.22751 24.7954C5.81354 24.8644 5.60655 24.8989 5.45687 24.8347C5.32587 24.7785 5.22148 24.6741 5.16529 24.5431C5.10109 24.3935 5.13559 24.1865 5.20459 23.7725L5.86345 19.8193C5.89687 19.6188 5.91357 19.5186 5.91356 19.4265C5.91355 19.3365 5.90635 19.2715 5.88666 19.1836C5.86653 19.0938 5.82142 18.9828 5.73118 18.7606C5.25971 17.5997 5 16.3302 5 15C5 9.47715 9.47715 5 15 5C20.5228 5 25 9.47715 25 15Z" stroke="#5F5C5C" stroke-width="1.5" stroke-linecap="round" stroke-linejoin="round"/>
</svg>
