<svg width="30" height="30" viewBox="0 0 30 30" fill="none" xmlns="http://www.w3.org/2000/svg">
<path d="M5 10.2005C5 8.38017 5 7.46999 5.35426 6.77471C5.66588 6.16312 6.16312 5.66588 6.77471 5.35426C7.46999 5 8.38017 5 10.2005 5H19.3014C21.1218 5 22.032 5 22.7272 5.35426C23.3388 5.66588 23.8361 6.16312 24.1477 6.77471C24.502 7.46999 24.502 8.38017 24.502 10.2005V16.0511C24.502 17.8715 24.502 18.7816 24.1477 19.4769C23.8361 20.0885 23.3388 20.5857 22.7272 20.8974C22.032 21.2516 21.1218 21.2516 19.3014 21.2516H16.5752C15.8991 21.2516 15.561 21.2516 15.2377 21.318C14.9508 21.3769 14.6732 21.4743 14.4124 21.6075C14.1184 21.7577 13.8544 21.9689 13.3265 22.3912L10.742 24.4588C10.2912 24.8195 10.0658 24.9998 9.87607 25C9.7111 25.0002 9.55503 24.9252 9.45211 24.7962C9.33377 24.648 9.33377 24.3593 9.33377 23.782V21.2516C8.3262 21.2516 7.82241 21.2516 7.40908 21.1409C6.28742 20.8403 5.4113 19.9642 5.11075 18.8425C5 18.4292 5 17.9254 5 16.9179V10.2005Z" stroke="#5F5C5C" stroke-width="1.5" stroke-linecap="round" stroke-linejoin="round"/>
<path fill-rule="evenodd" clip-rule="evenodd" d="M14.7476 10.0914C13.7729 8.96583 12.1473 8.66307 10.926 9.69372C9.70467 10.7244 9.53273 12.4476 10.4918 13.6665C11.0861 14.4217 12.5775 15.801 13.6263 16.7412C14.0116 17.0866 14.2042 17.2593 14.4354 17.3288C14.6337 17.3885 14.8616 17.3885 15.0599 17.3288C15.2911 17.2593 15.4837 17.0866 15.869 16.7412C16.9178 15.801 18.4092 14.4217 19.0034 13.6665C19.9625 12.4476 19.8116 10.7135 18.5693 9.69372C17.3269 8.67391 15.7224 8.96583 14.7476 10.0914Z" stroke="#5F5C5C" stroke-width="1.5" stroke-linecap="round" stroke-linejoin="round"/>
</svg>
