<svg width="30" height="30" viewBox="0 0 30 30" fill="none" xmlns="http://www.w3.org/2000/svg">
<path d="M11 12.5H15M11 16H18M15 24C19.9706 24 24 19.9706 24 15C24 10.0294 19.9706 6 15 6C10.0294 6 6 10.0294 6 15C6 16.1971 6.23374 17.3397 6.65806 18.3845C6.73927 18.5845 6.77988 18.6845 6.798 18.7653C6.81572 18.8443 6.8222 18.9028 6.82221 18.9839C6.82222 19.0667 6.80718 19.1569 6.77711 19.3374L6.18413 22.8952C6.12203 23.2678 6.09098 23.4541 6.14876 23.5888C6.19933 23.7067 6.29328 23.8007 6.41118 23.8512C6.54589 23.909 6.73218 23.878 7.10476 23.8159L10.6627 23.2229C10.8431 23.1928 10.9333 23.1778 11.0161 23.1778C11.0972 23.1778 11.1557 23.1843 11.2347 23.202C11.3155 23.2201 11.4155 23.2607 11.6155 23.3419C12.6603 23.7663 13.8029 24 15 24Z" stroke="#5F5C5C" stroke-width="1.5" stroke-linecap="round" stroke-linejoin="round"/>
</svg>
