<svg width="30" height="30" viewBox="0 0 30 30" fill="none" xmlns="http://www.w3.org/2000/svg">
<path d="M10.9996 12.5H14.9996M10.9996 16H17.9996M15.4996 23C20.194 23 23.9996 19.1944 23.9996 14.5C23.9996 9.80558 20.194 6 15.4996 6C10.8052 6 6.99962 9.80558 6.99962 14.5C6.99962 15.45 7.15547 16.3636 7.443 17.2166C7.55119 17.5376 7.60529 17.6981 7.61505 17.8214C7.62469 17.9432 7.6174 18.0286 7.58728 18.1469C7.55677 18.2668 7.48942 18.3915 7.35472 18.6408L5.71906 21.6684C5.48575 22.1002 5.36909 22.3161 5.3952 22.4828C5.41794 22.6279 5.50337 22.7557 5.6288 22.8322C5.7728 22.9201 6.01692 22.8948 6.50517 22.8444L11.6262 22.315C11.7813 22.299 11.8588 22.291 11.9295 22.2937C11.999 22.2963 12.0481 22.3029 12.1159 22.3185C12.1848 22.3344 12.2714 22.3678 12.4448 22.4345C13.3928 22.7998 14.4228 23 15.4996 23Z" stroke="#5F5C5C" stroke-width="1.5" stroke-linecap="round" stroke-linejoin="round"/>
</svg>
