<svg width="30" height="30" viewBox="0 0 30 30" fill="none" xmlns="http://www.w3.org/2000/svg">
<path d="M13 18L9.92474 21.1137C9.49579 21.548 9.28131 21.7652 9.09695 21.7805C8.93701 21.7938 8.78042 21.7295 8.67596 21.6076C8.55556 21.4672 8.55556 21.162 8.55556 20.5515V18.9916C8.55556 18.444 8.10707 18.0477 7.5652 17.9683V17.9683C6.25374 17.7762 5.22378 16.7463 5.03168 15.4348C5 15.2186 5 14.9605 5 14.4444V9.8C5 8.11984 5 7.27976 5.32698 6.63803C5.6146 6.07354 6.07354 5.6146 6.63803 5.32698C7.27976 5 8.11984 5 9.8 5H17.2C18.8802 5 19.7202 5 20.362 5.32698C20.9265 5.6146 21.3854 6.07354 21.673 6.63803C22 7.27976 22 8.11984 22 9.8V14M22 25L19.8236 23.4869C19.5177 23.2742 19.3647 23.1678 19.1982 23.0924C19.0504 23.0255 18.8951 22.9768 18.7356 22.9474C18.5558 22.9143 18.3695 22.9143 17.9969 22.9143H16.2C15.0799 22.9143 14.5198 22.9143 14.092 22.6963C13.7157 22.5046 13.4097 22.1986 13.218 21.8223C13 21.3944 13 20.8344 13 19.7143V17.2C13 16.0799 13 15.5198 13.218 15.092C13.4097 14.7157 13.7157 14.4097 14.092 14.218C14.5198 14 15.0799 14 16.2 14H21.8C22.9201 14 23.4802 14 23.908 14.218C24.2843 14.4097 24.5903 14.7157 24.782 15.092C25 15.5198 25 16.0799 25 17.2V19.9143C25 20.8462 25 21.3121 24.8478 21.6797C24.6448 22.1697 24.2554 22.5591 23.7654 22.762C23.3978 22.9143 22.9319 22.9143 22 22.9143V25Z" stroke="#5F5C5C" stroke-width="1.5" stroke-linecap="round" stroke-linejoin="round"/>
</svg>
