<svg width="30" height="30" viewBox="0 0 30 30" fill="none" xmlns="http://www.w3.org/2000/svg">
<path d="M10 11.5H15M10 15H18M12.6837 21H19.2C20.8802 21 21.7202 21 22.362 20.673C22.9265 20.3854 23.3854 19.9265 23.673 19.362C24 18.7202 24 17.8802 24 16.2V10.8C24 9.11984 24 8.27976 23.673 7.63803C23.3854 7.07354 22.9265 6.6146 22.362 6.32698C21.7202 6 20.8802 6 19.2 6H10.8C9.11984 6 8.27976 6 7.63803 6.32698C7.07354 6.6146 6.6146 7.07354 6.32698 7.63803C6 8.27976 6 9.11984 6 10.8V23.3355C6 23.8684 6 24.1348 6.10923 24.2716C6.20422 24.3906 6.34827 24.4599 6.50054 24.4597C6.67563 24.4595 6.88367 24.2931 7.29976 23.9602L9.68521 22.0518C10.1725 21.662 10.4162 21.4671 10.6875 21.3285C10.9282 21.2055 11.1844 21.1156 11.4492 21.0613C11.7477 21 12.0597 21 12.6837 21Z" stroke="#5F5C5C" stroke-width="1.5" stroke-linecap="round" stroke-linejoin="round"/>
</svg>
