<svg width="30" height="30" viewBox="0 0 30 30" fill="none" xmlns="http://www.w3.org/2000/svg">
<path d="M25.8918 15C25.8918 20.5228 21.4146 25 15.8918 25C14.625 25 13.4132 24.7644 12.2979 24.3347C12.0939 24.2562 11.992 24.2169 11.9109 24.1982C11.8311 24.1798 11.7734 24.1722 11.6916 24.169C11.6085 24.1658 11.5173 24.1753 11.3348 24.1941L5.31008 24.8169C4.73567 24.8763 4.44847 24.906 4.27906 24.8026C4.13149 24.7126 4.03099 24.5623 4.00424 24.3915C3.97352 24.1954 4.11076 23.9414 4.38525 23.4334L6.30955 19.8715C6.46802 19.5782 6.54726 19.4316 6.58315 19.2905C6.61859 19.1513 6.62716 19.0508 6.61582 18.9076C6.60434 18.7625 6.5407 18.5737 6.4134 18.196C6.07514 17.1925 5.89179 16.1176 5.89179 15C5.89179 9.47715 10.3689 5 15.8918 5C21.4146 5 25.8918 9.47715 25.8918 15Z" stroke="#5F5C5C" stroke-width="1.5" stroke-linecap="round" stroke-linejoin="round"/>
</svg>
