<svg width="30" height="30" viewBox="0 0 30 30" fill="none" xmlns="http://www.w3.org/2000/svg">
<path d="M14.9593 5.0429C9.87366 5.51319 5.89179 9.79159 5.89179 15C5.89179 16.1176 6.07514 17.1925 6.4134 18.196C6.5407 18.5737 6.60434 18.7625 6.61582 18.9076C6.62716 19.0508 6.61859 19.1513 6.58315 19.2905C6.54726 19.4316 6.46802 19.5782 6.30955 19.8715L4.38525 23.4334C4.11076 23.9414 3.97352 24.1954 4.00424 24.3915C4.03099 24.5623 4.13149 24.7126 4.27906 24.8026C4.44847 24.906 4.73567 24.8763 5.31008 24.8169L11.3348 24.1941C11.5172 24.1753 11.6085 24.1658 11.6916 24.169C11.7734 24.1722 11.8311 24.1798 11.9109 24.1982C11.992 24.2169 12.0939 24.2562 12.2979 24.3347C13.4132 24.7644 14.625 25 15.8918 25C21.1045 25 25.3857 21.0116 25.85 15.9199M24.8581 6.03374C26.2364 7.41206 26.2364 9.64676 24.8581 11.0251C23.4797 12.4034 21.245 12.4034 19.8667 11.0251C18.4884 9.64676 18.4884 7.41206 19.8667 6.03374C21.245 4.65542 23.4797 4.65542 24.8581 6.03374Z" stroke="#5F5C5C" stroke-width="1.5" stroke-linecap="round" stroke-linejoin="round"/>
</svg>
