<svg width="30" height="30" viewBox="0 0 30 30" fill="none" xmlns="http://www.w3.org/2000/svg">
<path d="M9.87549 13.1258H9.88632M14.751 13.1258H14.7618M19.6265 13.1258H19.6373M9.33377 21.2516V23.782C9.33377 24.3593 9.33377 24.648 9.45211 24.7962C9.55503 24.9252 9.7111 25.0002 9.87607 25C10.0658 24.9998 10.2912 24.8195 10.742 24.4588L13.3265 22.3912C13.8544 21.9689 14.1184 21.7577 14.4124 21.6075C14.6732 21.4743 14.9508 21.3769 15.2377 21.318C15.561 21.2516 15.8991 21.2516 16.5752 21.2516H19.3014C21.1218 21.2516 22.032 21.2516 22.7272 20.8974C23.3388 20.5857 23.8361 20.0885 24.1477 19.4769C24.502 18.7816 24.502 17.8715 24.502 16.0511V10.2005C24.502 8.38017 24.502 7.46999 24.1477 6.77471C23.8361 6.16312 23.3388 5.66588 22.7272 5.35426C22.032 5 21.1218 5 19.3014 5H10.2005C8.38017 5 7.46999 5 6.77471 5.35426C6.16312 5.66588 5.66588 6.16312 5.35426 6.77471C5 7.46999 5 8.38017 5 10.2005V16.9179C5 17.9254 5 18.4292 5.11075 18.8425C5.4113 19.9642 6.28742 20.8403 7.40908 21.1409C7.82241 21.2516 8.3262 21.2516 9.33377 21.2516ZM10.4172 13.1258C10.4172 13.425 10.1747 13.6675 9.87549 13.6675C9.5763 13.6675 9.33377 13.425 9.33377 13.1258C9.33377 12.8266 9.5763 12.5841 9.87549 12.5841C10.1747 12.5841 10.4172 12.8266 10.4172 13.1258ZM15.2927 13.1258C15.2927 13.425 15.0502 13.6675 14.751 13.6675C14.4518 13.6675 14.2093 13.425 14.2093 13.1258C14.2093 12.8266 14.4518 12.5841 14.751 12.5841C15.0502 12.5841 15.2927 12.8266 15.2927 13.1258ZM20.1682 13.1258C20.1682 13.425 19.9257 13.6675 19.6265 13.6675C19.3273 13.6675 19.0847 13.425 19.0847 13.1258C19.0847 12.8266 19.3273 12.5841 19.6265 12.5841C19.9257 12.5841 20.1682 12.8266 20.1682 13.1258Z" stroke="#5F5C5C" stroke-width="1.5" stroke-linecap="round" stroke-linejoin="round"/>
</svg>
