<svg width="30" height="30" viewBox="0 0 30 30" fill="none" xmlns="http://www.w3.org/2000/svg">
<path d="M10 11.5H15M10 15H18M10 21V23.3355C10 23.8684 10 24.1348 10.1092 24.2716C10.2042 24.3906 10.3483 24.4599 10.5005 24.4597C10.6756 24.4595 10.8837 24.2931 11.2998 23.9602L13.6852 22.0518C14.1725 21.662 14.4162 21.4671 14.6875 21.3285C14.9282 21.2055 15.1844 21.1156 15.4492 21.0613C15.7477 21 16.0597 21 16.6837 21H19.2C20.8802 21 21.7202 21 22.362 20.673C22.9265 20.3854 23.3854 19.9265 23.673 19.362C24 18.7202 24 17.8802 24 16.2V10.8C24 9.11984 24 8.27976 23.673 7.63803C23.3854 7.07354 22.9265 6.6146 22.362 6.32698C21.7202 6 20.8802 6 19.2 6H10.8C9.11984 6 8.27976 6 7.63803 6.32698C7.07354 6.6146 6.6146 7.07354 6.32698 7.63803C6 8.27976 6 9.11984 6 10.8V17C6 17.93 6 18.395 6.10222 18.7765C6.37962 19.8117 7.18827 20.6204 8.22354 20.8978C8.60504 21 9.07003 21 10 21Z" stroke="#5F5C5C" stroke-width="1.5" stroke-linecap="round" stroke-linejoin="round"/>
</svg>
