<svg width="30" height="30" viewBox="0 0 30 30" fill="none" xmlns="http://www.w3.org/2000/svg">
<path d="M6 10.8C6 9.11984 6 8.27976 6.32698 7.63803C6.6146 7.07354 7.07354 6.6146 7.63803 6.32698C8.27976 6 9.11984 6 10.8 6H19.2C20.8802 6 21.7202 6 22.362 6.32698C22.9265 6.6146 23.3854 7.07354 23.673 7.63803C24 8.27976 24 9.11984 24 10.8V16.2C24 17.8802 24 18.7202 23.673 19.362C23.3854 19.9265 22.9265 20.3854 22.362 20.673C21.7202 21 20.8802 21 19.2 21H12.6837C12.0597 21 11.7477 21 11.4492 21.0613C11.1844 21.1156 10.9282 21.2055 10.6875 21.3285C10.4162 21.4671 10.1725 21.662 9.68521 22.0518L7.29976 23.9602C6.88367 24.2931 6.67563 24.4595 6.50054 24.4597C6.34827 24.4599 6.20422 24.3906 6.10923 24.2716C6 24.1348 6 23.8684 6 23.3355V10.8Z" stroke="#5F5C5C" stroke-width="1.5" stroke-linecap="round" stroke-linejoin="round"/>
</svg>
