<svg width="30" height="30" viewBox="0 0 30 30" fill="none" xmlns="http://www.w3.org/2000/svg">
<path d="M9.09436 14.2288C9.03221 13.8282 8.99996 13.4179 8.99996 13C8.99996 8.58172 12.6052 5 17.0526 5C21.4999 5 25.1052 8.58172 25.1052 13C25.1052 13.9981 24.9213 14.9535 24.5852 15.8345C24.5154 16.0175 24.4804 16.109 24.4646 16.1804C24.4489 16.2512 24.4428 16.301 24.4411 16.3735C24.4394 16.4466 24.4493 16.5272 24.4692 16.6883L24.8717 19.9585C24.9153 20.3125 24.9371 20.4895 24.8782 20.6182C24.8266 20.731 24.735 20.8205 24.6211 20.8695C24.4911 20.9254 24.3146 20.8995 23.9617 20.8478L20.7765 20.3809C20.6101 20.3565 20.527 20.3443 20.4512 20.3448C20.3763 20.3452 20.3245 20.3507 20.2511 20.3661C20.177 20.3817 20.0823 20.4172 19.893 20.4881C19.0097 20.819 18.0524 21 17.0526 21C16.6344 21 16.2237 20.9683 15.8227 20.9073M10.6316 25C13.5965 25 16 22.5376 16 19.5C16 16.4624 13.5965 14 10.6316 14C7.66668 14 5.26316 16.4624 5.26316 19.5C5.26316 20.1106 5.36028 20.6979 5.53955 21.2467C5.61533 21.4787 5.65322 21.5947 5.66566 21.6739C5.67864 21.7567 5.68091 21.8031 5.67608 21.8867C5.67145 21.9668 5.65141 22.0573 5.61134 22.2383L5 25L7.9948 24.591C8.15827 24.5687 8.24 24.5575 8.31137 24.558C8.38652 24.5585 8.42641 24.5626 8.50011 24.5773C8.5701 24.5912 8.67416 24.6279 8.88227 24.7014C9.43059 24.8949 10.0191 25 10.6316 25Z" stroke="#5F5C5C" stroke-width="1.5" stroke-linecap="round" stroke-linejoin="round"/>
</svg>
