<svg width="30" height="30" viewBox="0 0 30 30" fill="none" xmlns="http://www.w3.org/2000/svg">
<path d="M6 10.8C6 9.11984 6 8.27976 6.32698 7.63803C6.6146 7.07354 7.07354 6.6146 7.63803 6.32698C8.27976 6 9.11984 6 10.8 6H19.2C20.8802 6 21.7202 6 22.362 6.32698C22.9265 6.6146 23.3854 7.07354 23.673 7.63803C24 8.27976 24 9.11984 24 10.8V16.2C24 17.8802 24 18.7202 23.673 19.362C23.3854 19.9265 22.9265 20.3854 22.362 20.673C21.7202 21 20.8802 21 19.2 21H16.6837C16.0597 21 15.7477 21 15.4492 21.0613C15.1844 21.1156 14.9282 21.2055 14.6875 21.3285C14.4162 21.4671 14.1725 21.662 13.6852 22.0518L11.2998 23.9602C10.8837 24.2931 10.6756 24.4595 10.5005 24.4597C10.3483 24.4599 10.2042 24.3906 10.1092 24.2716C10 24.1348 10 23.8684 10 23.3355V21C9.07003 21 8.60504 21 8.22354 20.8978C7.18827 20.6204 6.37962 19.8117 6.10222 18.7765C6 18.395 6 17.93 6 17V10.8Z" stroke="#5F5C5C" stroke-width="1.5" stroke-linecap="round" stroke-linejoin="round"/>
</svg>
