<svg width="30" height="30" viewBox="0 0 30 30" fill="none" xmlns="http://www.w3.org/2000/svg">
<path d="M12.3624 15L14.7153 17.3529L20.0094 12.0588M15.8918 25C21.4146 25 25.8918 20.5228 25.8918 15C25.8918 9.47715 21.4146 5 15.8918 5C10.3689 5 5.89179 9.47715 5.89179 15C5.89179 16.1176 6.07514 17.1925 6.4134 18.196C6.5407 18.5737 6.60434 18.7625 6.61582 18.9076C6.62716 19.0508 6.61859 19.1513 6.58315 19.2905C6.54726 19.4316 6.46802 19.5782 6.30955 19.8715L4.38525 23.4334C4.11076 23.9414 3.97352 24.1954 4.00424 24.3915C4.03099 24.5623 4.13149 24.7126 4.27906 24.8026C4.44847 24.906 4.73567 24.8763 5.31008 24.8169L11.3348 24.1941C11.5173 24.1753 11.6085 24.1658 11.6916 24.169C11.7734 24.1722 11.8311 24.1798 11.9109 24.1982C11.992 24.2169 12.0939 24.2562 12.2979 24.3347C13.4132 24.7644 14.625 25 15.8918 25Z" stroke="#5F5C5C" stroke-width="1.5" stroke-linecap="round" stroke-linejoin="round"/>
</svg>
