<svg width="30" height="30" viewBox="0 0 30 30" fill="none" xmlns="http://www.w3.org/2000/svg">
<g clip-path="url(#clip0_5568_213313)">
<path d="M15 30C23.2843 30 30 23.2843 30 15C30 6.71573 23.2843 0 15 0C6.71573 0 0 6.71573 0 15C0 23.2843 6.71573 30 15 30Z" fill="#F0F0F0"/>
<path d="M29.9998 15C29.9998 9.05309 26.5389 3.91465 21.5215 1.4884V28.5115C26.5389 26.0854 29.9998 20.9469 29.9998 15V15Z" fill="#D80027"/>
<path d="M0 15C0 20.9469 3.46084 26.0854 8.47828 28.5116V1.4884C3.46084 3.91465 0 9.05309 0 15Z" fill="#6DA544"/>
<path d="M11.0869 15C11.0869 17.1611 12.8389 18.9131 15 18.9131C17.1611 18.9131 18.913 17.1611 18.913 15V13.6957H11.0869V15Z" fill="#6DA544"/>
<path d="M20.2171 12.3913H16.304C16.304 11.6709 15.72 11.0869 14.9996 11.0869C14.2793 11.0869 13.6953 11.6709 13.6953 12.3913H9.78223C9.78223 13.1117 10.4097 13.6956 11.13 13.6956H11.0866C11.0866 14.416 11.6705 15 12.3909 15C12.3909 15.7204 12.9749 16.3043 13.6953 16.3043H16.304C17.0244 16.3043 17.6084 15.7204 17.6084 15C18.3288 15 18.9127 14.416 18.9127 13.6956H18.8692C19.5896 13.6956 20.2171 13.1117 20.2171 12.3913Z" fill="#FF9811"/>
</g>
<rect x="0.5" y="0.5" width="29" height="29" rx="14.5" stroke="#D7D7D7"/>
<defs>
<clipPath id="clip0_5568_213313">
<rect width="30" height="30" rx="15" fill="white"/>
</clipPath>
</defs>
</svg>
