<svg width="30" height="30" viewBox="0 0 30 30" fill="none" xmlns="http://www.w3.org/2000/svg">
<g clip-path="url(#clip0_5568_213320)">
<path d="M15 30C23.2843 30 30 23.2843 30 15C30 6.71573 23.2843 0 15 0C6.71573 0 0 6.71573 0 15C0 23.2843 6.71573 30 15 30Z" fill="#338AF3"/>
<path d="M14.9998 6.52173L15.6472 8.51462H17.7428L16.0476 9.74632L16.695 11.7392L14.9998 10.5075L13.3045 11.7392L13.9521 9.74632L12.2568 8.51462H14.3523L14.9998 6.52173Z" fill="#F0F0F0"/>
<path d="M6.52148 15.0001L8.51437 14.3525V12.257L9.74607 13.9523L11.7389 13.3048L10.5073 15.0001L11.7389 16.6952L9.74607 16.0476L8.51437 17.7429V15.6475L6.52148 15.0001Z" fill="#F0F0F0"/>
<path d="M14.9999 23.4783L14.3524 21.4854H12.2568L13.9522 20.2537L13.3047 18.2609L14.9999 19.4925L16.6951 18.2609L16.0475 20.2537L17.7428 21.4854H15.6474L14.9999 23.4783Z" fill="#F0F0F0"/>
<path d="M23.4782 14.9999L21.4853 15.6474V17.7429L20.2536 16.0476L18.2607 16.6951L19.4924 14.9999L18.2607 13.3047L20.2536 13.9523L21.4853 12.257V14.3524L23.4782 14.9999Z" fill="#F0F0F0"/>
</g>
<rect x="0.5" y="0.5" width="29" height="29" rx="14.5" stroke="#D7D7D7"/>
<defs>
<clipPath id="clip0_5568_213320">
<rect width="30" height="30" rx="15" fill="white"/>
</clipPath>
</defs>
</svg>
