<svg width="30" height="30" viewBox="0 0 30 30" fill="none" xmlns="http://www.w3.org/2000/svg">
<rect width="30" height="30" rx="2" fill="white"/>
<path d="M10.5556 15H19.4444M10.3333 25H19.6667C21.5335 25 22.4669 25 23.18 24.6367C23.8072 24.3171 24.3171 23.8072 24.6367 23.18C25 22.4669 25 21.5335 25 19.6667V10.3333C25 8.46649 25 7.53307 24.6367 6.82003C24.3171 6.19282 23.8072 5.68289 23.18 5.36331C22.4669 5 21.5335 5 19.6667 5H10.3333C8.46649 5 7.53307 5 6.82003 5.36331C6.19282 5.68289 5.68289 6.19282 5.36331 6.82003C5 7.53307 5 8.46649 5 10.3333V19.6667C5 21.5335 5 22.4669 5.36331 23.18C5.68289 23.8072 6.19282 24.3171 6.82003 24.6367C7.53307 25 8.46649 25 10.3333 25Z" stroke="#5F5C5C" stroke-width="1.5" stroke-linecap="round" stroke-linejoin="round"/>
</svg>
