<svg width="30" height="31" viewBox="0 0 30 31" fill="none" xmlns="http://www.w3.org/2000/svg">
<g clip-path="url(#clip0_5568_213327)">
<path d="M21.5216 1.54602C19.5496 0.592461 17.3372 0.0576172 14.9999 0.0576172C12.6626 0.0576172 10.4502 0.592461 8.47818 1.54602L7.17383 15.0576L8.47818 28.5692C10.4502 29.5228 12.6626 30.0576 14.9999 30.0576C17.3372 30.0576 19.5496 29.5228 21.5216 28.5692L22.826 15.0576L21.5216 1.54602Z" fill="#FFDA44"/>
<path d="M8.47828 1.54651C3.4609 3.9727 0 9.11073 0 15.0576C0 21.0044 3.4609 26.1425 8.47828 28.5687V1.54651Z" fill="#0052B4"/>
<path d="M21.5215 1.54651V28.5687C26.5389 26.1425 29.9998 21.0044 29.9998 15.0576C29.9998 9.11073 26.5389 3.9727 21.5215 1.54651Z" fill="#D80027"/>
<path d="M20.217 11.8594H16.63C16.63 10.959 15.9001 10.229 14.9996 10.229C14.0991 10.229 13.3692 10.959 13.3692 11.8594H9.78223C9.78223 12.746 10.5546 13.4647 11.441 13.4647H11.3876C11.3876 14.3513 12.1063 15.0701 12.9929 15.0701C12.9929 15.8551 13.5567 16.5073 14.3013 16.6468L13.0363 19.5028C13.6424 19.7491 14.3049 19.8861 14.9996 19.8861C15.6942 19.8861 16.3567 19.7491 16.9628 19.5028L15.6979 16.6468C16.4425 16.5073 17.0063 15.8551 17.0063 15.0701C17.8929 15.0701 18.6116 14.3513 18.6116 13.4647H18.5581C19.4447 13.4647 20.217 12.746 20.217 11.8594V11.8594Z" fill="#FF9811"/>
<path d="M15.0004 14.0793L12.8809 15.0576V17.0141L15.0004 18.3185L17.12 17.0141V15.0576L15.0004 14.0793Z" fill="#0052B4"/>
<path d="M12.8809 13.1011H17.12V15.0576H12.8809V13.1011Z" fill="#D80027"/>
</g>
<rect x="0.5" y="0.557617" width="29" height="29" rx="14.5" stroke="#D7D7D7"/>
<defs>
<clipPath id="clip0_5568_213327">
<rect y="0.0576172" width="30" height="30" rx="15" fill="white"/>
</clipPath>
</defs>
</svg>
