<svg width="30" height="31" viewBox="0 0 30 31" fill="none" xmlns="http://www.w3.org/2000/svg">
<g clip-path="url(#clip0_5568_213337)">
<path d="M15.0004 30.0469C16.8352 30.0469 18.5929 29.7169 20.2178 29.1139L20.87 15.0469L20.2179 0.979863C18.5929 0.376934 16.8352 0.046875 15.0004 0.046875C13.1656 0.046875 11.408 0.376934 9.78307 0.979863L9.13086 15.0469L9.78301 29.1139C11.408 29.7169 13.1656 30.0469 15.0004 30.0469Z" fill="#0052B4"/>
<path d="M0 15.0469C0 21.4963 4.07063 26.9945 9.78264 29.1139V0.979858C4.07063 3.09925 0 8.5974 0 15.0469Z" fill="#A2001D"/>
<path d="M20.2178 0.979858V29.1139C25.9298 26.9945 30.0004 21.4963 30.0004 15.0469C30.0004 8.5974 25.9298 3.09925 20.2178 0.979858V0.979858Z" fill="#A2001D"/>
<path d="M7.17383 15.0469H8.47818V20.2642H7.17383V15.0469Z" fill="#FFDA44"/>
<path d="M1.95605 15.0469H3.26041V20.2642H1.95605V15.0469Z" fill="#FFDA44"/>
<path d="M5.21646 18.3077C5.93684 18.3077 6.52082 17.7237 6.52082 17.0033C6.52082 16.283 5.93684 15.699 5.21646 15.699C4.49609 15.699 3.91211 16.283 3.91211 17.0033C3.91211 17.7237 4.49609 18.3077 5.21646 18.3077Z" fill="#FFDA44"/>
<path d="M5.2166 13.0903C5.57677 13.0903 5.86875 12.7983 5.86875 12.4382C5.86875 12.078 5.57677 11.786 5.2166 11.786C4.85643 11.786 4.56445 12.078 4.56445 12.4382C4.56445 12.7983 4.85643 13.0903 5.2166 13.0903Z" fill="#FFDA44"/>
<path d="M3.91309 18.96H6.5218V20.2643H3.91309V18.96Z" fill="#FFDA44"/>
<path d="M3.91309 13.7424H6.5218V15.0468H3.91309V13.7424Z" fill="#FFDA44"/>
<path d="M5.21725 7.87292L5.6792 9.29441H7.17381L5.96473 10.173L6.42633 11.5944L5.21725 10.7159L4.00822 11.5944L4.46982 10.173L3.26074 9.29441H4.75535L5.21725 7.87292Z" fill="#FFDA44"/>
</g>
<rect x="0.5" y="0.546875" width="29" height="29" rx="14.5" stroke="#D7D7D7"/>
<defs>
<clipPath id="clip0_5568_213337">
<rect y="0.046875" width="30" height="30" rx="15" fill="white"/>
</clipPath>
</defs>
</svg>
