<svg width="30" height="31" viewBox="0 0 30 31" fill="none" xmlns="http://www.w3.org/2000/svg">
<g clip-path="url(#clip0_5568_213350)">
<path d="M15 30.0576C23.2843 30.0576 30 23.3419 30 15.0576C30 6.77335 23.2843 0.0576172 15 0.0576172C6.71573 0.0576172 0 6.77335 0 15.0576C0 23.3419 6.71573 30.0576 15 30.0576Z" fill="#FFDA44"/>
<path d="M30 15.0577C30 9.90957 27.4061 5.36773 23.4543 2.66638H6.54568C2.59395 5.36773 0 9.90957 0 15.0577C0 20.2059 2.59395 24.7476 6.54568 27.449H23.4543C27.4061 24.7476 30 20.2059 30 15.0577Z" fill="#A2001D"/>
<path d="M11.7383 11.1446H18.26V8.53592L16.9556 9.18807L14.9991 7.23157L13.0426 9.18807L11.7383 8.53592V11.1446Z" fill="#FFDA44"/>
<path d="M20.8691 15.0577H17.6095C17.7374 14.8365 17.8117 14.5807 17.8117 14.3069C17.8117 13.4756 17.1378 12.8019 16.3066 12.8019C15.7323 12.8019 15.2336 13.1237 14.9798 13.5965C14.7261 13.1236 14.2273 12.8019 13.653 12.8019C12.8219 12.8019 12.148 13.4756 12.148 14.3069C12.148 14.5807 12.2224 14.8366 12.3501 15.0577H9.12988C9.12988 16.0551 9.99865 16.8637 10.996 16.8637H10.9359C10.9359 17.6818 11.4801 18.3726 12.2262 18.5945L10.7603 20.0605L12.1438 21.4439L14.1062 19.4814C14.1831 19.5096 14.2626 19.5321 14.3448 19.5476L13.159 22.225C13.7273 22.4561 14.3483 22.5844 14.9996 22.5844C15.6508 22.5844 16.2718 22.4561 16.8401 22.225L15.6543 19.5476C15.7364 19.5322 15.816 19.5096 15.8928 19.4814L17.8553 21.4439L19.2387 20.0605L17.7728 18.5946C18.5188 18.3726 19.063 17.6819 19.063 16.8637H19.0028C20.0003 16.8637 20.8691 16.0551 20.8691 15.0577V15.0577Z" fill="#FFDA44"/>
<path d="M15.0004 16.0359L12.8809 17.0141V18.9707L15.0004 20.275L17.12 18.9707V17.0141L15.0004 16.0359Z" fill="#6DA544"/>
<path d="M12.8809 15.0576H17.12V17.6663H12.8809V15.0576Z" fill="#0052B4"/>
</g>
<rect x="0.5" y="0.557617" width="29" height="29" rx="14.5" stroke="#D7D7D7"/>
<defs>
<clipPath id="clip0_5568_213350">
<rect y="0.0576172" width="30" height="30" rx="15" fill="white"/>
</clipPath>
</defs>
</svg>
