<svg width="30" height="31" viewBox="0 0 30 31" fill="none" xmlns="http://www.w3.org/2000/svg">
<g clip-path="url(#clip0_5568_213358)">
<path d="M30 15.0586C30 23.3428 23.2842 30.0586 15 30.0586C6.71578 30.0586 0 23.3428 0 15.0586C0 15.0622 15 0.0602344 15 0.0585938C23.2842 0.0585938 30 6.77437 30 15.0586Z" fill="#0052B4"/>
<path d="M14.96 15.0586H15.0001C15.0001 15.0451 15.0001 15.032 15.0001 15.0184C14.9867 15.0319 14.9734 15.0452 14.96 15.0586Z" fill="#F0F0F0"/>
<path d="M15 7.88467C15 5.24531 15 3.51592 15 0.0585938H14.9975C6.71432 0.06 0 6.77514 0 15.0586H7.82607V10.6517L12.233 15.0586H14.9599C14.9733 15.0452 14.9866 15.0319 15.0001 15.0185C15.0001 14.0079 15.0001 13.1062 15.0001 12.2917L10.593 7.88467H15Z" fill="#F0F0F0"/>
<path d="M7.58832 2.01514C5.24229 3.35102 3.29188 5.30137 1.95605 7.6474V15.0586H5.86912V5.92832V5.9282H14.9996C14.9996 4.69404 14.9996 3.5183 14.9996 2.01514H7.58832Z" fill="#D80027"/>
<path d="M14.9991 13.214L9.66973 7.88477H7.8252V7.88488L14.999 15.0586H14.9991C14.9991 15.0586 14.9991 13.7867 14.9991 13.214V13.214Z" fill="#D80027"/>
<path d="M16.9561 7.88464V15.0585C16.9561 18.553 21.5213 19.6238 21.5213 19.6238C21.5213 19.6238 26.0865 18.553 26.0865 15.0585V7.88464H16.9561Z" fill="#338AF3"/>
<path d="M16.9561 15.0586C16.9561 18.5531 21.5213 19.6239 21.5213 19.6239C21.5213 19.6239 26.0865 18.5531 26.0865 15.0586H16.9561Z" fill="#A2001D"/>
<path d="M23.4785 11.1456H22.1741V9.84119H20.8697V11.1456H19.5654V12.4499H20.8697V16.3629H22.1741V12.4499H23.4785V11.1456Z" fill="black"/>
</g>
<rect x="0.5" y="0.558594" width="29" height="29" rx="14.5" stroke="#D7D7D7"/>
<defs>
<clipPath id="clip0_5568_213358">
<rect y="0.0585938" width="30" height="30" rx="15" fill="white"/>
</clipPath>
</defs>
</svg>
