<svg width="30" height="30" viewBox="0 0 30 30" fill="none" xmlns="http://www.w3.org/2000/svg">
<g clip-path="url(#clip0_5568_213370)">
<path d="M15 30C23.2843 30 30 23.2843 30 15C30 6.71573 23.2843 0 15 0C6.71573 0 0 6.71573 0 15C0 23.2843 6.71573 30 15 30Z" fill="#D80027"/>
<path d="M23.8648 12.31H17.0929L15.0003 5.86963L12.9077 12.31H6.13574L11.6143 16.2904L9.52164 22.731L15.0003 18.7505L20.4789 22.731L18.3862 16.2905L23.8648 12.31ZM13.1477 15.7922L13.8553 13.6143H16.1452L16.8529 15.7922V15.7922L15.0003 17.1382L13.1477 15.7922L13.1477 15.7922ZM15.7214 12.31H14.2792L15.0003 10.0905L15.7214 12.31ZM17.9624 14.9861L17.5166 13.6144H19.8504L17.9624 14.9861ZM12.4838 13.6144L12.0381 14.9861L10.1501 13.6144H12.4838ZM12.0027 19.3161L12.7238 17.0967L13.8907 17.9444L12.0027 19.3161ZM16.1098 17.9445L17.2767 17.0967L17.9979 19.3162L16.1098 17.9445Z" fill="#FFDA44"/>
</g>
<rect x="0.5" y="0.5" width="29" height="29" rx="14.5" stroke="#D7D7D7"/>
<defs>
<clipPath id="clip0_5568_213370">
<rect width="30" height="30" rx="15" fill="white"/>
</clipPath>
</defs>
</svg>
