<svg width="30" height="30" viewBox="0 0 30 30" fill="none" xmlns="http://www.w3.org/2000/svg">
<g clip-path="url(#clip0_5568_213373)">
<path d="M15 30C23.2843 30 30 23.2843 30 15C30 6.71573 23.2843 0 15 0C6.71573 0 0 6.71573 0 15C0 23.2843 6.71573 30 15 30Z" fill="#F0F0F0"/>
<path d="M8.10734 20.8696L4.39355 25.6062C7.10785 28.3208 10.8574 30.0001 14.9997 30.0001C21.2006 30.0001 26.5218 26.2366 28.8062 20.8696H8.10734Z" fill="#FFDA44"/>
<path d="M28.8295 9.18475C26.5579 3.78879 21.2216 0 14.9997 0C10.8574 0 7.10785 1.67924 4.39355 4.39389L8.15 9.18475H28.8295Z" fill="#496E2D"/>
<path d="M3.26074 11.0326V18.913H29.4832C29.8196 17.6655 29.9999 16.3539 29.9999 15C29.9999 13.6264 29.8148 12.2963 29.469 11.0326H3.26074Z" fill="black"/>
<path d="M4.39339 4.39331C-1.46446 10.2512 -1.46446 19.7487 4.39339 25.6066C6.81407 23.1859 9.14218 20.8578 15 15L4.39339 4.39331Z" fill="#A2001D"/>
<path d="M6.07045 11.0869L7.04164 14.0761H10.185L7.64211 15.9237L8.61324 18.913L6.07045 17.0655L3.52754 18.913L4.49891 15.9237L1.95605 14.0761H5.09914L6.07045 11.0869Z" fill="#FFDA44"/>
<path d="M3.22852 15H8.91352V17.6087H3.22852V15Z" fill="#F0F0F0"/>
<path d="M9.98992 12.0093L9.0676 11.0869L6.07064 14.0839L3.07369 11.0869L2.15137 12.0093L5.15096 15.0036L2.15137 18.0032L3.07369 18.913L6.07064 15.9215L9.0676 18.913L9.98992 18.0032L6.99033 15.0036L9.98992 12.0093Z" fill="black"/>
</g>
<rect x="0.5" y="0.5" width="29" height="29" rx="14.5" stroke="#D7D7D7"/>
<defs>
<clipPath id="clip0_5568_213373">
<rect width="30" height="30" rx="15" fill="white"/>
</clipPath>
</defs>
</svg>
