<svg width="30" height="30" viewBox="0 0 30 30" fill="none" xmlns="http://www.w3.org/2000/svg">
<g clip-path="url(#clip0_5568_213382)">
<path d="M29.067 20.2174C29.67 18.5924 30 16.8348 30 15C30 13.1652 29.67 11.4075 29.067 9.78263L15 8.47827L0.932988 9.78263C0.330059 11.4075 0 13.1652 0 15C0 16.8348 0.330059 18.5924 0.932988 20.2174L15 21.5217L29.067 20.2174Z" fill="#6DA544"/>
<path d="M29.0666 9.78264C26.9472 4.07063 21.4491 0 14.9996 0C8.55016 0 3.05201 4.07063 0.932617 9.78264H29.0666Z" fill="#FFDA44"/>
<path d="M14.9996 29.9999C21.4491 29.9999 26.9472 25.9293 29.0666 20.2173H0.932617C3.05201 25.9293 8.55016 29.9999 14.9996 29.9999Z" fill="#D80027"/>
<path d="M25.286 12.6906H17.4282L14.9999 5.21741L12.5717 12.6906H4.71387L11.071 17.3093L8.64275 24.7827L14.9999 20.2174L21.3571 24.7826L18.9289 17.3093L25.286 12.6906Z" fill="#F0F0F0"/>
</g>
<rect x="0.5" y="0.5" width="29" height="29" rx="14.5" stroke="#D7D7D7"/>
<defs>
<clipPath id="clip0_5568_213382">
<rect width="30" height="30" rx="15" fill="white"/>
</clipPath>
</defs>
</svg>
