<svg width="30" height="30" viewBox="0 0 30 30" fill="none" xmlns="http://www.w3.org/2000/svg">
<g clip-path="url(#clip0_5568_213387)">
<path d="M15 30C23.2843 30 30 23.2843 30 15C30 6.71573 23.2843 0 15 0C6.71573 0 0 6.71573 0 15C0 23.2843 6.71573 30 15 30Z" fill="#F0F0F0"/>
<path d="M4.39338 25.6067C5.02262 26.2359 5.69398 26.7971 6.39822 27.2911L27.2909 6.39834C26.7969 5.69411 26.2358 5.02274 25.6065 4.3935C24.9772 3.76426 24.3059 3.20317 23.6016 2.70911L2.70898 23.6019C3.20299 24.306 3.76414 24.9774 4.39338 25.6067V25.6067Z" fill="#A2001D"/>
<path d="M4.39383 4.39332C-0.338438 9.12558 -1.24688 16.2325 1.66658 21.8776L21.878 1.66619C16.233 -1.24727 9.12598 -0.338713 4.39383 4.39332V4.39332Z" fill="#0052B4"/>
<path d="M25.6063 25.6066C30.3384 20.8744 31.2469 13.7674 28.3335 8.12231L8.12207 28.3338C13.7671 31.2472 20.8741 30.3388 25.6063 25.6066Z" fill="#496E2D"/>
<path d="M12.391 8.47825L10.7102 9.26886L11.6052 10.8967L9.7801 10.5476L9.54877 12.3913L8.27752 11.0352L7.00621 12.3913L6.775 10.5476L4.9498 10.8967L5.84482 9.2688L4.16406 8.47825L5.84488 7.68759L4.9498 6.05985L6.77494 6.40895L7.00627 4.56519L8.27752 5.92128L9.54883 4.56519L9.7801 6.40895L11.6052 6.05985L10.7103 7.68765L12.391 8.47825Z" fill="#FFDA44"/>
</g>
<rect x="0.5" y="0.5" width="29" height="29" rx="14.5" stroke="#D7D7D7"/>
<defs>
<clipPath id="clip0_5568_213387">
<rect width="30" height="30" rx="15" fill="white"/>
</clipPath>
</defs>
</svg>
