<svg width="30" height="30" viewBox="0 0 30 30" fill="none" xmlns="http://www.w3.org/2000/svg">
<g clip-path="url(#clip0_5568_213393)">
<path d="M15 30C23.2843 30 30 23.2843 30 15C30 6.71573 23.2843 0 15 0C6.71573 0 0 6.71573 0 15C0 23.2843 6.71573 30 15 30Z" fill="#0052B4"/>
<path d="M21.437 16.0465C21.4922 15.7057 21.5213 15.3562 21.5213 15.0001C21.5213 15.3562 21.4922 15.7057 21.437 16.0465L24.13 15.0001L21.437 13.9536L19.9578 13.3789L17.5546 12.4451L16.6207 10.0419C18.1954 10.558 19.4415 11.8041 19.9577 13.3788L21.4369 13.9536C20.9899 11.194 18.8055 9.00955 16.046 8.5626L14.9996 5.86963L13.9531 8.56266C11.1936 9.00973 9.00918 11.1941 8.56217 13.9536L5.86914 15.0001L8.56223 16.0465C9.00924 18.8061 11.1936 20.9904 13.9531 21.4375L14.9996 24.1305L16.0461 21.4375C18.8055 20.9904 20.99 18.806 21.437 16.0465V16.0465ZM16.5469 13.4528L14.9996 15.0001H20.5288L16.5469 16.5474L14.9996 15.0001V20.5293L13.4522 16.5473L14.9996 15.0001H9.47037L13.4522 13.4528L14.9996 15.0001V9.47086L16.5469 13.4528ZM13.3783 10.0419L12.4445 12.4451L10.0414 13.3789C10.5575 11.8041 11.8036 10.5581 13.3783 10.0419ZM10.0414 16.6213L12.4445 17.5551L13.3783 19.9582C11.8036 19.442 10.5576 18.196 10.0414 16.6213ZM16.6208 19.9582L17.5546 17.5551L19.9577 16.6213C19.4415 18.196 18.1955 19.442 16.6208 19.9582Z" fill="#F0F0F0"/>
<path d="M20.5292 15H15L16.5473 16.5473L20.5292 15Z" fill="#0052B4"/>
<path d="M9.4707 15H14.9999L13.4526 13.4528L9.4707 15Z" fill="#0052B4"/>
<path d="M14.9995 20.5293V15L13.4521 16.5473L14.9995 20.5293Z" fill="#0052B4"/>
<path d="M15 15L16.5473 13.4527L15 9.47083V15Z" fill="#0052B4"/>
<path d="M14.3477 1.95654H15.652V4.56525H14.3477V1.95654Z" fill="#F0F0F0"/>
<path d="M1.95605 14.3479H4.56477V15.6523H1.95605V14.3479Z" fill="#F0F0F0"/>
<path d="M14.3477 25.4348H15.652V28.0435H14.3477V25.4348Z" fill="#F0F0F0"/>
<path d="M25.4346 14.3479H28.0433V15.6523H25.4346V14.3479Z" fill="#F0F0F0"/>
</g>
<rect x="0.5" y="0.5" width="29" height="29" rx="14.5" stroke="#D7D7D7"/>
<defs>
<clipPath id="clip0_5568_213393">
<rect width="30" height="30" rx="15" fill="white"/>
</clipPath>
</defs>
</svg>
