<svg width="30" height="31" viewBox="0 0 30 31" fill="none" xmlns="http://www.w3.org/2000/svg">
<g clip-path="url(#clip0_5568_213406)">
<path d="M15 30.0576C23.2843 30.0576 30 23.3419 30 15.0576C30 6.77335 23.2843 0.0576172 15 0.0576172C6.71573 0.0576172 0 6.77335 0 15.0576C0 23.3419 6.71573 30.0576 15 30.0576Z" fill="#0052B4"/>
<path d="M15 30.0576C23.2843 30.0576 30 23.3419 30 15.0576C30 6.77335 23.2843 0.0576172 15 0.0576172C6.71573 0.0576172 0 6.77335 0 15.0576C0 23.3419 6.71573 30.0576 15 30.0576Z" fill="#FFDA44"/>
<path d="M14.9995 0.0576172C7.15475 0.0576172 0.717754 6.07994 0.0566406 13.7533H29.9424C29.2813 6.07994 22.8443 0.0576172 14.9995 0.0576172V0.0576172Z" fill="#0052B4"/>
<path d="M14.9995 30.0576C22.8443 30.0576 29.2813 24.0353 29.9424 16.3619H0.0566406C0.717754 24.0353 7.15475 30.0576 14.9995 30.0576Z" fill="#0052B4"/>
<path d="M12.391 20.2751L10.7102 21.0657L11.6052 22.6935L9.7801 22.3444L9.54883 24.1881L8.27752 22.8321L7.00627 24.1881L6.775 22.3444L4.9498 22.6935L5.84488 21.0657L4.16406 20.2751L5.84494 19.4845L4.9498 17.8567L6.77494 18.2058L7.00633 16.3621L8.27752 17.7181L9.54889 16.3621L9.7801 18.2058L11.6053 17.8567L10.7103 19.4845L12.391 20.2751Z" fill="#F0F0F0"/>
</g>
<rect x="0.5" y="0.557617" width="29" height="29" rx="14.5" stroke="#D7D7D7"/>
<defs>
<clipPath id="clip0_5568_213406">
<rect y="0.0576172" width="30" height="30" rx="15" fill="white"/>
</clipPath>
</defs>
</svg>
