<svg width="30" height="31" viewBox="0 0 30 31" fill="none" xmlns="http://www.w3.org/2000/svg">
<g clip-path="url(#clip0_5568_213413)">
<path d="M15 30.0576C23.2843 30.0576 30 23.3419 30 15.0576C30 6.77335 23.2843 0.0576172 15 0.0576172C6.71573 0.0576172 0 6.77335 0 15.0576C0 23.3419 6.71573 30.0576 15 30.0576Z" fill="#F0F0F0"/>
<path d="M29.9115 16.6881C29.9115 16.6879 29.9116 16.6878 29.9116 16.6876L13.4617 0.13562C12.7196 0.211265 11.9934 0.340991 11.2873 0.520815C4.79871 2.17287 0 15.0576 0 15.0576C0 15.0576 20.9999 29.1105 23.3956 27.4891C23.875 27.1647 24.3346 26.8134 24.7721 26.4372L15.0231 16.6881H29.9115Z" fill="#0052B4"/>
<path d="M26.0869 15.0576L11.4987 0.469482C4.90359 2.04665 0 7.97903 0 15.0576C0 23.3418 6.71578 30.0576 15 30.0576C18.1423 30.0576 21.0584 29.0907 23.4685 27.4391L11.0869 15.0576H26.0869Z" fill="#D80027"/>
<path d="M14.2655 22.2056L12.4336 21.3439L13.4091 19.5698L11.4198 19.9503L11.1678 17.9407L9.78219 19.4187L8.39662 17.9407L8.14449 19.9503L6.15529 19.5697L7.13082 21.3439L5.29883 22.2056L7.13082 23.0672L6.15529 24.8414L8.14461 24.4609L8.39656 26.4705L9.78219 24.9924L11.1678 26.4705L11.4198 24.4609L13.409 24.8415L12.4335 23.0673L14.2655 22.2056Z" fill="#F0F0F0"/>
<path d="M13.0433 8.37686L11.7108 7.7502L12.4204 6.45979L10.9735 6.73658L10.7902 5.2749L9.7824 6.34992L8.77465 5.2749L8.59125 6.73658L7.14439 6.45979L7.85396 7.7502L6.52148 8.37686L9.7824 9.02912L13.0433 8.37686Z" fill="#F0F0F0"/>
<path d="M13.6953 8.37683C13.6953 10.5379 11.9433 12.2899 9.78221 12.2899C7.62109 12.2899 5.86914 10.5379 5.86914 8.37683" fill="#F0F0F0"/>
</g>
<rect x="0.5" y="0.557617" width="29" height="29" rx="14.5" stroke="#D7D7D7"/>
<defs>
<clipPath id="clip0_5568_213413">
<rect y="0.0576172" width="30" height="30" rx="15" fill="white"/>
</clipPath>
</defs>
</svg>
