<svg width="30" height="31" viewBox="0 0 30 31" fill="none" xmlns="http://www.w3.org/2000/svg">
<g clip-path="url(#clip0_5568_213423)">
<path d="M15 30.0469C23.2843 30.0469 30 23.3311 30 15.0469C30 6.7626 23.2843 0.046875 15 0.046875C6.71573 0.046875 0 6.7626 0 15.0469C0 23.3311 6.71573 30.0469 15 30.0469Z" fill="#F0F0F0"/>
<path d="M14.9996 0.046875C8.55016 0.046875 3.05201 4.1175 0.932617 9.82951H29.0667C26.9472 4.1175 21.4491 0.046875 14.9996 0.046875V0.046875Z" fill="#A2001D"/>
<path d="M14.9996 30.0468C21.4491 30.0468 26.9472 25.9762 29.0666 20.2642H0.932617C3.05201 25.9762 8.55016 30.0468 14.9996 30.0468Z" fill="#0052B4"/>
</g>
<rect x="0.5" y="0.546875" width="29" height="29" rx="14.5" stroke="#D7D7D7"/>
<defs>
<clipPath id="clip0_5568_213423">
<rect y="0.046875" width="30" height="30" rx="15" fill="white"/>
</clipPath>
</defs>
</svg>
