<svg width="30" height="31" viewBox="0 0 30 31" fill="none" xmlns="http://www.w3.org/2000/svg">
<g clip-path="url(#clip0_5568_213427)">
<path d="M30 15.0576C30 23.3418 23.2842 30.0576 15 30.0576C6.71578 30.0576 0 23.3418 0 15.0576C0 15.0612 15 0.0592578 15 0.0576172C23.2842 0.0576172 30 6.7734 30 15.0576Z" fill="#0052B4"/>
<path d="M14.96 15.0576H15.0001C15.0001 15.0441 15.0001 15.031 15.0001 15.0175C14.9867 15.0309 14.9734 15.0442 14.96 15.0576Z" fill="#F0F0F0"/>
<path d="M15 7.88369C15 5.24434 15 3.51494 15 0.0576172H14.9975C6.71437 0.0590234 0 6.77416 0 15.0576H7.82607V10.6507L12.233 15.0576H14.9599C14.9733 15.0443 14.9867 15.0309 15.0001 15.0175C15.0001 14.0069 15.0001 13.1052 15.0001 12.2907L10.593 7.88369H15Z" fill="#F0F0F0"/>
<path d="M7.58832 2.01416C5.24229 3.35004 3.29193 5.30039 1.95605 7.64643V15.0577H5.86912V5.92734V5.92723H14.9996C14.9996 4.69307 14.9996 3.51732 14.9996 2.01416H7.58832Z" fill="#D80027"/>
<path d="M14.9991 13.2131L9.66979 7.88379C9.66979 7.88379 7.8252 7.88391 7.8252 7.88379V7.88391L14.999 15.0577H14.9991C14.9991 15.0577 14.9991 13.7858 14.9991 13.2131Z" fill="#D80027"/>
<path d="M25.9761 11.1881L26.2998 12.1846H27.3475L26.4999 12.8004L26.8237 13.7968L25.9761 13.181L25.1284 13.7968L25.4522 12.8004L24.6045 12.1846H25.6522L25.9761 11.1881Z" fill="#D80027"/>
<path d="M22.2311 18.3619L22.7167 19.8567H24.2883L23.0168 20.7803L23.5025 22.275L22.2311 21.3513L20.9596 22.275L21.4453 20.7803L20.1738 19.8567H21.7454L22.2311 18.3619Z" fill="#D80027"/>
<path d="M22.3725 6.6228L22.7772 7.86845H24.0869L23.0273 8.63808L23.432 9.88366L22.3725 9.1138L21.313 9.88366L21.7177 8.63808L20.6582 7.86845H21.9678L22.3725 6.6228Z" fill="#D80027"/>
<path d="M18.7682 11.1445L19.2538 12.6393H20.8254L19.5539 13.5629L20.0396 15.0576L18.7682 14.1339L17.4967 15.0576L17.9824 13.5629L16.7109 12.6393H18.2825L18.7682 11.1445Z" fill="#D80027"/>
</g>
<rect x="0.5" y="0.557617" width="29" height="29" rx="14.5" stroke="#D7D7D7"/>
<defs>
<clipPath id="clip0_5568_213427">
<rect y="0.0576172" width="30" height="30" rx="15" fill="white"/>
</clipPath>
</defs>
</svg>
