<svg width="30" height="31" viewBox="0 0 30 31" fill="none" xmlns="http://www.w3.org/2000/svg">
<g clip-path="url(#clip0_5568_213440)">
<path d="M15 30.0586C23.2843 30.0586 30 23.3429 30 15.0586C30 6.77432 23.2843 0.0585938 15 0.0585938C6.71573 0.0585938 0 6.77432 0 15.0586C0 23.3429 6.71573 30.0586 15 30.0586Z" fill="#F0F0F0"/>
<path d="M14.9999 0.0585938C9.05297 0.0585938 3.91453 3.51943 1.48828 8.53687H28.5114C26.0852 3.51943 20.9467 0.0585938 14.9999 0.0585938V0.0585938Z" fill="#338AF3"/>
<path d="M14.9999 30.0586C20.9467 30.0586 26.0852 26.5978 28.5115 21.5803H1.48828C3.91453 26.5978 9.05297 30.0586 14.9999 30.0586Z" fill="#338AF3"/>
<path d="M14.9998 10.4934C12.4785 10.4934 10.4346 12.5373 10.4346 15.0586C10.4346 17.5799 12.4785 19.6238 14.9998 19.6238C17.5211 19.6238 19.565 17.5799 19.565 15.0586C19.565 12.5373 17.5211 10.4934 14.9998 10.4934ZM14.9998 17.6673C13.5591 17.6673 12.3911 16.4994 12.3911 15.0586C12.3911 13.6178 13.559 12.4499 14.9998 12.4499C16.4405 12.4499 17.6085 13.6178 17.6085 15.0586C17.6085 16.4994 16.4405 17.6673 14.9998 17.6673Z" fill="#FFDA44"/>
<path d="M17.2589 15.7107L14.9996 15.0586L12.7404 15.7107L11.9873 17.0151H18.0119L17.2589 15.7107Z" fill="#0052B4"/>
<path d="M15.0003 11.7977L13.4941 14.4064L15.0003 15.0586L16.5064 14.4064L15.0003 11.7977Z" fill="#338AF3"/>
<path d="M12.7412 15.7108H17.2597L16.5066 14.4065H13.4943L12.7412 15.7108Z" fill="#6DA544"/>
</g>
<rect x="0.5" y="0.558594" width="29" height="29" rx="14.5" stroke="#D7D7D7"/>
<defs>
<clipPath id="clip0_5568_213440">
<rect y="0.0585938" width="30" height="30" rx="15" fill="white"/>
</clipPath>
</defs>
</svg>
