<svg width="30" height="30" viewBox="0 0 30 30" fill="none" xmlns="http://www.w3.org/2000/svg">
<g clip-path="url(#clip0_5568_213449)">
<path d="M1.4884 8.47831C0.534844 10.4503 0 12.6627 0 15C0 17.3374 0.534844 19.5497 1.4884 21.5217L15 22.8261L28.5116 21.5217C29.4652 19.5497 30 17.3374 30 15C30 12.6627 29.4652 10.4503 28.5116 8.47831L15 7.17395L1.4884 8.47831Z" fill="#F0F0F0"/>
<path d="M1.48926 21.5217C3.91539 26.5392 9.05342 30 15.0003 30C20.9472 30 26.0853 26.5392 28.5114 21.5217H1.48926Z" fill="#6DA544"/>
<path d="M1.48926 8.47828H28.5114C26.0853 3.46084 20.9472 0 15.0003 0C9.05348 0 3.91539 3.46084 1.48926 8.47828Z" fill="#FF9811"/>
<path d="M15.0006 20.2173C17.882 20.2173 20.2179 17.8814 20.2179 15C20.2179 12.1185 17.882 9.78259 15.0006 9.78259C12.1191 9.78259 9.7832 12.1185 9.7832 15C9.7832 17.8814 12.1191 20.2173 15.0006 20.2173Z" fill="#FF9811"/>
</g>
<rect x="0.5" y="0.5" width="29" height="29" rx="14.5" stroke="#D7D7D7"/>
<defs>
<clipPath id="clip0_5568_213449">
<rect width="30" height="30" rx="15" fill="white"/>
</clipPath>
</defs>
</svg>
