<svg width="30" height="30" viewBox="0 0 30 30" fill="none" xmlns="http://www.w3.org/2000/svg">
<g clip-path="url(#clip0_5568_213460)">
<path d="M30 15C30 23.2842 23.2842 30 15 30C6.71578 30 0 23.2842 0 15C0 15.0036 15 0.00164063 15 0C23.2842 0 30 6.71578 30 15Z" fill="#FFDA44"/>
<path d="M14.9996 7.17395V12.2331L9.78223 7.17395H14.9996Z" fill="#0052B4"/>
<path d="M7.82598 15.0001H12.2329L7.82598 9.13049L7.17383 13.6957L7.82598 15.0001Z" fill="#0052B4"/>
<path d="M14.96 15H15.0001C15.0001 14.9865 15.0001 14.9734 15.0001 14.9598C14.9867 14.9733 14.9734 14.9866 14.96 15Z" fill="#F0F0F0"/>
<path d="M15 7.82607C15 5.18672 15 3.45732 15 0H14.9975C6.71432 0.00140625 0 6.71654 0 15H7.82607V10.5931L12.233 15H14.9599C14.9733 14.9866 14.9866 14.9733 15.0001 14.9599C15.0001 13.9493 15.0001 13.0476 15.0001 12.2331L10.593 7.82607H15Z" fill="#F0F0F0"/>
<path d="M14.9991 13.1554L9.66973 7.82617H7.8252V7.82629L14.999 15H14.9991C14.9991 15 14.9991 13.7281 14.9991 13.1554V13.1554Z" fill="#D80027"/>
<path d="M7.58832 1.95654C7.01006 2.28584 6.45605 2.65281 5.92918 3.05342H6.54465L4.91797 4.23549L5.53918 6.14781L3.9125 4.96598L3.73941 5.09178C3.064 5.85877 2.46518 6.69479 1.95605 7.58881V15H5.86912V5.86973V5.86961H14.9996C14.9996 4.63545 14.9996 3.45971 14.9996 1.95654H7.58832Z" fill="#D80027"/>
<path d="M6.40775 2.70422C6.24598 2.81749 6.08648 2.93391 5.92939 3.05338L4.91836 4.23545L3.91289 4.96588L3.73834 5.09268C3.37002 5.51104 3.02461 5.95002 2.7041 6.40782C3.06943 6.58512 3.47953 6.68479 3.91289 6.68479C5.44371 6.68479 6.68461 5.44389 6.68461 3.91307C6.68473 3.47959 6.58512 3.06961 6.40775 2.70422V2.70422Z" fill="#0052B4"/>
<path d="M3.73926 5.09252L3.91381 4.96572L5.54049 6.14762L4.91922 4.23529L6.54578 3.05322H5.9302C5.13367 3.65902 4.39967 4.34246 3.73926 5.09252V5.09252Z" fill="#FFDA44"/>
<path d="M10.3677 2.60864L10.6914 3.60503H11.7391L10.8915 4.22091L11.2152 5.21729L10.3677 4.60147L9.5201 5.21729L9.84365 4.22091L8.99609 3.60503H10.0438L10.3677 2.60864Z" fill="#FFDA44"/>
<path d="M3.9135 9.13037L4.23729 10.1268H5.28494L4.43744 10.7427L4.76105 11.7391L3.9135 11.1232L3.06588 11.7391L3.38949 10.7427L2.54199 10.1268H3.58965L3.9135 9.13037Z" fill="#FFDA44"/>
</g>
<rect x="0.5" y="0.5" width="29" height="29" rx="14.5" stroke="#D7D7D7"/>
<defs>
<clipPath id="clip0_5568_213460">
<rect width="30" height="30" rx="15" fill="white"/>
</clipPath>
</defs>
</svg>
