<svg width="30" height="30" viewBox="0 0 30 30" fill="none" xmlns="http://www.w3.org/2000/svg">
<g clip-path="url(#clip0_5568_213477)">
<path d="M21.5216 1.4884C19.5496 0.534844 17.3373 0 14.9999 0C12.6625 0 10.4502 0.534844 8.47818 1.4884L7.17383 15L8.47818 28.5116C10.4502 29.4652 12.6625 30 14.9999 30C17.3373 30 19.5496 29.4652 21.5216 28.5116L22.826 15L21.5216 1.4884Z" fill="#F0F0F0"/>
<path d="M8.47828 1.48889C3.46084 3.91502 0 9.05305 0 15C0 20.9469 3.46084 26.0849 8.47828 28.511V1.48889Z" fill="#6DA544"/>
<path d="M21.5215 1.48889V28.511C26.5389 26.0849 29.9998 20.9468 29.9998 15C29.9998 9.05311 26.5389 3.91502 21.5215 1.48889Z" fill="#6DA544"/>
<path d="M18.913 19.5652L15 7.17395L11.0869 19.5652H14.0217V22.8261H15.9783V19.5652H18.913Z" fill="#6DA544"/>
</g>
<rect x="0.5" y="0.5" width="29" height="29" rx="14.5" stroke="#D7D7D7"/>
<defs>
<clipPath id="clip0_5568_213477">
<rect width="30" height="30" rx="15" fill="white"/>
</clipPath>
</defs>
</svg>
