<svg width="30" height="31" viewBox="0 0 30 31" fill="none" xmlns="http://www.w3.org/2000/svg">
<g clip-path="url(#clip0_5568_213498)">
<path d="M15 30.0576C23.2843 30.0576 30 23.3419 30 15.0576C30 6.77335 23.2843 0.0576172 15 0.0576172C6.71573 0.0576172 0 6.77335 0 15.0576C0 23.3419 6.71573 30.0576 15 30.0576Z" fill="#338AF3"/>
<path d="M14.5272 24.5023C14.1228 24.4828 13.7883 24.22 13.6572 23.8632C13.4257 24.1651 13.0278 24.3171 12.6359 24.216C12.2433 24.115 11.9688 23.7902 11.912 23.4132C11.6237 23.6623 11.2037 23.7301 10.8405 23.5521C10.4766 23.3734 10.2731 22.9996 10.294 22.6194C9.96204 22.8059 9.53683 22.7877 9.21662 22.5398C8.89705 22.292 8.77248 21.8857 8.86898 21.5172C8.50634 21.6333 8.09419 21.5303 7.83005 21.2231C7.56591 20.9166 7.52542 20.4933 7.69376 20.1522C7.31548 20.1926 6.93205 20.0087 6.73505 19.6553C6.53742 19.3018 6.58312 18.8786 6.8172 18.5778C6.43828 18.5413 6.09914 18.2836 5.97785 17.8976C5.85591 17.5115 5.98634 17.1059 6.27656 16.8587C5.91263 16.7464 5.63349 16.4255 5.59242 16.0232C5.55134 15.6209 5.76005 15.2511 6.09328 15.0671C5.75999 14.8845 5.54999 14.5148 5.58978 14.113H5.59042C5.63021 13.7099 5.90935 13.3885 6.27257 13.2749C5.98236 13.0284 5.85064 12.6234 5.97128 12.2373C6.09193 11.8506 6.43037 11.5923 6.80935 11.5545C6.57521 11.2545 6.52828 10.8311 6.72456 10.4771C6.92085 10.1236 7.30435 9.93902 7.68328 9.97881C7.51371 9.63773 7.55349 9.21445 7.81699 8.90666C8.07984 8.59951 8.49199 8.4958 8.85527 8.61058C8.75742 8.24273 8.88134 7.8358 9.20091 7.58736C9.51984 7.33881 9.94505 7.31988 10.277 7.50509C10.2555 7.12494 10.4583 6.75117 10.8216 6.57181C11.1842 6.3931 11.6048 6.45967 11.8937 6.70875C11.9491 6.33187 12.2237 6.0058 12.6156 5.90396C13.0069 5.80224 13.4048 5.95289 13.6369 6.25418C13.768 5.89746 14.1019 5.63396 14.5063 5.61375C14.91 5.59295 15.2686 5.81982 15.4356 6.16101C15.6352 5.83752 16.0148 5.6458 16.4146 5.70644C16.815 5.76644 17.1222 6.06117 17.2174 6.42972C17.4783 6.15181 17.8891 6.04166 18.2687 6.18117C18.6489 6.32138 18.8902 6.67224 18.9085 7.0531C19.2196 6.83402 19.6448 6.80853 19.9885 7.02246C20.3322 7.23574 20.4972 7.62767 20.4385 8.00396C20.7874 7.85203 21.2087 7.91267 21.5022 8.19047C21.7957 8.46896 21.8791 8.88568 21.7461 9.2424C22.1185 9.16347 22.519 9.30697 22.7511 9.6389C22.9833 9.97019 22.9813 10.3954 22.7798 10.7183C23.1601 10.7156 23.5233 10.9374 23.6844 11.3085C23.8448 11.6802 23.7568 12.097 23.494 12.3728C23.8677 12.4472 24.1788 12.7374 24.2609 13.1339C24.3424 13.5304 24.1722 13.9198 23.8598 14.137C24.2094 14.2851 24.4559 14.6313 24.4566 15.0357V15.0487V15.0572C24.4566 15.4615 24.2113 15.8085 23.8618 15.9579C24.1748 16.1738 24.3463 16.5631 24.2648 16.9596C24.184 17.3561 23.8735 17.647 23.4998 17.7227C23.7633 17.9979 23.8527 18.414 23.6929 18.7864C23.5331 19.1581 23.1698 19.3805 22.789 19.3785C22.9911 19.7014 22.9944 20.1266 22.7629 20.4585C22.5314 20.7906 22.1316 20.9353 21.7592 20.857C21.8929 21.2131 21.8101 21.6305 21.5173 21.9097C21.2238 22.1882 20.8031 22.2495 20.4542 22.0988C20.5135 22.4745 20.3492 22.8671 20.0061 23.0817C19.6631 23.2962 19.2378 23.2714 18.9261 23.0529C18.9085 23.4338 18.6685 23.7854 18.289 23.9262C17.9095 24.0671 18.289 23.9262 18.2883 23.9262C17.9088 24.0664 17.4979 23.9569 17.2364 23.6798C17.1425 24.0489 16.836 24.3443 16.4355 24.4056C16.0358 24.4663 15.6555 24.2759 15.4553 23.9524C15.2962 24.2804 14.9597 24.5034 14.5762 24.5034C14.5598 24.5037 14.5435 24.503 14.5272 24.5023V24.5023Z" fill="#F3F3F3"/>
<path d="M15.0002 21.5793C18.6021 21.5793 21.522 18.6595 21.522 15.0576C21.522 11.4558 18.6021 8.53589 15.0002 8.53589C11.3984 8.53589 8.47852 11.4558 8.47852 15.0576C8.47852 18.6595 11.3984 21.5793 15.0002 21.5793Z" fill="#338AF3"/>
<path d="M16.4278 12.844C16.7482 12.6063 16.9568 12.2264 16.9568 11.7968V11.1447C16.9568 10.4243 16.3728 9.84033 15.6524 9.84033H14.3481C13.6277 9.84033 13.0437 10.4243 13.0437 11.1447V11.7968C13.0437 12.2264 13.2523 12.6063 13.5727 12.844L12.3916 24.8403C12.3916 24.8403 13.0438 25.4925 15.0003 25.4925C16.9569 25.4925 17.609 24.8403 17.609 24.8403L16.4278 12.844Z" fill="#BDBCC1"/>
<path d="M15.0003 9.84033L16.1334 13.3277H19.8005L16.8339 15.4833L17.9669 18.9708L15.0003 16.8154L12.0336 18.9708L13.1669 15.4833L10.2002 13.3277H13.8672L15.0003 9.84033Z" fill="#F0F0F0"/>
</g>
<rect x="0.5" y="0.557617" width="29" height="29" rx="14.5" stroke="#D7D7D7"/>
<defs>
<clipPath id="clip0_5568_213498">
<rect y="0.0576172" width="30" height="30" rx="15" fill="white"/>
</clipPath>
</defs>
</svg>
