<svg width="30" height="30" viewBox="0 0 30 30" fill="none" xmlns="http://www.w3.org/2000/svg">
<g clip-path="url(#clip0_5568_213483)">
<path d="M15 30C23.2843 30 30 23.2843 30 15C30 6.71573 23.2843 0 15 0C6.71573 0 0 6.71573 0 15C0 23.2843 6.71573 30 15 30Z" fill="#F0F0F0"/>
<path d="M14.9997 0C10.4533 0 6.37971 2.02289 3.62891 5.21736H26.3704C23.6196 2.02289 19.546 0 14.9997 0V0Z" fill="#0052B4"/>
<path d="M26.3704 24.7826H3.62891C6.37971 27.9771 10.4533 30 14.9997 30C19.546 30 23.6196 27.9771 26.3704 24.7826Z" fill="#0052B4"/>
<path d="M27.7984 7.17395H2.2016C0.805371 9.45237 0 12.132 0 15C0 17.868 0.805371 20.5477 2.2016 22.8261H27.7984C29.1946 20.5477 30 17.868 30 15C30 12.132 29.1946 9.45237 27.7984 7.17395Z" fill="#D80027"/>
<path d="M9.22875 20.7717C12.4164 20.7717 15.0005 18.1876 15.0005 15C15.0005 11.8124 12.4164 9.22827 9.22875 9.22827C6.04112 9.22827 3.45703 11.8124 3.45703 15C3.45703 18.1876 6.04112 20.7717 9.22875 20.7717Z" fill="#F0F0F0"/>
<path d="M9.22873 9.22827L10.5237 13.2139H14.7212L11.3242 15.6773L12.6293 19.6748L9.22873 17.1997L5.83334 19.6701L7.1333 15.6773L3.73926 13.2139H7.93369L9.22873 9.22827Z" fill="#D80027"/>
</g>
<rect x="0.5" y="0.5" width="29" height="29" rx="14.5" stroke="#D7D7D7"/>
<defs>
<clipPath id="clip0_5568_213483">
<rect width="30" height="30" rx="15" fill="white"/>
</clipPath>
</defs>
</svg>
