<svg width="30" height="31" viewBox="0 0 30 31" fill="none" xmlns="http://www.w3.org/2000/svg">
<g clip-path="url(#clip0_5568_213491)">
<path d="M15 30.0576C23.2843 30.0576 30 23.3419 30 15.0576C30 6.77335 23.2843 0.0576172 15 0.0576172C6.71573 0.0576172 0 6.77335 0 15.0576C0 23.3419 6.71573 30.0576 15 30.0576Z" fill="#F0F0F0"/>
<path d="M3.62887 5.2749C3.10252 5.88621 2.62469 6.54029 2.20117 7.23141H27.798C27.3745 6.54029 26.8967 5.88615 26.3703 5.2749H3.62887Z" fill="#D80027"/>
<path d="M3.62881 24.8402H26.3703C26.8966 24.2289 27.3745 23.5748 27.798 22.8837H2.20117C2.62463 23.5747 3.10246 24.2289 3.62881 24.8402V24.8402Z" fill="#D80027"/>
<path d="M13.0805 12.3145L14.3112 14.0104L16.3044 13.3642L15.0717 15.0587L16.3023 16.7546L14.3098 16.1059L13.0772 17.8004L13.0784 15.705L11.0859 15.0563L13.0792 14.41L13.0805 12.3145Z" fill="#D80027"/>
<path d="M9.72084 19.2967C7.37967 19.2967 5.4817 17.3987 5.4817 15.0575C5.4817 12.7163 7.37967 10.8184 9.72084 10.8184C10.4508 10.8184 11.1377 11.0029 11.7373 11.3279C10.7966 10.4079 9.51008 9.84009 8.09041 9.84009C5.20889 9.84009 2.87305 12.176 2.87305 15.0575C2.87305 17.9389 5.20895 20.2748 8.09041 20.2748C9.51008 20.2748 10.7966 19.707 11.7373 18.787C11.1377 19.1121 10.4509 19.2967 9.72084 19.2967Z" fill="#D80027"/>
</g>
<rect x="0.5" y="0.557617" width="29" height="29" rx="14.5" stroke="#D7D7D7"/>
<defs>
<clipPath id="clip0_5568_213491">
<rect y="0.0576172" width="30" height="30" rx="15" fill="white"/>
</clipPath>
</defs>
</svg>
