<svg width="30" height="31" viewBox="0 0 30 31" fill="none" xmlns="http://www.w3.org/2000/svg">
<g clip-path="url(#clip0_5568_213504)">
<path d="M15 30.0469C23.2843 30.0469 30 23.3311 30 15.0469C30 6.7626 23.2843 0.046875 15 0.046875C6.71573 0.046875 0 6.7626 0 15.0469C0 23.3311 6.71573 30.0469 15 30.0469Z" fill="#F0F0F0"/>
<path d="M0.516602 18.96C1.38449 22.1802 3.29729 24.9713 5.86943 26.9476V18.96H0.516602Z" fill="#D80027"/>
<path d="M13.6953 29.9898C14.1253 30.0269 14.5601 30.0469 14.9997 30.0469C21.9301 30.0469 27.7617 25.3464 29.4829 18.96H13.6953V29.9898Z" fill="#D80027"/>
<path d="M29.4829 11.1338C27.7617 4.74732 21.9301 0.046875 14.9997 0.046875C14.5601 0.046875 14.1253 0.0669141 13.6953 0.103945V11.1338H29.4829Z" fill="#D80027"/>
<path d="M5.86943 3.14624C3.29729 5.12261 1.38449 7.9136 0.516602 11.1339H5.86943V3.14624Z" fill="#D80027"/>
<path d="M29.873 13.0904H11.7392H11.7391V0.403442C10.3529 0.710825 9.03873 1.20905 7.82607 1.87075V13.0903V13.0903H0.126973C0.0434766 13.7308 0 14.3838 0 15.0469C0 15.71 0.0434766 16.363 0.126973 17.0034H7.82602H7.82607V28.223C9.03873 28.8846 10.3529 29.383 11.7391 29.6903V17.0036V17.0035H29.873C29.9564 16.363 30 15.71 30 15.0469C30 14.3838 29.9564 13.7308 29.873 13.0904V13.0904Z" fill="#0052B4"/>
</g>
<rect x="0.5" y="0.546875" width="29" height="29" rx="14.5" stroke="#D7D7D7"/>
<defs>
<clipPath id="clip0_5568_213504">
<rect y="0.046875" width="30" height="30" rx="15" fill="white"/>
</clipPath>
</defs>
</svg>
