<svg width="30" height="30" viewBox="0 0 30 30" fill="none" xmlns="http://www.w3.org/2000/svg">
<path d="M10.3914 5.46863C10.5643 5.29568 10.6508 5.2092 10.7517 5.14736C10.8412 5.09253 10.9387 5.05213 11.0408 5.02763C11.1559 5 11.2782 5 11.5227 5H18.4773C18.7218 5 18.8441 5 18.9592 5.02763C19.0613 5.05213 19.1588 5.09253 19.2483 5.14736C19.3492 5.2092 19.4357 5.29568 19.6086 5.46863L24.5314 10.3914C24.7043 10.5643 24.7908 10.6508 24.8526 10.7517C24.9075 10.8412 24.9479 10.9387 24.9724 11.0408C25 11.1559 25 11.2782 25 11.5227V18.4773C25 18.7218 25 18.8441 24.9724 18.9592C24.9479 19.0613 24.9075 19.1588 24.8526 19.2483C24.7908 19.3492 24.7043 19.4357 24.5314 19.6086L19.6086 24.5314C19.4357 24.7043 19.3492 24.7908 19.2483 24.8526C19.1588 24.9075 19.0613 24.9479 18.9592 24.9724C18.8441 25 18.7218 25 18.4773 25H11.5227C11.2782 25 11.1559 25 11.0408 24.9724C10.9387 24.9479 10.8412 24.9075 10.7517 24.8526C10.6508 24.7908 10.5643 24.7043 10.3914 24.5314L5.46863 19.6086C5.29568 19.4357 5.2092 19.3492 5.14736 19.2483C5.09253 19.1588 5.05213 19.0613 5.02763 18.9592C5 18.8441 5 18.7218 5 18.4773V11.5227C5 11.2782 5 11.1559 5.02763 11.0408C5.05213 10.9387 5.09253 10.8412 5.14736 10.7517C5.2092 10.6508 5.29568 10.5643 5.46863 10.3914L10.3914 5.46863Z" stroke="#5F5C5C" stroke-width="1.5" stroke-linecap="round" stroke-linejoin="round"/>
</svg>
