<svg width="30" height="31" viewBox="0 0 30 31" fill="none" xmlns="http://www.w3.org/2000/svg">
<g clip-path="url(#clip0_5568_213512)">
<path d="M15 30.0576C23.2843 30.0576 30 23.3419 30 15.0576C30 6.77335 23.2843 0.0576172 15 0.0576172C6.71573 0.0576172 0 6.77335 0 15.0576C0 23.3419 6.71573 30.0576 15 30.0576Z" fill="#F0F0F0"/>
<path d="M0 15.0576C0 20.7433 3.16348 25.6897 7.82607 28.2338V1.88147C3.16348 4.42549 0 9.37198 0 15.0576Z" fill="#D80027"/>
<path d="M29.0671 20.2749C29.67 18.65 30 16.8924 30 15.0576C30 13.2228 29.67 11.4651 29.0671 9.84021H0.933047C0.330059 11.4651 0 13.2228 0 15.0576C0 16.8924 0.330059 18.65 0.933047 20.2749L15 21.5793L29.0671 20.2749Z" fill="#D80027"/>
<path d="M14.9996 30.0575C21.4491 30.0575 26.9472 25.9869 29.0666 20.2749H0.932617C3.05195 25.9869 8.55016 30.0575 14.9996 30.0575V30.0575Z" fill="#6DA544"/>
<path d="M0 15.0576C0 21.988 4.70045 27.8196 11.0869 29.5409V0.574341C4.70045 2.29559 0 8.12719 0 15.0576Z" fill="#D80027"/>
<path d="M9.17699 6.65848L7.79353 5.27502L6.87127 6.19741L5.949 5.27502L4.56555 6.65848L5.48787 7.58081L4.56543 8.50319L5.94889 9.88665L6.87121 8.96426L7.79353 9.88665L9.17699 8.50319L8.25467 7.58081L9.17699 6.65848Z" fill="#F0F0F0"/>
</g>
<rect x="0.5" y="0.557617" width="29" height="29" rx="14.5" stroke="#D7D7D7"/>
<defs>
<clipPath id="clip0_5568_213512">
<rect y="0.0576172" width="30" height="30" rx="15" fill="white"/>
</clipPath>
</defs>
</svg>
