<svg width="30" height="30" viewBox="0 0 30 30" fill="none" xmlns="http://www.w3.org/2000/svg">
<rect width="30" height="30" rx="2" fill="white"/>
<path d="M5.0101 15C5.0101 20.5228 9.53248 25 15.1111 25C17.9368 25 20.4914 23.8514 22.3247 22M5.0101 15L6.52525 17M5.0101 15L4 17M25.2121 15C25.2121 9.47715 20.6897 5 15.1111 5C12.2855 5 9.7308 6.14864 7.89754 8M25.2121 15L23.1919 13M25.2121 15L26.7273 12.5M20.5748 13.618L19.5778 13.4913C19.4956 13.2383 19.3943 12.9944 19.276 12.7627L19.8918 11.9698C20.141 11.649 20.1118 11.1961 19.8271 10.9204L18.9918 10.0852C18.7134 9.79773 18.2605 9.76909 17.9391 10.0178L17.1473 10.6335C16.9156 10.5152 16.6716 10.4139 16.4181 10.3317L16.2914 9.33636C16.2437 8.93705 15.9048 8.63636 15.5033 8.63636H14.3154C13.9139 8.63636 13.5751 8.93705 13.5273 9.33477L13.4006 10.3317C13.1471 10.4139 12.9031 10.5147 12.6714 10.6335L11.8791 10.0178C11.5588 9.76909 11.1059 9.79773 10.8296 10.0825L9.9943 10.9172C9.70687 11.1961 9.6777 11.649 9.92695 11.9704L10.5427 12.7627C10.4239 12.9944 10.3231 13.2383 10.2409 13.4913L9.24548 13.618C8.84615 13.6658 8.54545 14.0046 8.54545 14.4061V15.5939C8.54545 15.9954 8.84615 16.3342 9.24389 16.382L10.2409 16.5087C10.3231 16.7617 10.4244 17.0056 10.5427 17.2373L9.92695 18.0302C9.6777 18.351 9.70687 18.8039 9.99165 19.0796L10.8269 19.9148C11.1059 20.2017 11.5582 20.2304 11.8796 19.9817L12.6719 19.366C12.9037 19.4848 13.1476 19.5861 13.4006 19.6677L13.5273 20.6626C13.5751 21.063 13.9139 21.3636 14.3154 21.3636H15.5033C15.9048 21.3636 16.2437 21.063 16.2914 20.6652L16.4181 19.6683C16.6711 19.5861 16.915 19.4848 17.1468 19.3665L17.9396 19.9822C18.2605 20.2314 18.7134 20.2023 18.9891 19.9175L19.8244 19.0823C20.1118 18.8033 20.141 18.351 19.8918 18.0296L19.276 17.2373C19.3948 17.0056 19.4961 16.7617 19.5778 16.5087L20.5727 16.382C20.972 16.3342 21.2727 15.9954 21.2727 15.5939V14.4061C21.2733 14.0046 20.9726 13.6658 20.5748 13.618ZM17.4558 15C17.4558 16.4058 16.3161 17.5455 14.9103 17.5455C13.5045 17.5455 12.3649 16.4058 12.3649 15C12.3649 13.5942 13.5045 12.4545 14.9103 12.4545C16.3161 12.4545 17.4558 13.5942 17.4558 15Z" stroke="#5F5C5C" stroke-width="1.5" stroke-linecap="round" stroke-linejoin="round"/>
</svg>
