<svg width="30" height="30" viewBox="0 0 30 30" fill="none" xmlns="http://www.w3.org/2000/svg">
<path d="M18.9996 11C18.9996 12.0609 18.5782 13.0783 17.828 13.8284C17.0779 14.5786 16.0605 15 14.9996 15C13.9387 15 12.9213 14.5786 12.1712 13.8284C11.421 13.0783 10.9996 12.0609 10.9996 11M6.63281 10.4014L5.93281 18.8014C5.78243 20.6059 5.70724 21.5082 6.01227 22.2042C6.28027 22.8157 6.74462 23.3204 7.33177 23.6382C8.00006 24 8.90545 24 10.7162 24H19.283C21.0937 24 21.9991 24 22.6674 23.6382C23.2546 23.3204 23.7189 22.8157 23.9869 22.2042C24.2919 21.5082 24.2167 20.6059 24.0664 18.8014L23.3664 10.4014C23.237 8.84875 23.1723 8.07243 22.8285 7.48486C22.5257 6.96744 22.0748 6.5526 21.5341 6.29385C20.92 6 20.141 6 18.583 6L11.4162 6C9.85821 6 9.07921 6 8.4651 6.29384C7.92433 6.5526 7.47349 6.96744 7.17071 7.48486C6.82689 8.07243 6.76219 8.84875 6.63281 10.4014Z" stroke="#5F5C5C" stroke-width="1.5" stroke-linecap="round" stroke-linejoin="round"/>
</svg>
