<svg width="30" height="31" viewBox="0 0 30 31" fill="none" xmlns="http://www.w3.org/2000/svg">
<g clip-path="url(#clip0_5568_213520)">
<path d="M29.4833 18.9717C29.8195 17.724 30 16.4126 30 15.0587C30 13.7047 29.8195 12.3933 29.4833 11.1456L13.6956 0.115723C10.7647 0.368262 8.0751 1.46338 5.86957 3.15797L0.516738 11.1456C0.180469 12.3933 0 13.7047 0 15.0587C0 16.4047 0.178301 17.7089 0.51082 18.95L5.86951 26.9593C8.07504 28.6539 10.7647 29.7491 13.6956 30.0016L29.4833 18.9717Z" fill="#FFDA44"/>
<path d="M0.516602 18.9717C1.38449 22.1919 3.29734 24.983 5.86943 26.9593V18.9717H0.516602Z" fill="#D80027"/>
<path d="M13.6953 30.0015C14.1253 30.0386 14.5601 30.0586 14.9997 30.0586C21.9301 30.0586 27.7617 25.3582 29.4829 18.9717H13.6953V30.0015Z" fill="#D80027"/>
<path d="M29.4829 11.1455C27.7617 4.75904 21.9301 0.0585938 14.9997 0.0585938C14.5601 0.0585938 14.1253 0.0786328 13.6953 0.115664V11.1455H29.4829Z" fill="#D80027"/>
<path d="M5.86943 3.15796C3.29734 5.13433 1.38449 7.92532 0.516602 11.1456H5.86943V3.15796Z" fill="#D80027"/>
<path d="M29.873 13.1021H11.7392H11.7391V0.415161C10.3529 0.722544 9.03873 1.22077 7.82607 1.88247V13.1021H0.126973C0.0435938 13.7425 0 14.3955 0 15.0586C0 15.7217 0.0435938 16.3747 0.126973 17.0151H7.82602H7.82607V28.2347C9.03873 28.8964 10.3529 29.3947 11.7391 29.702V17.0153V17.0152H29.873C29.9564 16.3747 30 15.7217 30 15.0586C30 14.3955 29.9564 13.7425 29.873 13.1021V13.1021Z" fill="#0052B4"/>
</g>
<rect x="0.5" y="0.558594" width="29" height="29" rx="14.5" stroke="#D7D7D7"/>
<defs>
<clipPath id="clip0_5568_213520">
<rect y="0.0585938" width="30" height="30" rx="15" fill="white"/>
</clipPath>
</defs>
</svg>
