<svg width="30" height="30" viewBox="0 0 30 30" fill="none" xmlns="http://www.w3.org/2000/svg">
<g clip-path="url(#clip0_5568_213532)">
<path d="M15 30C23.2843 30 30 23.2843 30 15C30 6.71573 23.2843 0 15 0C6.71573 0 0 6.71573 0 15C0 23.2843 6.71573 30 15 30Z" fill="#F0F0F0"/>
<path d="M0 15C0 20.6856 3.16342 25.6321 7.82607 28.1762V1.82385C3.16342 4.36793 0 9.31436 0 15Z" fill="#F0F0F0"/>
<path d="M15.0001 0C12.4015 0 9.95729 0.661113 7.82617 1.82385V28.1761C9.95729 29.3389 12.4015 30 15.0001 30C23.2843 30 30.0001 23.2842 30.0001 15C30.0001 6.71578 23.2843 0 15.0001 0Z" fill="#496E2D"/>
<path d="M21.4136 17.4807C19.5159 18.8519 16.866 18.4251 15.4949 16.5274C14.1237 14.6297 14.5505 11.9798 16.4482 10.6087C17.0399 10.1812 17.7047 9.92849 18.381 9.84066C17.0798 9.64607 15.7044 9.93928 14.5537 10.7707C12.2182 12.4583 11.6928 15.7197 13.3804 18.0553C15.0679 20.3908 18.3294 20.9163 20.665 19.2286C21.8157 18.3972 22.526 17.1835 22.7497 15.8869C22.454 16.5013 22.0054 17.0531 21.4136 17.4807V17.4807Z" fill="#F0F0F0"/>
<path d="M21.3321 9.78271L22.4011 10.9347L23.8271 10.2743L23.0616 11.6468L24.1306 12.7989L22.5886 12.4951L21.8233 13.8677L21.6357 12.3073L20.0938 12.0035L21.5197 11.3431L21.3321 9.78271Z" fill="#F0F0F0"/>
</g>
<rect x="0.5" y="0.5" width="29" height="29" rx="14.5" stroke="#D7D7D7"/>
<defs>
<clipPath id="clip0_5568_213532">
<rect width="30" height="30" rx="15" fill="white"/>
</clipPath>
</defs>
</svg>
