<svg width="30" height="30" viewBox="0 0 30 30" fill="none" xmlns="http://www.w3.org/2000/svg">
<g clip-path="url(#clip0_5568_213548)">
<path d="M15 30C23.2843 30 30 23.2843 30 15C30 6.71573 23.2843 0 15 0C6.71573 0 0 6.71573 0 15C0 23.2843 6.71573 30 15 30Z" fill="#F0F0F0"/>
<path d="M0 15C0 23.2842 6.71578 30 15 30C15 24.2956 15 15 15 15C15 15 5.21736 15 0 15Z" fill="#0052B4"/>
<path d="M15 0C23.2842 0 30 6.71578 30 15C24.2956 15 15 15 15 15C15 15 15 5.21736 15 0Z" fill="#D80027"/>
<path d="M8.92891 5.21741L9.90022 8.20674H13.0434L10.5005 10.0542L11.4718 13.0435L8.92891 11.196L6.38605 13.0435L7.3573 10.0542L4.81445 8.20674H7.9576L8.92891 5.21741Z" fill="#0052B4"/>
<path d="M21.0705 16.9565L22.0418 19.9459H25.185L22.6421 21.7933L23.6134 24.7827L21.0705 22.9352L18.5277 24.7827L19.4989 21.7933L16.9561 19.9459H20.0992L21.0705 16.9565Z" fill="#D80027"/>
</g>
<rect x="0.5" y="0.5" width="29" height="29" rx="14.5" stroke="#D7D7D7"/>
<defs>
<clipPath id="clip0_5568_213548">
<rect width="30" height="30" rx="15" fill="white"/>
</clipPath>
</defs>
</svg>
