<svg width="30" height="31" viewBox="0 0 30 31" fill="none" xmlns="http://www.w3.org/2000/svg">
<g clip-path="url(#clip0_5568_213554)">
<path d="M25.6067 25.6642C19.7488 31.522 10.2514 31.522 4.39338 25.6642C-1.46447 19.8063 -1.46447 10.3088 4.39344 4.45092C10.2513 -1.40694 18.8264 -0.484612 24.6843 5.3733C30.5421 11.2311 31.4645 19.8063 25.6067 25.6642V25.6642Z" fill="black"/>
<path d="M4.39355 4.45095C10.2514 -1.4069 19.7488 -1.40678 25.6068 4.45101C31.4646 10.3089 31.4646 19.8063 25.6068 25.6642" fill="#A2001D"/>
<path d="M11.4632 20.275L11.706 21.0224H12.4918L11.8561 21.4842L12.0989 22.2316L11.4632 21.7697L10.8274 22.2316L11.0703 21.4842L10.4346 21.0224H11.2203L11.4632 20.275Z" fill="#F0F0F0"/>
<path d="M9.45652 13.1011L9.86135 14.3467H11.1709L10.1114 15.1164L10.5161 16.362L9.45652 15.5921L8.39703 16.362L8.8018 15.1164L7.74219 14.3467H9.05188L9.45652 13.1011Z" fill="#F0F0F0"/>
<path d="M9.45652 22.2316L9.86123 23.4772H11.1709L10.1113 24.2468L10.5161 25.4924L9.45652 24.7226L8.39703 25.4924L8.80168 24.2468L7.74219 23.4772H9.0517L9.45652 22.2316Z" fill="#F0F0F0"/>
<path d="M13.2856 16.3619L13.6904 17.6075H15L13.9404 18.3772L14.3451 19.6228L13.2856 18.8529L12.2261 19.6228L12.6308 18.3772L11.5713 17.6075H12.8809L13.2856 16.3619Z" fill="#F0F0F0"/>
<path d="M5.62742 16.3619L6.03225 17.6075H7.34176L6.28227 18.3772L6.68691 19.6228L5.62742 18.8529L4.56787 19.6228L4.9727 18.3772L3.91309 17.6075H5.22272L5.62742 16.3619Z" fill="#F0F0F0"/>
<path d="M25.1101 11.1647C24.4397 10.4943 23.5687 10.0983 22.6326 10.0302L25.4346 7.85097C24.3187 6.73505 22.823 6.23109 21.3636 6.33767C21.1888 5.70978 20.8557 5.11669 20.362 4.62292L19.2552 6.83648C19.1826 6.70417 19.0906 6.57966 18.9785 6.46757C18.3417 5.83084 17.3094 5.83084 16.6727 6.46757C16.036 7.10431 16.0359 8.13662 16.6727 8.77335C16.7848 8.88544 16.9094 8.97738 17.0417 9.05003L14.8281 10.1568C15.322 10.6508 15.9155 10.9841 16.5437 11.1587C16.4368 12.6182 16.9403 14.1136 18.0562 15.2296L20.5043 12.082C20.6884 11.9007 20.9317 11.8005 21.1904 11.8005C21.4517 11.8005 21.6974 11.9023 21.8821 12.0871C22.0669 12.2719 22.1687 12.5176 22.1687 12.7788C22.1687 13.0402 22.0669 13.2858 21.8821 13.4706L22.8045 14.393C23.2356 13.9618 23.473 13.3886 23.473 12.7789C23.473 12.28 23.3139 11.8058 23.0201 11.4136C23.4482 11.528 23.8528 11.7519 24.1879 12.0871C25.2051 13.1043 25.2051 14.7593 24.1879 15.7764L25.1103 16.6987C25.8494 15.9596 26.2564 14.977 26.2564 13.9318C26.2562 12.8864 25.8491 11.9038 25.1101 11.1647V11.1647Z" fill="#FFDA44"/>
</g>
<rect x="0.5" y="0.557617" width="29" height="29" rx="14.5" stroke="#D7D7D7"/>
<defs>
<clipPath id="clip0_5568_213554">
<rect y="0.0576172" width="30" height="30" rx="15" fill="white"/>
</clipPath>
</defs>
</svg>
