<svg width="30" height="31" viewBox="0 0 30 31" fill="none" xmlns="http://www.w3.org/2000/svg">
<g clip-path="url(#clip0_5568_213564)">
<path d="M15 30.0576C23.2843 30.0576 30 23.3419 30 15.0576C30 6.77335 23.2843 0.0576172 15 0.0576172C6.71573 0.0576172 0 6.77335 0 15.0576C0 23.3419 6.71573 30.0576 15 30.0576Z" fill="#F0F0F0"/>
<path d="M14.9999 0.0576172C9.05297 0.0576172 3.91453 3.51846 1.48828 8.5359H28.5114C26.0852 3.51846 20.9467 0.0576172 14.9999 0.0576172V0.0576172Z" fill="#D80027"/>
<path d="M14.9999 30.0576C20.9467 30.0576 26.0852 26.5968 28.5115 21.5793H1.48828C3.91453 26.5968 9.05297 30.0576 14.9999 30.0576Z" fill="#0052B4"/>
<path d="M18.6888 10.7163L17.3053 12.0998C17.8954 12.6899 18.2605 13.5051 18.2605 14.4055C18.2605 16.2065 16.8005 17.6664 14.9996 17.6664C13.1987 17.6664 11.7387 16.2064 11.7387 14.4055C11.7387 13.5051 12.1038 12.6899 12.6939 12.0998L11.3104 10.7163C10.3662 11.6604 9.78223 12.9647 9.78223 14.4055C9.78223 17.2871 12.1181 19.6229 14.9996 19.6229C17.8811 19.6229 20.217 17.287 20.217 14.4055C20.2169 12.9647 19.633 11.6604 18.6888 10.7163V10.7163Z" fill="#6DA544"/>
<path d="M14.9996 12.449L15.4853 13.9437H17.0568L15.7854 14.8674L16.2711 16.362L14.9996 15.4383L13.7281 16.362L14.2138 14.8674L12.9424 13.9437H14.5139L14.9996 12.449Z" fill="#FFDA44"/>
</g>
<rect x="0.5" y="0.557617" width="29" height="29" rx="14.5" stroke="#D7D7D7"/>
<defs>
<clipPath id="clip0_5568_213564">
<rect y="0.0576172" width="30" height="30" rx="15" fill="white"/>
</clipPath>
</defs>
</svg>
