<svg width="30" height="30" viewBox="0 0 30 30" fill="none" xmlns="http://www.w3.org/2000/svg">
<rect width="30" height="30" rx="2" fill="white"/>
<path d="M15.5115 5.15334H13.7169C13.1104 5.15334 12.5984 5.62222 12.5263 6.24243L12.4099 7.18721C12.3641 7.55949 12.1087 7.86712 11.7727 8.0105C11.4357 8.15434 11.0491 8.11995 10.7611 7.88893L10.0362 7.30753C9.55231 6.91969 8.86812 6.96435 8.45071 7.40842L7.18884 8.71002C6.7546 9.14499 6.71053 9.85121 7.08709 10.3523L7.65043 11.1006C7.87421 11.3978 7.90744 11.797 7.76804 12.1449C7.62922 12.4913 7.33151 12.7542 6.97123 12.8016L6.05758 12.9217C5.45429 12.9961 5 13.5245 5 14.1505V16.0028C5 16.6288 5.45425 17.1573 6.05514 17.2317L6.97049 17.3518C7.33123 17.3991 7.62946 17.6624 7.76864 18.0092C7.90809 18.3566 7.87455 18.7552 7.65108 19.0522L7.08709 19.8018C6.71053 20.3021 6.75459 21.0083 7.18483 21.4384L8.4467 22.7408C8.86812 23.1882 9.55154 23.2328 10.0371 22.845L10.7625 22.2631C11.0501 22.0324 11.4366 21.9983 11.7732 22.1422C12.109 22.2858 12.3641 22.5931 12.4101 22.9652L12.5263 23.9068C12.5984 24.5311 13.1104 25 13.7169 25H15.5115M14.6157 11.2491C12.4918 11.2491 10.7702 13.0262 10.7702 15.2184C10.7702 17.4106 12.4918 19.1878 14.6157 19.1878C15.1557 19.1878 15.6959 19.0152 16.1876 18.7144M18.7018 5.00236C18.7035 5.00163 18.7028 6.9289 18.7022 8.00977C18.702 8.4369 18.973 8.81693 19.3769 8.9559L20.179 9.23188C20.3898 9.30442 20.6189 9.30442 20.8297 9.23188L21.6323 8.95574C22.0359 8.81685 22.3069 8.43703 22.3069 8.01014V6.86056V4.99993C24.5213 5.89675 25 7.63417 25 8.72332C25 10.5671 23.9134 11.728 23.2625 12.258C22.9819 12.4865 22.7856 12.82 22.7856 13.1819V22.7167C22.7856 23.9777 21.7633 25 20.5023 25V25C19.2412 25 18.219 23.9777 18.219 22.7167V13.1569C18.219 12.8084 18.0367 12.4852 17.7764 12.2535C17.1787 11.7214 16.1876 10.5619 16.1876 8.72332C16.1876 7.63417 16.6704 5.83105 18.7018 5.00236Z" stroke="#5F5C5C" stroke-width="1.5" stroke-linejoin="round"/>
</svg>
