<svg width="30" height="30" viewBox="0 0 30 30" fill="none" xmlns="http://www.w3.org/2000/svg">
<mask id="path-2-outside-1_463_120640" maskUnits="userSpaceOnUse" x="5" y="3" width="20" height="24" fill="black">
<rect fill="white" x="5" y="3" width="20" height="24"/>
<path fill-rule="evenodd" clip-rule="evenodd" d="M20.6421 9.9023C20.1808 12.8255 17.6724 14.977 14.7278 14.9749H11.5463C11.178 14.9708 10.863 15.2404 10.8083 15.6065L10.0503 20.3584C9.99555 20.7245 9.68059 20.994 9.31225 20.9899H7.50706C7.35856 20.9955 7.21559 20.9329 7.11856 20.8198C7.02153 20.7067 6.98098 20.5553 7.00838 20.4085L9.35214 5.84218C9.43116 5.3519 9.85541 4.99369 10.3495 5.00008H17.3309C18.343 5.00128 19.3048 5.44395 19.9669 6.21337C20.629 6.98279 20.9263 8.00319 20.7817 9.01008L20.6421 9.9023ZM22.8263 13.9123L22.9659 13.0201C23.0942 12.1107 22.8574 11.1873 22.3076 10.4537C21.5975 14.0974 18.4217 16.7267 14.7278 16.7293H13.0323C12.7154 16.7338 12.4356 16.9387 12.3342 17.2406L11.2072 24.4185C11.1802 24.5635 11.2195 24.7131 11.3143 24.8258C11.409 24.9385 11.5491 25.0024 11.6959 24.9999H13.5011C13.8701 25.0005 14.186 24.7338 14.2491 24.3684L14.9971 19.6165C15.0558 19.2526 15.3684 18.9851 15.7351 18.9849H16.8721C19.8317 19.0068 22.3627 16.8506 22.8263 13.9123Z"/>
</mask>
<path d="M14.7278 14.9749L14.7292 12.9749H14.7278V14.9749ZM20.6421 9.9023L22.6176 10.2141L22.618 10.2115L20.6421 9.9023ZM11.5463 14.9749L11.524 16.9748L11.5351 16.9749H11.5463V14.9749ZM10.8083 15.6065L12.7833 15.9216L12.7848 15.9119L12.7863 15.9022L10.8083 15.6065ZM10.0503 20.3584L8.07525 20.0433L8.07371 20.053L8.07226 20.0627L10.0503 20.3584ZM9.31225 20.9899L9.33457 18.9901L9.32341 18.9899H9.31225V20.9899ZM7.50706 20.9899V18.9899H7.46929L7.43156 18.9914L7.50706 20.9899ZM7.00838 20.4085L8.97444 20.7754L8.97902 20.7509L8.98299 20.7262L7.00838 20.4085ZM9.35214 5.84218L7.37762 5.52395L7.37754 5.52446L9.35214 5.84218ZM10.3495 5.00008L10.3236 6.99992L10.3366 7.00008H10.3495V5.00008ZM17.3309 5.00008L17.3333 3.00008H17.3309V5.00008ZM19.9669 6.21337L21.4828 4.90881V4.90881L19.9669 6.21337ZM20.7817 9.01008L22.7577 9.3193L22.7596 9.30684L22.7614 9.29435L20.7817 9.01008ZM22.9659 13.0201L24.9418 13.3293L24.9442 13.3144L24.9463 13.2995L22.9659 13.0201ZM22.8263 13.9123L24.8018 14.224L24.8022 14.2215L22.8263 13.9123ZM22.3076 10.4537L23.9082 9.25441L21.2065 5.64874L20.3446 10.0711L22.3076 10.4537ZM14.7278 16.7293V18.7293L14.7292 18.7293L14.7278 16.7293ZM13.0323 16.7293V14.7293H13.0182L13.004 14.7295L13.0323 16.7293ZM12.3342 17.2406L10.4383 16.6037L10.3846 16.7637L10.3584 16.9304L12.3342 17.2406ZM11.2072 24.4185L13.1735 24.7843L13.1786 24.7566L13.183 24.7287L11.2072 24.4185ZM11.3143 24.8258L9.78322 26.1126L9.78323 26.1126L11.3143 24.8258ZM11.6959 24.9999V22.9999H11.6788L11.6617 23.0002L11.6959 24.9999ZM13.5011 24.9999L13.5043 22.9999H13.5011V24.9999ZM14.2491 24.3684L16.2199 24.7087L16.2225 24.6941L16.2248 24.6794L14.2491 24.3684ZM14.9971 19.6165L13.0226 19.2981L13.0214 19.3055L14.9971 19.6165ZM15.7351 18.9849V16.9849H15.7342L15.7351 18.9849ZM16.8721 18.9849L16.8869 16.985L16.8795 16.9849H16.8721V18.9849ZM14.7265 16.9749C18.6633 16.9776 22.004 14.1025 22.6176 10.2141L18.6665 9.59054C18.3575 11.5485 16.6815 12.9763 14.7292 12.9749L14.7265 16.9749ZM11.5463 16.9749H14.7278V12.9749H11.5463V16.9749ZM12.7863 15.9022C12.6945 16.5162 12.1622 16.9819 11.524 16.9748L11.5686 12.9751C10.1937 12.9597 9.0315 13.9645 8.83024 15.3108L12.7863 15.9022ZM12.0253 20.6734L12.7833 15.9216L8.83323 15.2915L8.07525 20.0433L12.0253 20.6734ZM9.28993 22.9898C10.6648 23.0052 11.8271 22.0004 12.0283 20.654L8.07226 20.0627C8.16405 19.4487 8.69636 18.9829 9.33457 18.9901L9.28993 22.9898ZM7.50706 22.9899H9.31225V18.9899H7.50706V22.9899ZM5.60042 22.1218C6.09323 22.6964 6.82229 23.0172 7.58255 22.9885L7.43156 18.9914C7.89483 18.9739 8.33794 19.1694 8.6367 19.5178L5.60042 22.1218ZM5.04233 20.0416C4.90407 20.7824 5.10813 21.5478 5.60042 22.1218L8.6367 19.5178C8.93493 19.8655 9.0579 20.3282 8.97444 20.7754L5.04233 20.0416ZM7.37754 5.52446L5.03378 20.0908L8.98299 20.7262L11.3267 6.1599L7.37754 5.52446ZM10.3754 3.00025C8.88221 2.98093 7.61319 4.06231 7.37762 5.52395L11.3267 6.16041C11.2491 6.64149 10.8286 7.00645 10.3236 6.99992L10.3754 3.00025ZM17.3309 3.00008H10.3495V7.00008H17.3309V3.00008ZM21.4828 4.90881C20.4426 3.70002 18.929 3.00197 17.3333 3.00009L17.3285 7.00008C17.757 7.00059 18.1669 7.18789 18.4509 7.51793L21.4828 4.90881ZM22.7614 9.29435C22.9879 7.71712 22.5226 6.11708 21.4828 4.90881L18.4509 7.51793C18.7354 7.84849 18.8647 8.28926 18.802 8.7258L22.7614 9.29435ZM22.618 10.2115L22.7577 9.3193L18.8058 8.70085L18.6661 9.59308L22.618 10.2115ZM20.9899 12.7108L20.8503 13.6031L24.8022 14.2215L24.9418 13.3293L20.9899 12.7108ZM20.7071 11.6529C20.939 11.9625 21.0401 12.354 20.9855 12.7407L24.9463 13.2995C25.1483 11.8674 24.7757 10.4122 23.9082 9.25441L20.7071 11.6529ZM14.7292 18.7293C19.3867 18.726 23.3789 15.4119 24.2707 10.8363L20.3446 10.0711C19.816 12.7828 17.4567 14.7274 14.7264 14.7293L14.7292 18.7293ZM13.0323 18.7293H14.7278V14.7293H13.0323V18.7293ZM14.2301 17.8774C14.063 18.375 13.5977 18.7215 13.0607 18.7291L13.004 14.7295C11.833 14.7461 10.8083 15.5024 10.4383 16.6037L14.2301 17.8774ZM13.183 24.7287L14.31 17.5508L10.3584 16.9304L9.23141 24.1083L13.183 24.7287ZM12.8453 23.539C13.1364 23.8853 13.2557 24.3424 13.1735 24.7843L9.24094 24.0527C9.10477 24.7846 9.30263 25.5408 9.78322 26.1126L12.8453 23.539ZM11.6617 23.0002C12.1195 22.9924 12.5537 23.192 12.8453 23.539L9.78323 26.1126C10.2643 26.685 10.9788 27.0125 11.7302 26.9996L11.6617 23.0002ZM13.5011 22.9999H11.6959V26.9999H13.5011V22.9999ZM12.2783 24.028C12.3797 23.4405 12.8915 22.999 13.5043 22.9999L13.4979 26.9999C14.8488 27.0021 15.9922 26.0272 16.2199 24.7087L12.2783 24.028ZM13.0214 19.3055L12.2734 24.0574L16.2248 24.6794L16.9728 19.9275L13.0214 19.3055ZM15.7342 16.9849C14.3787 16.9856 13.2363 17.9728 13.0226 19.2981L16.9716 19.9349C16.8753 20.5324 16.3581 20.9847 15.7361 20.9849L15.7342 16.9849ZM16.8721 16.9849H15.7351V20.9849H16.8721V16.9849ZM20.8507 13.6006C20.5402 15.5687 18.8491 16.9995 16.8869 16.985L16.8574 20.9849C20.8144 21.0141 24.1851 18.1325 24.8018 14.224L20.8507 13.6006Z" fill="#5F5C5C" mask="url(#path-2-outside-1_463_120640)"/>
</svg>
