<svg width="30" height="30" viewBox="0 0 30 30" fill="none" xmlns="http://www.w3.org/2000/svg">
<mask id="path-2-outside-1_905_112496" maskUnits="userSpaceOnUse" x="5" y="3" width="20" height="24" fill="black">
<rect fill="white" x="5" y="3" width="20" height="24"/>
<path fill-rule="evenodd" clip-rule="evenodd" d="M20.6421 9.9023C20.1808 12.8255 17.6724 14.977 14.7278 14.9749H11.5463C11.178 14.9708 10.863 15.2404 10.8083 15.6065L10.0503 20.3584C9.99555 20.7245 9.68059 20.994 9.31225 20.9899H7.50706C7.35856 20.9955 7.21559 20.9329 7.11856 20.8198C7.02153 20.7067 6.98098 20.5553 7.00838 20.4085L9.35214 5.84218C9.43116 5.3519 9.85541 4.99369 10.3495 5.00008H17.3309C18.343 5.00128 19.3048 5.44395 19.9669 6.21337C20.629 6.98279 20.9263 8.00319 20.7817 9.01008L20.6421 9.9023ZM22.8263 13.9123L22.9659 13.0201C23.0942 12.1107 22.8574 11.1873 22.3076 10.4537C21.5975 14.0974 18.4217 16.7267 14.7278 16.7293H13.0323C12.7154 16.7338 12.4356 16.9387 12.3342 17.2406L11.2072 24.4185C11.1802 24.5635 11.2195 24.7131 11.3143 24.8258C11.409 24.9385 11.5491 25.0024 11.6959 24.9999H13.5011C13.8701 25.0005 14.186 24.7338 14.2491 24.3684L14.9971 19.6165C15.0558 19.2526 15.3684 18.9851 15.7351 18.9849H16.8721C19.8317 19.0068 22.3627 16.8506 22.8263 13.9123Z"/>
</mask>
<path d="M14.7278 14.9749L14.7289 13.4749H14.7278V14.9749ZM20.6421 9.9023L22.1237 10.1361L22.124 10.1342L20.6421 9.9023ZM11.5463 14.9749L11.5296 16.4749L11.5379 16.4749H11.5463V14.9749ZM10.8083 15.6065L12.2895 15.8428L12.2907 15.8355L12.2918 15.8283L10.8083 15.6065ZM10.0503 20.3584L8.56901 20.1221L8.56785 20.1293L8.56677 20.1366L10.0503 20.3584ZM9.31225 20.9899L9.32899 19.49L9.32062 19.4899H9.31225V20.9899ZM7.50706 20.9899V19.4899H7.47873L7.45043 19.491L7.50706 20.9899ZM7.00838 20.4085L8.48292 20.6837L8.48636 20.6653L8.48933 20.6468L7.00838 20.4085ZM9.35214 5.84218L7.87125 5.60351L7.87119 5.60389L9.35214 5.84218ZM10.3495 5.00008L10.3301 6.49996L10.3398 6.50008H10.3495V5.00008ZM17.3309 5.00008L17.3327 3.50008H17.3309V5.00008ZM19.9669 6.21337L21.1038 5.23495V5.23495L19.9669 6.21337ZM20.7817 9.01008L22.2637 9.242L22.2651 9.23265L22.2665 9.22329L20.7817 9.01008ZM22.9659 13.0201L24.4479 13.252L24.4496 13.2408L24.4512 13.2296L22.9659 13.0201ZM22.8263 13.9123L24.3079 14.1461L24.3082 14.1442L22.8263 13.9123ZM22.3076 10.4537L23.5081 9.55422L21.4818 6.84997L20.8354 10.1667L22.3076 10.4537ZM14.7278 16.7293V18.2293H14.7289L14.7278 16.7293ZM13.0323 16.7293V15.2293H13.0217L13.0111 15.2295L13.0323 16.7293ZM12.3342 17.2406L10.9123 16.763L10.872 16.8829L10.8524 17.0079L12.3342 17.2406ZM11.2072 24.4185L12.6819 24.6928L12.6858 24.672L12.689 24.6511L11.2072 24.4185ZM11.3143 24.8258L10.166 25.7909L10.166 25.7909L11.3143 24.8258ZM11.6959 24.9999V23.4999H11.6831L11.6702 23.5001L11.6959 24.9999ZM13.5011 24.9999L13.5035 23.4999H13.5011V24.9999ZM14.2491 24.3684L15.7272 24.6237L15.7291 24.6126L15.7309 24.6016L14.2491 24.3684ZM14.9971 19.6165L13.5162 19.3777L13.5154 19.3833L14.9971 19.6165ZM15.7351 18.9849V17.4849H15.7345L15.7351 18.9849ZM16.8721 18.9849L16.8832 17.4849H16.8721V18.9849ZM14.7268 16.4749C18.4155 16.4775 21.5482 13.7832 22.1237 10.1361L19.1604 9.66848C18.8134 11.8678 16.9292 13.4765 14.7289 13.4749L14.7268 16.4749ZM11.5463 16.4749H14.7278V13.4749H11.5463V16.4749ZM12.2918 15.8283C12.2366 16.1973 11.9161 16.4792 11.5296 16.4749L11.563 13.475C10.4398 13.4625 9.48937 14.2835 9.32475 15.3848L12.2918 15.8283ZM11.5316 20.5946L12.2895 15.8428L9.32699 15.3702L8.56901 20.1221L11.5316 20.5946ZM9.29551 22.4898C10.4188 22.5024 11.3692 21.6814 11.5338 20.5801L8.56677 20.1366C8.62192 19.7676 8.94242 19.4857 9.32899 19.49L9.29551 22.4898ZM7.50706 22.4899H9.31225V19.4899H7.50706V22.4899ZM5.97995 21.7963C6.37382 22.2556 6.95636 22.5118 7.56368 22.4889L7.45043 19.491C7.76076 19.4793 8.05735 19.6103 8.25717 19.8433L5.97995 21.7963ZM5.53384 20.1333C5.4233 20.7256 5.58648 21.3375 5.97995 21.7963L8.25717 19.8433C8.45658 20.0758 8.53867 20.385 8.48292 20.6837L5.53384 20.1333ZM7.87119 5.60389L5.52743 20.1702L8.48933 20.6468L10.8331 6.08047L7.87119 5.60389ZM10.3689 3.50021C9.12551 3.48412 8.06769 4.38471 7.87125 5.60351L10.833 6.08086C10.7946 6.31909 10.5853 6.50326 10.3301 6.49996L10.3689 3.50021ZM17.3309 3.50008H10.3495V6.50008H17.3309V3.50008ZM21.1038 5.23495C20.1581 4.136 18.7825 3.50179 17.3327 3.50009L17.3291 6.50008C17.9035 6.50076 18.4514 6.75191 18.8299 7.19179L21.1038 5.23495ZM22.2665 9.22329C22.4725 7.78863 22.0492 6.33351 21.1038 5.23495L18.8299 7.19179C19.2088 7.63206 19.3801 8.21774 19.2969 8.79687L22.2665 9.22329ZM22.124 10.1342L22.2637 9.242L19.2997 8.77816L19.1601 9.67038L22.124 10.1342ZM21.4839 12.7882L21.3443 13.6804L24.3082 14.1442L24.4479 13.252L21.4839 12.7882ZM21.1072 11.3531C21.4186 11.7687 21.5536 12.2931 21.4806 12.8105L24.4512 13.2296C24.6348 11.9282 24.2961 10.606 23.5081 9.55422L21.1072 11.3531ZM14.7289 18.2293C19.1454 18.2262 22.9335 15.0833 23.7799 10.7406L20.8354 10.1667C20.2614 13.1115 17.698 15.2272 14.7268 15.2293L14.7289 18.2293ZM13.0323 18.2293H14.7278V15.2293H13.0323V18.2293ZM13.7561 17.7182C13.6561 18.0159 13.3771 18.2246 13.0536 18.2292L13.0111 15.2295C12.0536 15.2431 11.2151 15.8614 10.9123 16.763L13.7561 17.7182ZM12.689 24.6511L13.816 17.4733L10.8524 17.0079L9.72536 24.1858L12.689 24.6511ZM12.4626 23.8607C12.6572 24.0923 12.7368 24.3977 12.6819 24.6928L9.73251 24.1441C9.62363 24.7293 9.78185 25.3339 10.166 25.7909L12.4626 23.8607ZM11.6702 23.5001C11.9769 23.4949 12.2675 23.6286 12.4625 23.8607L10.166 25.7909C10.5505 26.2484 11.1213 26.51 11.7216 26.4997L11.6702 23.5001ZM13.5011 23.4999H11.6959V26.4999H13.5011V23.4999ZM12.771 24.1131C12.8313 23.7638 13.1362 23.4993 13.5035 23.4999L13.4987 26.4999C14.6041 26.5017 15.5406 25.7039 15.7272 24.6237L12.771 24.1131ZM13.5154 19.3833L12.7674 24.1351L15.7309 24.6016L16.4789 19.8498L13.5154 19.3833ZM15.7345 17.4849C14.6261 17.4854 13.6912 18.2927 13.5162 19.3777L16.478 19.8553C16.4204 20.2124 16.1106 20.4848 15.7358 20.4849L15.7345 17.4849ZM16.8721 17.4849H15.7351V20.4849H16.8721V17.4849ZM21.3446 13.6785C20.9958 15.8891 19.0948 17.5013 16.8832 17.485L16.861 20.4849C20.5687 20.5123 23.7295 17.812 24.3079 14.1461L21.3446 13.6785Z" fill="#5F5C5C" mask="url(#path-2-outside-1_905_112496)"/>
</svg>
