<svg width="30" height="30" viewBox="0 0 30 30" fill="none" xmlns="http://www.w3.org/2000/svg">
<path d="M14.0605 5.93203C14.3983 5.68689 14.5672 5.56432 14.7518 5.51696C14.9148 5.47514 15.0858 5.47514 15.2488 5.51696C15.4334 5.56432 15.6023 5.68689 15.9401 5.93203L24.0586 11.824C24.397 12.0696 24.5663 12.1924 24.6686 12.3535C24.7589 12.4958 24.8119 12.6586 24.8224 12.8268C24.8344 13.0174 24.7697 13.2162 24.6404 13.6138L21.5401 23.1449C21.4109 23.5421 21.3463 23.7407 21.2247 23.8876C21.1173 24.0173 20.979 24.1178 20.8224 24.1798C20.6451 24.25 20.4362 24.25 20.0186 24.25H9.98203C9.56437 24.25 9.35554 24.25 9.17822 24.1798C9.02164 24.1178 8.88325 24.0173 8.77589 23.8876C8.65429 23.7407 8.58969 23.5421 8.4605 23.1449L5.36021 13.6138C5.23086 13.2162 5.16619 13.0174 5.17817 12.8268C5.18874 12.6586 5.24166 12.4958 5.33202 12.3535C5.43434 12.1924 5.60355 12.0696 5.94196 11.824L14.0605 5.93203Z" stroke="#5F5C5C" stroke-width="1.5" stroke-linecap="round" stroke-linejoin="round"/>
</svg>
