<svg width="30" height="30" viewBox="0 0 30 30" fill="none" xmlns="http://www.w3.org/2000/svg">
<rect width="30" height="30" rx="2" fill="white"/>
<path d="M10.5 9.5C10.5 10.0523 10.0523 10.5 9.5 10.5C8.94772 10.5 8.5 10.0523 8.5 9.5C8.5 8.94772 8.94772 8.5 9.5 8.5C10.0523 8.5 10.5 8.94772 10.5 9.5Z" fill="#5F5C5C"/>
<path d="M21.5 20.5C21.5 21.0523 21.0523 21.5 20.5 21.5C19.9477 21.5 19.5 21.0523 19.5 20.5C19.5 19.9477 19.9477 19.5 20.5 19.5C21.0523 19.5 21.5 19.9477 21.5 20.5Z" fill="#5F5C5C"/>
<path d="M22 8L8 22M10.5 9.5C10.5 10.0523 10.0523 10.5 9.5 10.5C8.94772 10.5 8.5 10.0523 8.5 9.5C8.5 8.94772 8.94772 8.5 9.5 8.5C10.0523 8.5 10.5 8.94772 10.5 9.5ZM21.5 20.5C21.5 21.0523 21.0523 21.5 20.5 21.5C19.9477 21.5 19.5 21.0523 19.5 20.5C19.5 19.9477 19.9477 19.5 20.5 19.5C21.0523 19.5 21.5 19.9477 21.5 20.5Z" stroke="#5F5C5C" stroke-width="2" stroke-linecap="round" stroke-linejoin="round"/>
</svg>
