<svg width="30" height="31" viewBox="0 0 30 31" fill="none" xmlns="http://www.w3.org/2000/svg">
<g clip-path="url(#clip0_5568_213570)">
<path d="M15 30.0469C23.2843 30.0469 30 23.3311 30 15.0469C30 6.7626 23.2843 0.046875 15 0.046875C6.71573 0.046875 0 6.7626 0 15.0469C0 23.3311 6.71573 30.0469 15 30.0469Z" fill="#F0F0F0"/>
<path d="M30.0004 15.0469C30.0004 8.59752 25.9298 3.09932 20.2178 0.97998V29.1141C25.9298 26.9946 30.0004 21.4965 30.0004 15.0469V15.0469Z" fill="#D80027"/>
<path d="M0 15.0469C0 21.4965 4.07063 26.9946 9.78264 29.114V0.97998C4.07063 3.09932 0 8.59752 0 15.0469V15.0469Z" fill="#D80027"/>
</g>
<rect x="0.5" y="0.546875" width="29" height="29" rx="14.5" stroke="#D7D7D7"/>
<defs>
<clipPath id="clip0_5568_213570">
<rect y="0.046875" width="30" height="30" rx="15" fill="white"/>
</clipPath>
</defs>
</svg>
