<svg width="30" height="31" viewBox="0 0 30 31" fill="none" xmlns="http://www.w3.org/2000/svg">
<g clip-path="url(#clip0_5568_213575)">
<path d="M15 30.0576C23.2843 30.0576 30 23.3419 30 15.0576C30 6.77335 23.2843 0.0576172 15 0.0576172C6.71573 0.0576172 0 6.77335 0 15.0576C0 23.3419 6.71573 30.0576 15 30.0576Z" fill="#F0F0F0"/>
<path d="M15.0002 0.0576172V15.0576L4.39355 25.6643C7.10803 28.3787 10.858 30.0576 15.0002 30.0576C23.2844 30.0576 30.0002 23.3418 30.0002 15.0576C30.0002 6.7734 15.0002 0.0576172 15.0002 0.0576172Z" fill="#D80027"/>
<path d="M15.0002 0.0576172C10.858 0.0576172 7.10803 1.73656 4.39355 4.45098C8.07383 8.13125 9.38029 9.43777 15.0002 15.0576H30.0002C30.0002 6.7734 23.2844 0.0576172 15.0002 0.0576172Z" fill="#0052B4"/>
<path d="M10.2713 15.0577L8.43941 14.196L9.41494 12.4219L7.42568 12.8024L7.17361 10.7928L5.78799 12.2708L4.40242 10.7928L4.15029 12.8024L2.16109 12.4218L3.13662 14.196L1.30469 15.0577L3.13662 15.9194L2.16109 17.6935L4.15047 17.313L4.40236 19.3226L5.78799 17.8446L7.17361 19.3226L7.42568 17.313L9.41482 17.6936L8.43936 15.9194L10.2713 15.0577Z" fill="#FFDA44"/>
<path d="M4.00078 5.92725L4.61039 6.77938L5.60912 6.46303L4.98697 7.30607L5.59658 8.1582L4.60248 7.82709L3.98039 8.67008L3.98818 7.62242L2.99414 7.29125L3.99305 6.9749L4.00078 5.92725Z" fill="#FFDA44"/>
<path d="M4.00078 21.4453L4.61039 22.2974L5.60912 21.981L4.98697 22.8241L5.59658 23.6763L4.60248 23.3452L3.98039 24.1881L3.98818 23.1405L2.99414 22.8093L3.99305 22.493L4.00078 21.4453Z" fill="#FFDA44"/>
<path d="M12.6953 13.6863L12.0857 14.5384L11.0869 14.2219L11.7091 15.065L11.0995 15.9172L12.0936 15.5861L12.7157 16.4291L12.7079 15.3815L13.7019 15.0503L12.703 14.7339L12.6953 13.6863Z" fill="#FFDA44"/>
</g>
<rect x="0.5" y="0.557617" width="29" height="29" rx="14.5" stroke="#D7D7D7"/>
<defs>
<clipPath id="clip0_5568_213575">
<rect y="0.0576172" width="30" height="30" rx="15" fill="white"/>
</clipPath>
</defs>
</svg>
