<svg width="30" height="30" viewBox="0 0 30 30" fill="none" xmlns="http://www.w3.org/2000/svg">
<path d="M7.85864 9C9.67357 7.14864 12.2027 6 15.0001 6C17.7975 6 20.3266 7.14864 22.1415 9M19.4723 12C18.3736 10.7725 16.777 10 15 10C13.223 10 11.6265 10.7725 10.5278 12M15 20C16.5105 20 17.9608 20.2576 19.3094 20.7313C19.3542 20.747 19.3767 20.7549 19.412 20.7705C19.7326 20.9118 19.9788 21.2591 20.0058 21.6084C20.0088 21.647 20.0088 21.6811 20.0088 21.7494C20.0088 21.9821 20.0088 22.0985 20.0185 22.1965C20.1122 23.1457 20.8631 23.8966 21.8123 23.9903C21.9103 24 22.0267 24 22.2594 24H22.5044C22.965 24 23.1952 24 23.3868 23.9622C24.1829 23.8053 24.8053 23.1829 24.9622 22.3868C25 22.1952 25 21.965 25 21.5044V21.3062C25 20.831 25 20.5933 24.9493 20.3209C24.8358 19.7119 24.3933 18.9583 23.9166 18.5624C23.7035 18.3854 23.5589 18.3048 23.2698 18.1435C20.822 16.7781 18.0019 16 15 16C11.9981 16 9.17797 16.7781 6.73021 18.1435C6.4411 18.3048 6.29654 18.3854 6.0834 18.5624C5.60675 18.9583 5.16421 19.7119 5.05074 20.3209C5 20.5933 5 20.831 5 21.3062V21.5044C5 21.965 5 22.1952 5.03776 22.3868C5.19469 23.1829 5.81709 23.8053 6.61321 23.9622C6.80476 24 7.03504 24 7.4956 24H7.74057C7.97332 24 8.0897 24 8.18773 23.9903C9.13689 23.8966 9.8878 23.1457 9.98152 22.1965C9.9912 22.0985 9.9912 21.9821 9.9912 21.7494C9.9912 21.6811 9.9912 21.647 9.99418 21.6084C10.0212 21.2591 10.2674 20.9118 10.588 20.7705C10.6233 20.7549 10.6458 20.747 10.6906 20.7313C12.0392 20.2576 13.4895 20 15 20Z" stroke="#5F5C5C" stroke-width="1.5" stroke-linecap="round" stroke-linejoin="round"/>
</svg>
