<svg width="30" height="30" viewBox="0 0 30 30" fill="none" xmlns="http://www.w3.org/2000/svg">
<path d="M19.4996 6L15.9996 9.5M15.9996 9.5L19.4996 13M15.9996 9.5H23.9996M13.2266 16.8631C12.0251 15.6615 11.0763 14.3028 10.3803 12.8532C10.3204 12.7285 10.2905 12.6662 10.2675 12.5873C10.1858 12.3069 10.2445 11.9627 10.4145 11.7253C10.4623 11.6584 10.5195 11.6013 10.6338 11.487C10.9834 11.1374 11.1582 10.9626 11.2725 10.7868C11.7035 10.1239 11.7035 9.26932 11.2725 8.60643C11.1582 8.43065 10.9834 8.25585 10.6338 7.90624L10.4389 7.71137C9.90747 7.17993 9.64174 6.91421 9.35636 6.76987C8.7888 6.4828 8.11854 6.4828 7.55098 6.76987C7.2656 6.91421 6.99987 7.17993 6.46843 7.71137L6.3108 7.86901C5.78117 8.39863 5.51636 8.66344 5.31411 9.02348C5.08969 9.42298 4.92833 10.0435 4.9297 10.5017C4.93092 10.9146 5.01103 11.1969 5.17124 11.7613C6.03221 14.7947 7.65668 17.6571 10.0447 20.045C12.4326 22.433 15.295 24.0575 18.3284 24.9185C18.8928 25.0787 19.1751 25.1588 19.588 25.16C20.0462 25.1614 20.6667 25 21.0662 24.7756C21.4263 24.5733 21.6911 24.3085 22.2207 23.7789L22.3783 23.6213C22.9098 23.0898 23.1755 22.8241 23.3198 22.5387C23.6069 21.9712 23.6069 21.3009 23.3198 20.7333C23.1755 20.448 22.9098 20.1822 22.3783 19.6508L22.1835 19.4559C21.8339 19.1063 21.6591 18.9315 21.4833 18.8172C20.8204 18.3862 19.9658 18.3862 19.3029 18.8172C19.1271 18.9315 18.9523 19.1063 18.6027 19.4559C18.4884 19.5702 18.4313 19.6274 18.3644 19.6752C18.127 19.8453 17.7828 19.904 17.5024 19.8222C17.4235 19.7992 17.3612 19.7693 17.2365 19.7094C15.7869 19.0134 14.4282 18.0646 13.2266 16.8631Z" stroke="#5F5C5C" stroke-width="1.5" stroke-linecap="round" stroke-linejoin="round"/>
</svg>
