<svg width="30" height="30" viewBox="0 0 30 30" fill="none" xmlns="http://www.w3.org/2000/svg">
<rect width="30" height="30" rx="2" fill="white"/>
<path d="M15.0004 18L15.0004 25M11.0004 10.3081V12.4388C11.0004 12.6468 11.0004 12.7508 10.98 12.8503C10.9619 12.9385 10.9319 13.0239 10.8909 13.1042C10.8447 13.1946 10.7798 13.2758 10.6498 13.4383L9.08004 15.4005C8.4143 16.2327 8.08143 16.6487 8.08106 16.9989C8.08073 17.3035 8.21919 17.5916 8.4572 17.7815C8.73088 18 9.26373 18 10.3294 18H19.6714C20.7371 18 21.27 18 21.5437 17.7815C21.7817 17.5916 21.9201 17.3035 21.9198 16.9989C21.9194 16.6487 21.5866 16.2327 20.9208 15.4005L19.351 13.4383C19.2211 13.2758 19.1561 13.1946 19.1099 13.1042C19.0689 13.0239 19.039 12.9385 19.0208 12.8503C19.0004 12.7508 19.0004 12.6468 19.0004 12.4388V10.3081C19.0004 10.193 19.0004 10.1354 19.0069 10.0787C19.0127 10.0282 19.0223 9.97833 19.0357 9.92937C19.0507 9.87424 19.0721 9.8208 19.1149 9.71391L20.1227 7.19423C20.4168 6.45914 20.5638 6.09159 20.5025 5.79655C20.4489 5.53853 20.2956 5.31211 20.0759 5.1665C19.8247 5 19.4289 5 18.6372 5H11.3637C10.572 5 10.1761 5 9.92494 5.1665C9.70529 5.31211 9.55199 5.53853 9.49838 5.79655C9.43707 6.09159 9.58408 6.45914 9.87812 7.19423L10.886 9.71391C10.9287 9.8208 10.9501 9.87424 10.9652 9.92937C10.9785 9.97833 10.9881 10.0282 10.9939 10.0787C11.0004 10.1354 11.0004 10.193 11.0004 10.3081Z" stroke="#5F5C5C" stroke-width="1.5" stroke-linecap="round" stroke-linejoin="round"/>
</svg>
