<svg width="30" height="30" viewBox="0 0 30 30" fill="none" xmlns="http://www.w3.org/2000/svg">
<rect width="30" height="30" rx="2" fill="white"/>
<path d="M16.1028 6.64636C16.4147 5.91866 16.5706 5.55481 16.8226 5.38953C17.0429 5.245 17.3114 5.19329 17.5697 5.24565C17.865 5.30552 18.145 5.58543 18.7048 6.14526L23.8479 11.2884C24.4077 11.8482 24.6877 12.1281 24.7475 12.4235C24.7999 12.6818 24.7482 12.9503 24.6037 13.1706C24.4384 13.4226 24.0745 13.5785 23.3468 13.8904L20.8525 14.9594C20.7466 15.0048 20.6937 15.0274 20.6441 15.0558C20.6001 15.081 20.558 15.1095 20.5182 15.141C20.4735 15.1766 20.4328 15.2173 20.3514 15.2987L18.7905 16.8596C18.6632 16.9869 18.5995 17.0505 18.5489 17.1231C18.504 17.1875 18.4668 17.2569 18.4382 17.33C18.4059 17.4123 18.3882 17.5006 18.3529 17.6771L17.62 21.3416C17.4296 22.2939 17.3343 22.7701 17.0833 22.9928C16.8646 23.1869 16.5719 23.2755 16.2823 23.2354C15.9498 23.1893 15.6064 22.8459 14.9197 22.1592L7.83399 15.0735C7.14728 14.3867 6.80392 14.0434 6.75783 13.7109C6.71768 13.4213 6.80629 13.1286 7.00036 12.9099C7.22312 12.6588 7.69927 12.5636 8.65158 12.3732L12.316 11.6403C12.4926 11.6049 12.5809 11.5873 12.6632 11.555C12.7363 11.5263 12.8057 11.4892 12.8701 11.4443C12.9426 11.3937 13.0063 11.33 13.1336 11.2027L14.6945 9.64181C14.7759 9.56041 14.8166 9.51971 14.8522 9.47496C14.8837 9.43522 14.9122 9.39313 14.9374 9.34905C14.9657 9.29944 14.9884 9.24653 15.0338 9.14071L16.1028 6.64636Z" fill="#5F5C5C"/>
<path d="M11.3768 18.6163L5.71997 24.2732M14.6945 9.64181L13.1336 11.2027C13.0063 11.33 12.9426 11.3937 12.8701 11.4443C12.8057 11.4892 12.7363 11.5263 12.6632 11.555C12.5809 11.5873 12.4926 11.6049 12.316 11.6403L8.65158 12.3732C7.69927 12.5636 7.22312 12.6588 7.00036 12.9099C6.80629 13.1286 6.71768 13.4213 6.75783 13.7109C6.80392 14.0434 7.14728 14.3867 7.83399 15.0735L14.9197 22.1592C15.6064 22.8459 15.9498 23.1893 16.2823 23.2354C16.5719 23.2755 16.8646 23.1869 17.0833 22.9928C17.3343 22.7701 17.4296 22.2939 17.62 21.3416L18.3529 17.6771C18.3882 17.5006 18.4059 17.4123 18.4382 17.33C18.4668 17.2569 18.504 17.1875 18.5489 17.1231C18.5995 17.0505 18.6632 16.9869 18.7905 16.8596L20.3514 15.2987C20.4328 15.2173 20.4735 15.1766 20.5182 15.141C20.558 15.1095 20.6001 15.081 20.6441 15.0558C20.6937 15.0274 20.7466 15.0048 20.8525 14.9594L23.3468 13.8904C24.0745 13.5785 24.4384 13.4226 24.6037 13.1706C24.7482 12.9503 24.7999 12.6818 24.7475 12.4235C24.6877 12.1281 24.4077 11.8482 23.8479 11.2884L18.7048 6.14526C18.145 5.58543 17.865 5.30552 17.5697 5.24565C17.3114 5.19329 17.0429 5.245 16.8226 5.38953C16.5706 5.55481 16.4147 5.91866 16.1028 6.64636L15.0338 9.14071C14.9884 9.24653 14.9657 9.29944 14.9374 9.34905C14.9122 9.39313 14.8837 9.43522 14.8522 9.47496C14.8166 9.51971 14.7759 9.56041 14.6945 9.64181Z" stroke="#5F5C5C" stroke-linecap="round" stroke-linejoin="round"/>
</svg>
