<svg width="30" height="30" viewBox="0 0 30 30" fill="none" xmlns="http://www.w3.org/2000/svg">
<rect width="30" height="30" rx="2" fill="white"/>
<path d="M11.3767 18.6163L5.71985 24.2732M14.6944 9.64181L13.1335 11.2027C13.0062 11.33 12.9425 11.3937 12.87 11.4443C12.8056 11.4892 12.7362 11.5263 12.6631 11.555C12.5808 11.5873 12.4925 11.6049 12.3159 11.6403L8.65145 12.3732C7.69915 12.5636 7.223 12.6588 7.00024 12.9099C6.80617 13.1286 6.71755 13.4213 6.75771 13.7109C6.8038 14.0434 7.14715 14.3867 7.83387 15.0735L14.9196 22.1592C15.6063 22.8459 15.9497 23.1893 16.2821 23.2354C16.5718 23.2755 16.8645 23.1869 17.0832 22.9928C17.3342 22.7701 17.4294 22.2939 17.6199 21.3416L18.3528 17.6771C18.3881 17.5006 18.4058 17.4123 18.4381 17.33C18.4667 17.2569 18.5039 17.1875 18.5488 17.1231C18.5994 17.0505 18.663 16.9869 18.7904 16.8596L20.3512 15.2987C20.4326 15.2173 20.4734 15.1766 20.5181 15.141C20.5578 15.1095 20.5999 15.081 20.644 15.0558C20.6936 15.0274 20.7465 15.0048 20.8523 14.9594L23.3467 13.8904C24.0744 13.5785 24.4383 13.4226 24.6035 13.1706C24.7481 12.9503 24.7998 12.6818 24.7474 12.4235C24.6875 12.1281 24.4076 11.8482 23.8478 11.2884L18.7047 6.14526C18.1448 5.58543 17.8649 5.30552 17.5696 5.24565C17.3113 5.19329 17.0428 5.245 16.8225 5.38953C16.5705 5.55481 16.4145 5.91866 16.1027 6.64636L15.0337 9.14071C14.9883 9.24653 14.9656 9.29944 14.9373 9.34905C14.9121 9.39313 14.8836 9.43522 14.852 9.47496C14.8165 9.51971 14.7758 9.56041 14.6944 9.64181Z" stroke="#5F5C5C" stroke-width="1.5" stroke-linecap="round" stroke-linejoin="round"/>
</svg>
