<svg width="30" height="30" viewBox="0 0 30 30" fill="none" xmlns="http://www.w3.org/2000/svg">
<g clip-path="url(#clip0_5568_213600)">
<path d="M0 15C0 21.4494 4.07063 26.9476 9.78252 29.0669L11.0869 14.9999L9.78252 0.932983C4.07063 3.05244 0 8.55052 0 15Z" fill="#6DA544"/>
<path d="M29.9997 15C29.9997 6.71578 23.2839 0 14.9997 0C13.1649 0 11.4073 0.330059 9.78223 0.932988V29.067C11.4073 29.67 13.1649 30 14.9997 30C23.2839 30 29.9997 23.2842 29.9997 15Z" fill="#D80027"/>
<path d="M9.78279 20.2173C12.6643 20.2173 15.0002 17.8814 15.0002 15C15.0002 12.1185 12.6643 9.78259 9.78279 9.78259C6.90132 9.78259 4.56543 12.1185 4.56543 15C4.56543 17.8814 6.90132 20.2173 9.78279 20.2173Z" fill="#FFDA44"/>
<path d="M6.84766 12.3912V15.6521C6.84766 17.2729 8.16156 18.5869 9.78244 18.5869C11.4033 18.5869 12.7172 17.273 12.7172 15.6521V12.3912H6.84766Z" fill="#D80027"/>
<path d="M9.78297 16.6305C9.24355 16.6305 8.80469 16.1916 8.80469 15.6522V14.3479H10.7612V15.6523C10.7612 16.1916 10.3223 16.6305 9.78297 16.6305Z" fill="#F0F0F0"/>
</g>
<rect x="0.5" y="0.5" width="29" height="29" rx="14.5" stroke="#D7D7D7"/>
<defs>
<clipPath id="clip0_5568_213600">
<rect width="30" height="30" rx="15" fill="white"/>
</clipPath>
</defs>
</svg>
