<svg width="30" height="30" viewBox="0 0 30 30" fill="none" xmlns="http://www.w3.org/2000/svg">
<g clip-path="url(#clip0_5568_213606)">
<path d="M15 30C23.2843 30 30 23.2843 30 15C30 6.71573 23.2843 0 15 0C6.71573 0 0 6.71573 0 15C0 23.2843 6.71573 30 15 30Z" fill="#F0F0F0"/>
<path d="M14.9997 0C10.0923 0 5.73559 2.35682 2.99902 6H27.0003C24.2638 2.35682 19.907 0 14.9997 0Z" fill="#D80027"/>
<path d="M14.9997 30C19.907 30 24.2638 27.6432 27.0003 24H2.99902C5.73559 27.6432 10.0923 30 14.9997 30Z" fill="#D80027"/>
<path d="M0 15C0 16.0274 0.103594 17.0307 0.30041 18H29.6997C29.8965 17.0307 30 16.0274 30 15C30 13.9726 29.8964 12.9693 29.6996 12H0.30041C0.103594 12.9693 0 13.9726 0 15H0Z" fill="#D80027"/>
<path d="M4.39339 4.39331C-1.46446 10.2512 -1.46446 19.7487 4.39339 25.6066C6.81407 23.1859 9.14218 20.8578 15 15L4.39339 4.39331Z" fill="#0052B4"/>
<path d="M6.07045 11.0869L7.04164 14.0761H10.185L7.64211 15.9237L8.61324 18.913L6.07045 17.0655L3.52754 18.913L4.49891 15.9237L1.95605 14.0761H5.09914L6.07045 11.0869Z" fill="#F0F0F0"/>
</g>
<rect x="0.5" y="0.5" width="29" height="29" rx="14.5" stroke="#D7D7D7"/>
<defs>
<clipPath id="clip0_5568_213606">
<rect width="30" height="30" rx="15" fill="white"/>
</clipPath>
</defs>
</svg>
