<svg width="30" height="30" viewBox="0 0 30 30" fill="none" xmlns="http://www.w3.org/2000/svg">
<g clip-path="url(#clip0_5568_213614)">
<path d="M15 30C23.2843 30 30 23.2843 30 15C30 6.71573 23.2843 0 15 0C6.71573 0 0 6.71573 0 15C0 23.2843 6.71573 30 15 30Z" fill="#F0F0F0"/>
<path d="M29.9996 15C29.9996 6.71578 23.2838 0 14.9996 0C12.0652 0 9.32805 0.843457 7.01605 2.29986L10.3039 3.6968L5.86914 5.58105L10.3039 7.46525L5.86914 9.34939L10.3039 11.2335L5.86914 13.1173L10.3039 15.0011L5.86914 16.8852L10.3039 18.7692L5.86914 20.6531L10.3039 22.5371L5.86914 24.4212L10.3039 26.3051L7.01752 27.7013C9.32922 29.157 12.0658 30 14.9996 30C23.2838 30 29.9996 23.2842 29.9996 15Z" fill="#751A46"/>
</g>
<rect x="0.5" y="0.5" width="29" height="29" rx="14.5" stroke="#D7D7D7"/>
<defs>
<clipPath id="clip0_5568_213614">
<rect width="30" height="30" rx="15" fill="white"/>
</clipPath>
</defs>
</svg>
