<svg width="30" height="30" viewBox="0 0 30 30" fill="none" xmlns="http://www.w3.org/2000/svg">
<path d="M16.7528 23.8291C16.205 24.0071 15.6149 24.0071 15.0671 23.8291C14.4443 23.6268 13.9043 23.0867 12.8241 22.0066L5.85212 15.0346C5.53764 14.7201 5.3804 14.5628 5.26795 14.3793C5.16825 14.2167 5.09478 14.0393 5.05024 13.8538C5 13.6445 5 13.4221 5 12.9774L5 8.90932C5 7.89096 5 7.38178 5.19819 6.99282C5.37251 6.65068 5.65068 6.37251 5.99282 6.19819C6.38178 6 6.89096 6 7.90932 6L11.9774 6C12.4221 6 12.6445 6 12.8538 6.05024C13.0393 6.09478 13.2167 6.16825 13.3793 6.26795C13.5628 6.3804 13.7201 6.53764 14.0346 6.85212L17.5206 10.3381M10.455 11.455H10.4641M10.9096 11.455C10.9096 11.706 10.706 11.9095 10.455 11.9095C10.2039 11.9095 10.0004 11.706 10.0004 11.455C10.0004 11.2039 10.2039 11.0004 10.455 11.0004C10.706 11.0004 10.9096 11.2039 10.9096 11.455ZM19.1312 20.9309L19.4279 21.6479C19.516 21.8613 19.6599 22.0427 19.8421 22.1699C20.0243 22.2972 20.2369 22.3649 20.4542 22.3649C20.6715 22.3649 20.8841 22.2972 21.0663 22.1699C21.2484 22.0427 21.3923 21.8613 21.4805 21.6479L21.7771 20.9309C21.8827 20.6764 22.0603 20.4643 22.2847 20.3247C22.5104 20.1848 22.7716 20.1252 23.0307 20.1544L23.7565 20.2375C23.9725 20.262 24.1906 20.2187 24.3842 20.1127C24.5777 20.0068 24.7386 19.8427 24.8471 19.6405C24.9558 19.4383 25.0076 19.2066 24.9962 18.9735C24.9848 18.7403 24.9107 18.5158 24.7828 18.327L24.3531 17.6924C24.2001 17.4648 24.1184 17.1908 24.1197 16.9099C24.1196 16.6299 24.2021 16.357 24.3554 16.1305L24.7851 15.4959C24.9129 15.3071 24.987 15.0826 24.9985 14.8494C25.0099 14.6163 24.9581 14.3846 24.8494 14.1825C24.7408 13.9802 24.58 13.8161 24.3864 13.7102C24.1928 13.6042 23.9748 13.5609 23.7588 13.5854L23.033 13.6685C22.7738 13.6977 22.5127 13.6381 22.2869 13.4982C22.0622 13.3578 21.8845 13.1446 21.7794 12.889L21.4805 12.172C21.3923 11.9586 21.2484 11.7772 21.0663 11.6499C20.8841 11.5227 20.6715 11.4549 20.4542 11.455C20.2369 11.4549 20.0243 11.5227 19.8421 11.6499C19.6599 11.7772 19.516 11.9586 19.4279 12.172L19.1312 12.889C19.0261 13.1446 18.8485 13.3578 18.6237 13.4982C18.398 13.6381 18.1368 13.6977 17.8777 13.6685L17.1496 13.5854C16.9336 13.5609 16.7156 13.6042 16.522 13.7102C16.3284 13.8161 16.1676 13.9802 16.059 14.1825C15.9503 14.3846 15.8985 14.6163 15.9099 14.8494C15.9213 15.0826 15.9955 15.3071 16.1233 15.4959L16.553 16.1305C16.7062 16.357 16.7888 16.6299 16.7887 16.9099C16.7888 17.19 16.7062 17.4629 16.553 17.6894L16.1233 18.324C15.9955 18.5127 15.9213 18.7373 15.9099 18.9705C15.8985 19.2036 15.9503 19.4353 16.059 19.6374C16.1677 19.8396 16.3285 20.0035 16.5221 20.1095C16.7156 20.2154 16.9336 20.2588 17.1496 20.2344L17.8754 20.1514C18.1346 20.1221 18.3957 20.1818 18.6215 20.3217C18.8471 20.4617 19.0256 20.675 19.1312 20.9309ZM21.9759 16.9099C21.9759 17.8137 21.2942 18.5464 20.4533 18.5464C19.6124 18.5464 18.9307 17.8137 18.9307 16.9099C18.9307 16.0061 19.6124 15.2734 20.4533 15.2734C21.2942 15.2734 21.9759 16.0061 21.9759 16.9099Z" stroke="#5F5C5C" stroke-width="1.5" stroke-linecap="round" stroke-linejoin="round"/>
</svg>
