<svg width="30" height="30" viewBox="0 0 30 30" fill="none" xmlns="http://www.w3.org/2000/svg">
<rect width="30" height="30" rx="2" fill="white"/>
<path d="M5 5H6.30616C6.55218 5 6.67519 5 6.77418 5.04524C6.86142 5.08511 6.93535 5.14922 6.98715 5.22995C7.04593 5.32154 7.06333 5.44332 7.09812 5.68686L7.57143 9M7.57143 9L8.62332 16.7314C8.75681 17.7125 8.82355 18.2031 9.0581 18.5723C9.26478 18.8977 9.56108 19.1564 9.91135 19.3174C10.3089 19.5 10.8039 19.5 11.7941 19.5H20.352C21.2945 19.5 21.7658 19.5 22.151 19.3304C22.4905 19.1809 22.7818 18.9398 22.9923 18.6342C23.2309 18.2876 23.3191 17.8247 23.4955 16.8988L24.8191 9.94969C24.8812 9.62381 24.9122 9.46087 24.8672 9.3335C24.8278 9.22177 24.7499 9.12768 24.6475 9.06802C24.5308 9 24.365 9 24.0332 9H7.57143ZM13 24C13 24.5523 12.5523 25 12 25C11.4477 25 11 24.5523 11 24C11 23.4477 11.4477 23 12 23C12.5523 23 13 23.4477 13 24ZM21 24C21 24.5523 20.5523 25 20 25C19.4477 25 19 24.5523 19 24C19 23.4477 19.4477 23 20 23C20.5523 23 21 23.4477 21 24Z" stroke="#5F5C5C" stroke-width="1.5" stroke-linecap="round" stroke-linejoin="round"/>
</svg>
