<svg width="30" height="30" viewBox="0 0 30 30" fill="none" xmlns="http://www.w3.org/2000/svg">
<g clip-path="url(#clip0_5568_213617)">
<path d="M15 30C23.2843 30 30 23.2843 30 15C30 6.71573 23.2843 0 15 0C6.71573 0 0 6.71573 0 15C0 23.2843 6.71573 30 15 30Z" fill="#FCFCFC"/>
<path d="M19.5648 12.3914V13.6957H21.3549C20.6079 14.734 19.6128 15.5816 18.4566 16.1524C18.16 15.8442 17.7436 15.6522 17.2821 15.6522C16.5043 15.6522 15.8542 16.1971 15.6913 16.9259C15.4634 16.946 15.2327 16.9566 14.9996 16.9566C14.7664 16.9566 14.5357 16.9459 14.3078 16.9259C14.145 16.1971 13.4948 15.6522 12.717 15.6522C12.2556 15.6522 11.8393 15.8442 11.5425 16.1524C10.3864 15.5817 9.39133 14.7339 8.64426 13.6957H10.4344V12.3914H5.86914C5.86914 17.4339 9.95705 21.5218 14.9996 21.5218C20.0422 21.5218 24.13 17.4339 24.13 12.3914H19.5648Z" fill="#D80027"/>
</g>
<rect x="0.5" y="0.5" width="29" height="29" rx="14.5" stroke="#D7D7D7"/>
<defs>
<clipPath id="clip0_5568_213617">
<rect width="30" height="30" rx="15" fill="white"/>
</clipPath>
</defs>
</svg>
