<svg width="30" height="31" viewBox="0 0 30 31" fill="none" xmlns="http://www.w3.org/2000/svg">
<g clip-path="url(#clip0_5568_213620)">
<path d="M15 30.0576C23.2843 30.0576 30 23.3419 30 15.0576C30 6.77335 23.2843 0.0576172 15 0.0576172C6.71573 0.0576172 0 6.77335 0 15.0576C0 23.3419 6.71573 30.0576 15 30.0576Z" fill="#FFDA44"/>
<path d="M17.2812 29.8852C19.7208 29.513 21.9664 28.5523 23.8704 27.1537L15 15.0576L17.2812 29.8852Z" fill="#D80027"/>
<path d="M12.7192 0.22998C10.2796 0.602168 8.03395 1.56287 6.12988 2.96145L15.0004 15.0575L12.7192 0.22998Z" fill="#D80027"/>
<path d="M6.12988 27.1535C8.03383 28.5521 10.2795 29.5128 12.719 29.8851L15.0004 15.0575L6.12988 27.1535Z" fill="#D80027"/>
<path d="M2.90432 6.18701C1.50568 8.09107 0.545098 10.3367 0.172852 12.7763L15.0004 15.0575L2.90432 6.18701Z" fill="#D80027"/>
<path d="M0.172852 17.3387C0.545039 19.7783 1.50574 22.0239 2.90437 23.9279L15.0004 15.0575L0.172852 17.3387Z" fill="#D80027"/>
<path d="M29.8276 12.7762C29.4553 10.3367 28.4947 8.09102 27.096 6.18701L15 15.0575L29.8276 12.7762Z" fill="#D80027"/>
<path d="M23.8704 2.96139C21.9664 1.56281 19.7208 0.602168 17.2812 0.22998L15 15.0575L23.8704 2.96139Z" fill="#D80027"/>
<path d="M27.0962 23.9281C28.4947 22.0241 29.4554 19.7783 29.8277 17.3388L15 15.0576L27.0962 23.9281Z" fill="#D80027"/>
<path d="M15.0006 20.2749C17.882 20.2749 20.2179 17.939 20.2179 15.0576C20.2179 12.1761 17.882 9.84021 15.0006 9.84021C12.1191 9.84021 9.7832 12.1761 9.7832 15.0576C9.7832 17.939 12.1191 20.2749 15.0006 20.2749Z" fill="#D80027"/>
<path d="M15 18.9707C17.1611 18.9707 18.913 17.2187 18.913 15.0576C18.913 12.8965 17.1611 11.1445 15 11.1445C12.8389 11.1445 11.0869 12.8965 11.0869 15.0576C11.0869 17.2187 12.8389 18.9707 15 18.9707Z" fill="#FFDA44"/>
</g>
<rect x="0.5" y="0.557617" width="29" height="29" rx="14.5" stroke="#D7D7D7"/>
<defs>
<clipPath id="clip0_5568_213620">
<rect y="0.0576172" width="30" height="30" rx="15" fill="white"/>
</clipPath>
</defs>
</svg>
