<svg width="30" height="31" viewBox="0 0 30 31" fill="none" xmlns="http://www.w3.org/2000/svg">
<g clip-path="url(#clip0_5568_213633)">
<path d="M8.13106 28.3961L19.1505 19.2082L28.3384 8.18874C26.9099 5.42031 24.6448 3.15396 21.8775 1.72363L10.8493 10.9071L1.66602 21.9351C3.09623 24.7025 5.36257 26.9676 8.13106 28.3961V28.3961Z" fill="#FFDA44"/>
<path d="M25.607 25.6647C30.3394 20.9323 31.2479 13.8251 28.3343 8.17981L8.12207 28.392C13.7673 31.3055 20.8746 30.3971 25.607 25.6647Z" fill="#D80027"/>
<path d="M4.39295 4.45044C-0.339421 9.18282 -1.24786 16.2901 1.66559 21.9354L21.8779 1.72314C16.2326 -1.19042 9.12533 -0.281871 4.39295 4.45044V4.45044Z" fill="#6DA544"/>
</g>
<rect x="0.5" y="0.557617" width="29" height="29" rx="14.5" stroke="#D7D7D7"/>
<defs>
<clipPath id="clip0_5568_213633">
<rect y="0.0576172" width="30" height="30" rx="15" fill="white"/>
</clipPath>
</defs>
</svg>
