<svg width="30" height="31" viewBox="0 0 30 31" fill="none" xmlns="http://www.w3.org/2000/svg">
<g clip-path="url(#clip0_5568_213637)">
<path d="M20.2176 0.979805C18.5926 0.376934 16.835 0.046875 15.0002 0.046875C13.1654 0.0468164 11.4079 0.376934 9.78287 0.979805L8.47852 15.0468L9.78287 29.1138C11.4078 29.7169 13.1654 30.0469 15.0002 30.0469C16.835 30.0469 18.5926 29.7169 20.2176 29.1138L21.5219 15.0469L20.2176 0.979805Z" fill="#FFDA44"/>
<path d="M30.0004 15.0469C30.0004 8.59746 25.9298 3.09919 20.2178 0.979858V29.114C25.9298 26.9944 30.0004 21.4964 30.0004 15.0469Z" fill="#D80027"/>
<path d="M0 15.0469C0 21.4965 4.07063 26.9945 9.78252 29.114L9.78258 0.97998C4.07062 3.09932 0 8.5974 0 15.0469H0Z" fill="#0052B4"/>
</g>
<rect x="0.5" y="0.546875" width="29" height="29" rx="14.5" stroke="#D7D7D7"/>
<defs>
<clipPath id="clip0_5568_213637">
<rect y="0.046875" width="30" height="30" rx="15" fill="white"/>
</clipPath>
</defs>
</svg>
