<svg width="30" height="31" viewBox="0 0 30 31" fill="none" xmlns="http://www.w3.org/2000/svg">
<g clip-path="url(#clip0_5568_213641)">
<path d="M15 30.0576C23.2843 30.0576 30 23.3419 30 15.0576C30 6.77335 23.2843 0.0576172 15 0.0576172C6.71573 0.0576172 0 6.77335 0 15.0576C0 23.3419 6.71573 30.0576 15 30.0576Z" fill="#F0F0F0"/>
<path d="M29.067 20.2749C29.67 18.65 30 16.8924 30 15.0576C30 13.2228 29.67 11.4652 29.067 9.84021H0.932988C0.330059 11.4652 0 13.2228 0 15.0576C0 16.8924 0.330059 18.65 0.932988 20.2749L15 21.5793L29.067 20.2749Z" fill="#0052B4"/>
<path d="M14.9996 30.0575C21.4491 30.0575 26.9472 25.9869 29.0666 20.2749H0.932617C3.05201 25.9869 8.55016 30.0575 14.9996 30.0575Z" fill="#D80027"/>
</g>
<rect x="0.5" y="0.557617" width="29" height="29" rx="14.5" stroke="#D7D7D7"/>
<defs>
<clipPath id="clip0_5568_213641">
<rect y="0.0576172" width="30" height="30" rx="15" fill="white"/>
</clipPath>
</defs>
</svg>
