<svg width="30" height="31" viewBox="0 0 30 31" fill="none" xmlns="http://www.w3.org/2000/svg">
<g clip-path="url(#clip0_5568_213645)">
<path d="M0 15.0586C0 17.6573 0.661113 20.1014 1.82385 22.2326L15 23.5369L28.1762 22.2326C29.3389 20.1014 30 17.6573 30 15.0586L15 13.7543L0 15.0586Z" fill="#FFDA44"/>
<path d="M28.1762 7.88467C25.6321 3.22201 20.6856 0.0585938 15 0.0585938C9.31436 0.0585938 4.36793 3.22201 1.82385 7.88467C0.661113 10.0158 0 12.46 0 15.0586H30C30 12.46 29.3389 10.0158 28.1762 7.88467Z" fill="#338AF3"/>
<path d="M15.0004 30.0586C20.686 30.0586 25.6324 26.8952 28.1765 22.2325H1.82422C4.3683 26.8952 9.31473 30.0586 15.0004 30.0586Z" fill="#496E2D"/>
<path d="M16.9561 8.83719L18.788 9.69893L17.8125 11.4731L19.8018 11.0926L20.0538 13.1021L21.4394 11.6241L22.825 13.1021L23.077 11.0926L25.0663 11.473L24.0908 9.69887L25.9227 8.83719L24.0907 7.97557L25.0663 6.20135L23.0771 6.58186L22.8249 4.57239L21.4394 6.05036L20.0538 4.57239L19.8018 6.58186L17.8125 6.20135L18.788 7.97563L16.9561 8.83719Z" fill="#FFDA44"/>
</g>
<rect x="0.5" y="0.558594" width="29" height="29" rx="14.5" stroke="#D7D7D7"/>
<defs>
<clipPath id="clip0_5568_213645">
<rect y="0.0585938" width="30" height="30" rx="15" fill="white"/>
</clipPath>
</defs>
</svg>
