<svg width="30" height="31" viewBox="0 0 30 31" fill="none" xmlns="http://www.w3.org/2000/svg">
<g clip-path="url(#clip0_5568_213650)">
<path d="M15 30.0352C23.2843 30.0352 30 23.3194 30 15.0352C30 6.75088 23.2843 0.0351562 15 0.0351562C6.71573 0.0351562 0 6.75088 0 15.0352C0 23.3194 6.71573 30.0352 15 30.0352Z" fill="#F0F0F0"/>
<path d="M15 0.0350397C14.986 0.0244929 -0.00398358 15.0311 7.94152e-07 15.035C7.94152e-07 6.75082 6.71578 0.0350397 15 0.0350397Z" fill="#D80027"/>
<path d="M15 0.0351618C15.014 0.0246149 30.004 15.0312 30 15.0352C30 6.75094 23.2842 0.0351618 15 0.0351618Z" fill="#D80027"/>
<path d="M15 30.0352C14.986 30.0457 -0.00398358 15.0391 7.94152e-07 15.0352C7.94152e-07 23.3194 6.71578 30.0352 15 30.0352Z" fill="#0052B4"/>
<path d="M15 30.0352C15.014 30.0457 30.004 15.0391 30 15.0352C30 23.3194 23.2842 30.0352 15 30.0352Z" fill="#0052B4"/>
<path d="M14.9999 7.86121L16.6187 12.8434H21.8573L17.6192 15.9225L19.238 20.9047L14.9999 17.8255L10.7618 20.9047L12.3807 15.9225L8.14258 12.8434H13.3811L14.9999 7.86121Z" fill="#FFDA44"/>
</g>
<rect x="0.5" y="0.535156" width="29" height="29" rx="14.5" stroke="#D7D7D7"/>
<defs>
<clipPath id="clip0_5568_213650">
<rect y="0.0351562" width="30" height="30" rx="15" fill="white"/>
</clipPath>
</defs>
</svg>
