<svg width="30" height="30" viewBox="0 0 30 30" fill="none" xmlns="http://www.w3.org/2000/svg">
<path d="M9 24H12M18 24H21M20.5 9.5V17.5M6 9.2L6 17.8C6 18.9201 6 19.4802 6.21799 19.908C6.40973 20.2843 6.71569 20.5903 7.09202 20.782C7.51984 21 8.07989 21 9.2 21L20.8 21C21.9201 21 22.4802 21 22.908 20.782C23.2843 20.5903 23.5903 20.2843 23.782 19.908C24 19.4802 24 18.9201 24 17.8V9.2C24 8.0799 24 7.51984 23.782 7.09202C23.5903 6.7157 23.2843 6.40974 22.908 6.21799C22.4802 6 21.9201 6 20.8 6L9.2 6C8.0799 6 7.51984 6 7.09202 6.21799C6.7157 6.40973 6.40973 6.71569 6.21799 7.09202C6 7.51984 6 8.07989 6 9.2ZM14.5 13.5C14.5 14.8807 13.3807 16 12 16C10.6193 16 9.5 14.8807 9.5 13.5C9.5 12.1193 10.6193 11 12 11C13.3807 11 14.5 12.1193 14.5 13.5Z" stroke="#5F5C5C" stroke-width="1.5" stroke-linecap="round" stroke-linejoin="round"/>
</svg>
