<svg width="30" height="31" viewBox="0 0 30 31" fill="none" xmlns="http://www.w3.org/2000/svg">
<g clip-path="url(#clip0_5568_213659)">
<path d="M1.4884 8.51346C0.534844 10.4855 0 12.6978 0 15.0352C0 17.3725 0.534844 19.5849 1.4884 21.5569L15 22.8613L28.5116 21.5569C29.4652 19.5849 30 17.3725 30 15.0352C30 12.6978 29.4652 10.4855 28.5116 8.51346L15 7.20911L1.4884 8.51346Z" fill="#F0F0F0"/>
<path d="M1.48926 21.5569C3.91539 26.5743 9.05348 30.0352 15.0003 30.0352C20.9472 30.0352 26.0853 26.5743 28.5114 21.5569H1.48926Z" fill="#496E2D"/>
<path d="M1.48926 8.51344H28.5114C26.0853 3.496 20.9472 0.0351562 15.0003 0.0351562C9.05342 0.0351562 3.91539 3.496 1.48926 8.51344Z" fill="black"/>
<path d="M4.39339 4.42847C-1.46446 10.2863 -1.46446 19.7838 4.39339 25.6417C6.81407 23.2211 9.14218 20.893 15 15.0351L4.39339 4.42847Z" fill="#D80027"/>
<path d="M18.9126 15.0352C18.9126 12.8498 20.4485 11.024 22.4996 10.5761C22.1843 10.5073 21.8572 10.47 21.5213 10.47C18.9999 10.47 16.9561 12.5138 16.9561 15.0352C16.9561 17.5565 18.9999 19.6004 21.5213 19.6004C21.8572 19.6004 22.1843 19.5631 22.4996 19.4942C20.4485 19.0463 18.9126 17.2206 18.9126 15.0352Z" fill="#D80027"/>
<path d="M22.6921 12.1003L23.3397 14.0934H25.4351L23.7399 15.3249L24.3875 17.3178L22.6921 16.0861L20.9969 17.3178L21.6446 15.3249L19.9492 14.0934H22.0446L22.6921 12.1003Z" fill="#D80027"/>
</g>
<rect x="0.5" y="0.535156" width="29" height="29" rx="14.5" stroke="#D7D7D7"/>
<defs>
<clipPath id="clip0_5568_213659">
<rect y="0.0351562" width="30" height="30" rx="15" fill="white"/>
</clipPath>
</defs>
</svg>
