<svg width="30" height="30" viewBox="0 0 30 30" fill="none" xmlns="http://www.w3.org/2000/svg">
<path d="M12 12H12.01M18 18H18.01M19 11L11 19M10.3338 6.8187C11.1376 6.75455 11.9007 6.43846 12.5145 5.91542C13.9467 4.69486 16.0533 4.69486 17.4855 5.91542C18.0993 6.43846 18.8624 6.75455 19.6662 6.8187C21.5421 6.96839 23.0316 8.45794 23.1813 10.3338C23.2455 11.1376 23.5615 11.9007 24.0846 12.5145C25.3051 13.9467 25.3051 16.0533 24.0846 17.4855C23.5615 18.0993 23.2455 18.8624 23.1813 19.6662C23.0316 21.5421 21.5421 23.0316 19.6662 23.1813C18.8624 23.2455 18.0993 23.5615 17.4855 24.0846C16.0533 25.3051 13.9467 25.3051 12.5145 24.0846C11.9007 23.5615 11.1376 23.2455 10.3338 23.1813C8.45794 23.0316 6.96839 21.5421 6.8187 19.6662C6.75455 18.8624 6.43846 18.0993 5.91542 17.4855C4.69486 16.0533 4.69486 13.9467 5.91542 12.5145C6.43846 11.9007 6.75455 11.1376 6.8187 10.3338C6.96839 8.45794 8.45794 6.96839 10.3338 6.8187ZM12.5 12C12.5 12.2761 12.2761 12.5 12 12.5C11.7239 12.5 11.5 12.2761 11.5 12C11.5 11.7239 11.7239 11.5 12 11.5C12.2761 11.5 12.5 11.7239 12.5 12ZM18.5 18C18.5 18.2761 18.2761 18.5 18 18.5C17.7239 18.5 17.5 18.2761 17.5 18C17.5 17.7239 17.7239 17.5 18 17.5C18.2761 17.5 18.5 17.7239 18.5 18Z" stroke="#5F5C5C" stroke-width="1.5" stroke-linecap="round" stroke-linejoin="round"/>
</svg>
