<svg width="30" height="30" viewBox="0 0 30 30" fill="none" xmlns="http://www.w3.org/2000/svg">
<path d="M12 12H12.01M18 18H18.01M19 11L11 19M20.9012 7.99851C21.1071 8.49653 21.5024 8.8924 22.0001 9.09907L23.7452 9.82198C24.2433 10.0283 24.639 10.424 24.8453 10.9221C25.0516 11.4201 25.0516 11.9797 24.8453 12.4778L24.1229 14.2218C23.9165 14.7201 23.9162 15.2803 24.1236 15.7783L24.8447 17.5218C24.9469 17.7685 24.9996 18.0329 24.9996 18.2999C24.9997 18.567 24.9471 18.8314 24.8449 19.0781C24.7427 19.3249 24.5929 19.549 24.4041 19.7378C24.2152 19.9266 23.991 20.0764 23.7443 20.1785L22.0004 20.9009C21.5023 21.1068 21.1065 21.5021 20.8998 21.9998L20.1769 23.745C19.9706 24.2431 19.575 24.6388 19.0769 24.8451C18.5789 25.0514 18.0193 25.0514 17.5212 24.8451L15.7773 24.1227C15.2792 23.9169 14.7198 23.9173 14.2221 24.1239L12.4769 24.8458C11.9791 25.0516 11.42 25.0514 10.9224 24.8453C10.4247 24.6391 10.0293 24.2439 9.82281 23.7464L9.09972 22.0006C8.8938 21.5026 8.49854 21.1067 8.00085 20.9L6.25566 20.1771C5.75783 19.9709 5.36226 19.5754 5.15588 19.0777C4.94951 18.5799 4.94923 18.0205 5.1551 17.5225L5.87746 15.7786C6.08325 15.2805 6.08283 14.7211 5.8763 14.2233L5.15497 12.4768C5.0527 12.2301 5.00004 11.9657 5 11.6986C4.99996 11.4316 5.05253 11.1672 5.15472 10.9204C5.25691 10.6737 5.40671 10.4496 5.59557 10.2608C5.78442 10.072 6.00862 9.92222 6.25537 9.8201L7.9993 9.09772C8.49687 8.89197 8.89248 8.4972 9.0993 8.00006L9.82218 6.25481C10.0285 5.75674 10.4242 5.36103 10.9222 5.15473C11.4203 4.94842 11.9799 4.94842 12.4779 5.15473L14.2218 5.87712C14.7199 6.08291 15.2793 6.08249 15.7771 5.87595L17.523 5.15585C18.021 4.94966 18.5804 4.9497 19.0784 5.15597C19.5763 5.36223 19.972 5.75783 20.1783 6.25576L20.9014 8.00153L20.9012 7.99851ZM12.5 12C12.5 12.2761 12.2761 12.5 12 12.5C11.7239 12.5 11.5 12.2761 11.5 12C11.5 11.7239 11.7239 11.5 12 11.5C12.2761 11.5 12.5 11.7239 12.5 12ZM18.5 18C18.5 18.2761 18.2761 18.5 18 18.5C17.7239 18.5 17.5 18.2761 17.5 18C17.5 17.7239 17.7239 17.5 18 17.5C18.2761 17.5 18.5 17.7239 18.5 18Z" stroke="#5F5C5C" stroke-width="1.5" stroke-linecap="round" stroke-linejoin="round"/>
</svg>
