<svg width="30" height="31" viewBox="0 0 30 31" fill="none" xmlns="http://www.w3.org/2000/svg">
<g clip-path="url(#clip0_5568_213667)">
<path d="M30 15.0352C30 23.3194 23.2842 30.0352 15 30.0352C6.71578 30.0352 0 23.3194 0 15.0352C5.15215 9.88301 9.52172 5.51344 15 0.0351562C23.2842 0.0351562 30 6.75094 30 15.0352Z" fill="#D80027"/>
<path d="M15 15.0352C15 6.75094 15 5.7743 15 0.0351562C6.71578 0.0351562 0 6.75094 0 15.0352H15Z" fill="#0052B4"/>
<path d="M12.0149 9.81787L12.2578 10.5652H13.0436L12.4078 11.027L12.6507 11.7744L12.0149 11.3125L11.3792 11.7744L11.6221 11.027L10.9863 10.5652H11.7721L12.0149 9.81787Z" fill="#F0F0F0"/>
<path d="M8.06785 3.94824L8.47256 5.19389H9.78225L8.72264 5.96352L9.12746 7.2091L8.06785 6.43924L7.0083 7.2091L7.41307 5.96352L6.35352 5.19389H7.66309L8.06785 3.94824Z" fill="#F0F0F0"/>
<path d="M11.9809 5.25256L12.3856 6.49827H13.6953L12.6357 7.2679L13.0404 8.51348L11.9809 7.74362L10.9214 8.51348L11.3262 7.2679L10.2666 6.49827H11.5762L11.9809 5.25256Z" fill="#F0F0F0"/>
<path d="M8.88816 10.47L9.29293 11.7156H10.6025L9.54295 12.4852L9.94772 13.7308L8.88816 12.961L7.82861 13.7308L8.23338 12.4852L7.17383 11.7156H8.48346L8.88816 10.47Z" fill="#F0F0F0"/>
<path d="M5.45939 7.20911L5.86416 8.45475H7.17379L6.11418 9.22438L6.51895 10.47L5.45939 9.70016L4.3999 10.47L4.80461 9.22438L3.74512 8.45475H5.05469L5.45939 7.20911Z" fill="#F0F0F0"/>
</g>
<rect x="0.5" y="0.535156" width="29" height="29" rx="14.5" stroke="#D7D7D7"/>
<defs>
<clipPath id="clip0_5568_213667">
<rect y="0.0351562" width="30" height="30" rx="15" fill="white"/>
</clipPath>
</defs>
</svg>
