<svg width="30" height="31" viewBox="0 0 30 31" fill="none" xmlns="http://www.w3.org/2000/svg">
<g clip-path="url(#clip0_5568_213676)">
<path d="M30 15.0351C30 23.3193 23.2842 30.0351 15 30.0351C6.71578 30.0351 0 23.3193 0 15.0351C0.652148 15.0351 15 13.0786 15 13.0786L30 15.0351Z" fill="#338AF3"/>
<path d="M0 15.0352C0 6.75094 6.71578 0.0351562 15 0.0351562C23.2842 0.0351562 30 6.75094 30 15.0352" fill="#F0F0F0"/>
<path d="M20.9541 10.3854L15 16.3395L9.04598 10.3854C8.276 11.5284 7.82617 12.9041 7.82617 14.3829V16.3394C7.82617 19.481 9.85615 22.1572 12.6732 23.1258C12.2972 23.8626 12.3606 24.7823 12.9115 25.4699C13.6432 24.8834 14.4008 24.2763 15.0435 23.7614C15.6861 24.2764 16.4437 24.8835 17.1754 25.4699C17.7328 24.7742 17.7916 23.8408 17.4008 23.0996C20.1793 22.11 22.1739 19.4535 22.1739 16.3394V14.383C22.174 12.9041 21.7241 11.5284 20.9541 10.3854V10.3854Z" fill="#6DA544"/>
<path d="M14.9996 21.5569C12.1227 21.5569 9.78223 19.2164 9.78223 16.3395V14.383C9.78223 11.5061 12.1228 9.16565 14.9996 9.16565C17.8764 9.16565 20.217 11.5062 20.217 14.383V16.3395C20.217 19.2164 17.8765 21.5569 14.9996 21.5569Z" fill="#FFDA44"/>
<path d="M18.261 16.3396V14.3831C18.261 12.585 16.7981 11.1222 15.0001 11.1222C13.2021 11.1222 11.7393 12.585 11.7393 14.3831V16.3396L15.0001 16.9917L18.261 16.3396Z" fill="#338AF3"/>
<path d="M11.7393 16.3395C11.7393 18.1375 13.2021 19.6003 15.0001 19.6003C16.7981 19.6003 18.261 18.1375 18.261 16.3395H11.7393Z" fill="#6DA544"/>
<path d="M18.913 9.16556C18.913 8.08503 18.037 7.20905 16.9565 7.20905C16.4552 7.20905 15.9984 7.39772 15.6521 7.70763V6.55685H16.3043V5.25249H15.6521V4.60034H14.3478V5.25249H13.6956V6.55685H14.3478V7.70763C14.0015 7.39772 13.5446 7.20905 13.0434 7.20905C11.9629 7.20905 11.0869 8.08503 11.0869 9.16556C11.0869 9.74487 11.3389 10.2652 11.7391 10.6235V11.7743H18.2608V10.6235C18.661 10.2652 18.913 9.74487 18.913 9.16556V9.16556Z" fill="#FFDA44"/>
</g>
<rect x="0.5" y="0.535156" width="29" height="29" rx="14.5" stroke="#D7D7D7"/>
<defs>
<clipPath id="clip0_5568_213676">
<rect y="0.0351562" width="30" height="30" rx="15" fill="white"/>
</clipPath>
</defs>
</svg>
