<svg width="30" height="31" viewBox="0 0 30 31" fill="none" xmlns="http://www.w3.org/2000/svg">
<g clip-path="url(#clip0_5568_213684)">
<path d="M15 30.0459C23.2843 30.0459 30 23.3302 30 15.0459C30 6.76163 23.2843 0.0458984 15 0.0458984C6.71573 0.0458984 0 6.76163 0 15.0459C0 23.3302 6.71573 30.0459 15 30.0459Z" fill="#FFDA44"/>
<path d="M9.1301 9.82854H29.0666C26.9473 4.11652 21.4491 0.0458984 14.9997 0.0458984C10.8574 0.0458984 7.10785 1.72514 4.39355 4.43979L9.1301 9.82854Z" fill="#6DA544"/>
<path d="M9.1301 20.2633H29.0666C26.9473 25.9753 21.4491 30.0459 14.9997 30.0459C10.8574 30.0459 7.10785 28.3667 4.39355 25.6521L9.1301 20.2633Z" fill="#6DA544"/>
<path d="M4.39339 4.43921C-1.46446 10.2971 -1.46446 19.7946 4.39339 25.6525C6.81407 23.2318 9.14218 20.9037 15 15.0458L4.39339 4.43921Z" fill="#D80027"/>
<path d="M19.0476 12.4373L19.6952 14.4301H21.7906L20.0954 15.6618L20.7429 17.6547L19.0476 16.423L17.3524 17.6547L17.9999 15.6618L16.3047 14.4301H18.4001L19.0476 12.4373Z" fill="black"/>
<path d="M25.5692 12.4371L26.2166 14.43H28.3121L26.6169 15.6617L27.2644 17.6546L25.5692 16.4229L23.8739 17.6546L24.5214 15.6617L22.8262 14.43H24.9216L25.5692 12.4371Z" fill="black"/>
</g>
<rect x="0.5" y="0.545898" width="29" height="29" rx="14.5" stroke="#D7D7D7"/>
<defs>
<clipPath id="clip0_5568_213684">
<rect y="0.0458984" width="30" height="30" rx="15" fill="white"/>
</clipPath>
</defs>
</svg>
