<svg width="30" height="31" viewBox="0 0 30 31" fill="none" xmlns="http://www.w3.org/2000/svg">
<g clip-path="url(#clip0_5568_213692)">
<path d="M15 30.0469C23.2843 30.0469 30 23.3311 30 15.0469C30 6.7626 23.2843 0.046875 15 0.046875C6.71573 0.046875 0 6.7626 0 15.0469C0 23.3311 6.71573 30.0469 15 30.0469Z" fill="#F0F0F0"/>
<path d="M29.873 13.0904H16.9566H16.9566V0.173848C16.3161 0.0904688 15.6631 0.046875 15 0.046875C14.3369 0.046875 13.6839 0.0904688 13.0435 0.173848V13.0903V13.0903H0.126973C0.0435938 13.7308 0 14.3838 0 15.0469C0 15.71 0.0435938 16.3629 0.126973 17.0034H13.0434H13.0434V29.9199C13.6839 30.0033 14.3369 30.0469 15 30.0469C15.6631 30.0469 16.3161 30.0033 16.9565 29.9199V17.0036V17.0034H29.873C29.9564 16.3629 30 15.71 30 15.0469C30 14.3838 29.9564 13.7308 29.873 13.0904V13.0904Z" fill="#D80027"/>
<path d="M22.174 5.26428C20.9584 5.26428 19.937 6.09567 19.6475 7.22079L22.174 7.87293L24.7005 7.22079C24.4109 6.09573 23.3895 5.26428 22.174 5.26428V5.26428Z" fill="black"/>
<path d="M19.5652 11.1338L22.8261 11.7859V10.3994C23.7428 10.1634 24.4643 9.44171 24.7003 8.52507L22.1739 7.87292H18.9131L19.5652 9.82943V11.1338Z" fill="black"/>
<path d="M24.7004 7.22083H18.9131V8.52518V9.82954H19.5652V8.52518H24.7003C24.7539 8.31676 24.7827 8.09821 24.7827 7.87303C24.7827 7.6478 24.7541 7.42924 24.7004 7.22083V7.22083Z" fill="#ACABB1"/>
<path d="M8.47865 5.26416C7.26307 5.26416 6.24172 6.09555 5.95215 7.22066L8.47865 7.87281L11.0052 7.22066C10.7156 6.09561 9.69424 5.26416 8.47865 5.26416Z" fill="black"/>
<path d="M5.86998 11.1338L9.13084 11.7859V10.3994C10.0475 10.1634 10.7691 9.44171 11.005 8.52507L8.47869 7.87292H5.21777L5.86992 9.82943V11.1338H5.86998Z" fill="black"/>
<path d="M11.0052 7.22083H5.21777V8.52518V9.82954H5.86992V8.52518H11.005C11.0586 8.31676 11.0873 8.09821 11.0873 7.87303C11.0873 7.6478 11.0589 7.42924 11.0052 7.22083Z" fill="#ACABB1"/>
<path d="M22.174 18.3077C20.9584 18.3077 19.937 19.1391 19.6475 20.2642L22.174 20.9164L24.7005 20.2642C24.4109 19.1391 23.3895 18.3077 22.174 18.3077V18.3077Z" fill="black"/>
<path d="M19.5652 24.1774L22.8261 24.8295V23.443C23.7428 23.207 24.4643 22.4853 24.7003 21.5687L22.1739 20.9165H18.9131L19.5652 22.873V24.1774Z" fill="black"/>
<path d="M24.7004 20.2643H18.9131V21.5686V22.873H19.5652V21.5686H24.7003C24.7539 21.3602 24.7827 21.1417 24.7827 20.9165C24.7827 20.6913 24.7541 20.4728 24.7004 20.2643V20.2643Z" fill="#ACABB1"/>
<path d="M8.47865 18.3077C7.26307 18.3077 6.24172 19.1391 5.95215 20.2642L8.47865 20.9164L11.0052 20.2642C10.7156 19.1391 9.69424 18.3077 8.47865 18.3077Z" fill="black"/>
<path d="M5.86998 24.1774L9.13084 24.8295V23.443C10.0475 23.207 10.7691 22.4853 11.005 21.5687L8.47869 20.9165H5.21777L5.86992 22.873V24.1774H5.86998Z" fill="black"/>
<path d="M11.0052 20.2642H5.21777V21.5685V22.8729H5.86992V21.5685H11.005C11.0586 21.3601 11.0873 21.1415 11.0873 20.9164C11.0873 20.6912 11.0589 20.4726 11.0052 20.2642Z" fill="#ACABB1"/>
</g>
<rect x="0.5" y="0.546875" width="29" height="29" rx="14.5" stroke="#D7D7D7"/>
<defs>
<clipPath id="clip0_5568_213692">
<rect y="0.046875" width="30" height="30" rx="15" fill="white"/>
</clipPath>
</defs>
</svg>
