<svg width="30" height="31" viewBox="0 0 30 31" fill="none" xmlns="http://www.w3.org/2000/svg">
<g clip-path="url(#clip0_5568_213707)">
<path d="M15 30.0459C23.2843 30.0459 30 23.3302 30 15.0459C30 6.76163 23.2843 0.0458984 15 0.0458984C6.71573 0.0458984 0 6.76163 0 15.0459C0 23.3302 6.71573 30.0459 15 30.0459Z" fill="#6DA544"/>
<path d="M8.47754 17.9807C8.47754 19.0612 9.35352 19.9372 10.434 19.9372H16.3036C16.3036 20.8377 17.0336 21.5676 17.934 21.5676H19.8905C20.791 21.5676 21.521 20.8377 21.521 19.9372V17.9807H8.47754Z" fill="#F0F0F0"/>
<path d="M21.6842 8.52417V13.0894C21.6842 13.8086 21.0991 14.3937 20.3799 14.3937V16.3502C22.1779 16.3502 23.6407 14.8874 23.6407 13.0894V8.52417H21.6842Z" fill="#F0F0F0"/>
<path d="M7.66275 13.0894C7.66275 13.8086 7.07764 14.3937 6.3584 14.3937V16.3502C8.15646 16.3502 9.61926 14.8874 9.61926 13.0894V8.52417H7.66275V13.0894Z" fill="#F0F0F0"/>
<path d="M18.75 8.52417H20.7065V13.0894H18.75V8.52417Z" fill="#F0F0F0"/>
<path d="M15.815 11.1329C15.815 11.3127 15.6687 11.459 15.4889 11.459C15.3092 11.459 15.1629 11.3126 15.1629 11.1329V8.52417H13.2064V11.1329C13.2064 11.3127 13.0601 11.459 12.8803 11.459C12.7005 11.459 12.5542 11.3126 12.5542 11.1329V8.52417H10.5977V11.1329C10.5977 12.3915 11.6216 13.4155 12.8803 13.4155C13.365 13.4155 13.8146 13.2632 14.1846 13.0044C14.5547 13.2631 15.0043 13.4155 15.489 13.4155C15.5866 13.4155 15.6826 13.4087 15.777 13.3967C15.6384 13.9679 15.1239 14.3937 14.5107 14.3937V16.3502C16.3088 16.3502 17.7716 14.8874 17.7716 13.0894V11.1329V8.52417H15.8151V11.1329H15.815Z" fill="#F0F0F0"/>
<path d="M10.5977 14.3938H13.5324V16.3503H10.5977V14.3938Z" fill="#F0F0F0"/>
</g>
<rect x="0.5" y="0.545898" width="29" height="29" rx="14.5" stroke="#D7D7D7"/>
<defs>
<clipPath id="clip0_5568_213707">
<rect y="0.0458984" width="30" height="30" rx="15" fill="white"/>
</clipPath>
</defs>
</svg>
