<svg width="30" height="30" viewBox="0 0 30 30" fill="none" xmlns="http://www.w3.org/2000/svg">
<rect width="30" height="30" rx="2" fill="white"/>
<path fill-rule="evenodd" clip-rule="evenodd" d="M6.32698 7.63803C6 8.27976 6 9.11984 6 10.8V19.2C6 20.8802 6 21.7202 6.32698 22.362C6.6146 22.9265 7.07354 23.3854 7.63803 23.673C8.16873 23.9434 8.83507 23.9902 10 23.9983V17.6C10 17.0399 10 16.7599 10.109 16.546C10.2049 16.3578 10.3578 16.2049 10.546 16.109C10.7599 16 11.0399 16 11.6 16H18.4C18.9601 16 19.2401 16 19.454 16.109C19.6422 16.2049 19.7951 16.3578 19.891 16.546C20 16.7599 20 17.0399 20 17.6V23.9983C21.1649 23.9902 21.8313 23.9434 22.362 23.673C22.9265 23.3854 23.3854 22.9265 23.673 22.362C24 21.7202 24 20.8802 24 19.2V12.3255C24 11.8363 24 11.5917 23.9447 11.3615C23.8957 11.1575 23.8149 10.9624 23.7053 10.7834C23.5816 10.5816 23.4086 10.4086 23.0627 10.0627L19.9373 6.93726C19.5914 6.59135 19.4184 6.4184 19.2166 6.29472C19.0376 6.18506 18.8425 6.10425 18.6385 6.05526C18.4083 6 18.1637 6 17.6745 6H10.8C9.11984 6 8.27976 6 7.63803 6.32698C7.07354 6.6146 6.6146 7.07354 6.32698 7.63803Z" fill="#5F5C5C"/>
<path d="M20 24V23.9983M10 24V23.9983M10 23.9983C8.83507 23.9902 8.16873 23.9434 7.63803 23.673C7.07354 23.3854 6.6146 22.9265 6.32698 22.362C6 21.7202 6 20.8802 6 19.2V10.8C6 9.11984 6 8.27976 6.32698 7.63803C6.6146 7.07354 7.07354 6.6146 7.63803 6.32698C8.27976 6 9.11984 6 10.8 6H17.6745C18.1637 6 18.4083 6 18.6385 6.05526C18.8425 6.10425 19.0376 6.18506 19.2166 6.29472C19.4184 6.4184 19.5914 6.59135 19.9373 6.93726L23.0627 10.0627C23.4086 10.4086 23.5816 10.5816 23.7053 10.7834C23.8149 10.9624 23.8957 11.1575 23.9447 11.3615C24 11.5917 24 11.8363 24 12.3255V19.2C24 20.8802 24 21.7202 23.673 22.362C23.3854 22.9265 22.9265 23.3854 22.362 23.673C21.8313 23.9434 21.1649 23.9902 20 23.9983M10 23.9983V17.6C10 17.0399 10 16.7599 10.109 16.546C10.2049 16.3578 10.3578 16.2049 10.546 16.109C10.7599 16 11.0399 16 11.6 16H18.4C18.9601 16 19.2401 16 19.454 16.109C19.6422 16.2049 19.7951 16.3578 19.891 16.546C20 16.7599 20 17.0399 20 17.6V23.9983M10 23.9983C10.2437 24 10.5093 24 10.8 24H19.2C19.4907 24 19.7563 24 20 23.9983" stroke="#5F5C5C" stroke-linecap="round" stroke-linejoin="round"/>
<path d="M18 11H11.6C11.0399 11 10.7599 11 10.546 10.8692C10.3578 10.7542 10.2049 10.5706 10.109 10.3448C10 10.0881 10 9.75206 10 9.08V5" stroke="white" stroke-width="2" stroke-linecap="round" stroke-linejoin="round"/>
</svg>
