<svg width="30" height="30" viewBox="0 0 30 30" fill="none" xmlns="http://www.w3.org/2000/svg">
<rect width="30" height="30" rx="2" fill="white"/>
<path fill-rule="evenodd" clip-rule="evenodd" d="M6.21799 10.592C6 11.0198 6 11.5799 6 12.7V20.8C6 21.9201 6 22.4802 6.21799 22.908C6.40973 23.2843 6.71569 23.5903 7.09202 23.782C7.51984 24 8.0799 24 9.2 24H10V19.6C10 19.0399 10 18.7599 10.109 18.546C10.2049 18.3578 10.3578 18.2049 10.546 18.109C10.7599 18 11.0399 18 11.6 18H14.9C15.4601 18 15.7401 18 15.954 18.109C16.1422 18.2049 16.2951 18.3578 16.391 18.546C16.5 18.7599 16.5 19.0399 16.5 19.6V24H17.3C18.4201 24 18.9802 24 19.408 23.782C19.7843 23.5903 20.0903 23.2843 20.282 22.908C20.5 22.4802 20.5 21.9201 20.5 20.8V13.1627C20.5 12.9182 20.5 12.7959 20.4724 12.6808C20.4479 12.5787 20.4075 12.4812 20.3526 12.3917C20.2908 12.2908 20.2043 12.2043 20.0314 12.0314L17.9686 9.96863C17.7957 9.79568 17.7092 9.7092 17.6083 9.64736C17.5188 9.59253 17.4213 9.55213 17.3192 9.52763C17.2041 9.5 17.0818 9.5 16.8373 9.5H9.2C8.0799 9.5 7.51984 9.5 7.09202 9.71799C6.71569 9.90973 6.40973 10.2157 6.21799 10.592Z" fill="#5F5C5C"/>
<path d="M9.2 24H17.3M9.2 24C8.0799 24 7.51984 24 7.09202 23.782C6.71569 23.5903 6.40973 23.2843 6.21799 22.908C6 22.4802 6 21.9201 6 20.8V12.7C6 11.5799 6 11.0198 6.21799 10.592C6.40973 10.2157 6.71569 9.90973 7.09202 9.71799C7.51984 9.5 8.0799 9.5 9.2 9.5H16.8373C17.0818 9.5 17.2041 9.5 17.3192 9.52763C17.4213 9.55213 17.5188 9.59253 17.6083 9.64736C17.7092 9.7092 17.7957 9.79568 17.9686 9.96863L20.0314 12.0314C20.2043 12.2043 20.2908 12.2908 20.3526 12.3917C20.4075 12.4812 20.4479 12.5787 20.4724 12.6808C20.5 12.7959 20.5 12.9182 20.5 13.1627V20.8C20.5 21.9201 20.5 22.4802 20.282 22.908C20.0903 23.2843 19.7843 23.5903 19.408 23.782C18.9802 24 18.4201 24 17.3 24M9.2 24H10V19.6C10 19.0399 10 18.7599 10.109 18.546C10.2049 18.3578 10.3578 18.2049 10.546 18.109C10.7599 18 11.0399 18 11.6 18H14.9C15.4601 18 15.7401 18 15.954 18.109C16.1422 18.2049 16.2951 18.3578 16.391 18.546C16.5 18.7599 16.5 19.0399 16.5 19.6V24H17.3M15.5 13H11.6C11.0399 13 10.7599 13 10.546 12.891C10.3578 12.7951 10.2049 12.6422 10.109 12.454C10 12.2401 10 11.9601 10 11.4V9.5" stroke="#5F5C5C" stroke-linecap="round" stroke-linejoin="round"/>
<path d="M10 6H17.6745C18.1637 6 18.4083 6 18.6385 6.05526C18.8425 6.10425 19.0376 6.18506 19.2166 6.29472C19.4184 6.4184 19.5914 6.59135 19.9373 6.93726L23.0627 10.0627C23.4086 10.4086 23.5816 10.5816 23.7053 10.7834C23.8149 10.9624 23.8957 11.1575 23.9447 11.3615C24 11.5917 24 11.8363 24 12.3255V20" stroke="#5F5C5C" stroke-width="2" stroke-linecap="round" stroke-linejoin="round"/>
<path d="M16 13H11.2C10.78 13 10.5699 13 10.4095 12.9128C10.2684 12.8361 10.1537 12.7137 10.0817 12.5632C10 12.3921 10 12.168 10 11.72V9" stroke="white" stroke-width="2" stroke-linecap="round" stroke-linejoin="round"/>
</svg>
