<svg width="30" height="30" viewBox="0 0 30 30" fill="none" xmlns="http://www.w3.org/2000/svg">
<rect width="30" height="30" rx="2" fill="white"/>
<path fill-rule="evenodd" clip-rule="evenodd" d="M6 10.8C6 9.11984 6 8.27976 6.32698 7.63803C6.6146 7.07354 7.07354 6.6146 7.63803 6.32698C8.16873 6.05658 8.83507 6.00979 10 6.00169V9.4C10 9.96005 10 10.2401 10.109 10.454C10.2049 10.6422 10.3578 10.7951 10.546 10.891C10.7599 11 11.0399 11 11.6 11H18.4C18.9601 11 19.2401 11 19.454 10.891C19.6422 10.7951 19.7951 10.6422 19.891 10.454C20 10.2401 20 9.96005 20 9.4C20 8.51434 21.0708 8.0708 21.6971 8.69706L23.0627 10.0627C23.4086 10.4086 23.5816 10.5816 23.7053 10.7834C23.8149 10.9624 23.8957 11.1575 23.9447 11.3615C24 11.5917 24 11.8363 24 12.3255V19.2C24 20.8802 24 21.7202 23.673 22.362C23.3854 22.9265 22.9265 23.3854 22.362 23.673C21.8313 23.9434 21.1649 23.9902 20 23.9983V17.6C20 17.0399 20 16.7599 19.891 16.546C19.7951 16.3578 19.6422 16.2049 19.454 16.109C19.2401 16 18.9601 16 18.4 16H11.6C11.0399 16 10.7599 16 10.546 16.109C10.3578 16.2049 10.2049 16.3578 10.109 16.546C10 16.7599 10 17.0399 10 17.6V23.9983C8.83507 23.9902 8.16873 23.9434 7.63803 23.673C7.07354 23.3854 6.6146 22.9265 6.32698 22.362C6 21.7202 6 20.8802 6 19.2V10.8Z" fill="#5F5C5C"/>
<path d="M10 6V6.00169M20 24V23.9983M10 24V23.9983M23.0627 10.0627L19.9373 6.93726C19.5914 6.59135 19.4184 6.4184 19.2166 6.29472C19.0376 6.18506 18.8425 6.10425 18.6385 6.05526C18.4083 6 18.1637 6 17.6745 6H10.8C10.5093 6 10.2437 6 10 6.00169M23.0627 10.0627C23.4086 10.4086 23.5816 10.5816 23.7053 10.7834C23.8149 10.9624 23.8957 11.1575 23.9447 11.3615C24 11.5917 24 11.8363 24 12.3255V19.2C24 20.8802 24 21.7202 23.673 22.362C23.3854 22.9265 22.9265 23.3854 22.362 23.673C21.8313 23.9434 21.1649 23.9902 20 23.9983M23.0627 10.0627L21.6971 8.69706C21.0708 8.0708 20 8.51434 20 9.4V9.4C20 9.96005 20 10.2401 19.891 10.454C19.7951 10.6422 19.6422 10.7951 19.454 10.891C19.2401 11 18.9601 11 18.4 11H11.6C11.0399 11 10.7599 11 10.546 10.891C10.3578 10.7951 10.2049 10.6422 10.109 10.454C10 10.2401 10 9.96005 10 9.4V6.00169M10 23.9983C8.83507 23.9902 8.16873 23.9434 7.63803 23.673C7.07354 23.3854 6.6146 22.9265 6.32698 22.362C6 21.7202 6 20.8802 6 19.2V10.8C6 9.11984 6 8.27976 6.32698 7.63803C6.6146 7.07354 7.07354 6.6146 7.63803 6.32698C8.16873 6.05658 8.83507 6.00979 10 6.00169M10 23.9983V17.6C10 17.0399 10 16.7599 10.109 16.546C10.2049 16.3578 10.3578 16.2049 10.546 16.109C10.7599 16 11.0399 16 11.6 16H18.4C18.9601 16 19.2401 16 19.454 16.109C19.6422 16.2049 19.7951 16.3578 19.891 16.546C20 16.7599 20 17.0399 20 17.6V23.9983M10 23.9983C10.2437 24 10.5093 24 10.8 24H19.2C19.4907 24 19.7563 24 20 23.9983" stroke="#5F5C5C" stroke-linecap="round" stroke-linejoin="round"/>
</svg>
