<svg width="30" height="30" viewBox="0 0 30 30" fill="none" xmlns="http://www.w3.org/2000/svg">
<rect width="30" height="30" rx="2" fill="white"/>
<path d="M18 11H11.6C11.0399 11 10.7599 11 10.546 10.891C10.3578 10.7951 10.2049 10.6422 10.109 10.454C10 10.2401 10 9.96005 10 9.4V6M20 24V17.6C20 17.0399 20 16.7599 19.891 16.546C19.7951 16.3578 19.6422 16.2049 19.454 16.109C19.2401 16 18.9601 16 18.4 16H11.6C11.0399 16 10.7599 16 10.546 16.109C10.3578 16.2049 10.2049 16.3578 10.109 16.546C10 16.7599 10 17.0399 10 17.6V24M24 12.3255V19.2C24 20.8802 24 21.7202 23.673 22.362C23.3854 22.9265 22.9265 23.3854 22.362 23.673C21.7202 24 20.8802 24 19.2 24H10.8C9.11984 24 8.27976 24 7.63803 23.673C7.07354 23.3854 6.6146 22.9265 6.32698 22.362C6 21.7202 6 20.8802 6 19.2V10.8C6 9.11984 6 8.27976 6.32698 7.63803C6.6146 7.07354 7.07354 6.6146 7.63803 6.32698C8.27976 6 9.11984 6 10.8 6H17.6745C18.1637 6 18.4083 6 18.6385 6.05526C18.8425 6.10425 19.0376 6.18506 19.2166 6.29472C19.4184 6.4184 19.5914 6.59135 19.9373 6.93726L23.0627 10.0627C23.4086 10.4086 23.5816 10.5816 23.7053 10.7834C23.8149 10.9624 23.8957 11.1575 23.9447 11.3615C24 11.5917 24 11.8363 24 12.3255Z" stroke="#5F5C5C" stroke-width="1.5" stroke-linecap="round" stroke-linejoin="round"/>
</svg>
