<svg width="30" height="30" viewBox="0 0 30 30" fill="none" xmlns="http://www.w3.org/2000/svg">
<path d="M5.50047 16H11.5005M18.5005 16H24.5005M15.0005 10V24M15.0005 10C16.3812 10 17.5005 8.88071 17.5005 7.5M15.0005 10C13.6198 10 12.5005 8.88071 12.5005 7.5M7.00047 24L23.0005 24M7.00047 7.50001L12.5005 7.5M12.5005 7.5C12.5005 6.11929 13.6198 5 15.0005 5C16.3812 5 17.5005 6.11929 17.5005 7.5M17.5005 7.5L23.0005 7.5M11.8809 17.3364C11.4802 18.8706 10.1186 20 8.50047 20C6.88237 20 5.52073 18.8706 5.12004 17.3364C5.0873 17.211 5.07093 17.1483 5.06935 16.8979C5.06838 16.7443 5.12544 16.3904 5.17459 16.2449C5.25478 16.0076 5.34158 15.8737 5.51519 15.6059L8.50047 11L11.4858 15.6059C11.6594 15.8737 11.7462 16.0076 11.8264 16.2449C11.8755 16.3904 11.9326 16.7443 11.9316 16.8979C11.93 17.1483 11.9137 17.211 11.8809 17.3364ZM24.8809 17.3364C24.4802 18.8706 23.1186 20 21.5005 20C19.8824 20 18.5207 18.8706 18.12 17.3364C18.0873 17.211 18.0709 17.1483 18.0693 16.8979C18.0684 16.7443 18.1254 16.3904 18.1746 16.2449C18.2548 16.0076 18.3416 15.8737 18.5152 15.6059L21.5005 11L24.4858 15.6059C24.6594 15.8737 24.7462 16.0076 24.8264 16.2449C24.8755 16.3904 24.9326 16.7443 24.9316 16.8979C24.93 17.1483 24.9137 17.211 24.8809 17.3364Z" stroke="#5F5C5C" stroke-width="1.5" stroke-linecap="round" stroke-linejoin="round"/>
</svg>
