<svg width="30" height="30" viewBox="0 0 30 30" fill="none" xmlns="http://www.w3.org/2000/svg">
<path d="M5 20V19.8498C5 19.5333 5 19.3751 5.02421 19.2209C5.0457 19.084 5.08136 18.9497 5.13061 18.8202C5.18609 18.6743 5.2646 18.5369 5.42162 18.2622L9 12M5 20C5 22.2091 6.79086 24 9 24C11.2091 24 13 22.2091 13 20M5 20V19.8C5 19.52 5 19.38 5.0545 19.273C5.10243 19.1789 5.17892 19.1024 5.273 19.0545C5.37996 19 5.51997 19 5.8 19H12.2C12.48 19 12.62 19 12.727 19.0545C12.8211 19.1024 12.8976 19.1789 12.9455 19.273C13 19.38 13 19.52 13 19.8V20M9 12L12.5784 18.2622C12.7354 18.5369 12.8139 18.6743 12.8694 18.8202C12.9186 18.9497 12.9543 19.084 12.9758 19.2209C13 19.3751 13 19.5333 13 19.8498V20M9 12L21 10M17 18V17.8498C17 17.5333 17 17.3751 17.0242 17.2209C17.0457 17.084 17.0814 16.9497 17.1306 16.8202C17.1861 16.6743 17.2646 16.5369 17.4216 16.2622L21 10M17 18C17 20.2091 18.7909 22 21 22C23.2091 22 25 20.2091 25 18M17 18V17.8C17 17.52 17 17.38 17.0545 17.273C17.1024 17.1789 17.1789 17.1024 17.273 17.0545C17.38 17 17.52 17 17.8 17H24.2C24.48 17 24.62 17 24.727 17.0545C24.8211 17.1024 24.8976 17.1789 24.9455 17.273C25 17.38 25 17.52 25 17.8V18M21 10L24.5784 16.2622C24.7354 16.5369 24.8139 16.6743 24.8694 16.8202C24.9186 16.9497 24.9543 17.084 24.9758 17.2209C25 17.3751 25 17.5333 25 17.8498V18M15 6V11" stroke="#5F5C5C" stroke-width="1.5" stroke-linecap="round" stroke-linejoin="round"/>
</svg>
