<svg width="30" height="31" viewBox="0 0 30 31" fill="none" xmlns="http://www.w3.org/2000/svg">
<g clip-path="url(#clip0_5568_213716)">
<path d="M15 30.0459C23.2843 30.0459 30 23.3302 30 15.0459C30 6.76163 23.2843 0.0458984 15 0.0458984C6.71573 0.0458984 0 6.76163 0 15.0459C0 23.3302 6.71573 30.0459 15 30.0459Z" fill="#F0F0F0"/>
<path d="M24.1326 3.14668C21.6033 1.20248 18.4372 0.0458984 15.0004 0.0458984C11.5637 0.0458984 8.39748 1.20254 5.86816 3.14668L15.0004 12.2789L24.1326 3.14668Z" fill="#0052B4"/>
<path d="M3.10072 5.9137C1.15664 8.44301 0 11.6091 0 15.0459C0 18.4826 1.15664 21.6488 3.10078 24.1782L12.233 15.0459L3.10072 5.9137Z" fill="#0052B4"/>
<path d="M5.86816 26.9452C8.39754 28.8894 11.5637 30.046 15.0004 30.046C18.4372 30.046 21.6033 28.8893 24.1327 26.9452L15.0004 17.813L5.86816 26.9452Z" fill="#0052B4"/>
<path d="M26.8988 24.1781C28.843 21.6488 29.9996 18.4826 29.9996 15.0459C29.9996 11.6091 28.843 8.44301 26.8988 5.9137L17.7666 15.0459L26.8988 24.1781Z" fill="#0052B4"/>
</g>
<rect x="0.5" y="0.545898" width="29" height="29" rx="14.5" stroke="#D7D7D7"/>
<defs>
<clipPath id="clip0_5568_213716">
<rect y="0.0458984" width="30" height="30" rx="15" fill="white"/>
</clipPath>
</defs>
</svg>
