<svg width="30" height="30" viewBox="0 0 30 30" fill="none" xmlns="http://www.w3.org/2000/svg">
<path d="M13.4995 16.5001L23.9995 6.00005M13.6271 16.8281L16.2552 23.5861C16.4867 24.1815 16.6025 24.4791 16.7693 24.566C16.9139 24.6414 17.0862 24.6415 17.2308 24.5663C17.3977 24.4796 17.5139 24.1821 17.7461 23.587L24.3364 6.69925C24.5461 6.16207 24.6509 5.89348 24.5935 5.72185C24.5437 5.5728 24.4268 5.45583 24.2777 5.40604C24.1061 5.34871 23.8375 5.45352 23.3003 5.66315L6.41258 12.2535C5.8175 12.4857 5.51997 12.6018 5.43326 12.7687C5.35809 12.9134 5.35819 13.0857 5.43353 13.2303C5.52043 13.3971 5.81811 13.5128 6.41345 13.7444L13.1715 16.3725C13.2923 16.4195 13.3527 16.443 13.4036 16.4793C13.4487 16.5114 13.4881 16.5509 13.5203 16.596C13.5566 16.6468 13.5801 16.7073 13.6271 16.8281Z" stroke="#5F5C5C" stroke-width="1.5" stroke-linecap="round" stroke-linejoin="round"/>
</svg>
