<svg width="30" height="30" viewBox="0 0 30 30" fill="none" xmlns="http://www.w3.org/2000/svg">
<path d="M15.0005 22V15M15.292 22.0846L22.2704 24.4208C22.8173 24.6039 23.0908 24.6954 23.2594 24.6297C23.4059 24.5727 23.517 24.4501 23.5594 24.2988C23.6082 24.1245 23.4903 23.8614 23.2545 23.3351L15.766 6.62232C15.5354 6.10762 15.4201 5.85027 15.2594 5.77053C15.1199 5.70125 14.956 5.70099 14.8162 5.76982C14.6553 5.84905 14.5392 6.10602 14.3069 6.61998L6.75244 23.336C6.51474 23.862 6.39589 24.125 6.44422 24.2994C6.48619 24.4509 6.59697 24.5738 6.74329 24.6313C6.91178 24.6975 7.18567 24.6066 7.73346 24.4248L14.786 22.084C14.8799 22.0528 14.9268 22.0372 14.9749 22.0311C15.0175 22.0256 15.0606 22.0257 15.1032 22.0312C15.1512 22.0375 15.1981 22.0532 15.292 22.0846Z" stroke="#5F5C5C" stroke-width="1.5" stroke-linecap="round" stroke-linejoin="round"/>
</svg>
