<svg width="30" height="30" viewBox="0 0 30 30" fill="none" xmlns="http://www.w3.org/2000/svg">
<path d="M13.5004 15H8.00043M7.91577 15.2915L5.58085 22.2662C5.39742 22.8142 5.3057 23.0881 5.37152 23.2569C5.42868 23.4034 5.55144 23.5145 5.70292 23.5567C5.87736 23.6054 6.14083 23.4869 6.66776 23.2497L23.3792 15.7296C23.8936 15.4981 24.1507 15.3824 24.2302 15.2216C24.2993 15.082 24.2993 14.9181 24.2302 14.7784C24.1507 14.6177 23.8936 14.5019 23.3792 14.2705L6.66193 6.74776C6.13659 6.51135 5.87392 6.39315 5.69966 6.44164C5.54832 6.48375 5.42556 6.59454 5.36821 6.74078C5.30216 6.90917 5.3929 7.18255 5.57437 7.72931L7.91642 14.7856C7.94759 14.8795 7.96317 14.9264 7.96933 14.9744C7.97479 15.0171 7.97473 15.0602 7.96916 15.1028C7.96289 15.1508 7.94718 15.1977 7.91577 15.2915Z" stroke="#5F5C5C" stroke-width="1.5" stroke-linecap="round" stroke-linejoin="round"/>
</svg>
