<svg width="30" height="31" viewBox="0 0 30 31" fill="none" xmlns="http://www.w3.org/2000/svg">
<g clip-path="url(#clip0_5568_213723)">
<path d="M21.5216 1.5343C19.5496 0.580742 17.3372 0.0458984 14.9999 0.0458984C12.6626 0.0458984 10.4502 0.580742 8.47818 1.5343L7.17383 15.0459L8.47818 28.5575C10.4502 29.5111 12.6626 30.0459 14.9999 30.0459C17.3372 30.0459 19.5496 29.5111 21.5216 28.5575L22.826 15.0459L21.5216 1.5343Z" fill="#FFDA44"/>
<path d="M14.9995 9.82849L16.2944 13.814H20.4855L17.095 16.2775L18.39 20.2632L14.9995 17.7999L11.6089 20.2632L12.9041 16.2775L9.51367 13.814H13.7045L14.9995 9.82849Z" fill="#496E2D"/>
<path d="M8.47828 1.53479C3.4609 3.96098 0 9.09901 0 15.0459C0 20.9927 3.4609 26.1307 8.47828 28.5569V1.53479Z" fill="#496E2D"/>
<path d="M21.5215 1.53479V28.5569C26.5389 26.1307 29.9998 20.9927 29.9998 15.0459C29.9998 9.09901 26.5389 3.96098 21.5215 1.53479Z" fill="#D80027"/>
</g>
<rect x="0.5" y="0.545898" width="29" height="29" rx="14.5" stroke="#D7D7D7"/>
<defs>
<clipPath id="clip0_5568_213723">
<rect y="0.0458984" width="30" height="30" rx="15" fill="white"/>
</clipPath>
</defs>
</svg>
