<svg width="30" height="31" viewBox="0 0 30 31" fill="none" xmlns="http://www.w3.org/2000/svg">
<g clip-path="url(#clip0_5568_213729)">
<path d="M15 30.0352C23.2843 30.0352 30 23.3194 30 15.0352C30 6.75088 23.2843 0.0351562 15 0.0351562C6.71573 0.0351562 0 6.75088 0 15.0352C0 23.3194 6.71573 30.0352 15 30.0352Z" fill="#F0F0F0"/>
<path d="M15 0.0351562C6.71578 0.0351562 0 6.75094 0 15.0352C0 16.87 0.330059 18.6276 0.932988 20.2525H29.0671C29.67 18.6276 30 16.87 30 15.0352C30 6.75094 23.2842 0.0351562 15 0.0351562Z" fill="#0052B4"/>
<path d="M14.9996 0.0351562C8.55016 0.0351562 3.05201 4.10578 0.932617 9.81779H29.0667C26.9472 4.10578 21.4491 0.0351562 14.9996 0.0351562V0.0351562Z" fill="#D80027"/>
<path d="M3.87891 8.51343V15.9962C3.87891 20.2527 9.43951 21.5569 9.43951 21.5569C9.43951 21.5569 15.0001 20.2527 15.0001 15.9962V8.51343H3.87891Z" fill="#D80027"/>
<path d="M6.17871 9.81785H12.7005V7.20914L11.3961 7.86129L9.43963 5.90479L7.48307 7.86129L6.17871 7.20914V9.81785Z" fill="#FFDA44"/>
<path d="M13.6961 17.0381L9.45691 12.799L5.21777 17.0381L6.60123 18.4215L9.45691 15.5659L12.3126 18.4215L13.6961 17.0381Z" fill="#FFDA44"/>
<path d="M13.6961 13.0787H11.7182C11.8294 12.8867 11.8941 12.6644 11.8941 12.4267C11.8941 11.7062 11.3101 11.1223 10.5897 11.1223C10.092 11.1223 9.65971 11.4011 9.4398 11.811C9.2199 11.4012 8.78766 11.1223 8.2899 11.1223C7.56955 11.1223 6.98555 11.7062 6.98555 12.4267C6.98555 12.6644 7.05023 12.8868 7.16145 13.0787H5.21777C5.21777 13.7991 5.84525 14.3831 6.56555 14.3831H6.52213C6.52213 15.1035 7.10607 15.6874 7.82648 15.6874C7.82648 16.3253 8.28457 16.8552 8.88955 16.9686L7.86182 19.2891C8.35436 19.4893 8.8926 19.6005 9.45697 19.6005C10.0213 19.6005 10.5596 19.4893 11.0521 19.2891L10.0244 16.9686C10.6294 16.8553 11.0875 16.3253 11.0875 15.6874C11.8079 15.6874 12.3918 15.1035 12.3918 14.3831H12.3484C13.0686 14.3831 13.6961 13.7991 13.6961 13.0787V13.0787Z" fill="#F0F0F0"/>
</g>
<rect x="0.5" y="0.535156" width="29" height="29" rx="14.5" stroke="#D7D7D7"/>
<defs>
<clipPath id="clip0_5568_213729">
<rect y="0.0351562" width="30" height="30" rx="15" fill="white"/>
</clipPath>
</defs>
</svg>
