<svg width="30" height="30" viewBox="0 0 30 30" fill="none" xmlns="http://www.w3.org/2000/svg">
<rect width="30" height="30" rx="2" fill="white"/>
<path d="M6 11L18 11M18 11C18 12.6569 19.3431 14 21 14C22.6569 14 24 12.6569 24 11C24 9.34315 22.6569 8 21 8C19.3431 8 18 9.34315 18 11ZM12 19L24 19M12 19C12 20.6569 10.6569 22 9 22C7.34315 22 6 20.6569 6 19C6 17.3431 7.34315 16 9 16C10.6569 16 12 17.3431 12 19Z" stroke="#5F5C5C" stroke-width="1.5" stroke-linecap="round" stroke-linejoin="round"/>
</svg>
