<svg width="30" height="30" viewBox="0 0 30 30" fill="none" xmlns="http://www.w3.org/2000/svg">
<rect width="30" height="30" rx="2" fill="white"/>
<path d="M9.5 24C7.567 24 6 22.433 6 20.5C6 18.567 7.567 17 9.5 17C11.433 17 13 18.567 13 20.5C13 22.433 11.433 24 9.5 24Z" fill="#5F5C5C"/>
<path d="M20.5 13C22.433 13 24 11.433 24 9.5C24 7.567 22.433 6 20.5 6C18.567 6 17 7.567 17 9.5C17 11.433 18.567 13 20.5 13Z" fill="#5F5C5C"/>
<path d="M18.0505 12H8.5C7.11929 12 6 10.8807 6 9.5C6 8.11929 7.11929 7 8.5 7H18.0505M11.9495 23H21.5C22.8807 23 24 21.8807 24 20.5C24 19.1193 22.8807 18 21.5 18H11.9495M6 20.5C6 22.433 7.567 24 9.5 24C11.433 24 13 22.433 13 20.5C13 18.567 11.433 17 9.5 17C7.567 17 6 18.567 6 20.5ZM24 9.5C24 11.433 22.433 13 20.5 13C18.567 13 17 11.433 17 9.5C17 7.567 18.567 6 20.5 6C22.433 6 24 7.567 24 9.5Z" stroke="#5F5C5C" stroke-width="2" stroke-linecap="round" stroke-linejoin="round"/>
</svg>
