<svg width="30" height="30" viewBox="0 0 30 30" fill="none" xmlns="http://www.w3.org/2000/svg">
<rect width="30" height="30" rx="2" fill="white"/>
<path fill-rule="evenodd" clip-rule="evenodd" d="M21.6236 18.6005C21.5702 18.3056 21.6063 18.0015 21.7273 17.7273C21.8425 17.4584 22.0339 17.2291 22.2778 17.0676C22.5217 16.906 22.8075 16.8193 23.1 16.8182H23.1818C23.664 16.8182 24.1265 16.6266 24.4675 16.2856C24.8084 15.9447 25 15.4822 25 15C25 14.5178 24.8084 14.0553 24.4675 13.7144C24.1265 13.3734 23.664 13.1818 23.1818 13.1818H23.0273C22.7347 13.1807 22.4489 13.094 22.205 12.9324C21.9611 12.7709 21.7698 12.5416 21.6545 12.2727V12.2C21.5335 11.9258 21.4974 11.6216 21.5509 11.3267C21.6044 11.0318 21.745 10.7597 21.9545 10.5455L22.0091 10.4909C22.1781 10.322 22.3122 10.1215 22.4037 9.9008C22.4952 9.68008 22.5423 9.44348 22.5423 9.20455C22.5423 8.96561 22.4952 8.72901 22.4037 8.50829C22.3122 8.28757 22.1781 8.08704 22.0091 7.91818C21.8402 7.74913 21.6397 7.61503 21.419 7.52353C21.1983 7.43203 20.9617 7.38493 20.7227 7.38493C20.4838 7.38493 20.2472 7.43203 20.0265 7.52353C19.8057 7.61503 19.6052 7.74913 19.4364 7.91818L19.3818 7.97273C19.1676 8.18231 18.8954 8.3229 18.6005 8.37637C18.3056 8.42984 18.0015 8.39374 17.7273 8.27273C17.4584 8.15749 17.2291 7.96614 17.0676 7.72224C16.906 7.47834 16.8193 7.19253 16.8182 6.9V6.81818C16.8182 6.33597 16.6266 5.87351 16.2856 5.53253C15.9447 5.19156 15.4822 5 15 5C14.5178 5 14.0553 5.19156 13.7144 5.53253C13.3734 5.87351 13.1818 6.33597 13.1818 6.81818V6.97273C13.1807 7.26526 13.094 7.55107 12.9324 7.79497C12.7709 8.03887 12.5416 8.23022 12.2727 8.34545H12.2C11.9258 8.46647 11.6216 8.50257 11.3267 8.4491C11.0318 8.39562 10.7597 8.25503 10.5455 8.04545L10.4909 7.99091C10.322 7.82186 10.1215 7.68775 9.9008 7.59626C9.68008 7.50476 9.44348 7.45766 9.20455 7.45766C8.96561 7.45766 8.72901 7.50476 8.50829 7.59626C8.28757 7.68775 8.08704 7.82186 7.91818 7.99091C7.74913 8.15977 7.61503 8.36029 7.52353 8.58102C7.43203 8.80174 7.38493 9.03834 7.38493 9.27727C7.38493 9.51621 7.43203 9.7528 7.52353 9.97353C7.61503 10.1943 7.74913 10.3948 7.91818 10.5636L7.97273 10.6182C8.18231 10.8324 8.3229 11.1046 8.37637 11.3995C8.42984 11.6944 8.39374 11.9985 8.27273 12.2727C8.16883 12.5552 7.98236 12.7999 7.73754 12.975C7.49273 13.1501 7.2009 13.2475 6.9 13.2545H6.81818C6.33597 13.2545 5.87351 13.4461 5.53253 13.7871C5.19156 14.1281 5 14.5905 5 15.0727C5 15.5549 5.19156 16.0174 5.53253 16.3584C5.87351 16.6994 6.33597 16.8909 6.81818 16.8909H6.97273C7.26526 16.8921 7.55107 16.9788 7.79497 17.1403C8.03887 17.3018 8.23022 17.5311 8.34545 17.8C8.46647 18.0742 8.50257 18.3784 8.4491 18.6733C8.39562 18.9682 8.25503 19.2403 8.04545 19.4545L7.99091 19.5091C7.82186 19.678 7.68775 19.8785 7.59626 20.0992C7.50476 20.3199 7.45766 20.5565 7.45766 20.7955C7.45766 21.0344 7.50476 21.271 7.59626 21.4917C7.68775 21.7124 7.82186 21.913 7.99091 22.0818C8.15977 22.2509 8.36029 22.385 8.58102 22.4765C8.80174 22.568 9.03834 22.6151 9.27727 22.6151C9.51621 22.6151 9.7528 22.568 9.97353 22.4765C10.1943 22.385 10.3948 22.2509 10.5636 22.0818L10.6182 22.0273C10.8324 21.8177 11.1046 21.6771 11.3995 21.6236C11.6944 21.5702 11.9985 21.6063 12.2727 21.7273C12.5552 21.8312 12.7999 22.0176 12.975 22.2625C13.1501 22.5073 13.2475 22.7991 13.2545 23.1V23.1818C13.2545 23.664 13.4461 24.1265 13.7871 24.4675C14.1281 24.8084 14.5905 25 15.0727 25C15.5549 25 16.0174 24.8084 16.3584 24.4675C16.6994 24.1265 16.8909 23.664 16.8909 23.1818V23.0273C16.8921 22.7347 16.9788 22.4489 17.1403 22.205C17.3018 21.9611 17.5311 21.7698 17.8 21.6545C18.0742 21.5335 18.3784 21.4974 18.6733 21.5509C18.9682 21.6044 19.2403 21.745 19.4545 21.9545L19.5091 22.0091C19.678 22.1781 19.8785 22.3122 20.0992 22.4037C20.3199 22.4952 20.5565 22.5423 20.7955 22.5423C21.0344 22.5423 21.271 22.4952 21.4917 22.4037C21.7124 22.3122 21.913 22.1781 22.0818 22.0091C22.2509 21.8402 22.385 21.6397 22.4765 21.419C22.568 21.1983 22.6151 20.9617 22.6151 20.7227C22.6151 20.4838 22.568 20.2472 22.4765 20.0265C22.385 19.8057 22.2509 19.6052 22.0818 19.4364L22.0273 19.3818C21.8177 19.1676 21.6771 18.8954 21.6236 18.6005ZM15 18C16.6569 18 18 16.6569 18 15C18 13.3431 16.6569 12 15 12C13.3431 12 12 13.3431 12 15C12 16.6569 13.3431 18 15 18Z" fill="#5F5C5C" stroke="#5F5C5C" stroke-linecap="round" stroke-linejoin="round"/>
</svg>
