<svg width="30" height="30" viewBox="0 0 30 30" fill="none" xmlns="http://www.w3.org/2000/svg">
<rect width="30" height="30" rx="2" fill="white"/>
<path d="M12.395 22.3711L12.9795 23.6856C13.1532 24.0768 13.4368 24.4093 13.7957 24.6426C14.1547 24.8759 14.5736 25.0001 15.0017 25C15.4298 25.0001 15.8488 24.8759 16.2077 24.6426C16.5667 24.4093 16.8502 24.0768 17.0239 23.6856L17.6084 22.3711C17.8164 21.9047 18.1664 21.5159 18.6084 21.26C19.0532 21.0034 19.5677 20.8941 20.0784 20.9478L21.5084 21.1C21.934 21.145 22.3636 21.0656 22.7451 20.8713C23.1265 20.6771 23.4434 20.3763 23.6573 20.0056C23.8714 19.635 23.9735 19.2103 23.951 18.7829C23.9285 18.3555 23.7825 17.9438 23.5306 17.5978L22.6839 16.4344C22.3825 16.0171 22.2214 15.5148 22.2239 15C22.2238 14.4866 22.3864 13.9864 22.6884 13.5711L23.535 12.4078C23.7869 12.0618 23.933 11.6501 23.9554 11.2227C23.9779 10.7953 23.8759 10.3705 23.6617 10C23.4478 9.62923 23.1309 9.32849 22.7495 9.13423C22.3681 8.93997 21.9385 8.86053 21.5128 8.90556L20.0828 9.05778C19.5722 9.11141 19.0576 9.00212 18.6128 8.74556C18.1699 8.48825 17.8199 8.09736 17.6128 7.62889L17.0239 6.31444C16.8502 5.92317 16.5667 5.59072 16.2077 5.3574C15.8488 5.12408 15.4298 4.99993 15.0017 5C14.5736 4.99993 14.1547 5.12408 13.7957 5.3574C13.4368 5.59072 13.1532 5.92317 12.9795 6.31444L12.395 7.62889C12.188 8.09736 11.8379 8.48825 11.395 8.74556C10.9503 9.00212 10.4357 9.11141 9.92504 9.05778L8.4906 8.90556C8.06493 8.86053 7.63534 8.93997 7.25391 9.13423C6.87249 9.32849 6.55561 9.62923 6.34171 10C6.12753 10.3705 6.02549 10.7953 6.04798 11.2227C6.07046 11.6501 6.2165 12.0618 6.46838 12.4078L7.31504 13.5711C7.61698 13.9864 7.77958 14.4866 7.77949 15C7.77958 15.5134 7.61698 16.0137 7.31504 16.4289L6.46838 17.5922C6.2165 17.9382 6.07046 18.3499 6.04798 18.7773C6.02549 19.2047 6.12753 19.6295 6.34171 20C6.55582 20.3706 6.87274 20.6712 7.25411 20.8654C7.63548 21.0596 8.06496 21.1392 8.4906 21.0944L9.9206 20.9422C10.4313 20.8886 10.9458 20.9979 11.3906 21.2544C11.8351 21.511 12.1868 21.902 12.395 22.3711Z" stroke="#5F5C5C" stroke-width="1.5" stroke-linecap="round" stroke-linejoin="round"/>
<path d="M14.9999 18C16.6567 18 17.9999 16.6569 17.9999 15C17.9999 13.3431 16.6567 12 14.9999 12C13.343 12 11.9999 13.3431 11.9999 15C11.9999 16.6569 13.343 18 14.9999 18Z" fill="#5F5C5C" stroke="#5F5C5C" stroke-width="1.5" stroke-linecap="round" stroke-linejoin="round"/>
</svg>
