<svg width="30" height="30" viewBox="0 0 30 30" fill="none" xmlns="http://www.w3.org/2000/svg">
<rect width="30" height="30" rx="2" fill="white"/>
<path fill-rule="evenodd" clip-rule="evenodd" d="M12.9795 23.6856L12.395 22.3711C12.1868 21.902 11.8351 21.511 11.3906 21.2544C10.9458 20.9979 10.4313 20.8886 9.9206 20.9422L8.4906 21.0944C8.06496 21.1392 7.63548 21.0596 7.25411 20.8654C6.87274 20.6712 6.55582 20.3706 6.34171 20C6.12753 19.6295 6.02549 19.2047 6.04798 18.7773C6.07046 18.3499 6.2165 17.9382 6.46838 17.5922L7.31504 16.4289C7.61698 16.0136 7.77958 15.5134 7.77949 15C7.77958 14.4866 7.61698 13.9864 7.31504 13.5711L6.46838 12.4078C6.2165 12.0618 6.07046 11.6501 6.04798 11.2227C6.02549 10.7953 6.12753 10.3705 6.34171 10C6.55561 9.62923 6.87249 9.32849 7.25391 9.13423C7.63534 8.93997 8.06493 8.86053 8.4906 8.90556L9.92504 9.05778C10.4357 9.11141 10.9503 9.00212 11.395 8.74556C11.8379 8.48825 12.188 8.09736 12.395 7.62889L12.9795 6.31444C13.1532 5.92317 13.4368 5.59072 13.7957 5.3574C14.1547 5.12408 14.5736 4.99993 15.0017 5C15.4298 4.99993 15.8488 5.12408 16.2077 5.3574C16.5667 5.59072 16.8502 5.92317 17.0239 6.31444L17.6128 7.62889C17.8199 8.09736 18.1699 8.48825 18.6128 8.74556C19.0576 9.00212 19.5722 9.11141 20.0828 9.05778L21.5128 8.90556C21.9385 8.86053 22.3681 8.93997 22.7495 9.13423C23.1309 9.32849 23.4478 9.62923 23.6617 10C23.8759 10.3705 23.9779 10.7953 23.9554 11.2227C23.933 11.6501 23.7869 12.0618 23.535 12.4078L22.6884 13.5711C22.3864 13.9864 22.2238 14.4866 22.2239 15C22.2214 15.5148 22.3825 16.0171 22.6839 16.4344L23.5306 17.5978C23.7825 17.9438 23.9285 18.3555 23.951 18.7829C23.9735 19.2103 23.8714 19.635 23.6573 20.0056C23.4434 20.3763 23.1265 20.6771 22.7451 20.8713C22.3636 21.0656 21.934 21.145 21.5084 21.1L20.0784 20.9478C19.5677 20.8941 19.0532 21.0034 18.6084 21.26C18.1664 21.5159 17.8164 21.9047 17.6084 22.3711L17.0239 23.6856C16.8502 24.0768 16.5667 24.4093 16.2077 24.6426C15.8488 24.8759 15.4298 25.0001 15.0017 25C14.5736 25.0001 14.1547 24.8759 13.7957 24.6426C13.4368 24.4093 13.1532 24.0768 12.9795 23.6856ZM14.9999 18C16.6568 18 17.9999 16.6569 17.9999 15C17.9999 13.3431 16.6568 12 14.9999 12C13.3431 12 11.9999 13.3431 11.9999 15C11.9999 16.6569 13.3431 18 14.9999 18Z" fill="#5F5C5C" stroke="#5F5C5C" stroke-linecap="round" stroke-linejoin="round"/>
</svg>
