<svg width="30" height="31" viewBox="0 0 30 31" fill="none" xmlns="http://www.w3.org/2000/svg">
<g clip-path="url(#clip0_5568_213739)">
<path d="M15 30.0352C23.2843 30.0352 30 23.3194 30 15.0352C30 6.75088 23.2843 0.0351562 15 0.0351562C6.71573 0.0351562 0 6.75088 0 15.0352C0 23.3194 6.71573 30.0352 15 30.0352Z" fill="#F0F0F0"/>
<path d="M25.1255 3.96896C22.4571 1.52607 18.9028 0.0351562 14.9999 0.0351562C14.361 0.0351562 13.7314 0.0754102 13.1135 0.15293L5.86951 8.51344L0.474609 18.7928C0.823125 20.1441 1.35598 21.4211 2.04346 22.5966L14.9999 15.0352L25.1255 3.96896Z" fill="#FFDA44"/>
<path d="M27.4884 23.3459L6.50195 27.3959C8.91771 29.0601 11.8449 30.0351 15.0002 30.0351C20.2104 30.0351 24.7994 27.3783 27.4884 23.3459V23.3459Z" fill="#6DA544"/>
<path d="M25.1273 3.97095L2.05176 22.6111C2.65533 23.6405 3.37797 24.5915 4.20104 25.4451L29.9997 15.0351C29.9997 10.6547 28.1217 6.71325 25.1273 3.97095V3.97095Z" fill="#D80027"/>
<path d="M0 15.0352C0 16.3329 0.164883 17.592 0.474668 18.7929L13.1136 0.152954C5.7198 1.08073 0 7.38987 0 15.0352Z" fill="#0052B4"/>
</g>
<rect x="0.5" y="0.535156" width="29" height="29" rx="14.5" stroke="#D7D7D7"/>
<defs>
<clipPath id="clip0_5568_213739">
<rect y="0.0351562" width="30" height="30" rx="15" fill="white"/>
</clipPath>
</defs>
</svg>
