<svg width="30" height="30" viewBox="0 0 30 30" fill="none" xmlns="http://www.w3.org/2000/svg">
<rect width="30" height="30" rx="2" fill="white"/>
<path d="M21 11C22.6569 11 24 9.65685 24 8C24 6.34315 22.6569 5 21 5C19.3431 5 18 6.34315 18 8C18 9.65685 19.3431 11 21 11Z" fill="#5F5C5C"/>
<path d="M9 18C10.6569 18 12 16.6569 12 15C12 13.3431 10.6569 12 9 12C7.34315 12 6 13.3431 6 15C6 16.6569 7.34315 18 9 18Z" fill="#5F5C5C"/>
<path d="M21 25C22.6569 25 24 23.6569 24 22C24 20.3431 22.6569 19 21 19C19.3431 19 18 20.3431 18 22C18 23.6569 19.3431 25 21 25Z" fill="#5F5C5C"/>
<path d="M11.59 16.51L18.42 20.49M18.41 9.51L11.59 13.49M24 8C24 9.65685 22.6569 11 21 11C19.3431 11 18 9.65685 18 8C18 6.34315 19.3431 5 21 5C22.6569 5 24 6.34315 24 8ZM12 15C12 16.6569 10.6569 18 9 18C7.34315 18 6 16.6569 6 15C6 13.3431 7.34315 12 9 12C10.6569 12 12 13.3431 12 15ZM24 22C24 23.6569 22.6569 25 21 25C19.3431 25 18 23.6569 18 22C18 20.3431 19.3431 19 21 19C22.6569 19 24 20.3431 24 22Z" stroke="#5F5C5C" stroke-linecap="round" stroke-linejoin="round"/>
</svg>
