<svg width="30" height="30" viewBox="0 0 30 30" fill="none" xmlns="http://www.w3.org/2000/svg">
<rect width="30" height="30" rx="2" fill="white"/>
<path d="M10.8 24H19.2C20.8802 24 21.7202 24 22.362 23.673C22.9265 23.3854 23.3854 22.9265 23.673 22.362C24 21.7202 24 20.8802 24 19.2V18C24 17.07 24 16.605 23.8978 16.2235C23.6204 15.1883 22.8117 14.3796 21.7765 14.1022C21.395 14 20.93 14 20 14H10C9.07003 14 8.60504 14 8.22354 14.1022C7.18827 14.3796 6.37962 15.1883 6.10222 16.2235C6 16.605 6 17.07 6 18V19.2C6 20.8802 6 21.7202 6.32698 22.362C6.6146 22.9265 7.07354 23.3854 7.63803 23.673C8.27976 24 9.11984 24 10.8 24Z" fill="#5F5C5C" stroke="#5F5C5C" stroke-linecap="round" stroke-linejoin="round"/>
<path d="M19 10L15 6M15 6L11 10M15 6V18" stroke="white" stroke-width="4" stroke-linecap="round" stroke-linejoin="round"/>
<path d="M19 10L15 6M15 6L11 10M15 6V18" stroke="#5F5C5C" stroke-width="2" stroke-linecap="round" stroke-linejoin="round"/>
</svg>
