<svg width="30" height="30" viewBox="0 0 30 30" fill="none" xmlns="http://www.w3.org/2000/svg">
<rect width="30" height="30" rx="2" fill="white"/>
<path d="M10.8 24H17.2C18.8802 24 19.7202 24 20.362 23.673C20.9265 23.3854 21.3854 22.9265 21.673 22.362C22 21.7202 22 20.8802 22 19.2V18.9882C22 18.2545 22 17.8876 21.9171 17.5423C21.8436 17.2362 21.7224 16.9436 21.5579 16.6751C21.3724 16.3724 21.113 16.113 20.5941 15.5941L14.4059 9.40589C13.887 8.88703 13.6276 8.6276 13.3249 8.44208C13.0564 8.27759 12.7638 8.15638 12.4577 8.08289C12.1124 8 11.7455 8 11.0118 8H10.8C9.11984 8 8.27976 8 7.63803 8.32698C7.07354 8.6146 6.6146 9.07354 6.32698 9.63803C6 10.2798 6 11.1198 6 12.8V19.2C6 20.8802 6 21.7202 6.32698 22.362C6.6146 22.9265 7.07354 23.3854 7.63803 23.673C8.27976 24 9.11984 24 10.8 24Z" fill="#5F5C5C" stroke="#5F5C5C" stroke-linecap="round" stroke-linejoin="round"/>
<path d="M24 12L24 6M24 6H18M24 6L16 14" stroke="white" stroke-width="4" stroke-linecap="round" stroke-linejoin="round"/>
<path d="M24 12L24 6M24 6H18M24 6L16 14" stroke="#5F5C5C" stroke-width="2" stroke-linecap="round" stroke-linejoin="round"/>
</svg>
