<svg width="30" height="30" viewBox="0 0 30 30" fill="none" xmlns="http://www.w3.org/2000/svg">
<rect width="30" height="30" rx="2" fill="white"/>
<path d="M23.7914 15.6075C24.0355 15.3982 24.1575 15.2936 24.2023 15.1691C24.2415 15.0598 24.2415 14.9403 24.2023 14.831C24.1575 14.7065 24.0355 14.6019 23.7914 14.3926L15.3206 7.13202C14.9004 6.77182 14.6903 6.59172 14.5124 6.58731C14.3578 6.58348 14.2101 6.6514 14.1124 6.77128C14 6.90921 14 7.18595 14 7.73942V12.0347C11.8653 12.4081 9.91159 13.4898 8.45971 15.1139C6.87682 16.8846 6.00123 19.176 6 21.551V22.163C7.04934 20.8989 8.35951 19.8766 9.84076 19.166C11.1467 18.5395 12.5584 18.1684 14 18.0706V22.2607C14 22.8141 14 23.0909 14.1124 23.2288C14.2101 23.3487 14.3578 23.4166 14.5124 23.4128C14.6903 23.4084 14.9004 23.2283 15.3206 22.8681L23.7914 15.6075Z" fill="#5F5C5C" stroke="#5F5C5C" stroke-linecap="round" stroke-linejoin="round"/>
</svg>
