<svg width="30" height="30" viewBox="0 0 30 30" fill="none" xmlns="http://www.w3.org/2000/svg">
<rect width="30" height="30" rx="2" fill="white"/>
<path d="M16 6.5V9.2C16 10.8802 16 11.7202 16.327 12.362C16.6146 12.9265 17.0735 13.3854 17.638 13.673C18.2798 14 19.1198 14 20.8 14H23.5M24 15.9882V19.2C24 20.8802 24 21.7202 23.673 22.362C23.3854 22.9265 22.9265 23.3854 22.362 23.673C21.7202 24 20.8802 24 19.2 24H10.8C9.11984 24 8.27976 24 7.63803 23.673C7.07354 23.3854 6.6146 22.9265 6.32698 22.362C6 21.7202 6 20.8802 6 19.2V10.8C6 9.11984 6 8.27976 6.32698 7.63803C6.6146 7.07354 7.07354 6.6146 7.63803 6.32698C8.27976 6 9.11984 6 10.8 6H14.0118C14.7455 6 15.1124 6 15.4577 6.08289C15.7638 6.15638 16.0564 6.27759 16.3249 6.44208C16.6276 6.6276 16.887 6.88703 17.4059 7.40589L22.5941 12.5941C23.113 13.113 23.3724 13.3724 23.5579 13.6751C23.7224 13.9436 23.8436 14.2362 23.9171 14.5423C24 14.8876 24 15.2545 24 15.9882Z" stroke="#5F5C5C" stroke-width="1.5" stroke-linecap="round" stroke-linejoin="round"/>
</svg>
