<svg width="30" height="30" viewBox="0 0 30 30" fill="none" xmlns="http://www.w3.org/2000/svg">
<path d="M19.0004 12V9C19.0004 6.79086 17.2095 5 15.0004 5C12.7912 5 11.0004 6.79086 11.0004 9V12M6.59237 13.352L5.99237 19.752C5.82178 21.5717 5.73648 22.4815 6.03842 23.1843C6.30367 23.8016 6.76849 24.3121 7.35839 24.6338C8.0299 25 8.94374 25 10.7714 25H19.2293C21.057 25 21.9708 25 22.6423 24.6338C23.2322 24.3121 23.6971 23.8016 23.9623 23.1843C24.2643 22.4815 24.179 21.5717 24.0084 19.752L23.4084 13.352C23.2643 11.8153 23.1923 11.047 22.8467 10.4662C22.5424 9.95458 22.0927 9.54511 21.555 9.28984C20.9444 9 20.1727 9 18.6293 9L11.3714 9C9.82806 9 9.05638 9 8.44579 9.28984C7.90803 9.54511 7.45838 9.95458 7.15403 10.4662C6.80846 11.047 6.73643 11.8153 6.59237 13.352Z" stroke="#5F5C5C" stroke-width="1.5" stroke-linecap="round" stroke-linejoin="round"/>
</svg>
