<svg width="30" height="30" viewBox="0 0 30 30" fill="none" xmlns="http://www.w3.org/2000/svg">
<path d="M8.52 5.64L6.96 7.72C6.65102 8.13198 6.49652 8.33797 6.50011 8.51039C6.50323 8.66044 6.57358 8.80115 6.69175 8.89368C6.82754 9 7.08503 9 7.6 9H22.4C22.915 9 23.1725 9 23.3083 8.89368C23.4264 8.80115 23.4968 8.66044 23.4999 8.51039C23.5035 8.33797 23.349 8.13198 23.04 7.72L21.48 5.64M8.52 5.64C8.696 5.40533 8.784 5.288 8.89552 5.20338C8.9943 5.12842 9.10616 5.0725 9.22539 5.03845C9.36 5 9.50667 5 9.8 5H20.2C20.4933 5 20.64 5 20.7746 5.03845C20.8938 5.0725 21.0057 5.12842 21.1045 5.20338C21.216 5.288 21.304 5.40533 21.48 5.64M8.52 5.64L6.64 8.14666C6.40254 8.46328 6.28381 8.62159 6.1995 8.79592C6.12469 8.95062 6.07012 9.11431 6.03715 9.28296C6 9.47301 6 9.6709 6 10.0667L6 21.8C6 22.9201 6 23.4802 6.21799 23.908C6.40973 24.2843 6.71569 24.5903 7.09202 24.782C7.51984 25 8.07989 25 9.2 25L20.8 25C21.9201 25 22.4802 25 22.908 24.782C23.2843 24.5903 23.5903 24.2843 23.782 23.908C24 23.4802 24 22.9201 24 21.8V10.0667C24 9.6709 24 9.47301 23.9628 9.28296C23.9299 9.11431 23.8753 8.95062 23.8005 8.79592C23.7162 8.62159 23.5975 8.46328 23.36 8.14667L21.48 5.64M19 13C19 14.0609 18.5786 15.0783 17.8284 15.8284C17.0783 16.5786 16.0609 17 15 17C13.9391 17 12.9217 16.5786 12.1716 15.8284C11.4214 15.0783 11 14.0609 11 13" stroke="#5F5C5C" stroke-width="1.5" stroke-linecap="round" stroke-linejoin="round"/>
</svg>
