<svg width="30" height="30" viewBox="0 0 30 30" fill="none" xmlns="http://www.w3.org/2000/svg">
<path d="M9.50014 20H20.3294C21.2793 20 21.7543 20 22.1414 19.8284C22.4827 19.6771 22.7748 19.4333 22.9847 19.1246C23.2228 18.7744 23.3078 18.3071 23.4777 17.3724L24.8285 9.94311C24.8874 9.61918 24.9169 9.45721 24.8714 9.33074C24.8315 9.21979 24.7536 9.12651 24.6516 9.06739C24.5353 9 24.3707 9 24.0414 9H8.00014M5 5H6.3164C6.55909 5 6.68044 5 6.77858 5.04433C6.86507 5.0834 6.93867 5.14628 6.99075 5.22563C7.04984 5.31565 7.06876 5.43551 7.10662 5.67523L9.89338 23.3248C9.93124 23.5645 9.95016 23.6843 10.0093 23.7744C10.0613 23.8537 10.1349 23.9166 10.2214 23.9557C10.3196 24 10.4409 24 10.6836 24H22" stroke="#5F5C5C" stroke-width="1.5" stroke-linecap="round" stroke-linejoin="round"/>
</svg>
