<svg width="30" height="30" viewBox="0 0 30 30" fill="none" xmlns="http://www.w3.org/2000/svg">
<path d="M8.00014 17H21.1359C22.1487 17 22.6551 17 23.0582 16.8112C23.4134 16.6448 23.7118 16.3777 23.9163 16.0432C24.1485 15.6633 24.2044 15.16 24.3163 14.1534L24.9013 8.88835C24.9355 8.58088 24.9525 8.42715 24.9031 8.30816C24.8597 8.20366 24.7821 8.11697 24.683 8.06228C24.5702 8 24.4155 8 24.1062 8H7.50014M5 5H6.24844C6.51306 5 6.64537 5 6.74889 5.05032C6.84002 5.09463 6.91554 5.16557 6.96544 5.25376C7.02212 5.35394 7.03037 5.48599 7.04688 5.7501L7.95312 20.2499C7.96963 20.514 7.97788 20.6461 8.03456 20.7462C8.08446 20.8344 8.15998 20.9054 8.25111 20.9497C8.35463 21 8.48694 21 8.75156 21H22M10.5 24.5H10.51M19.5 24.5H19.51M11 24.5C11 24.7761 10.7761 25 10.5 25C10.2239 25 10 24.7761 10 24.5C10 24.2239 10.2239 24 10.5 24C10.7761 24 11 24.2239 11 24.5ZM20 24.5C20 24.7761 19.7761 25 19.5 25C19.2239 25 19 24.7761 19 24.5C19 24.2239 19.2239 24 19.5 24C19.7761 24 20 24.2239 20 24.5Z" stroke="#5F5C5C" stroke-width="1.5" stroke-linecap="round" stroke-linejoin="round"/>
</svg>
