<svg width="30" height="31" viewBox="0 0 30 31" fill="none" xmlns="http://www.w3.org/2000/svg">
<g clip-path="url(#clip0_5568_213745)">
<path d="M29.067 20.2525C29.67 18.6275 30 16.87 30 15.0351C30 13.2003 29.67 11.4428 29.067 9.81778L15 8.51343L0.932988 9.81778C0.33 11.4428 0 13.2003 0 15.0351C0 16.87 0.33 18.6275 0.932988 20.2525L15 21.5569L29.067 20.2525Z" fill="#F0F0F0"/>
<path d="M14.9997 30.0351C21.4491 30.0351 26.9473 25.9645 29.0666 20.2524H0.932617C3.05207 25.9645 8.55016 30.0351 14.9997 30.0351Z" fill="#338AF3"/>
<path d="M14.9997 0.0351562C8.55016 0.0351562 3.05207 4.10578 0.932617 9.81779H29.0667C26.9473 4.10578 21.4491 0.0351562 14.9997 0.0351562Z" fill="#6DA544"/>
</g>
<rect x="0.5" y="0.535156" width="29" height="29" rx="14.5" stroke="#D7D7D7"/>
<defs>
<clipPath id="clip0_5568_213745">
<rect y="0.0351562" width="30" height="30" rx="15" fill="white"/>
</clipPath>
</defs>
</svg>
