<svg width="30" height="31" viewBox="0 0 30 31" fill="none" xmlns="http://www.w3.org/2000/svg">
<g clip-path="url(#clip0_5568_213749)">
<path d="M15 30.0352C23.2843 30.0352 30 23.3194 30 15.0352C30 6.75088 23.2843 0.0351562 15 0.0351562C6.71573 0.0351562 0 6.75088 0 15.0352C0 23.3194 6.71573 30.0352 15 30.0352Z" fill="#F0F0F0"/>
<path d="M0 15.0352C0 6.75094 6.71578 0.0351562 15 0.0351562C23.2842 0.0351562 30 6.75094 30 15.0352" fill="#D80027"/>
<path d="M9.13039 7.86118C9.13039 5.67575 10.6663 3.85008 12.7173 3.40213C12.4021 3.33334 12.0751 3.29602 11.739 3.29602C9.2177 3.29602 7.17383 5.33989 7.17383 7.86124C7.17383 10.3826 9.2177 12.4264 11.739 12.4264C12.075 12.4264 12.402 12.3891 12.7173 12.3203C10.6663 11.8723 9.13039 10.0467 9.13039 7.86118V7.86118Z" fill="#F0F0F0"/>
<path d="M15.0004 3.62207L15.3241 4.61846H16.3719L15.5242 5.23434L15.848 6.23072L15.0004 5.61496L14.1527 6.23072L14.4765 5.23434L13.6289 4.61846H14.6766L15.0004 3.62207Z" fill="#F0F0F0"/>
<path d="M12.4585 5.57861L12.7822 6.57506H13.8299L12.9823 7.19088L13.3061 8.18727L12.4585 7.5715L11.6107 8.18727L11.9346 7.19088L11.0869 6.57506H12.1346L12.4585 5.57861Z" fill="#F0F0F0"/>
<path d="M17.5414 5.57861L17.8652 6.57506H18.9129L18.0652 7.19088L18.389 8.18727L17.5414 7.5715L16.6938 8.18727L17.0175 7.19088L16.1699 6.57506H17.2176L17.5414 5.57861Z" fill="#F0F0F0"/>
<path d="M16.5629 8.51343L16.8866 9.50987H17.9343L17.0867 10.1257L17.4105 11.1221L16.5629 10.5063L15.7152 11.1221L16.039 10.1257L15.1914 9.50987H16.239L16.5629 8.51343Z" fill="#F0F0F0"/>
<path d="M13.4369 8.51343L13.7607 9.50987H14.8084L13.9608 10.1257L14.2846 11.1221L13.4369 10.5063L12.5893 11.1221L12.913 10.1257L12.0654 9.50987H13.1131L13.4369 8.51343Z" fill="#F0F0F0"/>
</g>
<rect x="0.5" y="0.535156" width="29" height="29" rx="14.5" stroke="#D7D7D7"/>
<defs>
<clipPath id="clip0_5568_213749">
<rect y="0.0351562" width="30" height="30" rx="15" fill="white"/>
</clipPath>
</defs>
</svg>
