<svg width="30" height="31" viewBox="0 0 30 31" fill="none" xmlns="http://www.w3.org/2000/svg">
<g clip-path="url(#clip0_5568_213774)">
<path d="M13.6958 16.3503C13.6958 16.3503 4.40234 4.43721 4.39355 4.43932C7.10797 1.72484 10.858 0.0458984 15.0002 0.0458984C23.2844 0.0458984 30.0002 6.76168 30.0002 15.0459L13.6958 16.3503Z" fill="#D80027"/>
<path d="M13.6958 15.0459C13.6958 15.0459 4.40234 25.6546 4.39355 25.6525C7.10797 28.367 10.858 30.0459 15.0002 30.0459C23.2844 30.0459 30.0002 23.3301 30.0002 15.0459H13.6958Z" fill="#0052B4"/>
<path d="M4.39339 4.43921C-1.46446 10.2971 -1.46446 19.7946 4.39339 25.6525C6.81407 23.2318 9.14218 20.9037 15 15.0458L4.39339 4.43921Z" fill="#F0F0F0"/>
<path d="M1.64463 15.046C1.63643 15.1537 1.63086 15.2622 1.63086 15.372C1.63086 17.7132 3.52883 19.6112 5.87 19.6112C8.21117 19.6112 10.1091 17.7132 10.1091 15.372C10.1091 15.2622 10.1036 15.1537 10.0954 15.046H1.64463Z" fill="#FFDA44"/>
<path d="M5.86979 13.0894C6.59016 13.0894 7.17414 12.5054 7.17414 11.7851C7.17414 11.0647 6.59016 10.4807 5.86979 10.4807C5.14941 10.4807 4.56543 11.0647 4.56543 11.7851C4.56543 12.5054 5.14941 13.0894 5.86979 13.0894Z" fill="#FFDA44"/>
<path d="M2.93457 11.459V15.6981C2.93457 17.9446 5.86936 18.6329 5.86936 18.6329C5.86936 18.6329 8.80414 17.9446 8.80414 15.6981V11.459H2.93457Z" fill="#D80027"/>
<path d="M5.87115 17.2678C5.3267 17.0719 4.23926 16.5711 4.23926 15.6981V12.7633H7.50018V15.6981C7.50018 16.574 6.41285 17.0735 5.87115 17.2678V17.2678Z" fill="#338AF3"/>
<path d="M6.52203 14.3938V13.7416L5.86988 13.4155L5.21768 13.7416V14.3938L4.8916 14.7199V16.0242H6.84816V14.7199L6.52203 14.3938Z" fill="#F3F3F3"/>
</g>
<rect x="0.5" y="0.545898" width="29" height="29" rx="14.5" stroke="#D7D7D7"/>
<defs>
<clipPath id="clip0_5568_213774">
<rect y="0.0458984" width="30" height="30" rx="15" fill="white"/>
</clipPath>
</defs>
</svg>
