<svg width="30" height="31" viewBox="0 0 30 31" fill="none" xmlns="http://www.w3.org/2000/svg">
<g clip-path="url(#clip0_5568_213759)">
<path d="M6.5459 27.4264C8.95328 29.072 11.864 30.0351 15.0002 30.0351C18.1364 30.0351 21.0472 29.072 23.4545 27.4264L15.0002 26.1221L6.5459 27.4264Z" fill="#D80027"/>
<path d="M23.4545 2.64387C21.0472 0.998262 18.1364 0.0351562 15.0002 0.0351562C11.864 0.0351562 8.95316 0.998262 6.5459 2.64387L15.0002 3.94822L23.4545 2.64387Z" fill="#D80027"/>
<path d="M6.5459 27.4264C8.95328 29.072 11.864 30.0351 15.0002 30.0351C18.1364 30.0351 21.0472 29.072 23.4545 27.4264L15.0002 26.1221L6.5459 27.4264Z" fill="#D80027"/>
<path d="M23.4545 2.64387C21.0472 0.998262 18.1364 0.0351562 15.0002 0.0351562C11.864 0.0351562 8.95316 0.998262 6.5459 2.64387L15.0002 3.94822L23.4545 2.64387Z" fill="#D80027"/>
<path d="M29.9615 14.0569C29.6062 9.42737 26.7932 4.92644 23.454 2.6438H6.54541C2.84603 5.17276 0.336641 9.31464 0.03125 14.0569L14.9997 15.0351L29.9615 14.0569Z" fill="#0052B4"/>
<path d="M0.03125 16.0134C0.336641 20.7557 2.84598 24.8975 6.54535 27.4265H23.454C27.1535 24.8976 29.6628 20.7557 29.9681 16.0134L14.9997 15.0352L0.03125 16.0134Z" fill="#0052B4"/>
<path d="M29.9618 14.0569H15.9783V1.9917H14.0218V14.0569H0.031582C0.0107812 14.3803 0 14.7065 0 15.0352C0 15.3638 0.0107227 15.69 0.0315234 16.0134H14.0218V28.0787H15.9783V16.0134H29.9685C29.9893 15.69 30 15.3638 30 15.0352C30 14.7089 29.9868 14.3826 29.9618 14.0569Z" fill="#D80027"/>
<path d="M5.86914 15.0352L14.9995 9.29639L24.13 15.0352L14.9995 20.774L5.86914 15.0352Z" fill="#F0F0F0"/>
<path d="M9.78223 17.6438H21.5213L18.9127 13.7307L17.6083 15.0351L16.3039 14.3829L14.9996 16.3394H12.3909L11.0865 15.0351L9.78223 17.6438Z" fill="#6DA544"/>
<path d="M15.0003 11.1221L15.3241 12.1185H16.3717L15.5241 12.7343L15.8479 13.7308L15.0003 13.115L14.1527 13.7308L14.4765 12.7343L13.6289 12.1185H14.6765L15.0003 11.1221Z" fill="#FFDA44"/>
<path d="M14.9998 7.65674L3.26074 15.0352L14.9998 22.4137L26.739 15.0352L14.9998 7.65674ZM6.93738 15.0352L14.9998 9.96762L23.0624 15.0352L14.9998 20.1028L6.93738 15.0352Z" fill="#D80027"/>
</g>
<rect x="0.5" y="0.535156" width="29" height="29" rx="14.5" stroke="#D7D7D7"/>
<defs>
<clipPath id="clip0_5568_213759">
<rect y="0.0351562" width="30" height="30" rx="15" fill="white"/>
</clipPath>
</defs>
</svg>
