<svg width="30" height="30" viewBox="0 0 30 30" fill="none" xmlns="http://www.w3.org/2000/svg">
<rect width="30" height="30" rx="2" fill="white"/>
<path d="M7.93 7.93L22.07 22.07M5 11.5227V18.4773C5 18.7218 5 18.8441 5.02763 18.9592C5.05213 19.0613 5.09253 19.1588 5.14736 19.2483C5.2092 19.3492 5.29568 19.4357 5.46863 19.6086L10.3914 24.5314C10.5643 24.7043 10.6508 24.7908 10.7517 24.8526C10.8412 24.9075 10.9387 24.9479 11.0408 24.9724C11.1559 25 11.2782 25 11.5227 25H18.4773C18.7218 25 18.8441 25 18.9592 24.9724C19.0613 24.9479 19.1588 24.9075 19.2483 24.8526C19.3492 24.7908 19.4357 24.7043 19.6086 24.5314L24.5314 19.6086C24.7043 19.4357 24.7908 19.3492 24.8526 19.2483C24.9075 19.1588 24.9479 19.0613 24.9724 18.9592C25 18.8441 25 18.7218 25 18.4773V11.5227C25 11.2782 25 11.1559 24.9724 11.0408C24.9479 10.9387 24.9075 10.8412 24.8526 10.7517C24.7908 10.6508 24.7043 10.5643 24.5314 10.3914L19.6086 5.46863C19.4357 5.29568 19.3492 5.2092 19.2483 5.14736C19.1588 5.09253 19.0613 5.05213 18.9592 5.02763C18.8441 5 18.7218 5 18.4773 5H11.5227C11.2782 5 11.1559 5 11.0408 5.02763C10.9387 5.05213 10.8412 5.09253 10.7517 5.14736C10.6508 5.2092 10.5643 5.29568 10.3914 5.46863L5.46863 10.3914C5.29568 10.5643 5.2092 10.6508 5.14736 10.7517C5.09253 10.8412 5.05213 10.9387 5.02763 11.0408C5 11.1559 5 11.2782 5 11.5227Z" stroke="#5F5C5C" stroke-width="2" stroke-linecap="round" stroke-linejoin="round"/>
</svg>
