<svg width="30" height="31" viewBox="0 0 30 31" fill="none" xmlns="http://www.w3.org/2000/svg">
<g clip-path="url(#clip0_5568_213784)">
<path d="M15 30.0469C23.2843 30.0469 30 23.3311 30 15.0469C30 6.7626 23.2843 0.046875 15 0.046875C6.71573 0.046875 0 6.7626 0 15.0469C0 23.3311 6.71573 30.0469 15 30.0469Z" fill="#F0F0F0"/>
<path d="M15 30.0468C23.2842 30.0468 30 23.331 30 15.0468C30 13.212 29.67 11.4544 29.067 9.82947H0.932988C0.330059 11.4544 0 13.212 0 15.0468C0 23.331 6.71578 30.0468 15 30.0468Z" fill="#0052B4"/>
<path d="M14.9996 30.0468C21.4491 30.0468 26.9472 25.9762 29.0666 20.2642H0.932617C3.05201 25.9762 8.55016 30.0468 14.9996 30.0468Z" fill="#D80027"/>
<path d="M3.87891 8.52515V16.0079C3.87891 20.2644 9.43951 21.5686 9.43951 21.5686C9.43951 21.5686 15.0001 20.2644 15.0001 16.0079V8.52515H3.87891Z" fill="#F0F0F0"/>
<path d="M5.18359 8.52515V16.0079C5.18359 16.5076 5.29457 16.9795 5.51441 17.422H13.3652C13.5851 16.9796 13.696 16.5076 13.696 16.0079V8.52515H5.18359Z" fill="#D80027"/>
<path d="M12.0484 13.7426H10.092V12.4382H11.3963V11.1339H10.092V9.82959H8.78762V11.1339H7.48332V12.4382H8.78762V13.7426H6.83105V15.047H8.78762V16.3513H10.092V15.047H12.0484V13.7426Z" fill="#F0F0F0"/>
<path d="M7.29275 19.2428C8.13328 19.771 8.99684 20.0777 9.43893 20.2141C9.88102 20.0777 10.7446 19.771 11.5851 19.2428C12.4327 18.7101 13.0269 18.1008 13.3643 17.422C12.9922 17.1587 12.5381 17.0035 12.0476 17.0035C11.869 17.0035 11.6955 17.0246 11.5287 17.0635C11.1752 16.2602 10.3728 15.6991 9.43898 15.6991C8.50518 15.6991 7.70268 16.2602 7.34924 17.0635C7.18242 17.0246 7.00887 17.0035 6.83033 17.0035C6.33984 17.0035 5.8858 17.1587 5.51367 17.422C5.85088 18.1007 6.44508 18.71 7.29275 19.2428Z" fill="#0052B4"/>
</g>
<rect x="0.5" y="0.546875" width="29" height="29" rx="14.5" stroke="#D7D7D7"/>
<defs>
<clipPath id="clip0_5568_213784">
<rect y="0.046875" width="30" height="30" rx="15" fill="white"/>
</clipPath>
</defs>
</svg>
