<svg width="30" height="31" viewBox="0 0 30 31" fill="none" xmlns="http://www.w3.org/2000/svg">
<g clip-path="url(#clip0_5568_213792)">
<path d="M15 30.0459C23.2843 30.0459 30 23.3302 30 15.0459C30 6.76163 23.2843 0.0458984 15 0.0458984C6.71573 0.0458984 0 6.76163 0 15.0459C0 23.3302 6.71573 30.0459 15 30.0459Z" fill="#F0F0F0"/>
<path d="M29.067 9.82859H13.0435V5.91553H5.21736V9.82859H0.932988C0.330059 11.4535 0 13.2112 0 15.046C0 16.8808 0.330059 18.6383 0.932988 20.2633L15 21.5677L29.067 20.2633C29.6699 18.6383 30 16.8808 30 15.046C30 13.2112 29.6699 11.4535 29.067 9.82859Z" fill="#0052B4"/>
<path d="M14.9996 30.0458C21.4491 30.0458 26.9472 25.9752 29.0666 20.2632H0.932617C3.05201 25.9752 8.55016 30.0458 14.9996 30.0458Z" fill="#D80027"/>
<path d="M5.21777 9.82854V11.1328C5.21777 14.1282 9.13084 15.046 9.13084 15.046C9.13084 15.046 13.0439 14.1282 13.0439 11.1328V9.82854L11.7396 11.1329L9.13084 9.17639L6.52213 11.1329L5.21777 9.82854Z" fill="#F0F0F0"/>
</g>
<rect x="0.5" y="0.545898" width="29" height="29" rx="14.5" stroke="#D7D7D7"/>
<defs>
<clipPath id="clip0_5568_213792">
<rect y="0.0458984" width="30" height="30" rx="15" fill="white"/>
</clipPath>
</defs>
</svg>
