<svg width="30" height="31" viewBox="0 0 30 31" fill="none" xmlns="http://www.w3.org/2000/svg">
<g clip-path="url(#clip0_5568_213797)">
<path d="M25.6067 25.6528C31.2323 20.0272 31.4545 11.0457 26.2754 5.15356L14.9997 15.0458L5.10742 26.3216C10.9995 31.5006 19.981 31.2785 25.6067 25.6528V25.6528Z" fill="#496E2D"/>
<path d="M4.39297 4.4389C10.0186 -1.18673 19.0001 -1.40886 24.8922 3.77017L14.9999 15.046L3.7243 24.9382C-1.45479 19.0461 -1.2326 10.0645 4.39297 4.4389V4.4389Z" fill="#0052B4"/>
<path d="M24.8926 3.77002L3.72461 24.938C3.93859 25.1815 4.16078 25.4203 4.39334 25.6528C4.62584 25.8853 4.86472 26.1074 5.10824 26.3215L26.2761 5.15353C26.0621 4.91002 25.8398 4.67119 25.6073 4.43863C25.3749 4.20625 25.136 3.984 24.8926 3.77002V3.77002Z" fill="#FFDA44"/>
<path d="M6.31974 5.26282L6.64359 6.25932H7.6913L6.84369 6.87508L7.16742 7.87158L6.31974 7.2557L5.47207 7.87158L5.79592 6.87508L4.94824 6.25932H5.99601L6.31974 5.26282Z" fill="#F0F0F0"/>
<path d="M11.6713 5.26282L11.9952 6.25932H13.0428L12.1952 6.87508L12.519 7.87158L11.6713 7.2557L10.8236 7.87158L11.1475 6.87508L10.2998 6.25932H11.3475L11.6713 5.26282Z" fill="#F0F0F0"/>
<path d="M6.31974 10.4803L6.64359 11.4768H7.6913L6.84369 12.0927L7.16742 13.0892L6.31974 12.4733L5.47207 13.0892L5.79592 12.0927L4.94824 11.4768H5.99601L6.31974 10.4803Z" fill="#F0F0F0"/>
<path d="M11.6713 10.4805L11.9952 11.477H13.0428L12.1952 12.0928L12.519 13.0893L11.6713 12.4734L10.8236 13.0893L11.1475 12.0928L10.2998 11.477H11.3475L11.6713 10.4805Z" fill="#F0F0F0"/>
<path d="M8.99558 7.87158L9.31943 8.86808H10.3671L9.51947 9.4839L9.84326 10.4804L8.99558 9.86453L8.14791 10.4804L8.4717 9.4839L7.62402 8.86808H8.6718L8.99558 7.87158Z" fill="#F0F0F0"/>
</g>
<rect x="0.5" y="0.545898" width="29" height="29" rx="14.5" stroke="#D7D7D7"/>
<defs>
<clipPath id="clip0_5568_213797">
<rect y="0.0458984" width="30" height="30" rx="15" fill="white"/>
</clipPath>
</defs>
</svg>
