<svg width="30" height="31" viewBox="0 0 30 31" fill="none" xmlns="http://www.w3.org/2000/svg">
<g clip-path="url(#clip0_5568_213810)">
<path d="M29.067 20.2525C29.6699 18.6275 30 16.87 30 15.0351C30 13.2003 29.6699 11.4428 29.067 9.81778L15 8.51343L0.932988 9.81778C0.330059 11.4428 0 13.2003 0 15.0351C0 16.87 0.330059 18.6275 0.932988 20.2525L15 21.5569L29.067 20.2525Z" fill="#F0F0F0"/>
<path d="M14.9997 30.0351C21.4491 30.0351 26.9473 25.9645 29.0666 20.2524H0.932617C3.05207 25.9645 8.55016 30.0351 14.9997 30.0351Z" fill="#D80027"/>
<path d="M14.9997 0.0351562C8.55016 0.0351562 3.05207 4.10578 0.932617 9.81779H29.0667C26.9473 4.10578 21.4491 0.0351562 14.9997 0.0351562Z" fill="#496E2D"/>
<path d="M15 11.7743L15.8093 14.2653H18.4286L16.3096 15.805L17.1191 18.296L15 16.7566L12.8809 18.296L13.6903 15.805L11.5713 14.2653H14.1906L15 11.7743Z" fill="black"/>
<path d="M19.4564 2.96997V6.01339C19.4564 6.49298 19.0664 6.88298 18.5869 6.88298V8.18733C19.7856 8.18733 20.7608 7.21216 20.7608 6.01339V2.96997H19.4564Z" fill="#F0F0F0"/>
<path d="M10.1088 6.01339C10.1088 6.49298 9.71879 6.88298 9.23926 6.88298V8.18733C10.438 8.18733 11.4132 7.21216 11.4132 6.01339V2.96997H10.1088V6.01339Z" fill="#F0F0F0"/>
<path d="M17.5 2.96997H18.8044V6.01339H17.5V2.96997Z" fill="#F0F0F0"/>
<path d="M15.5437 4.70903C15.5437 4.82892 15.4462 4.92647 15.3263 4.92647C15.2065 4.92647 15.1089 4.82892 15.1089 4.70903V2.96997H13.8046V4.70903C13.8046 4.82892 13.7071 4.92647 13.5872 4.92647C13.4673 4.92647 13.3698 4.82892 13.3698 4.70903V2.96997H12.0654V4.70903C12.0654 5.54821 12.748 6.23083 13.5872 6.23083C13.9103 6.23083 14.2101 6.12929 14.4567 5.95685C14.7034 6.12929 15.0031 6.23083 15.3263 6.23083C15.3914 6.23083 15.4554 6.22626 15.5183 6.21823C15.4258 6.59903 15.0829 6.88298 14.6741 6.88298V8.18733C15.8729 8.18733 16.848 7.21216 16.848 6.01339V4.70903V2.96997H15.5437L15.5437 4.70903Z" fill="#F0F0F0"/>
<path d="M12.0654 6.88306H14.0219V8.18741H12.0654V6.88306Z" fill="#F0F0F0"/>
</g>
<rect x="0.5" y="0.535156" width="29" height="29" rx="14.5" stroke="#D7D7D7"/>
<defs>
<clipPath id="clip0_5568_213810">
<rect y="0.0351562" width="30" height="30" rx="15" fill="white"/>
</clipPath>
</defs>
</svg>
