<svg width="30" height="31" viewBox="0 0 30 31" fill="none" xmlns="http://www.w3.org/2000/svg">
<g clip-path="url(#clip0_5568_213828)">
<path d="M15 30.0352C23.2843 30.0352 30 23.3194 30 15.0352C30 6.75088 23.2843 0.0351562 15 0.0351562C6.71573 0.0351562 0 6.75088 0 15.0352C0 23.3194 6.71573 30.0352 15 30.0352Z" fill="#F0F0F0"/>
<path d="M20.217 15.0352C20.217 16.3396 17.8811 19.6004 14.9996 19.6004C12.1181 19.6004 9.78223 16.3396 9.78223 15.0352C9.78223 12.1537 12.1181 9.81787 14.9996 9.81787C17.8811 9.81787 20.217 12.1537 20.217 15.0352Z" fill="#D80027"/>
<path d="M20.217 15.0352C20.217 17.9167 17.8811 20.2525 14.9996 20.2525C12.1181 20.2525 9.78223 17.9167 9.78223 15.0352" fill="#0052B4"/>
<path d="M20.5293 19.647L21.9125 18.2637L22.8347 19.1859L21.4515 20.5692L20.5293 19.647Z" fill="black"/>
<path d="M18.2236 21.9525L19.6069 20.5693L20.5291 21.4914L19.1458 22.8747L18.2236 21.9525Z" fill="black"/>
<path d="M23.2969 22.4133L24.6801 21.0301L25.6023 21.9523L24.2191 23.3355L23.2969 22.4133Z" fill="black"/>
<path d="M20.9902 24.7192L22.3735 23.336L23.2957 24.2582L21.9124 25.6414L20.9902 24.7192Z" fill="black"/>
<path d="M21.9131 21.0303L23.2963 19.647L24.2185 20.5692L22.8353 21.9525L21.9131 21.0303Z" fill="black"/>
<path d="M19.6074 23.3357L20.9907 21.9524L21.9128 22.8746L20.5296 24.2579L19.6074 23.3357Z" fill="black"/>
<path d="M23.3027 10.4259L19.6141 6.73723L20.5362 5.81505L24.2249 9.50372L23.3027 10.4259Z" fill="black"/>
<path d="M19.6133 9.50415L18.23 8.1209L19.1522 7.19876L20.5354 8.58201L19.6133 9.50415Z" fill="black"/>
<path d="M21.9189 11.8101L20.5357 10.4268L21.4578 9.50467L22.8411 10.8879L21.9189 11.8101Z" fill="black"/>
<path d="M22.3799 6.73706L20.9966 5.35381L21.9188 4.43163L23.3021 5.81488L22.3799 6.73706Z" fill="black"/>
<path d="M24.6865 9.04346L23.3033 7.66021L24.2255 6.73803L25.6087 8.12128L24.6865 9.04346Z" fill="black"/>
<path d="M5.31738 21.0276L9.00606 24.7163L8.08388 25.6384L4.3952 21.9498L5.31738 21.0276Z" fill="black"/>
<path d="M9.00586 21.9491L10.3891 23.3323L9.46697 24.2545L8.08372 22.8712L9.00586 21.9491Z" fill="black"/>
<path d="M6.7002 19.644L8.08344 21.0273L7.16127 21.9495L5.77802 20.5662L6.7002 19.644Z" fill="black"/>
<path d="M8.08398 18.2605L11.7727 21.9492L10.8505 22.8714L7.16181 19.1827L8.08398 18.2605Z" fill="black"/>
<path d="M9.00586 5.35095L5.31718 9.03963L4.395 8.11745L8.08368 4.42877L9.00586 5.35095Z" fill="black"/>
<path d="M10.3896 6.73413L6.70097 10.4228L5.77879 9.50063L9.46747 5.81195L10.3896 6.73413Z" fill="black"/>
<path d="M11.7734 8.11816L8.08476 11.8068L7.16262 10.8847L10.8513 7.19603L11.7734 8.11816Z" fill="black"/>
</g>
<rect x="0.5" y="0.535156" width="29" height="29" rx="14.5" stroke="#D7D7D7"/>
<defs>
<clipPath id="clip0_5568_213828">
<rect y="0.0351562" width="30" height="30" rx="15" fill="white"/>
</clipPath>
</defs>
</svg>
