<svg width="30" height="31" viewBox="0 0 30 31" fill="none" xmlns="http://www.w3.org/2000/svg">
<g clip-path="url(#clip0_5568_213850)">
<path d="M15 30.0352C23.2843 30.0352 30 23.3194 30 15.0352C30 6.75088 23.2843 0.0351562 15 0.0351562C6.71573 0.0351562 0 6.75088 0 15.0352C0 23.3194 6.71573 30.0352 15 30.0352Z" fill="#F0F0F0"/>
<path d="M28.8295 9.2199C26.5579 3.82395 21.2216 0.0351562 14.9997 0.0351562C10.8574 0.0351562 7.10785 1.71439 4.39355 4.42904L8.15 9.2199H28.8295Z" fill="black"/>
<path d="M8.1926 20.7961L4.39355 25.6413C7.10785 28.356 10.8574 30.0352 14.9997 30.0352C21.2426 30.0352 26.5941 26.2211 28.8526 20.7961H8.1926Z" fill="#496E2D"/>
<path d="M3.26074 11.0677V18.9481H29.4832C29.8196 17.7006 29.9999 16.3891 29.9999 15.0351C29.9999 13.6616 29.8148 12.3315 29.469 11.0677H3.26074Z" fill="#A2001D"/>
<path d="M4.39339 4.42847C-1.46446 10.2863 -1.46446 19.7838 4.39339 25.6417C6.81407 23.2211 9.14218 20.893 15 15.0351L4.39339 4.42847Z" fill="#0052B4"/>
<path d="M4.88611 11.3058L6.71687 13.8605L9.71266 12.9087L7.84873 15.4395L9.67949 17.9944L6.6966 17.0037L4.83262 19.5345L4.85312 16.3914L1.87012 15.4006L4.86566 14.4488L4.88611 11.3058Z" fill="#FFDA44"/>
</g>
<rect x="0.5" y="0.535156" width="29" height="29" rx="14.5" stroke="#D7D7D7"/>
<defs>
<clipPath id="clip0_5568_213850">
<rect y="0.0351562" width="30" height="30" rx="15" fill="white"/>
</clipPath>
</defs>
</svg>
