<svg width="30" height="31" viewBox="0 0 30 31" fill="none" xmlns="http://www.w3.org/2000/svg">
<g clip-path="url(#clip0_5568_213821)">
<path d="M15 30.0352C23.2843 30.0352 30 23.3194 30 15.0352C30 6.75088 23.2843 0.0351562 15 0.0351562C6.71573 0.0351562 0 6.75088 0 15.0352C0 23.3194 6.71573 30.0352 15 30.0352Z" fill="#F0F0F0"/>
<path d="M4.39339 25.6417C-1.46446 19.7838 -1.46446 10.2864 4.39339 4.42847C4.39298 4.42911 13.0435 15.0351 13.0435 15.0351L4.39339 25.6417Z" fill="black"/>
<path d="M13.0437 15.0351L1.98959 7.56519C1.64687 8.16091 1.34465 8.78271 1.08496 9.4263L6.68119 15.0352L1.08514 20.6444C1.34459 21.2875 1.64652 21.9089 1.989 22.5042L13.0437 15.0351Z" fill="#FFDA44"/>
<path d="M29.8734 13.0786H13.0435L4.39365 4.42871C3.46154 5.36082 2.65172 6.41498 1.98984 7.56523L9.44525 15.0351L1.98926 22.5041C2.65113 23.6546 3.46131 24.7091 4.39365 25.6415L13.0435 16.9916H29.8734C29.9568 16.3512 30.0004 15.6982 30.0004 15.0351C30.0004 14.372 29.9568 13.719 29.8734 13.0786V13.0786Z" fill="#6DA544"/>
<path d="M5.86719 26.9342C8.39662 28.8785 11.5629 30.0352 14.9997 30.0352C21.9301 30.0352 27.7617 25.3347 29.483 18.9482H13.8532L5.86719 26.9342Z" fill="#0052B4"/>
<path d="M29.483 11.1221C27.7617 4.73561 21.9301 0.0351562 14.9997 0.0351562C11.5629 0.0351562 8.39662 1.19186 5.86719 3.13611L13.8532 11.1221H29.483Z" fill="#D80027"/>
</g>
<rect x="0.5" y="0.535156" width="29" height="29" rx="14.5" stroke="#D7D7D7"/>
<defs>
<clipPath id="clip0_5568_213821">
<rect y="0.0351562" width="30" height="30" rx="15" fill="white"/>
</clipPath>
</defs>
</svg>
