<svg width="30" height="31" viewBox="0 0 30 31" fill="none" xmlns="http://www.w3.org/2000/svg">
<g clip-path="url(#clip0_5568_213857)">
<path d="M0 15.0351C0 16.87 0.330059 18.6275 0.932988 20.2525L15 21.5569L29.067 20.2525C29.6699 18.6275 30 16.87 30 15.0351C30 13.2003 29.6699 11.4428 29.067 9.81778L15 8.51343L0.932988 9.81778C0.330059 11.4428 0 13.2003 0 15.0351H0Z" fill="#FFDA44"/>
<path d="M29.0666 9.81779C26.9472 4.10584 21.4491 0.0351562 14.9996 0.0351562C8.55016 0.0351562 3.05201 4.10584 0.932617 9.81779H29.0666Z" fill="#D80027"/>
<path d="M0.932617 20.2526C3.05201 25.9645 8.55016 30.0352 14.9996 30.0352C21.4491 30.0352 26.9472 25.9645 29.0666 20.2526H0.932617Z" fill="#D80027"/>
</g>
<rect x="0.5" y="0.535156" width="29" height="29" rx="14.5" stroke="#D7D7D7"/>
<defs>
<clipPath id="clip0_5568_213857">
<rect y="0.0351562" width="30" height="30" rx="15" fill="white"/>
</clipPath>
</defs>
</svg>
