<svg width="30" height="30" viewBox="0 0 30 30" fill="none" xmlns="http://www.w3.org/2000/svg">
<rect width="30" height="30" rx="2" fill="white"/>
<path d="M15 5V7.5M15 5C9.47715 5 5 9.47715 5 15M15 5C20.5228 5 25 9.47715 25 15M15 22.5V25M15 25C20.5228 25 25 20.5228 25 15M15 25C9.47715 25 5 20.5228 5 15M7.5 15H5M25 15H22.5M22.0784 22.0784L20.3047 20.3047M7.92163 22.0784L9.69715 20.3029M7.92163 8L9.65808 9.73645M22.0784 8L16.4999 13.5M17 15C17 16.1046 16.1046 17 15 17C13.8954 17 13 16.1046 13 15C13 13.8954 13.8954 13 15 13C16.1046 13 17 13.8954 17 15Z" stroke="#5F5C5C" stroke-width="1.5" stroke-linecap="round" stroke-linejoin="round"/>
</svg>
