<svg width="30" height="30" viewBox="0 0 30 30" fill="none" xmlns="http://www.w3.org/2000/svg">
<rect width="30" height="30" rx="2" fill="white"/>
<path d="M15 25C20.5228 25 25 20.5228 25 15C25 9.47715 20.5228 5 15 5C9.47715 5 5 9.47715 5 15C5 20.5228 9.47715 25 15 25Z" fill="#5F5C5C" stroke="#5F5C5C" stroke-linecap="round" stroke-linejoin="round"/>
<path d="M20.7453 19C21.5362 17.8661 22 16.4872 22 15C22 14.4851 21.9444 13.9832 21.8389 13.5M9.25469 19C8.46381 17.8662 8 16.4872 8 15C8 11.134 11.134 8 15 8C15.4221 8 15.8355 8.03737 16.2371 8.10897M19.4999 10.5L14.9999 15M16 15C16 15.5523 15.5523 16 15 16C14.4477 16 14 15.5523 14 15C14 14.4477 14.4477 14 15 14C15.5523 14 16 14.4477 16 15Z" stroke="white" stroke-linecap="round" stroke-linejoin="round"/>
</svg>
