<svg width="30" height="30" viewBox="0 0 30 30" fill="none" xmlns="http://www.w3.org/2000/svg">
<rect width="30" height="30" rx="2" fill="white"/>
<path d="M15 25C20.5228 25 25 20.5228 25 15C25 9.47715 20.5228 5 15 5C9.47715 5 5 9.47715 5 15C5 20.5228 9.47715 25 15 25Z" fill="#5F5C5C"/>
<path d="M15 17C16.1046 17 17 16.1046 17 15C17 13.8954 16.1046 13 15 13C13.8954 13 13 13.8954 13 15C13 16.1046 13.8954 17 15 17Z" fill="#5F5C5C"/>
<path d="M25 15C25 20.5228 20.5228 25 15 25C9.47715 25 5 20.5228 5 15M25 15C25 9.47715 20.5228 5 15 5M25 15H22.5M5 15C5 9.47715 9.47715 5 15 5M5 15H7.5M15 5V7.5M22.0784 8L16.4999 13.5M7.92163 8L9.65808 9.73645M17 15C17 16.1046 16.1046 17 15 17C13.8954 17 13 16.1046 13 15C13 13.8954 13.8954 13 15 13C16.1046 13 17 13.8954 17 15Z" stroke="#5F5C5C" stroke-linecap="round" stroke-linejoin="round"/>
<path d="M15 5V7.5M7.5 15H5M25 15H22.5M7.92163 8L9.65808 9.73645M22.0784 8L16.4999 13.5M22.0784 22.0784L21.8745 21.8745C21.1827 21.1827 20.8368 20.8368 20.4331 20.5894C20.0753 20.3701 19.6851 20.2085 19.2769 20.1105C18.8166 20 18.3274 20 17.349 20L12.651 20C11.6726 20 11.1834 20 10.7231 20.1106C10.3149 20.2085 9.92475 20.3702 9.56686 20.5895C9.1632 20.8368 8.81729 21.1827 8.12549 21.8745L7.92163 22.0784M17 15C17 16.1046 16.1046 17 15 17C13.8954 17 13 16.1046 13 15C13 13.8954 13.8954 13 15 13C16.1046 13 17 13.8954 17 15Z" stroke="white" stroke-width="2" stroke-linecap="round" stroke-linejoin="round"/>
</svg>
