<svg width="30" height="31" viewBox="0 0 30 31" fill="none" xmlns="http://www.w3.org/2000/svg">
<g clip-path="url(#clip0_5568_213862)">
<path d="M15 30.0458C23.2842 30.0458 29.9999 23.3301 29.9999 15.0459C29.9999 6.76161 23.2842 0.0458984 15 0.0458984C6.71572 0.0458984 0 6.76161 0 15.0459C0 23.3301 6.71572 30.0458 15 30.0458Z" fill="#FFDA44"/>
<path d="M11.7394 2.65466H6.5459C6.31575 2.81199 6.09051 2.97576 5.86979 3.14527L4.56543 15.0459L5.86979 26.9466C6.09051 27.1161 6.31575 27.2799 6.5459 27.4372H11.7394V2.65466Z" fill="#FF9811"/>
<path d="M0 15.046C0 19.8943 2.30086 24.2046 5.86958 26.9466V3.14526C2.30086 5.88734 0 10.1976 0 15.046V15.046Z" fill="#6DA544"/>
<path d="M24.1309 9.19031V9.5656L24.1448 9.56771L24.1309 9.19031Z" fill="#FFDA44"/>
<path d="M28.804 18.9589H25.9779L24.7823 20.2632V22.8719H22.1736V21.5676H23.4779V18.9589H17.6083V20.5893H16.304V17.482C15.9038 17.1238 15.6518 16.6034 15.6518 16.0241V7.54584C15.6518 6.46531 16.5278 5.58933 17.6083 5.58933V17.6546H20.217L21.1121 16.9086C20.9558 16.5362 20.8692 16.1273 20.8692 15.6981V13.7416H18.9127V9.82854H22.8257C22.8257 9.17639 23.804 8.52418 23.804 8.52418C23.804 8.52418 24.7823 9.17633 24.7823 9.82854V10.8068V13.7416C25.5078 13.7502 26.6606 13.7314 27.906 13.7416C27.5788 13.1697 27.3909 12.4912 27.3909 11.7851C27.3909 10.6343 27.8878 9.59961 28.6787 8.8836C27.5387 6.35732 25.7196 4.20329 23.4539 2.65454H13.6953V27.4372H23.454C26.209 25.5539 28.3037 22.7759 29.32 19.5217L28.804 18.9589Z" fill="#A2001D"/>
</g>
<rect x="0.5" y="0.545898" width="29" height="29" rx="14.5" stroke="#D7D7D7"/>
<defs>
<clipPath id="clip0_5568_213862">
<rect y="0.0458984" width="30" height="30" rx="15" fill="white"/>
</clipPath>
</defs>
</svg>
