<svg width="30" height="30" viewBox="0 0 30 30" fill="none" xmlns="http://www.w3.org/2000/svg">
<rect width="30" height="30" rx="2" fill="white"/>
<path d="M23 15.5V9.8C23 8.11984 23 7.27976 22.673 6.63803C22.3854 6.07354 21.9265 5.6146 21.362 5.32698C20.7202 5 19.8802 5 18.2 5H11.8C10.1198 5 9.27976 5 8.63803 5.32698C8.07354 5.6146 7.6146 6.07354 7.32698 6.63803C7 7.27976 7 8.11984 7 9.8V20.2C7 21.8802 7 22.7202 7.32698 23.362C7.6146 23.9265 8.07354 24.3854 8.63803 24.673C9.27976 25 10.1198 25 11.8 25H15M17 14H11M13 18H11M19 10H11M17.5 22L19.5 24L24 19.5" stroke="#5F5C5C" stroke-width="1.5" stroke-linecap="round" stroke-linejoin="round"/>
</svg>
