<svg width="30" height="30" viewBox="0 0 30 30" fill="none" xmlns="http://www.w3.org/2000/svg">
<path d="M14.3064 6.20703C14.5339 5.81117 14.6476 5.61324 14.7963 5.54691C14.9259 5.48905 15.0741 5.48905 15.2037 5.54691C15.3524 5.61324 15.4661 5.81117 15.6936 6.20703L17.6488 9.60935C17.733 9.75589 17.7751 9.82916 17.8341 9.88241C17.8864 9.92952 17.948 9.96508 18.0149 9.98676C18.0905 10.0113 18.175 10.0111 18.344 10.0108L22.2681 10.0028C22.7247 10.0019 22.953 10.0014 23.0847 10.097C23.1997 10.1804 23.2738 10.3087 23.2885 10.4499C23.3054 10.6118 23.1908 10.8093 22.9618 11.2042L20.9928 14.5986C20.908 14.7448 20.8656 14.8179 20.849 14.8956C20.8344 14.9644 20.8344 15.0356 20.849 15.1044C20.8656 15.1821 20.908 15.2552 20.9928 15.4014L22.9618 18.7958C23.1908 19.1907 23.3054 19.3882 23.2885 19.5501C23.2738 19.6913 23.1997 19.8196 23.0847 19.903C22.953 19.9986 22.7247 19.9981 22.2681 19.9972L18.344 19.9892C18.175 19.9889 18.0905 19.9887 18.0149 20.0132C17.948 20.0349 17.8864 20.0705 17.8341 20.1176C17.7751 20.1708 17.733 20.2441 17.6488 20.3906L15.6936 23.793C15.4661 24.1888 15.3524 24.3868 15.2037 24.4531C15.0741 24.5109 14.9259 24.5109 14.7963 24.4531C14.6476 24.3868 14.5339 24.1888 14.3064 23.793L12.3512 20.3906C12.267 20.2441 12.2249 20.1708 12.1659 20.1176C12.1136 20.0705 12.052 20.0349 11.9851 20.0132C11.9095 19.9887 11.825 19.9889 11.656 19.9892L7.73188 19.9972C7.27532 19.9981 7.04704 19.9986 6.91525 19.903C6.80032 19.8196 6.72624 19.6913 6.71152 19.5501C6.69463 19.3882 6.80917 19.1907 7.03825 18.7958L9.00717 15.4014C9.09197 15.2552 9.13437 15.1821 9.15096 15.1044C9.16565 15.0356 9.16565 14.9644 9.15096 14.8956C9.13437 14.8179 9.09197 14.7448 9.00717 14.5986L7.03825 11.2042C6.80917 10.8093 6.69463 10.6118 6.71152 10.4499C6.72624 10.3087 6.80032 10.1804 6.91525 10.097C7.04704 10.0014 7.27532 10.0019 7.73188 10.0028L11.656 10.0108C11.825 10.0111 11.9095 10.0113 11.9851 9.98676C12.052 9.96508 12.1136 9.92952 12.1659 9.88241C12.2249 9.82916 12.267 9.75589 12.3512 9.60935L14.3064 6.20703Z" stroke="#5F5C5C" stroke-width="1.5" stroke-linecap="round" stroke-linejoin="round"/>
</svg>
