<svg width="30" height="30" viewBox="0 0 30 30" fill="none" xmlns="http://www.w3.org/2000/svg">
<path d="M7.5 25V20M7.5 10V5M5 7.5H10M5 22.5H10M16 6L14.2658 10.5089C13.9838 11.2421 13.8428 11.6087 13.6235 11.9171C13.4292 12.1904 13.1904 12.4292 12.9171 12.6235C12.6087 12.8428 12.2421 12.9838 11.5089 13.2658L7 15L11.5089 16.7342C12.2421 17.0162 12.6087 17.1572 12.9171 17.3765C13.1904 17.5708 13.4292 17.8096 13.6235 18.0829C13.8428 18.3913 13.9838 18.7579 14.2658 19.4911L16 24L17.7342 19.4911C18.0162 18.7579 18.1572 18.3913 18.3765 18.0829C18.5708 17.8096 18.8096 17.5708 19.0829 17.3765C19.3913 17.1572 19.7579 17.0162 20.4911 16.7342L25 15L20.4911 13.2658C19.7579 12.9838 19.3913 12.8428 19.0829 12.6235C18.8096 12.4292 18.5708 12.1904 18.3765 11.9171C18.1572 11.6087 18.0162 11.2421 17.7342 10.5089L16 6Z" stroke="#5F5C5C" stroke-width="1.5" stroke-linecap="round" stroke-linejoin="round"/>
</svg>
