<svg width="30" height="30" viewBox="0 0 30 30" fill="none" xmlns="http://www.w3.org/2000/svg">
<path d="M15 5L17.012 10.2311C17.294 10.9643 17.435 11.3309 17.6542 11.6393C17.8486 11.9126 18.0874 12.1514 18.3607 12.3458C18.6691 12.565 19.0357 12.706 19.7689 12.988L25 15L19.7689 17.012C19.0357 17.294 18.6691 17.435 18.3607 17.6542C18.0874 17.8486 17.8486 18.0874 17.6542 18.3607C17.435 18.6691 17.294 19.0357 17.012 19.7689L15 25L12.988 19.7689C12.706 19.0357 12.565 18.6691 12.3458 18.3607C12.1514 18.0874 11.9126 17.8486 11.6393 17.6542C11.3309 17.435 10.9643 17.294 10.2311 17.012L5 15L10.2311 12.988C10.9643 12.706 11.3309 12.565 11.6393 12.3458C11.9126 12.1514 12.1514 11.9126 12.3458 11.6393C12.565 11.3309 12.706 10.9643 12.988 10.2311L15 5Z" stroke="#5F5C5C" stroke-width="1.5" stroke-linecap="round" stroke-linejoin="round"/>
</svg>
