<svg width="30" height="30" viewBox="0 0 30 30" fill="none" xmlns="http://www.w3.org/2000/svg">
<path d="M15 5L13.6985 10.206C13.4445 11.2218 13.3176 11.7298 13.0531 12.1431C12.8192 12.5087 12.5087 12.8192 12.1431 13.0531C11.7298 13.3176 11.2218 13.4445 10.206 13.6985L5 15L10.206 16.3015C11.2218 16.5555 11.7298 16.6824 12.1431 16.9469C12.5087 17.1808 12.8192 17.4913 13.0531 17.8569C13.3176 18.2702 13.4445 18.7782 13.6985 19.794L15 25L16.3015 19.794C16.5555 18.7782 16.6824 18.2702 16.9469 17.8569C17.1808 17.4913 17.4913 17.1808 17.8569 16.9469C18.2702 16.6824 18.7782 16.5555 19.794 16.3015L25 15L19.794 13.6985C18.7782 13.4445 18.2702 13.3176 17.8569 13.0531C17.4913 12.8192 17.1808 12.5087 16.9469 12.1431C16.6824 11.7298 16.5555 11.2218 16.3015 10.206L15 5Z" stroke="#5F5C5C" stroke-width="1.5" stroke-linecap="round" stroke-linejoin="round"/>
</svg>
