<svg width="30" height="30" viewBox="0 0 30 30" fill="none" xmlns="http://www.w3.org/2000/svg">
<rect width="30" height="30" rx="2" fill="white"/>
<path d="M14.268 7.68744C14.4604 7.29773 14.5566 7.10288 14.6871 7.04062C14.8007 6.98646 14.9327 6.98646 15.0463 7.04062C15.1769 7.10288 15.2731 7.29773 15.4654 7.68744L17.2904 11.3847C17.3472 11.4997 17.3756 11.5572 17.4171 11.6019C17.4539 11.6415 17.4979 11.6735 17.5469 11.6963C17.6022 11.722 17.6656 11.7312 17.7926 11.7498L21.8748 12.3465C22.3047 12.4093 22.5196 12.4407 22.6191 12.5457C22.7056 12.6371 22.7463 12.7626 22.7299 12.8874C22.7109 13.0307 22.5553 13.1823 22.2441 13.4854L19.2913 16.3615C19.1992 16.4511 19.1532 16.496 19.1235 16.5493C19.0972 16.5965 19.0804 16.6484 19.0738 16.7021C19.0665 16.7627 19.0774 16.826 19.0991 16.9526L19.7958 21.0149C19.8693 21.4434 19.906 21.6576 19.837 21.7848C19.7769 21.8954 19.6701 21.9729 19.5463 21.9959C19.4041 22.0223 19.2117 21.9211 18.827 21.7187L15.1775 19.7995C15.0638 19.7397 15.0069 19.7098 14.947 19.6981C14.894 19.6877 14.8395 19.6877 14.7864 19.6981C14.7265 19.7098 14.6697 19.7397 14.556 19.7995L10.9065 21.7187C10.5217 21.9211 10.3294 22.0223 10.1871 21.9959C10.0634 21.9729 9.95656 21.8954 9.89648 21.7848C9.82743 21.6576 9.86417 21.4434 9.93766 21.0149L10.6344 16.9526C10.6561 16.826 10.667 16.7627 10.6596 16.7021C10.6531 16.6484 10.6362 16.5965 10.61 16.5493C10.5803 16.496 10.5342 16.4511 10.4422 16.3615L7.48936 13.4854C7.17814 13.1823 7.02253 13.0307 7.0036 12.8874C6.98712 12.7626 7.02782 12.6371 7.11437 12.5457C7.21384 12.4407 7.42878 12.4093 7.85865 12.3465L11.9409 11.7498C12.0678 11.7312 12.1313 11.722 12.1866 11.6963C12.2355 11.6735 12.2796 11.6415 12.3163 11.6019C12.3578 11.5572 12.3862 11.4997 12.443 11.3847L14.268 7.68744Z" stroke="#5F5C5C" stroke-width="1.5" stroke-linecap="round" stroke-linejoin="round"/>
</svg>
