<svg width="30" height="31" viewBox="0 0 30 31" fill="none" xmlns="http://www.w3.org/2000/svg">
<g clip-path="url(#clip0_5568_213869)">
<path d="M15 30.0469C23.2843 30.0469 30 23.3311 30 15.0469C30 6.7626 23.2843 0.046875 15 0.046875C6.71573 0.046875 0 6.7626 0 15.0469C0 23.3311 6.71573 30.0469 15 30.0469Z" fill="#F0F0F0"/>
<path d="M26.7826 12.1121H21.8479C21.8479 11.2117 21.1179 10.4817 20.2175 10.4817L18.9131 13.0904C18.9131 13.0904 20.3044 17.0034 20.2609 17.0034H21.8913C22.7918 17.0034 23.5217 16.2735 23.5217 15.373C24.4223 15.373 25.1522 14.6431 25.1522 13.7426H25.0979C25.9983 13.7425 26.7826 13.0126 26.7826 12.1121Z" fill="#ACABB1"/>
<path d="M3.21777 12.1121H8.15254C8.15254 11.2117 8.88252 10.4817 9.78296 10.4817L11.0873 13.0904C11.0873 13.0904 9.696 17.0034 9.73951 17.0034H8.10909C7.20859 17.0034 6.47867 16.2735 6.47867 15.373C5.57817 15.373 4.84825 14.6431 4.84825 13.7426H4.90255C4.00205 13.7425 3.21777 13.0126 3.21777 12.1121V12.1121Z" fill="#ACABB1"/>
<path d="M20.2173 20.9164V21.5685H9.78251V20.9164H7.17383V23.5251H9.78251V24.1772H20.2173V23.5251H22.826V20.9164H20.2173Z" fill="#FFDA44"/>
<path d="M9.78223 10.4816V17.0033C9.78223 20.997 14.9996 22.2207 14.9996 22.2207C14.9996 22.2207 20.217 20.997 20.217 17.0033V10.4816L14.9996 9.82947L9.78223 10.4816Z" fill="#0052B4"/>
<path d="M9.78223 13.0906H20.217V17.0036H9.78223V13.0906Z" fill="#D80027"/>
<path d="M17.6083 7.22075V8.19902L16.9561 8.52512L16.304 7.87291V5.91638H13.6953V7.87291L13.0431 8.52512L12.3909 8.19902V7.22075H9.78223V10.4816H20.217V7.22075H17.6083Z" fill="#FFDA44"/>
</g>
<rect x="0.5" y="0.546875" width="29" height="29" rx="14.5" stroke="#D7D7D7"/>
<defs>
<clipPath id="clip0_5568_213869">
<rect y="0.046875" width="30" height="30" rx="15" fill="white"/>
</clipPath>
</defs>
</svg>
