<svg width="30" height="30" viewBox="0 0 30 30" fill="none" xmlns="http://www.w3.org/2000/svg">
<path d="M24.4997 15.1334H22.2719H21.7232L21.7741 15.6798C21.8168 16.1381 22.0189 16.4947 22.355 16.7179C22.666 16.9245 23.0337 16.9778 23.3497 16.9778C23.6639 16.9778 23.9486 16.9441 24.2108 16.8822V16.9675C23.9427 17.0725 23.6032 17.1445 23.1719 17.1445C22.5988 17.1445 22.1651 16.9682 21.8734 16.666C21.5803 16.3624 21.3719 15.8709 21.3719 15.1278C21.3719 14.5121 21.5468 13.9957 21.8278 13.6442C22.1007 13.3027 22.4891 13.0945 22.9942 13.0945C23.491 13.0945 23.8437 13.2973 24.0878 13.6295C24.3434 13.9774 24.4988 14.4978 24.4997 15.1334ZM21.7553 14.6111V15.1111H22.2553H23.6886H24.1886V14.6111C24.1886 14.2005 24.0688 13.8475 23.8332 13.5922C23.5988 13.3382 23.2868 13.2223 22.9886 13.2223C22.6912 13.2223 22.3742 13.3335 22.132 13.583C21.8857 13.8366 21.7553 14.1922 21.7553 14.6111Z" stroke="#7B7B7B"/>
<path d="M16.8448 13.1834H17.161L17.298 13.837L17.2332 13.9093L17.2337 14.1014L17.2392 16.1625L17.2398 16.3572L17.2425 16.3602L17.2392 17.2927L17.2351 18.4613L16.8448 18.544V13.1834ZM18.3948 13.3278C18.2515 13.3278 18.1203 13.3445 18.0002 13.3757C18.1478 13.2459 18.3769 13.0945 18.7281 13.0945C19.3428 13.0945 20.1174 13.6594 20.1226 15.0843C20.1224 15.8819 19.9176 16.3973 19.6616 16.7039C19.4104 17.0049 19.0787 17.1445 18.7226 17.1445C18.3966 17.1445 18.2103 17.0179 18.032 16.8891L18.019 16.8798C18.1327 16.9072 18.2576 16.9223 18.3948 16.9223C18.8566 16.9223 19.2138 16.6636 19.4341 16.3229C19.649 15.9906 19.7503 15.5646 19.7503 15.1223C19.7503 14.6848 19.6461 14.2612 19.4318 13.9303C19.2139 13.5939 18.8584 13.3278 18.3948 13.3278Z" stroke="#7B7B7B"/>
<path d="M15.3286 11.4555V11.5628L14.9341 11.6476V11.5388L15.3286 11.4555Z" stroke="#7B7B7B"/>
<path d="M14.9341 17.05V13.1888H15.3286V17.05H14.9341Z" stroke="#7B7B7B"/>
<path d="M12.4502 13.2057L12.6182 13.9826L12.5389 14.086V14.2556V17.05H12.15V13.1889H12.4466L12.4502 13.2057ZM13.5601 13.432C13.4754 13.4431 13.3858 13.4621 13.2948 13.4915L13.3777 13.3397C13.4403 13.2251 13.5155 13.1747 13.5945 13.151V13.4279C13.583 13.4291 13.5716 13.4305 13.5601 13.432Z" stroke="#7B7B7B"/>
<path d="M10.1555 13.1888H10.711V13.3722H10.1555H9.65548V13.8722V15.8444C9.65548 16.1397 9.73621 16.4137 9.93103 16.6211C10.1214 16.8237 10.3616 16.8993 10.5553 16.9233C10.6076 16.9297 10.6597 16.9328 10.711 16.9333V17.1091C10.5912 17.1324 10.4341 17.1499 10.2388 17.1499C9.6877 17.1499 9.30006 16.7633 9.29993 16.2225C9.29993 16.2224 9.29993 16.2223 9.29993 16.2222L9.30498 12.1769L9.65818 12.1017L9.65549 12.6865L9.65317 13.1888H10.1555Z" stroke="#7B7B7B"/>
<path d="M6.87802 13.3C6.70118 13.3 6.47457 13.3219 6.2775 13.4381C6.03603 13.5805 5.9058 13.8239 5.9058 14.1C5.9058 14.3425 6.01713 14.5306 6.15326 14.6593C6.27508 14.7745 6.42179 14.8483 6.53832 14.8986C6.6592 14.9508 6.79453 14.9969 6.91477 15.0378L6.92625 15.0417C7.04891 15.0835 7.16499 15.123 7.27976 15.1687C7.51968 15.2643 7.70323 15.3685 7.82738 15.5024C7.9375 15.6212 8.02687 15.7908 8.02802 16.0842C8.02781 16.4331 7.8955 16.6765 7.679 16.8452C7.44809 17.0252 7.0798 17.15 6.57802 17.15C6.25746 17.15 5.91153 17.1007 5.56136 16.9877V16.7712C5.90123 16.884 6.25569 16.9556 6.57802 16.9556C6.7608 16.9556 6.99814 16.9342 7.20527 16.8185C7.31709 16.756 7.42523 16.663 7.50292 16.5307C7.58061 16.3984 7.61136 16.2549 7.61136 16.1167C7.61136 15.6235 7.19884 15.3934 6.99602 15.2971C6.87295 15.2386 6.73678 15.1881 6.61402 15.1435C6.59121 15.1352 6.56871 15.1271 6.54645 15.119C6.44206 15.0813 6.34301 15.0456 6.24307 15.0052C5.99778 14.9061 5.81228 14.8036 5.68815 14.6763C5.58054 14.5659 5.50024 14.4186 5.50024 14.1667C5.50024 13.8135 5.62907 13.5664 5.83381 13.398C6.04971 13.2205 6.39607 13.0945 6.87802 13.0945C7.17619 13.0945 7.46644 13.1285 7.7558 13.2086V13.4251C7.45535 13.3433 7.15073 13.3 6.87802 13.3Z" stroke="#7B7B7B"/>
</svg>
