<svg width="30" height="31" viewBox="0 0 30 31" fill="none" xmlns="http://www.w3.org/2000/svg">
<g clip-path="url(#clip0_5568_213883)">
<path d="M22.1737 1.86975C20.0426 0.707012 17.5984 0.0458984 14.9998 0.0458984C12.4011 0.0458984 9.95695 0.707012 7.82584 1.86975L6.52148 15.0459L7.82584 28.222C9.95695 29.3848 12.4011 30.0459 14.9998 30.0459C17.5984 30.0459 20.0426 29.3848 22.1737 28.222L23.478 15.0459L22.1737 1.86975Z" fill="#FFDA44"/>
<path d="M7.82607 28.2219V1.86963C3.16342 4.41377 0 9.36019 0 15.0458C0 20.7315 3.16342 25.6779 7.82607 28.2219Z" fill="#338AF3"/>
<path d="M30.0009 15.0458C30.0009 9.36019 26.8375 4.41377 22.1748 1.86963V28.2219C26.8375 25.6779 30.0009 20.7315 30.0009 15.0458V15.0458Z" fill="#6DA544"/>
<path d="M11.7396 18.9589L9.13086 15.0459L11.7396 11.1328L14.3484 15.0459L11.7396 18.9589Z" fill="#6DA544"/>
<path d="M18.2611 18.9589L15.6523 15.0459L18.2611 11.1328L20.8698 15.0459L18.2611 18.9589Z" fill="#6DA544"/>
<path d="M15.0003 24.1763L12.3916 20.2632L15.0003 16.3502L17.609 20.2632L15.0003 24.1763Z" fill="#6DA544"/>
</g>
<rect x="0.5" y="0.545898" width="29" height="29" rx="14.5" stroke="#D7D7D7"/>
<defs>
<clipPath id="clip0_5568_213883">
<rect y="0.0458984" width="30" height="30" rx="15" fill="white"/>
</clipPath>
</defs>
</svg>
