<svg width="30" height="31" viewBox="0 0 30 31" fill="none" xmlns="http://www.w3.org/2000/svg">
<g clip-path="url(#clip0_5568_213891)">
<path d="M1.4884 8.5242C0.534844 10.4962 0 12.7086 0 15.0459C0 17.3833 0.534844 19.5956 1.4884 21.5676L15 22.872L28.5116 21.5676C29.4652 19.5956 30 17.3833 30 15.0459C30 12.7086 29.4652 10.4962 28.5116 8.5242L15 7.21985L1.4884 8.5242Z" fill="#F0F0F0"/>
<path d="M1.48926 21.5676C3.91539 26.5851 9.05342 30.0459 15.0003 30.0459C20.9472 30.0459 26.0853 26.5851 28.5114 21.5676H1.48926Z" fill="black"/>
<path d="M1.48926 8.52418H28.5114C26.0853 3.50674 20.9472 0.0458984 15.0003 0.0458984C9.05342 0.0458984 3.91539 3.50674 1.48926 8.52418Z" fill="#D80027"/>
<path d="M4.39339 4.43921C-1.46446 10.2971 -1.46446 19.7946 4.39339 25.6525C6.81407 23.2318 9.14218 20.9037 15 15.0458L4.39339 4.43921Z" fill="#496E2D"/>
</g>
<rect x="0.5" y="0.545898" width="29" height="29" rx="14.5" stroke="#D7D7D7"/>
<defs>
<clipPath id="clip0_5568_213891">
<rect y="0.0458984" width="30" height="30" rx="15" fill="white"/>
</clipPath>
</defs>
</svg>
