<svg width="30" height="31" viewBox="0 0 30 31" fill="none" xmlns="http://www.w3.org/2000/svg">
<g clip-path="url(#clip0_5568_213896)">
<path d="M15 30.0352C23.2843 30.0352 30 23.3194 30 15.0352C30 6.75088 23.2843 0.0351562 15 0.0351562C6.71573 0.0351562 0 6.75088 0 15.0352C0 23.3194 6.71573 30.0352 15 30.0352Z" fill="#F0F0F0"/>
<path d="M29.067 9.81775H0.93293C0.330059 11.4428 0 13.2003 0 15.0351C0 16.8699 0.330059 18.6276 0.93293 20.2525H29.067C29.67 18.6276 30 16.8699 30 15.0351C30 13.2003 29.67 11.4428 29.067 9.81775Z" fill="#A2001D"/>
<path d="M15.0437 30.0351C20.1813 30.0351 24.715 27.4516 27.4184 23.5134H2.66895C5.37234 27.4516 9.90598 30.0351 15.0437 30.0351Z" fill="#6DA544"/>
<path d="M15.0437 0.0352783C20.1813 0.0352783 24.715 2.61879 27.4184 6.557H2.66895C5.37234 2.61879 9.90598 0.0352783 15.0437 0.0352783V0.0352783Z" fill="#6DA544"/>
<path d="M14.9996 9.81787L16.2946 13.8034H20.4855L17.095 16.2669L18.3901 20.2526L14.9996 17.7894L11.609 20.2526L12.9042 16.2669L9.51367 13.8034H13.7046L14.9996 9.81787Z" fill="#FFDA44"/>
</g>
<rect x="0.5" y="0.535156" width="29" height="29" rx="14.5" stroke="#D7D7D7"/>
<defs>
<clipPath id="clip0_5568_213896">
<rect y="0.0351562" width="30" height="30" rx="15" fill="white"/>
</clipPath>
</defs>
</svg>
