<svg width="30" height="31" viewBox="0 0 30 31" fill="none" xmlns="http://www.w3.org/2000/svg">
<g clip-path="url(#clip0_5568_213903)">
<path d="M28.5116 21.5568C29.4652 19.5849 30 17.3724 30 15.0351C30 12.6978 29.4652 10.4854 28.5116 8.51341L15 7.86121L1.4884 8.51335C0.534844 10.4854 0 12.6978 0 15.0351C0 17.3724 0.534844 19.5849 1.4884 21.5568L15 22.2091L28.5116 21.5568Z" fill="#FFDA44"/>
<path d="M14.9999 0.0351562C9.05297 0.0351562 3.91453 3.496 1.48828 8.51344H28.5114C26.0852 3.496 20.9467 0.0351562 14.9999 0.0351562V0.0351562Z" fill="black"/>
<path d="M14.9999 30.0352C9.05297 30.0352 3.91453 26.5743 1.48828 21.5569H28.5114C26.0852 26.5743 20.9467 30.0352 14.9999 30.0352V30.0352Z" fill="#0052B4"/>
<path d="M29.2917 10.47H0.70834C0.248848 11.9096 0 13.4433 0 15.0352C0 16.6271 0.248848 18.1608 0.70834 19.6004H29.2916C29.7512 18.1608 30 16.6271 30 15.0352C30 13.4433 29.7512 11.9096 29.2917 10.47Z" fill="#A2001D"/>
<path d="M5.21777 14.3831H24.783V15.6874H5.21777V14.3831Z" fill="#FFDA44"/>
<path d="M7.82617 11.7743H22.174V13.0786H7.82617V11.7743Z" fill="#FFDA44"/>
<path d="M22.2671 15.0351C22.2671 15.0351 18.913 18.9482 15 18.9482C11.087 18.9482 11.0869 15.0351 11.0869 15.0351C11.0869 15.0351 11.0869 11.1221 15 11.1221C18.913 11.1221 22.2671 15.0351 22.2671 15.0351Z" fill="#F0F0F0"/>
<path d="M15.0005 18.9482C11.0874 18.9482 7.7334 15.0351 7.7334 15.0351C7.7334 15.0351 11.0874 11.1221 15.0005 11.1221" fill="black"/>
<path d="M12.3916 13.7307H13.696V16.3394H12.3916V13.7307Z" fill="#F0F0F0"/>
<path d="M16.3047 13.7307H17.609V16.3394H16.3047V13.7307Z" fill="black"/>
<path d="M5.21744 16.3395C5.93782 16.3395 6.5218 15.7556 6.5218 15.0352C6.5218 14.3148 5.93782 13.7308 5.21744 13.7308C4.49707 13.7308 3.91309 14.3148 3.91309 15.0352C3.91309 15.7556 4.49707 16.3395 5.21744 16.3395Z" fill="#0052B4"/>
<path d="M24.7829 16.3395C25.5032 16.3395 26.0872 15.7556 26.0872 15.0352C26.0872 14.3148 25.5032 13.7308 24.7829 13.7308C24.0625 13.7308 23.4785 14.3148 23.4785 15.0352C23.4785 15.7556 24.0625 16.3395 24.7829 16.3395Z" fill="#0052B4"/>
</g>
<rect x="0.5" y="0.535156" width="29" height="29" rx="14.5" stroke="#D7D7D7"/>
<defs>
<clipPath id="clip0_5568_213903">
<rect y="0.0351562" width="30" height="30" rx="15" fill="white"/>
</clipPath>
</defs>
</svg>
