<svg width="30" height="31" viewBox="0 0 30 31" fill="none" xmlns="http://www.w3.org/2000/svg">
<g clip-path="url(#clip0_5568_213918)">
<path d="M15 30.0352C23.2843 30.0352 30 23.3194 30 15.0352C30 6.75088 23.2843 0.0351562 15 0.0351562C6.71573 0.0351562 0 6.75088 0 15.0352C0 23.3194 6.71573 30.0352 15 30.0352Z" fill="#FFDA44"/>
<path d="M11.7393 13.0787H29.8731C28.9144 5.71887 22.6212 0.0351562 15.0001 0.0351562C13.8802 0.0351562 12.7892 0.158965 11.7393 0.391699V13.0787H11.7393Z" fill="#0052B4"/>
<path d="M7.82605 13.0786V1.85901C3.70727 4.10631 0.75877 8.22844 0.126953 13.0787H7.82605V13.0786Z" fill="#0052B4"/>
<path d="M7.826 16.9916H0.126953C0.75877 21.8419 3.70727 25.964 7.82605 28.2112L7.826 16.9916Z" fill="#0052B4"/>
<path d="M11.7393 16.9917V29.6786C12.7892 29.9113 13.8802 30.0351 15.0001 30.0351C22.6212 30.0351 28.9144 24.3514 29.8731 16.9916H11.7393V16.9917Z" fill="#0052B4"/>
</g>
<rect x="0.5" y="0.535156" width="29" height="29" rx="14.5" stroke="#D7D7D7"/>
<defs>
<clipPath id="clip0_5568_213918">
<rect y="0.0351562" width="30" height="30" rx="15" fill="white"/>
</clipPath>
</defs>
</svg>
