<svg width="30" height="31" viewBox="0 0 30 31" fill="none" xmlns="http://www.w3.org/2000/svg">
<g clip-path="url(#clip0_5568_213928)">
<path d="M15 30.0352C23.2843 30.0352 30 23.3194 30 15.0352C30 6.75088 23.2843 0.0351562 15 0.0351562C6.71573 0.0351562 0 6.75088 0 15.0352C0 23.3194 6.71573 30.0352 15 30.0352Z" fill="#F0F0F0"/>
<path d="M14.9996 0.0351562C8.55016 0.0351562 3.05201 4.10578 0.932617 9.81779H29.0667C26.9472 4.10578 21.4491 0.0351562 14.9996 0.0351562V0.0351562Z" fill="#D80027"/>
<path d="M14.9996 30.0351C21.4491 30.0351 26.9472 25.9645 29.0666 20.2525H0.932617C3.05201 25.9645 8.55016 30.0351 14.9996 30.0351Z" fill="black"/>
<path d="M8.96285 11.4482L9.77221 13.9392H12.3915L10.2725 15.4789L11.0819 17.97L8.96285 16.4304L6.84381 17.97L7.65322 15.4789L5.53418 13.9392H8.1535L8.96285 11.4482Z" fill="#6DA544"/>
<path d="M21.038 11.4482L21.8474 13.9392H24.4668L22.3477 15.4789L23.1571 17.97L21.038 16.4304L18.919 17.97L19.7284 15.4789L17.6094 13.9392H20.2287L21.038 11.4482Z" fill="#6DA544"/>
</g>
<rect x="0.5" y="0.535156" width="29" height="29" rx="14.5" stroke="#D7D7D7"/>
<defs>
<clipPath id="clip0_5568_213928">
<rect y="0.0351562" width="30" height="30" rx="15" fill="white"/>
</clipPath>
</defs>
</svg>
