<svg width="30" height="30" viewBox="0 0 30 30" fill="none" xmlns="http://www.w3.org/2000/svg">
<path d="M24 14L16.4059 6.40589C15.887 5.88703 15.6276 5.6276 15.3249 5.44208C15.0564 5.27759 14.7638 5.15638 14.4577 5.08289C14.1124 5 13.7455 5 13.0118 5L9 5M6 11.7L6 13.6745C6 14.1637 6 14.4083 6.05526 14.6385C6.10425 14.8425 6.18506 15.0376 6.29472 15.2166C6.4184 15.4184 6.59136 15.5914 6.93726 15.9373L14.7373 23.7373C15.5293 24.5293 15.9253 24.9253 16.382 25.0737C16.7837 25.2042 17.2163 25.2042 17.618 25.0737C18.0747 24.9253 18.4707 24.5293 19.2627 23.7373L21.7373 21.2627C22.5293 20.4707 22.9253 20.0747 23.0737 19.618C23.2042 19.2163 23.2042 18.7837 23.0737 18.382C22.9253 17.9253 22.5293 17.5293 21.7373 16.7373L14.4373 9.43726C14.0914 9.09136 13.9184 8.9184 13.7166 8.79472C13.5376 8.68506 13.3425 8.60425 13.1385 8.55526C12.9083 8.5 12.6637 8.5 12.1745 8.5H9.2C8.0799 8.5 7.51984 8.5 7.09202 8.71799C6.7157 8.90973 6.40973 9.21569 6.21799 9.59202C6 10.0198 6 10.5799 6 11.7Z" stroke="#5F5C5C" stroke-width="1.5" stroke-linecap="round" stroke-linejoin="round"/>
</svg>
