<svg width="30" height="30" viewBox="0 0 30 30" fill="none" xmlns="http://www.w3.org/2000/svg">
<path d="M11 11H11.01M7.56274 5.93726L5.93726 7.56274C5.59136 7.90864 5.4184 8.0816 5.29472 8.28343C5.18506 8.46237 5.10425 8.65746 5.05526 8.86154C5 9.09171 5 9.3363 5 9.82548L5 12.6745C5 13.1637 5 13.4083 5.05526 13.6385C5.10425 13.8425 5.18506 14.0376 5.29472 14.2166C5.4184 14.4184 5.59135 14.5914 5.93726 14.9373L13.6059 22.6059C14.7939 23.7939 15.388 24.388 16.0729 24.6105C16.6755 24.8063 17.3245 24.8063 17.927 24.6105C18.612 24.388 19.2061 23.7939 20.3941 22.6059L22.6059 20.3941C23.7939 19.2061 24.388 18.612 24.6105 17.927C24.8063 17.3245 24.8063 16.6755 24.6105 16.0729C24.388 15.388 23.7939 14.7939 22.6059 13.6059L14.9373 5.93726C14.5914 5.59136 14.4184 5.4184 14.2166 5.29472C14.0376 5.18506 13.8425 5.10425 13.6385 5.05526C13.4083 5 13.1637 5 12.6745 5L9.82548 5C9.3363 5 9.09171 5 8.86154 5.05526C8.65746 5.10425 8.46237 5.18506 8.28343 5.29472C8.0816 5.4184 7.90865 5.59135 7.56274 5.93726ZM11.5 11C11.5 11.2761 11.2761 11.5 11 11.5C10.7239 11.5 10.5 11.2761 10.5 11C10.5 10.7239 10.7239 10.5 11 10.5C11.2761 10.5 11.5 10.7239 11.5 11Z" stroke="#5F5C5C" stroke-width="1.5" stroke-linecap="round" stroke-linejoin="round"/>
</svg>
