<svg width="30" height="31" viewBox="0 0 30 31" fill="none" xmlns="http://www.w3.org/2000/svg">
<g clip-path="url(#clip0_5568_213935)">
<path d="M30 15.0459C30 23.3301 23.2842 30.0459 15 30.0459C6.71578 30.0459 0 23.3301 0 15.0459C5.15215 9.89375 9.52172 5.52418 15 0.0458984C23.2842 0.0458984 30 6.76168 30 15.0459Z" fill="#D80027"/>
<path d="M15 15.0459C15 6.76168 15 5.78504 15 0.0458984C6.71578 0.0458984 0 6.76168 0 15.0459H15Z" fill="#0052B4"/>
<path d="M13.0437 8.8245L11.2118 9.68629L12.1873 11.4605L10.1981 11.0798L9.94596 13.0894L8.56045 11.6114L7.17482 13.0894L6.92281 11.0798L4.93355 11.4603L5.90902 9.68618L4.07715 8.8245L5.90908 7.96288L4.93355 6.18866L6.92275 6.56922L7.17488 4.55969L8.56045 6.03766L9.94602 4.55969L10.1981 6.56922L12.1873 6.18866L11.2118 7.96293L13.0437 8.8245Z" fill="#F0F0F0"/>
<path d="M8.56072 11.6163C10.1028 11.6163 11.3529 10.3662 11.3529 8.82415C11.3529 7.28208 10.1028 6.03198 8.56072 6.03198C7.01865 6.03198 5.76855 7.28208 5.76855 8.82415C5.76855 10.3662 7.01865 11.6163 8.56072 11.6163Z" fill="#0052B4"/>
<path d="M8.56002 10.3123C7.73965 10.3123 7.07227 9.64485 7.07227 8.82448C7.07227 8.00411 7.73971 7.33667 8.56002 7.33667C9.38039 7.33667 10.0478 8.00411 10.0478 8.82448C10.0478 9.64485 9.38027 10.3123 8.56002 10.3123Z" fill="#F0F0F0"/>
</g>
<rect x="0.5" y="0.545898" width="29" height="29" rx="14.5" stroke="#D7D7D7"/>
<defs>
<clipPath id="clip0_5568_213935">
<rect y="0.0458984" width="30" height="30" rx="15" fill="white"/>
</clipPath>
</defs>
</svg>
