<svg width="30" height="31" viewBox="0 0 30 31" fill="none" xmlns="http://www.w3.org/2000/svg">
<g clip-path="url(#clip0_5568_213941)">
<path d="M1.4884 8.52518C0.534844 10.4972 0 12.7096 0 15.0469C0 17.3842 0.534844 19.5966 1.4884 21.5686L15 22.873L28.5116 21.5686C29.4652 19.5966 30 17.3842 30 15.0469C30 12.7096 29.4652 10.4972 28.5116 8.52518L15 7.22083L1.4884 8.52518Z" fill="#F0F0F0"/>
<path d="M1.48926 21.5686C3.91545 26.586 9.05348 30.0469 15.0003 30.0469C20.9472 30.0469 26.0853 26.586 28.5114 21.5686H1.48926Z" fill="#6DA544"/>
<path d="M1.48926 8.52516H28.5114C26.0853 3.50777 20.9472 0.046875 15.0003 0.046875C9.05348 0.046875 3.91545 3.50777 1.48926 8.52516Z" fill="#D80027"/>
<path d="M12.3916 18.9599H17.609V16.7425L16.5655 17.2642L15.0003 15.699L13.4351 17.2642L12.3916 16.7425V18.9599Z" fill="#FFDA44"/>
<path d="M9.40654 16.3512L9.64941 17.0985H10.4352L9.79941 17.5604L10.0423 18.3077L9.40654 17.8459L8.7708 18.3077L9.01367 17.5604L8.37793 17.0985H9.16367L9.40654 16.3512Z" fill="#FFDA44"/>
<path d="M10.1595 13.7424L10.4023 14.4897H11.1881L10.5523 14.9516L10.7952 15.6989L10.1595 15.2371L9.52373 15.6989L9.7666 14.9516L9.13086 14.4897H9.9166L10.1595 13.7424Z" fill="#FFDA44"/>
<path d="M12.3118 11.786L12.5547 12.5333H13.3404L12.7047 12.9952L12.9475 13.7425L12.3118 13.2807L11.6761 13.7425L11.9189 12.9952L11.2832 12.5333H12.069L12.3118 11.786Z" fill="#FFDA44"/>
<path d="M20.594 16.3512L20.3512 17.0985H19.5654L20.2012 17.5604L19.9583 18.3077L20.594 17.8459L21.2297 18.3077L20.9869 17.5604L21.6227 17.0985H20.8369L20.594 16.3512Z" fill="#FFDA44"/>
<path d="M19.8411 13.7424L19.5982 14.4897H18.8125L19.4482 14.9516L19.2054 15.6989L19.8411 15.2371L20.4769 15.6989L20.234 14.9516L20.8697 14.4897H20.084L19.8411 13.7424Z" fill="#FFDA44"/>
<path d="M17.6887 11.7859L17.4458 12.5332H16.6602L17.2958 12.9951L17.053 13.7424L17.6887 13.2806L18.3244 13.7424L18.0816 12.9951L18.7173 12.5332H17.9315L17.6887 11.7859Z" fill="#FFDA44"/>
<path d="M15.0003 10.8076L15.2432 11.5549H16.0289L15.3932 12.0168L15.636 12.7641L15.0003 12.3023L14.3645 12.7641L14.6074 12.0168L13.9717 11.5549H14.7574L15.0003 10.8076Z" fill="#FFDA44"/>
</g>
<rect x="0.5" y="0.546875" width="29" height="29" rx="14.5" stroke="#D7D7D7"/>
<defs>
<clipPath id="clip0_5568_213941">
<rect y="0.046875" width="30" height="30" rx="15" fill="white"/>
</clipPath>
</defs>
</svg>
