<svg width="30" height="31" viewBox="0 0 30 31" fill="none" xmlns="http://www.w3.org/2000/svg">
<g clip-path="url(#clip0_5568_213954)">
<path d="M15 30.0459C23.2843 30.0459 30 23.3302 30 15.0459C30 6.76163 23.2843 0.0458984 15 0.0458984C6.71573 0.0458984 0 6.76163 0 15.0459C0 23.3302 6.71573 30.0459 15 30.0459Z" fill="#FFDA44"/>
<path d="M4.39332 25.6525C5.02256 26.2817 5.69393 26.8429 6.39816 27.337L27.2909 6.44412C26.797 5.73988 26.2358 5.06852 25.6065 4.43928C24.9772 3.81004 24.3059 3.24895 23.6017 2.75488L2.70898 23.6477C3.20293 24.3518 3.76414 25.0232 4.39332 25.6525V25.6525Z" fill="black"/>
<path d="M4.39376 4.43934C-0.338392 9.17161 -1.24689 16.2785 1.66657 21.9236L21.878 1.71221C16.2329 -1.20125 9.12596 -0.292692 4.39376 4.43934V4.43934Z" fill="#6DA544"/>
<path d="M25.6063 25.6525C30.3384 20.9203 31.2469 13.8133 28.3335 8.16821L8.12207 28.3797C13.7671 31.2931 20.8741 30.3846 25.6063 25.6525Z" fill="#338AF3"/>
</g>
<rect x="0.5" y="0.545898" width="29" height="29" rx="14.5" stroke="#D7D7D7"/>
<defs>
<clipPath id="clip0_5568_213954">
<rect y="0.0458984" width="30" height="30" rx="15" fill="white"/>
</clipPath>
</defs>
</svg>
