<svg width="30" height="30" viewBox="0 0 30 30" fill="none" xmlns="http://www.w3.org/2000/svg">
<rect width="30" height="30" rx="2" fill="white"/>
<path d="M24.4615 24.4615V10.8C24.4615 9.11984 24.4615 8.27976 24.1346 7.63803C23.8469 7.07354 23.388 6.6146 22.8235 6.32698C22.1818 6 21.3417 6 19.6615 6H10.8C9.11984 6 8.27976 6 7.63803 6.32698C7.07354 6.6146 6.6146 7.07354 6.32698 7.63803C6 8.27976 6 9.11984 6 10.8V19.6615C6 21.3417 6 22.1818 6.32698 22.8235C6.6146 23.388 7.07354 23.8469 7.63803 24.1346C8.27976 24.4615 9.11984 24.4615 10.8 24.4615H24.4615ZM24.4615 24.4615H26M26 26.5V24.4615M26 24.4615V20H24.5M21.3846 15.2308C21.3846 18.6294 18.6294 21.3846 15.2308 21.3846C11.8321 21.3846 9.07692 18.6294 9.07692 15.2308C9.07692 11.8321 11.8321 9.07692 15.2308 9.07692C18.6294 9.07692 21.3846 11.8321 21.3846 15.2308Z" stroke="#5F5C5C" stroke-width="1.5" stroke-linecap="round" stroke-linejoin="round"/>
</svg>
