<svg width="30" height="30" viewBox="0 0 30 30" fill="none" xmlns="http://www.w3.org/2000/svg">
<rect width="30" height="30" rx="2" fill="white"/>
<path d="M15 25C20.5228 25 25 20.5228 25 15C25 9.47715 20.5228 5 15 5C9.47715 5 5 9.47715 5 15C5 20.5228 9.47715 25 15 25Z" stroke="#5F5C5C" stroke-width="2" stroke-linecap="round" stroke-linejoin="round"/>
<path d="M15 21C18.3137 21 21 18.3137 21 15C21 11.6863 18.3137 9 15 9C11.6863 9 9 11.6863 9 15C9 18.3137 11.6863 21 15 21Z" stroke="#5F5C5C" stroke-width="2" stroke-linecap="round" stroke-linejoin="round"/>
<path d="M15 17C16.1046 17 17 16.1046 17 15C17 13.8954 16.1046 13 15 13C13.8954 13 13 13.8954 13 15C13 16.1046 13.8954 17 15 17Z" stroke="#5F5C5C" stroke-width="2" stroke-linecap="round" stroke-linejoin="round"/>
</svg>
