<svg width="30" height="31" viewBox="0 0 30 31" fill="none" xmlns="http://www.w3.org/2000/svg">
<g clip-path="url(#clip0_5568_213959)">
<path d="M15 30.0459C23.2843 30.0459 30 23.3302 30 15.0459C30 6.76163 23.2843 0.0458984 15 0.0458984C6.71573 0.0458984 0 6.76163 0 15.0459C0 23.3302 6.71573 30.0459 15 30.0459Z" fill="#F0F0F0"/>
<path d="M29.067 9.82849H0.932988C0.33 11.4535 0 13.211 0 15.0459C0 16.8807 0.33 18.6382 0.932988 20.2632H29.0671C29.67 18.6382 30 16.8807 30 15.0459C30 13.211 29.67 11.4535 29.067 9.82849Z" fill="#0052B4"/>
<path d="M14.9997 0.0458984C10.4533 0.0458984 6.37971 2.06879 3.62891 5.26326H26.3704C23.6196 2.06879 19.546 0.0458984 14.9997 0.0458984V0.0458984Z" fill="#D80027"/>
<path d="M26.3704 24.8285H3.62891C6.37971 28.023 10.4533 30.0459 14.9997 30.0459C19.546 30.0459 23.6196 28.023 26.3704 24.8285Z" fill="#D80027"/>
</g>
<rect x="0.5" y="0.545898" width="29" height="29" rx="14.5" stroke="#D7D7D7"/>
<defs>
<clipPath id="clip0_5568_213959">
<rect y="0.0458984" width="30" height="30" rx="15" fill="white"/>
</clipPath>
</defs>
</svg>
