<svg width="30" height="30" viewBox="0 0 30 30" fill="none" xmlns="http://www.w3.org/2000/svg">
<rect width="30" height="30" rx="2" fill="white"/>
<path fill-rule="evenodd" clip-rule="evenodd" d="M15.777 5.43177L23.177 9.54288C23.4766 9.70928 23.6263 9.79248 23.7354 9.91082C23.8318 10.0155 23.9049 10.1396 23.9495 10.2748C24 10.4276 24 10.5989 24 10.9415V19.0586C24 19.4013 24 19.5726 23.9495 19.7254C23.9049 19.8606 23.8318 19.9847 23.7354 20.0893C23.6263 20.2077 23.4766 20.2909 23.177 20.4573L15.777 24.5684C15.4934 24.726 15.3516 24.8047 15.2015 24.8356C15.0685 24.863 14.9315 24.863 14.7985 24.8356C14.6484 24.8047 14.5066 24.726 14.223 24.5684L6.82297 20.4573C6.52345 20.2909 6.37369 20.2077 6.26463 20.0893C6.16816 19.9847 6.09515 19.8606 6.05048 19.7254C6 19.5726 6 19.4013 6 19.0586V10.9415C6 10.5989 6 10.4276 6.05048 10.2748C6.09515 10.1396 6.16816 10.0155 6.26463 9.91082C6.37369 9.79248 6.52345 9.70928 6.82297 9.54288L14.223 5.43177C14.5066 5.27421 14.6484 5.19543 14.7985 5.16454C14.9315 5.13721 15.0685 5.13721 15.2015 5.16454C15.3516 5.19543 15.4934 5.27421 15.777 5.43177ZM15 19C17.3761 19 19 17.1303 19 15C19 12.8697 17.5 11 15 11C12.5 11 11 12.8697 11 15C11 17.1303 12.5 19 15 19Z" stroke="#5F5C5C" stroke-width="1.5" stroke-linecap="round" stroke-linejoin="round"/>
<path d="M19 15C19 17.1303 17.3761 19 15 19C12.5 19 11 17.1303 11 15C11 12.8697 12.5 11 15 11C17.5 11 19 12.8697 19 15Z" stroke="#5F5C5C" stroke-width="1.5" stroke-linecap="round" stroke-linejoin="round"/>
</svg>
