<svg width="30" height="30" viewBox="0 0 30 30" fill="none" xmlns="http://www.w3.org/2000/svg">
<path d="M23.7556 10.2088L15.1314 15M15.1314 15L6.50727 10.2088M15.1314 15L15.1315 24.6388M9 15.5C9 14.5 9.8703 14.1851 10.5 14.5C11.5 15 11.5 15.6716 11.5 16.5C11.5 17.3284 10.5 17.5 10.5 17.5C10.5 17.5 11.5 18.5 11.5 19.5C11.5 20.204 11 21 10 20.5C9 20 9 19.5 9 19M24.2629 19.1178V10.8822C24.2629 10.5345 24.2629 10.3607 24.2117 10.2057C24.1664 10.0685 24.0923 9.94262 23.9944 9.8364C23.8838 9.71633 23.7318 9.63192 23.4279 9.46309L15.9198 5.29193C15.6321 5.13207 15.4882 5.05214 15.3359 5.0208C15.201 4.99307 15.0619 4.99307 14.9271 5.0208C14.7747 5.05214 14.6308 5.13207 14.3431 5.29193L6.83499 9.46309C6.53109 9.63192 6.37914 9.71634 6.2685 9.8364C6.17061 9.94262 6.09654 10.0685 6.05122 10.2057C6 10.3607 6 10.5345 6 10.8822V19.1178C6 19.4655 6 19.6393 6.05122 19.7943C6.09654 19.9315 6.17061 20.0574 6.2685 20.1636C6.37914 20.2837 6.53109 20.3681 6.83499 20.5369L14.3431 24.7081C14.6308 24.8679 14.7747 24.9479 14.9271 24.9792C15.0619 25.0069 15.201 25.0069 15.3359 24.9792C15.4882 24.9479 15.6321 24.8679 15.9198 24.7081L23.4279 20.5369C23.7318 20.3681 23.8838 20.2837 23.9944 20.1636C24.0923 20.0574 24.1664 19.9315 24.2117 19.7943C24.2629 19.6393 24.2629 19.4655 24.2629 19.1178ZM18.5 15V21C18.5 21 21.5 20 21.5 17C21.5 13.5 18.5 15 18.5 15Z" stroke="#5F5C5C" stroke-width="1.5" stroke-linecap="round" stroke-linejoin="round"/>
</svg>
