<svg width="30" height="31" viewBox="0 0 30 31" fill="none" xmlns="http://www.w3.org/2000/svg">
<g clip-path="url(#clip0_5568_213965)">
<path d="M15 30.0459C23.2843 30.0459 30 23.3302 30 15.0459C30 6.76163 23.2843 0.0458984 15 0.0458984C6.71573 0.0458984 0 6.76163 0 15.0459C0 23.3302 6.71573 30.0459 15 30.0459Z" fill="#F0F0F0"/>
<path d="M6.5459 2.65461C8.95322 1.00895 11.864 0.0458984 15.0002 0.0458984C18.1364 0.0458984 21.0472 1.00895 23.4545 2.65461L15.0002 3.30676L6.5459 2.65461Z" fill="#FFDA44"/>
<path d="M4.39418 25.6518L11.3107 18.7354L15 12.4372L18.6889 18.735L25.6058 25.6518C28.3205 22.9375 30 19.1881 30 15.046C30 9.89785 27.4061 5.35601 23.4543 2.65466H6.54568C2.59389 5.35601 0 9.89785 0 15.046C0 19.1881 1.67953 22.9375 4.39418 25.6518V25.6518Z" fill="#D80027"/>
<path d="M28.8605 20.7894L17.8936 16.245L18.6884 18.7343L25.6059 25.6518C26.9871 24.2708 28.1002 22.6218 28.8605 20.7894Z" fill="#0052B4"/>
<path d="M30 15.0459C30 13.0112 29.5945 11.0715 28.8605 9.30249L15 15.0459H30Z" fill="#0052B4"/>
<path d="M25.6058 4.44013C24.9465 3.78095 24.2265 3.18253 23.4543 2.65466H20.1347L15 15.046L25.6058 4.44013Z" fill="#0052B4"/>
<path d="M14.9999 2.65466H9.86523L14.9999 15.046V2.65466Z" fill="#0052B4"/>
<path d="M4.39424 4.44019C3.01307 5.82124 1.89996 7.47013 1.13965 9.30253L15.0001 15.046L4.39424 4.44019Z" fill="#0052B4"/>
<path d="M0 15.0459C0 17.0806 0.405527 19.0203 1.13953 20.7893L15 15.0459H0Z" fill="#0052B4"/>
<path d="M6.5459 27.4371C8.95316 29.0828 11.864 30.0458 15.0002 30.0458C18.1364 30.0458 21.0472 29.0828 23.4545 27.4371H6.5459Z" fill="#FFDA44"/>
<path d="M15.0006 15.0459L18.6898 18.7351C19.634 17.7909 20.218 16.4866 20.218 15.0459C20.218 12.1643 17.8821 9.82849 15.0006 9.82849C12.1192 9.82849 9.7832 12.1643 9.7832 15.0459C9.7832 16.4866 10.3671 17.7909 11.3114 18.7351L15.0006 15.0459Z" fill="#FFDA44"/>
<path d="M17.283 22.5458C17.283 23.8065 16.261 24.1762 15.0004 24.1762C13.7398 24.1762 12.7178 23.8065 12.7178 22.5458C12.7178 21.2852 13.7398 20.2632 15.0004 20.2632C16.261 20.2632 17.283 21.2852 17.283 22.5458Z" fill="#FFDA44"/>
<path d="M17.283 22.5459C17.283 23.8065 16.261 24.8285 15.0004 24.8285C13.7398 24.8285 12.7178 23.8065 12.7178 22.5459" fill="#0052B4"/>
</g>
<rect x="0.5" y="0.545898" width="29" height="29" rx="14.5" stroke="#D7D7D7"/>
<defs>
<clipPath id="clip0_5568_213965">
<rect y="0.0458984" width="30" height="30" rx="15" fill="white"/>
</clipPath>
</defs>
</svg>
