<svg width="30" height="30" viewBox="0 0 30 30" fill="none" xmlns="http://www.w3.org/2000/svg">
<rect width="30" height="30" rx="2" fill="white"/>
<path d="M19.9995 20C22.7609 20 24.9995 17.7614 24.9995 15C24.9995 12.2386 22.7609 10 19.9995 10C17.2381 10 14.9995 12.2386 14.9995 15C14.9995 17.7614 17.2381 20 19.9995 20Z" fill="#5F5C5C"/>
<path d="M16.9995 19H9C6.79086 19 5 17.2091 5 15C5 12.7909 6.79086 11 9 11H16.9995M24.9995 15C24.9995 17.7614 22.7609 20 19.9995 20C17.2381 20 14.9995 17.7614 14.9995 15C14.9995 12.2386 17.2381 10 19.9995 10C22.7609 10 24.9995 12.2386 24.9995 15Z" stroke="#5F5C5C" stroke-width="2" stroke-linecap="round" stroke-linejoin="round"/>
</svg>
