<svg width="30" height="30" viewBox="0 0 30 30" fill="none" xmlns="http://www.w3.org/2000/svg">
<rect width="30" height="30" rx="2" fill="white"/>
<path d="M10 20C12.7614 20 15 17.7614 15 15C15 12.2386 12.7614 10 10 10C7.23858 10 5 12.2386 5 15C5 17.7614 7.23858 20 10 20Z" fill="#5F5C5C"/>
<path fill-rule="evenodd" clip-rule="evenodd" d="M10 10C7.23858 10 5 12.2386 5 15C5 17.7614 7.23858 20 10 20C12.7614 20 15 17.7614 15 15C15 12.2386 12.7614 10 10 10Z" fill="#5F5C5C"/>
<path d="M10 20H20C22.7614 20 25 17.7614 25 15C25 12.2386 22.7614 10 20 10H10M10 20C7.23858 20 5 17.7614 5 15C5 12.2386 7.23858 10 10 10M10 20C12.7614 20 15 17.7614 15 15C15 12.2386 12.7614 10 10 10" stroke="#5F5C5C" stroke-width="2" stroke-linecap="round" stroke-linejoin="round"/>
</svg>
