<svg width="30" height="31" viewBox="0 0 30 31" fill="none" xmlns="http://www.w3.org/2000/svg">
<g clip-path="url(#clip0_5568_213981)">
<path d="M15 30.0352C23.2843 30.0352 30 23.3194 30 15.0352C30 6.75088 23.2843 0.0351562 15 0.0351562C6.71573 0.0351562 0 6.75088 0 15.0352C0 23.3194 6.71573 30.0352 15 30.0352Z" fill="#FFDA44"/>
<path d="M14.9998 0.0351562C14.9889 0.0352734 14.3477 6.03516 14.3477 6.03516H27.0005C24.2639 2.39197 19.9071 0.0351562 14.9998 0.0351562Z" fill="#496E2D"/>
<path d="M14.9997 30.0352C19.907 30.0352 24.2638 27.6783 27.0003 24.0352H2.99902C5.73559 27.6783 10.0923 30.0352 14.9997 30.0352Z" fill="#496E2D"/>
<path d="M29.6995 12.0352H14.3477L14.9998 18.0352H29.6995C29.8963 17.0658 29.9998 16.0626 29.9998 15.0352C29.9998 14.0077 29.8962 13.0045 29.6995 12.0352V12.0352Z" fill="#496E2D"/>
<path d="M15 18.0352C15 14.9047 15 3.55687 15 0.0351562C6.71578 0.0351562 0 6.75094 0 15.0352C0 16.0626 0.103594 17.0658 0.300352 18.0352H15Z" fill="#D80027"/>
<path d="M8.27645 7.20911L9.24769 10.1983H12.391L9.84816 12.0459L10.8193 15.0352L8.27645 13.1877L5.73359 15.0352L6.7049 12.0459L4.16211 10.1983H7.30525L8.27645 7.20911Z" fill="#F0F0F0"/>
</g>
<rect x="0.5" y="0.535156" width="29" height="29" rx="14.5" stroke="#D7D7D7"/>
<defs>
<clipPath id="clip0_5568_213981">
<rect y="0.0351562" width="30" height="30" rx="15" fill="white"/>
</clipPath>
</defs>
</svg>
