<svg width="30" height="31" viewBox="0 0 30 31" fill="none" xmlns="http://www.w3.org/2000/svg">
<g clip-path="url(#clip0_5568_213989)">
<path d="M15 30.0352C23.2843 30.0352 30 23.3194 30 15.0352C30 6.75088 23.2843 0.0351562 15 0.0351562C6.71573 0.0351562 0 6.75088 0 15.0352C0 23.3194 6.71573 30.0352 15 30.0352Z" fill="#FFDA44"/>
<path d="M24.1304 7.20908C23.9959 7.85566 23.9348 8.54432 23.9348 9.2308C23.9348 13.1879 26.2937 16.6127 29.6743 18.1545C29.8871 17.1481 30 16.1048 30 15.0352C30 6.75094 23.2842 0.0351562 15 0.0351562C6.71578 0.0351562 0 6.75094 0 15.0352C0 23.3194 6.71578 30.0352 15 30.0352C20.1376 30.0352 24.6714 27.4516 27.3748 23.5134H8.47828V21.5569H28.5116C28.7166 21.1329 28.9018 20.6977 29.0671 20.2526H8.47828L24.1304 7.20908Z" fill="#0052B4"/>
<path d="M11.0199 7.86121L11.3437 8.85765H12.3914L11.5438 9.47353L11.8676 10.4699L11.0199 9.85416L10.1724 10.4699L10.4961 9.47353L9.64844 8.85765H10.6962L11.0199 7.86121Z" fill="#F0F0F0"/>
<path d="M6.76408 15.0352L7.16885 16.2808H8.47842L7.41887 17.0504L7.82363 18.296L6.76408 17.5262L5.70459 18.296L6.1093 17.0504L5.0498 16.2808H6.35937L6.76408 15.0352Z" fill="#F0F0F0"/>
<path d="M6.76408 4.60034L7.16885 5.84599H8.47842L7.41887 6.61562L7.82363 7.8612L6.76408 7.0914L5.70459 7.8612L6.1093 6.61562L5.0498 5.84599H6.35937L6.76408 4.60034Z" fill="#F0F0F0"/>
<path d="M3.50334 10.4699L3.90811 11.7156H5.21762L4.15812 12.4852L4.56289 13.7308L3.50334 12.961L2.44385 13.7308L2.84855 12.4852L1.78906 11.7156H3.09857L3.50334 10.4699Z" fill="#F0F0F0"/>
</g>
<rect x="0.5" y="0.535156" width="29" height="29" rx="14.5" stroke="#D7D7D7"/>
<defs>
<clipPath id="clip0_5568_213989">
<rect y="0.0351562" width="30" height="30" rx="15" fill="white"/>
</clipPath>
</defs>
</svg>
