<svg width="30" height="31" viewBox="0 0 30 31" fill="none" xmlns="http://www.w3.org/2000/svg">
<g clip-path="url(#clip0_5568_213997)">
<path d="M15 30.0352C23.2843 30.0352 30 23.3194 30 15.0352C30 6.75088 23.2843 0.0351562 15 0.0351562C6.71573 0.0351562 0 6.75088 0 15.0352C0 23.3194 6.71573 30.0352 15 30.0352Z" fill="#F0F0F0"/>
<path d="M9.78221 7.86123V5.90472H7.82564V7.86123H5.86914V9.81779H7.82564V11.7743H9.78221V9.81779H11.7387V7.86123H9.78221Z" fill="#D80027"/>
<path d="M15 0.0351562V15.0352C6.71578 15.0352 3.42334 15.0352 0 15.0352C0 23.3194 6.71578 30.0352 15 30.0352C23.2842 30.0352 30 23.3194 30 15.0352C30 6.75094 23.2842 0.0351562 15 0.0351562Z" fill="#D80027"/>
</g>
<rect x="0.5" y="0.535156" width="29" height="29" rx="14.5" stroke="#D7D7D7"/>
<defs>
<clipPath id="clip0_5568_213997">
<rect y="0.0351562" width="30" height="30" rx="15" fill="white"/>
</clipPath>
</defs>
</svg>
