<svg width="30" height="30" viewBox="0 0 30 30" fill="none" xmlns="http://www.w3.org/2000/svg">
<rect width="30" height="30" rx="2" fill="white"/>
<path d="M6 5L9 6V9H6L5 6L6 5Z" fill="#5F5C5C"/>
<path d="M22.259 5.74101L19.6314 8.36863C19.2354 8.76465 19.0373 8.96265 18.9632 9.19098C18.8979 9.39183 18.8979 9.60817 18.9632 9.80902C19.0373 10.0373 19.2354 10.2354 19.6314 10.6314L19.8686 10.8686C20.2646 11.2646 20.4627 11.4627 20.691 11.5368C20.8918 11.6021 21.1082 11.6021 21.309 11.5368C21.5373 11.4627 21.7354 11.2646 22.1314 10.8686L24.5893 8.41072C24.854 9.05488 25 9.76039 25 10.5C25 13.5376 22.5376 16 19.5 16C19.1338 16 18.7759 15.9642 18.4298 15.8959C17.9436 15.8001 17.7005 15.7521 17.5532 15.7668C17.3965 15.7824 17.3193 15.8059 17.1805 15.8802C17.0499 15.9501 16.919 16.081 16.657 16.343L9.5 23.5C8.67157 24.3284 7.32843 24.3284 6.5 23.5C5.67157 22.6716 5.67157 21.3284 6.5 20.5L13.657 13.343C13.919 13.081 14.0499 12.9501 14.1198 12.8195C14.1941 12.6807 14.2176 12.6035 14.2332 12.4468C14.2479 12.2995 14.1999 12.0564 14.1041 11.5702C14.0358 11.2241 14 10.8662 14 10.5C14 7.46243 16.4624 5 19.5 5C20.5055 5 21.448 5.26982 22.259 5.74101Z" fill="#5F5C5C"/>
<path d="M15.0001 17.9999L20.5 23.4999C21.3284 24.3283 22.6716 24.3283 23.5 23.4999C24.3284 22.6715 24.3284 21.3283 23.5 20.4999L18.9753 15.9753C18.655 15.945 18.3427 15.8872 18.0408 15.8043C17.6517 15.6975 17.2249 15.7751 16.9397 16.0603L15.0001 17.9999Z" fill="#5F5C5C"/>
<path d="M6 5L9 6V9H6L5 6L6 5Z" stroke="#5F5C5C" stroke-linecap="round" stroke-linejoin="round"/>
<path d="M22.259 5.74101L19.6314 8.36863C19.2354 8.76465 19.0373 8.96265 18.9632 9.19098C18.8979 9.39183 18.8979 9.60817 18.9632 9.80902C19.0373 10.0373 19.2354 10.2354 19.6314 10.6314L19.8686 10.8686C20.2646 11.2646 20.4627 11.4627 20.691 11.5368C20.8918 11.6021 21.1082 11.6021 21.309 11.5368C21.5373 11.4627 21.7354 11.2646 22.1314 10.8686L24.5893 8.41072C24.854 9.05488 25 9.76039 25 10.5C25 13.5376 22.5376 16 19.5 16C19.1338 16 18.7759 15.9642 18.4298 15.8959C17.9436 15.8001 17.7005 15.7521 17.5532 15.7668C17.3965 15.7824 17.3193 15.8059 17.1805 15.8802C17.0499 15.9501 16.919 16.081 16.657 16.343L9.5 23.5C8.67157 24.3284 7.32843 24.3284 6.5 23.5C5.67157 22.6716 5.67157 21.3284 6.5 20.5L13.657 13.343C13.919 13.081 14.0499 12.9501 14.1198 12.8195C14.1941 12.6807 14.2176 12.6035 14.2332 12.4468C14.2479 12.2995 14.1999 12.0564 14.1041 11.5702C14.0358 11.2241 14 10.8662 14 10.5C14 7.46243 16.4624 5 19.5 5C20.5055 5 21.448 5.26982 22.259 5.74101Z" stroke="#5F5C5C" stroke-linecap="round" stroke-linejoin="round"/>
<path d="M15.0001 17.9999L20.5 23.4999C21.3284 24.3283 22.6716 24.3283 23.5 23.4999C24.3284 22.6715 24.3284 21.3283 23.5 20.4999L18.9753 15.9753C18.655 15.945 18.3427 15.8872 18.0408 15.8043C17.6517 15.6975 17.2249 15.7751 16.9397 16.0603L15.0001 17.9999Z" stroke="#5F5C5C" stroke-linecap="round" stroke-linejoin="round"/>
<path d="M9 9L13.5 13.5L9 9Z" fill="#5F5C5C"/>
<path d="M9 9L13.5 13.5" stroke="#5F5C5C" stroke-width="2" stroke-linecap="round" stroke-linejoin="round"/>
</svg>
