<svg width="30" height="30" viewBox="0 0 30 30" fill="none" xmlns="http://www.w3.org/2000/svg">
<rect width="30" height="30" rx="2" fill="white"/>
<path d="M18.6314 10.6314C18.2353 10.2354 18.0373 10.0373 17.9631 9.80902C17.8979 9.60817 17.8979 9.39183 17.9631 9.19098C18.0373 8.96265 18.2353 8.76465 18.6314 8.36863L21.4697 5.53026C20.7165 5.18962 19.8804 5 19 5C15.6863 5 13 7.68629 13 11C13 11.491 13.059 11.9683 13.1702 12.4251C13.2894 12.9142 13.349 13.1588 13.3384 13.3133C13.3273 13.4751 13.3032 13.5612 13.2286 13.7051C13.1574 13.8426 13.0208 13.9791 12.7478 14.2522L6.49998 20.5C5.67156 21.3284 5.67156 22.6716 6.49998 23.5C7.32841 24.3284 8.67156 24.3284 9.49998 23.5L15.7478 17.2522C16.0208 16.9791 16.1574 16.8426 16.2949 16.7714C16.4388 16.6968 16.5249 16.6727 16.6867 16.6616C16.8412 16.651 17.0857 16.7106 17.5749 16.8297C18.0317 16.941 18.5089 17 19 17C22.3137 17 25 14.3137 25 11C25 10.1196 24.8104 9.28347 24.4697 8.53026L21.6314 11.3686C21.2353 11.7646 21.0373 11.9627 20.809 12.0368C20.6082 12.1021 20.3918 12.1021 20.191 12.0368C19.9626 11.9627 19.7646 11.7646 19.3686 11.3686L18.6314 10.6314Z" fill="#5F5C5C" stroke="#5F5C5C" stroke-linecap="round" stroke-linejoin="round"/>
</svg>
