<svg width="30" height="30" viewBox="0 0 30 30" fill="none" xmlns="http://www.w3.org/2000/svg">
<rect width="30" height="30" rx="2" fill="white"/>
<path d="M15.913 20H23.087M15.913 20L14 24M15.913 20L18.7783 14.009C19.0092 13.5263 19.1246 13.2849 19.2826 13.2086C19.4199 13.1423 19.5801 13.1423 19.7174 13.2086C19.8754 13.2849 19.9908 13.5263 20.2217 14.009L23.087 20M23.087 20L25 24M5 8H11M11 8H14.5M11 8V6M14.5 8H17M14.5 8C14.0039 10.9573 12.8526 13.6362 11.1655 15.8844M13 17C12.3875 16.7248 11.7626 16.3421 11.1655 15.8844M11.1655 15.8844C9.81302 14.8478 8.60276 13.4266 8 12M11.1655 15.8844C9.56086 18.0229 7.47143 19.7718 5 21" stroke="#5F5C5C" stroke-width="1.5" stroke-linecap="round" stroke-linejoin="round"/>
</svg>
