<svg width="30" height="31" viewBox="0 0 30 31" fill="none" xmlns="http://www.w3.org/2000/svg">
<g clip-path="url(#clip0_5568_214002)">
<path d="M29.4831 11.1221C27.7619 4.73561 21.9303 0.0351562 14.9999 0.0351562C8.06945 0.0351562 2.23785 4.73561 0.516602 11.1221L14.9999 11.7743L29.4831 11.1221Z" fill="#A2001D"/>
<path d="M0.516602 18.9482C2.23785 25.3347 8.06945 30.0352 14.9999 30.0352C21.9303 30.0352 27.7619 25.3347 29.4831 18.9482L14.9999 18.296L0.516602 18.9482Z" fill="#A2001D"/>
<path d="M29.4833 11.1221H0.516738C0.180469 12.3697 0 13.6812 0 15.0351C0 16.3891 0.180469 17.7006 0.516738 18.9482H29.4833C29.8195 17.7006 30 16.3891 30 15.0351C30 13.6812 29.8195 12.3697 29.4833 11.1221V11.1221Z" fill="#6DA544"/>
</g>
<rect x="0.5" y="0.535156" width="29" height="29" rx="14.5" stroke="#D7D7D7"/>
<defs>
<clipPath id="clip0_5568_214002">
<rect y="0.0351562" width="30" height="30" rx="15" fill="white"/>
</clipPath>
</defs>
</svg>
