<svg width="30" height="30" viewBox="0 0 30 30" fill="none" xmlns="http://www.w3.org/2000/svg">
<rect width="30" height="30" rx="2" fill="white"/>
<path d="M6 9H24H6Z" fill="#5F5C5C"/>
<path d="M11 9H8V20.2C8 21.8802 8 22.7202 8.32698 23.362C8.6146 23.9265 9.07354 24.3854 9.63803 24.673C10.2798 25 11.1198 25 12.8 25H17.2C18.8802 25 19.7202 25 20.362 24.673C20.9265 24.3854 21.3854 23.9265 21.673 23.362C22 22.7202 22 21.8802 22 20.2V9H19H11Z" fill="#5F5C5C"/>
<path d="M15.8 5H14.2C13.0799 5 12.5198 5 12.092 5.21799C11.7157 5.40973 11.4097 5.71569 11.218 6.09202C11 6.51984 11 7.0799 11 8.2V9H19V8.2C19 7.0799 19 6.51984 18.782 6.09202C18.5903 5.71569 18.2843 5.40973 17.908 5.21799C17.4802 5 16.9201 5 15.8 5Z" fill="#5F5C5C"/>
<path d="M19 9V8.2C19 7.0799 19 6.51984 18.782 6.09202C18.5903 5.71569 18.2843 5.40973 17.908 5.21799C17.4802 5 16.9201 5 15.8 5H14.2C13.0799 5 12.5198 5 12.092 5.21799C11.7157 5.40973 11.4097 5.71569 11.218 6.09202C11 6.51984 11 7.0799 11 8.2V9M19 9H22V20.2C22 21.8802 22 22.7202 21.673 23.362C21.3854 23.9265 20.9265 24.3854 20.362 24.673C19.7202 25 18.8802 25 17.2 25H12.8C11.1198 25 10.2798 25 9.63803 24.673C9.07354 24.3854 8.6146 23.9265 8.32698 23.362C8 22.7202 8 21.8802 8 20.2V9H11M19 9H11M6 9H24" stroke="#5F5C5C" stroke-linecap="round" stroke-linejoin="round"/>
<path d="M13 14.5V19.5M17 14.5V19.5" stroke="white" stroke-width="2" stroke-linecap="round" stroke-linejoin="round"/>
</svg>
