<svg width="30" height="30" viewBox="0 0 30 30" fill="none" xmlns="http://www.w3.org/2000/svg">
<rect width="30" height="30" rx="2" fill="white"/>
<path d="M6 9H24H6Z" fill="#5F5C5C"/>
<path d="M8 9H22L21.2987 19.5193C21.1935 21.0975 21.1409 21.8867 20.8 22.485C20.4999 23.0118 20.0472 23.4353 19.5017 23.6997C18.882 24 18.0911 24 16.5093 24H13.4907C11.9089 24 11.118 24 10.4983 23.6997C9.95276 23.4353 9.50009 23.0118 9.19998 22.485C8.85911 21.8867 8.8065 21.0975 8.70129 19.5193L8 9Z" fill="#5F5C5C"/>
<path d="M6 9H24M22 9L21.2987 19.5193C21.1935 21.0975 21.1409 21.8867 20.8 22.485C20.4999 23.0118 20.0472 23.4353 19.5017 23.6997C18.882 24 18.0911 24 16.5093 24H13.4907C11.9089 24 11.118 24 10.4983 23.6997C9.95276 23.4353 9.50009 23.0118 9.19998 22.485C8.85911 21.8867 8.8065 21.0975 8.70129 19.5193L8 9H22Z" stroke="#5F5C5C" stroke-linecap="round" stroke-linejoin="round"/>
<path d="M12 6H18" stroke="#5F5C5C" stroke-width="2" stroke-linecap="round" stroke-linejoin="round"/>
</svg>
