<svg width="30" height="30" viewBox="0 0 30 30" fill="none" xmlns="http://www.w3.org/2000/svg">
<path d="M5.39019 21.0983L13.6151 6.89171C14.0696 6.10655 14.2969 5.71396 14.5935 5.58211C14.8521 5.4671 15.1474 5.4671 15.4061 5.58211C15.7026 5.71396 15.9299 6.10654 16.3844 6.89171L24.6093 21.0983C25.0655 21.8863 25.2936 22.2803 25.2599 22.6037C25.2305 22.8857 25.0827 23.142 24.8534 23.3088C24.5904 23.5 24.1352 23.5 23.2246 23.5H6.77487C5.86435 23.5 5.40908 23.5 5.14613 23.3088C4.91677 23.142 4.769 22.8857 4.73959 22.6037C4.70588 22.2803 4.93398 21.8863 5.39019 21.0983Z" stroke="#5F5C5C" stroke-width="1.5" stroke-linecap="round" stroke-linejoin="round"/>
</svg>
