<svg width="30" height="31" viewBox="0 0 30 31" fill="none" xmlns="http://www.w3.org/2000/svg">
<g clip-path="url(#clip0_5568_214007)">
<path d="M8.1224 1.70074C6.77955 2.39385 5.51902 3.30235 4.39332 4.42805C3.26756 5.55381 2.35906 6.81434 1.66602 8.15719L11.311 18.7245L21.8783 28.3695C23.2212 27.6763 24.4817 26.7679 25.6074 25.6422C26.7332 24.5164 27.6416 23.2559 28.3347 21.9131L18.6898 11.3457L8.1224 1.70074Z" fill="#F0F0F0"/>
<path d="M25.6075 25.6422C26.2368 25.013 26.798 24.3415 27.2921 23.6373L6.3984 2.74359C5.69416 3.2376 5.02273 3.79881 4.3935 4.42804C3.76426 5.05728 3.20305 5.72871 2.70898 6.43301L23.6026 27.3266C24.3068 26.8326 24.9783 26.2714 25.6075 25.6422Z" fill="black"/>
<path d="M4.39289 25.6422C9.12533 30.3747 16.2326 31.2831 21.8778 28.3695L1.66564 8.15723C-1.24793 13.8025 -0.339321 20.9098 4.39289 25.6422V25.6422Z" fill="#D80027"/>
<path d="M25.607 4.42812C20.8746 -0.304265 13.7673 -1.2127 8.12207 1.70075L28.3343 21.9131C31.2479 16.2679 30.3395 9.1605 25.607 4.42812V4.42812Z" fill="#D80027"/>
</g>
<rect x="0.5" y="0.535156" width="29" height="29" rx="14.5" stroke="#D7D7D7"/>
<defs>
<clipPath id="clip0_5568_214007">
<rect y="0.0351562" width="30" height="30" rx="15" fill="white"/>
</clipPath>
</defs>
</svg>
