<svg width="30" height="31" viewBox="0 0 30 31" fill="none" xmlns="http://www.w3.org/2000/svg">
<g clip-path="url(#clip0_5568_214013)">
<path d="M15 30.0459C23.2843 30.0459 30 23.3302 30 15.0459C30 6.76163 23.2843 0.0458984 15 0.0458984C6.71573 0.0458984 0 6.76163 0 15.0459C0 23.3302 6.71573 30.0459 15 30.0459Z" fill="#D80027"/>
<path d="M15.0001 22.2198C18.9621 22.2198 22.174 19.0079 22.174 15.0459C22.174 11.0838 18.9621 7.87195 15.0001 7.87195C11.038 7.87195 7.82617 11.0838 7.82617 15.0459C7.82617 19.0079 11.038 22.2198 15.0001 22.2198Z" fill="#F0F0F0"/>
<path d="M15.8832 12.3029L17.1139 13.9989L19.1071 13.3526L17.8745 15.0471L19.105 16.743L17.1125 16.0943L15.8799 17.7888L15.8812 15.6934L13.8887 15.0447L15.8819 14.3984L15.8832 12.3029Z" fill="#D80027"/>
<path d="M16.63 19.2851C14.2888 19.2851 12.3909 17.3871 12.3909 15.0459C12.3909 12.7047 14.2888 10.8068 16.63 10.8068C17.36 10.8068 18.0469 10.9913 18.6465 11.3163C17.7058 10.3963 16.4194 9.82849 14.9996 9.82849C12.1182 9.82849 9.78223 12.1644 9.78223 15.0459C9.78223 17.9273 12.1182 20.2632 14.9996 20.2632C16.4194 20.2632 17.7059 19.6954 18.6465 18.7754C18.0469 19.1005 17.36 19.2851 16.63 19.2851Z" fill="#D80027"/>
</g>
<rect x="0.5" y="0.545898" width="29" height="29" rx="14.5" stroke="#D7D7D7"/>
<defs>
<clipPath id="clip0_5568_214013">
<rect y="0.0458984" width="30" height="30" rx="15" fill="white"/>
</clipPath>
</defs>
</svg>
