<svg width="30" height="31" viewBox="0 0 30 31" fill="none" xmlns="http://www.w3.org/2000/svg">
<g clip-path="url(#clip0_5568_214052)">
<path d="M30 15.0459C30 23.3301 23.2842 30.0459 15 30.0459C6.71578 30.0459 0 23.3301 0 15.0459C0 15.0495 15 0.0475391 15 0.0458984C23.2842 0.0458984 30 6.76168 30 15.0459Z" fill="#0052B4"/>
<path d="M14.96 15.0459H15.0001C15.0001 15.0324 15.0001 15.0193 15.0001 15.0057C14.9867 15.0192 14.9734 15.0325 14.96 15.0459Z" fill="#F0F0F0"/>
<path d="M15 7.87197C15 5.23262 15 3.50322 15 0.0458984H14.9975C6.71432 0.0473047 0 6.76244 0 15.0459H7.82607V10.639L12.233 15.0459H14.9599C14.9733 15.0325 14.9866 15.0192 15.0001 15.0058C15.0001 13.9952 15.0001 13.0935 15.0001 12.279L10.593 7.87197H15Z" fill="#F0F0F0"/>
<path d="M7.58832 2.00244C5.24229 3.33832 3.29188 5.28867 1.95605 7.63471V15.0459H5.86912V5.91563V5.91551H14.9996C14.9996 4.68135 14.9996 3.50561 14.9996 2.00244H7.58832Z" fill="#D80027"/>
<path d="M14.9991 13.2013L9.66973 7.87207H7.8252V7.87219L14.999 15.0459H14.9991C14.9991 15.0459 14.9991 13.774 14.9991 13.2013V13.2013Z" fill="#D80027"/>
<path d="M16.9561 7.87195V15.0458C16.9561 18.5403 21.5213 19.6111 21.5213 19.6111C21.5213 19.6111 26.0865 18.5403 26.0865 15.0458V7.87195H16.9561Z" fill="#FFDA44"/>
<path d="M20.8695 10.4806C20.8695 11.201 20.2855 13.0893 19.5651 13.0893C18.8447 13.0893 18.2607 11.201 18.2607 10.4806C18.2607 9.76021 19.5651 9.17627 19.5651 9.17627C19.5651 9.17627 20.8695 9.76021 20.8695 10.4806Z" fill="#FF9811"/>
<path d="M24.3312 11.9012C24.5417 11.3877 24.7054 10.637 24.7054 10.2632C24.7054 9.66289 23.9228 9.17627 23.9228 9.17627C23.9228 9.17627 23.1401 9.66295 23.1401 10.2632C23.1401 10.637 23.3038 11.3877 23.5143 11.9012L23.0625 12.9213C23.328 13.0293 23.6183 13.0893 23.9227 13.0893C24.2271 13.0893 24.5174 13.0293 24.7829 12.9213L24.3312 11.9012Z" fill="#A2001D"/>
<path d="M20.5438 15.0459C20.5438 15.0459 19.8916 16.3503 19.8916 17.6547H23.1525C23.1524 16.3503 22.5003 15.0459 22.5003 15.0459L21.522 14.3938L20.5438 15.0459Z" fill="#6DA544"/>
<path d="M22.4995 15.0458V14.7197C22.4995 14.1795 22.0615 13.7415 21.5212 13.7415C20.981 13.7415 20.543 14.1794 20.543 14.7197V15.0458H22.4995Z" fill="#D80027"/>
</g>
<rect x="0.5" y="0.545898" width="29" height="29" rx="14.5" stroke="#D7D7D7"/>
<defs>
<clipPath id="clip0_5568_214052">
<rect y="0.0458984" width="30" height="30" rx="15" fill="white"/>
</clipPath>
</defs>
</svg>
