<svg width="30" height="31" viewBox="0 0 30 31" fill="none" xmlns="http://www.w3.org/2000/svg">
<g clip-path="url(#clip0_5568_214024)">
<path d="M14.9999 0.0458984C13.8799 0.0458984 12.7889 0.169707 11.7391 0.402441L11.0869 15.0458L11.7391 29.6893C12.789 29.922 13.88 30.0459 14.9999 30.0459C23.2841 30.0459 29.9999 23.3301 29.9999 15.0458C29.9998 6.76162 23.2841 0.0458984 14.9999 0.0458984V0.0458984Z" fill="#496E2D"/>
<path d="M3.91301 4.94263C1.4823 7.60841 0 11.1539 0 15.0458C0 18.9377 1.48236 22.4833 3.91307 25.1491L4.56522 15.0458L3.91301 4.94263Z" fill="#496E2D"/>
<path d="M21.9387 11.3603C22.6767 9.30329 21.8476 7.06612 20.0683 5.9519C20.3883 5.99356 20.7087 6.06892 21.0249 6.18229C23.3981 7.03378 24.6318 9.64776 23.7803 12.0209C22.9288 14.3943 20.3148 15.6278 17.9416 14.7763C17.6254 14.6629 17.3301 14.5173 17.0566 14.346C19.1385 14.6171 21.2007 13.4173 21.9387 11.3603V11.3603Z" fill="#F0F0F0"/>
<path d="M17.8448 5.38806L17.2035 6.21669L16.2174 5.86285L16.8072 6.72875L16.166 7.55726L17.1718 7.26394L17.7617 8.12972L17.7933 7.08253L18.7992 6.78916L17.8131 6.43542L17.8448 5.38806Z" fill="#F0F0F0"/>
<path d="M19.5763 8.08801L18.935 8.91659L17.9488 8.56274L18.5387 9.42864L17.8975 10.2572L18.9032 9.96372L19.4931 10.8297L19.5249 9.78243L20.5307 9.48899L19.5445 9.1352L19.5763 8.08801Z" fill="#F0F0F0"/>
<path d="M14.7921 6.37134L14.1507 7.19985L13.1647 6.84612L13.7545 7.71196L13.1133 8.54054L14.119 8.24716L14.7089 9.113L14.7407 8.06581L15.7464 7.77243L14.7604 7.41858L14.7921 6.37134Z" fill="#F0F0F0"/>
<path d="M14.7218 9.46411L14.0805 10.2927L13.0944 9.9389L13.6843 10.8048L13.043 11.6333L14.0488 11.34L14.6387 12.2058L14.6704 11.1586L15.6762 10.8652L14.69 10.5114L14.7218 9.46411Z" fill="#F0F0F0"/>
<path d="M17.6652 10.52L17.0238 11.3485L16.0378 10.9947L16.6277 11.8606L15.9863 12.6891L16.9922 12.3958L17.5821 13.2617L17.6138 12.2144L18.6196 11.9211L17.6334 11.5673L17.6652 10.52Z" fill="#F0F0F0"/>
<path d="M3.91309 4.94266V25.1491C5.95684 27.3906 8.67148 29.0092 11.7392 29.6893V0.402466C8.67143 1.0825 5.95689 2.70116 3.91309 4.94266V4.94266Z" fill="#D80027"/>
<path d="M6.90006 7.94343L5.58984 6.96737V5.58708L6.90006 4.61108H8.75309L10.0633 5.58708V6.96737L8.75309 7.94343H6.90006Z" fill="#F0F0F0"/>
<path d="M7.8266 4.61108H6.90006L5.58984 5.58708V6.2619H7.8266V4.61108Z" fill="#FF9811"/>
<path d="M7.82617 7.94336H8.75266L10.0629 6.9673V6.26318H7.82617V7.94336Z" fill="#FF9811"/>
<path d="M6.90006 25.4805L5.58984 24.5045V23.1242L6.90006 22.1482H8.75309L10.0633 23.1242V24.5045L8.75309 25.4805H6.90006Z" fill="#F0F0F0"/>
<path d="M7.8266 22.1482H6.90006L5.58984 23.1242V23.7991H7.8266V22.1482Z" fill="#FF9811"/>
<path d="M7.82617 25.4805H8.75266L10.0629 24.5045V23.8004H7.82617V25.4805Z" fill="#FF9811"/>
<path d="M6.90006 16.712L5.58984 15.7359V14.3557L6.90006 13.3796H8.75309L10.0633 14.3557V15.7359L8.75309 16.712H6.90006Z" fill="#496E2D"/>
<path d="M10.1091 18.8595H9.5384V18.2888H8.53557L7.82646 17.5797L7.11742 18.2888H6.11459V18.8595H5.54395V20.0007H6.11459V20.5714H7.11736L7.82652 21.2806L8.53557 20.5714H9.5384V20.0007H10.1091V18.8595Z" fill="#496E2D"/>
<path d="M10.1091 10.0908H9.5384V9.52014H8.53557L7.82646 8.81104L7.11742 9.52014H6.11459V10.0908H5.54395V11.2321H6.11459V11.8028H7.11736L7.82652 12.512L8.53557 11.8028H9.5384V11.2321H10.1091V10.0908Z" fill="#496E2D"/>
<path d="M7.17383 14.3937H8.47818V15.698H7.17383V14.3937Z" fill="#D80027"/>
<path d="M7.82598 11.3135C8.18615 11.3135 8.47813 11.0215 8.47813 10.6613C8.47813 10.3011 8.18615 10.0092 7.82598 10.0092C7.4658 10.0092 7.17383 10.3011 7.17383 10.6613C7.17383 11.0215 7.4658 11.3135 7.82598 11.3135Z" fill="#D80027"/>
<path d="M7.82598 20.0825C8.18615 20.0825 8.47813 19.7905 8.47813 19.4303C8.47813 19.0702 8.18615 18.7782 7.82598 18.7782C7.4658 18.7782 7.17383 19.0702 7.17383 19.4303C7.17383 19.7905 7.4658 20.0825 7.82598 20.0825Z" fill="#D80027"/>
</g>
<rect x="0.5" y="0.545898" width="29" height="29" rx="14.5" stroke="#D7D7D7"/>
<defs>
<clipPath id="clip0_5568_214024">
<rect y="0.0458984" width="30" height="30" rx="15" fill="white"/>
</clipPath>
</defs>
</svg>
