<svg width="30" height="31" viewBox="0 0 30 31" fill="none" xmlns="http://www.w3.org/2000/svg">
<g clip-path="url(#clip0_5568_214019)">
<path d="M15 30.0469C23.2843 30.0469 30 23.3311 30 15.0469C30 6.7626 23.2843 0.046875 15 0.046875C6.71573 0.046875 0 6.7626 0 15.0469C0 23.3311 6.71573 30.0469 15 30.0469Z" fill="#D80027"/>
<path d="M14.3861 12.3038L15.6169 13.9998L17.6101 13.3535L16.3774 15.0481L17.608 16.744L15.6155 16.0953L14.3829 17.7898L14.3841 15.6944L12.3916 15.0457L14.3848 14.3994L14.3861 12.3038Z" fill="#F0F0F0"/>
<path d="M11.0275 19.286C8.68631 19.286 6.78834 17.3881 6.78834 15.0469C6.78834 12.7057 8.68631 10.8077 11.0275 10.8077C11.7574 10.8077 12.4443 10.9924 13.0439 11.3173C12.1032 10.3972 10.8167 9.82947 9.39705 9.82947C6.51553 9.82947 4.17969 12.1654 4.17969 15.0468C4.17969 17.9283 6.51559 20.2642 9.39705 20.2642C10.8168 20.2642 12.1033 19.6964 13.0439 18.7764C12.4443 19.1014 11.7574 19.286 11.0275 19.286V19.286Z" fill="#F0F0F0"/>
</g>
<rect x="0.5" y="0.546875" width="29" height="29" rx="14.5" stroke="#D7D7D7"/>
<defs>
<clipPath id="clip0_5568_214019">
<rect y="0.046875" width="30" height="30" rx="15" fill="white"/>
</clipPath>
</defs>
</svg>
