<svg width="30" height="31" viewBox="0 0 30 31" fill="none" xmlns="http://www.w3.org/2000/svg">
<g clip-path="url(#clip0_5568_214066)">
<path d="M30 15.0459C30 23.3301 23.2842 30.0459 15.0001 30.0459C6.71578 30.0459 0 23.3301 0 15.0459C0 15.0495 15.0001 0.0475391 15.0001 0.0458984C23.2842 0.0458984 30 6.76168 30 15.0459Z" fill="#338AF3"/>
<path d="M7.17383 15.046H12.2329L7.82598 9.82861L7.17383 11.7851V15.046Z" fill="#0052B4"/>
<path d="M14.9996 12.279L9.78223 7.21985H14.9996L14.9996 12.279Z" fill="#0052B4"/>
<path d="M14.96 15.0459H15.0001C15.0001 15.0324 15.0001 15.0193 15.0001 15.0057C14.9867 15.0192 14.9734 15.0325 14.96 15.0459Z" fill="#F0F0F0"/>
<path d="M15.0001 7.87197C15.0001 5.23262 15.0001 3.50316 15.0001 0.0458984H14.9975C6.71437 0.0473047 0 6.76244 0 15.0459H7.82613V10.639L12.233 15.0459H14.96C14.9733 15.0325 14.9867 15.0192 15.0001 15.0058C15.0001 13.9952 15.0001 13.0935 15.0001 12.279L10.593 7.87197H15.0001Z" fill="#F0F0F0"/>
<path d="M7.58832 2.00244C5.24229 3.33832 3.29193 5.28867 1.95605 7.63471V15.0459H5.86912V5.91563V5.91551H14.9996C14.9996 4.68135 14.9996 3.50561 14.9996 2.00244H7.58832Z" fill="#D80027"/>
<path d="M14.9991 13.2013L9.66973 7.87207H7.8252V7.87219L14.999 15.0459H14.9991C14.9991 15.0459 14.9991 13.774 14.9991 13.2013V13.2013Z" fill="#D80027"/>
<path d="M16.3714 24.8285L16.6952 25.8249H17.7429L16.8954 26.4408L17.2192 27.4371L16.3714 26.8214L15.5239 27.4371L15.8477 26.4408L15 25.8249H16.0477L16.3714 24.8285Z" fill="#FFDA44"/>
<path d="M24.7153 18.3068L25.039 19.3032H26.0867L25.2391 19.9191L25.563 20.9155L24.7153 20.2997L23.8677 20.9155L24.1915 19.9191L23.3438 19.3032H24.3915L24.7153 18.3068Z" fill="#FFDA44"/>
<path d="M26.806 8.52417L27.1298 9.52062H28.1775L27.33 10.1364L27.6537 11.1328L26.806 10.5171L25.9585 11.1328L26.2822 10.1364L25.4346 9.52062H26.4823L26.806 8.52417Z" fill="#FFDA44"/>
<path d="M27.3246 15.698L27.6484 16.6945H28.6961L27.8485 17.3103L28.1723 18.3067L27.3246 17.6909L26.4771 18.3067L26.8009 17.3103L25.9531 16.6945H27.0008L27.3246 15.698Z" fill="#FFDA44"/>
<path d="M17.8735 22.4848L18.8072 22.9605L19.548 22.2197L19.3841 23.2544L20.3176 23.7301L19.2827 23.894L19.1188 24.9289L18.6433 23.9953L17.6084 24.1593L18.3492 23.4185L17.8735 22.4848Z" fill="#FFDA44"/>
<path d="M17.8735 18.5719L18.8072 19.0476L19.548 18.3068L19.3841 19.3415L20.3176 19.8171L19.2827 19.9811L19.1188 21.0159L18.6433 20.0824L17.6084 20.2463L18.3492 19.5055L17.8735 18.5719Z" fill="#FFDA44"/>
<path d="M21.1342 21.08L22.0679 21.5557L22.8087 20.8149L22.6449 21.8496L23.5783 22.3253L22.5435 22.4893L22.3796 23.5241L21.904 22.5904L20.8691 22.7545L21.6099 22.0137L21.1342 21.08Z" fill="#FFDA44"/>
<path d="M21.1342 12.7024L22.0679 13.1781L22.8087 12.4373L22.6449 13.472L23.5783 13.9476L22.5435 14.1116L22.3796 15.1464L21.904 14.2129L20.8691 14.3768L21.6099 13.636L21.1342 12.7024Z" fill="#FFDA44"/>
<path d="M24.2954 12.6018L25.229 13.0775L25.9698 12.3367L25.806 13.3714L26.7395 13.847L25.7046 14.011L25.5407 15.0458L25.0652 14.1123L24.0303 14.2762L24.7711 13.5354L24.2954 12.6018Z" fill="#FFDA44"/>
</g>
<rect x="0.5" y="0.545898" width="29" height="29" rx="14.5" stroke="#D7D7D7"/>
<defs>
<clipPath id="clip0_5568_214066">
<rect y="0.0458984" width="30" height="30" rx="15" fill="white"/>
</clipPath>
</defs>
</svg>
