<svg width="30" height="30" viewBox="0 0 30 30" fill="none" xmlns="http://www.w3.org/2000/svg">
<path d="M18.3332 13.1906V16.8096M18.3332 13.1906C18.3332 12.6572 18.3332 12.3905 18.2294 12.1868C18.1381 12.0076 17.9924 11.8619 17.8132 11.7706C17.6094 11.6668 17.3427 11.6668 16.8094 11.6668H13.1904C12.657 11.6668 12.3903 11.6668 12.1866 11.7706C12.0074 11.8619 11.8617 12.0076 11.7704 12.1868C11.6666 12.3905 11.6666 12.6572 11.6666 13.1906M18.3332 13.1906C18.3332 12.6572 18.3332 12.3904 18.437 12.1867C18.5283 12.0075 18.674 11.8618 18.8532 11.7705C19.0569 11.6667 19.3236 11.6667 19.857 11.6667H23.476C24.0093 11.6667 24.276 11.6667 24.4798 11.7705C24.659 11.8618 24.8046 12.0075 24.896 12.1867C24.9998 12.3904 24.9998 12.6571 24.9998 13.1905V16.8095C24.9998 17.3429 24.9998 17.6096 24.896 17.8133C24.8046 17.9925 24.659 18.1382 24.4798 18.2295C24.276 18.3333 24.0093 18.3333 23.476 18.3333H19.857C19.3236 18.3333 19.0569 18.3333 18.8532 18.2295C18.674 18.1382 18.5283 17.9925 18.437 17.8133C18.3332 17.6096 18.3332 17.343 18.3332 16.8096M18.3332 16.8096C18.3332 17.343 18.3332 17.6097 18.2294 17.8134C18.1381 17.9926 17.9924 18.1383 17.8132 18.2296C17.6094 18.3334 17.3427 18.3334 16.8094 18.3334M16.8094 18.3334H13.1904M16.8094 18.3334C17.3427 18.3334 17.6094 18.3334 17.8132 18.4372C17.9924 18.5285 18.1381 18.6742 18.2294 18.8534C18.3332 19.0571 18.3332 19.3238 18.3332 19.8572V23.4762C18.3332 24.0096 18.3332 24.2763 18.2294 24.48C18.1381 24.6592 17.9924 24.8049 17.8132 24.8962C17.6094 25 17.3427 25 16.8094 25H13.1904C12.657 25 12.3903 25 12.1866 24.8962C12.0074 24.8049 11.8617 24.6592 11.7704 24.48C11.6666 24.2763 11.6666 24.0096 11.6666 23.4762V19.8572C11.6666 19.3238 11.6666 19.0571 11.7704 18.8534C11.8617 18.6742 12.0074 18.5285 12.1866 18.4372C12.3903 18.3334 12.657 18.3334 13.1904 18.3334M13.1904 18.3334C12.657 18.3334 12.3903 18.3334 12.1866 18.2296C12.0074 18.1383 11.8617 17.9926 11.7704 17.8134C11.6666 17.6097 11.6666 17.343 11.6666 16.8096M11.6666 16.8096V13.1906M11.6666 16.8096C11.6666 17.343 11.6666 17.6096 11.5628 17.8133C11.4715 17.9925 11.3258 18.1382 11.1466 18.2295C10.9429 18.3333 10.6762 18.3333 10.1428 18.3333H6.52379C5.99042 18.3333 5.72373 18.3333 5.52 18.2295C5.3408 18.1382 5.19511 17.9925 5.1038 17.8133C5 17.6096 5 17.3429 5 16.8095V13.1905C5 12.6571 5 12.3904 5.1038 12.1867C5.19511 12.0075 5.3408 11.8618 5.52 11.7705C5.72373 11.6667 5.99042 11.6667 6.52379 11.6667H10.1428C10.6762 11.6667 10.9429 11.6667 11.1466 11.7705C11.3258 11.8618 11.4715 12.0075 11.5628 12.1867C11.6666 12.3904 11.6666 12.6572 11.6666 13.1906M16.7056 5H13.0866C12.5532 5 12.2865 5 12.0828 5.1038C11.9036 5.19511 11.7579 5.3408 11.6666 5.52C11.5628 5.72373 11.5628 5.99042 11.5628 6.52379V10.1428C11.5628 10.6762 11.5628 10.9429 11.6666 11.1466C11.7579 11.3258 11.9036 11.4715 12.0828 11.5628C12.2865 11.6666 12.5532 11.6666 13.0866 11.6666H16.7056C17.239 11.6666 17.5057 11.6666 17.7094 11.5628C17.8886 11.4715 18.0343 11.3258 18.1256 11.1466C18.2294 10.9429 18.2294 10.6762 18.2294 10.1428V6.52379C18.2294 5.99042 18.2294 5.72373 18.1256 5.52C18.0343 5.3408 17.8886 5.19511 17.7094 5.1038C17.5057 5 17.239 5 16.7056 5Z" stroke="#5F5C5C" stroke-width="1.5" stroke-linecap="round" stroke-linejoin="round"/>
</svg>
