<svg width="30" height="31" viewBox="0 0 30 31" fill="none" xmlns="http://www.w3.org/2000/svg">
<g clip-path="url(#clip0_5568_214088)">
<path d="M26.1793 25.0351C28.5548 22.3813 30 18.8773 30 15.0352C30 11.1931 28.5548 7.68898 26.1792 5.03516L15 3.94824L3.82078 5.03516C1.44521 7.68898 0 11.1931 0 15.0352C0 18.8773 1.44516 22.3813 3.82072 25.0351L15 26.1221L26.1793 25.0351Z" fill="#FFDA44"/>
<path d="M3.82031 5.03514H26.1788C23.4322 1.96676 19.4417 0.0351562 14.9995 0.0351562C10.5574 0.0351562 6.56684 1.96676 3.82031 5.03514Z" fill="black"/>
<path d="M0 15.0351L15 16.3395L30 15.0351C30 13.2818 29.6982 11.5991 29.1452 10.0351H0.854766C0.301816 11.5991 0 13.2818 0 15.0351H0Z" fill="#D80027"/>
<path d="M0.854766 20.0351H29.1454C29.6982 18.4712 30 16.7885 30 15.0352H0C0 16.7885 0.301816 18.4712 0.854766 20.0351V20.0351Z" fill="black"/>
<path d="M26.1789 25.0351H3.82031C6.56684 28.1035 10.5574 30.0351 14.9996 30.0351C19.4418 30.0351 23.4323 28.1035 26.1789 25.0351Z" fill="#D80027"/>
<path d="M20.005 15.0352C20.005 17.7998 17.7642 20.0406 14.9996 20.0406C12.2349 20.0406 9.99414 17.7998 9.99414 15.0352C9.99414 12.2705 12.2349 10.0297 14.9996 10.0297C17.7642 10.0297 20.005 12.2705 20.005 15.0352Z" fill="#F0F0F0"/>
<path d="M16.8341 15.2904L15.0004 14.4958C15.0004 14.4958 15.4294 13.0718 15.4522 12.9743C15.4689 12.9032 15.4779 12.8289 15.4779 12.7526C15.4779 12.4824 15.3683 12.2379 15.1913 12.0609L15.6524 11.5998C15.3574 11.3048 14.9497 11.1223 14.4995 11.1223C14.0493 11.1223 13.6416 11.3047 13.3466 11.5998L13.8078 12.0609C13.6307 12.2379 13.5212 12.4825 13.5212 12.7526C13.5212 12.8514 13.5362 12.9466 13.5634 13.0366L12.8691 13.7308H14.131C14.131 13.7308 13.6093 14.5144 13.3245 15.158C13.0396 15.8014 13.3284 16.587 13.9866 16.8796L14.3673 17.0488L15.0004 17.6439V18.296L14.3482 18.9482H15.6526V17.6438L16.2477 17.0487H17.4787C17.4846 17.0364 17.4908 17.0245 17.4964 17.0119C17.7888 16.3537 17.4924 15.5829 16.8341 15.2904Z" fill="black"/>
</g>
<rect x="0.5" y="0.535156" width="29" height="29" rx="14.5" stroke="#D7D7D7"/>
<defs>
<clipPath id="clip0_5568_214088">
<rect y="0.0351562" width="30" height="30" rx="15" fill="white"/>
</clipPath>
</defs>
</svg>
