<svg width="30" height="31" viewBox="0 0 30 31" fill="none" xmlns="http://www.w3.org/2000/svg">
<g clip-path="url(#clip0_5568_214099)">
<path d="M15 30.0352C23.2843 30.0352 30 23.3194 30 15.0352C30 6.75088 23.2843 0.0351562 15 0.0351562C6.71573 0.0351562 0 6.75088 0 15.0352C0 23.3194 6.71573 30.0352 15 30.0352Z" fill="#F0F0F0"/>
<path d="M8.47852 20.2525L9.78287 29.1023C11.4078 29.7053 13.1654 30.0351 15.0002 30.0351C21.4496 30.0351 26.9479 25.9645 29.0672 20.2525H8.47852Z" fill="black"/>
<path d="M8.47852 9.81779L9.78287 0.968027C11.4078 0.365039 13.1654 0.0351562 15.0002 0.0351562C21.4496 0.0351562 26.9479 4.10578 29.0672 9.81779H8.47852Z" fill="#6DA544"/>
<path d="M0 15.0352C0 21.4846 4.07068 26.9828 9.78264 29.1022V0.96814C4.07068 3.08753 0 8.58568 0 15.0352Z" fill="#A2001D"/>
</g>
<rect x="0.5" y="0.535156" width="29" height="29" rx="14.5" stroke="#D7D7D7"/>
<defs>
<clipPath id="clip0_5568_214099">
<rect y="0.0351562" width="30" height="30" rx="15" fill="white"/>
</clipPath>
</defs>
</svg>
