<svg width="30" height="31" viewBox="0 0 30 31" fill="none" xmlns="http://www.w3.org/2000/svg">
<g clip-path="url(#clip0_5568_214104)">
<path d="M15 30.0352C23.2843 30.0352 30 23.3194 30 15.0352C30 6.75088 23.2843 0.0351562 15 0.0351562C6.71573 0.0351562 0 6.75088 0 15.0352C0 23.3194 6.71573 30.0352 15 30.0352Z" fill="#F0F0F0"/>
<path d="M3.10064 5.90283C1.92238 7.43582 1.03393 9.20271 0.516602 11.1222H8.32L3.10064 5.90283Z" fill="#0052B4"/>
<path d="M29.483 11.1222C28.9656 9.20278 28.0771 7.43588 26.8989 5.90289L21.6797 11.1222H29.483Z" fill="#0052B4"/>
<path d="M0.516602 18.9482C1.03398 20.8677 1.92244 22.6346 3.10064 24.1675L8.31982 18.9482H0.516602Z" fill="#0052B4"/>
<path d="M24.1324 3.13598C22.5994 1.95772 20.8326 1.06926 18.9131 0.55188V8.35522L24.1324 3.13598Z" fill="#0052B4"/>
<path d="M5.86719 26.9343C7.40018 28.1126 9.16707 29.001 11.0865 29.5184V21.7151L5.86719 26.9343Z" fill="#0052B4"/>
<path d="M11.0864 0.55188C9.16701 1.06926 7.40012 1.95772 5.86719 3.13592L11.0864 8.35516V0.55188Z" fill="#0052B4"/>
<path d="M18.9131 29.5184C20.8325 29.001 22.5994 28.1126 24.1323 26.9344L18.9131 21.7151V29.5184Z" fill="#0052B4"/>
<path d="M21.6797 18.9482L26.8989 24.1675C28.0771 22.6346 28.9656 20.8677 29.483 18.9482H21.6797Z" fill="#0052B4"/>
<path d="M29.873 13.0787H16.9566H16.9566V0.162129C16.3161 0.07875 15.6631 0.0351562 15 0.0351562C14.3368 0.0351562 13.6839 0.07875 13.0435 0.162129V13.0785V13.0786H0.126973C0.0435938 13.7191 0 14.3721 0 15.0352C0 15.6984 0.0435938 16.3512 0.126973 16.9917H13.0434H13.0434V29.9082C13.6839 29.9916 14.3368 30.0352 15 30.0352C15.6631 30.0352 16.3161 29.9916 16.9565 29.9082V16.9918V16.9917H29.873C29.9564 16.3512 30 15.6984 30 15.0352C30 14.3721 29.9564 13.7191 29.873 13.0787V13.0787Z" fill="#D80027"/>
<path d="M18.9131 18.9483L25.6066 25.6418C25.9145 25.3341 26.2081 25.0123 26.4883 24.6788L20.7577 18.9482H18.9131V18.9483Z" fill="#D80027"/>
<path d="M11.0871 18.9483H11.087L4.39355 25.6418C4.70129 25.9496 5.02303 26.2433 5.35654 26.5235L11.0871 20.7928V18.9483Z" fill="#D80027"/>
<path d="M11.087 11.1222V11.1221L4.39344 4.42853C4.08559 4.73626 3.79191 5.058 3.51172 5.39152L9.24236 11.1222H11.087V11.1222Z" fill="#D80027"/>
<path d="M18.9131 11.1222L25.6067 4.4286C25.2989 4.12074 24.9772 3.82707 24.6437 3.54694L18.9131 9.27758V11.1222Z" fill="#D80027"/>
</g>
<rect x="0.5" y="0.535156" width="29" height="29" rx="14.5" stroke="#D7D7D7"/>
<defs>
<clipPath id="clip0_5568_214104">
<rect y="0.0351562" width="30" height="30" rx="15" fill="white"/>
</clipPath>
</defs>
</svg>
