<svg width="30" height="31" viewBox="0 0 30 31" fill="none" xmlns="http://www.w3.org/2000/svg">
<g clip-path="url(#clip0_5568_214121)">
<path d="M15 30.0352C23.2843 30.0352 30 23.3194 30 15.0352C30 6.75088 23.2843 0.0351562 15 0.0351562C6.71573 0.0351562 0 6.75088 0 15.0352C0 23.3194 6.71573 30.0352 15 30.0352Z" fill="#338AF3"/>
<path d="M14.9566 9.81781C12.075 9.81781 9.73926 12.1537 9.73926 15.0352C9.73926 17.9166 12.0751 20.2525 14.9566 20.2525C17.838 20.2525 20.174 17.9166 20.174 15.0352C20.174 12.1537 17.838 9.81781 14.9566 9.81781ZM13.6523 15.0352C13.6523 14.3148 14.2362 13.7308 14.9566 13.7308C15.677 13.7308 16.261 14.3148 16.261 15.0352C16.261 15.7556 15.677 16.3395 14.9566 16.3395C14.2362 16.3395 13.6523 15.7556 13.6523 15.0352V15.0352ZM16.309 12.804C16.1065 12.681 15.8859 12.5855 15.6522 12.521V11.185C16.2405 11.2906 16.783 11.5273 17.2486 11.8644L16.309 12.804ZM14.3479 12.4987C14.1031 12.5572 13.8719 12.6502 13.6595 12.7722L12.7155 11.8283C13.1927 11.4942 13.7475 11.2634 14.3479 11.1695V12.4987ZM13.6594 17.2981C13.8719 17.4201 14.1031 17.5132 14.3478 17.5716V18.9008C13.7474 18.807 13.1927 18.5761 12.7155 18.242L13.6594 17.2981ZM15.6522 17.5494C15.8859 17.4849 16.1066 17.3894 16.309 17.2664L17.2485 18.206C16.7829 18.5431 16.2405 18.7798 15.6522 18.8854V17.5494H15.6522V17.5494ZM17.2195 16.3324C17.3344 16.1325 17.4242 15.9161 17.4831 15.6874H18.8145C18.7165 16.2711 18.4895 16.8107 18.1635 17.2763L17.2195 16.3324ZM17.4831 14.383C17.4242 14.1542 17.3344 13.9381 17.2195 13.738L18.1635 12.7941C18.4895 13.2597 18.7165 13.7993 18.8144 14.383H17.4831V14.383H17.4831ZM11.7858 12.7433L12.7254 13.6828C12.5948 13.8979 12.4944 14.1332 12.4301 14.383H11.0987C11.2002 13.778 11.4404 13.2203 11.7858 12.7433ZM11.0987 15.6873H12.4301C12.4943 15.9372 12.5947 16.1725 12.7254 16.3875L11.7858 17.3271C11.4404 16.8501 11.2002 16.2924 11.0987 15.6873Z" fill="#F0F0F0"/>
<path d="M23.435 15.0352C23.435 12.716 22.5034 10.6148 20.9946 9.08411L19.6112 10.4676C20.766 11.6441 21.4785 13.2564 21.4785 15.0352C21.4785 18.6371 18.5586 21.5569 14.9567 21.5569C11.3548 21.5569 8.43502 18.6371 8.43502 15.0352C8.43502 13.2342 9.16492 11.6038 10.3452 10.4236L8.96172 9.04016C7.42744 10.5744 6.47852 12.694 6.47852 15.0352C6.47852 18.915 9.08459 22.1861 12.6418 23.1935C12.2518 23.9343 12.3112 24.8671 12.8683 25.5623C13.6 24.9759 14.3576 24.3688 15.0002 23.8538C15.6429 24.3688 16.4005 24.9759 17.1321 25.5623C17.6948 24.8602 17.7501 23.9156 17.3472 23.1712C20.8654 22.139 23.435 18.8874 23.435 15.0352V15.0352Z" fill="#F0F0F0"/>
</g>
<rect x="0.5" y="0.535156" width="29" height="29" rx="14.5" stroke="#D7D7D7"/>
<defs>
<clipPath id="clip0_5568_214121">
<rect y="0.0351562" width="30" height="30" rx="15" fill="white"/>
</clipPath>
</defs>
</svg>
