<svg width="30" height="31" viewBox="0 0 30 31" fill="none" xmlns="http://www.w3.org/2000/svg">
<g clip-path="url(#clip0_5568_214126)">
<path d="M15 30.0459C23.2843 30.0459 30 23.3302 30 15.0459C30 6.76163 23.2843 0.0458984 15 0.0458984C6.71573 0.0458984 0 6.76163 0 15.0459C0 23.3302 6.71573 30.0459 15 30.0459Z" fill="#F0F0F0"/>
<path d="M14.3477 15.0459H29.9998C29.9998 13.692 29.8193 12.3804 29.4831 11.1328H14.3477V15.0459Z" fill="#D80027"/>
<path d="M14.3477 7.21983H27.7982C26.88 5.72147 25.7059 4.39708 24.3371 3.30676H14.3477V7.21983Z" fill="#D80027"/>
<path d="M14.9994 30.0459C18.5296 30.0459 21.7743 28.8257 24.3366 26.785H5.66211C8.22441 28.8257 11.4692 30.0459 14.9994 30.0459Z" fill="#D80027"/>
<path d="M2.20146 22.8719H27.7983C28.5354 21.6691 29.1071 20.3542 29.4831 18.9589H0.516602C0.892598 20.3542 1.4643 21.6691 2.20146 22.8719V22.8719Z" fill="#D80027"/>
<path d="M6.94828 2.38836H8.31521L7.04373 3.31209L7.52941 4.80676L6.25799 3.88303L4.98656 4.80676L5.40609 3.51553C4.2866 4.44805 3.30539 5.54059 2.4968 6.75793H2.93479L2.12543 7.34592C1.99934 7.55627 1.8784 7.76996 1.7625 7.98682L2.14898 9.17633L1.42793 8.65244C1.24869 9.03219 1.08475 9.42049 0.937383 9.81687L1.36318 11.1275H2.93479L1.6633 12.0512L2.14898 13.5459L0.877559 12.6222L0.115957 13.1755C0.0397266 13.7883 0 14.4124 0 15.0459H15C15 6.76168 15 5.78504 15 0.0458984C12.0368 0.0458984 9.27451 0.905469 6.94828 2.38836V2.38836ZM7.52941 13.5459L6.25799 12.6222L4.98656 13.5459L5.47225 12.0512L4.20076 11.1275H5.77236L6.25799 9.63283L6.74361 11.1275H8.31521L7.04373 12.0512L7.52941 13.5459ZM7.04373 7.68166L7.52941 9.17633L6.25799 8.2526L4.98656 9.17633L5.47225 7.68166L4.20076 6.75793H5.77236L6.25799 5.26326L6.74361 6.75793H8.31521L7.04373 7.68166ZM12.9098 13.5459L11.6384 12.6222L10.367 13.5459L10.8527 12.0512L9.58119 11.1275H11.1528L11.6384 9.63283L12.124 11.1275H13.6956L12.4242 12.0512L12.9098 13.5459ZM12.4242 7.68166L12.9098 9.17633L11.6384 8.2526L10.367 9.17633L10.8527 7.68166L9.58119 6.75793H11.1528L11.6384 5.26326L12.124 6.75793H13.6956L12.4242 7.68166ZM12.4242 3.31209L12.9098 4.80676L11.6384 3.88303L10.367 4.80676L10.8527 3.31209L9.58119 2.38836H11.1528L11.6384 0.893691L12.124 2.38836H13.6956L12.4242 3.31209Z" fill="#0052B4"/>
</g>
<rect x="0.5" y="0.545898" width="29" height="29" rx="14.5" stroke="#D7D7D7"/>
<defs>
<clipPath id="clip0_5568_214126">
<rect y="0.0458984" width="30" height="30" rx="15" fill="white"/>
</clipPath>
</defs>
</svg>
