<svg width="30" height="30" viewBox="0 0 30 30" fill="none" xmlns="http://www.w3.org/2000/svg">
<rect width="30" height="30" rx="2" fill="white"/>
<path d="M10.8 24H19.2C20.8802 24 21.7202 24 22.362 23.673C22.9265 23.3854 23.3854 22.9265 23.673 22.362C24 21.7202 24 20.8802 24 19.2C24 18.5373 23.4627 18 22.8 18H7.2C6.53726 18 6 18.5373 6 19.2C6 20.8802 6 21.7202 6.32698 22.362C6.6146 22.9265 7.07354 23.3854 7.63803 23.673C8.27976 24 9.11984 24 10.8 24Z" fill="#5F5C5C" stroke="#5F5C5C" stroke-linecap="round" stroke-linejoin="round"/>
<path d="M20 11L15 6M15 6L10 11M15 6V18" stroke="white" stroke-width="4" stroke-linecap="round" stroke-linejoin="round"/>
<path d="M20 11L15 6M15 6L10 11M15 6V18" stroke="#5F5C5C" stroke-width="2" stroke-linecap="round" stroke-linejoin="round"/>
</svg>
