<svg width="30" height="31" viewBox="0 0 30 31" fill="none" xmlns="http://www.w3.org/2000/svg">
<g clip-path="url(#clip0_5568_214134)">
<path d="M15 30.0469C23.2843 30.0469 30 23.3311 30 15.0469C30 6.7626 23.2843 0.046875 15 0.046875C6.71573 0.046875 0 6.7626 0 15.0469C0 23.3311 6.71573 30.0469 15 30.0469Z" fill="#F0F0F0"/>
<path d="M15 11.1338H29.4833C29.1071 9.73842 28.5355 8.42352 27.7984 7.2207H15V11.1338Z" fill="#338AF3"/>
<path d="M5.66225 26.786H24.3368C25.7058 25.6957 26.8797 24.3713 27.7979 22.8729H2.20117C3.11939 24.3713 4.29338 25.6957 5.66225 26.786V26.786Z" fill="#338AF3"/>
<path d="M15 0.046875V3.30773H24.3373C21.775 1.26703 18.5302 0.046875 15 0.046875V0.046875Z" fill="#338AF3"/>
<path d="M15 11.1338H29.4833C29.1071 9.73842 28.5355 8.42352 27.7984 7.2207H15V11.1338Z" fill="#338AF3"/>
<path d="M0 15.0469C0 16.4008 0.180469 17.7122 0.516738 18.9599H29.4833C29.8195 17.7122 30 16.4008 30 15.0469H0Z" fill="#338AF3"/>
<path d="M13.0437 8.82547L11.2118 9.68721L12.1873 11.4614L10.198 11.0809L9.94596 13.0904L8.56045 11.6124L7.17482 13.0904L6.92281 11.0809L4.93355 11.4613L5.90902 9.68715L4.07715 8.82547L5.90908 7.96385L4.93355 6.18963L6.92275 6.57014L7.17488 4.56067L8.56045 6.03864L9.94602 4.56067L10.198 6.57014L12.1873 6.18963L11.2118 7.96391L13.0437 8.82547Z" fill="#FFDA44"/>
</g>
<rect x="0.5" y="0.546875" width="29" height="29" rx="14.5" stroke="#D7D7D7"/>
<defs>
<clipPath id="clip0_5568_214134">
<rect y="0.046875" width="30" height="30" rx="15" fill="white"/>
</clipPath>
</defs>
</svg>
