<svg width="30" height="31" viewBox="0 0 30 31" fill="none" xmlns="http://www.w3.org/2000/svg">
<g clip-path="url(#clip0_5568_214144)">
<path d="M0.708281 10.4807C0.248789 11.9202 -5.85834e-05 13.4538 1.0345e-08 15.0457C-5.85834e-05 16.6377 0.248848 18.1714 0.70834 19.611L15 20.2632L29.2917 19.6111C29.7511 18.1715 30.0001 16.6377 30.0001 15.0459C30 13.4539 29.7512 11.9202 29.2917 10.4806L15 9.82849L0.708281 10.4807Z" fill="#F0F0F0"/>
<path d="M29.2915 10.4808L14.9998 9.82861L0.708125 10.4808C0.571953 10.9076 0.454707 11.3427 0.356445 11.7851H29.643C29.5449 11.3427 29.4277 10.9074 29.2915 10.4808Z" fill="#D80027"/>
<path d="M0.356445 18.3068C0.45459 18.7491 0.571836 19.1843 0.708008 19.6111L0.709414 19.6111L14.9996 20.2633L29.2913 19.6111C29.4274 19.1843 29.5447 18.7491 29.6429 18.3068H0.356445Z" fill="#D80027"/>
<path d="M14.9996 30.0459C21.692 30.0459 27.3597 25.6629 29.2913 19.6111H0.708008C2.63955 25.6628 8.30744 30.0459 14.9996 30.0459V30.0459Z" fill="#6DA544"/>
<path d="M14.9997 0.0458984C8.30744 0.045957 2.63967 4.42895 0.708008 10.4807L29.2913 10.4807C27.3598 4.42889 21.692 0.0458398 14.9997 0.0458984V0.0458984Z" fill="#338AF3"/>
<path d="M6.85445 6.24161C6.85445 4.83671 7.84182 3.66308 9.16035 3.37515C8.95773 3.33085 8.74744 3.30688 8.53146 3.30688C6.91064 3.30688 5.59668 4.62079 5.59668 6.24167C5.59668 7.86255 6.91053 9.17646 8.53146 9.17646C8.74744 9.17646 8.95768 9.15243 9.16035 9.10819C7.84187 8.82015 6.85445 7.64651 6.85445 6.24161V6.24161Z" fill="#F0F0F0"/>
<path d="M10.8954 7.57568L11.094 8.18711H11.7369L11.2168 8.56504L11.4154 9.17646L10.8954 8.79859L10.3752 9.17646L10.5738 8.56504L10.0537 8.18711H10.6966L10.8954 7.57568Z" fill="#F0F0F0"/>
<path d="M12.947 7.57556L13.1457 8.18699H13.7886L13.2684 8.56492L13.4671 9.17634L12.947 8.79847L12.4269 9.17634L12.6255 8.56492L12.1055 8.18699H12.7483L12.947 7.57556Z" fill="#F0F0F0"/>
<path d="M14.9989 7.57556L15.1975 8.18699H15.8404L15.3203 8.56492L15.5189 9.17634L14.9989 8.79847L14.4787 9.17634L14.6774 8.56492L14.1572 8.18699H14.8002L14.9989 7.57556Z" fill="#F0F0F0"/>
<path d="M17.0506 7.57568L17.2493 8.18711H17.8921L17.3721 8.56504L17.5708 9.17646L17.0506 8.79859L16.5304 9.17646L16.7292 8.56504L16.209 8.18711H16.8519L17.0506 7.57568Z" fill="#F0F0F0"/>
<path d="M19.1032 7.57568L19.3019 8.18711H19.9448L19.4247 8.56504L19.6234 9.17646L19.1032 8.79859L18.5831 9.17646L18.7818 8.56504L18.2617 8.18711H18.9046L19.1032 7.57568Z" fill="#F0F0F0"/>
<path d="M12.947 5.44116L13.1457 6.05253H13.7886L13.2684 6.43052L13.4671 7.04188L12.947 6.66401L12.4269 7.04188L12.6255 6.43052L12.1055 6.05253H12.7483L12.947 5.44116Z" fill="#F0F0F0"/>
<path d="M14.9989 5.44116L15.1975 6.05253H15.8404L15.3203 6.43052L15.5189 7.04188L14.9989 6.66401L14.4787 7.04188L14.6774 6.43052L14.1572 6.05253H14.8002L14.9989 5.44116Z" fill="#F0F0F0"/>
<path d="M17.0506 5.44116L17.2493 6.05253H17.8921L17.3721 6.43052L17.5708 7.04188L17.0506 6.66401L16.5304 7.04188L16.7292 6.43052L16.209 6.05253H16.8519L17.0506 5.44116Z" fill="#F0F0F0"/>
<path d="M19.1032 5.44116L19.3019 6.05253H19.9448L19.4247 6.43052L19.6234 7.04188L19.1032 6.66401L18.5831 7.04188L18.7818 6.43052L18.2617 6.05253H18.9046L19.1032 5.44116Z" fill="#F0F0F0"/>
<path d="M14.9989 3.30676L15.1975 3.91825H15.8404L15.3203 4.29612L15.5189 4.9076L14.9989 4.52973L14.4787 4.9076L14.6774 4.29612L14.1572 3.91825H14.8002L14.9989 3.30676Z" fill="#F0F0F0"/>
<path d="M17.0506 3.30676L17.2493 3.91825H17.8921L17.3721 4.29612L17.5708 4.9076L17.0506 4.52973L16.5304 4.9076L16.7292 4.29612L16.209 3.91825H16.8519L17.0506 3.30676Z" fill="#F0F0F0"/>
<path d="M19.1032 3.30676L19.3019 3.91825H19.9448L19.4247 4.29612L19.6234 4.9076L19.1032 4.52973L18.5831 4.9076L18.7818 4.29612L18.2617 3.91825H18.9046L19.1032 3.30676Z" fill="#F0F0F0"/>
</g>
<rect x="0.5" y="0.545898" width="29" height="29" rx="14.5" stroke="#D7D7D7"/>
<defs>
<clipPath id="clip0_5568_214144">
<rect y="0.0458984" width="30" height="30" rx="15" fill="white"/>
</clipPath>
</defs>
</svg>
