<svg width="30" height="31" viewBox="0 0 30 31" fill="none" xmlns="http://www.w3.org/2000/svg">
<g clip-path="url(#clip0_5568_214165)">
<path d="M30 15.046C30 14.3828 29.9564 13.7299 29.873 13.0895H13.0433C9.97882 10.0251 4.39315 4.4398 4.39338 4.43933C-1.46446 10.2972 -1.46446 19.7946 4.39338 25.6526L13.0435 17.0025H29.873C29.9564 16.362 30 15.7091 30 15.046V15.046Z" fill="black"/>
<path d="M29.9963 15.387C29.9956 15.4159 29.995 15.445 29.9941 15.4739C29.9948 15.4449 29.9955 15.4159 29.9963 15.387Z" fill="#F0F0F0"/>
<path d="M29.9814 15.797C29.9801 15.8256 29.9781 15.8542 29.9766 15.8828C29.9781 15.8542 29.98 15.8256 29.9814 15.797Z" fill="#F0F0F0"/>
<path d="M29.9615 16.1239C29.9585 16.166 29.9555 16.2082 29.9521 16.2502C29.9555 16.2082 29.9584 16.166 29.9615 16.1239Z" fill="#F0F0F0"/>
<path d="M29.9111 13.411C29.9166 13.4612 29.9221 13.5113 29.9271 13.5615C29.9221 13.5112 29.9166 13.4612 29.9111 13.411Z" fill="#F0F0F0"/>
<path d="M29.9766 14.209C29.9781 14.2376 29.9801 14.2661 29.9814 14.2948C29.98 14.2661 29.9781 14.2375 29.9766 14.209Z" fill="#F0F0F0"/>
<path d="M29.9941 14.6179C29.995 14.6469 29.9955 14.6759 29.9962 14.7049C29.9956 14.6758 29.9949 14.6469 29.9941 14.6179Z" fill="#F0F0F0"/>
<path d="M29.9521 13.8416C29.9555 13.8836 29.9585 13.9257 29.9615 13.9678C29.9584 13.9257 29.9555 13.8836 29.9521 13.8416Z" fill="#F0F0F0"/>
<path d="M29.8733 13.0893C29.88 13.1407 29.886 13.1924 29.8922 13.2439C29.0019 5.8094 22.6746 0.0458984 15.0003 0.0458984C10.8581 0.0458984 7.10802 1.7249 4.39355 4.43948L13.0434 13.0894H29.8733V13.0893Z" fill="#D80027"/>
<path d="M29.8733 17.0025H13.0434L4.39355 25.6524C7.10802 28.3669 10.8581 30.0459 15.0003 30.0459C22.6746 30.0459 29.0019 24.2824 29.8922 16.8479C29.886 16.8994 29.8799 16.9511 29.8733 17.0025V17.0025Z" fill="#6DA544"/>
<path d="M29.9271 16.5303C29.9221 16.5805 29.9166 16.6306 29.9111 16.6808C29.9166 16.6306 29.9222 16.5806 29.9271 16.5303Z" fill="#F0F0F0"/>
<path d="M29.9609 13.9679C29.9666 14.0481 29.9718 14.1285 29.9762 14.2091C29.9717 14.1285 29.9666 14.0481 29.9609 13.9679V13.9679Z" fill="black"/>
<path d="M29.8916 13.2439C29.8983 13.2995 29.9047 13.3552 29.9107 13.411C29.9046 13.3552 29.8982 13.2996 29.8916 13.2439Z" fill="black"/>
<path d="M29.9268 13.5615C29.9359 13.6546 29.9442 13.748 29.9516 13.8417C29.9442 13.748 29.936 13.6546 29.9268 13.5615Z" fill="black"/>
<path d="M30.0004 15.0459C30.0004 15.16 29.9986 15.2736 29.9961 15.387C29.9986 15.2735 30.0004 15.1599 30.0004 15.0459Z" fill="black"/>
<path d="M29.9762 15.8828C29.9717 15.9634 29.9666 16.0438 29.9609 16.124C29.9666 16.0438 29.9717 15.9634 29.9762 15.8828Z" fill="black"/>
<path d="M29.9516 16.2502C29.9442 16.3438 29.9359 16.4372 29.9268 16.5303C29.936 16.4372 29.9442 16.3438 29.9516 16.2502Z" fill="black"/>
<path d="M29.9107 16.6808C29.9047 16.7366 29.8983 16.7922 29.8916 16.8479C29.8982 16.7923 29.9046 16.7366 29.9107 16.6808Z" fill="black"/>
<path d="M29.9961 14.7048C29.9986 14.8183 30.0004 14.9319 30.0004 15.0459C30.0004 14.9319 29.9986 14.8183 29.9961 14.7048Z" fill="black"/>
<path d="M29.9814 14.2948C29.9867 14.4021 29.9907 14.5099 29.9937 14.6178C29.9907 14.5098 29.9868 14.4021 29.9814 14.2948Z" fill="black"/>
<path d="M29.9938 15.474C29.9907 15.5819 29.9867 15.6897 29.9814 15.797C29.9868 15.6896 29.9908 15.5819 29.9938 15.474Z" fill="black"/>
<path d="M29.9856 14.3883H12.4921L3.5064 5.40393C3.21596 5.71026 2.90113 6.13799 2.70643 6.44262L11.2997 15.0404L2.69922 23.6411C2.86949 23.944 3.24045 24.3924 3.5009 24.6841L12.4923 15.6927H29.9877C29.997 15.4764 29.9999 15.2591 29.9999 15.0405C29.9999 14.7477 29.9918 14.5318 29.9856 14.3883Z" fill="#FFDA44"/>
<path d="M3.64418 18.2435V16.9871C4.89796 16.9871 5.9179 15.9671 5.9179 14.7134C5.9179 13.8263 5.1962 13.1047 4.30921 13.1047C3.70494 13.1047 3.21328 13.5963 3.21328 14.2007C3.21328 14.5871 3.52763 14.9015 3.91412 14.9015C4.13255 14.9015 4.31027 14.7237 4.31027 14.5053H5.56663C5.56663 15.4166 4.82531 16.1579 3.91418 16.1579C2.83494 16.158 1.95703 15.2799 1.95703 14.2008C1.95703 12.9037 3.0123 11.8485 4.30927 11.8485C5.88907 11.8485 7.17438 13.1338 7.17438 14.7136C7.17433 16.6599 5.59072 18.2435 3.64418 18.2435V18.2435Z" fill="#FFDA44"/>
</g>
<rect x="0.5" y="0.545898" width="29" height="29" rx="14.5" stroke="#D7D7D7"/>
<defs>
<clipPath id="clip0_5568_214165">
<rect y="0.0458984" width="30" height="30" rx="15" fill="white"/>
</clipPath>
</defs>
</svg>
