<svg width="30" height="31" viewBox="0 0 30 31" fill="none" xmlns="http://www.w3.org/2000/svg">
<g clip-path="url(#clip0_5568_214191)">
<path d="M15.0004 0.0458984C23.2847 0.0458984 30.0004 6.76168 30.0004 15.0459C30.0004 23.3301 23.2847 30.0459 15.0004 30.0459C15.0004 29.3937 13.0439 15.0459 13.0439 15.0459L15.0004 0.0458984Z" fill="#F0F0F0"/>
<path d="M15 30.0459C6.71578 30.0459 0 23.3301 0 15.0459C0 6.76168 6.71578 0.0458984 15 0.0458984" fill="#FFDA44"/>
<path d="M20.7438 13.0985L23.5628 16.8278C23.1186 17.5003 23.121 18.4064 23.6347 19.0859C24.2862 19.9479 25.5132 20.1185 26.3753 19.4669C27.2372 18.8153 27.4079 17.5883 26.7562 16.7264C26.2426 16.0468 25.3714 15.7975 24.6033 16.0413L20.2098 10.2292L19.1693 11.0158L17.6084 12.1955L19.1815 14.2765L20.7438 13.0985ZM24.8021 17.3858C25.0895 17.1686 25.4985 17.2255 25.7157 17.5127C25.9329 17.8001 25.8761 18.2091 25.5888 18.4264C25.3015 18.6435 24.8924 18.5868 24.6753 18.2994C24.4579 18.012 24.5148 17.603 24.8021 17.3858V17.3858Z" fill="#ACABB1"/>
<path d="M25.5788 14.2764L27.152 12.1954L25.5911 11.0156L24.5506 10.229L20.1572 16.0411C19.3892 15.7972 18.5179 16.0467 18.0043 16.7261C17.3526 17.5881 17.5232 18.8151 18.3852 19.4667C19.2473 20.1182 20.4742 19.9477 21.1258 19.0857C21.6394 18.4062 21.6417 17.5001 21.1977 16.8275L24.0167 13.0983L25.5788 14.2764ZM20.0853 18.2992C19.8681 18.5866 19.4591 18.6434 19.1718 18.4263C18.8844 18.209 18.8276 17.8 19.0448 17.5126C19.262 17.2254 19.671 17.1684 19.9584 17.3857C20.2457 17.6029 20.3025 18.012 20.0853 18.2992V18.2992Z" fill="#FFDA44"/>
</g>
<rect x="0.5" y="0.545898" width="29" height="29" rx="14.5" stroke="#D7D7D7"/>
<defs>
<clipPath id="clip0_5568_214191">
<rect y="0.0458984" width="30" height="30" rx="15" fill="white"/>
</clipPath>
</defs>
</svg>
