<svg width="30" height="31" viewBox="0 0 30 31" fill="none" xmlns="http://www.w3.org/2000/svg">
<g clip-path="url(#clip0_5568_214196)">
<path d="M28.5116 21.5569C29.4652 19.5849 30 17.3725 30 15.0352C30 12.6978 29.4652 10.4855 28.5116 8.51346L15 7.20911L1.4884 8.51346C0.534785 10.4855 0 12.6978 0 15.0352C0 17.3725 0.534785 19.5849 1.4884 21.5569L15 22.8613L28.5116 21.5569Z" fill="#0052B4"/>
<path d="M14.9999 30.0352C20.9467 30.0352 26.0852 26.5743 28.5115 21.5569H1.48828C3.91453 26.5743 9.05297 30.0352 14.9999 30.0352Z" fill="#D80027"/>
<path d="M25.9785 17.9796L25.1862 18.5987L25.53 19.5433L24.6964 18.9812L23.9041 19.6002L24.1812 18.6337L23.3477 18.0714L24.3525 18.0364L24.6297 17.0699L24.9737 18.0147L25.9785 17.9796Z" fill="#F0F0F0"/>
<path d="M23.9494 14.4658L23.4167 15.3185L24.0631 16.0885L23.0874 15.8456L22.5546 16.6981L22.4843 15.6951L21.5088 15.4518L22.4411 15.0751L22.3711 14.0721L23.0173 14.8424L23.9494 14.4658Z" fill="#F0F0F0"/>
<path d="M20.841 11.8576L20.632 12.8411L21.5027 13.3438L20.5028 13.4492L20.2938 14.4324L19.8848 13.5141L18.8848 13.619L19.6321 12.9462L19.2231 12.0278L20.0938 12.5304L20.841 11.8576Z" fill="#F0F0F0"/>
<path d="M17.0286 10.47L17.1687 11.4657L18.1587 11.6401L17.2551 12.0811L17.3951 13.0767L16.6966 12.3535L15.7928 12.7942L16.2649 11.9063L15.5664 11.1832L16.5566 11.3577L17.0286 10.47Z" fill="#F0F0F0"/>
<path d="M12.9709 10.47L13.443 11.3577L14.433 11.1831L13.7347 11.9065L14.2066 12.7943L13.303 12.3535L12.6044 13.0766L12.7445 12.0811L11.8408 11.6404L12.831 11.4657L12.9709 10.47Z" fill="#F0F0F0"/>
<path d="M9.15865 11.8576L9.90596 12.5304L10.7765 12.0278L10.3677 12.9466L11.1148 13.6192L10.1149 13.5141L9.7058 14.4324L9.49703 13.4491L8.49707 13.3441L9.36777 12.8412L9.15865 11.8576Z" fill="#F0F0F0"/>
<path d="M6.0499 14.4658L6.9823 14.8424L7.62836 14.0723L7.55846 15.0755L8.49057 15.4521L7.51504 15.6953L7.44479 16.6981L6.91217 15.8456L5.93652 16.0887L6.58281 15.3185L6.0499 14.4658Z" fill="#F0F0F0"/>
<path d="M4.02148 17.9796L5.02648 18.0147L5.3702 17.07L5.64764 18.0366L6.65234 18.0717L5.81879 18.6339L6.09582 19.6004L5.30363 18.9814L4.47002 19.5435L4.81391 18.5987L4.02148 17.9796Z" fill="#F0F0F0"/>
<path d="M28.5115 8.51344C26.0852 3.496 20.9467 0.0351562 14.9999 0.0351562C9.05297 0.0351562 3.91453 3.496 1.48828 8.51344H28.5115Z" fill="#FFDA44"/>
</g>
<rect x="0.5" y="0.535156" width="29" height="29" rx="14.5" stroke="#D7D7D7"/>
<defs>
<clipPath id="clip0_5568_214196">
<rect y="0.0351562" width="30" height="30" rx="15" fill="white"/>
</clipPath>
</defs>
</svg>
