<svg width="30" height="31" viewBox="0 0 30 31" fill="none" xmlns="http://www.w3.org/2000/svg">
<g clip-path="url(#clip0_5568_214212)">
<path d="M15 30.0352C23.2843 30.0352 30 23.3194 30 15.0352C30 6.75088 23.2843 0.0351562 15 0.0351562C6.71573 0.0351562 0 6.75088 0 15.0352C0 23.3194 6.71573 30.0352 15 30.0352Z" fill="#FCFCFC"/>
<path d="M17.5474 10.5144C17.5474 9.10744 16.4068 7.96686 14.9998 7.96686C13.5928 7.96686 12.4522 9.10744 12.4522 10.5144H6.84766C6.84766 11.8996 8.05434 13.0227 9.43955 13.0227H9.35611C9.35611 14.408 10.479 15.5311 11.8645 15.5311C11.8645 16.7577 12.7454 17.7769 13.9087 17.9947L13.9022 18.0094H16.0974L16.0909 17.9947C17.2544 17.7767 18.1352 16.7576 18.1352 15.5311C19.5206 15.5311 20.6436 14.408 20.6436 13.0227H20.56C21.9452 13.0227 23.152 11.8996 23.152 10.5144H17.5474Z" fill="#FFDA44"/>
<path d="M13.8804 17.7495L12.3008 21.3156C13.1342 21.6544 14.0452 21.8428 15.0003 21.8428C15.9554 21.8428 16.8664 21.6545 17.6998 21.3156L16.1203 17.7495H13.8804Z" fill="#FFDA44"/>
<path d="M11.7393 11.7672V16.1554C11.7393 18.6513 15.0001 19.4162 15.0001 19.4162C15.0001 19.4162 18.261 18.6513 18.261 16.1554V11.7672H11.7393Z" fill="#F0F0F0"/>
<path d="M3.63756 15.1407L5.40117 20.0734L7.14645 15.1407H8.4784L5.93391 21.6625H4.86838L2.30566 15.1407H3.63756Z" fill="#338AF3"/>
<path d="M24.1309 21.6625V15.1407H25.3984V21.6625H24.1309Z" fill="#338AF3"/>
<path d="M13.0439 13.1843V18.5019C13.4922 18.8318 13.9746 19.0588 14.3483 19.2041V13.1843H13.0439Z" fill="#D80027"/>
<path d="M16.9567 13.1843V18.5019C16.5084 18.8318 16.0261 19.0588 15.6523 19.2041V13.1843H16.9567Z" fill="#D80027"/>
<path d="M11.7393 11.7671H18.261V13.8364H11.7393V11.7671Z" fill="#0052B4"/>
</g>
<rect x="0.5" y="0.535156" width="29" height="29" rx="14.5" stroke="#D7D7D7"/>
<defs>
<clipPath id="clip0_5568_214212">
<rect y="0.0351562" width="30" height="30" rx="15" fill="white"/>
</clipPath>
</defs>
</svg>
