<svg width="30" height="30" viewBox="0 0 30 30" fill="none" xmlns="http://www.w3.org/2000/svg">
<rect width="30" height="30" rx="2" fill="white"/>
<path d="M15 5V10M15 5C14.2867 5 13.5909 5.07467 12.9199 5.21663M15 5C15.7132 5 16.4091 5.07467 17.08 5.21663M15 10C12.2386 10 10 12.2386 10 15M15 10C17.7614 10 20 12.2386 20 15M15 20V25M15 20C17.7614 20 20 17.7614 20 15M15 20C12.2386 20 10 17.7614 10 15M15 25C15.7122 25 16.407 24.9255 17.077 24.784M15 25C14.2851 25 13.5878 24.925 12.9154 24.7824M7.92891 7.92893L11.4644 11.4645M18.5355 18.5355L22.071 22.0711M5 15H10M5 15C5 15.7133 5.07466 16.4092 5.21664 17.0802M5 15C5 14.2857 5.07488 13.5888 5.21727 12.9168M20 15H25M25 15C25 14.2867 24.9253 13.5908 24.7833 12.9198M25 15C25 15.7131 24.9254 16.4086 24.7835 17.0794M7.92891 22.0711L11.4644 18.5355M18.5355 11.4645L22.071 7.92893M20.4466 6.61208C21.621 7.37619 22.6249 8.38023 23.3888 9.55469M23.386 20.4496C22.622 21.6229 21.6183 22.626 20.4445 23.3893M9.55371 23.3882C8.38104 22.6252 7.37831 21.623 6.61474 20.4508M6.61171 9.55387C7.37545 8.37994 8.37894 7.37633 9.55275 6.61244" stroke="#5F5C5C" stroke-width="1.5" stroke-linecap="round" stroke-linejoin="round"/>
</svg>
