<svg width="30" height="31" viewBox="0 0 30 31" fill="none" xmlns="http://www.w3.org/2000/svg">
<g clip-path="url(#clip0_5568_214225)">
<path d="M15 30.0352C23.2843 30.0352 30 23.3194 30 15.0352C30 6.75088 23.2843 0.0351562 15 0.0351562C6.71573 0.0351562 0 6.75088 0 15.0352C0 23.3194 6.71573 30.0352 15 30.0352Z" fill="#F0F0F0"/>
<path d="M30 15.0352C30 23.3194 23.2842 30.0352 15 30.0352C6.71578 30.0352 0 23.3194 0 15.0352" fill="#496E2D"/>
<path d="M25.9583 10.4732C25.4218 8.95193 23.9724 7.86127 22.2676 7.86127H18.9135C16.7524 7.86127 15.0004 9.61322 15.0004 11.7743C15.0004 12.4804 15.1884 13.159 15.5155 13.7308C14.27 13.7206 13.1173 13.7395 12.3917 13.7308C12.3917 12.2217 12.3917 10.2992 12.3917 9.89699L12.5458 9.74289C13.2376 9.05113 13.0069 7.89824 13.0069 7.89824C13.0069 7.89824 11.8541 7.66767 11.1623 8.35943L10.3562 9.16562H9.45691C7.47586 9.16562 5.86998 10.7716 5.86998 12.7526H8.47869V15.6873C8.47869 16.1166 8.56523 16.5255 8.72162 16.8979L7.82648 17.6438H6.52213V16.3395H5.21777V18.9482H11.0873V21.5569H9.78299V22.8613H12.3917V20.2526L13.5873 18.8178H16.4135L17.6091 20.2526V21.5569H16.3047V22.8613H21.5221V15.6873C21.5221 14.6068 22.398 13.7308 23.4786 13.7308C23.5063 13.7308 23.5339 13.7318 23.5614 13.7329C23.5074 13.5238 23.4786 13.3046 23.4786 13.0786C23.4787 11.6812 24.5775 10.5405 25.9583 10.4732V10.4732ZM18.9135 21.5569V18.8177H19.0222L20.2178 20.2525V21.5569H18.9135Z" fill="#D80027"/>
</g>
<rect x="0.5" y="0.535156" width="29" height="29" rx="14.5" stroke="#D7D7D7"/>
<defs>
<clipPath id="clip0_5568_214225">
<rect y="0.0351562" width="30" height="30" rx="15" fill="white"/>
</clipPath>
</defs>
</svg>
