<svg width="30" height="30" viewBox="0 0 30 30" fill="none" xmlns="http://www.w3.org/2000/svg">
<path d="M22.0001 13L8.00009 13M22.0001 13L23.8642 16.1069C24.282 16.8032 24.4909 17.1514 24.5994 17.5262C24.6955 17.8582 24.7335 18.2045 24.7117 18.5495C24.6871 18.9389 24.5587 19.324 24.302 20.0944L24.0941 20.7179C23.7007 21.8981 23.504 22.4882 23.1392 22.9245C22.817 23.3098 22.4032 23.608 21.9358 23.7918C21.4066 24 20.7845 24 19.5404 24L10.4597 24C9.21566 24 8.59362 24 8.06435 23.7918C7.59696 23.608 7.18321 23.3098 6.86102 22.9245C6.49617 22.4882 6.29946 21.8981 5.90605 20.7179L5.69822 20.0944C5.44144 19.324 5.31304 18.9389 5.28844 18.5495C5.26664 18.2044 5.30464 17.8582 5.40078 17.5261C5.50926 17.1514 5.71815 16.8032 6.13593 16.1069L8.00009 13M22.0001 13L22.4174 11.5396C22.6152 10.8472 22.7141 10.501 22.6364 10.2271C22.5683 9.98715 22.4131 9.78132 22.2011 9.64996C21.9591 9.5 21.599 9.5 20.8789 9.5L9.12126 9.5C8.40116 9.5 8.04112 9.5 7.79911 9.64996C7.58711 9.78132 7.43185 9.98715 7.36378 10.2271C7.28608 10.501 7.38499 10.8472 7.58282 11.5396L8.00009 13M15.0001 9.5H11.4644C10.9434 9.5 10.4438 9.28929 10.0754 8.91421C9.70704 8.53914 9.50009 8.03043 9.50009 7.5C9.50009 6.96957 9.70704 6.46086 10.0754 6.08579C10.4438 5.71071 10.9434 5.5 11.4644 5.5C14.2144 5.5 15.0001 9.5 15.0001 9.5ZM15.0001 9.5H18.5358C19.0568 9.5 19.5564 9.28929 19.9248 8.91421C20.2931 8.53914 20.5001 8.03043 20.5001 7.5C20.5001 6.96957 20.2931 6.46086 19.9248 6.08579C19.5564 5.71071 19.0568 5.5 18.5358 5.5C15.7858 5.5 15.0001 9.5 15.0001 9.5Z" stroke="#5F5C5C" stroke-width="1.5" stroke-linecap="round" stroke-linejoin="round"/>
</svg>
