<svg width="30" height="30" viewBox="0 0 30 30" fill="none" xmlns="http://www.w3.org/2000/svg">
<path d="M19 11V7.5006C19 6.66887 19 6.253 18.8248 5.99742C18.6717 5.77413 18.4346 5.62245 18.1678 5.57703C17.8623 5.52505 17.4847 5.69932 16.7295 6.04787L7.85901 10.1419C7.18551 10.4528 6.84875 10.6082 6.60211 10.8493C6.38406 11.0624 6.21762 11.3225 6.1155 11.6098C6 11.9347 6 12.3056 6 13.0474V17.9999M19.5 17.4999H19.51M6 14.2L6 20.7999C6 21.9201 6 22.4801 6.21799 22.9079C6.40973 23.2843 6.71569 23.5902 7.09202 23.782C7.51984 23.9999 8.07989 23.9999 9.2 23.9999H20.8C21.9201 23.9999 22.4802 24 22.908 23.782C23.2843 23.5902 23.5903 23.2843 23.782 22.9079C24 22.4801 24 21.9201 24 20.7999V14.2C24 13.0798 24 12.5198 23.782 12.092C23.5903 11.7156 23.2843 11.4097 22.908 11.2179C22.4802 11 21.9201 11 20.8 11L9.2 10.9999C8.0799 10.9999 7.51984 11 7.09202 11.2179C6.7157 11.4097 6.40973 11.7156 6.21799 12.092C6 12.5198 6 13.0798 6 14.2ZM20 17.4999C20 17.7761 19.7761 17.9999 19.5 17.9999C19.2239 17.9999 19 17.7761 19 17.4999C19 17.2238 19.2239 16.9999 19.5 16.9999C19.7761 16.9999 20 17.2238 20 17.4999Z" stroke="#5F5C5C" stroke-width="1.5" stroke-linecap="round" stroke-linejoin="round"/>
</svg>
