<svg width="30" height="30" viewBox="0 0 30 30" fill="none" xmlns="http://www.w3.org/2000/svg">
<path d="M19.5 17H19.51M6 8V22C6 23.1046 6.89543 24 8 24H22C23.1046 24 24 23.1046 24 22V12C24 10.8954 23.1046 10 22 10L8 10C6.89543 10 6 9.10457 6 8ZM6 8C6 6.89543 6.89543 6 8 6H20M20 17C20 17.2761 19.7761 17.5 19.5 17.5C19.2239 17.5 19 17.2761 19 17C19 16.7239 19.2239 16.5 19.5 16.5C19.7761 16.5 20 16.7239 20 17Z" stroke="#5F5C5C" stroke-width="1.5" stroke-linecap="round" stroke-linejoin="round"/>
</svg>
