<svg width="30" height="30" viewBox="0 0 30 30" fill="none" xmlns="http://www.w3.org/2000/svg">
<path d="M25 11.5H5M5 15.5H8.54668C9.08687 15.5 9.35696 15.5 9.61813 15.5466C9.84995 15.5879 10.0761 15.6563 10.2919 15.7506C10.535 15.8567 10.7598 16.0065 11.2092 16.3062L11.7908 16.6938C12.2402 16.9935 12.465 17.1433 12.7081 17.2494C12.9239 17.3437 13.15 17.4121 13.3819 17.4534C13.643 17.5 13.9131 17.5 14.4533 17.5H15.5467C16.0869 17.5 16.357 17.5 16.6181 17.4534C16.85 17.4121 17.0761 17.3437 17.2919 17.2494C17.535 17.1433 17.7598 16.9935 18.2092 16.6938L18.7908 16.3062C19.2402 16.0065 19.465 15.8567 19.7081 15.7506C19.9239 15.6563 20.15 15.5879 20.3819 15.5466C20.643 15.5 20.9131 15.5 21.4533 15.5H25M5 10.2L5 19.8C5 20.9201 5 21.4802 5.21799 21.908C5.40973 22.2843 5.71569 22.5903 6.09202 22.782C6.51984 23 7.07989 23 8.2 23L21.8 23C22.9201 23 23.4802 23 23.908 22.782C24.2843 22.5903 24.5903 22.2843 24.782 21.908C25 21.4802 25 20.9201 25 19.8V10.2C25 9.0799 25 8.51984 24.782 8.09202C24.5903 7.7157 24.2843 7.40974 23.908 7.21799C23.4802 7 22.9201 7 21.8 7L8.2 7C7.0799 7 6.51984 7 6.09202 7.21799C5.7157 7.40973 5.40973 7.71569 5.21799 8.09202C5 8.51984 5 9.07989 5 10.2Z" stroke="#5F5C5C" stroke-width="1.5" stroke-linecap="round" stroke-linejoin="round"/>
</svg>
