<svg width="30" height="30" viewBox="0 0 30 30" fill="none" xmlns="http://www.w3.org/2000/svg">
<path d="M23 12.5V10.2C23 9.0799 23 8.51984 22.782 8.09202C22.5903 7.7157 22.2843 7.40974 21.908 7.21799C21.4802 7 20.9201 7 19.8 7H8.2C7.0799 7 6.51984 7 6.09202 7.21799C5.7157 7.40973 5.40973 7.71569 5.21799 8.09202C5 8.51984 5 9.0799 5 10.2V19.8C5 20.9201 5 21.4802 5.21799 21.908C5.40973 22.2843 5.71569 22.5903 6.09202 22.782C6.51984 23 7.07989 23 8.2 23L19.8 23C20.9201 23 21.4802 23 21.908 22.782C22.2843 22.5903 22.5903 22.2843 22.782 21.908C23 21.4802 23 20.9201 23 19.8V17.5M18 15C18 14.5353 18 14.303 18.0384 14.1098C18.1962 13.3164 18.8164 12.6962 19.6098 12.5384C19.803 12.5 20.0353 12.5 20.5 12.5H22.5C22.9647 12.5 23.197 12.5 23.3902 12.5384C24.1836 12.6962 24.8038 13.3164 24.9616 14.1098C25 14.303 25 14.5353 25 15C25 15.4647 25 15.697 24.9616 15.8902C24.8038 16.6836 24.1836 17.3038 23.3902 17.4616C23.197 17.5 22.9647 17.5 22.5 17.5H20.5C20.0353 17.5 19.803 17.5 19.6098 17.4616C18.8164 17.3038 18.1962 16.6836 18.0384 15.8902C18 15.697 18 15.4647 18 15Z" stroke="#5F5C5C" stroke-width="1.5" stroke-linecap="round" stroke-linejoin="round"/>
</svg>
