<svg width="30" height="30" viewBox="0 0 30 30" fill="none" xmlns="http://www.w3.org/2000/svg">
<rect width="30" height="30" rx="2" fill="white"/>
<path d="M14.223 5.43164C14.5066 5.27409 14.6484 5.19531 14.7985 5.16442C14.9315 5.13709 15.0685 5.13709 15.2015 5.16442C15.3516 5.19531 15.4934 5.27409 15.777 5.43164L23.177 9.54276C23.4766 9.70916 23.6263 9.79236 23.7354 9.9107C23.8318 10.0154 23.9049 10.1395 23.9495 10.2746C24 10.4274 24 10.5988 24 10.9414V19.0585C24 19.4012 24 19.5725 23.9495 19.7253C23.9049 19.8605 23.8318 19.9845 23.7354 20.0892C23.6263 20.2076 23.4766 20.2908 23.177 20.4572L15.777 24.5683C15.4934 24.7258 15.3516 24.8046 15.2015 24.8355C15.0685 24.8628 14.9315 24.8628 14.7985 24.8355C14.6484 24.8046 14.5066 24.7258 14.223 24.5683L6.82297 20.4572C6.52345 20.2908 6.37369 20.2076 6.26463 20.0892C6.16816 19.9845 6.09515 19.8605 6.05048 19.7253C6 19.5725 6 19.4012 6 19.0585V10.9414C6 10.5988 6 10.4274 6.05048 10.2746C6.09515 10.1395 6.16816 10.0154 6.26463 9.9107C6.37369 9.79236 6.52345 9.70916 6.82297 9.54276L14.223 5.43164Z" fill="#5F5C5C"/>
<path d="M15 19V15M15 11H15.01M6 10.9414V19.0585C6 19.4012 6 19.5725 6.05048 19.7253C6.09515 19.8605 6.16816 19.9845 6.26463 20.0892C6.37369 20.2076 6.52345 20.2908 6.82297 20.4572L14.223 24.5683C14.5066 24.7258 14.6484 24.8046 14.7985 24.8355C14.9315 24.8628 15.0685 24.8628 15.2015 24.8355C15.3516 24.8046 15.4934 24.7258 15.777 24.5683L23.177 20.4572C23.4766 20.2908 23.6263 20.2076 23.7354 20.0892C23.8318 19.9845 23.9049 19.8605 23.9495 19.7253C24 19.5725 24 19.4012 24 19.0585V10.9414C24 10.5988 24 10.4274 23.9495 10.2746C23.9049 10.1395 23.8318 10.0154 23.7354 9.9107C23.6263 9.79236 23.4766 9.70916 23.177 9.54276L15.777 5.43164C15.4934 5.27409 15.3516 5.19531 15.2015 5.16442C15.0685 5.13709 14.9315 5.13709 14.7985 5.16442C14.6484 5.19531 14.5066 5.27409 14.223 5.43164L6.82297 9.54276C6.52345 9.70916 6.37369 9.79236 6.26463 9.9107C6.16816 10.0154 6.09515 10.1395 6.05048 10.2746C6 10.4274 6 10.5988 6 10.9414Z" stroke="#5F5C5C" stroke-linecap="round" stroke-linejoin="round"/>
<path d="M15.01 11L15.01 15M15.01 19H15" stroke="white" stroke-width="2" stroke-linecap="round" stroke-linejoin="round"/>
</svg>
