<svg width="30" height="30" viewBox="0 0 30 30" fill="none" xmlns="http://www.w3.org/2000/svg">
<rect width="30" height="30" rx="2" fill="white"/>
<path d="M22.8421 11.3158L23.3724 11.8461C23.5131 11.7055 23.5921 11.5147 23.5921 11.3158C23.5921 11.1169 23.5131 10.9261 23.3724 10.7855L22.8421 11.3158ZM20.2105 9.73684V8.98684V9.73684ZM11.2632 9.21053L11.4259 8.47839C11.2038 8.42904 10.9713 8.48315 10.7939 8.6255C10.6164 8.76784 10.5132 8.98304 10.5132 9.21053H11.2632ZM16 10.2632H16.75C16.75 9.91163 16.5059 9.60727 16.1627 9.53102L16 10.2632ZM16 11.8421L16.1627 12.5742C16.5059 12.498 16.75 12.1936 16.75 11.8421H16ZM11.2632 12.8947H10.5132C10.5132 13.1222 10.6164 13.3374 10.7939 13.4798C10.9713 13.6221 11.2038 13.6762 11.4259 13.6269L11.2632 12.8947ZM6 10.7895V10.0395C5.58579 10.0395 5.25 10.3753 5.25 10.7895H6ZM17.7235 14.8091C17.9087 14.4386 17.7585 13.9881 17.388 13.8029C17.0176 13.6176 16.5671 13.7678 16.3818 14.1383L17.7235 14.8091ZM20.9605 5C20.9605 4.58579 20.6247 4.25 20.2105 4.25C19.7963 4.25 19.4605 4.58579 19.4605 5H20.9605ZM19.4605 7.10526C19.4605 7.51948 19.7963 7.85526 20.2105 7.85526C20.6247 7.85526 20.9605 7.51948 20.9605 7.10526H19.4605ZM24.0392 14.1383C23.854 13.7678 23.4035 13.6176 23.033 13.8029C22.6625 13.9881 22.5124 14.4386 22.6976 14.8091L24.0392 14.1383ZM20.9605 15.5263C20.9605 15.1121 20.6247 14.7763 20.2105 14.7763C19.7963 14.7763 19.4605 15.1121 19.4605 15.5263H20.9605ZM19.4605 17.6316C19.4605 18.0458 19.7963 18.3816 20.2105 18.3816C20.6247 18.3816 20.9605 18.0458 20.9605 17.6316H19.4605ZM22.6976 6.76985C22.5124 7.14034 22.6625 7.59084 23.033 7.77608C23.4035 7.96133 23.854 7.81116 24.0392 7.44067L22.6976 6.76985ZM16.3818 7.44067C16.5671 7.81116 17.0176 7.96133 17.388 7.77608C17.7585 7.59084 17.9087 7.14034 17.7235 6.76985L16.3818 7.44067ZM24.5656 6.38804C24.7508 6.01756 24.6006 5.56705 24.2301 5.38181C23.8597 5.19657 23.4092 5.34674 23.2239 5.71722L24.5656 6.38804ZM17.1971 5.71722C17.0119 5.34674 16.5614 5.19657 16.1909 5.38181C15.8204 5.56705 15.6703 6.01756 15.8555 6.38804L17.1971 5.71722ZM15.8555 15.1909C15.6703 15.5614 15.8204 16.0119 16.1909 16.1971C16.5614 16.3824 17.0119 16.2322 17.1971 15.8617L15.8555 15.1909ZM23.2239 15.8617C23.4092 16.2322 23.8597 16.3824 24.2301 16.1971C24.6006 16.0119 24.7508 15.5614 24.5656 15.1909L23.2239 15.8617ZM22.8421 11.3158C23.3724 10.7855 23.3723 10.7854 23.3722 10.7853C23.3722 10.7852 23.3721 10.7851 23.372 10.785C23.3719 10.7849 23.3717 10.7847 23.3715 10.7845C23.371 10.7841 23.3705 10.7835 23.3699 10.7829C23.3687 10.7817 23.367 10.7801 23.365 10.7781C23.361 10.7741 23.3555 10.7687 23.3486 10.7619C23.3347 10.7483 23.315 10.7292 23.2901 10.7054C23.2402 10.6578 23.169 10.5911 23.0807 10.5116C22.9049 10.3534 22.657 10.1407 22.3711 9.92632C22.0876 9.71371 21.7519 9.48807 21.4012 9.31273C21.0627 9.14348 20.6436 8.98684 20.2105 8.98684V10.4868C20.3038 10.4868 20.4768 10.5276 20.7304 10.6544C20.9718 10.7751 21.2282 10.9442 21.4711 11.1263C21.7115 11.3066 21.9241 11.4887 22.0772 11.6265C22.1534 11.6951 22.2138 11.7517 22.2543 11.7905C22.2746 11.8098 22.2899 11.8246 22.2996 11.8342C22.3045 11.839 22.308 11.8424 22.3101 11.8444C22.3111 11.8454 22.3117 11.8461 22.312 11.8464C22.3122 11.8465 22.3122 11.8466 22.3122 11.8465C22.3122 11.8465 22.3121 11.8465 22.312 11.8464C22.312 11.8464 22.3119 11.8463 22.3119 11.8463C22.3119 11.8462 22.3118 11.8461 22.8421 11.3158ZM20.2105 8.98684C18.9243 8.98684 17.8816 10.0295 17.8816 11.3158H19.3816C19.3816 10.858 19.7527 10.4868 20.2105 10.4868V8.98684ZM17.8816 11.3158C17.8816 12.602 18.9243 13.6447 20.2105 13.6447V12.1447C19.7527 12.1447 19.3816 11.7736 19.3816 11.3158H17.8816ZM20.2105 13.6447C20.6436 13.6447 21.0627 13.4881 21.4012 13.3188C21.7519 13.1435 22.0876 12.9179 22.3711 12.7053C22.657 12.4908 22.9049 12.2782 23.0807 12.12C23.169 12.0405 23.2402 11.9738 23.2901 11.9262C23.315 11.9023 23.3347 11.8832 23.3486 11.8696C23.3555 11.8629 23.361 11.8574 23.365 11.8535C23.367 11.8515 23.3687 11.8499 23.3699 11.8487C23.3705 11.848 23.371 11.8475 23.3715 11.8471C23.3717 11.8469 23.3719 11.8467 23.372 11.8465C23.3721 11.8465 23.3722 11.8464 23.3722 11.8463C23.3723 11.8462 23.3724 11.8461 22.8421 11.3158C22.3118 10.7855 22.3119 10.7854 22.3119 10.7853C22.3119 10.7853 22.312 10.7852 22.312 10.7852C22.3121 10.7851 22.3122 10.7851 22.3122 10.7851C22.3122 10.785 22.3122 10.7851 22.312 10.7852C22.3117 10.7855 22.3111 10.7861 22.3101 10.7872C22.308 10.7892 22.3045 10.7926 22.2996 10.7974C22.2899 10.8069 22.2746 10.8218 22.2543 10.8411C22.2138 10.8799 22.1534 10.9365 22.0772 11.005C21.9241 11.1428 21.7115 11.325 21.4711 11.5053C21.2282 11.6874 20.9718 11.8565 20.7304 11.9772C20.4768 12.104 20.3038 12.1447 20.2105 12.1447V13.6447ZM11.1005 9.94267L15.8373 10.9953L16.1627 9.53102L11.4259 8.47839L11.1005 9.94267ZM15.25 10.2632V11.8421H16.75V10.2632H15.25ZM15.8373 11.11L11.1005 12.1626L11.4259 13.6269L16.1627 12.5742L15.8373 11.11ZM12.0132 12.8947V10.7895H10.5132V12.8947H12.0132ZM12.0132 10.7895V9.21053H10.5132V10.7895H12.0132ZM11.2632 10.0395H6V11.5395H11.2632V10.0395ZM5.25 10.7895V25H6.75V10.7895H5.25ZM19.4605 5V7.10526H20.9605V5H19.4605ZM19.4605 15.5263V17.6316H20.9605V15.5263H19.4605ZM23.2239 5.71722L22.6976 6.76985L24.0392 7.44067L24.5656 6.38804L23.2239 5.71722ZM15.8555 6.38804L16.3818 7.44067L17.7235 6.76985L17.1971 5.71722L15.8555 6.38804ZM16.3818 14.1383L15.8555 15.1909L17.1971 15.8617L17.7235 14.8091L16.3818 14.1383ZM22.6976 14.8091L23.2239 15.8617L24.5656 15.1909L24.0392 14.1383L22.6976 14.8091Z" fill="#5F5C5C"/>
</svg>
