<svg width="30" height="31" viewBox="0 0 30 31" fill="none" xmlns="http://www.w3.org/2000/svg">
<g clip-path="url(#clip0_5568_214229)">
<path d="M15 30.0352C23.2843 30.0352 30 23.3194 30 15.0352C30 6.75088 23.2843 0.0351562 15 0.0351562C6.71573 0.0351562 0 6.75088 0 15.0352C0 23.3194 6.71573 30.0352 15 30.0352Z" fill="#F0F0F0"/>
<path d="M14.9996 30.0351C21.4491 30.0351 26.9472 25.9645 29.0666 20.2525H0.932617C3.05201 25.9645 8.55016 30.0351 14.9996 30.0351Z" fill="black"/>
<path d="M14.9996 0.0351562C8.55016 0.0351562 3.05201 4.10578 0.932617 9.81779H29.0667C26.9472 4.10578 21.4491 0.0351562 14.9996 0.0351562V0.0351562Z" fill="#D80027"/>
</g>
<rect x="0.5" y="0.535156" width="29" height="29" rx="14.5" stroke="#D7D7D7"/>
<defs>
<clipPath id="clip0_5568_214229">
<rect y="0.0351562" width="30" height="30" rx="15" fill="white"/>
</clipPath>
</defs>
</svg>
