<svg width="30" height="31" viewBox="0 0 30 31" fill="none" xmlns="http://www.w3.org/2000/svg">
<g clip-path="url(#clip0_5568_214233)">
<path d="M15 30.0352C23.2843 30.0352 30 23.3194 30 15.0352C30 6.75088 23.2843 0.0351562 15 0.0351562C6.71573 0.0351562 0 6.75088 0 15.0352C0 23.3194 6.71573 30.0352 15 30.0352Z" fill="#496E2D"/>
<path d="M20.8696 15.0352H15V30.0352C16.7534 30.0352 18.436 29.7333 20 29.1805L20.8696 15.0352Z" fill="#D80027"/>
<path d="M25.0004 26.2144C28.0688 23.4679 30.0004 19.4773 30.0004 15.0352H24.1309L25.0004 26.2144Z" fill="#FF9811"/>
<path d="M20 15.0352V29.1805C21.8631 28.5219 23.5573 27.5059 25 26.2145V15.0352H20Z" fill="black"/>
<path d="M27.7171 9.81778H23.804C23.804 9.09743 23.22 8.51343 22.4996 8.51343C21.7793 8.51343 21.1953 9.09743 21.1953 9.81778H17.2822C17.2822 10.5382 17.9097 11.1221 18.63 11.1221H18.5866C18.5866 11.8425 19.1705 12.4265 19.8909 12.4265C19.8909 13.1469 20.4748 13.7309 21.1953 13.7309H23.804C24.5244 13.7309 25.1084 13.1469 25.1084 12.4265C25.8287 12.4265 26.4127 11.8425 26.4127 11.1221H26.3693C27.0896 11.1221 27.7171 10.5381 27.7171 9.81778V9.81778Z" fill="#FF9811"/>
</g>
<rect x="0.5" y="0.535156" width="29" height="29" rx="14.5" stroke="#D7D7D7"/>
<defs>
<clipPath id="clip0_5568_214233">
<rect y="0.0351562" width="30" height="30" rx="15" fill="white"/>
</clipPath>
</defs>
</svg>
