<svg width="30" height="30" viewBox="0 0 30 30" fill="none" xmlns="http://www.w3.org/2000/svg">
<rect width="30" height="30" rx="2" fill="white"/>
<path fill-rule="evenodd" clip-rule="evenodd" d="M25 15C25 20.5228 20.5228 25 15 25C9.47715 25 5 20.5228 5 15C5 9.47715 9.47715 5 15 5C20.5228 5 25 9.47715 25 15ZM10.3616 15.2468L15 8.5V13.5H18.9792C19.4721 13.5 19.7185 13.5 19.8528 13.6025C19.9699 13.6918 20.0416 13.8282 20.0489 13.9752C20.0573 14.144 19.9176 14.3471 19.6384 14.7532L15 21.5V16.5H11.0208C10.5279 16.5 10.2815 16.5 10.1472 16.3975C10.0301 16.3082 9.95843 16.1718 9.95113 16.0248C9.94275 15.856 10.0824 15.6529 10.3616 15.2468Z" fill="#5F5C5C" stroke="#5F5C5C" stroke-linecap="round" stroke-linejoin="round"/>
</svg>
