<svg width="30" height="30" viewBox="0 0 30 30" fill="none" xmlns="http://www.w3.org/2000/svg">
<rect width="30" height="30" rx="2" fill="white"/>
<path d="M12 20.5H6.5M9.5 15H5M12 9.5H7M20 6L13.4036 15.235C13.1116 15.6438 12.9656 15.8481 12.9719 16.0185C12.9774 16.1669 13.0486 16.3051 13.1661 16.3958C13.3011 16.5 13.5522 16.5 14.0546 16.5H19L18 24L24.5964 14.765C24.8884 14.3562 25.0344 14.1519 25.0281 13.9815C25.0226 13.8331 24.9514 13.6949 24.8339 13.6042C24.6989 13.5 24.4478 13.5 23.9454 13.5H19L20 6Z" stroke="#5F5C5C" stroke-width="1.5" stroke-linecap="round" stroke-linejoin="round"/>
</svg>
