<svg width="30" height="30" viewBox="0 0 30 30" fill="none" xmlns="http://www.w3.org/2000/svg">
<rect width="30" height="30" rx="2" fill="white"/>
<path d="M11 11L7.09346 15.6879C6.74465 16.1064 6.57024 16.3157 6.56758 16.4925C6.56526 16.6461 6.63373 16.7923 6.75326 16.8889C6.89075 17 7.16318 17 7.70803 17H15L14 25L19 19M18.65 13H22.292C22.8368 13 23.1093 13 23.2467 13.1111C23.3663 13.2077 23.4347 13.3539 23.4324 13.5075C23.4298 13.6843 23.2554 13.8936 22.9065 14.3121L21.5502 15.9397M13.5728 7.91265L16 5L15.4002 9.79771M24 24L6 6" stroke="#5F5C5C" stroke-width="1.5" stroke-linecap="round" stroke-linejoin="round"/>
</svg>
