<svg width="30" height="30" viewBox="0 0 30 30" fill="none" xmlns="http://www.w3.org/2000/svg">
<rect width="30" height="30" rx="2" fill="white"/>
<path d="M15 17H7.70803C7.16318 17 6.89075 17 6.75326 16.8889C6.63373 16.7923 6.56526 16.6461 6.56758 16.4925C6.57024 16.3157 6.74465 16.1064 7.09346 15.6879L11 11L19 19L14 25L15 17Z" fill="#5F5C5C"/>
<path d="M20.5631 13H22.292C22.8368 13 23.1093 13 23.2467 13.1111C23.3663 13.2077 23.4347 13.3539 23.4324 13.5075C23.4298 13.6843 23.2554 13.8936 22.9065 14.3121L22.1149 15.2621C21.9192 15.497 21.8213 15.6144 21.7024 15.6613C21.598 15.7025 21.4828 15.7073 21.3752 15.675C21.2529 15.6383 21.1455 15.5295 20.9308 15.3118L19.9936 14.3618C19.5716 13.9341 19.3606 13.7203 19.3471 13.5369C19.3353 13.3777 19.4002 13.2225 19.5217 13.1191C19.6618 13 19.9622 13 20.5631 13Z" fill="#5F5C5C"/>
<path d="M14.0332 7.36009L16 5L15.6072 8.14224C15.541 8.67203 15.5078 8.93693 15.3823 9.0592C15.2731 9.16553 15.1214 9.21627 14.9703 9.19701C14.7964 9.17487 14.6106 8.9832 14.239 8.59986L14.239 8.59985L14.0734 8.42908L14.0734 8.42907C13.8964 8.24653 13.808 8.15525 13.7717 8.04965C13.7398 7.95662 13.736 7.85626 13.7609 7.7611C13.7891 7.65307 13.8705 7.55541 14.0332 7.36009Z" fill="#5F5C5C"/>
<path d="M11 11L7.09346 15.6879C6.74465 16.1064 6.57024 16.3157 6.56758 16.4925C6.56526 16.6461 6.63373 16.7923 6.75326 16.8889C6.89075 17 7.16318 17 7.70803 17H15L14 25L19 19M24 24L6 6M22.292 13H20.5631C19.9622 13 19.6618 13 19.5217 13.1191C19.4002 13.2225 19.3353 13.3777 19.3471 13.5369C19.3606 13.7203 19.5716 13.9341 19.9936 14.3618L20.9308 15.3118C21.1455 15.5295 21.2529 15.6383 21.3752 15.675C21.4828 15.7073 21.598 15.7025 21.7024 15.6613C21.8213 15.6144 21.9192 15.497 22.1149 15.2621L22.9065 14.3121C23.2554 13.8936 23.4298 13.6843 23.4324 13.5075C23.4347 13.3539 23.3663 13.2077 23.2467 13.1111C23.1093 13 22.8368 13 22.292 13ZM16 5L14.0332 7.36009C13.8705 7.55541 13.7891 7.65307 13.7609 7.7611C13.736 7.85626 13.7398 7.95663 13.7717 8.04965C13.808 8.15526 13.8964 8.24653 14.0734 8.42908L14.239 8.59985C14.6106 8.9832 14.7964 9.17487 14.9703 9.19701C15.1214 9.21627 15.2731 9.16553 15.3823 9.0592C15.5078 8.93693 15.541 8.67203 15.6072 8.14224L16 5Z" stroke="#5F5C5C" stroke-linecap="round" stroke-linejoin="round"/>
</svg>
