<svg width="30" height="30" viewBox="0 0 30 30" fill="none" xmlns="http://www.w3.org/2000/svg">
<rect width="30" height="30" rx="2" fill="white"/>
<path fill-rule="evenodd" clip-rule="evenodd" d="M6.32698 7.63803C6 8.27976 6 9.11984 6 10.8V19.2C6 20.8802 6 21.7202 6.32698 22.362C6.6146 22.9265 7.07354 23.3854 7.63803 23.673C8.27976 24 9.11984 24 10.8 24H19.2C20.8802 24 21.7202 24 22.362 23.673C22.9265 23.3854 23.3854 22.9265 23.673 22.362C24 21.7202 24 20.8802 24 19.2V10.8C24 9.11984 24 8.27976 23.673 7.63803C23.3854 7.07354 22.9265 6.6146 22.362 6.32698C21.7202 6 20.8802 6 19.2 6H10.8C9.11984 6 8.27976 6 7.63803 6.32698C7.07354 6.6146 6.6146 7.07354 6.32698 7.63803ZM10.4336 15.2269L15 9V13.5H18.9213C19.4303 13.5 19.6849 13.5 19.8203 13.6053C19.9381 13.697 20.0089 13.8366 20.0131 13.9858C20.018 14.1573 19.8674 14.3626 19.5664 14.7731L15 21V16.5H11.0787C10.5697 16.5 10.3151 16.5 10.1797 16.3947C10.0619 16.303 9.99113 16.1634 9.9869 16.0142C9.98205 15.8427 10.1326 15.6374 10.4336 15.2269Z" fill="#5F5C5C" stroke="#5F5C5C" stroke-linecap="round" stroke-linejoin="round"/>
</svg>
