<svg width="30" height="30" viewBox="0 0 30 30" fill="none" xmlns="http://www.w3.org/2000/svg">
<g clip-path="url(#clip0_5568_214239)">
<path d="M15 30C23.2843 30 30 23.2843 30 15C30 6.71573 23.2843 0 15 0C6.71573 0 0 6.71573 0 15C0 23.2843 6.71573 30 15 30Z" fill="#F0F0F0"/>
<path d="M28.564 8.5899C27.802 6.9801 26.7619 5.52797 25.5056 4.29486L14.9998 3.26074L4.49391 4.29492C4.46039 4.32779 4.4277 4.36143 4.39453 4.39465L8.58984 8.58996L14.9998 8.78572L28.564 8.5899Z" fill="#FFDA44"/>
<path d="M4.39453 25.6052C4.44973 25.6604 4.5048 25.7157 4.56082 25.77L14.9999 26.739L25.4389 25.77C26.7081 24.5396 27.761 23.0873 28.5337 21.475L9.13031 20.8694C7.4608 22.539 5.53518 24.4645 4.39453 25.6052V25.6052Z" fill="#FFDA44"/>
<path d="M29.8511 12.8851L12.3916 12.3914L15.0003 15.0001C14.2276 15.7727 13.0742 16.9262 12.3916 17.6088L29.842 17.1802C29.9457 16.4684 30.0003 15.7406 30.0003 15.0001C30.0003 14.2821 29.9488 13.5762 29.8511 12.8851V12.8851Z" fill="black"/>
<path d="M15 0C10.9085 0 7.20035 1.63887 4.49414 4.29504H25.5059C22.7996 1.63887 19.0915 0 15 0Z" fill="#6DA544"/>
<path d="M12.8849 12.8851H29.8506C29.6366 11.3688 29.1962 9.92538 28.5641 8.59009H8.58984L12.8849 12.8851Z" fill="#D80027"/>
<path d="M8.52441 21.4752H28.5335C29.173 20.1409 29.6204 18.6973 29.8413 17.1802H12.8195C11.1562 18.8435 9.7465 20.2531 8.52441 21.4752Z" fill="#D80027"/>
<path d="M14.9996 30.0001C19.0575 30.0001 22.7383 28.3881 25.4386 25.7703H4.56055C7.26078 28.3881 10.9416 30.0001 14.9996 30.0001Z" fill="#6DA544"/>
<path d="M5.35654 3.51172C5.02309 3.79191 4.70135 4.08564 4.39355 4.39332L15.0002 15L4.39355 25.6066C4.70129 25.9143 5.02309 26.208 5.35654 26.4882L16.8448 15L5.35654 3.51172Z" fill="black"/>
<path d="M6.03035 11.0869L7.00154 14.0761H10.1448L7.60195 15.9237L8.5732 18.913L6.03035 17.0655L3.48744 18.913L4.45881 15.9237L1.91602 14.0761H5.0591L6.03035 11.0869Z" fill="#D80027"/>
<path d="M8.7023 15.2447L6.17117 14.348C6.17117 14.348 5.98414 12.5935 5.97283 12.534C5.88693 12.0815 5.48926 11.7393 5.01172 11.7393C4.47148 11.7393 4.03344 12.1772 4.03344 12.7175C4.03344 12.8071 4.0465 12.8934 4.06906 12.9759L3.35938 13.6904H4.62125C4.62125 15.0001 3.64391 15.0001 3.64391 16.3045L4.18607 17.6088H7.44693L7.99045 16.3045H7.99021C8.04465 16.1793 8.0777 16.0502 8.09135 15.9213C8.55986 15.7318 8.7023 15.2447 8.7023 15.2447V15.2447Z" fill="#FFDA44"/>
</g>
<rect x="0.5" y="0.5" width="29" height="29" rx="14.5" stroke="#D7D7D7"/>
<defs>
<clipPath id="clip0_5568_214239">
<rect width="30" height="30" rx="15" fill="white"/>
</clipPath>
</defs>
</svg>
